<?xml version="1.0" encoding="UTF-8" standalone="no"?>
<!DOCTYPE svg PUBLIC "-//W3C//DTD SVG 1.1//EN"
 "http://www.w3.org/Graphics/SVG/1.1/DTD/svg11.dtd">
<!-- Generated by graphviz version 2.47.1 (20210417.1919)
 -->
<!-- Pages: 1 -->
<svg width="524pt" height="273pt"
 viewBox="0.00 0.00 524.21 272.98" xmlns="http://www.w3.org/2000/svg" xmlns:xlink="http://www.w3.org/1999/xlink">
<g id="graph0" class="graph" transform="scale(1 1) rotate(0) translate(4 268.98)">
<polygon fill="white" stroke="transparent" points="-4,4 -4,-268.98 520.21,-268.98 520.21,4 -4,4"/>
<!-- &#45;1 -->
<g id="node1" class="node">
<title>&#45;1</title>
<polygon fill="lightgray" stroke="black" points="24,-252.76 0,-252.76 0,-234.76 24,-234.76 24,-252.76"/>
<text text-anchor="middle" x="12" y="-241.56" font-family="Times New Roman,serif" font-size="9.00">&#45;1</text>
</g>
<!-- 1 -->
<g id="node13" class="node">
<title>1</title>
<ellipse fill="lightblue" stroke="black" cx="27" cy="-86.91" rx="14.7" ry="14.7"/>
<text text-anchor="middle" x="27" y="-84.71" font-family="Times New Roman,serif" font-size="9.00">1</text>
</g>
<!-- &#45;1&#45;&gt;1 -->
<g id="edge11" class="edge">
<title>&#45;1&#45;&gt;1</title>
<path fill="none" stroke="green" stroke-width="0.3" d="M12.81,-234.44C15.01,-211.65 21.22,-147.6 24.65,-112.2"/>
<polygon fill="green" stroke="green" stroke-width="0.3" points="28.17,-112.09 25.65,-101.8 21.21,-111.41 28.17,-112.09"/>
</g>
<!-- 29 -->
<g id="node19" class="node">
<title>29</title>
<ellipse fill="white" stroke="black" cx="112" cy="-165.34" rx="18.27" ry="18.27"/>
<text text-anchor="middle" x="112" y="-163.14" font-family="Times New Roman,serif" font-size="9.00">29</text>
</g>
<!-- &#45;1&#45;&gt;29 -->
<g id="edge1" class="edge">
<title>&#45;1&#45;&gt;29</title>
<path fill="none" stroke="green" stroke-width="0.3" d="M19.92,-234.6C23.75,-230.8 28.48,-226.3 33,-222.55 50.76,-207.82 72.16,-192.75 88.2,-181.92"/>
<polygon fill="green" stroke="green" stroke-width="0.3" points="90.58,-184.54 96.96,-176.07 86.7,-178.71 90.58,-184.54"/>
</g>
<!-- &#45;2 -->
<g id="node2" class="node">
<title>&#45;2</title>
<polygon fill="lightgray" stroke="black" points="324,-252.76 300,-252.76 300,-234.76 324,-234.76 324,-252.76"/>
<text text-anchor="middle" x="312" y="-241.56" font-family="Times New Roman,serif" font-size="9.00">&#45;2</text>
</g>
<!-- 2 -->
<g id="node14" class="node">
<title>2</title>
<ellipse fill="lightblue" stroke="black" cx="312" cy="-165.34" rx="14.7" ry="14.7"/>
<text text-anchor="middle" x="312" y="-163.14" font-family="Times New Roman,serif" font-size="9.00">2</text>
</g>
<!-- &#45;2&#45;&gt;2 -->
<g id="edge10" class="edge">
<title>&#45;2&#45;&gt;2</title>
<path fill="none" stroke="green" stroke-width="0.3" d="M312,-234.59C312,-224.17 312,-205.73 312,-190.63"/>
<polygon fill="green" stroke="green" stroke-width="0.3" points="315.5,-190.4 312,-180.4 308.5,-190.4 315.5,-190.4"/>
</g>
<!-- &#45;3 -->
<g id="node3" class="node">
<title>&#45;3</title>
<polygon fill="lightgray" stroke="black" points="282,-252.76 258,-252.76 258,-234.76 282,-234.76 282,-252.76"/>
<text text-anchor="middle" x="270" y="-241.56" font-family="Times New Roman,serif" font-size="9.00">&#45;3</text>
</g>
<!-- 697 -->
<g id="node18" class="node">
<title>697</title>
<ellipse fill="white" stroke="black" cx="232" cy="-165.34" rx="21.43" ry="21.43"/>
<text text-anchor="middle" x="232" y="-163.14" font-family="Times New Roman,serif" font-size="9.00">697</text>
</g>
<!-- &#45;3&#45;&gt;697 -->
<g id="edge16" class="edge">
<title>&#45;3&#45;&gt;697</title>
<path fill="none" stroke="green" stroke-width="0.3" d="M265.93,-234.59C261.1,-224.86 252.77,-208.11 245.58,-193.64"/>
<polygon fill="green" stroke="green" stroke-width="0.3" points="248.65,-191.96 241.06,-184.56 242.38,-195.07 248.65,-191.96"/>
</g>
<!-- &#45;4 -->
<g id="node4" class="node">
<title>&#45;4</title>
<polygon fill="lightgray" stroke="black" points="366,-252.76 342,-252.76 342,-234.76 366,-234.76 366,-252.76"/>
<text text-anchor="middle" x="354" y="-241.56" font-family="Times New Roman,serif" font-size="9.00">&#45;4</text>
</g>
<!-- &#45;5 -->
<g id="node5" class="node">
<title>&#45;5</title>
<polygon fill="lightgray" stroke="black" points="66,-252.76 42,-252.76 42,-234.76 66,-234.76 66,-252.76"/>
<text text-anchor="middle" x="54" y="-241.56" font-family="Times New Roman,serif" font-size="9.00">&#45;5</text>
</g>
<!-- &#45;5&#45;&gt;29 -->
<g id="edge2" class="edge">
<title>&#45;5&#45;&gt;29</title>
<path fill="none" stroke="green" stroke-width="0.3" d="M60.21,-234.59C68.49,-223.67 83.48,-203.92 95.21,-188.46"/>
<polygon fill="green" stroke="green" stroke-width="0.3" points="98.07,-190.48 101.33,-180.4 92.49,-186.25 98.07,-190.48"/>
</g>
<!-- &#45;6 -->
<g id="node6" class="node">
<title>&#45;6</title>
<polygon fill="lightgray" stroke="black" points="108,-252.76 84,-252.76 84,-234.76 108,-234.76 108,-252.76"/>
<text text-anchor="middle" x="96" y="-241.56" font-family="Times New Roman,serif" font-size="9.00">&#45;6</text>
</g>
<!-- &#45;6&#45;&gt;29 -->
<g id="edge3" class="edge">
<title>&#45;6&#45;&gt;29</title>
<path fill="none" stroke="green" stroke-width="0.3" d="M97.71,-234.59C99.75,-224.86 103.26,-208.11 106.28,-193.64"/>
<polygon fill="green" stroke="green" stroke-width="0.3" points="109.75,-194.14 108.38,-183.64 102.9,-192.71 109.75,-194.14"/>
</g>
<!-- &#45;7 -->
<g id="node7" class="node">
<title>&#45;7</title>
<polygon fill="lightgray" stroke="black" points="150,-252.76 126,-252.76 126,-234.76 150,-234.76 150,-252.76"/>
<text text-anchor="middle" x="138" y="-241.56" font-family="Times New Roman,serif" font-size="9.00">&#45;7</text>
</g>
<!-- &#45;7&#45;&gt;29 -->
<g id="edge4" class="edge">
<title>&#45;7&#45;&gt;29</title>
<path fill="none" stroke="green" stroke-width="0.3" d="M135.22,-234.59C131.83,-224.64 125.95,-207.35 120.96,-192.66"/>
<polygon fill="green" stroke="green" stroke-width="0.3" points="124.21,-191.37 117.68,-183.03 117.59,-193.63 124.21,-191.37"/>
</g>
<!-- &#45;8 -->
<g id="node8" class="node">
<title>&#45;8</title>
<polygon fill="lightgray" stroke="black" points="408,-252.76 384,-252.76 384,-234.76 408,-234.76 408,-252.76"/>
<text text-anchor="middle" x="396" y="-241.56" font-family="Times New Roman,serif" font-size="9.00">&#45;8</text>
</g>
<!-- &#45;9 -->
<g id="node9" class="node">
<title>&#45;9</title>
<polygon fill="lightgray" stroke="black" points="240,-252.76 216,-252.76 216,-234.76 240,-234.76 240,-252.76"/>
<text text-anchor="middle" x="228" y="-241.56" font-family="Times New Roman,serif" font-size="9.00">&#45;9</text>
</g>
<!-- &#45;9&#45;&gt;697 -->
<g id="edge15" class="edge">
<title>&#45;9&#45;&gt;697</title>
<path fill="none" stroke="green" stroke-width="0.3" stroke-dasharray="1,5" d="M228.43,-234.59C228.9,-225.56 229.69,-210.51 230.4,-196.83"/>
<polygon fill="green" stroke="green" stroke-width="0.3" points="233.9,-196.93 230.93,-186.76 226.91,-196.57 233.9,-196.93"/>
</g>
<!-- &#45;9&#45;&gt;29 -->
<g id="edge5" class="edge">
<title>&#45;9&#45;&gt;29</title>
<path fill="none" stroke="green" stroke-width="0.3" d="M219.78,-234.47C215.79,-230.64 210.82,-226.15 206,-222.55 183.74,-205.94 156.27,-189.98 136.79,-179.34"/>
<polygon fill="green" stroke="green" stroke-width="0.3" points="138.39,-176.23 127.93,-174.56 135.07,-182.39 138.39,-176.23"/>
</g>
<!-- &#45;10 -->
<g id="node10" class="node">
<title>&#45;10</title>
<polygon fill="lightgray" stroke="black" points="455.5,-252.76 426.5,-252.76 426.5,-234.76 455.5,-234.76 455.5,-252.76"/>
<text text-anchor="middle" x="441" y="-241.56" font-family="Times New Roman,serif" font-size="9.00">&#45;10</text>
</g>
<!-- &#45;11 -->
<g id="node11" class="node">
<title>&#45;11</title>
<polygon fill="lightgray" stroke="black" points="197.5,-252.76 168.5,-252.76 168.5,-234.76 197.5,-234.76 197.5,-252.76"/>
<text text-anchor="middle" x="183" y="-241.56" font-family="Times New Roman,serif" font-size="9.00">&#45;11</text>
</g>
<!-- 3 -->
<g id="node15" class="node">
<title>3</title>
<ellipse fill="lightblue" stroke="black" cx="177" cy="-86.91" rx="14.7" ry="14.7"/>
<text text-anchor="middle" x="177" y="-84.71" font-family="Times New Roman,serif" font-size="9.00">3</text>
</g>
<!-- &#45;11&#45;&gt;3 -->
<g id="edge12" class="edge">
<title>&#45;11&#45;&gt;3</title>
<path fill="none" stroke="green" stroke-width="0.3" d="M182.68,-234.44C181.79,-211.65 179.31,-147.6 177.94,-112.2"/>
<polygon fill="green" stroke="green" stroke-width="0.3" points="181.42,-111.66 177.54,-101.8 174.43,-111.93 181.42,-111.66"/>
</g>
<!-- &#45;11&#45;&gt;29 -->
<g id="edge6" class="edge">
<title>&#45;11&#45;&gt;29</title>
<path fill="none" stroke="green" stroke-width="0.3" d="M175.4,-234.59C164.92,-223.31 145.68,-202.59 131.13,-186.93"/>
<polygon fill="green" stroke="green" stroke-width="0.3" points="133.39,-184.23 124.02,-179.28 128.27,-188.99 133.39,-184.23"/>
</g>
<!-- 0 -->
<g id="node12" class="node">
<title>0</title>
<ellipse fill="lightblue" stroke="black" cx="108" cy="-14.85" rx="14.7" ry="14.7"/>
<text text-anchor="middle" x="108" y="-12.65" font-family="Times New Roman,serif" font-size="9.00">0</text>
</g>
<!-- 100 -->
<g id="node16" class="node">
<title>100</title>
<ellipse fill="white" stroke="black" cx="495" cy="-243.76" rx="21.43" ry="21.43"/>
<text text-anchor="middle" x="495" y="-241.56" font-family="Times New Roman,serif" font-size="9.00">100</text>
</g>
<!-- 462 -->
<g id="node17" class="node">
<title>462</title>
<ellipse fill="white" stroke="black" cx="84" cy="-86.91" rx="21.43" ry="21.43"/>
<text text-anchor="middle" x="84" y="-84.71" font-family="Times New Roman,serif" font-size="9.00">462</text>
</g>
<!-- 462&#45;&gt;0 -->
<g id="edge14" class="edge">
<title>462&#45;&gt;0</title>
<path fill="none" stroke="green" stroke-width="0.3" stroke-dasharray="1,5" d="M90.69,-66.4C93.6,-57.9 97.03,-47.87 100.07,-39"/>
<polygon fill="green" stroke="green" stroke-width="0.3" points="103.47,-39.87 103.4,-29.28 96.85,-37.6 103.47,-39.87"/>
</g>
<!-- 29&#45;&gt;0 -->
<g id="edge7" class="edge">
<title>29&#45;&gt;0</title>
<path fill="none" stroke="green" stroke-width="0.3" d="M113.2,-146.86C114.36,-127.13 115.7,-94.08 114,-65.7 113.49,-57.23 112.5,-47.99 111.47,-39.8"/>
<polygon fill="green" stroke="green" stroke-width="0.3" points="114.93,-39.22 110.13,-29.78 107.99,-40.15 114.93,-39.22"/>
</g>
<!-- 29&#45;&gt;1 -->
<g id="edge8" class="edge">
<title>29&#45;&gt;1</title>
<path fill="none" stroke="green" stroke-width="0.3" d="M98.72,-152.4C84.4,-139.53 61.52,-118.95 45.46,-104.51"/>
<polygon fill="green" stroke="green" stroke-width="0.3" points="47.54,-101.67 37.77,-97.59 42.86,-106.88 47.54,-101.67"/>
</g>
<!-- 29&#45;&gt;3 -->
<g id="edge9" class="edge">
<title>29&#45;&gt;3</title>
<path fill="none" stroke="green" stroke-width="0.3" stroke-dasharray="1,5" d="M123.62,-150.67C134.02,-138.44 149.37,-120.39 160.95,-106.79"/>
<polygon fill="green" stroke="green" stroke-width="0.3" points="163.77,-108.86 167.59,-98.98 158.44,-104.33 163.77,-108.86"/>
</g>
<!-- 29&#45;&gt;462 -->
<g id="edge13" class="edge">
<title>29&#45;&gt;462</title>
<path fill="none" stroke="green" stroke-width="0.3" stroke-dasharray="1,5" d="M105.92,-147.75C102.61,-138.71 98.41,-127.24 94.58,-116.78"/>
<polygon fill="green" stroke="green" stroke-width="0.3" points="97.78,-115.35 91.05,-107.16 91.21,-117.75 97.78,-115.35"/>
</g>
</g>
</svg>
