<?xml version="1.0" encoding="UTF-8" standalone="no"?>
<!DOCTYPE svg PUBLIC "-//W3C//DTD SVG 1.1//EN"
 "http://www.w3.org/Graphics/SVG/1.1/DTD/svg11.dtd">
<!-- Generated by graphviz version 2.47.1 (20210417.1919)
 -->
<!-- Pages: 1 -->
<svg width="442pt" height="177pt"
 viewBox="0.00 0.00 441.50 177.20" xmlns="http://www.w3.org/2000/svg" xmlns:xlink="http://www.w3.org/1999/xlink">
<g id="graph0" class="graph" transform="scale(1 1) rotate(0) translate(4 173.2)">
<polygon fill="white" stroke="transparent" points="-4,4 -4,-173.2 437.5,-173.2 437.5,4 -4,4"/>
<!-- &#45;1 -->
<g id="node1" class="node">
<title>&#45;1</title>
<polygon fill="lightgray" stroke="black" points="24,-169.2 0,-169.2 0,-151.2 24,-151.2 24,-169.2"/>
<text text-anchor="middle" x="12" y="-158" font-family="Times New Roman,serif" font-size="9.00">&#45;1</text>
</g>
<!-- 2 -->
<g id="node14" class="node">
<title>2</title>
<ellipse fill="lightblue" stroke="black" cx="30" cy="-90.45" rx="14.7" ry="14.7"/>
<text text-anchor="middle" x="30" y="-88.25" font-family="Times New Roman,serif" font-size="9.00">2</text>
</g>
<!-- &#45;1&#45;&gt;2 -->
<g id="edge1" class="edge">
<title>&#45;1&#45;&gt;2</title>
<path fill="none" stroke="red" stroke-width="0.13" stroke-dasharray="1,5" d="M14.14,-151.16C16.49,-142.29 20.4,-127.59 23.74,-115"/>
<polygon fill="red" stroke="red" stroke-width="0.13" points="27.19,-115.66 26.37,-105.09 20.42,-113.86 27.19,-115.66"/>
</g>
<!-- &#45;2 -->
<g id="node2" class="node">
<title>&#45;2</title>
<polygon fill="lightgray" stroke="black" points="344,-99.45 320,-99.45 320,-81.45 344,-81.45 344,-99.45"/>
<text text-anchor="middle" x="332" y="-88.25" font-family="Times New Roman,serif" font-size="9.00">&#45;2</text>
</g>
<!-- 0 -->
<g id="node12" class="node">
<title>0</title>
<ellipse fill="lightblue" stroke="black" cx="353" cy="-14.85" rx="14.7" ry="14.7"/>
<text text-anchor="middle" x="353" y="-12.65" font-family="Times New Roman,serif" font-size="9.00">0</text>
</g>
<!-- &#45;2&#45;&gt;0 -->
<g id="edge2" class="edge">
<title>&#45;2&#45;&gt;0</title>
<path fill="none" stroke="red" stroke-width="0.37" stroke-dasharray="1,5" d="M334.33,-81.29C337.21,-71.17 342.26,-53.49 346.38,-39.06"/>
<polygon fill="red" stroke="red" stroke-width="0.37" points="349.79,-39.85 349.17,-29.27 343.06,-37.93 349.79,-39.85"/>
</g>
<!-- &#45;3 -->
<g id="node3" class="node">
<title>&#45;3</title>
<polygon fill="lightgray" stroke="black" points="198,-169.2 174,-169.2 174,-151.2 198,-151.2 198,-169.2"/>
<text text-anchor="middle" x="186" y="-158" font-family="Times New Roman,serif" font-size="9.00">&#45;3</text>
</g>
<!-- &#45;4 -->
<g id="node4" class="node">
<title>&#45;4</title>
<polygon fill="lightgray" stroke="black" points="302,-99.45 278,-99.45 278,-81.45 302,-81.45 302,-99.45"/>
<text text-anchor="middle" x="290" y="-88.25" font-family="Times New Roman,serif" font-size="9.00">&#45;4</text>
</g>
<!-- &#45;4&#45;&gt;0 -->
<g id="edge3" class="edge">
<title>&#45;4&#45;&gt;0</title>
<path fill="none" stroke="red" stroke-width="0.15" stroke-dasharray="1,5" d="M296.98,-81.29C306.61,-70.05 324.22,-49.47 337.13,-34.39"/>
<polygon fill="red" stroke="red" stroke-width="0.15" points="339.9,-36.53 343.74,-26.66 334.58,-31.98 339.9,-36.53"/>
</g>
<!-- 3 -->
<g id="node15" class="node">
<title>3</title>
<ellipse fill="lightblue" stroke="black" cx="221" cy="-14.85" rx="14.7" ry="14.7"/>
<text text-anchor="middle" x="221" y="-12.65" font-family="Times New Roman,serif" font-size="9.00">3</text>
</g>
<!-- &#45;4&#45;&gt;3 -->
<g id="edge14" class="edge">
<title>&#45;4&#45;&gt;3</title>
<path fill="none" stroke="red" stroke-width="0.29" d="M282.7,-81.02C278.7,-76.44 273.63,-70.71 269,-65.7 258.94,-54.8 247.42,-42.82 238.19,-33.34"/>
<polygon fill="red" stroke="red" stroke-width="0.29" points="240.55,-30.74 231.06,-26.04 235.54,-35.64 240.55,-30.74"/>
</g>
<!-- &#45;5 -->
<g id="node5" class="node">
<title>&#45;5</title>
<polygon fill="lightgray" stroke="black" points="108,-169.2 84,-169.2 84,-151.2 108,-151.2 108,-169.2"/>
<text text-anchor="middle" x="96" y="-158" font-family="Times New Roman,serif" font-size="9.00">&#45;5</text>
</g>
<!-- 1 -->
<g id="node13" class="node">
<title>1</title>
<ellipse fill="lightblue" stroke="black" cx="96" cy="-90.45" rx="14.7" ry="14.7"/>
<text text-anchor="middle" x="96" y="-88.25" font-family="Times New Roman,serif" font-size="9.00">1</text>
</g>
<!-- &#45;5&#45;&gt;1 -->
<g id="edge4" class="edge">
<title>&#45;5&#45;&gt;1</title>
<path fill="none" stroke="red" stroke-width="0.12" stroke-dasharray="1,5" d="M96,-151.16C96,-142.43 96,-128.06 96,-115.61"/>
<polygon fill="red" stroke="red" stroke-width="0.12" points="99.5,-115.35 96,-105.35 92.5,-115.35 99.5,-115.35"/>
</g>
<!-- &#45;6 -->
<g id="node6" class="node">
<title>&#45;6</title>
<polygon fill="lightgray" stroke="black" points="240,-169.2 216,-169.2 216,-151.2 240,-151.2 240,-169.2"/>
<text text-anchor="middle" x="228" y="-158" font-family="Times New Roman,serif" font-size="9.00">&#45;6</text>
</g>
<!-- &#45;7 -->
<g id="node7" class="node">
<title>&#45;7</title>
<polygon fill="lightgray" stroke="black" points="386,-99.45 362,-99.45 362,-81.45 386,-81.45 386,-99.45"/>
<text text-anchor="middle" x="374" y="-88.25" font-family="Times New Roman,serif" font-size="9.00">&#45;7</text>
</g>
<!-- &#45;7&#45;&gt;0 -->
<g id="edge5" class="edge">
<title>&#45;7&#45;&gt;0</title>
<path fill="none" stroke="green" stroke-width="0.63" stroke-dasharray="1,5" d="M371.67,-81.29C368.79,-71.17 363.74,-53.49 359.62,-39.06"/>
<polygon fill="green" stroke="green" stroke-width="0.63" points="362.94,-37.93 356.83,-29.27 356.21,-39.85 362.94,-37.93"/>
</g>
<!-- &#45;8 -->
<g id="node8" class="node">
<title>&#45;8</title>
<polygon fill="lightgray" stroke="black" points="66,-169.2 42,-169.2 42,-151.2 66,-151.2 66,-169.2"/>
<text text-anchor="middle" x="54" y="-158" font-family="Times New Roman,serif" font-size="9.00">&#45;8</text>
</g>
<!-- &#45;8&#45;&gt;1 -->
<g id="edge11" class="edge">
<title>&#45;8&#45;&gt;1</title>
<path fill="none" stroke="green" stroke-width="0.51" d="M58.98,-151.16C64.86,-141.68 74.85,-125.56 82.97,-112.46"/>
<polygon fill="green" stroke="green" stroke-width="0.51" points="86.18,-113.93 88.47,-103.59 80.23,-110.24 86.18,-113.93"/>
</g>
<!-- &#45;8&#45;&gt;2 -->
<g id="edge6" class="edge">
<title>&#45;8&#45;&gt;2</title>
<path fill="none" stroke="green" stroke-width="1.61" d="M51.15,-151.16C47.94,-142.09 42.57,-126.93 38.04,-114.16"/>
<polygon fill="green" stroke="green" stroke-width="1.61" points="41.29,-112.84 34.65,-104.59 34.69,-115.18 41.29,-112.84"/>
</g>
<!-- &#45;9 -->
<g id="node9" class="node">
<title>&#45;9</title>
<polygon fill="lightgray" stroke="black" points="260,-99.45 236,-99.45 236,-81.45 260,-81.45 260,-99.45"/>
<text text-anchor="middle" x="248" y="-88.25" font-family="Times New Roman,serif" font-size="9.00">&#45;9</text>
</g>
<!-- &#45;9&#45;&gt;3 -->
<g id="edge7" class="edge">
<title>&#45;9&#45;&gt;3</title>
<path fill="none" stroke="green" stroke-width="1.76" d="M245.01,-81.29C241.27,-71.11 234.73,-53.28 229.42,-38.8"/>
<polygon fill="green" stroke="green" stroke-width="1.76" points="232.56,-37.19 225.83,-29 225.98,-39.6 232.56,-37.19"/>
</g>
<!-- &#45;10 -->
<g id="node10" class="node">
<title>&#45;10</title>
<polygon fill="lightgray" stroke="black" points="433.5,-99.45 404.5,-99.45 404.5,-81.45 433.5,-81.45 433.5,-99.45"/>
<text text-anchor="middle" x="419" y="-88.25" font-family="Times New Roman,serif" font-size="9.00">&#45;10</text>
</g>
<!-- &#45;10&#45;&gt;0 -->
<g id="edge8" class="edge">
<title>&#45;10&#45;&gt;0</title>
<path fill="none" stroke="green" stroke-width="0.82" d="M411.68,-81.29C401.6,-70.05 383.15,-49.47 369.62,-34.39"/>
<polygon fill="green" stroke="green" stroke-width="0.82" points="371.98,-31.77 362.7,-26.66 366.77,-36.44 371.98,-31.77"/>
</g>
<!-- &#45;11 -->
<g id="node11" class="node">
<title>&#45;11</title>
<polygon fill="lightgray" stroke="black" points="155.5,-169.2 126.5,-169.2 126.5,-151.2 155.5,-151.2 155.5,-169.2"/>
<text text-anchor="middle" x="141" y="-158" font-family="Times New Roman,serif" font-size="9.00">&#45;11</text>
</g>
<!-- &#45;11&#45;&gt;1 -->
<g id="edge9" class="edge">
<title>&#45;11&#45;&gt;1</title>
<path fill="none" stroke="green" stroke-width="1.08" d="M135.66,-151.16C129.31,-141.59 118.45,-125.25 109.7,-112.08"/>
<polygon fill="green" stroke="green" stroke-width="1.08" points="112.51,-109.98 104.06,-103.59 106.68,-113.86 112.51,-109.98"/>
</g>
<!-- &#45;11&#45;&gt;3 -->
<g id="edge10" class="edge">
<title>&#45;11&#45;&gt;3</title>
<path fill="none" stroke="red" stroke-width="0.29" stroke-dasharray="1,5" d="M140.75,-151.03C140.6,-133.93 142.2,-93.6 159,-65.7 168.67,-49.64 185.5,-36.6 199.19,-27.89"/>
<polygon fill="red" stroke="red" stroke-width="0.29" points="201.28,-30.72 208.04,-22.57 197.67,-24.72 201.28,-30.72"/>
</g>
<!-- 1834 -->
<g id="node16" class="node">
<title>1834</title>
<ellipse fill="white" stroke="black" cx="193" cy="-90.45" rx="25" ry="25"/>
<text text-anchor="middle" x="193" y="-88.25" font-family="Times New Roman,serif" font-size="9.00">1834</text>
</g>
<!-- &#45;11&#45;&gt;1834 -->
<g id="edge12" class="edge">
<title>&#45;11&#45;&gt;1834</title>
<path fill="none" stroke="red" stroke-width="0.22" d="M147.17,-151.16C153.32,-143.15 163.11,-130.39 172.06,-118.72"/>
<polygon fill="red" stroke="red" stroke-width="0.22" points="175.06,-120.57 178.37,-110.5 169.51,-116.3 175.06,-120.57"/>
</g>
<!-- 1834&#45;&gt;3 -->
<g id="edge13" class="edge">
<title>1834&#45;&gt;3</title>
<path fill="none" stroke="green" stroke-width="0.3" d="M201.55,-66.97C204.97,-58 208.89,-47.68 212.31,-38.68"/>
<polygon fill="green" stroke="green" stroke-width="0.3" points="215.63,-39.81 215.92,-29.21 209.09,-37.32 215.63,-39.81"/>
</g>
</g>
</svg>
