<?xml version="1.0" encoding="UTF-8" standalone="no"?>
<!DOCTYPE svg PUBLIC "-//W3C//DTD SVG 1.1//EN"
 "http://www.w3.org/Graphics/SVG/1.1/DTD/svg11.dtd">
<!-- Generated by graphviz version 2.47.1 (20210417.1919)
 -->
<!-- Pages: 1 -->
<svg width="464pt" height="92pt"
 viewBox="0.00 0.00 464.00 91.70" xmlns="http://www.w3.org/2000/svg" xmlns:xlink="http://www.w3.org/1999/xlink">
<g id="graph0" class="graph" transform="scale(1 1) rotate(0) translate(4 87.7)">
<polygon fill="white" stroke="transparent" points="-4,4 -4,-87.7 460,-87.7 460,4 -4,4"/>
<!-- &#45;1 -->
<g id="node1" class="node">
<title>&#45;1</title>
<polygon fill="lightgray" stroke="black" points="24,-83.7 0,-83.7 0,-65.7 24,-65.7 24,-83.7"/>
<text text-anchor="middle" x="12" y="-72.5" font-family="Times New Roman,serif" font-size="9.00">&#45;1</text>
</g>
<!-- 1 -->
<g id="node13" class="node">
<title>1</title>
<ellipse fill="lightblue" stroke="black" cx="45" cy="-14.85" rx="14.7" ry="14.7"/>
<text text-anchor="middle" x="45" y="-12.65" font-family="Times New Roman,serif" font-size="9.00">1</text>
</g>
<!-- &#45;1&#45;&gt;1 -->
<g id="edge10" class="edge">
<title>&#45;1&#45;&gt;1</title>
<path fill="none" stroke="green" stroke-width="0.34" d="M16.59,-65.65C20.78,-58.31 27.15,-47.13 32.81,-37.22"/>
<polygon fill="green" stroke="green" stroke-width="0.34" points="36,-38.7 37.91,-28.28 29.92,-35.23 36,-38.7"/>
</g>
<!-- &#45;2 -->
<g id="node2" class="node">
<title>&#45;2</title>
<polygon fill="lightgray" stroke="black" points="114,-83.7 90,-83.7 90,-65.7 114,-65.7 114,-83.7"/>
<text text-anchor="middle" x="102" y="-72.5" font-family="Times New Roman,serif" font-size="9.00">&#45;2</text>
</g>
<!-- 3 -->
<g id="node15" class="node">
<title>3</title>
<ellipse fill="lightblue" stroke="black" cx="114" cy="-14.85" rx="14.7" ry="14.7"/>
<text text-anchor="middle" x="114" y="-12.65" font-family="Times New Roman,serif" font-size="9.00">3</text>
</g>
<!-- &#45;2&#45;&gt;3 -->
<g id="edge6" class="edge">
<title>&#45;2&#45;&gt;3</title>
<path fill="none" stroke="green" stroke-width="0.35" d="M103.67,-65.65C105.07,-58.89 107.15,-48.86 109.08,-39.57"/>
<polygon fill="green" stroke="green" stroke-width="0.35" points="112.54,-40.11 111.15,-29.6 105.69,-38.69 112.54,-40.11"/>
</g>
<!-- &#45;3 -->
<g id="node3" class="node">
<title>&#45;3</title>
<polygon fill="lightgray" stroke="black" points="198,-83.7 174,-83.7 174,-65.7 198,-65.7 198,-83.7"/>
<text text-anchor="middle" x="186" y="-72.5" font-family="Times New Roman,serif" font-size="9.00">&#45;3</text>
</g>
<!-- 2 -->
<g id="node14" class="node">
<title>2</title>
<ellipse fill="lightblue" stroke="black" cx="196" cy="-14.85" rx="14.7" ry="14.7"/>
<text text-anchor="middle" x="196" y="-12.65" font-family="Times New Roman,serif" font-size="9.00">2</text>
</g>
<!-- &#45;3&#45;&gt;2 -->
<g id="edge7" class="edge">
<title>&#45;3&#45;&gt;2</title>
<path fill="none" stroke="green" stroke-width="0.18" stroke-dasharray="1,5" d="M187.39,-65.65C188.56,-58.89 190.29,-48.86 191.9,-39.57"/>
<polygon fill="green" stroke="green" stroke-width="0.18" points="195.37,-40.05 193.62,-29.6 188.47,-38.86 195.37,-40.05"/>
</g>
<!-- &#45;3&#45;&gt;3 -->
<g id="edge9" class="edge">
<title>&#45;3&#45;&gt;3</title>
<path fill="none" stroke="red" stroke-width="0.65" stroke-dasharray="1,5" d="M175.99,-65.65C164.98,-56.81 147.03,-42.39 133.27,-31.34"/>
<polygon fill="red" stroke="red" stroke-width="0.65" points="135.34,-28.5 125.35,-24.97 130.95,-33.96 135.34,-28.5"/>
</g>
<!-- &#45;4 -->
<g id="node4" class="node">
<title>&#45;4</title>
<polygon fill="lightgray" stroke="black" points="330,-83.7 306,-83.7 306,-65.7 330,-65.7 330,-83.7"/>
<text text-anchor="middle" x="318" y="-72.5" font-family="Times New Roman,serif" font-size="9.00">&#45;4</text>
</g>
<!-- &#45;5 -->
<g id="node5" class="node">
<title>&#45;5</title>
<polygon fill="lightgray" stroke="black" points="372,-83.7 348,-83.7 348,-65.7 372,-65.7 372,-83.7"/>
<text text-anchor="middle" x="360" y="-72.5" font-family="Times New Roman,serif" font-size="9.00">&#45;5</text>
</g>
<!-- &#45;6 -->
<g id="node6" class="node">
<title>&#45;6</title>
<polygon fill="lightgray" stroke="black" points="414,-83.7 390,-83.7 390,-65.7 414,-65.7 414,-83.7"/>
<text text-anchor="middle" x="402" y="-72.5" font-family="Times New Roman,serif" font-size="9.00">&#45;6</text>
</g>
<!-- &#45;7 -->
<g id="node7" class="node">
<title>&#45;7</title>
<polygon fill="lightgray" stroke="black" points="456,-83.7 432,-83.7 432,-65.7 456,-65.7 456,-83.7"/>
<text text-anchor="middle" x="444" y="-72.5" font-family="Times New Roman,serif" font-size="9.00">&#45;7</text>
</g>
<!-- &#45;8 -->
<g id="node8" class="node">
<title>&#45;8</title>
<polygon fill="lightgray" stroke="black" points="240,-83.7 216,-83.7 216,-65.7 240,-65.7 240,-83.7"/>
<text text-anchor="middle" x="228" y="-72.5" font-family="Times New Roman,serif" font-size="9.00">&#45;8</text>
</g>
<!-- 0 -->
<g id="node12" class="node">
<title>0</title>
<ellipse fill="lightblue" stroke="black" cx="263" cy="-14.85" rx="14.7" ry="14.7"/>
<text text-anchor="middle" x="263" y="-12.65" font-family="Times New Roman,serif" font-size="9.00">0</text>
</g>
<!-- &#45;8&#45;&gt;0 -->
<g id="edge5" class="edge">
<title>&#45;8&#45;&gt;0</title>
<path fill="none" stroke="green" stroke-width="0.42" d="M232.87,-65.65C237.41,-58.14 244.39,-46.61 250.49,-36.53"/>
<polygon fill="green" stroke="green" stroke-width="0.42" points="253.56,-38.21 255.74,-27.84 247.57,-34.59 253.56,-38.21"/>
</g>
<!-- &#45;8&#45;&gt;2 -->
<g id="edge4" class="edge">
<title>&#45;8&#45;&gt;2</title>
<path fill="none" stroke="green" stroke-width="1.96" d="M223.55,-65.65C219.49,-58.31 213.3,-47.13 207.82,-37.22"/>
<polygon fill="green" stroke="green" stroke-width="1.96" points="210.78,-35.33 202.87,-28.28 204.65,-38.72 210.78,-35.33"/>
</g>
<!-- &#45;9 -->
<g id="node9" class="node">
<title>&#45;9</title>
<polygon fill="lightgray" stroke="black" points="156,-83.7 132,-83.7 132,-65.7 156,-65.7 156,-83.7"/>
<text text-anchor="middle" x="144" y="-72.5" font-family="Times New Roman,serif" font-size="9.00">&#45;9</text>
</g>
<!-- &#45;9&#45;&gt;3 -->
<g id="edge1" class="edge">
<title>&#45;9&#45;&gt;3</title>
<path fill="none" stroke="green" stroke-width="2.05" d="M139.83,-65.65C136.02,-58.31 130.22,-47.13 125.08,-37.22"/>
<polygon fill="green" stroke="green" stroke-width="2.05" points="128.16,-35.54 120.44,-28.28 121.94,-38.77 128.16,-35.54"/>
</g>
<!-- &#45;10 -->
<g id="node10" class="node">
<title>&#45;10</title>
<polygon fill="lightgray" stroke="black" points="287.5,-83.7 258.5,-83.7 258.5,-65.7 287.5,-65.7 287.5,-83.7"/>
<text text-anchor="middle" x="273" y="-72.5" font-family="Times New Roman,serif" font-size="9.00">&#45;10</text>
</g>
<!-- &#45;10&#45;&gt;0 -->
<g id="edge2" class="edge">
<title>&#45;10&#45;&gt;0</title>
<path fill="none" stroke="green" stroke-width="0.67" d="M271.61,-65.65C270.44,-58.89 268.71,-48.86 267.1,-39.57"/>
<polygon fill="green" stroke="green" stroke-width="0.67" points="270.53,-38.86 265.38,-29.6 263.63,-40.05 270.53,-38.86"/>
</g>
<!-- &#45;11 -->
<g id="node11" class="node">
<title>&#45;11</title>
<polygon fill="lightgray" stroke="black" points="71.5,-83.7 42.5,-83.7 42.5,-65.7 71.5,-65.7 71.5,-83.7"/>
<text text-anchor="middle" x="57" y="-72.5" font-family="Times New Roman,serif" font-size="9.00">&#45;11</text>
</g>
<!-- &#45;11&#45;&gt;1 -->
<g id="edge3" class="edge">
<title>&#45;11&#45;&gt;1</title>
<path fill="none" stroke="green" stroke-width="1.33" d="M55.33,-65.65C53.93,-58.89 51.85,-48.86 49.92,-39.57"/>
<polygon fill="green" stroke="green" stroke-width="1.33" points="53.31,-38.69 47.85,-29.6 46.46,-40.11 53.31,-38.69"/>
</g>
<!-- &#45;11&#45;&gt;3 -->
<g id="edge8" class="edge">
<title>&#45;11&#45;&gt;3</title>
<path fill="none" stroke="green" stroke-width="0.64" d="M64.93,-65.65C73.1,-57.36 86.1,-44.16 96.67,-33.44"/>
<polygon fill="green" stroke="green" stroke-width="0.64" points="99.31,-35.75 103.83,-26.17 94.32,-30.83 99.31,-35.75"/>
</g>
</g>
</svg>
