<?xml version="1.0" encoding="UTF-8" standalone="no"?>
<!DOCTYPE svg PUBLIC "-//W3C//DTD SVG 1.1//EN"
 "http://www.w3.org/Graphics/SVG/1.1/DTD/svg11.dtd">
<!-- Generated by graphviz version 2.47.1 (20210417.1919)
 -->
<!-- Pages: 1 -->
<svg width="646pt" height="263pt"
 viewBox="0.00 0.00 645.77 262.69" xmlns="http://www.w3.org/2000/svg" xmlns:xlink="http://www.w3.org/1999/xlink">
<g id="graph0" class="graph" transform="scale(1 1) rotate(0) translate(4 258.69)">
<polygon fill="white" stroke="transparent" points="-4,4 -4,-258.69 641.77,-258.69 641.77,4 -4,4"/>
<!-- &#45;1 -->
<g id="node1" class="node">
<title>&#45;1</title>
<polygon fill="lightgray" stroke="black" points="100.48,-254.69 76.48,-254.69 76.48,-236.69 100.48,-236.69 100.48,-254.69"/>
<text text-anchor="middle" x="88.48" y="-243.49" font-family="Times New Roman,serif" font-size="9.00">&#45;1</text>
</g>
<!-- 0 -->
<g id="node12" class="node">
<title>0</title>
<ellipse fill="lightblue" stroke="black" cx="292.48" cy="-175.94" rx="14.7" ry="14.7"/>
<text text-anchor="middle" x="292.48" y="-173.74" font-family="Times New Roman,serif" font-size="9.00">0</text>
</g>
<!-- &#45;1&#45;&gt;0 -->
<g id="edge1" class="edge">
<title>&#45;1&#45;&gt;0</title>
<path fill="none" stroke="green" stroke-width="0.23" d="M100.81,-239.66C103.63,-238.6 106.64,-237.55 109.48,-236.69 178.84,-215.74 204.94,-235.52 268.48,-200.69 271.17,-199.21 273.78,-197.34 276.21,-195.3"/>
<polygon fill="green" stroke="green" stroke-width="0.23" points="278.96,-197.51 283.7,-188.04 274.09,-192.48 278.96,-197.51"/>
</g>
<!-- 1 -->
<g id="node13" class="node">
<title>1</title>
<ellipse fill="lightblue" stroke="black" cx="244.48" cy="-175.94" rx="14.7" ry="14.7"/>
<text text-anchor="middle" x="244.48" y="-173.74" font-family="Times New Roman,serif" font-size="9.00">1</text>
</g>
<!-- &#45;1&#45;&gt;1 -->
<g id="edge2" class="edge">
<title>&#45;1&#45;&gt;1</title>
<path fill="none" stroke="green" stroke-width="0.46" stroke-dasharray="1,5" d="M100.72,-239.38C126.75,-228.07 187.99,-201.48 221.52,-186.91"/>
<polygon fill="green" stroke="green" stroke-width="0.46" points="223.19,-190 230.97,-182.81 220.41,-183.58 223.19,-190"/>
</g>
<!-- 2 -->
<g id="node14" class="node">
<title>2</title>
<ellipse fill="lightblue" stroke="black" cx="340.48" cy="-175.94" rx="14.7" ry="14.7"/>
<text text-anchor="middle" x="340.48" y="-173.74" font-family="Times New Roman,serif" font-size="9.00">2</text>
</g>
<!-- &#45;1&#45;&gt;2 -->
<g id="edge3" class="edge">
<title>&#45;1&#45;&gt;2</title>
<path fill="none" stroke="green" stroke-width="1.13" stroke-dasharray="1,5" d="M100.78,-239.55C103.6,-238.5 106.62,-237.48 109.48,-236.69 199.52,-211.96 233.48,-243.5 316.48,-200.69 319.21,-199.28 321.83,-197.45 324.28,-195.43"/>
<polygon fill="green" stroke="green" stroke-width="1.13" points="327.02,-197.65 331.78,-188.18 322.16,-192.61 327.02,-197.65"/>
</g>
<!-- 3 -->
<g id="node15" class="node">
<title>3</title>
<ellipse fill="lightblue" stroke="black" cx="383.48" cy="-14.85" rx="14.7" ry="14.7"/>
<text text-anchor="middle" x="383.48" y="-12.65" font-family="Times New Roman,serif" font-size="9.00">3</text>
</g>
<!-- &#45;1&#45;&gt;3 -->
<g id="edge4" class="edge">
<title>&#45;1&#45;&gt;3</title>
<path fill="none" stroke="red" stroke-width="0.33" stroke-dasharray="1,5" d="M76.04,-237.67C63.92,-230.15 45.99,-217.05 36.48,-200.69 6.1,-148.47 -19.23,-111.23 20.48,-65.7 64.62,-15.08 282.91,-14.05 358.03,-15.24"/>
<polygon fill="red" stroke="red" stroke-width="0.33" points="358.36,-18.75 368.42,-15.44 358.49,-11.75 358.36,-18.75"/>
</g>
<!-- 6855 -->
<g id="node16" class="node">
<title>6855</title>
<ellipse fill="white" stroke="black" cx="72.48" cy="-90.45" rx="25" ry="25"/>
<text text-anchor="middle" x="72.48" y="-88.25" font-family="Times New Roman,serif" font-size="9.00">6855</text>
</g>
<!-- &#45;1&#45;&gt;6855 -->
<g id="edge45" class="edge">
<title>&#45;1&#45;&gt;6855</title>
<path fill="none" stroke="red" stroke-width="0.77" d="M87.62,-236.45C85.47,-215.86 79.76,-161.2 76,-125.19"/>
<polygon fill="red" stroke="red" stroke-width="0.77" points="79.47,-124.7 74.95,-115.12 72.51,-125.43 79.47,-124.7"/>
</g>
<!-- &#45;2 -->
<g id="node2" class="node">
<title>&#45;2</title>
<polygon fill="lightgray" stroke="black" points="489.48,-254.69 465.48,-254.69 465.48,-236.69 489.48,-236.69 489.48,-254.69"/>
<text text-anchor="middle" x="477.48" y="-243.49" font-family="Times New Roman,serif" font-size="9.00">&#45;2</text>
</g>
<!-- &#45;2&#45;&gt;0 -->
<g id="edge5" class="edge">
<title>&#45;2&#45;&gt;0</title>
<path fill="none" stroke="green" stroke-width="0.57" stroke-dasharray="1,5" d="M465.12,-239.72C462.3,-238.66 459.3,-237.59 456.48,-236.69 395.25,-217.23 372.36,-232.39 316.48,-200.69 313.8,-199.18 311.21,-197.28 308.79,-195.23"/>
<polygon fill="green" stroke="green" stroke-width="0.57" points="310.91,-192.41 301.29,-187.96 306.03,-197.43 310.91,-192.41"/>
</g>
<!-- &#45;2&#45;&gt;1 -->
<g id="edge6" class="edge">
<title>&#45;2&#45;&gt;1</title>
<path fill="none" stroke="green" stroke-width="0.16" stroke-dasharray="1,5" d="M465.16,-239.59C462.34,-238.54 459.33,-237.5 456.48,-236.69 374.64,-213.46 343.75,-240.33 268.48,-200.69 265.75,-199.26 263.14,-197.42 260.7,-195.39"/>
<polygon fill="green" stroke="green" stroke-width="0.16" points="262.82,-192.57 253.2,-188.13 257.95,-197.6 262.82,-192.57"/>
</g>
<!-- &#45;2&#45;&gt;2 -->
<g id="edge7" class="edge">
<title>&#45;2&#45;&gt;2</title>
<path fill="none" stroke="red" stroke-width="0.18" stroke-dasharray="1,5" d="M465.32,-238.68C442.25,-227.28 391.85,-202.35 362.63,-187.9"/>
<polygon fill="red" stroke="red" stroke-width="0.18" points="364.12,-184.73 353.6,-183.44 361.02,-191.01 364.12,-184.73"/>
</g>
<!-- &#45;2&#45;&gt;3 -->
<g id="edge8" class="edge">
<title>&#45;2&#45;&gt;3</title>
<path fill="none" stroke="red" stroke-width="0.43" stroke-dasharray="1,5" d="M480.41,-236.41C489.41,-209.43 514.01,-122.54 479.48,-65.7 464,-40.23 430.82,-27.18 407.83,-20.94"/>
<polygon fill="red" stroke="red" stroke-width="0.43" points="408.64,-17.53 398.09,-18.53 406.96,-24.33 408.64,-17.53"/>
</g>
<!-- 8681 -->
<g id="node17" class="node">
<title>8681</title>
<ellipse fill="white" stroke="black" cx="588.48" cy="-175.94" rx="25" ry="25"/>
<text text-anchor="middle" x="588.48" y="-173.74" font-family="Times New Roman,serif" font-size="9.00">8681</text>
</g>
<!-- &#45;2&#45;&gt;8681 -->
<g id="edge48" class="edge">
<title>&#45;2&#45;&gt;8681</title>
<path fill="none" stroke="green" stroke-width="0.29" d="M489.78,-237.18C506.32,-227.09 536.27,-208.81 558.85,-195.03"/>
<polygon fill="green" stroke="green" stroke-width="0.29" points="560.69,-198 567.41,-189.8 557.05,-192.03 560.69,-198"/>
</g>
<!-- &#45;3 -->
<g id="node3" class="node">
<title>&#45;3</title>
<polygon fill="lightgray" stroke="black" points="142.48,-254.69 118.48,-254.69 118.48,-236.69 142.48,-236.69 142.48,-254.69"/>
<text text-anchor="middle" x="130.48" y="-243.49" font-family="Times New Roman,serif" font-size="9.00">&#45;3</text>
</g>
<!-- &#45;3&#45;&gt;0 -->
<g id="edge9" class="edge">
<title>&#45;3&#45;&gt;0</title>
<path fill="none" stroke="green" stroke-width="0.16" d="M142.86,-239.82C145.68,-238.75 148.67,-237.66 151.48,-236.69 202.92,-219 221.79,-228.63 268.48,-200.69 271.02,-199.17 273.5,-197.32 275.84,-195.33"/>
<polygon fill="green" stroke="green" stroke-width="0.16" points="278.35,-197.77 283.13,-188.32 273.5,-192.73 278.35,-197.77"/>
</g>
<!-- &#45;3&#45;&gt;1 -->
<g id="edge10" class="edge">
<title>&#45;3&#45;&gt;1</title>
<path fill="none" stroke="red" stroke-width="0.21" stroke-dasharray="1,5" d="M142.68,-237.44C161.95,-225.99 199.67,-203.57 223.39,-189.48"/>
<polygon fill="red" stroke="red" stroke-width="0.21" points="225.21,-192.47 232.02,-184.35 221.63,-186.45 225.21,-192.47"/>
</g>
<!-- &#45;3&#45;&gt;2 -->
<g id="edge11" class="edge">
<title>&#45;3&#45;&gt;2</title>
<path fill="none" stroke="green" stroke-width="1.7" d="M142.81,-239.65C145.63,-238.59 148.63,-237.54 151.48,-236.69 223.41,-215.27 250.52,-236.51 316.48,-200.69 319.18,-199.22 321.79,-197.36 324.22,-195.32"/>
<polygon fill="green" stroke="green" stroke-width="1.7" points="326.97,-197.53 331.71,-188.06 322.1,-192.5 326.97,-197.53"/>
</g>
<!-- &#45;3&#45;&gt;3 -->
<g id="edge12" class="edge">
<title>&#45;3&#45;&gt;3</title>
<path fill="none" stroke="red" stroke-width="0.54" d="M119.91,-236.38C86.71,-209.33 -10.47,-122.22 38.48,-65.7 80.11,-17.61 285.99,-14.89 358.31,-15.45"/>
<polygon fill="red" stroke="red" stroke-width="0.54" points="358.31,-18.95 368.35,-15.55 358.39,-11.95 358.31,-18.95"/>
</g>
<!-- &#45;4 -->
<g id="node4" class="node">
<title>&#45;4</title>
<polygon fill="lightgray" stroke="black" points="184.48,-254.69 160.48,-254.69 160.48,-236.69 184.48,-236.69 184.48,-254.69"/>
<text text-anchor="middle" x="172.48" y="-243.49" font-family="Times New Roman,serif" font-size="9.00">&#45;4</text>
</g>
<!-- &#45;4&#45;&gt;0 -->
<g id="edge13" class="edge">
<title>&#45;4&#45;&gt;0</title>
<path fill="none" stroke="red" stroke-width="0.29" d="M184.76,-239.7C207.24,-230.45 254,-210.7 268.48,-200.69 270.92,-199.01 273.33,-197.06 275.63,-195.02"/>
<polygon fill="red" stroke="red" stroke-width="0.29" points="278.16,-197.44 282.91,-187.97 273.29,-192.41 278.16,-197.44"/>
</g>
<!-- &#45;4&#45;&gt;1 -->
<g id="edge14" class="edge">
<title>&#45;4&#45;&gt;1</title>
<path fill="none" stroke="green" stroke-width="0.35" stroke-dasharray="1,5" d="M181.02,-236.66C192.21,-226.13 212.11,-207.4 226.65,-193.72"/>
<polygon fill="green" stroke="green" stroke-width="0.35" points="229.2,-196.12 234.09,-186.72 224.4,-191.03 229.2,-196.12"/>
</g>
<!-- &#45;4&#45;&gt;2 -->
<g id="edge15" class="edge">
<title>&#45;4&#45;&gt;2</title>
<path fill="none" stroke="red" stroke-width="0.76" d="M184.85,-239.79C187.67,-238.73 190.67,-237.64 193.48,-236.69 247.47,-218.54 267.4,-229.61 316.48,-200.69 319.13,-199.13 321.7,-197.21 324.12,-195.15"/>
<polygon fill="red" stroke="red" stroke-width="0.76" points="326.87,-197.35 331.61,-187.87 322,-192.33 326.87,-197.35"/>
</g>
<!-- &#45;4&#45;&gt;3 -->
<g id="edge16" class="edge">
<title>&#45;4&#45;&gt;3</title>
<path fill="none" stroke="red" stroke-width="0.56" stroke-dasharray="1,5" d="M171.49,-236.63C168.57,-208.83 162.87,-115.95 209.48,-65.7 248.37,-23.76 319.93,-16.26 358.03,-15.43"/>
<polygon fill="red" stroke="red" stroke-width="0.56" points="358.3,-18.92 368.28,-15.35 358.25,-11.92 358.3,-18.92"/>
</g>
<!-- &#45;5 -->
<g id="node5" class="node">
<title>&#45;5</title>
<polygon fill="lightgray" stroke="black" points="226.48,-254.69 202.48,-254.69 202.48,-236.69 226.48,-236.69 226.48,-254.69"/>
<text text-anchor="middle" x="214.48" y="-243.49" font-family="Times New Roman,serif" font-size="9.00">&#45;5</text>
</g>
<!-- &#45;5&#45;&gt;0 -->
<g id="edge17" class="edge">
<title>&#45;5&#45;&gt;0</title>
<path fill="none" stroke="green" stroke-width="0.23" d="M225.08,-236.55C236.15,-227.93 253.9,-213.79 268.48,-200.69 270.68,-198.71 272.96,-196.58 275.18,-194.45"/>
<polygon fill="green" stroke="green" stroke-width="0.23" points="277.73,-196.85 282.41,-187.34 272.83,-191.86 277.73,-196.85"/>
</g>
<!-- &#45;5&#45;&gt;1 -->
<g id="edge18" class="edge">
<title>&#45;5&#45;&gt;1</title>
<path fill="none" stroke="red" stroke-width="0.46" d="M218.04,-236.66C222.12,-227.44 228.98,-211.94 234.69,-199.04"/>
<polygon fill="red" stroke="red" stroke-width="0.46" points="237.92,-200.39 238.77,-189.83 231.52,-197.56 237.92,-200.39"/>
</g>
<!-- &#45;5&#45;&gt;2 -->
<g id="edge19" class="edge">
<title>&#45;5&#45;&gt;2</title>
<path fill="none" stroke="red" stroke-width="0.34" stroke-dasharray="1,5" d="M226.8,-240.04C250.39,-231.03 300.97,-211.16 316.48,-200.69 318.94,-199.03 321.36,-197.1 323.67,-195.07"/>
<polygon fill="red" stroke="red" stroke-width="0.34" points="326.19,-197.5 330.95,-188.03 321.33,-192.47 326.19,-197.5"/>
</g>
<!-- &#45;5&#45;&gt;3 -->
<g id="edge20" class="edge">
<title>&#45;5&#45;&gt;3</title>
<path fill="none" stroke="green" stroke-width="0.36" d="M212.65,-236.44C206.89,-208.02 192.22,-113.36 240.48,-65.7 272.94,-33.64 327.1,-22.14 358.63,-18.05"/>
<polygon fill="green" stroke="green" stroke-width="0.36" points="359.22,-21.51 368.76,-16.9 358.43,-14.55 359.22,-21.51"/>
</g>
<!-- &#45;6 -->
<g id="node6" class="node">
<title>&#45;6</title>
<polygon fill="lightgray" stroke="black" points="268.48,-254.69 244.48,-254.69 244.48,-236.69 268.48,-236.69 268.48,-254.69"/>
<text text-anchor="middle" x="256.48" y="-243.49" font-family="Times New Roman,serif" font-size="9.00">&#45;6</text>
</g>
<!-- &#45;6&#45;&gt;0 -->
<g id="edge21" class="edge">
<title>&#45;6&#45;&gt;0</title>
<path fill="none" stroke="red" stroke-width="0.47" stroke-dasharray="1,5" d="M260.75,-236.66C265.75,-227.24 274.25,-211.25 281.19,-198.19"/>
<polygon fill="red" stroke="red" stroke-width="0.47" points="284.29,-199.81 285.89,-189.33 278.11,-196.52 284.29,-199.81"/>
</g>
<!-- &#45;6&#45;&gt;1 -->
<g id="edge22" class="edge">
<title>&#45;6&#45;&gt;1</title>
<path fill="none" stroke="red" stroke-width="0.38" stroke-dasharray="1,5" d="M255.05,-236.66C253.49,-227.84 250.91,-213.27 248.69,-200.73"/>
<polygon fill="red" stroke="red" stroke-width="0.38" points="252.13,-200.08 246.94,-190.85 245.24,-201.3 252.13,-200.08"/>
</g>
<!-- &#45;6&#45;&gt;2 -->
<g id="edge23" class="edge">
<title>&#45;6&#45;&gt;2</title>
<path fill="none" stroke="green" stroke-width="0.27" stroke-dasharray="1,5" d="M268.83,-236.43C281.25,-227.94 300.75,-214.11 316.48,-200.69 318.73,-198.77 321.04,-196.67 323.28,-194.56"/>
<polygon fill="green" stroke="green" stroke-width="0.27" points="325.83,-196.96 330.52,-187.46 320.92,-191.96 325.83,-196.96"/>
</g>
<!-- &#45;6&#45;&gt;3 -->
<g id="edge24" class="edge">
<title>&#45;6&#45;&gt;3</title>
<path fill="none" stroke="green" stroke-width="0.45" d="M246.66,-236.44C237.89,-228.36 225.65,-215.19 220.48,-200.69 213.08,-179.97 211.13,-171.11 220.48,-151.2 249.75,-88.84 323.42,-45.29 360.87,-26.4"/>
<polygon fill="green" stroke="green" stroke-width="0.45" points="362.54,-29.47 369.98,-21.93 359.46,-23.19 362.54,-29.47"/>
</g>
<!-- &#45;7 -->
<g id="node7" class="node">
<title>&#45;7</title>
<polygon fill="lightgray" stroke="black" points="310.48,-254.69 286.48,-254.69 286.48,-236.69 310.48,-236.69 310.48,-254.69"/>
<text text-anchor="middle" x="298.48" y="-243.49" font-family="Times New Roman,serif" font-size="9.00">&#45;7</text>
</g>
<!-- &#45;7&#45;&gt;0 -->
<g id="edge25" class="edge">
<title>&#45;7&#45;&gt;0</title>
<path fill="none" stroke="green" stroke-width="0.67" d="M297.76,-236.66C296.99,-227.93 295.72,-213.56 294.62,-201.11"/>
<polygon fill="green" stroke="green" stroke-width="0.67" points="298.08,-200.5 293.71,-190.85 291.1,-201.12 298.08,-200.5"/>
</g>
<!-- &#45;7&#45;&gt;1 -->
<g id="edge26" class="edge">
<title>&#45;7&#45;&gt;1</title>
<path fill="none" stroke="red" stroke-width="0.49" stroke-dasharray="1,5" d="M292.07,-236.66C284.19,-226.76 270.54,-209.64 259.87,-196.26"/>
<polygon fill="red" stroke="red" stroke-width="0.49" points="262.35,-193.76 253.38,-188.12 256.88,-198.12 262.35,-193.76"/>
</g>
<!-- &#45;7&#45;&gt;2 -->
<g id="edge27" class="edge">
<title>&#45;7&#45;&gt;2</title>
<path fill="none" stroke="red" stroke-width="0.52" d="M303.46,-236.66C309.33,-227.18 319.33,-211.06 327.45,-197.96"/>
<polygon fill="red" stroke="red" stroke-width="0.52" points="330.66,-199.43 332.95,-189.09 324.71,-195.74 330.66,-199.43"/>
</g>
<!-- &#45;7&#45;&gt;3 -->
<g id="edge28" class="edge">
<title>&#45;7&#45;&gt;3</title>
<path fill="none" stroke="red" stroke-width="0.32" d="M310.64,-240.36C326.06,-234.17 352.1,-221.21 364.48,-200.69 394.97,-150.12 391.57,-77.36 387.15,-40"/>
<polygon fill="red" stroke="red" stroke-width="0.32" points="390.56,-39.06 385.79,-29.6 383.62,-39.97 390.56,-39.06"/>
</g>
<!-- &#45;8 -->
<g id="node8" class="node">
<title>&#45;8</title>
<polygon fill="lightgray" stroke="black" points="531.48,-254.69 507.48,-254.69 507.48,-236.69 531.48,-236.69 531.48,-254.69"/>
<text text-anchor="middle" x="519.48" y="-243.49" font-family="Times New Roman,serif" font-size="9.00">&#45;8</text>
</g>
<!-- &#45;8&#45;&gt;0 -->
<g id="edge29" class="edge">
<title>&#45;8&#45;&gt;0</title>
<path fill="none" stroke="red" stroke-width="0.79" stroke-dasharray="1,5" d="M507.16,-239.6C504.33,-238.55 501.33,-237.51 498.48,-236.69 419.22,-213.94 389.32,-239.33 316.48,-200.69 313.76,-199.25 311.14,-197.4 308.71,-195.37"/>
<polygon fill="red" stroke="red" stroke-width="0.79" points="310.83,-192.55 301.21,-188.11 305.96,-197.58 310.83,-192.55"/>
</g>
<!-- &#45;8&#45;&gt;1 -->
<g id="edge30" class="edge">
<title>&#45;8&#45;&gt;1</title>
<path fill="none" stroke="green" stroke-width="1.4" stroke-dasharray="1,5" d="M507.18,-239.52C504.36,-238.47 501.34,-237.45 498.48,-236.69 398.48,-210.13 360.83,-247.34 268.48,-200.69 265.73,-199.31 263.1,-197.49 260.65,-195.48"/>
<polygon fill="green" stroke="green" stroke-width="1.4" points="262.77,-192.66 253.15,-188.22 257.91,-197.69 262.77,-192.66"/>
</g>
<!-- &#45;8&#45;&gt;2 -->
<g id="edge31" class="edge">
<title>&#45;8&#45;&gt;2</title>
<path fill="none" stroke="green" stroke-width="1.97" d="M507.04,-239.95C504.23,-238.88 501.25,-237.75 498.48,-236.69 450.69,-218.56 394.73,-197.42 363.88,-185.78"/>
<polygon fill="green" stroke="green" stroke-width="1.97" points="365.02,-182.46 354.43,-182.21 362.55,-189.01 365.02,-182.46"/>
</g>
<!-- &#45;8&#45;&gt;3 -->
<g id="edge32" class="edge">
<title>&#45;8&#45;&gt;3</title>
<path fill="none" stroke="red" stroke-width="1.16" d="M531.71,-243.66C554.25,-241.02 601.91,-231.85 622.48,-200.69 657.32,-147.92 627.09,-104.92 577.48,-65.7 527.11,-25.88 448.47,-17.57 408.55,-16.03"/>
<polygon fill="red" stroke="red" stroke-width="1.16" points="408.47,-12.52 398.37,-15.75 408.28,-19.52 408.47,-12.52"/>
</g>
<!-- &#45;8&#45;&gt;8681 -->
<g id="edge50" class="edge">
<title>&#45;8&#45;&gt;8681</title>
<path fill="none" stroke="red" stroke-width="0.35" d="M527.66,-236.66C536.56,-227.92 551.19,-213.55 563.88,-201.1"/>
<polygon fill="red" stroke="red" stroke-width="0.35" points="566.38,-203.55 571.06,-194.04 561.47,-198.55 566.38,-203.55"/>
</g>
<!-- &#45;9 -->
<g id="node9" class="node">
<title>&#45;9</title>
<polygon fill="lightgray" stroke="black" points="352.48,-254.69 328.48,-254.69 328.48,-236.69 352.48,-236.69 352.48,-254.69"/>
<text text-anchor="middle" x="340.48" y="-243.49" font-family="Times New Roman,serif" font-size="9.00">&#45;9</text>
</g>
<!-- &#45;9&#45;&gt;0 -->
<g id="edge33" class="edge">
<title>&#45;9&#45;&gt;0</title>
<path fill="none" stroke="red" stroke-width="1.01" d="M334.78,-236.66C327.92,-226.97 316.15,-210.36 306.76,-197.11"/>
<polygon fill="red" stroke="red" stroke-width="1.01" points="309.37,-194.73 300.73,-188.6 303.66,-198.78 309.37,-194.73"/>
</g>
<!-- &#45;9&#45;&gt;1 -->
<g id="edge34" class="edge">
<title>&#45;9&#45;&gt;1</title>
<path fill="none" stroke="green" stroke-width="0.39" d="M328.46,-238.47C313.7,-230.58 288.2,-216.14 268.48,-200.69 266.14,-198.86 263.79,-196.83 261.52,-194.74"/>
<polygon fill="green" stroke="green" stroke-width="0.39" points="263.87,-192.14 254.27,-187.67 258.98,-197.15 263.87,-192.14"/>
</g>
<!-- &#45;9&#45;&gt;2 -->
<g id="edge35" class="edge">
<title>&#45;9&#45;&gt;2</title>
<path fill="none" stroke="red" stroke-width="0.4" d="M340.48,-236.66C340.48,-227.93 340.48,-213.56 340.48,-201.11"/>
<polygon fill="red" stroke="red" stroke-width="0.4" points="343.98,-200.85 340.48,-190.85 336.98,-200.85 343.98,-200.85"/>
</g>
<!-- &#45;9&#45;&gt;3 -->
<g id="edge36" class="edge">
<title>&#45;9&#45;&gt;3</title>
<path fill="none" stroke="green" stroke-width="1.56" d="M352.77,-239.35C366.56,-232.6 388.21,-219.54 397.48,-200.69 423.7,-147.33 404.78,-74.71 392.22,-38.43"/>
<polygon fill="green" stroke="green" stroke-width="1.56" points="395.43,-37.01 388.73,-28.8 388.84,-39.39 395.43,-37.01"/>
</g>
<!-- &#45;10 -->
<g id="node10" class="node">
<title>&#45;10</title>
<polygon fill="lightgray" stroke="black" points="399.98,-254.69 370.98,-254.69 370.98,-236.69 399.98,-236.69 399.98,-254.69"/>
<text text-anchor="middle" x="385.48" y="-243.49" font-family="Times New Roman,serif" font-size="9.00">&#45;10</text>
</g>
<!-- &#45;10&#45;&gt;0 -->
<g id="edge37" class="edge">
<title>&#45;10&#45;&gt;0</title>
<path fill="none" stroke="green" stroke-width="2.98" d="M370.87,-236.6C356.47,-228.35 334.13,-214.79 316.48,-200.69 314.16,-198.84 311.82,-196.79 309.55,-194.7"/>
<polygon fill="green" stroke="green" stroke-width="2.98" points="311.91,-192.1 302.31,-187.62 307.01,-197.11 311.91,-192.1"/>
</g>
<!-- &#45;10&#45;&gt;1 -->
<g id="edge38" class="edge">
<title>&#45;10&#45;&gt;1</title>
<path fill="none" stroke="green" stroke-width="0.23" stroke-dasharray="1,5" d="M370.68,-239.52C341.26,-229.17 277.43,-206.43 268.48,-200.69 265.98,-199.09 263.53,-197.2 261.21,-195.18"/>
<polygon fill="green" stroke="green" stroke-width="0.23" points="263.55,-192.58 253.92,-188.15 258.69,-197.62 263.55,-192.58"/>
</g>
<!-- &#45;10&#45;&gt;2 -->
<g id="edge39" class="edge">
<title>&#45;10&#45;&gt;2</title>
<path fill="none" stroke="green" stroke-width="0.31" stroke-dasharray="1,5" d="M380.14,-236.66C373.78,-227.09 362.93,-210.75 354.18,-197.58"/>
<polygon fill="green" stroke="green" stroke-width="0.31" points="356.99,-195.48 348.54,-189.09 351.16,-199.35 356.99,-195.48"/>
</g>
<!-- &#45;10&#45;&gt;3 -->
<g id="edge40" class="edge">
<title>&#45;10&#45;&gt;3</title>
<path fill="none" stroke="green" stroke-width="0.1" stroke-dasharray="1,5" d="M400.42,-236.44C412.39,-228.89 428.33,-216.5 435.48,-200.69 460.19,-146.02 459.02,-120.88 435.48,-65.7 429.14,-50.85 415.97,-38.3 404.47,-29.51"/>
<polygon fill="green" stroke="green" stroke-width="0.1" points="406.31,-26.52 396.14,-23.54 402.23,-32.21 406.31,-26.52"/>
</g>
<!-- &#45;11 -->
<g id="node11" class="node">
<title>&#45;11</title>
<polygon fill="lightgray" stroke="black" points="446.98,-254.69 417.98,-254.69 417.98,-236.69 446.98,-236.69 446.98,-254.69"/>
<text text-anchor="middle" x="432.48" y="-243.49" font-family="Times New Roman,serif" font-size="9.00">&#45;11</text>
</g>
<!-- &#45;11&#45;&gt;0 -->
<g id="edge41" class="edge">
<title>&#45;11&#45;&gt;0</title>
<path fill="none" stroke="green" stroke-width="0.15" stroke-dasharray="1,5" d="M417.81,-239.52C388.63,-229.16 325.35,-206.4 316.48,-200.69 313.98,-199.09 311.53,-197.19 309.21,-195.18"/>
<polygon fill="green" stroke="green" stroke-width="0.15" points="311.55,-192.57 301.93,-188.15 306.69,-197.61 311.55,-192.57"/>
</g>
<!-- &#45;11&#45;&gt;1 -->
<g id="edge42" class="edge">
<title>&#45;11&#45;&gt;1</title>
<path fill="none" stroke="green" stroke-width="2.2" d="M417.94,-239.43C415.14,-238.47 412.23,-237.52 409.48,-236.69 347.54,-218.05 324.76,-232.55 268.48,-200.69 265.8,-199.18 263.21,-197.28 260.79,-195.23"/>
<polygon fill="green" stroke="green" stroke-width="2.2" points="262.91,-192.41 253.29,-187.96 258.03,-197.44 262.91,-192.41"/>
</g>
<!-- &#45;11&#45;&gt;2 -->
<g id="edge43" class="edge">
<title>&#45;11&#45;&gt;2</title>
<path fill="none" stroke="green" stroke-width="1.07" d="M421.56,-236.66C406.44,-225.52 378.87,-205.22 360.11,-191.41"/>
<polygon fill="green" stroke="green" stroke-width="1.07" points="362.08,-188.51 351.95,-185.4 357.93,-194.14 362.08,-188.51"/>
</g>
<!-- &#45;11&#45;&gt;3 -->
<g id="edge44" class="edge">
<title>&#45;11&#45;&gt;3</title>
<path fill="none" stroke="green" stroke-width="0.13" stroke-dasharray="1,5" d="M438.87,-236.51C445.02,-228.07 453.88,-214.28 457.48,-200.69 472.8,-142.69 485.66,-118.66 457.48,-65.7 446.89,-45.81 424.45,-32.43 407.03,-24.58"/>
<polygon fill="green" stroke="green" stroke-width="0.13" points="408.07,-21.22 397.49,-20.59 405.37,-27.68 408.07,-21.22"/>
</g>
<!-- 0&#45;&gt;6855 -->
<g id="edge47" class="edge">
<title>0&#45;&gt;6855</title>
<path fill="none" stroke="red" stroke-width="0.31" d="M283.14,-163.56C279.03,-159.17 273.91,-154.44 268.48,-151.2 216.77,-120.34 147.75,-104.17 106.92,-96.75"/>
<polygon fill="red" stroke="red" stroke-width="0.31" points="107.38,-93.28 96.93,-95.01 106.18,-100.17 107.38,-93.28"/>
</g>
<!-- 6855&#45;&gt;3 -->
<g id="edge46" class="edge">
<title>6855&#45;&gt;3</title>
<path fill="none" stroke="red" stroke-width="0.56" stroke-dasharray="1,5" d="M92.4,-75.4C98.31,-71.77 104.96,-68.18 111.48,-65.7 198.44,-32.56 309.65,-21.02 358.54,-17.38"/>
<polygon fill="red" stroke="red" stroke-width="0.56" points="358.79,-20.87 368.52,-16.68 358.3,-13.89 358.79,-20.87"/>
</g>
<!-- 8681&#45;&gt;3 -->
<g id="edge49" class="edge">
<title>8681&#45;&gt;3</title>
<path fill="none" stroke="red" stroke-width="0.67" stroke-dasharray="1,5" d="M586.2,-151.12C582.58,-126.42 573.27,-88.31 549.48,-65.7 510.33,-28.51 444.51,-18.96 408.63,-16.58"/>
<polygon fill="red" stroke="red" stroke-width="0.67" points="408.7,-13.08 398.53,-16.05 408.33,-20.07 408.7,-13.08"/>
</g>
</g>
</svg>
