<?xml version="1.0" encoding="UTF-8" standalone="no"?>
<!DOCTYPE svg PUBLIC "-//W3C//DTD SVG 1.1//EN"
 "http://www.w3.org/Graphics/SVG/1.1/DTD/svg11.dtd">
<!-- Generated by graphviz version 2.47.1 (20210417.1919)
 -->
<!-- Pages: 1 -->
<svg width="551pt" height="282pt"
 viewBox="0.00 0.00 551.00 282.49" xmlns="http://www.w3.org/2000/svg" xmlns:xlink="http://www.w3.org/1999/xlink">
<g id="graph0" class="graph" transform="scale(1 1) rotate(0) translate(4 278.49)">
<polygon fill="white" stroke="transparent" points="-4,4 -4,-278.49 547,-278.49 547,4 -4,4"/>
<!-- &#45;1 -->
<g id="node1" class="node">
<title>&#45;1</title>
<polygon fill="lightgray" stroke="black" points="131,-274.49 107,-274.49 107,-256.49 131,-256.49 131,-274.49"/>
<text text-anchor="middle" x="119" y="-263.29" font-family="Times New Roman,serif" font-size="9.00">&#45;1</text>
</g>
<!-- &#45;2 -->
<g id="node2" class="node">
<title>&#45;2</title>
<polygon fill="lightgray" stroke="black" points="173,-274.49 149,-274.49 149,-256.49 173,-256.49 173,-274.49"/>
<text text-anchor="middle" x="161" y="-263.29" font-family="Times New Roman,serif" font-size="9.00">&#45;2</text>
</g>
<!-- &#45;3 -->
<g id="node3" class="node">
<title>&#45;3</title>
<polygon fill="lightgray" stroke="black" points="24,-204.74 0,-204.74 0,-186.74 24,-186.74 24,-204.74"/>
<text text-anchor="middle" x="12" y="-193.54" font-family="Times New Roman,serif" font-size="9.00">&#45;3</text>
</g>
<!-- 3675 -->
<g id="node18" class="node">
<title>3675</title>
<ellipse fill="white" stroke="black" cx="138" cy="-24.75" rx="25" ry="25"/>
<text text-anchor="middle" x="138" y="-22.55" font-family="Times New Roman,serif" font-size="9.00">3675</text>
</g>
<!-- &#45;3&#45;&gt;3675 -->
<g id="edge11" class="edge">
<title>&#45;3&#45;&gt;3675</title>
<path fill="none" stroke="green" stroke-width="0.16" stroke-dasharray="1,5" d="M9.77,-186.5C5.03,-167.06 -3.98,-117.6 17,-85.5 36.41,-55.81 75.18,-40.34 103.63,-32.65"/>
<polygon fill="green" stroke="green" stroke-width="0.16" points="104.73,-35.98 113.59,-30.16 103.04,-29.19 104.73,-35.98"/>
</g>
<!-- 3932 -->
<g id="node19" class="node">
<title>3932</title>
<ellipse fill="white" stroke="black" cx="51" cy="-110.25" rx="25" ry="25"/>
<text text-anchor="middle" x="51" y="-108.05" font-family="Times New Roman,serif" font-size="9.00">3932</text>
</g>
<!-- &#45;3&#45;&gt;3932 -->
<g id="edge12" class="edge">
<title>&#45;3&#45;&gt;3932</title>
<path fill="none" stroke="red" stroke-width="0.34" d="M15.74,-186.74C20.52,-176.5 29.08,-158.18 36.56,-142.15"/>
<polygon fill="red" stroke="red" stroke-width="0.34" points="39.75,-143.6 40.81,-133.06 33.41,-140.64 39.75,-143.6"/>
</g>
<!-- &#45;4 -->
<g id="node4" class="node">
<title>&#45;4</title>
<polygon fill="lightgray" stroke="black" points="459,-274.49 435,-274.49 435,-256.49 459,-256.49 459,-274.49"/>
<text text-anchor="middle" x="447" y="-263.29" font-family="Times New Roman,serif" font-size="9.00">&#45;4</text>
</g>
<!-- &#45;5 -->
<g id="node5" class="node">
<title>&#45;5</title>
<polygon fill="lightgray" stroke="black" points="501,-274.49 477,-274.49 477,-256.49 501,-256.49 501,-274.49"/>
<text text-anchor="middle" x="489" y="-263.29" font-family="Times New Roman,serif" font-size="9.00">&#45;5</text>
</g>
<!-- &#45;6 -->
<g id="node6" class="node">
<title>&#45;6</title>
<polygon fill="lightgray" stroke="black" points="417,-274.49 393,-274.49 393,-256.49 417,-256.49 417,-274.49"/>
<text text-anchor="middle" x="405" y="-263.29" font-family="Times New Roman,serif" font-size="9.00">&#45;6</text>
</g>
<!-- 2 -->
<g id="node14" class="node">
<title>2</title>
<ellipse fill="lightblue" stroke="black" cx="405" cy="-195.74" rx="14.7" ry="14.7"/>
<text text-anchor="middle" x="405" y="-193.54" font-family="Times New Roman,serif" font-size="9.00">2</text>
</g>
<!-- &#45;6&#45;&gt;2 -->
<g id="edge5" class="edge">
<title>&#45;6&#45;&gt;2</title>
<path fill="none" stroke="red" stroke-width="0.15" stroke-dasharray="1,5" d="M405,-256.45C405,-247.73 405,-233.36 405,-220.91"/>
<polygon fill="red" stroke="red" stroke-width="0.15" points="408.5,-220.65 405,-210.65 401.5,-220.65 408.5,-220.65"/>
</g>
<!-- &#45;7 -->
<g id="node7" class="node">
<title>&#45;7</title>
<polygon fill="lightgray" stroke="black" points="543,-274.49 519,-274.49 519,-256.49 543,-256.49 543,-274.49"/>
<text text-anchor="middle" x="531" y="-263.29" font-family="Times New Roman,serif" font-size="9.00">&#45;7</text>
</g>
<!-- &#45;8 -->
<g id="node8" class="node">
<title>&#45;8</title>
<polygon fill="lightgray" stroke="black" points="367,-274.49 343,-274.49 343,-256.49 367,-256.49 367,-274.49"/>
<text text-anchor="middle" x="355" y="-263.29" font-family="Times New Roman,serif" font-size="9.00">&#45;8</text>
</g>
<!-- &#45;8&#45;&gt;2 -->
<g id="edge4" class="edge">
<title>&#45;8&#45;&gt;2</title>
<path fill="none" stroke="green" stroke-width="0.81" d="M360.93,-256.45C368.15,-246.68 380.58,-229.83 390.4,-216.52"/>
<polygon fill="green" stroke="green" stroke-width="0.81" points="393.28,-218.52 396.4,-208.4 387.65,-214.37 393.28,-218.52"/>
</g>
<!-- 3134 -->
<g id="node20" class="node">
<title>3134</title>
<ellipse fill="white" stroke="black" cx="347" cy="-195.74" rx="25" ry="25"/>
<text text-anchor="middle" x="347" y="-193.54" font-family="Times New Roman,serif" font-size="9.00">3134</text>
</g>
<!-- &#45;8&#45;&gt;3134 -->
<g id="edge10" class="edge">
<title>&#45;8&#45;&gt;3134</title>
<path fill="none" stroke="red" stroke-width="0.45" d="M354.05,-256.45C353.28,-249.9 352.13,-240.17 350.98,-230.45"/>
<polygon fill="red" stroke="red" stroke-width="0.45" points="354.45,-229.99 349.8,-220.47 347.5,-230.81 354.45,-229.99"/>
</g>
<!-- &#45;9 -->
<g id="node9" class="node">
<title>&#45;9</title>
<polygon fill="lightgray" stroke="black" points="215,-274.49 191,-274.49 191,-256.49 215,-256.49 215,-274.49"/>
<text text-anchor="middle" x="203" y="-263.29" font-family="Times New Roman,serif" font-size="9.00">&#45;9</text>
</g>
<!-- 3 -->
<g id="node15" class="node">
<title>3</title>
<ellipse fill="lightblue" stroke="black" cx="203" cy="-195.74" rx="14.7" ry="14.7"/>
<text text-anchor="middle" x="203" y="-193.54" font-family="Times New Roman,serif" font-size="9.00">3</text>
</g>
<!-- &#45;9&#45;&gt;3 -->
<g id="edge1" class="edge">
<title>&#45;9&#45;&gt;3</title>
<path fill="none" stroke="green" stroke-width="0.57" d="M203,-256.45C203,-247.73 203,-233.36 203,-220.91"/>
<polygon fill="green" stroke="green" stroke-width="0.57" points="206.5,-220.65 203,-210.65 199.5,-220.65 206.5,-220.65"/>
</g>
<!-- 3826 -->
<g id="node17" class="node">
<title>3826</title>
<ellipse fill="white" stroke="black" cx="273" cy="-110.25" rx="25" ry="25"/>
<text text-anchor="middle" x="273" y="-108.05" font-family="Times New Roman,serif" font-size="9.00">3826</text>
</g>
<!-- &#45;9&#45;&gt;3826 -->
<g id="edge18" class="edge">
<title>&#45;9&#45;&gt;3826</title>
<path fill="none" stroke="green" stroke-width="0.36" d="M207.86,-256.19C212.9,-247.44 220.88,-233.19 227,-220.49 239.32,-194.93 251.71,-165.21 260.52,-143.23"/>
<polygon fill="green" stroke="green" stroke-width="0.36" points="263.86,-144.3 264.31,-133.72 257.36,-141.71 263.86,-144.3"/>
</g>
<!-- &#45;9&#45;&gt;3932 -->
<g id="edge19" class="edge">
<title>&#45;9&#45;&gt;3932</title>
<path fill="none" stroke="red" stroke-width="0.29" d="M190.57,-259.74C187.75,-258.67 184.78,-257.54 182,-256.49 138.96,-240.31 116.63,-253.87 85,-220.49 65.72,-200.15 57.36,-169.04 53.75,-145.21"/>
<polygon fill="red" stroke="red" stroke-width="0.29" points="57.2,-144.63 52.43,-135.17 50.26,-145.54 57.2,-144.63"/>
</g>
<!-- &#45;10 -->
<g id="node10" class="node">
<title>&#45;10</title>
<polygon fill="lightgray" stroke="black" points="309.5,-274.49 280.5,-274.49 280.5,-256.49 309.5,-256.49 309.5,-274.49"/>
<text text-anchor="middle" x="295" y="-263.29" font-family="Times New Roman,serif" font-size="9.00">&#45;10</text>
</g>
<!-- 0 -->
<g id="node12" class="node">
<title>0</title>
<ellipse fill="lightblue" stroke="black" cx="289" cy="-195.74" rx="14.7" ry="14.7"/>
<text text-anchor="middle" x="289" y="-193.54" font-family="Times New Roman,serif" font-size="9.00">0</text>
</g>
<!-- &#45;10&#45;&gt;0 -->
<g id="edge3" class="edge">
<title>&#45;10&#45;&gt;0</title>
<path fill="none" stroke="green" stroke-width="2.22" d="M294.29,-256.45C293.52,-247.73 292.24,-233.36 291.14,-220.91"/>
<polygon fill="green" stroke="green" stroke-width="2.22" points="294.6,-220.3 290.23,-210.65 287.63,-220.92 294.6,-220.3"/>
</g>
<!-- &#45;10&#45;&gt;3134 -->
<g id="edge6" class="edge">
<title>&#45;10&#45;&gt;3134</title>
<path fill="none" stroke="green" stroke-width="0.22" d="M301.17,-256.45C307.32,-248.44 317.11,-235.69 326.06,-224.02"/>
<polygon fill="green" stroke="green" stroke-width="0.22" points="329.06,-225.86 332.37,-215.8 323.51,-221.6 329.06,-225.86"/>
</g>
<!-- &#45;11 -->
<g id="node11" class="node">
<title>&#45;11</title>
<polygon fill="lightgray" stroke="black" points="123.5,-204.74 94.5,-204.74 94.5,-186.74 123.5,-186.74 123.5,-204.74"/>
<text text-anchor="middle" x="109" y="-193.54" font-family="Times New Roman,serif" font-size="9.00">&#45;11</text>
</g>
<!-- 1 -->
<g id="node13" class="node">
<title>1</title>
<ellipse fill="lightblue" stroke="black" cx="109" cy="-110.25" rx="14.7" ry="14.7"/>
<text text-anchor="middle" x="109" y="-108.05" font-family="Times New Roman,serif" font-size="9.00">1</text>
</g>
<!-- &#45;11&#45;&gt;1 -->
<g id="edge2" class="edge">
<title>&#45;11&#45;&gt;1</title>
<path fill="none" stroke="green" stroke-width="2.57" d="M109,-186.74C109,-174.97 109,-152.54 109,-135.17"/>
<polygon fill="green" stroke="green" stroke-width="2.57" points="112.5,-135.15 109,-125.15 105.5,-135.15 112.5,-135.15"/>
</g>
<!-- 0&#45;&gt;3826 -->
<g id="edge14" class="edge">
<title>0&#45;&gt;3826</title>
<path fill="none" stroke="green" stroke-width="0.14" d="M286.36,-180.96C284.47,-171.09 281.84,-157.36 279.41,-144.7"/>
<polygon fill="green" stroke="green" stroke-width="0.14" points="282.84,-144.03 277.53,-134.86 275.97,-145.34 282.84,-144.03"/>
</g>
<!-- 1&#45;&gt;3675 -->
<g id="edge17" class="edge">
<title>1&#45;&gt;3675</title>
<path fill="none" stroke="green" stroke-width="0.16" d="M113.66,-95.83C117.21,-85.62 122.24,-71.12 126.81,-57.96"/>
<polygon fill="green" stroke="green" stroke-width="0.16" points="130.21,-58.85 130.18,-48.25 123.6,-56.55 130.21,-58.85"/>
</g>
<!-- 4011 -->
<g id="node16" class="node">
<title>4011</title>
<ellipse fill="white" stroke="black" cx="167" cy="-110.25" rx="25" ry="25"/>
<text text-anchor="middle" x="167" y="-108.05" font-family="Times New Roman,serif" font-size="9.00">4011</text>
</g>
<!-- 3&#45;&gt;4011 -->
<g id="edge15" class="edge">
<title>3&#45;&gt;4011</title>
<path fill="none" stroke="red" stroke-width="0.6" stroke-dasharray="1,5" d="M197.38,-181.7C192.89,-171.29 186.41,-156.27 180.59,-142.77"/>
<polygon fill="red" stroke="red" stroke-width="0.6" points="183.68,-141.09 176.51,-133.29 177.25,-143.86 183.68,-141.09"/>
</g>
<!-- 3&#45;&gt;3826 -->
<g id="edge8" class="edge">
<title>3&#45;&gt;3826</title>
<path fill="none" stroke="red" stroke-width="0.71" d="M212.15,-183.83C221.93,-172.16 237.81,-153.23 250.89,-137.63"/>
<polygon fill="red" stroke="red" stroke-width="0.71" points="253.68,-139.74 257.42,-129.83 248.32,-135.24 253.68,-139.74"/>
</g>
<!-- 3&#45;&gt;3675 -->
<g id="edge7" class="edge">
<title>3&#45;&gt;3675</title>
<path fill="none" stroke="red" stroke-width="0.51" stroke-dasharray="1,5" d="M206.02,-180.91C210.01,-159.44 215,-117.26 201,-85.5 193.82,-69.2 179.85,-55.22 166.89,-44.89"/>
<polygon fill="red" stroke="red" stroke-width="0.51" points="168.69,-41.87 158.6,-38.64 164.48,-47.46 168.69,-41.87"/>
</g>
<!-- 4011&#45;&gt;3675 -->
<g id="edge16" class="edge">
<title>4011&#45;&gt;3675</title>
<path fill="none" stroke="green" stroke-width="0.21" d="M159.08,-86.43C156.01,-77.61 152.46,-67.37 149.14,-57.84"/>
<polygon fill="green" stroke="green" stroke-width="0.21" points="152.4,-56.55 145.81,-48.25 145.79,-58.84 152.4,-56.55"/>
</g>
<!-- 3826&#45;&gt;3675 -->
<g id="edge9" class="edge">
<title>3826&#45;&gt;3675</title>
<path fill="none" stroke="green" stroke-width="0.18" stroke-dasharray="1,5" d="M252.2,-96.38C229.44,-82.31 192.79,-59.64 167.16,-43.79"/>
<polygon fill="green" stroke="green" stroke-width="0.18" points="168.95,-40.77 158.6,-38.49 165.26,-46.73 168.95,-40.77"/>
</g>
<!-- 3932&#45;&gt;3675 -->
<g id="edge13" class="edge">
<title>3932&#45;&gt;3675</title>
<path fill="none" stroke="green" stroke-width="0.17" d="M68.61,-92.35C81.34,-80.13 98.73,-63.43 112.92,-49.82"/>
<polygon fill="green" stroke="green" stroke-width="0.17" points="115.63,-52.07 120.42,-42.62 110.78,-47.02 115.63,-52.07"/>
</g>
</g>
</svg>
