<?xml version="1.0" encoding="UTF-8" standalone="no"?>
<!DOCTYPE svg PUBLIC "-//W3C//DTD SVG 1.1//EN"
 "http://www.w3.org/Graphics/SVG/1.1/DTD/svg11.dtd">
<!-- Generated by graphviz version 2.47.1 (20210417.1919)
 -->
<!-- Pages: 1 -->
<svg width="464pt" height="92pt"
 viewBox="0.00 0.00 464.00 91.70" xmlns="http://www.w3.org/2000/svg" xmlns:xlink="http://www.w3.org/1999/xlink">
<g id="graph0" class="graph" transform="scale(1 1) rotate(0) translate(4 87.7)">
<polygon fill="white" stroke="transparent" points="-4,4 -4,-87.7 460,-87.7 460,4 -4,4"/>
<!-- &#45;1 -->
<g id="node1" class="node">
<title>&#45;1</title>
<polygon fill="lightgray" stroke="black" points="456,-83.7 432,-83.7 432,-65.7 456,-65.7 456,-83.7"/>
<text text-anchor="middle" x="444" y="-72.5" font-family="Times New Roman,serif" font-size="9.00">&#45;1</text>
</g>
<!-- 0 -->
<g id="node12" class="node">
<title>0</title>
<ellipse fill="lightblue" stroke="black" cx="216" cy="-14.85" rx="14.7" ry="14.7"/>
<text text-anchor="middle" x="216" y="-12.65" font-family="Times New Roman,serif" font-size="9.00">0</text>
</g>
<!-- &#45;1&#45;&gt;0 -->
<g id="edge32" class="edge">
<title>&#45;1&#45;&gt;0</title>
<path fill="none" stroke="red" stroke-width="3.47" d="M431.68,-68.61C428.86,-67.55 425.85,-66.52 423,-65.7 343.32,-42.86 317.61,-58.81 240,-29.7 239.13,-29.37 238.26,-29.02 237.39,-28.64"/>
<polygon fill="red" stroke="red" stroke-width="3.47" points="238.82,-25.44 228.32,-23.99 235.62,-31.67 238.82,-25.44"/>
</g>
<!-- 2 -->
<g id="node14" class="node">
<title>2</title>
<ellipse fill="lightblue" stroke="black" cx="312" cy="-14.85" rx="14.7" ry="14.7"/>
<text text-anchor="middle" x="312" y="-12.65" font-family="Times New Roman,serif" font-size="9.00">2</text>
</g>
<!-- &#45;1&#45;&gt;2 -->
<g id="edge1" class="edge">
<title>&#45;1&#45;&gt;2</title>
<path fill="none" stroke="green" stroke-width="1.07" d="M431.82,-68.36C409.76,-58.69 362.9,-38.16 334.76,-25.82"/>
<polygon fill="green" stroke="green" stroke-width="1.07" points="335.89,-22.5 325.32,-21.69 333.08,-28.91 335.89,-22.5"/>
</g>
<!-- 3 -->
<g id="node15" class="node">
<title>3</title>
<ellipse fill="lightblue" stroke="black" cx="264" cy="-14.85" rx="14.7" ry="14.7"/>
<text text-anchor="middle" x="264" y="-12.65" font-family="Times New Roman,serif" font-size="9.00">3</text>
</g>
<!-- &#45;1&#45;&gt;3 -->
<g id="edge2" class="edge">
<title>&#45;1&#45;&gt;3</title>
<path fill="none" stroke="red" stroke-width="0.2" d="M431.64,-68.75C428.82,-67.68 425.82,-66.61 423,-65.7 363.91,-46.62 345.39,-53.42 288,-29.7 287.14,-29.34 286.28,-28.97 285.42,-28.57"/>
<polygon fill="red" stroke="red" stroke-width="0.2" points="286.87,-25.38 276.39,-23.82 283.61,-31.57 286.87,-25.38"/>
</g>
<!-- &#45;2 -->
<g id="node2" class="node">
<title>&#45;2</title>
<polygon fill="lightgray" stroke="black" points="324,-83.7 300,-83.7 300,-65.7 324,-65.7 324,-83.7"/>
<text text-anchor="middle" x="312" y="-72.5" font-family="Times New Roman,serif" font-size="9.00">&#45;2</text>
</g>
<!-- &#45;2&#45;&gt;0 -->
<g id="edge3" class="edge">
<title>&#45;2&#45;&gt;0</title>
<path fill="none" stroke="red" stroke-width="1.99" stroke-dasharray="1,5" d="M299.84,-66.37C284.06,-56.86 256.27,-40.11 237.03,-28.52"/>
<polygon fill="red" stroke="red" stroke-width="1.99" points="238.73,-25.46 228.36,-23.3 235.12,-31.46 238.73,-25.46"/>
</g>
<!-- 1 -->
<g id="node13" class="node">
<title>1</title>
<ellipse fill="lightblue" stroke="black" cx="168" cy="-14.85" rx="14.7" ry="14.7"/>
<text text-anchor="middle" x="168" y="-12.65" font-family="Times New Roman,serif" font-size="9.00">1</text>
</g>
<!-- &#45;2&#45;&gt;1 -->
<g id="edge4" class="edge">
<title>&#45;2&#45;&gt;1</title>
<path fill="none" stroke="red" stroke-width="4.54" d="M299.57,-68.93C296.76,-67.86 293.78,-66.73 291,-65.7 247.12,-49.36 234.44,-49.47 192,-29.7 191.16,-29.31 190.31,-28.9 189.46,-28.47"/>
<polygon fill="red" stroke="red" stroke-width="4.54" points="191.17,-24.88 180.48,-23.6 187.38,-31.86 191.17,-24.88"/>
</g>
<!-- &#45;2&#45;&gt;2 -->
<g id="edge5" class="edge">
<title>&#45;2&#45;&gt;2</title>
<path fill="none" stroke="red" stroke-width="1.69" stroke-dasharray="1,5" d="M312,-65.65C312,-59.05 312,-49.33 312,-40.23"/>
<polygon fill="red" stroke="red" stroke-width="1.69" points="315.5,-40.06 312,-30.06 308.5,-40.06 315.5,-40.06"/>
</g>
<!-- &#45;2&#45;&gt;3 -->
<g id="edge6" class="edge">
<title>&#45;2&#45;&gt;3</title>
<path fill="none" stroke="red" stroke-width="3.68" d="M305.33,-65.65C298.74,-57.72 288.43,-45.29 279.75,-34.83"/>
<polygon fill="red" stroke="red" stroke-width="3.68" points="282.33,-32.46 273.25,-26.99 276.94,-36.93 282.33,-32.46"/>
</g>
<!-- &#45;3 -->
<g id="node3" class="node">
<title>&#45;3</title>
<polygon fill="lightgray" stroke="black" points="24,-83.7 0,-83.7 0,-65.7 24,-65.7 24,-83.7"/>
<text text-anchor="middle" x="12" y="-72.5" font-family="Times New Roman,serif" font-size="9.00">&#45;3</text>
</g>
<!-- &#45;3&#45;&gt;0 -->
<g id="edge7" class="edge">
<title>&#45;3&#45;&gt;0</title>
<path fill="none" stroke="green" stroke-width="0.57" d="M24.34,-68.67C27.16,-67.61 30.16,-66.56 33,-65.7 102.36,-44.75 124.53,-56.1 192,-29.7 192.86,-29.36 193.73,-29 194.6,-28.61"/>
<polygon fill="green" stroke="green" stroke-width="0.57" points="196.38,-31.63 203.65,-23.92 193.16,-25.41 196.38,-31.63"/>
</g>
<!-- &#45;3&#45;&gt;1 -->
<g id="edge8" class="edge">
<title>&#45;3&#45;&gt;1</title>
<path fill="none" stroke="red" stroke-width="0.55" stroke-dasharray="1,5" d="M24.43,-68.94C27.25,-67.87 30.22,-66.74 33,-65.7 72.03,-51.06 117.53,-34.33 144.49,-24.45"/>
<polygon fill="red" stroke="red" stroke-width="0.55" points="146,-27.62 154.18,-20.9 143.59,-21.05 146,-27.62"/>
</g>
<!-- &#45;4 -->
<g id="node4" class="node">
<title>&#45;4</title>
<polygon fill="lightgray" stroke="black" points="66,-83.7 42,-83.7 42,-65.7 66,-65.7 66,-83.7"/>
<text text-anchor="middle" x="54" y="-72.5" font-family="Times New Roman,serif" font-size="9.00">&#45;4</text>
</g>
<!-- &#45;4&#45;&gt;0 -->
<g id="edge9" class="edge">
<title>&#45;4&#45;&gt;0</title>
<path fill="none" stroke="green" stroke-width="3.72" d="M66.39,-68.83C69.21,-67.76 72.2,-66.66 75,-65.7 126.45,-48 142.12,-51.43 192,-29.7 192.85,-29.33 193.71,-28.94 194.56,-28.53"/>
<polygon fill="green" stroke="green" stroke-width="3.72" points="196.39,-31.52 203.57,-23.73 193.1,-25.34 196.39,-31.52"/>
</g>
<!-- &#45;4&#45;&gt;1 -->
<g id="edge10" class="edge">
<title>&#45;4&#45;&gt;1</title>
<path fill="none" stroke="red" stroke-width="5.36" d="M66.2,-67.51C85.18,-57.88 122.07,-39.16 145.84,-27.09"/>
<polygon fill="red" stroke="red" stroke-width="5.36" points="148.05,-31.24 154.84,-22.53 143.8,-22.87 148.05,-31.24"/>
</g>
<!-- &#45;5 -->
<g id="node5" class="node">
<title>&#45;5</title>
<polygon fill="lightgray" stroke="black" points="414,-83.7 390,-83.7 390,-65.7 414,-65.7 414,-83.7"/>
<text text-anchor="middle" x="402" y="-72.5" font-family="Times New Roman,serif" font-size="9.00">&#45;5</text>
</g>
<!-- &#45;5&#45;&gt;0 -->
<g id="edge11" class="edge">
<title>&#45;5&#45;&gt;0</title>
<path fill="none" stroke="red" stroke-width="3.76" d="M389.65,-68.72C386.83,-67.66 383.83,-66.59 381,-65.7 319.35,-46.15 299.9,-54.09 240,-29.7 239.14,-29.35 238.28,-28.97 237.41,-28.58"/>
<polygon fill="red" stroke="red" stroke-width="3.76" points="238.86,-25.39 228.38,-23.85 235.61,-31.59 238.86,-25.39"/>
</g>
<!-- &#45;5&#45;&gt;2 -->
<g id="edge12" class="edge">
<title>&#45;5&#45;&gt;2</title>
<path fill="none" stroke="red" stroke-width="0.61" stroke-dasharray="1,5" d="M389.86,-65.9C375.23,-56.49 350.42,-40.55 332.74,-29.18"/>
<polygon fill="red" stroke="red" stroke-width="0.61" points="334.54,-26.18 324.23,-23.71 330.75,-32.06 334.54,-26.18"/>
</g>
<!-- &#45;5&#45;&gt;3 -->
<g id="edge13" class="edge">
<title>&#45;5&#45;&gt;3</title>
<path fill="none" stroke="red" stroke-width="2.78" stroke-dasharray="1,5" d="M389.99,-69.12C361.69,-58.33 292.86,-32.02 288,-29.7 287.16,-29.3 286.32,-28.88 285.47,-28.45"/>
<polygon fill="red" stroke="red" stroke-width="2.78" points="286.96,-25.28 276.51,-23.56 283.61,-31.42 286.96,-25.28"/>
</g>
<!-- &#45;6 -->
<g id="node6" class="node">
<title>&#45;6</title>
<polygon fill="lightgray" stroke="black" points="282,-83.7 258,-83.7 258,-65.7 282,-65.7 282,-83.7"/>
<text text-anchor="middle" x="270" y="-72.5" font-family="Times New Roman,serif" font-size="9.00">&#45;6</text>
</g>
<!-- &#45;6&#45;&gt;1 -->
<g id="edge14" class="edge">
<title>&#45;6&#45;&gt;1</title>
<path fill="none" stroke="red" stroke-width="1.57" d="M257.82,-66.88C242.45,-58.26 215.23,-42.95 192,-29.7 191.2,-29.24 190.38,-28.77 189.55,-28.3"/>
<polygon fill="red" stroke="red" stroke-width="1.57" points="191.1,-25.15 180.69,-23.2 187.62,-31.22 191.1,-25.15"/>
</g>
<!-- &#45;6&#45;&gt;2 -->
<g id="edge15" class="edge">
<title>&#45;6&#45;&gt;2</title>
<path fill="none" stroke="green" stroke-width="2.95" stroke-dasharray="1,5" d="M275.84,-65.65C281.47,-57.89 290.23,-45.84 297.71,-35.53"/>
<polygon fill="green" stroke="green" stroke-width="2.95" points="300.56,-37.57 303.6,-27.42 294.89,-33.45 300.56,-37.57"/>
</g>
<!-- &#45;7 -->
<g id="node7" class="node">
<title>&#45;7</title>
<polygon fill="lightgray" stroke="black" points="150,-83.7 126,-83.7 126,-65.7 150,-65.7 150,-83.7"/>
<text text-anchor="middle" x="138" y="-72.5" font-family="Times New Roman,serif" font-size="9.00">&#45;7</text>
</g>
<!-- &#45;7&#45;&gt;0 -->
<g id="edge16" class="edge">
<title>&#45;7&#45;&gt;0</title>
<path fill="none" stroke="red" stroke-width="0.35" stroke-dasharray="1,5" d="M148.85,-65.65C161.09,-56.57 181.27,-41.61 196.32,-30.45"/>
<polygon fill="red" stroke="red" stroke-width="0.35" points="198.54,-33.16 204.49,-24.39 194.37,-27.53 198.54,-33.16"/>
</g>
<!-- &#45;7&#45;&gt;1 -->
<g id="edge17" class="edge">
<title>&#45;7&#45;&gt;1</title>
<path fill="none" stroke="green" stroke-width="1.01" stroke-dasharray="1,5" d="M142.17,-65.65C145.98,-58.31 151.78,-47.13 156.92,-37.22"/>
<polygon fill="green" stroke="green" stroke-width="1.01" points="160.06,-38.77 161.56,-28.28 153.84,-35.54 160.06,-38.77"/>
</g>
<!-- &#45;7&#45;&gt;2 -->
<g id="edge18" class="edge">
<title>&#45;7&#45;&gt;2</title>
<path fill="none" stroke="red" stroke-width="2.04" stroke-dasharray="1,5" d="M150.37,-68.77C153.19,-67.71 156.18,-66.63 159,-65.7 215.54,-47.08 233.12,-52.76 288,-29.7 288.85,-29.34 289.71,-28.96 290.58,-28.55"/>
<polygon fill="red" stroke="red" stroke-width="2.04" points="292.39,-31.56 299.6,-23.8 289.12,-25.37 292.39,-31.56"/>
</g>
<!-- &#45;7&#45;&gt;3 -->
<g id="edge19" class="edge">
<title>&#45;7&#45;&gt;3</title>
<path fill="none" stroke="red" stroke-width="0.29" stroke-dasharray="1,5" d="M150.14,-68.99C169.47,-61.39 208.29,-45.62 240,-29.7 240.83,-29.28 241.67,-28.85 242.51,-28.41"/>
<polygon fill="red" stroke="red" stroke-width="0.29" points="244.39,-31.37 251.45,-23.46 241,-25.24 244.39,-31.37"/>
</g>
<!-- &#45;8 -->
<g id="node8" class="node">
<title>&#45;8</title>
<polygon fill="lightgray" stroke="black" points="192,-83.7 168,-83.7 168,-65.7 192,-65.7 192,-83.7"/>
<text text-anchor="middle" x="180" y="-72.5" font-family="Times New Roman,serif" font-size="9.00">&#45;8</text>
</g>
<!-- &#45;8&#45;&gt;0 -->
<g id="edge33" class="edge">
<title>&#45;8&#45;&gt;0</title>
<path fill="none" stroke="green" stroke-width="0.38" d="M185.01,-65.65C189.68,-58.14 196.86,-46.61 203.13,-36.53"/>
<polygon fill="green" stroke="green" stroke-width="0.38" points="206.22,-38.18 208.54,-27.84 200.28,-34.49 206.22,-38.18"/>
</g>
<!-- &#45;8&#45;&gt;1 -->
<g id="edge20" class="edge">
<title>&#45;8&#45;&gt;1</title>
<path fill="none" stroke="red" stroke-width="3.42" d="M178.33,-65.65C176.93,-58.89 174.85,-48.86 172.92,-39.57"/>
<polygon fill="red" stroke="red" stroke-width="3.42" points="176.31,-38.69 170.85,-29.6 169.46,-40.11 176.31,-38.69"/>
</g>
<!-- &#45;8&#45;&gt;2 -->
<g id="edge21" class="edge">
<title>&#45;8&#45;&gt;2</title>
<path fill="none" stroke="green" stroke-width="4.43" d="M192.08,-69.02C216.34,-59.58 270.18,-38.42 288,-29.7 288.83,-29.29 289.67,-28.87 290.52,-28.43"/>
<polygon fill="green" stroke="green" stroke-width="4.43" points="292.58,-31.73 299.47,-23.51 288.84,-24.93 292.58,-31.73"/>
</g>
<!-- &#45;8&#45;&gt;3 -->
<g id="edge22" class="edge">
<title>&#45;8&#45;&gt;3</title>
<path fill="none" stroke="red" stroke-width="2.31" stroke-dasharray="1,5" d="M191.68,-65.65C205.14,-56.38 227.51,-40.98 243.81,-29.75"/>
<polygon fill="red" stroke="red" stroke-width="2.31" points="245.9,-32.57 252.15,-24.01 241.93,-26.8 245.9,-32.57"/>
</g>
<!-- &#45;9 -->
<g id="node9" class="node">
<title>&#45;9</title>
<polygon fill="lightgray" stroke="black" points="108,-83.7 84,-83.7 84,-65.7 108,-65.7 108,-83.7"/>
<text text-anchor="middle" x="96" y="-72.5" font-family="Times New Roman,serif" font-size="9.00">&#45;9</text>
</g>
<!-- &#45;9&#45;&gt;1 -->
<g id="edge23" class="edge">
<title>&#45;9&#45;&gt;1</title>
<path fill="none" stroke="red" stroke-width="0.55" d="M106.01,-65.65C117.02,-56.81 134.97,-42.39 148.73,-31.34"/>
<polygon fill="red" stroke="red" stroke-width="0.55" points="151.05,-33.96 156.65,-24.97 146.66,-28.5 151.05,-33.96"/>
</g>
<!-- &#45;9&#45;&gt;3 -->
<g id="edge24" class="edge">
<title>&#45;9&#45;&gt;3</title>
<path fill="none" stroke="green" stroke-width="5.9" d="M108.38,-68.8C111.2,-67.73 114.19,-66.64 117,-65.7 170.99,-47.55 187.63,-52.09 240,-29.7 240.85,-29.33 241.71,-28.95 242.57,-28.54"/>
<polygon fill="green" stroke="green" stroke-width="5.9" points="245.17,-33.01 251.59,-23.76 240.33,-23.88 245.17,-33.01"/>
</g>
<!-- &#45;10 -->
<g id="node10" class="node">
<title>&#45;10</title>
<polygon fill="lightgray" stroke="black" points="239.5,-83.7 210.5,-83.7 210.5,-65.7 239.5,-65.7 239.5,-83.7"/>
<text text-anchor="middle" x="225" y="-72.5" font-family="Times New Roman,serif" font-size="9.00">&#45;10</text>
</g>
<!-- &#45;10&#45;&gt;0 -->
<g id="edge25" class="edge">
<title>&#45;10&#45;&gt;0</title>
<path fill="none" stroke="green" stroke-width="6.1" d="M223.75,-65.65C222.7,-58.89 221.14,-48.86 219.69,-39.57"/>
<polygon fill="green" stroke="green" stroke-width="6.1" points="224.95,-38.67 218.14,-29.6 214.4,-40.31 224.95,-38.67"/>
</g>
<!-- &#45;10&#45;&gt;1 -->
<g id="edge26" class="edge">
<title>&#45;10&#45;&gt;1</title>
<path fill="none" stroke="green" stroke-width="0.14" stroke-dasharray="1,5" d="M217.07,-65.65C208.9,-57.36 195.9,-44.16 185.33,-33.44"/>
<polygon fill="green" stroke="green" stroke-width="0.14" points="187.68,-30.83 178.17,-26.17 182.69,-35.75 187.68,-30.83"/>
</g>
<!-- &#45;10&#45;&gt;2 -->
<g id="edge27" class="edge">
<title>&#45;10&#45;&gt;2</title>
<path fill="none" stroke="green" stroke-width="1.77" d="M237.1,-65.65C251.12,-56.33 274.47,-40.8 291.38,-29.56"/>
<polygon fill="green" stroke="green" stroke-width="1.77" points="293.62,-32.28 300.01,-23.82 289.74,-26.45 293.62,-32.28"/>
</g>
<!-- &#45;10&#45;&gt;3 -->
<g id="edge28" class="edge">
<title>&#45;10&#45;&gt;3</title>
<path fill="none" stroke="green" stroke-width="0.65" stroke-dasharray="1,5" d="M230.42,-65.65C235.54,-58.07 243.42,-46.37 250.26,-36.22"/>
<polygon fill="green" stroke="green" stroke-width="0.65" points="253.23,-38.09 255.91,-27.84 247.42,-34.18 253.23,-38.09"/>
</g>
<!-- &#45;11 -->
<g id="node11" class="node">
<title>&#45;11</title>
<polygon fill="lightgray" stroke="black" points="371.5,-83.7 342.5,-83.7 342.5,-65.7 371.5,-65.7 371.5,-83.7"/>
<text text-anchor="middle" x="357" y="-72.5" font-family="Times New Roman,serif" font-size="9.00">&#45;11</text>
</g>
<!-- &#45;11&#45;&gt;1 -->
<g id="edge29" class="edge">
<title>&#45;11&#45;&gt;1</title>
<path fill="none" stroke="green" stroke-width="5.47" d="M342.33,-68.62C339.26,-67.61 336.03,-66.59 333,-65.7 270.95,-47.46 251.9,-54.09 192,-29.7 191.14,-29.35 190.28,-28.97 189.41,-28.58"/>
<polygon fill="green" stroke="green" stroke-width="5.47" points="191.45,-24.25 180.38,-23.85 187.02,-32.73 191.45,-24.25"/>
</g>
<!-- &#45;11&#45;&gt;2 -->
<g id="edge30" class="edge">
<title>&#45;11&#45;&gt;2</title>
<path fill="none" stroke="red" stroke-width="2.83" stroke-dasharray="1,5" d="M350.74,-65.65C344.63,-57.8 335.09,-45.53 327.01,-35.14"/>
<polygon fill="red" stroke="red" stroke-width="2.83" points="329.57,-32.74 320.67,-26.99 324.05,-37.04 329.57,-32.74"/>
</g>
<!-- &#45;11&#45;&gt;3 -->
<g id="edge31" class="edge">
<title>&#45;11&#45;&gt;3</title>
<path fill="none" stroke="green" stroke-width="0.36" d="M344.07,-65.65C328.77,-56.14 303.09,-40.16 284.94,-28.87"/>
<polygon fill="green" stroke="green" stroke-width="0.36" points="286.57,-25.77 276.23,-23.46 282.87,-31.71 286.57,-25.77"/>
</g>
</g>
</svg>
