<?xml version="1.0" encoding="UTF-8" standalone="no"?>
<!DOCTYPE svg PUBLIC "-//W3C//DTD SVG 1.1//EN"
 "http://www.w3.org/Graphics/SVG/1.1/DTD/svg11.dtd">
<!-- Generated by graphviz version 2.47.1 (20210417.1919)
 -->
<!-- Pages: 1 -->
<svg width="516pt" height="170pt"
 viewBox="0.00 0.00 516.21 170.12" xmlns="http://www.w3.org/2000/svg" xmlns:xlink="http://www.w3.org/1999/xlink">
<g id="graph0" class="graph" transform="scale(1 1) rotate(0) translate(4 166.12)">
<polygon fill="white" stroke="transparent" points="-4,4 -4,-166.12 512.21,-166.12 512.21,4 -4,4"/>
<!-- &#45;1 -->
<g id="node1" class="node">
<title>&#45;1</title>
<polygon fill="lightgray" stroke="black" points="24,-162.12 0,-162.12 0,-144.12 24,-144.12 24,-162.12"/>
<text text-anchor="middle" x="12" y="-150.92" font-family="Times New Roman,serif" font-size="9.00">&#45;1</text>
</g>
<!-- 0 -->
<g id="node12" class="node">
<title>0</title>
<ellipse fill="lightblue" stroke="black" cx="185" cy="-86.91" rx="14.7" ry="14.7"/>
<text text-anchor="middle" x="185" y="-84.71" font-family="Times New Roman,serif" font-size="9.00">0</text>
</g>
<!-- &#45;1&#45;&gt;0 -->
<g id="edge1" class="edge">
<title>&#45;1&#45;&gt;0</title>
<path fill="none" stroke="red" stroke-width="0.18" stroke-dasharray="1,5" d="M24.17,-147.61C52.71,-137.02 124.37,-110.42 161.65,-96.58"/>
<polygon fill="red" stroke="red" stroke-width="0.18" points="163.03,-99.8 171.19,-93.04 160.6,-93.24 163.03,-99.8"/>
</g>
<!-- 3 -->
<g id="node15" class="node">
<title>3</title>
<ellipse fill="lightblue" stroke="black" cx="276" cy="-14.85" rx="14.7" ry="14.7"/>
<text text-anchor="middle" x="276" y="-12.65" font-family="Times New Roman,serif" font-size="9.00">3</text>
</g>
<!-- &#45;1&#45;&gt;3 -->
<g id="edge2" class="edge">
<title>&#45;1&#45;&gt;3</title>
<path fill="none" stroke="green" stroke-width="0.68" stroke-dasharray="1,5" d="M12.9,-144C15.27,-126.75 23.3,-86.33 48,-65.7 78.85,-39.94 198.81,-24.17 251.24,-18.37"/>
<polygon fill="green" stroke="green" stroke-width="0.68" points="251.78,-21.84 261.35,-17.29 251.03,-14.88 251.78,-21.84"/>
</g>
<!-- &#45;2 -->
<g id="node2" class="node">
<title>&#45;2</title>
<polygon fill="lightgray" stroke="black" points="378,-162.12 354,-162.12 354,-144.12 378,-144.12 378,-162.12"/>
<text text-anchor="middle" x="366" y="-150.92" font-family="Times New Roman,serif" font-size="9.00">&#45;2</text>
</g>
<!-- &#45;2&#45;&gt;0 -->
<g id="edge3" class="edge">
<title>&#45;2&#45;&gt;0</title>
<path fill="none" stroke="green" stroke-width="0.34" stroke-dasharray="1,5" d="M353.64,-147.17C350.82,-146.11 347.82,-145.03 345,-144.12 285.48,-124.97 264.48,-136.96 209,-108.12 206.96,-107.06 204.94,-105.8 202.98,-104.43"/>
<polygon fill="green" stroke="green" stroke-width="0.34" points="205.01,-101.58 195.02,-98.06 200.64,-107.04 205.01,-101.58"/>
</g>
<!-- 1 -->
<g id="node13" class="node">
<title>1</title>
<ellipse fill="lightblue" stroke="black" cx="319" cy="-86.91" rx="14.7" ry="14.7"/>
<text text-anchor="middle" x="319" y="-84.71" font-family="Times New Roman,serif" font-size="9.00">1</text>
</g>
<!-- &#45;2&#45;&gt;1 -->
<g id="edge4" class="edge">
<title>&#45;2&#45;&gt;1</title>
<path fill="none" stroke="green" stroke-width="0.21" stroke-dasharray="1,5" d="M360.05,-143.99C353.45,-134.98 342.56,-120.1 333.66,-107.93"/>
<polygon fill="green" stroke="green" stroke-width="0.21" points="336.34,-105.68 327.61,-99.68 330.69,-109.81 336.34,-105.68"/>
</g>
<!-- &#45;2&#45;&gt;3 -->
<g id="edge5" class="edge">
<title>&#45;2&#45;&gt;3</title>
<path fill="none" stroke="red" stroke-width="0.48" stroke-dasharray="1,5" d="M365.58,-143.76C364.39,-127.41 359.9,-90.63 343,-65.7 331.72,-49.06 313.01,-35.82 298.22,-27.18"/>
<polygon fill="red" stroke="red" stroke-width="0.48" points="299.64,-23.96 289.19,-22.18 296.24,-30.09 299.64,-23.96"/>
</g>
<!-- &#45;3 -->
<g id="node3" class="node">
<title>&#45;3</title>
<polygon fill="lightgray" stroke="black" points="198,-162.12 174,-162.12 174,-144.12 198,-144.12 198,-162.12"/>
<text text-anchor="middle" x="186" y="-150.92" font-family="Times New Roman,serif" font-size="9.00">&#45;3</text>
</g>
<!-- &#45;3&#45;&gt;0 -->
<g id="edge6" class="edge">
<title>&#45;3&#45;&gt;0</title>
<path fill="none" stroke="red" stroke-width="0.19" d="M185.87,-143.99C185.75,-136.01 185.55,-123.44 185.38,-112.23"/>
<polygon fill="red" stroke="red" stroke-width="0.19" points="188.88,-112.02 185.22,-102.08 181.88,-112.13 188.88,-112.02"/>
</g>
<!-- 2 -->
<g id="node14" class="node">
<title>2</title>
<ellipse fill="lightblue" stroke="black" cx="233" cy="-86.91" rx="14.7" ry="14.7"/>
<text text-anchor="middle" x="233" y="-84.71" font-family="Times New Roman,serif" font-size="9.00">2</text>
</g>
<!-- &#45;3&#45;&gt;2 -->
<g id="edge7" class="edge">
<title>&#45;3&#45;&gt;2</title>
<path fill="none" stroke="green" stroke-width="0.53" stroke-dasharray="1,5" d="M191.95,-143.99C198.55,-134.98 209.44,-120.1 218.34,-107.93"/>
<polygon fill="green" stroke="green" stroke-width="0.53" points="221.31,-109.81 224.39,-99.68 215.66,-105.68 221.31,-109.81"/>
</g>
<!-- &#45;4 -->
<g id="node4" class="node">
<title>&#45;4</title>
<polygon fill="lightgray" stroke="black" points="156,-162.12 132,-162.12 132,-144.12 156,-144.12 156,-162.12"/>
<text text-anchor="middle" x="144" y="-150.92" font-family="Times New Roman,serif" font-size="9.00">&#45;4</text>
</g>
<!-- &#45;4&#45;&gt;0 -->
<g id="edge8" class="edge">
<title>&#45;4&#45;&gt;0</title>
<path fill="none" stroke="red" stroke-width="0.56" stroke-dasharray="1,5" d="M149.19,-143.99C154.82,-135.17 164.04,-120.74 171.71,-108.73"/>
<polygon fill="red" stroke="red" stroke-width="0.56" points="174.76,-110.46 177.19,-100.15 168.86,-106.69 174.76,-110.46"/>
</g>
<!-- &#45;4&#45;&gt;2 -->
<g id="edge9" class="edge">
<title>&#45;4&#45;&gt;2</title>
<path fill="none" stroke="red" stroke-width="0.39" stroke-dasharray="1,5" d="M156.24,-144.38C169.51,-135.87 191.18,-121.61 209,-108.12 210.63,-106.89 212.3,-105.59 213.95,-104.26"/>
<polygon fill="red" stroke="red" stroke-width="0.39" points="216.5,-106.7 221.97,-97.62 212.03,-101.31 216.5,-106.7"/>
</g>
<!-- &#45;5 -->
<g id="node5" class="node">
<title>&#45;5</title>
<polygon fill="lightgray" stroke="black" points="72,-162.12 48,-162.12 48,-144.12 72,-144.12 72,-162.12"/>
<text text-anchor="middle" x="60" y="-150.92" font-family="Times New Roman,serif" font-size="9.00">&#45;5</text>
</g>
<!-- &#45;5&#45;&gt;0 -->
<g id="edge10" class="edge">
<title>&#45;5&#45;&gt;0</title>
<path fill="none" stroke="red" stroke-width="0.77" stroke-dasharray="1,5" d="M72.44,-145.73C93.47,-134.93 136.31,-112.92 162.65,-99.39"/>
<polygon fill="red" stroke="red" stroke-width="0.77" points="164.56,-102.34 171.86,-94.66 161.36,-96.12 164.56,-102.34"/>
</g>
<!-- &#45;5&#45;&gt;1 -->
<g id="edge11" class="edge">
<title>&#45;5&#45;&gt;1</title>
<path fill="none" stroke="red" stroke-width="0.18" stroke-dasharray="1,5" d="M72.32,-147.05C75.15,-145.99 78.15,-144.95 81,-144.12 157.67,-121.84 179.81,-128.53 257,-108.12 269.91,-104.71 284.07,-100.16 295.61,-96.23"/>
<polygon fill="red" stroke="red" stroke-width="0.18" points="297.04,-99.44 305.34,-92.86 294.75,-92.83 297.04,-99.44"/>
</g>
<!-- &#45;5&#45;&gt;2 -->
<g id="edge12" class="edge">
<title>&#45;5&#45;&gt;2</title>
<path fill="none" stroke="green" stroke-width="0.32" d="M72.37,-147.2C75.19,-146.14 78.18,-145.05 81,-144.12 137.11,-125.59 156.78,-135.78 209,-108.12 211.03,-107.05 213.05,-105.78 215,-104.4"/>
<polygon fill="green" stroke="green" stroke-width="0.32" points="217.34,-107.01 222.96,-98.02 212.97,-101.55 217.34,-107.01"/>
</g>
<!-- &#45;5&#45;&gt;3 -->
<g id="edge13" class="edge">
<title>&#45;5&#45;&gt;3</title>
<path fill="none" stroke="red" stroke-width="0.68" stroke-dasharray="1,5" d="M57.41,-144.11C52.57,-127.41 44.22,-88.55 63,-65.7 86.75,-36.79 200.13,-22.85 251.09,-17.96"/>
<polygon fill="red" stroke="red" stroke-width="0.68" points="251.6,-21.43 261.24,-17.03 250.96,-14.46 251.6,-21.43"/>
</g>
<!-- 523 -->
<g id="node17" class="node">
<title>523</title>
<ellipse fill="white" stroke="black" cx="93" cy="-86.91" rx="21.43" ry="21.43"/>
<text text-anchor="middle" x="93" y="-84.71" font-family="Times New Roman,serif" font-size="9.00">523</text>
</g>
<!-- &#45;5&#45;&gt;523 -->
<g id="edge31" class="edge">
<title>&#45;5&#45;&gt;523</title>
<path fill="none" stroke="green" stroke-width="0.25" stroke-dasharray="1,5" d="M64.18,-143.99C67.9,-136.76 73.55,-125.75 78.88,-115.4"/>
<polygon fill="green" stroke="green" stroke-width="0.25" points="82.14,-116.69 83.6,-106.2 75.92,-113.49 82.14,-116.69"/>
</g>
<!-- &#45;6 -->
<g id="node6" class="node">
<title>&#45;6</title>
<polygon fill="lightgray" stroke="black" points="288,-162.12 264,-162.12 264,-144.12 288,-144.12 288,-162.12"/>
<text text-anchor="middle" x="276" y="-150.92" font-family="Times New Roman,serif" font-size="9.00">&#45;6</text>
</g>
<!-- &#45;6&#45;&gt;1 -->
<g id="edge14" class="edge">
<title>&#45;6&#45;&gt;1</title>
<path fill="none" stroke="green" stroke-width="0.24" d="M281.45,-143.99C287.42,-135.06 297.25,-120.39 305.35,-108.29"/>
<polygon fill="green" stroke="green" stroke-width="0.24" points="308.46,-109.93 311.12,-99.68 302.65,-106.04 308.46,-109.93"/>
</g>
<!-- &#45;6&#45;&gt;2 -->
<g id="edge15" class="edge">
<title>&#45;6&#45;&gt;2</title>
<path fill="none" stroke="red" stroke-width="0.43" stroke-dasharray="1,5" d="M270.55,-143.99C264.58,-135.06 254.75,-120.39 246.65,-108.29"/>
<polygon fill="red" stroke="red" stroke-width="0.43" points="249.35,-106.04 240.88,-99.68 243.54,-109.93 249.35,-106.04"/>
</g>
<!-- &#45;6&#45;&gt;3 -->
<g id="edge16" class="edge">
<title>&#45;6&#45;&gt;3</title>
<path fill="none" stroke="green" stroke-width="0.23" d="M276,-144.01C276,-123.92 276,-71.23 276,-40.02"/>
<polygon fill="green" stroke="green" stroke-width="0.23" points="279.5,-39.97 276,-29.97 272.5,-39.97 279.5,-39.97"/>
</g>
<!-- &#45;7 -->
<g id="node7" class="node">
<title>&#45;7</title>
<polygon fill="lightgray" stroke="black" points="420,-162.12 396,-162.12 396,-144.12 420,-144.12 420,-162.12"/>
<text text-anchor="middle" x="408" y="-150.92" font-family="Times New Roman,serif" font-size="9.00">&#45;7</text>
</g>
<!-- &#45;7&#45;&gt;1 -->
<g id="edge17" class="edge">
<title>&#45;7&#45;&gt;1</title>
<path fill="none" stroke="green" stroke-width="0.43" stroke-dasharray="1,5" d="M396.73,-143.99C382.31,-133.59 357.08,-115.38 339.28,-102.54"/>
<polygon fill="green" stroke="green" stroke-width="0.43" points="340.9,-99.4 330.75,-96.39 336.81,-105.08 340.9,-99.4"/>
</g>
<!-- &#45;7&#45;&gt;2 -->
<g id="edge18" class="edge">
<title>&#45;7&#45;&gt;2</title>
<path fill="none" stroke="red" stroke-width="0.18" stroke-dasharray="1,5" d="M395.57,-147.36C392.76,-146.29 389.78,-145.16 387,-144.12 340.96,-126.95 286.98,-107.38 256.71,-96.45"/>
<polygon fill="red" stroke="red" stroke-width="0.18" points="257.63,-93.06 247.04,-92.96 255.26,-99.65 257.63,-93.06"/>
</g>
<!-- &#45;7&#45;&gt;3 -->
<g id="edge19" class="edge">
<title>&#45;7&#45;&gt;3</title>
<path fill="none" stroke="green" stroke-width="0.51" stroke-dasharray="1,5" d="M405.75,-144.03C400.82,-127.51 387.65,-89.49 365,-65.7 346.59,-46.37 319.01,-32.52 299.43,-24.4"/>
<polygon fill="green" stroke="green" stroke-width="0.51" points="300.61,-21.1 290.02,-20.68 298.03,-27.61 300.61,-21.1"/>
</g>
<!-- &#45;8 -->
<g id="node8" class="node">
<title>&#45;8</title>
<polygon fill="lightgray" stroke="black" points="462,-162.12 438,-162.12 438,-144.12 462,-144.12 462,-162.12"/>
<text text-anchor="middle" x="450" y="-150.92" font-family="Times New Roman,serif" font-size="9.00">&#45;8</text>
</g>
<!-- &#45;8&#45;&gt;1 -->
<g id="edge20" class="edge">
<title>&#45;8&#45;&gt;1</title>
<path fill="none" stroke="green" stroke-width="0.27" stroke-dasharray="1,5" d="M437.91,-146.2C415.93,-135.42 369.1,-112.47 341.22,-98.8"/>
<polygon fill="green" stroke="green" stroke-width="0.27" points="342.74,-95.65 332.22,-94.39 339.66,-101.94 342.74,-95.65"/>
</g>
<!-- &#45;8&#45;&gt;2 -->
<g id="edge21" class="edge">
<title>&#45;8&#45;&gt;2</title>
<path fill="none" stroke="green" stroke-width="0.18" d="M437.64,-147.18C434.82,-146.11 431.82,-145.04 429,-144.12 370.33,-125.12 354.11,-125.69 295,-108.12 282.2,-104.32 268.04,-99.74 256.49,-95.89"/>
<polygon fill="green" stroke="green" stroke-width="0.18" points="257.32,-92.48 246.72,-92.62 255.09,-99.12 257.32,-92.48"/>
</g>
<!-- &#45;8&#45;&gt;3 -->
<g id="edge22" class="edge">
<title>&#45;8&#45;&gt;3</title>
<path fill="none" stroke="red" stroke-width="0.22" d="M446.54,-144.09C438.97,-127.36 419.39,-88.44 392,-65.7 364.55,-42.91 325.12,-28.95 300.03,-21.8"/>
<polygon fill="red" stroke="red" stroke-width="0.22" points="300.81,-18.39 290.24,-19.15 298.98,-25.14 300.81,-18.39"/>
</g>
<!-- 395 -->
<g id="node16" class="node">
<title>395</title>
<ellipse fill="white" stroke="black" cx="487" cy="-86.91" rx="21.43" ry="21.43"/>
<text text-anchor="middle" x="487" y="-84.71" font-family="Times New Roman,serif" font-size="9.00">395</text>
</g>
<!-- &#45;8&#45;&gt;395 -->
<g id="edge29" class="edge">
<title>&#45;8&#45;&gt;395</title>
<path fill="none" stroke="red" stroke-width="0.13" d="M454.69,-143.99C458.96,-136.58 465.51,-125.21 471.6,-114.63"/>
<polygon fill="red" stroke="red" stroke-width="0.13" points="474.81,-116.08 476.77,-105.67 468.74,-112.59 474.81,-116.08"/>
</g>
<!-- &#45;9 -->
<g id="node9" class="node">
<title>&#45;9</title>
<polygon fill="lightgray" stroke="black" points="114,-162.12 90,-162.12 90,-144.12 114,-144.12 114,-162.12"/>
<text text-anchor="middle" x="102" y="-150.92" font-family="Times New Roman,serif" font-size="9.00">&#45;9</text>
</g>
<!-- &#45;9&#45;&gt;0 -->
<g id="edge23" class="edge">
<title>&#45;9&#45;&gt;0</title>
<path fill="none" stroke="green" stroke-width="0.37" d="M112.51,-143.99C125.81,-133.7 148.97,-115.78 165.54,-102.97"/>
<polygon fill="green" stroke="green" stroke-width="0.37" points="167.74,-105.69 173.51,-96.8 163.46,-100.15 167.74,-105.69"/>
</g>
<!-- &#45;9&#45;&gt;2 -->
<g id="edge24" class="edge">
<title>&#45;9&#45;&gt;2</title>
<path fill="none" stroke="red" stroke-width="0.19" stroke-dasharray="1,5" d="M114.28,-147.32C140.54,-137.02 200.46,-113.31 209,-108.12 210.97,-106.93 212.94,-105.58 214.86,-104.16"/>
<polygon fill="red" stroke="red" stroke-width="0.19" points="217.23,-106.74 222.79,-97.72 212.82,-101.31 217.23,-106.74"/>
</g>
<!-- &#45;9&#45;&gt;3 -->
<g id="edge25" class="edge">
<title>&#45;9&#45;&gt;3</title>
<path fill="none" stroke="green" stroke-width="1.42" d="M105.56,-144.1C113.34,-127.38 133.41,-88.49 161,-65.7 188.16,-43.27 226.95,-29.27 251.81,-22.01"/>
<polygon fill="green" stroke="green" stroke-width="1.42" points="252.83,-25.36 261.53,-19.31 250.96,-18.62 252.83,-25.36"/>
</g>
<!-- &#45;10 -->
<g id="node10" class="node">
<title>&#45;10</title>
<polygon fill="lightgray" stroke="black" points="245.5,-162.12 216.5,-162.12 216.5,-144.12 245.5,-144.12 245.5,-162.12"/>
<text text-anchor="middle" x="231" y="-150.92" font-family="Times New Roman,serif" font-size="9.00">&#45;10</text>
</g>
<!-- &#45;10&#45;&gt;0 -->
<g id="edge26" class="edge">
<title>&#45;10&#45;&gt;0</title>
<path fill="none" stroke="green" stroke-width="1.57" d="M225.17,-143.99C218.72,-134.98 208.06,-120.1 199.34,-107.93"/>
<polygon fill="green" stroke="green" stroke-width="1.57" points="202.1,-105.77 193.43,-99.68 196.41,-109.85 202.1,-105.77"/>
</g>
<!-- &#45;10&#45;&gt;1 -->
<g id="edge27" class="edge">
<title>&#45;10&#45;&gt;1</title>
<path fill="none" stroke="red" stroke-width="0.3" stroke-dasharray="1,5" d="M242.15,-143.99C256.4,-133.59 281.35,-115.38 298.95,-102.54"/>
<polygon fill="red" stroke="red" stroke-width="0.3" points="301.37,-105.11 307.39,-96.39 297.25,-99.45 301.37,-105.11"/>
</g>
<!-- &#45;10&#45;&gt;2 -->
<g id="edge33" class="edge">
<title>&#45;10&#45;&gt;2</title>
<path fill="none" stroke="green" stroke-width="0.15" stroke-dasharray="1,5" d="M231.25,-143.99C231.5,-136.01 231.89,-123.44 232.24,-112.23"/>
<polygon fill="green" stroke="green" stroke-width="0.15" points="235.75,-112.18 232.56,-102.08 228.75,-111.96 235.75,-112.18"/>
</g>
<!-- &#45;11 -->
<g id="node11" class="node">
<title>&#45;11</title>
<polygon fill="lightgray" stroke="black" points="335.5,-162.12 306.5,-162.12 306.5,-144.12 335.5,-144.12 335.5,-162.12"/>
<text text-anchor="middle" x="321" y="-150.92" font-family="Times New Roman,serif" font-size="9.00">&#45;11</text>
</g>
<!-- &#45;11&#45;&gt;1 -->
<g id="edge28" class="edge">
<title>&#45;11&#45;&gt;1</title>
<path fill="none" stroke="green" stroke-width="1.38" d="M320.75,-143.99C320.5,-136.01 320.11,-123.44 319.76,-112.23"/>
<polygon fill="green" stroke="green" stroke-width="1.38" points="323.25,-111.96 319.44,-102.08 316.25,-112.18 323.25,-111.96"/>
</g>
<!-- 395&#45;&gt;3 -->
<g id="edge30" class="edge">
<title>395&#45;&gt;3</title>
<path fill="none" stroke="red" stroke-width="0.37" stroke-dasharray="1,5" d="M469.27,-74.54C463.87,-71.39 457.82,-68.16 452,-65.7 400,-43.72 335.35,-28.23 300.7,-20.81"/>
<polygon fill="red" stroke="red" stroke-width="0.37" points="301.06,-17.31 290.55,-18.69 299.62,-24.16 301.06,-17.31"/>
</g>
<!-- 523&#45;&gt;3 -->
<g id="edge32" class="edge">
<title>523&#45;&gt;3</title>
<path fill="none" stroke="red" stroke-width="0.16" stroke-dasharray="1,5" d="M110.8,-74.72C116.21,-71.57 122.24,-68.3 128,-65.7 170.25,-46.61 222.09,-30.78 251.86,-22.37"/>
<polygon fill="red" stroke="red" stroke-width="0.16" points="253.07,-25.67 261.77,-19.62 251.2,-18.93 253.07,-25.67"/>
</g>
</g>
</svg>
