<?xml version="1.0" encoding="UTF-8" standalone="no"?>
<!DOCTYPE svg PUBLIC "-//W3C//DTD SVG 1.1//EN"
 "http://www.w3.org/Graphics/SVG/1.1/DTD/svg11.dtd">
<!-- Generated by graphviz version 2.47.1 (20210417.1919)
 -->
<!-- Pages: 1 -->
<svg width="1169pt" height="220pt"
 viewBox="0.00 0.00 1168.74 220.01" xmlns="http://www.w3.org/2000/svg" xmlns:xlink="http://www.w3.org/1999/xlink">
<g id="graph0" class="graph" transform="scale(1 1) rotate(0) translate(4 216.01)">
<polygon fill="white" stroke="transparent" points="-4,4 -4,-216.01 1164.74,-216.01 1164.74,4 -4,4"/>
<!-- &#45;1 -->
<g id="node1" class="node">
<title>&#45;1</title>
<polygon fill="lightgray" stroke="black" points="596.58,-102.28 572.58,-102.28 572.58,-84.28 596.58,-84.28 596.58,-102.28"/>
<text text-anchor="middle" x="584.58" y="-91.08" font-family="Times New Roman,serif" font-size="9.00">&#45;1</text>
</g>
<!-- 0 -->
<g id="node12" class="node">
<title>0</title>
<ellipse fill="lightblue" stroke="black" cx="536.58" cy="-14.85" rx="14.7" ry="14.7"/>
<text text-anchor="middle" x="536.58" y="-12.65" font-family="Times New Roman,serif" font-size="9.00">0</text>
</g>
<!-- &#45;1&#45;&gt;0 -->
<g id="edge1" class="edge">
<title>&#45;1&#45;&gt;0</title>
<path fill="none" stroke="green" stroke-width="1.59" d="M579.44,-84.1C572.32,-72.77 559.23,-51.92 549.38,-36.23"/>
<polygon fill="green" stroke="green" stroke-width="1.59" points="552.31,-34.31 544.02,-27.71 546.38,-38.04 552.31,-34.31"/>
</g>
<!-- 1 -->
<g id="node13" class="node">
<title>1</title>
<ellipse fill="lightblue" stroke="black" cx="584.58" cy="-14.85" rx="14.7" ry="14.7"/>
<text text-anchor="middle" x="584.58" y="-12.65" font-family="Times New Roman,serif" font-size="9.00">1</text>
</g>
<!-- &#45;1&#45;&gt;1 -->
<g id="edge2" class="edge">
<title>&#45;1&#45;&gt;1</title>
<path fill="none" stroke="green" stroke-width="0.59" stroke-dasharray="1,5" d="M584.58,-84.1C584.58,-73.69 584.58,-55.24 584.58,-40.15"/>
<polygon fill="green" stroke="green" stroke-width="0.59" points="588.08,-39.91 584.58,-29.91 581.08,-39.91 588.08,-39.91"/>
</g>
<!-- 2 -->
<g id="node14" class="node">
<title>2</title>
<ellipse fill="lightblue" stroke="black" cx="746.58" cy="-14.85" rx="14.7" ry="14.7"/>
<text text-anchor="middle" x="746.58" y="-12.65" font-family="Times New Roman,serif" font-size="9.00">2</text>
</g>
<!-- &#45;1&#45;&gt;2 -->
<g id="edge3" class="edge">
<title>&#45;1&#45;&gt;2</title>
<path fill="none" stroke="red" stroke-width="1.39" d="M589.32,-84.05C593.07,-78.2 598.79,-70.56 605.58,-65.7 641.5,-40 691.94,-26.44 721.74,-20.24"/>
<polygon fill="red" stroke="red" stroke-width="1.39" points="722.59,-23.64 731.72,-18.28 721.24,-16.77 722.59,-23.64"/>
</g>
<!-- 3 -->
<g id="node15" class="node">
<title>3</title>
<ellipse fill="lightblue" stroke="black" cx="794.58" cy="-14.85" rx="14.7" ry="14.7"/>
<text text-anchor="middle" x="794.58" y="-12.65" font-family="Times New Roman,serif" font-size="9.00">3</text>
</g>
<!-- &#45;1&#45;&gt;3 -->
<g id="edge4" class="edge">
<title>&#45;1&#45;&gt;3</title>
<path fill="none" stroke="red" stroke-width="0.85" d="M588.99,-84.04C592.65,-78.03 598.4,-70.19 605.58,-65.7 669.23,-25.93 700.57,-56.78 770.58,-29.7 771.44,-29.36 772.31,-29 773.18,-28.62"/>
<polygon fill="red" stroke="red" stroke-width="0.85" points="774.96,-31.64 782.24,-23.94 771.75,-25.42 774.96,-31.64"/>
</g>
<!-- &#45;2 -->
<g id="node2" class="node">
<title>&#45;2</title>
<polygon fill="lightgray" stroke="black" points="638.58,-102.28 614.58,-102.28 614.58,-84.28 638.58,-84.28 638.58,-102.28"/>
<text text-anchor="middle" x="626.58" y="-91.08" font-family="Times New Roman,serif" font-size="9.00">&#45;2</text>
</g>
<!-- &#45;2&#45;&gt;0 -->
<g id="edge5" class="edge">
<title>&#45;2&#45;&gt;0</title>
<path fill="none" stroke="green" stroke-width="0.47" d="M620.87,-83.88C616.92,-78.39 611.35,-71.23 605.58,-65.7 590.87,-51.61 572,-38.24 557.71,-28.91"/>
<polygon fill="green" stroke="green" stroke-width="0.47" points="559.39,-25.82 549.08,-23.38 555.62,-31.72 559.39,-25.82"/>
</g>
<!-- &#45;2&#45;&gt;1 -->
<g id="edge6" class="edge">
<title>&#45;2&#45;&gt;1</title>
<path fill="none" stroke="green" stroke-width="0.11" d="M622.08,-84.1C615.98,-73 604.87,-52.77 596.32,-37.21"/>
<polygon fill="green" stroke="green" stroke-width="0.11" points="599.27,-35.32 591.39,-28.25 593.14,-38.69 599.27,-35.32"/>
</g>
<!-- &#45;2&#45;&gt;2 -->
<g id="edge7" class="edge">
<title>&#45;2&#45;&gt;2</title>
<path fill="none" stroke="red" stroke-width="0.44" stroke-dasharray="1,5" d="M631.68,-84.06C635.52,-78.36 641.2,-70.9 647.58,-65.7 670.64,-46.88 701.98,-32.6 723.17,-24.25"/>
<polygon fill="red" stroke="red" stroke-width="0.44" points="724.58,-27.46 732.68,-20.63 722.09,-20.92 724.58,-27.46"/>
</g>
<!-- &#45;2&#45;&gt;3 -->
<g id="edge8" class="edge">
<title>&#45;2&#45;&gt;3</title>
<path fill="none" stroke="green" stroke-width="0.36" stroke-dasharray="1,5" d="M631.09,-84.18C634.79,-78.25 640.56,-70.43 647.58,-65.7 694.8,-33.85 718.2,-52.09 770.58,-29.7 771.43,-29.33 772.29,-28.95 773.15,-28.54"/>
<polygon fill="green" stroke="green" stroke-width="0.36" points="774.97,-31.54 782.16,-23.76 771.69,-25.35 774.97,-31.54"/>
</g>
<!-- &#45;3 -->
<g id="node3" class="node">
<title>&#45;3</title>
<polygon fill="lightgray" stroke="black" points="680.58,-102.28 656.58,-102.28 656.58,-84.28 680.58,-84.28 680.58,-102.28"/>
<text text-anchor="middle" x="668.58" y="-91.08" font-family="Times New Roman,serif" font-size="9.00">&#45;3</text>
</g>
<!-- &#45;3&#45;&gt;0 -->
<g id="edge9" class="edge">
<title>&#45;3&#45;&gt;0</title>
<path fill="none" stroke="red" stroke-width="0.44" stroke-dasharray="1,5" d="M663.6,-83.91C659.81,-78.15 654.15,-70.66 647.58,-65.7 614.19,-40.47 598.11,-48.2 560.58,-29.7 559.75,-29.29 558.91,-28.86 558.06,-28.43"/>
<polygon fill="red" stroke="red" stroke-width="0.44" points="559.56,-25.26 549.11,-23.5 556.18,-31.39 559.56,-25.26"/>
</g>
<!-- &#45;3&#45;&gt;1 -->
<g id="edge10" class="edge">
<title>&#45;3&#45;&gt;1</title>
<path fill="none" stroke="green" stroke-width="0.14" d="M662.79,-83.96C658.8,-78.5 653.23,-71.36 647.58,-65.7 634.28,-52.39 617.51,-39.27 604.61,-29.83"/>
<polygon fill="green" stroke="green" stroke-width="0.14" points="606.56,-26.92 596.39,-23.93 602.47,-32.61 606.56,-26.92"/>
</g>
<!-- &#45;3&#45;&gt;2 -->
<g id="edge11" class="edge">
<title>&#45;3&#45;&gt;2</title>
<path fill="none" stroke="green" stroke-width="0.11" stroke-dasharray="1,5" d="M674.46,-84.05C678.48,-78.63 684.06,-71.49 689.58,-65.7 701.27,-53.4 715.67,-40.83 727.07,-31.39"/>
<polygon fill="green" stroke="green" stroke-width="0.11" points="729.57,-33.87 735.1,-24.84 725.14,-28.44 729.57,-33.87"/>
</g>
<!-- &#45;3&#45;&gt;3 -->
<g id="edge12" class="edge">
<title>&#45;3&#45;&gt;3</title>
<path fill="none" stroke="red" stroke-width="0.18" d="M673.6,-83.96C677.4,-78.22 683.07,-70.75 689.58,-65.7 720.7,-41.54 735.47,-47.57 770.58,-29.7 771.4,-29.28 772.24,-28.84 773.08,-28.4"/>
<polygon fill="red" stroke="red" stroke-width="0.18" points="774.97,-31.35 782.01,-23.43 771.57,-25.23 774.97,-31.35"/>
</g>
<!-- &#45;4 -->
<g id="node4" class="node">
<title>&#45;4</title>
<polygon fill="lightgray" stroke="black" points="282.58,-193.43 258.58,-193.43 258.58,-175.43 282.58,-175.43 282.58,-193.43"/>
<text text-anchor="middle" x="270.58" y="-182.23" font-family="Times New Roman,serif" font-size="9.00">&#45;4</text>
</g>
<!-- &#45;4&#45;&gt;0 -->
<g id="edge13" class="edge">
<title>&#45;4&#45;&gt;0</title>
<path fill="none" stroke="red" stroke-width="0.11" stroke-dasharray="1,5" d="M258.41,-176.66C242.13,-166.82 213.99,-146.86 202.58,-120.85 192.73,-98.41 186.57,-84.27 202.58,-65.7 242.63,-19.22 440.45,-15.42 511.29,-15.58"/>
<polygon fill="red" stroke="red" stroke-width="0.11" points="511.51,-19.08 521.52,-15.63 511.54,-12.08 511.51,-19.08"/>
</g>
<!-- &#45;4&#45;&gt;1 -->
<g id="edge14" class="edge">
<title>&#45;4&#45;&gt;1</title>
<path fill="none" stroke="green" stroke-width="0.22" d="M270.86,-175.26C272.08,-153.55 278.63,-94.11 313.58,-65.7 399.65,4.29 455.77,-66.07 560.58,-29.7 561.45,-29.39 562.33,-29.06 563.21,-28.7"/>
<polygon fill="green" stroke="green" stroke-width="0.22" points="564.94,-31.74 572.3,-24.12 561.8,-25.49 564.94,-31.74"/>
</g>
<!-- &#45;4&#45;&gt;2 -->
<g id="edge15" class="edge">
<title>&#45;4&#45;&gt;2</title>
<path fill="none" stroke="green" stroke-width="0.34" stroke-dasharray="1,5" d="M282.82,-177.63C296.72,-171.34 320.24,-161.56 341.58,-156.85 393.16,-145.48 779.67,-159.59 815.58,-120.85 832.24,-102.88 826.74,-87.52 815.58,-65.7 810.37,-55.51 786.22,-39.41 767.95,-28.28"/>
<polygon fill="green" stroke="green" stroke-width="0.34" points="769.69,-25.24 759.31,-23.11 766.09,-31.25 769.69,-25.24"/>
</g>
<!-- &#45;4&#45;&gt;3 -->
<g id="edge16" class="edge">
<title>&#45;4&#45;&gt;3</title>
<path fill="none" stroke="red" stroke-width="0.49" stroke-dasharray="1,5" d="M282.82,-177.62C296.72,-171.31 320.23,-161.53 341.58,-156.85 395.23,-145.11 797.18,-161.08 834.58,-120.85 851.27,-102.9 842.71,-88.82 834.58,-65.7 830.14,-53.07 821,-41.27 812.57,-32.33"/>
<polygon fill="red" stroke="red" stroke-width="0.49" points="815.04,-29.84 805.49,-25.25 810.09,-34.79 815.04,-29.84"/>
</g>
<!-- 18543 -->
<g id="node20" class="node">
<title>18543</title>
<ellipse fill="white" stroke="black" cx="100.58" cy="-93.28" rx="27.65" ry="27.65"/>
<text text-anchor="middle" x="100.58" y="-91.08" font-family="Times New Roman,serif" font-size="9.00">18543</text>
</g>
<!-- &#45;4&#45;&gt;18543 -->
<g id="edge48" class="edge">
<title>&#45;4&#45;&gt;18543</title>
<path fill="none" stroke="red" stroke-width="0.14" d="M258.35,-178C235.31,-167.63 184.04,-144.01 142.58,-120.85 139.12,-118.92 135.55,-116.82 132.02,-114.69"/>
<polygon fill="red" stroke="red" stroke-width="0.14" points="133.75,-111.65 123.41,-109.36 130.07,-117.6 133.75,-111.65"/>
</g>
<!-- &#45;5 -->
<g id="node5" class="node">
<title>&#45;5</title>
<polygon fill="lightgray" stroke="black" points="722.58,-102.28 698.58,-102.28 698.58,-84.28 722.58,-84.28 722.58,-102.28"/>
<text text-anchor="middle" x="710.58" y="-91.08" font-family="Times New Roman,serif" font-size="9.00">&#45;5</text>
</g>
<!-- &#45;5&#45;&gt;0 -->
<g id="edge17" class="edge">
<title>&#45;5&#45;&gt;0</title>
<path fill="none" stroke="red" stroke-width="1.23" d="M706.08,-84.16C702.39,-78.21 696.63,-70.39 689.58,-65.7 640.02,-32.72 615.45,-52.76 560.58,-29.7 559.72,-29.34 558.86,-28.96 558,-28.55"/>
<polygon fill="red" stroke="red" stroke-width="1.23" points="559.45,-25.37 548.98,-23.8 556.19,-31.56 559.45,-25.37"/>
</g>
<!-- &#45;5&#45;&gt;1 -->
<g id="edge18" class="edge">
<title>&#45;5&#45;&gt;1</title>
<path fill="none" stroke="green" stroke-width="0.45" stroke-dasharray="1,5" d="M705.52,-84.01C701.69,-78.3 696.02,-70.83 689.58,-65.7 664.78,-45.94 630.87,-31.66 608.37,-23.57"/>
<polygon fill="green" stroke="green" stroke-width="0.45" points="609.22,-20.16 598.62,-20.2 606.93,-26.78 609.22,-20.16"/>
</g>
<!-- &#45;5&#45;&gt;2 -->
<g id="edge19" class="edge">
<title>&#45;5&#45;&gt;2</title>
<path fill="none" stroke="red" stroke-width="0.21" stroke-dasharray="1,5" d="M714.43,-84.1C719.58,-73.17 728.9,-53.38 736.18,-37.92"/>
<polygon fill="red" stroke="red" stroke-width="0.21" points="739.51,-39.06 740.61,-28.52 733.18,-36.07 739.51,-39.06"/>
</g>
<!-- &#45;5&#45;&gt;3 -->
<g id="edge20" class="edge">
<title>&#45;5&#45;&gt;3</title>
<path fill="none" stroke="green" stroke-width="0.41" d="M716.37,-83.96C720.35,-78.5 725.92,-71.36 731.58,-65.7 744.87,-52.39 761.65,-39.27 774.54,-29.83"/>
<polygon fill="green" stroke="green" stroke-width="0.41" points="776.68,-32.61 782.76,-23.93 772.6,-26.92 776.68,-32.61"/>
</g>
<!-- &#45;6 -->
<g id="node6" class="node">
<title>&#45;6</title>
<polygon fill="lightgray" stroke="black" points="764.58,-102.28 740.58,-102.28 740.58,-84.28 764.58,-84.28 764.58,-102.28"/>
<text text-anchor="middle" x="752.58" y="-91.08" font-family="Times New Roman,serif" font-size="9.00">&#45;6</text>
</g>
<!-- &#45;6&#45;&gt;0 -->
<g id="edge21" class="edge">
<title>&#45;6&#45;&gt;0</title>
<path fill="none" stroke="red" stroke-width="0.14" stroke-dasharray="1,5" d="M748.17,-84.03C744.52,-78.01 738.78,-70.16 731.58,-65.7 665.56,-24.79 633.11,-57.45 560.58,-29.7 559.71,-29.37 558.84,-29.01 557.97,-28.63"/>
<polygon fill="red" stroke="red" stroke-width="0.14" points="559.4,-25.43 548.91,-23.96 556.2,-31.65 559.4,-25.43"/>
</g>
<!-- &#45;6&#45;&gt;1 -->
<g id="edge22" class="edge">
<title>&#45;6&#45;&gt;1</title>
<path fill="none" stroke="green" stroke-width="0.63" stroke-dasharray="1,5" d="M748.01,-84.27C744.28,-78.38 738.5,-70.58 731.58,-65.7 693.56,-38.87 639.97,-25.56 609.09,-19.73"/>
<polygon fill="green" stroke="green" stroke-width="0.63" points="609.64,-16.27 599.18,-17.97 608.42,-23.17 609.64,-16.27"/>
</g>
<!-- &#45;6&#45;&gt;2 -->
<g id="edge23" class="edge">
<title>&#45;6&#45;&gt;2</title>
<path fill="none" stroke="green" stroke-width="1.56" d="M751.94,-84.1C751.12,-73.69 749.67,-55.24 748.48,-40.15"/>
<polygon fill="green" stroke="green" stroke-width="1.56" points="751.95,-39.61 747.68,-29.91 744.97,-40.15 751.95,-39.61"/>
</g>
<!-- &#45;6&#45;&gt;3 -->
<g id="edge24" class="edge">
<title>&#45;6&#45;&gt;3</title>
<path fill="none" stroke="red" stroke-width="0.33" stroke-dasharray="1,5" d="M757.07,-84.1C763.17,-73 774.29,-52.77 782.84,-37.21"/>
<polygon fill="red" stroke="red" stroke-width="0.33" points="786.02,-38.69 787.76,-28.25 779.88,-35.32 786.02,-38.69"/>
</g>
<!-- &#45;7 -->
<g id="node7" class="node">
<title>&#45;7</title>
<polygon fill="lightgray" stroke="black" points="1092.58,-193.43 1068.58,-193.43 1068.58,-175.43 1092.58,-175.43 1092.58,-193.43"/>
<text text-anchor="middle" x="1080.58" y="-182.23" font-family="Times New Roman,serif" font-size="9.00">&#45;7</text>
</g>
<!-- &#45;7&#45;&gt;0 -->
<g id="edge25" class="edge">
<title>&#45;7&#45;&gt;0</title>
<path fill="none" stroke="red" stroke-width="0.11" d="M1068.27,-180.83C1042.86,-175.56 982.64,-163.53 931.58,-156.85 884.04,-150.64 534.03,-156.14 501.58,-120.85 479.2,-96.52 502.7,-57.48 520.53,-34.48"/>
<polygon fill="red" stroke="red" stroke-width="0.11" points="523.4,-36.49 526.97,-26.51 517.96,-32.09 523.4,-36.49"/>
</g>
<!-- &#45;7&#45;&gt;1 -->
<g id="edge26" class="edge">
<title>&#45;7&#45;&gt;1</title>
<path fill="none" stroke="green" stroke-width="0.21" stroke-dasharray="1,5" d="M1068.27,-180.85C1042.85,-175.6 982.63,-163.61 931.58,-156.85 885.69,-150.78 547.86,-154.97 516.58,-120.85 500.01,-102.79 505.5,-87.56 516.58,-65.7 521.68,-55.64 545.29,-39.62 563.27,-28.47"/>
<polygon fill="green" stroke="green" stroke-width="0.21" points="565.31,-31.32 572.03,-23.14 561.67,-25.34 565.31,-31.32"/>
</g>
<!-- &#45;7&#45;&gt;2 -->
<g id="edge27" class="edge">
<title>&#45;7&#45;&gt;2</title>
<path fill="none" stroke="green" stroke-width="0.56" stroke-dasharray="1,5" d="M1087.9,-175.16C1105.57,-154.19 1146.99,-98.32 1117.58,-65.7 1065.66,-8.12 844.33,-53.6 770.58,-29.7 769.52,-29.36 768.47,-28.97 767.42,-28.54"/>
<polygon fill="green" stroke="green" stroke-width="0.56" points="768.83,-25.33 758.32,-23.94 765.67,-31.57 768.83,-25.33"/>
</g>
<!-- &#45;7&#45;&gt;3 -->
<g id="edge28" class="edge">
<title>&#45;7&#45;&gt;3</title>
<path fill="none" stroke="red" stroke-width="0.29" d="M1092.81,-176.92C1109.51,-167.25 1138.73,-147.34 1150.58,-120.85 1160.59,-98.48 1166.66,-84.19 1150.58,-65.7 1107.43,-16.09 894.18,-14.37 820.04,-15.32"/>
<polygon fill="red" stroke="red" stroke-width="0.29" points="819.7,-11.82 809.76,-15.48 819.81,-18.82 819.7,-11.82"/>
</g>
<!-- 14790 -->
<g id="node18" class="node">
<title>14790</title>
<ellipse fill="white" stroke="black" cx="1080.58" cy="-93.28" rx="27.65" ry="27.65"/>
<text text-anchor="middle" x="1080.58" y="-91.08" font-family="Times New Roman,serif" font-size="9.00">14790</text>
</g>
<!-- &#45;7&#45;&gt;14790 -->
<g id="edge47" class="edge">
<title>&#45;7&#45;&gt;14790</title>
<path fill="none" stroke="green" stroke-width="0.3" d="M1080.58,-175.2C1080.58,-165.23 1080.58,-147.75 1080.58,-131.58"/>
<polygon fill="green" stroke="green" stroke-width="0.3" points="1084.08,-131.24 1080.58,-121.24 1077.08,-131.24 1084.08,-131.24"/>
</g>
<!-- &#45;8 -->
<g id="node8" class="node">
<title>&#45;8</title>
<polygon fill="lightgray" stroke="black" points="922.58,-193.43 898.58,-193.43 898.58,-175.43 922.58,-175.43 922.58,-193.43"/>
<text text-anchor="middle" x="910.58" y="-182.23" font-family="Times New Roman,serif" font-size="9.00">&#45;8</text>
</g>
<!-- &#45;8&#45;&gt;0 -->
<g id="edge29" class="edge">
<title>&#45;8&#45;&gt;0</title>
<path fill="none" stroke="red" stroke-width="0.53" stroke-dasharray="1,5" d="M898.52,-183.08C818.61,-180.65 367.25,-165.01 327.58,-120.85 311.19,-102.62 312.39,-84.94 327.58,-65.7 350.3,-36.92 461.36,-22.95 511.69,-18.01"/>
<polygon fill="red" stroke="red" stroke-width="0.53" points="512.11,-21.49 521.73,-17.07 511.45,-14.52 512.11,-21.49"/>
</g>
<!-- &#45;8&#45;&gt;1 -->
<g id="edge30" class="edge">
<title>&#45;8&#45;&gt;1</title>
<path fill="none" stroke="red" stroke-width="0.54" d="M898.35,-183.67C834.32,-184.66 538.56,-185.62 482.58,-120.85 466.55,-102.31 469.37,-86.35 482.58,-65.7 503.15,-33.54 526.67,-47.26 560.58,-29.7 561.4,-29.27 562.23,-28.83 563.07,-28.38"/>
<polygon fill="red" stroke="red" stroke-width="0.54" points="564.97,-31.33 571.99,-23.4 561.56,-25.22 564.97,-31.33"/>
</g>
<!-- &#45;8&#45;&gt;2 -->
<g id="edge31" class="edge">
<title>&#45;8&#45;&gt;2</title>
<path fill="none" stroke="green" stroke-width="2.27" d="M911.49,-175.36C913.38,-154.38 915.41,-97.56 886.58,-65.7 850.36,-25.67 820.04,-51.32 770.58,-29.7 769.73,-29.33 768.87,-28.93 768.01,-28.52"/>
<polygon fill="green" stroke="green" stroke-width="2.27" points="769.48,-25.34 759.01,-23.72 766.19,-31.52 769.48,-25.34"/>
</g>
<!-- &#45;8&#45;&gt;3 -->
<g id="edge32" class="edge">
<title>&#45;8&#45;&gt;3</title>
<path fill="none" stroke="green" stroke-width="0.7" d="M922.75,-179.24C943.24,-171.45 984,-152.56 1000.58,-120.85 1011.93,-99.13 1015.74,-84.96 1000.58,-65.7 978.31,-37.4 869.71,-23.24 819.78,-18.13"/>
<polygon fill="green" stroke="green" stroke-width="0.7" points="819.81,-14.62 809.52,-17.13 819.13,-21.59 819.81,-14.62"/>
</g>
<!-- &#45;8&#45;&gt;14790 -->
<g id="edge45" class="edge">
<title>&#45;8&#45;&gt;14790</title>
<path fill="none" stroke="red" stroke-width="0.14" stroke-dasharray="1,5" d="M922.8,-178C945.85,-167.63 997.12,-144.01 1038.58,-120.85 1042.04,-118.92 1045.61,-116.82 1049.14,-114.69"/>
<polygon fill="red" stroke="red" stroke-width="0.14" points="1051.09,-117.6 1057.75,-109.36 1047.4,-111.65 1051.09,-117.6"/>
</g>
<!-- &#45;9 -->
<g id="node9" class="node">
<title>&#45;9</title>
<polygon fill="lightgray" stroke="black" points="806.58,-102.28 782.58,-102.28 782.58,-84.28 806.58,-84.28 806.58,-102.28"/>
<text text-anchor="middle" x="794.58" y="-91.08" font-family="Times New Roman,serif" font-size="9.00">&#45;9</text>
</g>
<!-- &#45;9&#45;&gt;0 -->
<g id="edge33" class="edge">
<title>&#45;9&#45;&gt;0</title>
<path fill="none" stroke="red" stroke-width="0.16" stroke-dasharray="1,5" d="M790.22,-83.94C786.6,-77.88 780.86,-70.01 773.58,-65.7 690.97,-16.77 650.92,-62.2 560.58,-29.7 559.71,-29.38 558.83,-29.04 557.95,-28.67"/>
<polygon fill="red" stroke="red" stroke-width="0.16" points="559.37,-25.47 548.87,-24.06 556.21,-31.71 559.37,-25.47"/>
</g>
<!-- &#45;9&#45;&gt;1 -->
<g id="edge34" class="edge">
<title>&#45;9&#45;&gt;1</title>
<path fill="none" stroke="red" stroke-width="0.45" stroke-dasharray="1,5" d="M790.1,-84.13C786.42,-78.17 780.66,-70.34 773.58,-65.7 721.91,-31.85 648.16,-20.93 609.85,-17.45"/>
<polygon fill="red" stroke="red" stroke-width="0.45" points="609.85,-13.94 599.6,-16.62 609.29,-20.92 609.85,-13.94"/>
</g>
<!-- &#45;9&#45;&gt;2 -->
<g id="edge35" class="edge">
<title>&#45;9&#45;&gt;2</title>
<path fill="none" stroke="green" stroke-width="0.31" d="M789.44,-84.1C782.32,-72.77 769.23,-51.92 759.38,-36.23"/>
<polygon fill="green" stroke="green" stroke-width="0.31" points="762.31,-34.31 754.02,-27.71 756.38,-38.04 762.31,-34.31"/>
</g>
<!-- &#45;9&#45;&gt;3 -->
<g id="edge36" class="edge">
<title>&#45;9&#45;&gt;3</title>
<path fill="none" stroke="green" stroke-width="0.23" d="M794.58,-84.1C794.58,-73.69 794.58,-55.24 794.58,-40.15"/>
<polygon fill="green" stroke="green" stroke-width="0.23" points="798.08,-39.91 794.58,-29.91 791.08,-39.91 798.08,-39.91"/>
</g>
<!-- &#45;10 -->
<g id="node10" class="node">
<title>&#45;10</title>
<polygon fill="lightgray" stroke="black" points="379.08,-193.43 350.08,-193.43 350.08,-175.43 379.08,-175.43 379.08,-193.43"/>
<text text-anchor="middle" x="364.58" y="-182.23" font-family="Times New Roman,serif" font-size="9.00">&#45;10</text>
</g>
<!-- &#45;10&#45;&gt;0 -->
<g id="edge37" class="edge">
<title>&#45;10&#45;&gt;0</title>
<path fill="none" stroke="green" stroke-width="2.73" d="M349.91,-178.19C314.43,-165.36 226.32,-132.59 218.58,-120.85 205.08,-100.39 202.64,-84.33 218.58,-65.7 256.34,-21.55 442.54,-16.23 511.14,-15.79"/>
<polygon fill="green" stroke="green" stroke-width="2.73" points="511.47,-19.29 521.46,-15.76 511.45,-12.29 511.47,-19.29"/>
</g>
<!-- &#45;10&#45;&gt;1 -->
<g id="edge38" class="edge">
<title>&#45;10&#45;&gt;1</title>
<path fill="none" stroke="red" stroke-width="0.42" stroke-dasharray="1,5" d="M357.35,-175.24C339.91,-154.48 298.99,-99.04 327.58,-65.7 361.68,-25.92 511.16,-47.09 560.58,-29.7 561.45,-29.39 562.33,-29.05 563.21,-28.69"/>
<polygon fill="red" stroke="red" stroke-width="0.42" points="564.94,-31.73 572.29,-24.1 561.79,-25.48 564.94,-31.73"/>
</g>
<!-- &#45;10&#45;&gt;2 -->
<g id="edge39" class="edge">
<title>&#45;10&#45;&gt;2</title>
<path fill="none" stroke="green" stroke-width="0.27" d="M379.28,-182.66C456.9,-178.47 816.66,-157.17 848.58,-120.85 864.76,-102.44 861.79,-86.35 848.58,-65.7 828,-33.54 804.48,-47.26 770.58,-29.7 769.75,-29.27 768.92,-28.83 768.08,-28.38"/>
<polygon fill="green" stroke="green" stroke-width="0.27" points="769.6,-25.22 759.16,-23.4 766.18,-31.33 769.6,-25.22"/>
</g>
<!-- &#45;10&#45;&gt;3 -->
<g id="edge40" class="edge">
<title>&#45;10&#45;&gt;3</title>
<path fill="none" stroke="red" stroke-width="0.11" stroke-dasharray="1,5" d="M379.13,-183.05C466.81,-180.58 922.19,-165.69 962.58,-120.85 978.98,-102.64 977.24,-85.34 962.58,-65.7 945.33,-42.6 861.56,-26.38 819.2,-19.52"/>
<polygon fill="red" stroke="red" stroke-width="0.11" points="819.58,-16.03 809.15,-17.94 818.49,-22.95 819.58,-16.03"/>
</g>
<!-- 21928 -->
<g id="node19" class="node">
<title>21928</title>
<ellipse fill="white" stroke="black" cx="364.58" cy="-93.28" rx="27.65" ry="27.65"/>
<text text-anchor="middle" x="364.58" y="-91.08" font-family="Times New Roman,serif" font-size="9.00">21928</text>
</g>
<!-- &#45;10&#45;&gt;21928 -->
<g id="edge51" class="edge">
<title>&#45;10&#45;&gt;21928</title>
<path fill="none" stroke="red" stroke-width="0.39" d="M364.58,-175.2C364.58,-165.23 364.58,-147.75 364.58,-131.58"/>
<polygon fill="red" stroke="red" stroke-width="0.39" points="368.08,-131.24 364.58,-121.24 361.08,-131.24 368.08,-131.24"/>
</g>
<!-- &#45;11 -->
<g id="node11" class="node">
<title>&#45;11</title>
<polygon fill="lightgray" stroke="black" points="554.08,-102.28 525.08,-102.28 525.08,-84.28 554.08,-84.28 554.08,-102.28"/>
<text text-anchor="middle" x="539.58" y="-91.08" font-family="Times New Roman,serif" font-size="9.00">&#45;11</text>
</g>
<!-- &#45;11&#45;&gt;0 -->
<g id="edge41" class="edge">
<title>&#45;11&#45;&gt;0</title>
<path fill="none" stroke="green" stroke-width="0.2" d="M539.26,-84.1C538.85,-73.69 538.12,-55.24 537.53,-40.15"/>
<polygon fill="green" stroke="green" stroke-width="0.2" points="541.02,-39.77 537.13,-29.91 534.02,-40.04 541.02,-39.77"/>
</g>
<!-- &#45;11&#45;&gt;1 -->
<g id="edge42" class="edge">
<title>&#45;11&#45;&gt;1</title>
<path fill="none" stroke="green" stroke-width="2.76" d="M544.39,-84.1C550.96,-72.94 562.97,-52.54 572.16,-36.94"/>
<polygon fill="green" stroke="green" stroke-width="2.76" points="575.38,-38.37 577.44,-27.98 569.35,-34.82 575.38,-38.37"/>
</g>
<!-- &#45;11&#45;&gt;2 -->
<g id="edge43" class="edge">
<title>&#45;11&#45;&gt;2</title>
<path fill="none" stroke="green" stroke-width="0.23" d="M544.96,-84.16C549.31,-78.21 555.95,-70.39 563.58,-65.7 614.17,-34.6 684.3,-22.58 721.33,-18.19"/>
<polygon fill="green" stroke="green" stroke-width="0.23" points="722.14,-21.62 731.7,-17.06 721.38,-14.66 722.14,-21.62"/>
</g>
<!-- &#45;11&#45;&gt;3 -->
<g id="edge44" class="edge">
<title>&#45;11&#45;&gt;3</title>
<path fill="none" stroke="green" stroke-width="0.17" stroke-dasharray="1,5" d="M544.84,-83.95C549.12,-77.89 555.74,-70.02 563.58,-65.7 645.34,-20.58 682.79,-61.52 770.58,-29.7 771.45,-29.38 772.32,-29.04 773.2,-28.67"/>
<polygon fill="green" stroke="green" stroke-width="0.17" points="774.95,-31.7 782.28,-24.05 771.78,-25.46 774.95,-31.7"/>
</g>
<!-- 21283 -->
<g id="node16" class="node">
<title>21283</title>
<ellipse fill="white" stroke="black" cx="27.58" cy="-93.28" rx="27.65" ry="27.65"/>
<text text-anchor="middle" x="27.58" y="-91.08" font-family="Times New Roman,serif" font-size="9.00">21283</text>
</g>
<!-- 21283&#45;&gt;0 -->
<g id="edge50" class="edge">
<title>21283&#45;&gt;0</title>
<path fill="none" stroke="red" stroke-width="0.11" stroke-dasharray="1,5" d="M48.17,-74.23C52.95,-70.88 58.22,-67.78 63.58,-65.7 146.72,-33.41 426.37,-20.12 511.67,-16.75"/>
<polygon fill="red" stroke="red" stroke-width="0.11" points="511.87,-20.25 521.73,-16.37 511.6,-13.25 511.87,-20.25"/>
</g>
<!-- 23618 -->
<g id="node17" class="node">
<title>23618</title>
<ellipse fill="white" stroke="black" cx="27.58" cy="-184.43" rx="27.65" ry="27.65"/>
<text text-anchor="middle" x="27.58" y="-182.23" font-family="Times New Roman,serif" font-size="9.00">23618</text>
</g>
<!-- 23618&#45;&gt;21283 -->
<g id="edge53" class="edge">
<title>23618&#45;&gt;21283</title>
<path fill="none" stroke="green" stroke-width="0.36" d="M27.58,-156.68C27.58,-148.66 27.58,-139.71 27.58,-131.16"/>
<polygon fill="green" stroke="green" stroke-width="0.36" points="31.08,-131.01 27.58,-121.01 24.08,-131.01 31.08,-131.01"/>
</g>
<!-- 14790&#45;&gt;3 -->
<g id="edge46" class="edge">
<title>14790&#45;&gt;3</title>
<path fill="none" stroke="green" stroke-width="0.17" stroke-dasharray="1,5" d="M1058.72,-76.35C1052.46,-72.38 1045.46,-68.47 1038.58,-65.7 962.25,-34.96 864.56,-22.37 819.45,-17.94"/>
<polygon fill="green" stroke="green" stroke-width="0.17" points="819.69,-14.45 809.41,-17 819.04,-21.42 819.69,-14.45"/>
</g>
<!-- 21928&#45;&gt;1 -->
<g id="edge52" class="edge">
<title>21928&#45;&gt;1</title>
<path fill="none" stroke="red" stroke-width="0.11" d="M386.49,-76.48C392.75,-72.51 399.73,-68.57 406.58,-65.7 471.4,-38.53 495.21,-55.54 560.58,-29.7 561.44,-29.36 562.31,-28.99 563.17,-28.6"/>
<polygon fill="red" stroke="red" stroke-width="0.11" points="564.96,-31.62 572.22,-23.9 561.73,-25.41 564.96,-31.62"/>
</g>
<!-- 18543&#45;&gt;0 -->
<g id="edge49" class="edge">
<title>18543&#45;&gt;0</title>
<path fill="none" stroke="red" stroke-width="0.37" d="M122.3,-76C128.56,-72.03 135.59,-68.21 142.58,-65.7 275.4,-17.96 447.74,-14.69 511.46,-15.3"/>
<polygon fill="red" stroke="red" stroke-width="0.37" points="511.69,-18.81 521.73,-15.44 511.78,-11.81 511.69,-18.81"/>
</g>
</g>
</svg>
