<?xml version="1.0" encoding="UTF-8" standalone="no"?>
<!DOCTYPE svg PUBLIC "-//W3C//DTD SVG 1.1//EN"
 "http://www.w3.org/Graphics/SVG/1.1/DTD/svg11.dtd">
<!-- Generated by graphviz version 2.47.1 (20210417.1919)
 -->
<!-- Pages: 1 -->
<svg width="611pt" height="328pt"
 viewBox="0.00 0.00 611.38 328.39" xmlns="http://www.w3.org/2000/svg" xmlns:xlink="http://www.w3.org/1999/xlink">
<g id="graph0" class="graph" transform="scale(1 1) rotate(0) translate(4 324.39)">
<polygon fill="white" stroke="transparent" points="-4,4 -4,-324.39 607.38,-324.39 607.38,4 -4,4"/>
<!-- &#45;1 -->
<g id="node1" class="node">
<title>&#45;1</title>
<polygon fill="lightgray" stroke="black" points="301.88,-254.18 277.88,-254.18 277.88,-236.18 301.88,-236.18 301.88,-254.18"/>
<text text-anchor="middle" x="289.88" y="-242.98" font-family="Times New Roman,serif" font-size="9.00">&#45;1</text>
</g>
<!-- 307 -->
<g id="node18" class="node">
<title>307</title>
<ellipse fill="white" stroke="black" cx="376.88" cy="-163.22" rx="21.43" ry="21.43"/>
<text text-anchor="middle" x="376.88" y="-161.02" font-family="Times New Roman,serif" font-size="9.00">307</text>
</g>
<!-- &#45;1&#45;&gt;307 -->
<g id="edge13" class="edge">
<title>&#45;1&#45;&gt;307</title>
<path fill="none" stroke="green" stroke-width="0.3" d="M298.86,-235.92C311.74,-224.09 335.88,-201.9 353.91,-185.33"/>
<polygon fill="green" stroke="green" stroke-width="0.3" points="356.71,-187.51 361.7,-178.17 351.97,-182.36 356.71,-187.51"/>
</g>
<!-- 22 -->
<g id="node19" class="node">
<title>22</title>
<ellipse fill="white" stroke="black" cx="239.88" cy="-84.08" rx="18.27" ry="18.27"/>
<text text-anchor="middle" x="239.88" y="-81.88" font-family="Times New Roman,serif" font-size="9.00">22</text>
</g>
<!-- &#45;1&#45;&gt;22 -->
<g id="edge1" class="edge">
<title>&#45;1&#45;&gt;22</title>
<path fill="none" stroke="green" stroke-width="0.3" stroke-dasharray="1,5" d="M288.83,-236.03C286.35,-218.03 279.39,-173.69 266.88,-138.47 263.41,-128.69 258.54,-118.42 253.89,-109.52"/>
<polygon fill="green" stroke="green" stroke-width="0.3" points="256.84,-107.63 249,-100.5 250.68,-110.96 256.84,-107.63"/>
</g>
<!-- &#45;2 -->
<g id="node2" class="node">
<title>&#45;2</title>
<polygon fill="lightgray" stroke="black" points="306.88,-93.08 282.88,-93.08 282.88,-75.08 306.88,-75.08 306.88,-93.08"/>
<text text-anchor="middle" x="294.88" y="-81.88" font-family="Times New Roman,serif" font-size="9.00">&#45;2</text>
</g>
<!-- 3 -->
<g id="node15" class="node">
<title>3</title>
<ellipse fill="lightblue" stroke="black" cx="294.88" cy="-14.85" rx="14.7" ry="14.7"/>
<text text-anchor="middle" x="294.88" y="-12.65" font-family="Times New Roman,serif" font-size="9.00">3</text>
</g>
<!-- &#45;2&#45;&gt;3 -->
<g id="edge27" class="edge">
<title>&#45;2&#45;&gt;3</title>
<path fill="none" stroke="green" stroke-width="0.3" d="M294.88,-74.84C294.88,-66.16 294.88,-52.09 294.88,-39.86"/>
<polygon fill="green" stroke="green" stroke-width="0.3" points="298.38,-39.78 294.88,-29.78 291.38,-39.78 298.38,-39.78"/>
</g>
<!-- &#45;3 -->
<g id="node3" class="node">
<title>&#45;3</title>
<polygon fill="lightgray" stroke="black" points="219.88,-254.18 195.88,-254.18 195.88,-236.18 219.88,-236.18 219.88,-254.18"/>
<text text-anchor="middle" x="207.88" y="-242.98" font-family="Times New Roman,serif" font-size="9.00">&#45;3</text>
</g>
<!-- 1103 -->
<g id="node17" class="node">
<title>1103</title>
<ellipse fill="white" stroke="black" cx="232.88" cy="-163.22" rx="25" ry="25"/>
<text text-anchor="middle" x="232.88" y="-161.02" font-family="Times New Roman,serif" font-size="9.00">1103</text>
</g>
<!-- &#45;3&#45;&gt;1103 -->
<g id="edge25" class="edge">
<title>&#45;3&#45;&gt;1103</title>
<path fill="none" stroke="green" stroke-width="0.3" d="M210.46,-235.92C213.36,-226.65 218.25,-211.02 222.72,-196.72"/>
<polygon fill="green" stroke="green" stroke-width="0.3" points="226.08,-197.71 225.72,-187.13 219.39,-195.63 226.08,-197.71"/>
</g>
<!-- &#45;3&#45;&gt;22 -->
<g id="edge2" class="edge">
<title>&#45;3&#45;&gt;22</title>
<path fill="none" stroke="green" stroke-width="0.3" stroke-dasharray="1,5" d="M204.99,-235.95C199.07,-217.8 187.09,-173.17 198.88,-138.47 203.13,-125.97 211.6,-114.11 219.75,-104.76"/>
<polygon fill="green" stroke="green" stroke-width="0.3" points="222.49,-106.95 226.72,-97.23 217.36,-102.2 222.49,-106.95"/>
</g>
<!-- &#45;4 -->
<g id="node4" class="node">
<title>&#45;4</title>
<polygon fill="lightgray" stroke="black" points="513.88,-320.39 489.88,-320.39 489.88,-302.39 513.88,-302.39 513.88,-320.39"/>
<text text-anchor="middle" x="501.88" y="-309.19" font-family="Times New Roman,serif" font-size="9.00">&#45;4</text>
</g>
<!-- 1 -->
<g id="node13" class="node">
<title>1</title>
<ellipse fill="lightblue" stroke="black" cx="463.88" cy="-14.85" rx="14.7" ry="14.7"/>
<text text-anchor="middle" x="463.88" y="-12.65" font-family="Times New Roman,serif" font-size="9.00">1</text>
</g>
<!-- &#45;4&#45;&gt;1 -->
<g id="edge24" class="edge">
<title>&#45;4&#45;&gt;1</title>
<path fill="none" stroke="green" stroke-width="0.3" d="M502.29,-302.27C502.96,-286.94 504.05,-252.69 501.88,-223.97 496.53,-153.02 492.86,-135.25 477.88,-65.7 475.99,-56.92 473.45,-47.41 471.04,-39.07"/>
<polygon fill="green" stroke="green" stroke-width="0.3" points="474.34,-37.87 468.14,-29.28 467.63,-39.86 474.34,-37.87"/>
</g>
<!-- &#45;4&#45;&gt;22 -->
<g id="edge3" class="edge">
<title>&#45;4&#45;&gt;22</title>
<path fill="none" stroke="green" stroke-width="0.3" d="M500.92,-302.03C497.24,-274.1 481.45,-183.32 427.88,-138.47 373.98,-93.35 339.88,-126.65 273.88,-102.47 270.77,-101.33 267.57,-99.97 264.45,-98.52"/>
<polygon fill="green" stroke="green" stroke-width="0.3" points="265.95,-95.36 255.44,-94.04 262.83,-101.63 265.95,-95.36"/>
</g>
<!-- 470 -->
<g id="node20" class="node">
<title>470</title>
<ellipse fill="white" stroke="black" cx="414.88" cy="-245.18" rx="21.43" ry="21.43"/>
<text text-anchor="middle" x="414.88" y="-242.98" font-family="Times New Roman,serif" font-size="9.00">470</text>
</g>
<!-- &#45;4&#45;&gt;470 -->
<g id="edge15" class="edge">
<title>&#45;4&#45;&gt;470</title>
<path fill="none" stroke="green" stroke-width="0.3" d="M490.86,-302.26C478.17,-292.89 456.9,-277.19 440.09,-264.79"/>
<polygon fill="green" stroke="green" stroke-width="0.3" points="441.9,-261.77 431.78,-258.65 437.74,-267.4 441.9,-261.77"/>
</g>
<!-- &#45;5 -->
<g id="node5" class="node">
<title>&#45;5</title>
<polygon fill="lightgray" stroke="black" points="337.88,-172.22 313.88,-172.22 313.88,-154.22 337.88,-154.22 337.88,-172.22"/>
<text text-anchor="middle" x="325.88" y="-161.02" font-family="Times New Roman,serif" font-size="9.00">&#45;5</text>
</g>
<!-- &#45;5&#45;&gt;22 -->
<g id="edge4" class="edge">
<title>&#45;5&#45;&gt;22</title>
<path fill="none" stroke="green" stroke-width="0.3" d="M316.76,-153.83C311.79,-149.27 305.51,-143.54 299.88,-138.47 287.05,-126.9 272.58,-114.02 261.07,-103.81"/>
<polygon fill="green" stroke="green" stroke-width="0.3" points="263.08,-100.92 253.27,-96.91 258.44,-106.16 263.08,-100.92"/>
</g>
<!-- &#45;6 -->
<g id="node6" class="node">
<title>&#45;6</title>
<polygon fill="lightgray" stroke="black" points="357.88,-320.39 333.88,-320.39 333.88,-302.39 357.88,-302.39 357.88,-320.39"/>
<text text-anchor="middle" x="345.88" y="-309.19" font-family="Times New Roman,serif" font-size="9.00">&#45;6</text>
</g>
<!-- &#45;6&#45;&gt;1 -->
<g id="edge21" class="edge">
<title>&#45;6&#45;&gt;1</title>
<path fill="none" stroke="green" stroke-width="0.3" stroke-dasharray="1,5" d="M358.12,-308.95C379.73,-305.69 424.29,-295.6 444.88,-266.39 470.22,-230.45 467.43,-95.73 465.1,-40.1"/>
<polygon fill="green" stroke="green" stroke-width="0.3" points="468.59,-39.62 464.64,-29.79 461.59,-39.94 468.59,-39.62"/>
</g>
<!-- 545 -->
<g id="node16" class="node">
<title>545</title>
<ellipse fill="white" stroke="black" cx="345.88" cy="-245.18" rx="21.43" ry="21.43"/>
<text text-anchor="middle" x="345.88" y="-242.98" font-family="Times New Roman,serif" font-size="9.00">545</text>
</g>
<!-- &#45;6&#45;&gt;545 -->
<g id="edge22" class="edge">
<title>&#45;6&#45;&gt;545</title>
<path fill="none" stroke="green" stroke-width="0.3" d="M345.88,-302.26C345.88,-295.72 345.88,-286.09 345.88,-276.65"/>
<polygon fill="green" stroke="green" stroke-width="0.3" points="349.38,-276.63 345.88,-266.63 342.38,-276.63 349.38,-276.63"/>
</g>
<!-- &#45;6&#45;&gt;22 -->
<g id="edge5" class="edge">
<title>&#45;6&#45;&gt;22</title>
<path fill="none" stroke="green" stroke-width="0.3" d="M333.6,-308.9C299.51,-304.47 205,-290.21 186.88,-266.39 178.19,-254.97 174.47,-173.24 188.88,-138.47 194.83,-124.13 206.56,-111.4 217.28,-101.98"/>
<polygon fill="green" stroke="green" stroke-width="0.3" points="219.7,-104.52 225.16,-95.45 215.23,-99.13 219.7,-104.52"/>
</g>
<!-- &#45;7 -->
<g id="node7" class="node">
<title>&#45;7</title>
<polygon fill="lightgray" stroke="black" points="71.88,-172.22 47.88,-172.22 47.88,-154.22 71.88,-154.22 71.88,-172.22"/>
<text text-anchor="middle" x="59.88" y="-161.02" font-family="Times New Roman,serif" font-size="9.00">&#45;7</text>
</g>
<!-- &#45;7&#45;&gt;22 -->
<g id="edge6" class="edge">
<title>&#45;7&#45;&gt;22</title>
<path fill="none" stroke="green" stroke-width="0.3" d="M65.29,-154.18C69.11,-149.05 74.64,-142.6 80.88,-138.47 122.05,-111.18 178.48,-96.61 211.86,-89.89"/>
<polygon fill="green" stroke="green" stroke-width="0.3" points="212.68,-93.3 221.84,-87.98 211.36,-86.42 212.68,-93.3"/>
</g>
<!-- &#45;8 -->
<g id="node8" class="node">
<title>&#45;8</title>
<polygon fill="lightgray" stroke="black" points="555.88,-320.39 531.88,-320.39 531.88,-302.39 555.88,-302.39 555.88,-320.39"/>
<text text-anchor="middle" x="543.88" y="-309.19" font-family="Times New Roman,serif" font-size="9.00">&#45;8</text>
</g>
<!-- &#45;9 -->
<g id="node9" class="node">
<title>&#45;9</title>
<polygon fill="lightgray" stroke="black" points="113.88,-172.22 89.88,-172.22 89.88,-154.22 113.88,-154.22 113.88,-172.22"/>
<text text-anchor="middle" x="101.88" y="-161.02" font-family="Times New Roman,serif" font-size="9.00">&#45;9</text>
</g>
<!-- &#45;9&#45;&gt;22 -->
<g id="edge7" class="edge">
<title>&#45;9&#45;&gt;22</title>
<path fill="none" stroke="green" stroke-width="0.3" d="M109.56,-154.07C114.48,-149.15 121.19,-142.97 127.88,-138.47 155.24,-120.05 189.94,-104.56 213.41,-95.09"/>
<polygon fill="green" stroke="green" stroke-width="0.3" points="214.72,-98.34 222.73,-91.41 212.14,-91.83 214.72,-98.34"/>
</g>
<!-- &#45;10 -->
<g id="node10" class="node">
<title>&#45;10</title>
<polygon fill="lightgray" stroke="black" points="34.38,-320.39 5.38,-320.39 5.38,-302.39 34.38,-302.39 34.38,-320.39"/>
<text text-anchor="middle" x="19.88" y="-309.19" font-family="Times New Roman,serif" font-size="9.00">&#45;10</text>
</g>
<!-- 0 -->
<g id="node12" class="node">
<title>0</title>
<ellipse fill="lightblue" stroke="black" cx="90.88" cy="-14.85" rx="14.7" ry="14.7"/>
<text text-anchor="middle" x="90.88" y="-12.65" font-family="Times New Roman,serif" font-size="9.00">0</text>
</g>
<!-- &#45;10&#45;&gt;0 -->
<g id="edge18" class="edge">
<title>&#45;10&#45;&gt;0</title>
<path fill="none" stroke="green" stroke-width="0.3" stroke-dasharray="1,5" d="M16.66,-302.12C13.44,-293.39 8.73,-279.16 6.88,-266.39 -1.27,-210.06 -4.93,-192.53 12.88,-138.47 26.25,-97.88 56.07,-57.33 74.72,-34.53"/>
<polygon fill="green" stroke="green" stroke-width="0.3" points="77.54,-36.62 81.27,-26.7 72.17,-32.13 77.54,-36.62"/>
</g>
<!-- &#45;10&#45;&gt;545 -->
<g id="edge19" class="edge">
<title>&#45;10&#45;&gt;545</title>
<path fill="none" stroke="green" stroke-width="0.3" d="M34.57,-310.09C78.05,-308.78 209.37,-301.95 310.88,-266.39 313.83,-265.36 316.82,-264.07 319.73,-262.65"/>
<polygon fill="green" stroke="green" stroke-width="0.3" points="321.56,-265.64 328.69,-257.81 318.23,-259.48 321.56,-265.64"/>
</g>
<!-- &#45;10&#45;&gt;22 -->
<g id="edge8" class="edge">
<title>&#45;10&#45;&gt;22</title>
<path fill="none" stroke="green" stroke-width="0.3" d="M17.95,-302.34C11.99,-275.41 -3.23,-187.4 38.88,-138.47 61.32,-112.4 161.69,-95.56 211.56,-88.66"/>
<polygon fill="green" stroke="green" stroke-width="0.3" points="212.23,-92.1 221.67,-87.3 211.3,-85.16 212.23,-92.1"/>
</g>
<!-- &#45;11 -->
<g id="node11" class="node">
<title>&#45;11</title>
<polygon fill="lightgray" stroke="black" points="603.38,-320.39 574.38,-320.39 574.38,-302.39 603.38,-302.39 603.38,-320.39"/>
<text text-anchor="middle" x="588.88" y="-309.19" font-family="Times New Roman,serif" font-size="9.00">&#45;11</text>
</g>
<!-- 2 -->
<g id="node14" class="node">
<title>2</title>
<ellipse fill="lightblue" stroke="black" cx="239.88" cy="-14.85" rx="14.7" ry="14.7"/>
<text text-anchor="middle" x="239.88" y="-12.65" font-family="Times New Roman,serif" font-size="9.00">2</text>
</g>
<!-- 545&#45;&gt;307 -->
<g id="edge23" class="edge">
<title>545&#45;&gt;307</title>
<path fill="none" stroke="green" stroke-width="0.3" d="M353.23,-225.23C356.98,-215.54 361.63,-203.55 365.81,-192.77"/>
<polygon fill="green" stroke="green" stroke-width="0.3" points="369.13,-193.9 369.48,-183.31 362.6,-191.37 369.13,-193.9"/>
</g>
<!-- 1103&#45;&gt;22 -->
<g id="edge26" class="edge">
<title>1103&#45;&gt;22</title>
<path fill="none" stroke="green" stroke-width="0.3" d="M235.06,-138.23C235.79,-130.15 236.62,-121.06 237.37,-112.72"/>
<polygon fill="green" stroke="green" stroke-width="0.3" points="240.87,-112.95 238.28,-102.68 233.89,-112.32 240.87,-112.95"/>
</g>
<!-- 307&#45;&gt;3 -->
<g id="edge20" class="edge">
<title>307&#45;&gt;3</title>
<path fill="none" stroke="green" stroke-width="0.3" d="M366.83,-144.27C351.69,-117.25 323.09,-66.21 306.88,-37.27"/>
<polygon fill="green" stroke="green" stroke-width="0.3" points="309.84,-35.39 301.9,-28.38 303.73,-38.81 309.84,-35.39"/>
</g>
<!-- 307&#45;&gt;22 -->
<g id="edge14" class="edge">
<title>307&#45;&gt;22</title>
<path fill="none" stroke="green" stroke-width="0.3" d="M361.15,-148.75C356.68,-145.2 351.71,-141.52 346.88,-138.47 316.31,-119.13 306.21,-118.7 273.88,-102.47 271.07,-101.06 268.13,-99.57 265.21,-98.09"/>
<polygon fill="green" stroke="green" stroke-width="0.3" points="266.61,-94.87 256.11,-93.44 263.43,-101.11 266.61,-94.87"/>
</g>
<!-- 22&#45;&gt;0 -->
<g id="edge9" class="edge">
<title>22&#45;&gt;0</title>
<path fill="none" stroke="green" stroke-width="0.3" stroke-dasharray="1,5" d="M223.37,-75.63C196.68,-63.59 144.02,-39.83 113.75,-26.17"/>
<polygon fill="green" stroke="green" stroke-width="0.3" points="114.96,-22.88 104.41,-21.95 112.08,-29.26 114.96,-22.88"/>
</g>
<!-- 22&#45;&gt;1 -->
<g id="edge10" class="edge">
<title>22&#45;&gt;1</title>
<path fill="none" stroke="green" stroke-width="0.3" d="M255.47,-74.22C261.14,-71.23 267.69,-68.06 273.88,-65.7 331.59,-43.67 402.75,-27.86 439.44,-20.5"/>
<polygon fill="green" stroke="green" stroke-width="0.3" points="440.11,-23.93 449.25,-18.56 438.76,-17.06 440.11,-23.93"/>
</g>
<!-- 22&#45;&gt;2 -->
<g id="edge11" class="edge">
<title>22&#45;&gt;2</title>
<path fill="none" stroke="green" stroke-width="0.3" stroke-dasharray="1,5" d="M239.88,-65.42C239.88,-57.74 239.88,-48.61 239.88,-40.29"/>
<polygon fill="green" stroke="green" stroke-width="0.3" points="243.38,-40.01 239.88,-30.01 236.38,-40.01 243.38,-40.01"/>
</g>
<!-- 22&#45;&gt;3 -->
<g id="edge12" class="edge">
<title>22&#45;&gt;3</title>
<path fill="none" stroke="green" stroke-width="0.3" d="M251.28,-69.15C259.4,-59.22 270.42,-45.75 279.35,-34.84"/>
<polygon fill="green" stroke="green" stroke-width="0.3" points="282.06,-37.05 285.69,-27.09 276.64,-32.61 282.06,-37.05"/>
</g>
<!-- 470&#45;&gt;307 -->
<g id="edge17" class="edge">
<title>470&#45;&gt;307</title>
<path fill="none" stroke="green" stroke-width="0.3" d="M406.07,-225.63C401.32,-215.64 395.37,-203.11 390.08,-191.98"/>
<polygon fill="green" stroke="green" stroke-width="0.3" points="393.1,-190.19 385.65,-182.66 386.78,-193.2 393.1,-190.19"/>
</g>
<!-- 470&#45;&gt;22 -->
<g id="edge16" class="edge">
<title>470&#45;&gt;22</title>
<path fill="none" stroke="green" stroke-width="0.3" stroke-dasharray="1,5" d="M419.61,-224.16C423.84,-200.83 426.7,-162.44 406.88,-138.47 367.85,-91.28 331.01,-124.53 273.88,-102.47 270.79,-101.27 267.61,-99.88 264.49,-98.42"/>
<polygon fill="green" stroke="green" stroke-width="0.3" points="265.99,-95.26 255.48,-93.92 262.87,-101.52 265.99,-95.26"/>
</g>
</g>
</svg>
