<?xml version="1.0" encoding="UTF-8" standalone="no"?>
<!DOCTYPE svg PUBLIC "-//W3C//DTD SVG 1.1//EN"
 "http://www.w3.org/Graphics/SVG/1.1/DTD/svg11.dtd">
<!-- Generated by graphviz version 2.47.1 (20210417.1919)
 -->
<!-- Pages: 1 -->
<svg width="463pt" height="170pt"
 viewBox="0.00 0.00 462.50 170.12" xmlns="http://www.w3.org/2000/svg" xmlns:xlink="http://www.w3.org/1999/xlink">
<g id="graph0" class="graph" transform="scale(1 1) rotate(0) translate(4 166.12)">
<polygon fill="white" stroke="transparent" points="-4,4 -4,-166.12 458.5,-166.12 458.5,4 -4,4"/>
<!-- &#45;1 -->
<g id="node1" class="node">
<title>&#45;1</title>
<polygon fill="lightgray" stroke="black" points="24,-162.12 0,-162.12 0,-144.12 24,-144.12 24,-162.12"/>
<text text-anchor="middle" x="12" y="-150.92" font-family="Times New Roman,serif" font-size="9.00">&#45;1</text>
</g>
<!-- 145 -->
<g id="node16" class="node">
<title>145</title>
<ellipse fill="white" stroke="black" cx="222" cy="-86.91" rx="21.43" ry="21.43"/>
<text text-anchor="middle" x="222" y="-84.71" font-family="Times New Roman,serif" font-size="9.00">145</text>
</g>
<!-- &#45;1&#45;&gt;145 -->
<g id="edge1" class="edge">
<title>&#45;1&#45;&gt;145</title>
<path fill="none" stroke="green" stroke-width="0.3" d="M24.38,-147.23C27.2,-146.17 30.19,-145.08 33,-144.12 88.57,-125.31 154.44,-106.49 191.92,-96.11"/>
<polygon fill="green" stroke="green" stroke-width="0.3" points="192.99,-99.44 201.7,-93.41 191.13,-92.69 192.99,-99.44"/>
</g>
<!-- &#45;2 -->
<g id="node2" class="node">
<title>&#45;2</title>
<polygon fill="lightgray" stroke="black" points="66,-162.12 42,-162.12 42,-144.12 66,-144.12 66,-162.12"/>
<text text-anchor="middle" x="54" y="-150.92" font-family="Times New Roman,serif" font-size="9.00">&#45;2</text>
</g>
<!-- &#45;2&#45;&gt;145 -->
<g id="edge2" class="edge">
<title>&#45;2&#45;&gt;145</title>
<path fill="none" stroke="green" stroke-width="0.3" d="M66.08,-147.51C92.35,-137.47 155.31,-113.4 192.69,-99.11"/>
<polygon fill="green" stroke="green" stroke-width="0.3" points="194.42,-102.2 202.51,-95.36 191.92,-95.66 194.42,-102.2"/>
</g>
<!-- &#45;3 -->
<g id="node3" class="node">
<title>&#45;3</title>
<polygon fill="lightgray" stroke="black" points="108,-162.12 84,-162.12 84,-144.12 108,-144.12 108,-162.12"/>
<text text-anchor="middle" x="96" y="-150.92" font-family="Times New Roman,serif" font-size="9.00">&#45;3</text>
</g>
<!-- &#45;3&#45;&gt;145 -->
<g id="edge3" class="edge">
<title>&#45;3&#45;&gt;145</title>
<path fill="none" stroke="green" stroke-width="0.3" d="M108.08,-145.97C127.81,-135.92 167.42,-115.73 194.33,-102.01"/>
<polygon fill="green" stroke="green" stroke-width="0.3" points="195.95,-105.12 203.27,-97.46 192.77,-98.88 195.95,-105.12"/>
</g>
<!-- &#45;4 -->
<g id="node4" class="node">
<title>&#45;4</title>
<polygon fill="lightgray" stroke="black" points="150,-162.12 126,-162.12 126,-144.12 150,-144.12 150,-162.12"/>
<text text-anchor="middle" x="138" y="-150.92" font-family="Times New Roman,serif" font-size="9.00">&#45;4</text>
</g>
<!-- &#45;4&#45;&gt;145 -->
<g id="edge4" class="edge">
<title>&#45;4&#45;&gt;145</title>
<path fill="none" stroke="green" stroke-width="0.3" d="M148.64,-143.99C160.82,-134.68 181.18,-119.12 197.36,-106.75"/>
<polygon fill="green" stroke="green" stroke-width="0.3" points="199.56,-109.47 205.38,-100.62 195.31,-103.91 199.56,-109.47"/>
</g>
<!-- &#45;5 -->
<g id="node5" class="node">
<title>&#45;5</title>
<polygon fill="lightgray" stroke="black" points="192,-162.12 168,-162.12 168,-144.12 192,-144.12 192,-162.12"/>
<text text-anchor="middle" x="180" y="-150.92" font-family="Times New Roman,serif" font-size="9.00">&#45;5</text>
</g>
<!-- &#45;5&#45;&gt;145 -->
<g id="edge5" class="edge">
<title>&#45;5&#45;&gt;145</title>
<path fill="none" stroke="green" stroke-width="0.3" d="M185.32,-143.99C190.34,-136.32 198.12,-124.41 205.24,-113.54"/>
<polygon fill="green" stroke="green" stroke-width="0.3" points="208.19,-115.43 210.73,-105.14 202.33,-111.59 208.19,-115.43"/>
</g>
<!-- &#45;6 -->
<g id="node6" class="node">
<title>&#45;6</title>
<polygon fill="lightgray" stroke="black" points="234,-162.12 210,-162.12 210,-144.12 234,-144.12 234,-162.12"/>
<text text-anchor="middle" x="222" y="-150.92" font-family="Times New Roman,serif" font-size="9.00">&#45;6</text>
</g>
<!-- &#45;6&#45;&gt;145 -->
<g id="edge6" class="edge">
<title>&#45;6&#45;&gt;145</title>
<path fill="none" stroke="green" stroke-width="0.3" d="M222,-143.99C222,-137.45 222,-127.82 222,-118.38"/>
<polygon fill="green" stroke="green" stroke-width="0.3" points="225.5,-118.37 222,-108.37 218.5,-118.37 225.5,-118.37"/>
</g>
<!-- &#45;7 -->
<g id="node7" class="node">
<title>&#45;7</title>
<polygon fill="lightgray" stroke="black" points="276,-162.12 252,-162.12 252,-144.12 276,-144.12 276,-162.12"/>
<text text-anchor="middle" x="264" y="-150.92" font-family="Times New Roman,serif" font-size="9.00">&#45;7</text>
</g>
<!-- &#45;7&#45;&gt;145 -->
<g id="edge7" class="edge">
<title>&#45;7&#45;&gt;145</title>
<path fill="none" stroke="green" stroke-width="0.3" d="M258.68,-143.99C253.66,-136.32 245.88,-124.41 238.76,-113.54"/>
<polygon fill="green" stroke="green" stroke-width="0.3" points="241.67,-111.59 233.27,-105.14 235.81,-115.43 241.67,-111.59"/>
</g>
<!-- &#45;8 -->
<g id="node8" class="node">
<title>&#45;8</title>
<polygon fill="lightgray" stroke="black" points="318,-162.12 294,-162.12 294,-144.12 318,-144.12 318,-162.12"/>
<text text-anchor="middle" x="306" y="-150.92" font-family="Times New Roman,serif" font-size="9.00">&#45;8</text>
</g>
<!-- &#45;8&#45;&gt;145 -->
<g id="edge8" class="edge">
<title>&#45;8&#45;&gt;145</title>
<path fill="none" stroke="green" stroke-width="0.3" d="M295.36,-143.99C283.18,-134.68 262.82,-119.12 246.64,-106.75"/>
<polygon fill="green" stroke="green" stroke-width="0.3" points="248.69,-103.91 238.62,-100.62 244.44,-109.47 248.69,-103.91"/>
</g>
<!-- &#45;9 -->
<g id="node9" class="node">
<title>&#45;9</title>
<polygon fill="lightgray" stroke="black" points="360,-162.12 336,-162.12 336,-144.12 360,-144.12 360,-162.12"/>
<text text-anchor="middle" x="348" y="-150.92" font-family="Times New Roman,serif" font-size="9.00">&#45;9</text>
</g>
<!-- &#45;9&#45;&gt;145 -->
<g id="edge9" class="edge">
<title>&#45;9&#45;&gt;145</title>
<path fill="none" stroke="green" stroke-width="0.3" d="M335.92,-145.97C316.19,-135.92 276.58,-115.73 249.67,-102.01"/>
<polygon fill="green" stroke="green" stroke-width="0.3" points="251.23,-98.88 240.73,-97.46 248.05,-105.12 251.23,-98.88"/>
</g>
<!-- &#45;10 -->
<g id="node10" class="node">
<title>&#45;10</title>
<polygon fill="lightgray" stroke="black" points="407.5,-162.12 378.5,-162.12 378.5,-144.12 407.5,-144.12 407.5,-162.12"/>
<text text-anchor="middle" x="393" y="-150.92" font-family="Times New Roman,serif" font-size="9.00">&#45;10</text>
</g>
<!-- &#45;10&#45;&gt;145 -->
<g id="edge10" class="edge">
<title>&#45;10&#45;&gt;145</title>
<path fill="none" stroke="green" stroke-width="0.3" d="M378.42,-146.65C350.37,-136.12 288.39,-112.84 251.42,-98.96"/>
<polygon fill="green" stroke="green" stroke-width="0.3" points="252.3,-95.55 241.71,-95.31 249.84,-102.11 252.3,-95.55"/>
</g>
<!-- &#45;11 -->
<g id="node11" class="node">
<title>&#45;11</title>
<polygon fill="lightgray" stroke="black" points="454.5,-162.12 425.5,-162.12 425.5,-144.12 454.5,-144.12 454.5,-162.12"/>
<text text-anchor="middle" x="440" y="-150.92" font-family="Times New Roman,serif" font-size="9.00">&#45;11</text>
</g>
<!-- &#45;11&#45;&gt;145 -->
<g id="edge11" class="edge">
<title>&#45;11&#45;&gt;145</title>
<path fill="none" stroke="green" stroke-width="0.3" d="M425.44,-146.93C422.65,-145.97 419.74,-145 417,-144.12 359.14,-125.74 290.83,-106.64 252.35,-96.11"/>
<polygon fill="green" stroke="green" stroke-width="0.3" points="252.89,-92.63 242.32,-93.38 251.05,-99.39 252.89,-92.63"/>
</g>
<!-- 0 -->
<g id="node12" class="node">
<title>0</title>
<ellipse fill="lightblue" stroke="black" cx="150" cy="-14.85" rx="14.7" ry="14.7"/>
<text text-anchor="middle" x="150" y="-12.65" font-family="Times New Roman,serif" font-size="9.00">0</text>
</g>
<!-- 1 -->
<g id="node13" class="node">
<title>1</title>
<ellipse fill="lightblue" stroke="black" cx="198" cy="-14.85" rx="14.7" ry="14.7"/>
<text text-anchor="middle" x="198" y="-12.65" font-family="Times New Roman,serif" font-size="9.00">1</text>
</g>
<!-- 2 -->
<g id="node14" class="node">
<title>2</title>
<ellipse fill="lightblue" stroke="black" cx="246" cy="-14.85" rx="14.7" ry="14.7"/>
<text text-anchor="middle" x="246" y="-12.65" font-family="Times New Roman,serif" font-size="9.00">2</text>
</g>
<!-- 3 -->
<g id="node15" class="node">
<title>3</title>
<ellipse fill="lightblue" stroke="black" cx="294" cy="-14.85" rx="14.7" ry="14.7"/>
<text text-anchor="middle" x="294" y="-12.65" font-family="Times New Roman,serif" font-size="9.00">3</text>
</g>
<!-- 145&#45;&gt;0 -->
<g id="edge12" class="edge">
<title>145&#45;&gt;0</title>
<path fill="none" stroke="green" stroke-width="0.3" d="M207.08,-71.39C195.59,-60.22 179.68,-44.73 167.58,-32.95"/>
<polygon fill="green" stroke="green" stroke-width="0.3" points="169.86,-30.29 160.26,-25.83 164.98,-35.31 169.86,-30.29"/>
</g>
<!-- 145&#45;&gt;1 -->
<g id="edge13" class="edge">
<title>145&#45;&gt;1</title>
<path fill="none" stroke="green" stroke-width="0.3" d="M215.31,-66.4C212.4,-57.9 208.97,-47.87 205.93,-39"/>
<polygon fill="green" stroke="green" stroke-width="0.3" points="209.15,-37.6 202.6,-29.28 202.53,-39.87 209.15,-37.6"/>
</g>
<!-- 145&#45;&gt;2 -->
<g id="edge14" class="edge">
<title>145&#45;&gt;2</title>
<path fill="none" stroke="green" stroke-width="0.3" d="M228.69,-66.4C231.6,-57.9 235.03,-47.87 238.07,-39"/>
<polygon fill="green" stroke="green" stroke-width="0.3" points="241.47,-39.87 241.4,-29.28 234.85,-37.6 241.47,-39.87"/>
</g>
<!-- 145&#45;&gt;3 -->
<g id="edge15" class="edge">
<title>145&#45;&gt;3</title>
<path fill="none" stroke="green" stroke-width="0.3" d="M236.92,-71.39C248.41,-60.22 264.32,-44.73 276.42,-32.95"/>
<polygon fill="green" stroke="green" stroke-width="0.3" points="279.02,-35.31 283.74,-25.83 274.14,-30.29 279.02,-35.31"/>
</g>
</g>
</svg>
