<?xml version="1.0" encoding="UTF-8" standalone="no"?>
<!DOCTYPE svg PUBLIC "-//W3C//DTD SVG 1.1//EN"
 "http://www.w3.org/Graphics/SVG/1.1/DTD/svg11.dtd">
<!-- Generated by graphviz version 2.47.1 (20210417.1919)
 -->
<!-- Pages: 1 -->
<svg width="481pt" height="617pt"
 viewBox="0.00 0.00 480.61 617.41" xmlns="http://www.w3.org/2000/svg" xmlns:xlink="http://www.w3.org/1999/xlink">
<g id="graph0" class="graph" transform="scale(1 1) rotate(0) translate(4 613.41)">
<polygon fill="white" stroke="transparent" points="-4,4 -4,-613.41 476.61,-613.41 476.61,4 -4,4"/>
<!-- &#45;1 -->
<g id="node1" class="node">
<title>&#45;1</title>
<polygon fill="lightgray" stroke="black" points="102.61,-204.74 78.61,-204.74 78.61,-186.74 102.61,-186.74 102.61,-204.74"/>
<text text-anchor="middle" x="90.61" y="-193.54" font-family="Times New Roman,serif" font-size="9.00">&#45;1</text>
</g>
<!-- 3 -->
<g id="node15" class="node">
<title>3</title>
<ellipse fill="lightblue" stroke="black" cx="135.61" cy="-24.75" rx="14.7" ry="14.7"/>
<text text-anchor="middle" x="135.61" y="-22.55" font-family="Times New Roman,serif" font-size="9.00">3</text>
</g>
<!-- &#45;1&#45;&gt;3 -->
<g id="edge1" class="edge">
<title>&#45;1&#45;&gt;3</title>
<path fill="none" stroke="red" stroke-width="0.24" stroke-dasharray="1,5" d="M92.78,-186.59C99.33,-162 119.06,-87.9 129.3,-49.46"/>
<polygon fill="red" stroke="red" stroke-width="0.24" points="132.73,-50.2 131.92,-39.63 125.96,-48.39 132.73,-50.2"/>
</g>
<!-- 486 -->
<g id="node16" class="node">
<title>486</title>
<ellipse fill="white" stroke="black" cx="48.61" cy="-110.25" rx="21.43" ry="21.43"/>
<text text-anchor="middle" x="48.61" y="-108.05" font-family="Times New Roman,serif" font-size="9.00">486</text>
</g>
<!-- &#45;1&#45;&gt;486 -->
<g id="edge19" class="edge">
<title>&#45;1&#45;&gt;486</title>
<path fill="none" stroke="green" stroke-width="0.24" stroke-dasharray="1,5" d="M86.59,-186.74C81.09,-175.82 70.98,-155.7 62.56,-138.98"/>
<polygon fill="green" stroke="green" stroke-width="0.24" points="65.48,-136.98 57.86,-129.62 59.22,-140.13 65.48,-136.98"/>
</g>
<!-- &#45;2 -->
<g id="node2" class="node">
<title>&#45;2</title>
<polygon fill="lightgray" stroke="black" points="388.61,-609.41 364.61,-609.41 364.61,-591.41 388.61,-591.41 388.61,-609.41"/>
<text text-anchor="middle" x="376.61" y="-598.21" font-family="Times New Roman,serif" font-size="9.00">&#45;2</text>
</g>
<!-- 2 -->
<g id="node14" class="node">
<title>2</title>
<ellipse fill="lightblue" stroke="black" cx="389.61" cy="-445.17" rx="14.7" ry="14.7"/>
<text text-anchor="middle" x="389.61" y="-442.97" font-family="Times New Roman,serif" font-size="9.00">2</text>
</g>
<!-- &#45;2&#45;&gt;2 -->
<g id="edge2" class="edge">
<title>&#45;2&#45;&gt;2</title>
<path fill="none" stroke="green" stroke-width="0.31" d="M374.94,-591.35C373.2,-582.56 370.61,-568.06 369.61,-555.41 367.88,-533.48 366.08,-527.63 369.61,-505.91 371.69,-493.18 376.09,-479.51 380.24,-468.45"/>
<polygon fill="green" stroke="green" stroke-width="0.31" points="383.5,-469.73 383.91,-459.14 376.99,-467.17 383.5,-469.73"/>
</g>
<!-- 1511 -->
<g id="node17" class="node">
<title>1511</title>
<ellipse fill="white" stroke="black" cx="403.61" cy="-530.66" rx="25" ry="25"/>
<text text-anchor="middle" x="403.61" y="-528.46" font-family="Times New Roman,serif" font-size="9.00">1511</text>
</g>
<!-- &#45;2&#45;&gt;1511 -->
<g id="edge29" class="edge">
<title>&#45;2&#45;&gt;1511</title>
<path fill="none" stroke="green" stroke-width="0.4" d="M379.82,-591.37C382.62,-584.34 386.88,-573.66 391.02,-563.26"/>
<polygon fill="green" stroke="green" stroke-width="0.4" points="394.3,-564.49 394.75,-553.9 387.8,-561.89 394.3,-564.49"/>
</g>
<!-- &#45;3 -->
<g id="node3" class="node">
<title>&#45;3</title>
<polygon fill="lightgray" stroke="black" points="144.61,-204.74 120.61,-204.74 120.61,-186.74 144.61,-186.74 144.61,-204.74"/>
<text text-anchor="middle" x="132.61" y="-193.54" font-family="Times New Roman,serif" font-size="9.00">&#45;3</text>
</g>
<!-- 0 -->
<g id="node12" class="node">
<title>0</title>
<ellipse fill="lightblue" stroke="black" cx="354.61" cy="-110.25" rx="14.7" ry="14.7"/>
<text text-anchor="middle" x="354.61" y="-108.05" font-family="Times New Roman,serif" font-size="9.00">0</text>
</g>
<!-- &#45;3&#45;&gt;0 -->
<g id="edge3" class="edge">
<title>&#45;3&#45;&gt;0</title>
<path fill="none" stroke="green" stroke-width="0.22" stroke-dasharray="1,5" d="M144.77,-189.72C156.67,-184.83 175.33,-177.26 191.61,-170.99 240.9,-152.05 299.07,-131.05 330.88,-119.68"/>
<polygon fill="green" stroke="green" stroke-width="0.22" points="332.36,-122.87 340.6,-116.21 330.01,-116.28 332.36,-122.87"/>
</g>
<!-- &#45;3&#45;&gt;3 -->
<g id="edge4" class="edge">
<title>&#45;3&#45;&gt;3</title>
<path fill="none" stroke="red" stroke-width="0.24" stroke-dasharray="1,5" d="M132.76,-186.59C133.19,-162.11 134.5,-88.53 135.18,-49.95"/>
<polygon fill="red" stroke="red" stroke-width="0.24" points="138.69,-49.69 135.37,-39.63 131.69,-49.57 138.69,-49.69"/>
</g>
<!-- &#45;3&#45;&gt;486 -->
<g id="edge18" class="edge">
<title>&#45;3&#45;&gt;486</title>
<path fill="none" stroke="green" stroke-width="0.46" d="M125.78,-186.67C121.76,-182 116.51,-176.06 111.61,-170.99 98.73,-157.65 83.68,-143.33 71.51,-132.06"/>
<polygon fill="green" stroke="green" stroke-width="0.46" points="73.72,-129.33 63.99,-125.13 68.98,-134.48 73.72,-129.33"/>
</g>
<!-- &#45;4 -->
<g id="node4" class="node">
<title>&#45;4</title>
<polygon fill="lightgray" stroke="black" points="322.61,-368.67 298.61,-368.67 298.61,-350.67 322.61,-350.67 322.61,-368.67"/>
<text text-anchor="middle" x="310.61" y="-357.47" font-family="Times New Roman,serif" font-size="9.00">&#45;4</text>
</g>
<!-- &#45;4&#45;&gt;0 -->
<g id="edge5" class="edge">
<title>&#45;4&#45;&gt;0</title>
<path fill="none" stroke="red" stroke-width="0.5" stroke-dasharray="1,5" d="M311.72,-350.4C315.29,-324.08 327.04,-239.95 340.61,-170.99 342.98,-158.95 346.06,-145.65 348.72,-134.66"/>
<polygon fill="red" stroke="red" stroke-width="0.5" points="352.12,-135.5 351.11,-124.95 345.32,-133.82 352.12,-135.5"/>
</g>
<!-- 1 -->
<g id="node13" class="node">
<title>1</title>
<ellipse fill="lightblue" stroke="black" cx="197.61" cy="-277.71" rx="14.7" ry="14.7"/>
<text text-anchor="middle" x="197.61" y="-275.51" font-family="Times New Roman,serif" font-size="9.00">1</text>
</g>
<!-- &#45;4&#45;&gt;1 -->
<g id="edge6" class="edge">
<title>&#45;4&#45;&gt;1</title>
<path fill="none" stroke="red" stroke-width="0.19" stroke-dasharray="1,5" d="M304.57,-350.58C300.66,-345.67 295.25,-339.5 289.61,-334.92 264.6,-314.57 253.87,-316.16 226.61,-298.92 223.71,-297.08 220.69,-295.08 217.74,-293.08"/>
<polygon fill="red" stroke="red" stroke-width="0.19" points="219.51,-290.05 209.3,-287.21 215.52,-295.79 219.51,-290.05"/>
</g>
<!-- &#45;4&#45;&gt;3 -->
<g id="edge24" class="edge">
<title>&#45;4&#45;&gt;3</title>
<path fill="none" stroke="red" stroke-width="0.16" d="M310.12,-350.5C307.59,-314.9 293.23,-171.28 222.61,-85.5 204.78,-63.83 177.15,-46.71 157.83,-36.44"/>
<polygon fill="red" stroke="red" stroke-width="0.16" points="159.33,-33.28 148.83,-31.84 156.14,-39.51 159.33,-33.28"/>
</g>
<!-- 1720 -->
<g id="node20" class="node">
<title>1720</title>
<ellipse fill="white" stroke="black" cx="225.61" cy="-195.74" rx="25" ry="25"/>
<text text-anchor="middle" x="225.61" y="-193.54" font-family="Times New Roman,serif" font-size="9.00">1720</text>
</g>
<!-- &#45;4&#45;&gt;1720 -->
<g id="edge34" class="edge">
<title>&#45;4&#45;&gt;1720</title>
<path fill="none" stroke="green" stroke-width="0.12" d="M302.9,-350.32C292.99,-339.25 275.74,-318.79 264.61,-298.92 252.26,-276.85 242.2,-250.08 235.4,-229.48"/>
<polygon fill="green" stroke="green" stroke-width="0.12" points="238.71,-228.36 232.32,-219.92 232.05,-230.51 238.71,-228.36"/>
</g>
<!-- &#45;5 -->
<g id="node5" class="node">
<title>&#45;5</title>
<polygon fill="lightgray" stroke="black" points="470.61,-539.66 446.61,-539.66 446.61,-521.66 470.61,-521.66 470.61,-539.66"/>
<text text-anchor="middle" x="458.61" y="-528.46" font-family="Times New Roman,serif" font-size="9.00">&#45;5</text>
</g>
<!-- &#45;5&#45;&gt;0 -->
<g id="edge7" class="edge">
<title>&#45;5&#45;&gt;0</title>
<path fill="none" stroke="green" stroke-width="0.14" stroke-dasharray="1,5" d="M456.65,-521.63C450.92,-497.45 434.61,-423.19 434.61,-360.67 434.61,-360.67 434.61,-360.67 434.61,-276.71 434.61,-228.97 437.94,-213.19 415.61,-170.99 405.85,-152.55 388.38,-136.32 374.63,-125.45"/>
<polygon fill="green" stroke="green" stroke-width="0.14" points="376.73,-122.66 366.65,-119.4 372.5,-128.23 376.73,-122.66"/>
</g>
<!-- &#45;5&#45;&gt;2 -->
<g id="edge8" class="edge">
<title>&#45;5&#45;&gt;2</title>
<path fill="none" stroke="red" stroke-width="0.22" stroke-dasharray="1,5" d="M452,-521.66C441.33,-508.75 420.04,-482.98 405.32,-465.17"/>
<polygon fill="red" stroke="red" stroke-width="0.22" points="407.76,-462.63 398.7,-457.16 402.37,-467.09 407.76,-462.63"/>
</g>
<!-- 1230 -->
<g id="node18" class="node">
<title>1230</title>
<ellipse fill="white" stroke="black" cx="413.61" cy="-24.75" rx="25" ry="25"/>
<text text-anchor="middle" x="413.61" y="-22.55" font-family="Times New Roman,serif" font-size="9.00">1230</text>
</g>
<!-- &#45;5&#45;&gt;1230 -->
<g id="edge26" class="edge">
<title>&#45;5&#45;&gt;1230</title>
<path fill="none" stroke="red" stroke-width="0.54" d="M459.76,-521.59C463.1,-497.31 472.61,-422.79 472.61,-360.67 472.61,-360.67 472.61,-360.67 472.61,-194.74 472.61,-143.55 448.18,-88.26 430.76,-55.35"/>
<polygon fill="red" stroke="red" stroke-width="0.54" points="433.69,-53.4 425.84,-46.28 427.53,-56.74 433.69,-53.4"/>
</g>
<!-- &#45;6 -->
<g id="node6" class="node">
<title>&#45;6</title>
<polygon fill="lightgray" stroke="black" points="406.61,-204.74 382.61,-204.74 382.61,-186.74 406.61,-186.74 406.61,-204.74"/>
<text text-anchor="middle" x="394.61" y="-193.54" font-family="Times New Roman,serif" font-size="9.00">&#45;6</text>
</g>
<!-- &#45;6&#45;&gt;0 -->
<g id="edge9" class="edge">
<title>&#45;6&#45;&gt;0</title>
<path fill="none" stroke="green" stroke-width="0.93" stroke-dasharray="1,5" d="M390.78,-186.74C384.9,-174.48 373.48,-150.62 365.03,-132.99"/>
<polygon fill="green" stroke="green" stroke-width="0.93" points="368.18,-131.46 360.7,-123.95 361.86,-134.48 368.18,-131.46"/>
</g>
<!-- &#45;7 -->
<g id="node7" class="node">
<title>&#45;7</title>
<polygon fill="lightgray" stroke="black" points="430.61,-609.41 406.61,-609.41 406.61,-591.41 430.61,-591.41 430.61,-609.41"/>
<text text-anchor="middle" x="418.61" y="-598.21" font-family="Times New Roman,serif" font-size="9.00">&#45;7</text>
</g>
<!-- &#45;8 -->
<g id="node8" class="node">
<title>&#45;8</title>
<polygon fill="lightgray" stroke="black" points="322.61,-539.66 298.61,-539.66 298.61,-521.66 322.61,-521.66 322.61,-539.66"/>
<text text-anchor="middle" x="310.61" y="-528.46" font-family="Times New Roman,serif" font-size="9.00">&#45;8</text>
</g>
<!-- &#45;8&#45;&gt;2 -->
<g id="edge10" class="edge">
<title>&#45;8&#45;&gt;2</title>
<path fill="none" stroke="green" stroke-width="2.09" d="M318.19,-521.66C330.65,-508.49 355.76,-481.95 372.64,-464.11"/>
<polygon fill="green" stroke="green" stroke-width="2.09" points="375.41,-466.27 379.74,-456.61 370.32,-461.46 375.41,-466.27"/>
</g>
<!-- 1053 -->
<g id="node21" class="node">
<title>1053</title>
<ellipse fill="white" stroke="black" cx="255.61" cy="-359.67" rx="25" ry="25"/>
<text text-anchor="middle" x="255.61" y="-357.47" font-family="Times New Roman,serif" font-size="9.00">1053</text>
</g>
<!-- &#45;8&#45;&gt;1053 -->
<g id="edge22" class="edge">
<title>&#45;8&#45;&gt;1053</title>
<path fill="none" stroke="green" stroke-width="0.68" stroke-dasharray="1,5" d="M309.96,-521.47C308.28,-502.95 302.99,-456.65 289.61,-420.42 285.7,-409.81 280.03,-398.87 274.43,-389.3"/>
<polygon fill="green" stroke="green" stroke-width="0.68" points="277.33,-387.33 269.15,-380.6 271.35,-390.96 277.33,-387.33"/>
</g>
<!-- 1662 -->
<g id="node22" class="node">
<title>1662</title>
<ellipse fill="white" stroke="black" cx="255.61" cy="-445.17" rx="25" ry="25"/>
<text text-anchor="middle" x="255.61" y="-442.97" font-family="Times New Roman,serif" font-size="9.00">1662</text>
</g>
<!-- &#45;8&#45;&gt;1662 -->
<g id="edge32" class="edge">
<title>&#45;8&#45;&gt;1662</title>
<path fill="none" stroke="red" stroke-width="0.28" stroke-dasharray="1,5" d="M305.34,-521.66C298.31,-510.98 285.48,-491.51 274.62,-475.02"/>
<polygon fill="red" stroke="red" stroke-width="0.28" points="277.26,-472.66 268.83,-466.24 271.41,-476.51 277.26,-472.66"/>
</g>
<!-- &#45;9 -->
<g id="node9" class="node">
<title>&#45;9</title>
<polygon fill="lightgray" stroke="black" points="95.61,-368.67 71.61,-368.67 71.61,-350.67 95.61,-350.67 95.61,-368.67"/>
<text text-anchor="middle" x="83.61" y="-357.47" font-family="Times New Roman,serif" font-size="9.00">&#45;9</text>
</g>
<!-- &#45;9&#45;&gt;1 -->
<g id="edge11" class="edge">
<title>&#45;9&#45;&gt;1</title>
<path fill="none" stroke="red" stroke-width="0.16" stroke-dasharray="1,5" d="M95.38,-350.41C114.75,-336.82 153.57,-309.6 177.41,-292.88"/>
<polygon fill="red" stroke="red" stroke-width="0.16" points="179.56,-295.64 185.74,-287.04 175.54,-289.91 179.56,-295.64"/>
</g>
<!-- &#45;9&#45;&gt;3 -->
<g id="edge12" class="edge">
<title>&#45;9&#45;&gt;3</title>
<path fill="none" stroke="green" stroke-width="1.75" d="M77.49,-350.38C52.49,-315.44 -37.89,-177.8 18.61,-85.5 38.68,-52.72 83.01,-37.21 110.97,-30.43"/>
<polygon fill="green" stroke="green" stroke-width="1.75" points="111.8,-33.83 120.8,-28.25 110.28,-27 111.8,-33.83"/>
</g>
<!-- &#45;9&#45;&gt;486 -->
<g id="edge17" class="edge">
<title>&#45;9&#45;&gt;486</title>
<path fill="none" stroke="red" stroke-width="0.91" stroke-dasharray="1,5" d="M82.45,-350.44C77.87,-318.06 60.95,-198.48 52.91,-141.64"/>
<polygon fill="red" stroke="red" stroke-width="0.91" points="56.34,-140.89 51.47,-131.47 49.41,-141.87 56.34,-140.89"/>
</g>
<!-- 959 -->
<g id="node23" class="node">
<title>959</title>
<ellipse fill="white" stroke="black" cx="129.61" cy="-277.71" rx="21.43" ry="21.43"/>
<text text-anchor="middle" x="129.61" y="-275.51" font-family="Times New Roman,serif" font-size="9.00">959</text>
</g>
<!-- &#45;9&#45;&gt;959 -->
<g id="edge21" class="edge">
<title>&#45;9&#45;&gt;959</title>
<path fill="none" stroke="red" stroke-width="0.47" d="M88.36,-350.41C94.43,-339.87 105.21,-321.12 114.24,-305.44"/>
<polygon fill="red" stroke="red" stroke-width="0.47" points="117.34,-307.05 119.3,-296.64 111.28,-303.56 117.34,-307.05"/>
</g>
<!-- &#45;10 -->
<g id="node10" class="node">
<title>&#45;10</title>
<polygon fill="lightgray" stroke="black" points="232.11,-539.66 203.11,-539.66 203.11,-521.66 232.11,-521.66 232.11,-539.66"/>
<text text-anchor="middle" x="217.61" y="-528.46" font-family="Times New Roman,serif" font-size="9.00">&#45;10</text>
</g>
<!-- &#45;10&#45;&gt;0 -->
<g id="edge13" class="edge">
<title>&#45;10&#45;&gt;0</title>
<path fill="none" stroke="green" stroke-width="1.43" d="M230.47,-521.49C246.07,-511.06 272.42,-491.73 289.61,-469.91 315.82,-436.66 320.31,-425.22 331.61,-384.42 356.37,-295.06 356.77,-183.5 355.54,-135.28"/>
<polygon fill="green" stroke="green" stroke-width="1.43" points="359.04,-135.1 355.24,-125.21 352.04,-135.31 359.04,-135.1"/>
</g>
<!-- &#45;10&#45;&gt;1 -->
<g id="edge14" class="edge">
<title>&#45;10&#45;&gt;1</title>
<path fill="none" stroke="green" stroke-width="0.66" stroke-dasharray="1,5" d="M213.37,-521.53C199.97,-494.86 160.32,-407.62 174.61,-334.92 176.93,-323.12 181.75,-310.69 186.38,-300.52"/>
<polygon fill="green" stroke="green" stroke-width="0.66" points="189.67,-301.74 190.84,-291.21 183.36,-298.71 189.67,-301.74"/>
</g>
<!-- &#45;10&#45;&gt;2 -->
<g id="edge15" class="edge">
<title>&#45;10&#45;&gt;2</title>
<path fill="none" stroke="green" stroke-width="0.12" d="M232.28,-522.54C262.43,-507.91 331.53,-474.36 367.28,-457.01"/>
<polygon fill="green" stroke="green" stroke-width="0.12" points="368.95,-460.09 376.42,-452.57 365.89,-453.79 368.95,-460.09"/>
</g>
<!-- &#45;10&#45;&gt;486 -->
<g id="edge20" class="edge">
<title>&#45;10&#45;&gt;486</title>
<path fill="none" stroke="green" stroke-width="0.12" d="M203.08,-521.45C170.86,-502.31 93.79,-451.26 62.61,-384.42 24.78,-303.28 35.07,-193.51 43.13,-141.27"/>
<polygon fill="green" stroke="green" stroke-width="0.12" points="46.6,-141.76 44.75,-131.33 39.69,-140.63 46.6,-141.76"/>
</g>
<!-- &#45;11 -->
<g id="node11" class="node">
<title>&#45;11</title>
<polygon fill="lightgray" stroke="black" points="213.11,-368.67 184.11,-368.67 184.11,-350.67 213.11,-350.67 213.11,-368.67"/>
<text text-anchor="middle" x="198.61" y="-357.47" font-family="Times New Roman,serif" font-size="9.00">&#45;11</text>
</g>
<!-- &#45;11&#45;&gt;1 -->
<g id="edge16" class="edge">
<title>&#45;11&#45;&gt;1</title>
<path fill="none" stroke="green" stroke-width="1.4" d="M198.51,-350.41C198.37,-339.32 198.12,-319.15 197.92,-303.02"/>
<polygon fill="green" stroke="green" stroke-width="1.4" points="201.41,-302.61 197.79,-292.66 194.41,-302.7 201.41,-302.61"/>
</g>
<!-- 0&#45;&gt;1230 -->
<g id="edge25" class="edge">
<title>0&#45;&gt;1230</title>
<path fill="none" stroke="green" stroke-width="0.33" stroke-dasharray="1,5" d="M362.82,-97.64C370.76,-86.4 383.11,-68.92 393.64,-54.02"/>
<polygon fill="green" stroke="green" stroke-width="0.33" points="396.67,-55.79 399.58,-45.6 390.96,-51.75 396.67,-55.79"/>
</g>
<!-- 1&#45;&gt;1720 -->
<g id="edge36" class="edge">
<title>1&#45;&gt;1720</title>
<path fill="none" stroke="green" stroke-width="0.36" d="M202.24,-263.5C205.51,-254.14 210.06,-241.17 214.27,-229.14"/>
<polygon fill="green" stroke="green" stroke-width="0.36" points="217.69,-229.96 217.69,-219.36 211.09,-227.64 217.69,-229.96"/>
</g>
<!-- 2&#45;&gt;1053 -->
<g id="edge31" class="edge">
<title>2&#45;&gt;1053</title>
<path fill="none" stroke="green" stroke-width="0.24" stroke-dasharray="1,5" d="M379.03,-434.56C373.71,-429.98 367.05,-424.61 360.61,-420.42 330.98,-401.09 319.97,-402.59 289.61,-384.42 287.66,-383.24 285.66,-382 283.67,-380.72"/>
<polygon fill="green" stroke="green" stroke-width="0.24" points="285.34,-377.62 275.08,-374.96 281.44,-383.43 285.34,-377.62"/>
</g>
<!-- 1511&#45;&gt;2 -->
<g id="edge30" class="edge">
<title>1511&#45;&gt;2</title>
<path fill="none" stroke="green" stroke-width="0.57" d="M399.64,-505.96C397.75,-494.71 395.5,-481.29 393.61,-470.01"/>
<polygon fill="green" stroke="green" stroke-width="0.57" points="397.04,-469.29 391.93,-460.01 390.14,-470.45 397.04,-469.29"/>
</g>
<!-- 1332 -->
<g id="node19" class="node">
<title>1332</title>
<ellipse fill="white" stroke="black" cx="188.61" cy="-110.25" rx="25" ry="25"/>
<text text-anchor="middle" x="188.61" y="-108.05" font-family="Times New Roman,serif" font-size="9.00">1332</text>
</g>
<!-- 1332&#45;&gt;3 -->
<g id="edge28" class="edge">
<title>1332&#45;&gt;3</title>
<path fill="none" stroke="red" stroke-width="0.91" stroke-dasharray="1,5" d="M175.78,-89.03C167.6,-76.14 157.02,-59.47 148.77,-46.48"/>
<polygon fill="red" stroke="red" stroke-width="0.91" points="151.56,-44.34 143.25,-37.77 145.65,-48.09 151.56,-44.34"/>
</g>
<!-- 1720&#45;&gt;0 -->
<g id="edge35" class="edge">
<title>1720&#45;&gt;0</title>
<path fill="none" stroke="green" stroke-width="0.11" d="M246.05,-181.51C270.12,-165.94 309.86,-140.22 334,-124.59"/>
<polygon fill="green" stroke="green" stroke-width="0.11" points="335.93,-127.51 342.42,-119.14 332.12,-121.63 335.93,-127.51"/>
</g>
<!-- 1720&#45;&gt;1332 -->
<g id="edge37" class="edge">
<title>1720&#45;&gt;1332</title>
<path fill="none" stroke="green" stroke-width="0.29" d="M215.89,-172.81C211.77,-163.51 206.89,-152.5 202.41,-142.38"/>
<polygon fill="green" stroke="green" stroke-width="0.29" points="205.52,-140.76 198.27,-133.04 199.12,-143.6 205.52,-140.76"/>
</g>
<!-- 1053&#45;&gt;1 -->
<g id="edge23" class="edge">
<title>1053&#45;&gt;1</title>
<path fill="none" stroke="red" stroke-width="0.21" stroke-dasharray="1,5" d="M241.28,-338.9C232.31,-326.55 220.82,-310.7 211.87,-298.36"/>
<polygon fill="red" stroke="red" stroke-width="0.21" points="214.58,-296.14 205.88,-290.1 208.92,-300.25 214.58,-296.14"/>
</g>
<!-- 1662&#45;&gt;1053 -->
<g id="edge33" class="edge">
<title>1662&#45;&gt;1053</title>
<path fill="none" stroke="green" stroke-width="0.18" d="M255.61,-420.01C255.61,-412.07 255.61,-403.09 255.61,-394.56"/>
<polygon fill="green" stroke="green" stroke-width="0.18" points="259.11,-394.48 255.61,-384.48 252.11,-394.48 259.11,-394.48"/>
</g>
<!-- 959&#45;&gt;1332 -->
<g id="edge27" class="edge">
<title>959&#45;&gt;1332</title>
<path fill="none" stroke="green" stroke-width="0.31" stroke-dasharray="1,5" d="M138.06,-258.14C142.87,-247.27 148.87,-233.22 153.61,-220.49 163.04,-195.2 172.3,-166.07 178.92,-144.25"/>
<polygon fill="green" stroke="green" stroke-width="0.31" points="182.33,-145.06 181.86,-134.48 175.63,-143.05 182.33,-145.06"/>
</g>
</g>
</svg>
