<?xml version="1.0" encoding="UTF-8" standalone="no"?>
<!DOCTYPE svg PUBLIC "-//W3C//DTD SVG 1.1//EN"
 "http://www.w3.org/Graphics/SVG/1.1/DTD/svg11.dtd">
<!-- Generated by graphviz version 2.47.1 (20210417.1919)
 -->
<!-- Pages: 1 -->
<svg width="604pt" height="208pt"
 viewBox="0.00 0.00 604.49 208.31" xmlns="http://www.w3.org/2000/svg" xmlns:xlink="http://www.w3.org/1999/xlink">
<g id="graph0" class="graph" transform="scale(1 1) rotate(0) translate(4 204.31)">
<polygon fill="white" stroke="transparent" points="-4,4 -4,-204.31 600.49,-204.31 600.49,4 -4,4"/>
<!-- &#45;1 -->
<g id="node1" class="node">
<title>&#45;1</title>
<polygon fill="lightgray" stroke="black" points="207.92,-127.73 183.92,-127.73 183.92,-109.73 207.92,-109.73 207.92,-127.73"/>
<text text-anchor="middle" x="195.92" y="-116.53" font-family="Times New Roman,serif" font-size="9.00">&#45;1</text>
</g>
<!-- 1 -->
<g id="node13" class="node">
<title>1</title>
<ellipse fill="lightblue" stroke="black" cx="321.92" cy="-27.58" rx="14.7" ry="14.7"/>
<text text-anchor="middle" x="321.92" y="-25.38" font-family="Times New Roman,serif" font-size="9.00">1</text>
</g>
<!-- &#45;1&#45;&gt;1 -->
<g id="edge1" class="edge">
<title>&#45;1&#45;&gt;1</title>
<path fill="none" stroke="red" stroke-width="0.7" stroke-dasharray="1,5" d="M201.13,-109.65C205.02,-104.02 210.72,-96.58 216.92,-91.15 242.49,-68.73 277.2,-49.86 299.58,-38.88"/>
<polygon fill="red" stroke="red" stroke-width="0.7" points="301.13,-42.01 308.64,-34.53 298.11,-35.7 301.13,-42.01"/>
</g>
<!-- 2 -->
<g id="node14" class="node">
<title>2</title>
<ellipse fill="lightblue" stroke="black" cx="237.92" cy="-27.58" rx="14.7" ry="14.7"/>
<text text-anchor="middle" x="237.92" y="-25.38" font-family="Times New Roman,serif" font-size="9.00">2</text>
</g>
<!-- &#45;1&#45;&gt;2 -->
<g id="edge2" class="edge">
<title>&#45;1&#45;&gt;2</title>
<path fill="none" stroke="green" stroke-width="0.5" d="M199.79,-109.5C206.05,-96.22 218.59,-69.59 227.58,-50.51"/>
<polygon fill="green" stroke="green" stroke-width="0.5" points="230.81,-51.87 231.91,-41.33 224.48,-48.88 230.81,-51.87"/>
</g>
<!-- &#45;2 -->
<g id="node2" class="node">
<title>&#45;2</title>
<polygon fill="lightgray" stroke="black" points="339.92,-127.73 315.92,-127.73 315.92,-109.73 339.92,-109.73 339.92,-127.73"/>
<text text-anchor="middle" x="327.92" y="-116.53" font-family="Times New Roman,serif" font-size="9.00">&#45;2</text>
</g>
<!-- &#45;2&#45;&gt;1 -->
<g id="edge3" class="edge">
<title>&#45;2&#45;&gt;1</title>
<path fill="none" stroke="green" stroke-width="0.29" stroke-dasharray="1,5" d="M327.36,-109.5C326.5,-96.69 324.8,-71.47 323.53,-52.57"/>
<polygon fill="green" stroke="green" stroke-width="0.29" points="327.02,-52.32 322.86,-42.58 320.04,-52.79 327.02,-52.32"/>
</g>
<!-- &#45;2&#45;&gt;2 -->
<g id="edge4" class="edge">
<title>&#45;2&#45;&gt;2</title>
<path fill="none" stroke="green" stroke-width="0.11" stroke-dasharray="1,5" d="M321.64,-109.58C317.38,-104.2 311.52,-97.06 305.92,-91.15 290.04,-74.42 270.54,-56.74 256.51,-44.46"/>
<polygon fill="green" stroke="green" stroke-width="0.11" points="258.79,-41.81 248.94,-37.9 254.2,-47.1 258.79,-41.81"/>
</g>
<!-- 3 -->
<g id="node15" class="node">
<title>3</title>
<ellipse fill="lightblue" stroke="black" cx="369.92" cy="-27.58" rx="14.7" ry="14.7"/>
<text text-anchor="middle" x="369.92" y="-25.38" font-family="Times New Roman,serif" font-size="9.00">3</text>
</g>
<!-- &#45;2&#45;&gt;3 -->
<g id="edge5" class="edge">
<title>&#45;2&#45;&gt;3</title>
<path fill="none" stroke="green" stroke-width="0.45" stroke-dasharray="1,5" d="M331.79,-109.5C338.05,-96.22 350.59,-69.59 359.58,-50.51"/>
<polygon fill="green" stroke="green" stroke-width="0.45" points="362.81,-51.87 363.91,-41.33 356.48,-48.88 362.81,-51.87"/>
</g>
<!-- &#45;3 -->
<g id="node3" class="node">
<title>&#45;3</title>
<polygon fill="lightgray" stroke="black" points="249.92,-127.73 225.92,-127.73 225.92,-109.73 249.92,-109.73 249.92,-127.73"/>
<text text-anchor="middle" x="237.92" y="-116.53" font-family="Times New Roman,serif" font-size="9.00">&#45;3</text>
</g>
<!-- 0 -->
<g id="node12" class="node">
<title>0</title>
<ellipse fill="lightblue" stroke="black" cx="132.92" cy="-27.58" rx="14.7" ry="14.7"/>
<text text-anchor="middle" x="132.92" y="-25.38" font-family="Times New Roman,serif" font-size="9.00">0</text>
</g>
<!-- &#45;3&#45;&gt;0 -->
<g id="edge6" class="edge">
<title>&#45;3&#45;&gt;0</title>
<path fill="none" stroke="red" stroke-width="0.2" stroke-dasharray="1,5" d="M232.18,-109.36C228.22,-103.88 222.65,-96.73 216.92,-91.15 197.15,-71.94 171.34,-53.54 153.58,-41.73"/>
<polygon fill="red" stroke="red" stroke-width="0.2" points="155.38,-38.73 145.09,-36.18 151.55,-44.58 155.38,-38.73"/>
</g>
<!-- &#45;3&#45;&gt;1 -->
<g id="edge7" class="edge">
<title>&#45;3&#45;&gt;1</title>
<path fill="none" stroke="red" stroke-width="0.45" stroke-dasharray="1,5" d="M243.92,-109.62C248,-104.25 253.59,-97.12 258.92,-91.15 273.37,-74.96 290.98,-57.66 303.9,-45.36"/>
<polygon fill="red" stroke="red" stroke-width="0.45" points="306.4,-47.81 311.27,-38.4 301.6,-42.72 306.4,-47.81"/>
</g>
<!-- &#45;3&#45;&gt;2 -->
<g id="edge8" class="edge">
<title>&#45;3&#45;&gt;2</title>
<path fill="none" stroke="green" stroke-width="0.65" d="M237.92,-109.5C237.92,-96.75 237.92,-71.7 237.92,-52.84"/>
<polygon fill="green" stroke="green" stroke-width="0.65" points="241.42,-52.58 237.92,-42.58 234.42,-52.58 241.42,-52.58"/>
</g>
<!-- &#45;3&#45;&gt;3 -->
<g id="edge9" class="edge">
<title>&#45;3&#45;&gt;3</title>
<path fill="none" stroke="red" stroke-width="0.33" d="M242.9,-109.36C246.68,-103.6 252.35,-96.12 258.92,-91.15 292.3,-65.92 311.72,-79.27 345.92,-55.15 349.05,-52.95 352.06,-50.26 354.83,-47.46"/>
<polygon fill="red" stroke="red" stroke-width="0.33" points="357.45,-49.78 361.52,-40 352.24,-45.11 357.45,-49.78"/>
</g>
<!-- &#45;4 -->
<g id="node4" class="node">
<title>&#45;4</title>
<polygon fill="lightgray" stroke="black" points="123.92,-127.73 99.92,-127.73 99.92,-109.73 123.92,-109.73 123.92,-127.73"/>
<text text-anchor="middle" x="111.92" y="-116.53" font-family="Times New Roman,serif" font-size="9.00">&#45;4</text>
</g>
<!-- &#45;4&#45;&gt;0 -->
<g id="edge10" class="edge">
<title>&#45;4&#45;&gt;0</title>
<path fill="none" stroke="green" stroke-width="0.71" d="M113.85,-109.5C116.89,-96.62 122.88,-71.18 127.34,-52.25"/>
<polygon fill="green" stroke="green" stroke-width="0.71" points="130.81,-52.8 129.69,-42.26 123.99,-51.19 130.81,-52.8"/>
</g>
<!-- &#45;4&#45;&gt;1 -->
<g id="edge11" class="edge">
<title>&#45;4&#45;&gt;1</title>
<path fill="none" stroke="red" stroke-width="0.32" stroke-dasharray="1,5" d="M116.41,-109.62C120.1,-103.67 125.87,-95.85 132.92,-91.15 182.47,-58.18 205.89,-75.26 261.92,-55.15 274.56,-50.62 288.28,-44.62 299.41,-39.47"/>
<polygon fill="red" stroke="red" stroke-width="0.32" points="301.24,-42.48 308.8,-35.05 298.26,-36.15 301.24,-42.48"/>
</g>
<!-- &#45;4&#45;&gt;2 -->
<g id="edge12" class="edge">
<title>&#45;4&#45;&gt;2</title>
<path fill="none" stroke="red" stroke-width="0.34" stroke-dasharray="1,5" d="M117.13,-109.65C121.02,-104.02 126.72,-96.58 132.92,-91.15 158.49,-68.73 193.2,-49.86 215.58,-38.88"/>
<polygon fill="red" stroke="red" stroke-width="0.34" points="217.13,-42.01 224.64,-34.53 214.11,-35.7 217.13,-42.01"/>
</g>
<!-- &#45;5 -->
<g id="node5" class="node">
<title>&#45;5</title>
<polygon fill="lightgray" stroke="black" points="381.92,-127.73 357.92,-127.73 357.92,-109.73 381.92,-109.73 381.92,-127.73"/>
<text text-anchor="middle" x="369.92" y="-116.53" font-family="Times New Roman,serif" font-size="9.00">&#45;5</text>
</g>
<!-- &#45;5&#45;&gt;1 -->
<g id="edge13" class="edge">
<title>&#45;5&#45;&gt;1</title>
<path fill="none" stroke="green" stroke-width="0.18" d="M365.49,-109.5C358.26,-96.08 343.71,-69.05 333.41,-49.93"/>
<polygon fill="green" stroke="green" stroke-width="0.18" points="336.44,-48.17 328.61,-41.02 330.27,-51.48 336.44,-48.17"/>
</g>
<!-- &#45;5&#45;&gt;2 -->
<g id="edge14" class="edge">
<title>&#45;5&#45;&gt;2</title>
<path fill="none" stroke="green" stroke-width="0.47" d="M364.74,-109.6C360.87,-103.95 355.17,-96.51 348.92,-91.15 321.71,-67.87 284.52,-49.01 260.86,-38.29"/>
<polygon fill="green" stroke="green" stroke-width="0.47" points="262.18,-35.05 251.62,-34.21 259.35,-41.45 262.18,-35.05"/>
</g>
<!-- &#45;5&#45;&gt;3 -->
<g id="edge15" class="edge">
<title>&#45;5&#45;&gt;3</title>
<path fill="none" stroke="red" stroke-width="0.14" stroke-dasharray="1,5" d="M369.92,-109.5C369.92,-96.75 369.92,-71.7 369.92,-52.84"/>
<polygon fill="red" stroke="red" stroke-width="0.14" points="373.42,-52.58 369.92,-42.58 366.42,-52.58 373.42,-52.58"/>
</g>
<!-- &#45;6 -->
<g id="node6" class="node">
<title>&#45;6</title>
<polygon fill="lightgray" stroke="black" points="165.92,-127.73 141.92,-127.73 141.92,-109.73 165.92,-109.73 165.92,-127.73"/>
<text text-anchor="middle" x="153.92" y="-116.53" font-family="Times New Roman,serif" font-size="9.00">&#45;6</text>
</g>
<!-- &#45;6&#45;&gt;0 -->
<g id="edge16" class="edge">
<title>&#45;6&#45;&gt;0</title>
<path fill="none" stroke="green" stroke-width="0.26" d="M151.98,-109.5C148.94,-96.62 142.95,-71.18 138.49,-52.25"/>
<polygon fill="green" stroke="green" stroke-width="0.26" points="141.84,-51.19 136.14,-42.26 135.03,-52.8 141.84,-51.19"/>
</g>
<!-- &#45;6&#45;&gt;1 -->
<g id="edge17" class="edge">
<title>&#45;6&#45;&gt;1</title>
<path fill="none" stroke="green" stroke-width="0.31" d="M158.9,-109.36C162.68,-103.6 168.35,-96.12 174.92,-91.15 208.3,-65.92 223.45,-71.63 261.92,-55.15 274.26,-49.87 287.96,-43.81 299.15,-38.82"/>
<polygon fill="green" stroke="green" stroke-width="0.31" points="300.91,-41.86 308.61,-34.58 298.05,-35.48 300.91,-41.86"/>
</g>
<!-- &#45;6&#45;&gt;2 -->
<g id="edge18" class="edge">
<title>&#45;6&#45;&gt;2</title>
<path fill="none" stroke="green" stroke-width="0.24" d="M159.92,-109.62C164,-104.25 169.59,-97.12 174.92,-91.15 189.37,-74.96 206.98,-57.66 219.9,-45.36"/>
<polygon fill="green" stroke="green" stroke-width="0.24" points="222.4,-47.81 227.27,-38.4 217.6,-42.72 222.4,-47.81"/>
</g>
<!-- &#45;7 -->
<g id="node7" class="node">
<title>&#45;7</title>
<polygon fill="lightgray" stroke="black" points="282.92,-200.31 258.92,-200.31 258.92,-182.31 282.92,-182.31 282.92,-200.31"/>
<text text-anchor="middle" x="270.92" y="-189.11" font-family="Times New Roman,serif" font-size="9.00">&#45;7</text>
</g>
<!-- &#45;7&#45;&gt;0 -->
<g id="edge19" class="edge">
<title>&#45;7&#45;&gt;0</title>
<path fill="none" stroke="green" stroke-width="0.15" stroke-dasharray="1,5" d="M258.87,-190.23C212.07,-189.62 43.42,-184.77 10.92,-146.31 -4.91,-127.58 -1.86,-112.07 10.92,-91.15 32.14,-56.42 79.44,-40.17 108.52,-33.2"/>
<polygon fill="green" stroke="green" stroke-width="0.15" points="109.31,-36.61 118.32,-31.04 107.8,-29.78 109.31,-36.61"/>
</g>
<!-- &#45;7&#45;&gt;1 -->
<g id="edge20" class="edge">
<title>&#45;7&#45;&gt;1</title>
<path fill="none" stroke="green" stroke-width="0.14" stroke-dasharray="1,5" d="M283.05,-190C327.16,-188.59 477.88,-181.25 506.92,-146.31 522.58,-127.45 522.24,-110.29 506.92,-91.15 461.07,-33.93 409.25,-92.1 345.92,-55.15 342.55,-53.19 339.39,-50.59 336.54,-47.79"/>
<polygon fill="green" stroke="green" stroke-width="0.14" points="339.05,-45.35 329.79,-40.2 333.82,-50 339.05,-45.35"/>
</g>
<!-- &#45;7&#45;&gt;2 -->
<g id="edge21" class="edge">
<title>&#45;7&#45;&gt;2</title>
<path fill="none" stroke="green" stroke-width="0.22" d="M258.66,-189.23C221.6,-185.7 111.97,-173.13 90.92,-146.31 75.78,-127.03 77.4,-111.6 90.92,-91.15 98.15,-80.22 174.9,-51.29 214.53,-36.92"/>
<polygon fill="green" stroke="green" stroke-width="0.22" points="215.96,-40.13 224.18,-33.44 213.59,-33.54 215.96,-40.13"/>
</g>
<!-- 18118 -->
<g id="node16" class="node">
<title>18118</title>
<ellipse fill="white" stroke="black" cx="469.92" cy="-118.73" rx="27.65" ry="27.65"/>
<text text-anchor="middle" x="469.92" y="-116.53" font-family="Times New Roman,serif" font-size="9.00">18118</text>
</g>
<!-- &#45;7&#45;&gt;18118 -->
<g id="edge35" class="edge">
<title>&#45;7&#45;&gt;18118</title>
<path fill="none" stroke="red" stroke-width="0.31" d="M283.22,-188.51C311.01,-184.12 380.28,-171.35 432.92,-146.31 435.38,-145.14 437.84,-143.8 440.27,-142.37"/>
<polygon fill="red" stroke="red" stroke-width="0.31" points="442.32,-145.21 448.81,-136.84 438.51,-139.33 442.32,-145.21"/>
</g>
<!-- &#45;8 -->
<g id="node8" class="node">
<title>&#45;8</title>
<polygon fill="lightgray" stroke="black" points="43.92,-127.73 19.92,-127.73 19.92,-109.73 43.92,-109.73 43.92,-127.73"/>
<text text-anchor="middle" x="31.92" y="-116.53" font-family="Times New Roman,serif" font-size="9.00">&#45;8</text>
</g>
<!-- &#45;8&#45;&gt;0 -->
<g id="edge22" class="edge">
<title>&#45;8&#45;&gt;0</title>
<path fill="none" stroke="red" stroke-width="0.45" d="M39.45,-109.61C44.53,-104.24 51.47,-97.11 57.92,-91.15 76.14,-74.32 98.02,-56.29 113.44,-43.93"/>
<polygon fill="red" stroke="red" stroke-width="0.45" points="116.05,-46.33 121.69,-37.36 111.69,-40.85 116.05,-46.33"/>
</g>
<!-- &#45;8&#45;&gt;2 -->
<g id="edge23" class="edge">
<title>&#45;8&#45;&gt;2</title>
<path fill="none" stroke="green" stroke-width="3.88" d="M38.19,-109.54C43.02,-103.71 50.18,-96.07 57.92,-91.15 64.77,-86.81 166.81,-52.38 214.13,-36.52"/>
<polygon fill="green" stroke="green" stroke-width="3.88" points="215.5,-39.76 223.87,-33.26 213.27,-33.12 215.5,-39.76"/>
</g>
<!-- &#45;9 -->
<g id="node9" class="node">
<title>&#45;9</title>
<polygon fill="lightgray" stroke="black" points="423.92,-127.73 399.92,-127.73 399.92,-109.73 423.92,-109.73 423.92,-127.73"/>
<text text-anchor="middle" x="411.92" y="-116.53" font-family="Times New Roman,serif" font-size="9.00">&#45;9</text>
</g>
<!-- &#45;9&#45;&gt;1 -->
<g id="edge24" class="edge">
<title>&#45;9&#45;&gt;1</title>
<path fill="none" stroke="green" stroke-width="0.21" stroke-dasharray="1,5" d="M406.12,-109.43C402.13,-103.97 396.55,-96.83 390.92,-91.15 372.86,-72.99 364.56,-72.72 345.92,-55.15 343.26,-52.65 340.55,-49.89 337.96,-47.13"/>
<polygon fill="green" stroke="green" stroke-width="0.21" points="340.42,-44.63 331.11,-39.55 335.22,-49.32 340.42,-44.63"/>
</g>
<!-- &#45;9&#45;&gt;2 -->
<g id="edge25" class="edge">
<title>&#45;9&#45;&gt;2</title>
<path fill="none" stroke="red" stroke-width="0.18" stroke-dasharray="1,5" d="M406.97,-109.32C403.2,-103.53 397.54,-96.04 390.92,-91.15 355.25,-64.84 338.86,-72.13 297.92,-55.15 285.51,-50.01 271.8,-43.96 260.63,-38.94"/>
<polygon fill="red" stroke="red" stroke-width="0.18" points="261.74,-35.6 251.18,-34.67 258.85,-41.98 261.74,-35.6"/>
</g>
<!-- &#45;9&#45;&gt;3 -->
<g id="edge26" class="edge">
<title>&#45;9&#45;&gt;3</title>
<path fill="none" stroke="green" stroke-width="2.68" d="M408.04,-109.5C401.78,-96.22 389.24,-69.59 380.25,-50.51"/>
<polygon fill="green" stroke="green" stroke-width="2.68" points="383.35,-48.88 375.92,-41.33 377.02,-51.87 383.35,-48.88"/>
</g>
<!-- &#45;10 -->
<g id="node10" class="node">
<title>&#45;10</title>
<polygon fill="lightgray" stroke="black" points="297.42,-127.73 268.42,-127.73 268.42,-109.73 297.42,-109.73 297.42,-127.73"/>
<text text-anchor="middle" x="282.92" y="-116.53" font-family="Times New Roman,serif" font-size="9.00">&#45;10</text>
</g>
<!-- &#45;10&#45;&gt;0 -->
<g id="edge27" class="edge">
<title>&#45;10&#45;&gt;0</title>
<path fill="none" stroke="green" stroke-width="2.19" d="M276.87,-109.54C272.38,-103.87 265.85,-96.41 258.92,-91.15 226.44,-66.54 182.77,-47.43 156.3,-37.1"/>
<polygon fill="green" stroke="green" stroke-width="2.19" points="157.32,-33.75 146.73,-33.46 154.83,-40.29 157.32,-33.75"/>
</g>
<!-- &#45;10&#45;&gt;1 -->
<g id="edge28" class="edge">
<title>&#45;10&#45;&gt;1</title>
<path fill="none" stroke="red" stroke-width="0.39" d="M286.51,-109.5C292.3,-96.29 303.85,-69.89 312.18,-50.83"/>
<polygon fill="red" stroke="red" stroke-width="0.39" points="315.4,-52.2 316.2,-41.64 308.99,-49.4 315.4,-52.2"/>
</g>
<!-- &#45;10&#45;&gt;2 -->
<g id="edge29" class="edge">
<title>&#45;10&#45;&gt;2</title>
<path fill="none" stroke="red" stroke-width="0.34" d="M278.76,-109.5C272.06,-96.22 258.62,-69.59 248.99,-50.51"/>
<polygon fill="red" stroke="red" stroke-width="0.34" points="251.98,-48.68 244.35,-41.33 245.73,-51.83 251.98,-48.68"/>
</g>
<!-- &#45;10&#45;&gt;3 -->
<g id="edge30" class="edge">
<title>&#45;10&#45;&gt;3</title>
<path fill="none" stroke="red" stroke-width="0.6" stroke-dasharray="1,5" d="M289.87,-109.65C294.57,-104.29 300.97,-97.17 306.92,-91.15 323.5,-74.38 329.33,-71.93 345.92,-55.15 348.49,-52.56 351.14,-49.75 353.71,-46.97"/>
<polygon fill="red" stroke="red" stroke-width="0.6" points="356.45,-49.15 360.56,-39.39 351.25,-44.46 356.45,-49.15"/>
</g>
<!-- &#45;11 -->
<g id="node11" class="node">
<title>&#45;11</title>
<polygon fill="lightgray" stroke="black" points="583.42,-127.73 554.42,-127.73 554.42,-109.73 583.42,-109.73 583.42,-127.73"/>
<text text-anchor="middle" x="568.92" y="-116.53" font-family="Times New Roman,serif" font-size="9.00">&#45;11</text>
</g>
<!-- &#45;11&#45;&gt;1 -->
<g id="edge31" class="edge">
<title>&#45;11&#45;&gt;1</title>
<path fill="none" stroke="green" stroke-width="2.84" d="M562.17,-109.44C556.79,-103.4 548.72,-95.54 539.92,-91.15 461.44,-52.01 422.45,-97.96 345.92,-55.15 342.51,-53.25 339.34,-50.69 336.48,-47.9"/>
<polygon fill="green" stroke="green" stroke-width="2.84" points="338.99,-45.45 329.74,-40.3 333.76,-50.1 338.99,-45.45"/>
</g>
<!-- &#45;11&#45;&gt;2 -->
<g id="edge32" class="edge">
<title>&#45;11&#45;&gt;2</title>
<path fill="none" stroke="green" stroke-width="0.2" d="M554,-110.16C541.66,-104.19 523.54,-96.07 506.92,-91.15 416.53,-64.4 388.13,-82.45 297.92,-55.15 284.93,-51.22 271.04,-45.2 259.89,-39.88"/>
<polygon fill="green" stroke="green" stroke-width="0.2" points="261.42,-36.73 250.9,-35.45 258.33,-43.01 261.42,-36.73"/>
</g>
<!-- &#45;11&#45;&gt;3 -->
<g id="edge33" class="edge">
<title>&#45;11&#45;&gt;3</title>
<path fill="none" stroke="red" stroke-width="0.47" d="M561.48,-109.37C555.99,-103.61 548.08,-96.13 539.92,-91.15 492.17,-62.06 428.77,-43.2 394.47,-34.39"/>
<polygon fill="red" stroke="red" stroke-width="0.47" points="394.96,-30.9 384.41,-31.88 393.27,-37.7 394.96,-30.9"/>
</g>
<!-- 16399 -->
<g id="node17" class="node">
<title>16399</title>
<ellipse fill="white" stroke="black" cx="568.92" cy="-27.58" rx="27.65" ry="27.65"/>
<text text-anchor="middle" x="568.92" y="-25.38" font-family="Times New Roman,serif" font-size="9.00">16399</text>
</g>
<!-- &#45;11&#45;&gt;16399 -->
<g id="edge34" class="edge">
<title>&#45;11&#45;&gt;16399</title>
<path fill="none" stroke="green" stroke-width="0.33" stroke-dasharray="1,5" d="M568.92,-109.5C568.92,-99.53 568.92,-82.05 568.92,-65.88"/>
<polygon fill="green" stroke="green" stroke-width="0.33" points="572.42,-65.54 568.92,-55.54 565.42,-65.54 572.42,-65.54"/>
</g>
<!-- 18118&#45;&gt;1 -->
<g id="edge36" class="edge">
<title>18118&#45;&gt;1</title>
<path fill="none" stroke="green" stroke-width="0.48" d="M448.55,-101.12C443.56,-97.61 438.17,-94.08 432.92,-91.15 396.35,-70.81 380.11,-79.27 345.92,-55.15 342.78,-52.95 339.77,-50.26 337,-47.46"/>
<polygon fill="green" stroke="green" stroke-width="0.48" points="339.59,-45.11 330.31,-40 334.38,-49.78 339.59,-45.11"/>
</g>
</g>
</svg>
