<?xml version="1.0" encoding="UTF-8" standalone="no"?>
<!DOCTYPE svg PUBLIC "-//W3C//DTD SVG 1.1//EN"
 "http://www.w3.org/Graphics/SVG/1.1/DTD/svg11.dtd">
<!-- Generated by graphviz version 2.47.1 (20210417.1919)
 -->
<!-- Pages: 1 -->
<svg width="559pt" height="209pt"
 viewBox="0.00 0.00 558.53 208.69" xmlns="http://www.w3.org/2000/svg" xmlns:xlink="http://www.w3.org/1999/xlink">
<g id="graph0" class="graph" transform="scale(1 1) rotate(0) translate(4 204.69)">
<polygon fill="white" stroke="transparent" points="-4,4 -4,-204.69 554.53,-204.69 554.53,4 -4,4"/>
<!-- &#45;1 -->
<g id="node1" class="node">
<title>&#45;1</title>
<polygon fill="lightgray" stroke="black" points="36.78,-184.94 12.78,-184.94 12.78,-166.94 36.78,-166.94 36.78,-184.94"/>
<text text-anchor="middle" x="24.78" y="-173.74" font-family="Times New Roman,serif" font-size="9.00">&#45;1</text>
</g>
<!-- 3 -->
<g id="node15" class="node">
<title>3</title>
<ellipse fill="lightblue" stroke="black" cx="37.78" cy="-14.85" rx="14.7" ry="14.7"/>
<text text-anchor="middle" x="37.78" y="-12.65" font-family="Times New Roman,serif" font-size="9.00">3</text>
</g>
<!-- &#45;1&#45;&gt;3 -->
<g id="edge3" class="edge">
<title>&#45;1&#45;&gt;3</title>
<path fill="none" stroke="red" stroke-width="0.1" stroke-dasharray="1,5" d="M20.57,-166.85C11.62,-148.53 -7.61,-102.61 3.78,-65.7 7.34,-54.17 14.58,-42.92 21.47,-34.04"/>
<polygon fill="red" stroke="red" stroke-width="0.1" points="24.17,-36.26 27.83,-26.31 18.77,-31.81 24.17,-36.26"/>
</g>
<!-- 2569 -->
<g id="node16" class="node">
<title>2569</title>
<ellipse fill="white" stroke="black" cx="37.78" cy="-90.45" rx="25" ry="25"/>
<text text-anchor="middle" x="37.78" y="-88.25" font-family="Times New Roman,serif" font-size="9.00">2569</text>
</g>
<!-- &#45;1&#45;&gt;2569 -->
<g id="edge7" class="edge">
<title>&#45;1&#45;&gt;2569</title>
<path fill="none" stroke="green" stroke-width="0.3" d="M26.03,-166.94C27.53,-157.32 30.13,-140.57 32.51,-125.28"/>
<polygon fill="green" stroke="green" stroke-width="0.3" points="36.03,-125.46 34.11,-115.04 29.11,-124.38 36.03,-125.46"/>
</g>
<!-- &#45;2 -->
<g id="node2" class="node">
<title>&#45;2</title>
<polygon fill="lightgray" stroke="black" points="83.78,-184.94 59.78,-184.94 59.78,-166.94 83.78,-166.94 83.78,-184.94"/>
<text text-anchor="middle" x="71.78" y="-173.74" font-family="Times New Roman,serif" font-size="9.00">&#45;2</text>
</g>
<!-- &#45;3 -->
<g id="node3" class="node">
<title>&#45;3</title>
<polygon fill="lightgray" stroke="black" points="128.78,-184.94 104.78,-184.94 104.78,-166.94 128.78,-166.94 128.78,-184.94"/>
<text text-anchor="middle" x="116.78" y="-173.74" font-family="Times New Roman,serif" font-size="9.00">&#45;3</text>
</g>
<!-- &#45;4 -->
<g id="node4" class="node">
<title>&#45;4</title>
<polygon fill="lightgray" stroke="black" points="171.78,-184.94 147.78,-184.94 147.78,-166.94 171.78,-166.94 171.78,-184.94"/>
<text text-anchor="middle" x="159.78" y="-173.74" font-family="Times New Roman,serif" font-size="9.00">&#45;4</text>
</g>
<!-- 2411 -->
<g id="node17" class="node">
<title>2411</title>
<ellipse fill="white" stroke="black" cx="173.78" cy="-90.45" rx="25" ry="25"/>
<text text-anchor="middle" x="173.78" y="-88.25" font-family="Times New Roman,serif" font-size="9.00">2411</text>
</g>
<!-- &#45;4&#45;&gt;2411 -->
<g id="edge9" class="edge">
<title>&#45;4&#45;&gt;2411</title>
<path fill="none" stroke="red" stroke-width="0.1" d="M161.12,-166.94C162.74,-157.32 165.55,-140.57 168.11,-125.28"/>
<polygon fill="red" stroke="red" stroke-width="0.1" points="171.62,-125.48 169.83,-115.04 164.72,-124.32 171.62,-125.48"/>
</g>
<!-- &#45;5 -->
<g id="node5" class="node">
<title>&#45;5</title>
<polygon fill="lightgray" stroke="black" points="256.78,-184.94 232.78,-184.94 232.78,-166.94 256.78,-166.94 256.78,-184.94"/>
<text text-anchor="middle" x="244.78" y="-173.74" font-family="Times New Roman,serif" font-size="9.00">&#45;5</text>
</g>
<!-- 1 -->
<g id="node13" class="node">
<title>1</title>
<ellipse fill="lightblue" stroke="black" cx="244.78" cy="-90.45" rx="14.7" ry="14.7"/>
<text text-anchor="middle" x="244.78" y="-88.25" font-family="Times New Roman,serif" font-size="9.00">1</text>
</g>
<!-- &#45;5&#45;&gt;1 -->
<g id="edge6" class="edge">
<title>&#45;5&#45;&gt;1</title>
<path fill="none" stroke="red" stroke-width="0.1" d="M244.78,-166.94C244.78,-155.18 244.78,-132.74 244.78,-115.37"/>
<polygon fill="red" stroke="red" stroke-width="0.1" points="248.28,-115.35 244.78,-105.35 241.28,-115.35 248.28,-115.35"/>
</g>
<!-- &#45;6 -->
<g id="node6" class="node">
<title>&#45;6</title>
<polygon fill="lightgray" stroke="black" points="298.78,-184.94 274.78,-184.94 274.78,-166.94 298.78,-166.94 298.78,-184.94"/>
<text text-anchor="middle" x="286.78" y="-173.74" font-family="Times New Roman,serif" font-size="9.00">&#45;6</text>
</g>
<!-- &#45;7 -->
<g id="node7" class="node">
<title>&#45;7</title>
<polygon fill="lightgray" stroke="black" points="104.78,-99.45 80.78,-99.45 80.78,-81.45 104.78,-81.45 104.78,-99.45"/>
<text text-anchor="middle" x="92.78" y="-88.25" font-family="Times New Roman,serif" font-size="9.00">&#45;7</text>
</g>
<!-- &#45;7&#45;&gt;3 -->
<g id="edge2" class="edge">
<title>&#45;7&#45;&gt;3</title>
<path fill="none" stroke="red" stroke-width="0.1" stroke-dasharray="1,5" d="M86.69,-81.29C78.46,-70.28 63.53,-50.31 52.33,-35.32"/>
<polygon fill="red" stroke="red" stroke-width="0.1" points="55.03,-33.08 46.24,-27.17 49.42,-37.27 55.03,-33.08"/>
</g>
<!-- &#45;8 -->
<g id="node8" class="node">
<title>&#45;8</title>
<polygon fill="lightgray" stroke="black" points="340.78,-184.94 316.78,-184.94 316.78,-166.94 340.78,-166.94 340.78,-184.94"/>
<text text-anchor="middle" x="328.78" y="-173.74" font-family="Times New Roman,serif" font-size="9.00">&#45;8</text>
</g>
<!-- &#45;9 -->
<g id="node9" class="node">
<title>&#45;9</title>
<polygon fill="lightgray" stroke="black" points="213.78,-184.94 189.78,-184.94 189.78,-166.94 213.78,-166.94 213.78,-184.94"/>
<text text-anchor="middle" x="201.78" y="-173.74" font-family="Times New Roman,serif" font-size="9.00">&#45;9</text>
</g>
<!-- &#45;9&#45;&gt;2411 -->
<g id="edge4" class="edge">
<title>&#45;9&#45;&gt;2411</title>
<path fill="none" stroke="green" stroke-width="0.3" d="M199.1,-166.94C195.8,-157.09 189.99,-139.77 184.77,-124.21"/>
<polygon fill="green" stroke="green" stroke-width="0.3" points="187.95,-122.69 181.45,-114.32 181.31,-124.92 187.95,-122.69"/>
</g>
<!-- &#45;10 -->
<g id="node10" class="node">
<title>&#45;10</title>
<polygon fill="lightgray" stroke="black" points="388.28,-184.94 359.28,-184.94 359.28,-166.94 388.28,-166.94 388.28,-184.94"/>
<text text-anchor="middle" x="373.78" y="-173.74" font-family="Times New Roman,serif" font-size="9.00">&#45;10</text>
</g>
<!-- &#45;11 -->
<g id="node11" class="node">
<title>&#45;11</title>
<polygon fill="lightgray" stroke="black" points="435.28,-184.94 406.28,-184.94 406.28,-166.94 435.28,-166.94 435.28,-184.94"/>
<text text-anchor="middle" x="420.78" y="-173.74" font-family="Times New Roman,serif" font-size="9.00">&#45;11</text>
</g>
<!-- 0 -->
<g id="node12" class="node">
<title>0</title>
<ellipse fill="lightblue" stroke="black" cx="173.78" cy="-14.85" rx="14.7" ry="14.7"/>
<text text-anchor="middle" x="173.78" y="-12.65" font-family="Times New Roman,serif" font-size="9.00">0</text>
</g>
<!-- 2 -->
<g id="node14" class="node">
<title>2</title>
<ellipse fill="lightblue" stroke="black" cx="467.78" cy="-175.94" rx="14.7" ry="14.7"/>
<text text-anchor="middle" x="467.78" y="-173.74" font-family="Times New Roman,serif" font-size="9.00">2</text>
</g>
<!-- 2569&#45;&gt;3 -->
<g id="edge8" class="edge">
<title>2569&#45;&gt;3</title>
<path fill="none" stroke="red" stroke-width="0.1" d="M37.78,-65.35C37.78,-57.19 37.78,-48.07 37.78,-39.92"/>
<polygon fill="red" stroke="red" stroke-width="0.1" points="41.28,-39.9 37.78,-29.9 34.28,-39.9 41.28,-39.9"/>
</g>
<!-- 2411&#45;&gt;0 -->
<g id="edge5" class="edge">
<title>2411&#45;&gt;0</title>
<path fill="none" stroke="red" stroke-width="0.1" d="M173.78,-65.35C173.78,-57.19 173.78,-48.07 173.78,-39.92"/>
<polygon fill="red" stroke="red" stroke-width="0.1" points="177.28,-39.9 173.78,-29.9 170.28,-39.9 177.28,-39.9"/>
</g>
<!-- 2125 -->
<g id="node18" class="node">
<title>2125</title>
<ellipse fill="white" stroke="black" cx="525.78" cy="-175.94" rx="25" ry="25"/>
<text text-anchor="middle" x="525.78" y="-173.74" font-family="Times New Roman,serif" font-size="9.00">2125</text>
</g>
<!-- 1790 -->
<g id="node19" class="node">
<title>1790</title>
<ellipse fill="white" stroke="black" cx="525.78" cy="-90.45" rx="25" ry="25"/>
<text text-anchor="middle" x="525.78" y="-88.25" font-family="Times New Roman,serif" font-size="9.00">1790</text>
</g>
<!-- 2125&#45;&gt;1790 -->
<g id="edge1" class="edge">
<title>2125&#45;&gt;1790</title>
<path fill="none" stroke="green" stroke-width="0.3" d="M525.78,-150.79C525.78,-142.85 525.78,-133.87 525.78,-125.33"/>
<polygon fill="green" stroke="green" stroke-width="0.3" points="529.28,-125.26 525.78,-115.26 522.28,-125.26 529.28,-125.26"/>
</g>
</g>
</svg>
