<?xml version="1.0" encoding="UTF-8" standalone="no"?>
<!DOCTYPE svg PUBLIC "-//W3C//DTD SVG 1.1//EN"
 "http://www.w3.org/Graphics/SVG/1.1/DTD/svg11.dtd">
<!-- Generated by graphviz version 2.47.1 (20210417.1919)
 -->
<!-- Pages: 1 -->
<svg width="583pt" height="170pt"
 viewBox="0.00 0.00 583.36 170.12" xmlns="http://www.w3.org/2000/svg" xmlns:xlink="http://www.w3.org/1999/xlink">
<g id="graph0" class="graph" transform="scale(1 1) rotate(0) translate(4 166.12)">
<polygon fill="white" stroke="transparent" points="-4,4 -4,-166.12 579.36,-166.12 579.36,4 -4,4"/>
<!-- &#45;1 -->
<g id="node1" class="node">
<title>&#45;1</title>
<polygon fill="lightgray" stroke="black" points="185.76,-95.91 161.76,-95.91 161.76,-77.91 185.76,-77.91 185.76,-95.91"/>
<text text-anchor="middle" x="173.76" y="-84.71" font-family="Times New Roman,serif" font-size="9.00">&#45;1</text>
</g>
<!-- 1 -->
<g id="node13" class="node">
<title>1</title>
<ellipse fill="lightblue" stroke="black" cx="257.76" cy="-14.85" rx="14.7" ry="14.7"/>
<text text-anchor="middle" x="257.76" y="-12.65" font-family="Times New Roman,serif" font-size="9.00">1</text>
</g>
<!-- &#45;1&#45;&gt;1 -->
<g id="edge1" class="edge">
<title>&#45;1&#45;&gt;1</title>
<path fill="none" stroke="red" stroke-width="0.24" d="M181.76,-77.85C185.61,-74.07 190.34,-69.56 194.76,-65.7 208.93,-53.32 225.65,-40.15 238.31,-30.46"/>
<polygon fill="red" stroke="red" stroke-width="0.24" points="240.5,-33.19 246.34,-24.35 236.26,-27.62 240.5,-33.19"/>
</g>
<!-- 3 -->
<g id="node15" class="node">
<title>3</title>
<ellipse fill="lightblue" stroke="black" cx="173.76" cy="-14.85" rx="14.7" ry="14.7"/>
<text text-anchor="middle" x="173.76" y="-12.65" font-family="Times New Roman,serif" font-size="9.00">3</text>
</g>
<!-- &#45;1&#45;&gt;3 -->
<g id="edge2" class="edge">
<title>&#45;1&#45;&gt;3</title>
<path fill="none" stroke="red" stroke-width="0.16" d="M173.76,-77.87C173.76,-68.72 173.76,-53.33 173.76,-40.16"/>
<polygon fill="red" stroke="red" stroke-width="0.16" points="177.26,-39.82 173.76,-29.82 170.26,-39.82 177.26,-39.82"/>
</g>
<!-- &#45;2 -->
<g id="node2" class="node">
<title>&#45;2</title>
<polygon fill="lightgray" stroke="black" points="359.76,-95.91 335.76,-95.91 335.76,-77.91 359.76,-77.91 359.76,-95.91"/>
<text text-anchor="middle" x="347.76" y="-84.71" font-family="Times New Roman,serif" font-size="9.00">&#45;2</text>
</g>
<!-- 0 -->
<g id="node12" class="node">
<title>0</title>
<ellipse fill="lightblue" stroke="black" cx="468.76" cy="-14.85" rx="14.7" ry="14.7"/>
<text text-anchor="middle" x="468.76" y="-12.65" font-family="Times New Roman,serif" font-size="9.00">0</text>
</g>
<!-- &#45;2&#45;&gt;0 -->
<g id="edge3" class="edge">
<title>&#45;2&#45;&gt;0</title>
<path fill="none" stroke="red" stroke-width="0.23" d="M359.8,-78.94C380.16,-67.15 421.63,-43.14 447.13,-28.38"/>
<polygon fill="red" stroke="red" stroke-width="0.23" points="449.14,-31.25 456.04,-23.21 445.63,-25.2 449.14,-31.25"/>
</g>
<!-- &#45;2&#45;&gt;1 -->
<g id="edge4" class="edge">
<title>&#45;2&#45;&gt;1</title>
<path fill="none" stroke="green" stroke-width="0.11" d="M339.83,-77.76C336,-73.96 331.26,-69.46 326.76,-65.7 311.13,-52.64 292.33,-39.2 278.31,-29.56"/>
<polygon fill="green" stroke="green" stroke-width="0.11" points="280.1,-26.55 269.86,-23.83 276.17,-32.34 280.1,-26.55"/>
</g>
<!-- 2 -->
<g id="node14" class="node">
<title>2</title>
<ellipse fill="lightblue" stroke="black" cx="363.76" cy="-14.85" rx="14.7" ry="14.7"/>
<text text-anchor="middle" x="363.76" y="-12.65" font-family="Times New Roman,serif" font-size="9.00">2</text>
</g>
<!-- &#45;2&#45;&gt;2 -->
<g id="edge5" class="edge">
<title>&#45;2&#45;&gt;2</title>
<path fill="none" stroke="green" stroke-width="0.77" d="M349.59,-77.87C351.72,-68.57 355.32,-52.83 358.35,-39.53"/>
<polygon fill="green" stroke="green" stroke-width="0.77" points="361.81,-40.08 360.63,-29.56 354.99,-38.53 361.81,-40.08"/>
</g>
<!-- &#45;2&#45;&gt;3 -->
<g id="edge6" class="edge">
<title>&#45;2&#45;&gt;3</title>
<path fill="none" stroke="red" stroke-width="0.49" d="M341.06,-77.91C337.23,-73.77 332.14,-68.93 326.76,-65.7 304.74,-52.48 235.44,-32.54 198.12,-22.35"/>
<polygon fill="red" stroke="red" stroke-width="0.49" points="198.65,-18.86 188.08,-19.63 196.82,-25.62 198.65,-18.86"/>
</g>
<!-- &#45;3 -->
<g id="node3" class="node">
<title>&#45;3</title>
<polygon fill="lightgray" stroke="black" points="227.76,-95.91 203.76,-95.91 203.76,-77.91 227.76,-77.91 227.76,-95.91"/>
<text text-anchor="middle" x="215.76" y="-84.71" font-family="Times New Roman,serif" font-size="9.00">&#45;3</text>
</g>
<!-- &#45;3&#45;&gt;1 -->
<g id="edge7" class="edge">
<title>&#45;3&#45;&gt;1</title>
<path fill="none" stroke="green" stroke-width="0.2" stroke-dasharray="1,5" d="M220.58,-77.87C226.53,-67.95 236.88,-50.67 245.16,-36.87"/>
<polygon fill="green" stroke="green" stroke-width="0.2" points="248.33,-38.38 250.47,-28.01 242.33,-34.79 248.33,-38.38"/>
</g>
<!-- &#45;3&#45;&gt;2 -->
<g id="edge8" class="edge">
<title>&#45;3&#45;&gt;2</title>
<path fill="none" stroke="green" stroke-width="0.45" stroke-dasharray="1,5" d="M222.91,-77.63C226.71,-73.62 231.65,-68.98 236.76,-65.7 269.71,-44.57 313.03,-29.95 339.61,-22.24"/>
<polygon fill="green" stroke="green" stroke-width="0.45" points="340.89,-25.51 349.57,-19.44 339,-18.77 340.89,-25.51"/>
</g>
<!-- &#45;3&#45;&gt;3 -->
<g id="edge9" class="edge">
<title>&#45;3&#45;&gt;3</title>
<path fill="none" stroke="green" stroke-width="0.39" stroke-dasharray="1,5" d="M210.94,-77.87C204.99,-67.95 194.64,-50.67 186.36,-36.87"/>
<polygon fill="green" stroke="green" stroke-width="0.39" points="189.19,-34.79 181.05,-28.01 183.19,-38.38 189.19,-34.79"/>
</g>
<!-- &#45;4 -->
<g id="node4" class="node">
<title>&#45;4</title>
<polygon fill="lightgray" stroke="black" points="269.76,-95.91 245.76,-95.91 245.76,-77.91 269.76,-77.91 269.76,-95.91"/>
<text text-anchor="middle" x="257.76" y="-84.71" font-family="Times New Roman,serif" font-size="9.00">&#45;4</text>
</g>
<!-- &#45;4&#45;&gt;1 -->
<g id="edge10" class="edge">
<title>&#45;4&#45;&gt;1</title>
<path fill="none" stroke="green" stroke-width="0.19" stroke-dasharray="1,5" d="M257.76,-77.87C257.76,-68.72 257.76,-53.33 257.76,-40.16"/>
<polygon fill="green" stroke="green" stroke-width="0.19" points="261.26,-39.82 257.76,-29.82 254.26,-39.82 261.26,-39.82"/>
</g>
<!-- &#45;4&#45;&gt;2 -->
<g id="edge29" class="edge">
<title>&#45;4&#45;&gt;2</title>
<path fill="none" stroke="green" stroke-width="1" stroke-dasharray="1,5" d="M265.53,-77.57C269.33,-73.73 274.08,-69.24 278.76,-65.7 298.89,-50.44 324.08,-36.2 341.79,-26.88"/>
<polygon fill="green" stroke="green" stroke-width="1" points="343.51,-29.93 350.78,-22.23 340.29,-23.72 343.51,-29.93"/>
</g>
<!-- &#45;5 -->
<g id="node5" class="node">
<title>&#45;5</title>
<polygon fill="lightgray" stroke="black" points="439.76,-95.91 415.76,-95.91 415.76,-77.91 439.76,-77.91 439.76,-95.91"/>
<text text-anchor="middle" x="427.76" y="-84.71" font-family="Times New Roman,serif" font-size="9.00">&#45;5</text>
</g>
<!-- &#45;5&#45;&gt;0 -->
<g id="edge11" class="edge">
<title>&#45;5&#45;&gt;0</title>
<path fill="none" stroke="green" stroke-width="0.24" stroke-dasharray="1,5" d="M432.46,-77.87C438.27,-67.95 448.38,-50.67 456.46,-36.87"/>
<polygon fill="green" stroke="green" stroke-width="0.24" points="459.61,-38.41 461.64,-28.01 453.57,-34.87 459.61,-38.41"/>
</g>
<!-- &#45;5&#45;&gt;2 -->
<g id="edge12" class="edge">
<title>&#45;5&#45;&gt;2</title>
<path fill="none" stroke="green" stroke-width="0.15" stroke-dasharray="1,5" d="M420.42,-77.87C410.76,-67.3 393.49,-48.39 380.54,-34.22"/>
<polygon fill="green" stroke="green" stroke-width="0.15" points="382.84,-31.55 373.51,-26.53 377.67,-36.27 382.84,-31.55"/>
</g>
<!-- &#45;5&#45;&gt;3 -->
<g id="edge13" class="edge">
<title>&#45;5&#45;&gt;3</title>
<path fill="none" stroke="red" stroke-width="0.33" stroke-dasharray="1,5" d="M415.65,-81.45C403.78,-77.15 385.15,-70.59 368.76,-65.7 307.81,-47.5 234.95,-29.98 197.93,-21.37"/>
<polygon fill="red" stroke="red" stroke-width="0.33" points="198.59,-17.93 188.06,-19.09 197.01,-24.75 198.59,-17.93"/>
</g>
<!-- &#45;6 -->
<g id="node6" class="node">
<title>&#45;6</title>
<polygon fill="lightgray" stroke="black" points="41.76,-95.91 17.76,-95.91 17.76,-77.91 41.76,-77.91 41.76,-95.91"/>
<text text-anchor="middle" x="29.76" y="-84.71" font-family="Times New Roman,serif" font-size="9.00">&#45;6</text>
</g>
<!-- &#45;6&#45;&gt;3 -->
<g id="edge14" class="edge">
<title>&#45;6&#45;&gt;3</title>
<path fill="none" stroke="red" stroke-width="0.63" stroke-dasharray="1,5" d="M36.93,-77.66C40.73,-73.65 45.67,-69 50.76,-65.7 82.53,-45.08 124.2,-30.39 149.97,-22.51"/>
<polygon fill="red" stroke="red" stroke-width="0.63" points="151.05,-25.84 159.65,-19.65 149.06,-19.13 151.05,-25.84"/>
</g>
<!-- &#45;7 -->
<g id="node7" class="node">
<title>&#45;7</title>
<polygon fill="lightgray" stroke="black" points="479.76,-162.12 455.76,-162.12 455.76,-144.12 479.76,-144.12 479.76,-162.12"/>
<text text-anchor="middle" x="467.76" y="-150.92" font-family="Times New Roman,serif" font-size="9.00">&#45;7</text>
</g>
<!-- &#45;7&#45;&gt;0 -->
<g id="edge15" class="edge">
<title>&#45;7&#45;&gt;0</title>
<path fill="none" stroke="green" stroke-width="0.68" stroke-dasharray="1,5" d="M480,-150.92C502.04,-148.02 547.96,-138.46 567.76,-108.12 578.06,-92.33 577.65,-81.75 567.76,-65.7 551.65,-39.56 517.16,-26.64 493.46,-20.61"/>
<polygon fill="green" stroke="green" stroke-width="0.68" points="493.97,-17.14 483.44,-18.31 492.4,-23.96 493.97,-17.14"/>
</g>
<!-- &#45;7&#45;&gt;2 -->
<g id="edge16" class="edge">
<title>&#45;7&#45;&gt;2</title>
<path fill="none" stroke="red" stroke-width="0.61" d="M468.03,-144.12C468.19,-127.78 466.46,-90.06 448.76,-65.7 433.6,-44.84 406.83,-31.26 387.37,-23.62"/>
<polygon fill="red" stroke="red" stroke-width="0.61" points="388.56,-20.33 377.96,-20.16 386.14,-26.9 388.56,-20.33"/>
</g>
<!-- 441 -->
<g id="node16" class="node">
<title>441</title>
<ellipse fill="white" stroke="black" cx="80.76" cy="-86.91" rx="21.43" ry="21.43"/>
<text text-anchor="middle" x="80.76" y="-84.71" font-family="Times New Roman,serif" font-size="9.00">441</text>
</g>
<!-- &#45;7&#45;&gt;441 -->
<g id="edge30" class="edge">
<title>&#45;7&#45;&gt;441</title>
<path fill="none" stroke="green" stroke-width="0.28" d="M455.49,-151.38C400.47,-147.94 176.27,-132.62 110.76,-108.12 109.14,-107.52 107.53,-106.81 105.93,-106.03"/>
<polygon fill="green" stroke="green" stroke-width="0.28" points="107.54,-102.92 97.13,-100.94 104.03,-108.98 107.54,-102.92"/>
</g>
<!-- &#45;8 -->
<g id="node8" class="node">
<title>&#45;8</title>
<polygon fill="lightgray" stroke="black" points="143.76,-95.91 119.76,-95.91 119.76,-77.91 143.76,-77.91 143.76,-95.91"/>
<text text-anchor="middle" x="131.76" y="-84.71" font-family="Times New Roman,serif" font-size="9.00">&#45;8</text>
</g>
<!-- &#45;8&#45;&gt;1 -->
<g id="edge17" class="edge">
<title>&#45;8&#45;&gt;1</title>
<path fill="none" stroke="red" stroke-width="0.26" d="M139.01,-77.78C142.84,-73.81 147.76,-69.15 152.76,-65.7 178.84,-47.67 212.46,-33 234.54,-24.35"/>
<polygon fill="red" stroke="red" stroke-width="0.26" points="235.99,-27.54 244.08,-20.7 233.49,-21 235.99,-27.54"/>
</g>
<!-- &#45;8&#45;&gt;3 -->
<g id="edge18" class="edge">
<title>&#45;8&#45;&gt;3</title>
<path fill="none" stroke="red" stroke-width="0.86" d="M136.58,-77.87C142.53,-67.95 152.88,-50.67 161.16,-36.87"/>
<polygon fill="red" stroke="red" stroke-width="0.86" points="164.33,-38.38 166.47,-28.01 158.33,-34.79 164.33,-38.38"/>
</g>
<!-- &#45;9 -->
<g id="node9" class="node">
<title>&#45;9</title>
<polygon fill="lightgray" stroke="black" points="246.76,-162.12 222.76,-162.12 222.76,-144.12 246.76,-144.12 246.76,-162.12"/>
<text text-anchor="middle" x="234.76" y="-150.92" font-family="Times New Roman,serif" font-size="9.00">&#45;9</text>
</g>
<!-- &#45;9&#45;&gt;0 -->
<g id="edge19" class="edge">
<title>&#45;9&#45;&gt;0</title>
<path fill="none" stroke="red" stroke-width="0.16" d="M246.86,-152.34C298.12,-152.96 496.47,-152.44 534.76,-108.12 547.09,-93.86 543.16,-82.58 534.76,-65.7 525.7,-47.5 506.46,-34.18 491.09,-25.91"/>
<polygon fill="red" stroke="red" stroke-width="0.16" points="492.64,-22.78 482.14,-21.42 489.5,-29.03 492.64,-22.78"/>
</g>
<!-- &#45;9&#45;&gt;2 -->
<g id="edge20" class="edge">
<title>&#45;9&#45;&gt;2</title>
<path fill="none" stroke="red" stroke-width="0.29" d="M247.07,-152.42C274.41,-152.33 340.04,-147.79 368.76,-108.12 383.26,-88.1 378.49,-58.74 372.39,-38.54"/>
<polygon fill="red" stroke="red" stroke-width="0.29" points="375.67,-37.29 369.18,-28.91 369.03,-39.51 375.67,-37.29"/>
</g>
<!-- &#45;9&#45;&gt;3 -->
<g id="edge21" class="edge">
<title>&#45;9&#45;&gt;3</title>
<path fill="none" stroke="red" stroke-width="0.21" stroke-dasharray="1,5" d="M222.54,-151.7C179.55,-149.94 36.34,-141.59 8.76,-108.12 -3.23,-93.57 -2.48,-80.84 8.76,-65.7 41.23,-21.96 110.95,-15.22 148.53,-14.98"/>
<polygon fill="red" stroke="red" stroke-width="0.21" points="148.62,-18.48 158.65,-15.06 148.68,-11.48 148.62,-18.48"/>
</g>
<!-- &#45;9&#45;&gt;441 -->
<g id="edge32" class="edge">
<title>&#45;9&#45;&gt;441</title>
<path fill="none" stroke="red" stroke-width="0.18" stroke-dasharray="1,5" d="M222.73,-148.95C200.09,-142.75 149.92,-127.87 110.76,-108.12 109.22,-107.35 107.66,-106.5 106.11,-105.62"/>
<polygon fill="red" stroke="red" stroke-width="0.18" points="107.78,-102.54 97.44,-100.23 104.09,-108.48 107.78,-102.54"/>
</g>
<!-- &#45;10 -->
<g id="node10" class="node">
<title>&#45;10</title>
<polygon fill="lightgray" stroke="black" points="525.26,-95.91 496.26,-95.91 496.26,-77.91 525.26,-77.91 525.26,-95.91"/>
<text text-anchor="middle" x="510.76" y="-84.71" font-family="Times New Roman,serif" font-size="9.00">&#45;10</text>
</g>
<!-- &#45;10&#45;&gt;0 -->
<g id="edge22" class="edge">
<title>&#45;10&#45;&gt;0</title>
<path fill="none" stroke="green" stroke-width="1.07" d="M505.94,-77.87C499.99,-67.95 489.64,-50.67 481.36,-36.87"/>
<polygon fill="green" stroke="green" stroke-width="1.07" points="484.19,-34.79 476.05,-28.01 478.19,-38.38 484.19,-34.79"/>
</g>
<!-- &#45;10&#45;&gt;1 -->
<g id="edge23" class="edge">
<title>&#45;10&#45;&gt;1</title>
<path fill="none" stroke="green" stroke-width="0.82" stroke-dasharray="1,5" d="M496.05,-80.84C483.54,-76.6 465.06,-70.48 448.76,-65.7 389.2,-48.23 318.31,-30.53 281.93,-21.67"/>
<polygon fill="green" stroke="green" stroke-width="0.82" points="282.76,-18.26 272.22,-19.31 281.11,-25.07 282.76,-18.26"/>
</g>
<!-- &#45;10&#45;&gt;2 -->
<g id="edge24" class="edge">
<title>&#45;10&#45;&gt;2</title>
<path fill="none" stroke="red" stroke-width="0.21" stroke-dasharray="1,5" d="M500.36,-77.87C494.98,-73.92 488.21,-69.26 481.76,-65.7 450.24,-48.31 411.4,-32.98 387.1,-24.06"/>
<polygon fill="red" stroke="red" stroke-width="0.21" points="388.24,-20.75 377.64,-20.64 385.86,-27.33 388.24,-20.75"/>
</g>
<!-- &#45;11 -->
<g id="node11" class="node">
<title>&#45;11</title>
<polygon fill="lightgray" stroke="black" points="317.26,-95.91 288.26,-95.91 288.26,-77.91 317.26,-77.91 317.26,-95.91"/>
<text text-anchor="middle" x="302.76" y="-84.71" font-family="Times New Roman,serif" font-size="9.00">&#45;11</text>
</g>
<!-- &#45;11&#45;&gt;0 -->
<g id="edge25" class="edge">
<title>&#45;11&#45;&gt;0</title>
<path fill="none" stroke="green" stroke-width="0.21" stroke-dasharray="1,5" d="M311.08,-77.6C315.45,-73.58 321.08,-68.94 326.76,-65.7 365.36,-43.66 415.36,-28.9 444.57,-21.48"/>
<polygon fill="green" stroke="green" stroke-width="0.21" points="445.45,-24.86 454.33,-19.07 443.78,-18.07 445.45,-24.86"/>
</g>
<!-- &#45;11&#45;&gt;1 -->
<g id="edge26" class="edge">
<title>&#45;11&#45;&gt;1</title>
<path fill="none" stroke="green" stroke-width="2.32" d="M297.6,-77.87C291.12,-67.79 279.78,-50.14 270.85,-36.23"/>
<polygon fill="green" stroke="green" stroke-width="2.32" points="273.76,-34.28 265.41,-27.76 267.87,-38.06 273.76,-34.28"/>
</g>
<!-- &#45;11&#45;&gt;2 -->
<g id="edge27" class="edge">
<title>&#45;11&#45;&gt;2</title>
<path fill="none" stroke="red" stroke-width="0.39" d="M309.76,-77.87C318.97,-67.3 335.43,-48.39 347.76,-34.22"/>
<polygon fill="red" stroke="red" stroke-width="0.39" points="350.53,-36.37 354.46,-26.53 345.26,-31.77 350.53,-36.37"/>
</g>
<!-- &#45;11&#45;&gt;3 -->
<g id="edge28" class="edge">
<title>&#45;11&#45;&gt;3</title>
<path fill="none" stroke="red" stroke-width="0.51" d="M294.29,-77.85C289.87,-73.9 284.26,-69.23 278.76,-65.7 252.24,-48.64 218.98,-33.83 197.08,-24.89"/>
<polygon fill="red" stroke="red" stroke-width="0.51" points="198.19,-21.56 187.61,-21.09 195.59,-28.06 198.19,-21.56"/>
</g>
<!-- 441&#45;&gt;3 -->
<g id="edge31" class="edge">
<title>441&#45;&gt;3</title>
<path fill="none" stroke="red" stroke-width="0.16" stroke-dasharray="1,5" d="M97.39,-73.39C113.31,-61.39 137.35,-43.28 154.19,-30.59"/>
<polygon fill="red" stroke="red" stroke-width="0.16" points="156.38,-33.32 162.26,-24.51 152.17,-27.73 156.38,-33.32"/>
</g>
</g>
</svg>
