<?xml version="1.0" encoding="UTF-8" standalone="no"?>
<!DOCTYPE svg PUBLIC "-//W3C//DTD SVG 1.1//EN"
 "http://www.w3.org/Graphics/SVG/1.1/DTD/svg11.dtd">
<!-- Generated by graphviz version 2.47.1 (20210417.1919)
 -->
<!-- Pages: 1 -->
<svg width="579pt" height="177pt"
 viewBox="0.00 0.00 579.24 177.20" xmlns="http://www.w3.org/2000/svg" xmlns:xlink="http://www.w3.org/1999/xlink">
<g id="graph0" class="graph" transform="scale(1 1) rotate(0) translate(4 173.2)">
<polygon fill="white" stroke="transparent" points="-4,4 -4,-173.2 575.24,-173.2 575.24,4 -4,4"/>
<!-- &#45;1 -->
<g id="node1" class="node">
<title>&#45;1</title>
<polygon fill="lightgray" stroke="black" points="446.53,-99.45 422.53,-99.45 422.53,-81.45 446.53,-81.45 446.53,-99.45"/>
<text text-anchor="middle" x="434.53" y="-88.25" font-family="Times New Roman,serif" font-size="9.00">&#45;1</text>
</g>
<!-- 0 -->
<g id="node12" class="node">
<title>0</title>
<ellipse fill="lightblue" stroke="black" cx="165.53" cy="-14.85" rx="14.7" ry="14.7"/>
<text text-anchor="middle" x="165.53" y="-12.65" font-family="Times New Roman,serif" font-size="9.00">0</text>
</g>
<!-- &#45;1&#45;&gt;0 -->
<g id="edge1" class="edge">
<title>&#45;1&#45;&gt;0</title>
<path fill="none" stroke="red" stroke-width="0.32" d="M429.33,-81.06C425.6,-75.78 420.08,-69.31 413.53,-65.7 325.18,-17.09 284.54,-63.45 189.53,-29.7 188.65,-29.39 187.78,-29.05 186.9,-28.68"/>
<polygon fill="red" stroke="red" stroke-width="0.32" points="188.32,-25.47 177.81,-24.08 185.16,-31.72 188.32,-25.47"/>
</g>
<!-- 1 -->
<g id="node13" class="node">
<title>1</title>
<ellipse fill="lightblue" stroke="black" cx="213.53" cy="-14.85" rx="14.7" ry="14.7"/>
<text text-anchor="middle" x="213.53" y="-12.65" font-family="Times New Roman,serif" font-size="9.00">1</text>
</g>
<!-- &#45;1&#45;&gt;1 -->
<g id="edge2" class="edge">
<title>&#45;1&#45;&gt;1</title>
<path fill="none" stroke="red" stroke-width="0.22" d="M429.28,-81.15C425.53,-75.91 420.01,-69.45 413.53,-65.7 344.41,-25.73 312.18,-58.02 237.53,-29.7 236.66,-29.37 235.79,-29.01 234.92,-28.63"/>
<polygon fill="red" stroke="red" stroke-width="0.22" points="236.35,-25.43 225.85,-23.97 233.15,-31.66 236.35,-25.43"/>
</g>
<!-- 2 -->
<g id="node14" class="node">
<title>2</title>
<ellipse fill="lightblue" stroke="black" cx="261.53" cy="-14.85" rx="14.7" ry="14.7"/>
<text text-anchor="middle" x="261.53" y="-12.65" font-family="Times New Roman,serif" font-size="9.00">2</text>
</g>
<!-- &#45;1&#45;&gt;2 -->
<g id="edge3" class="edge">
<title>&#45;1&#45;&gt;2</title>
<path fill="none" stroke="red" stroke-width="0.71" stroke-dasharray="1,5" d="M429.19,-81.31C425.4,-76.13 419.87,-69.68 413.53,-65.7 363.47,-34.28 339.98,-52.64 285.53,-29.7 284.67,-29.34 283.81,-28.96 282.95,-28.55"/>
<polygon fill="red" stroke="red" stroke-width="0.71" points="284.4,-25.36 273.93,-23.79 281.14,-31.55 284.4,-25.36"/>
</g>
<!-- 3 -->
<g id="node15" class="node">
<title>3</title>
<ellipse fill="lightblue" stroke="black" cx="309.53" cy="-14.85" rx="14.7" ry="14.7"/>
<text text-anchor="middle" x="309.53" y="-12.65" font-family="Times New Roman,serif" font-size="9.00">3</text>
</g>
<!-- &#45;1&#45;&gt;3 -->
<g id="edge4" class="edge">
<title>&#45;1&#45;&gt;3</title>
<path fill="none" stroke="green" stroke-width="0.36" stroke-dasharray="1,5" d="M428.6,-81.21C424.72,-76.25 419.32,-70.08 413.53,-65.7 388.56,-46.84 355.33,-32.43 333.22,-24.07"/>
<polygon fill="green" stroke="green" stroke-width="0.36" points="334.22,-20.71 323.63,-20.55 331.81,-27.28 334.22,-20.71"/>
</g>
<!-- &#45;2 -->
<g id="node2" class="node">
<title>&#45;2</title>
<polygon fill="lightgray" stroke="black" points="57.53,-99.45 33.53,-99.45 33.53,-81.45 57.53,-81.45 57.53,-99.45"/>
<text text-anchor="middle" x="45.53" y="-88.25" font-family="Times New Roman,serif" font-size="9.00">&#45;2</text>
</g>
<!-- &#45;2&#45;&gt;0 -->
<g id="edge5" class="edge">
<title>&#45;2&#45;&gt;0</title>
<path fill="none" stroke="green" stroke-width="0.15" stroke-dasharray="1,5" d="M51.48,-81.25C55.37,-76.31 60.77,-70.13 66.53,-65.7 90.1,-47.53 121.33,-33.12 142.36,-24.55"/>
<polygon fill="green" stroke="green" stroke-width="0.15" points="143.77,-27.76 151.78,-20.83 141.2,-21.25 143.77,-27.76"/>
</g>
<!-- &#45;2&#45;&gt;1 -->
<g id="edge6" class="edge">
<title>&#45;2&#45;&gt;1</title>
<path fill="none" stroke="red" stroke-width="0.53" stroke-dasharray="1,5" d="M50.88,-81.33C54.67,-76.16 60.21,-69.71 66.53,-65.7 114.61,-35.17 137.15,-52.09 189.53,-29.7 190.38,-29.33 191.24,-28.95 192.1,-28.54"/>
<polygon fill="red" stroke="red" stroke-width="0.53" points="193.92,-31.54 201.11,-23.76 190.64,-25.35 193.92,-31.54"/>
</g>
<!-- &#45;2&#45;&gt;2 -->
<g id="edge7" class="edge">
<title>&#45;2&#45;&gt;2</title>
<path fill="none" stroke="green" stroke-width="0.47" d="M50.78,-81.17C54.53,-75.93 60.06,-69.46 66.53,-65.7 133.65,-26.63 164.99,-57.45 237.53,-29.7 238.39,-29.37 239.26,-29.01 240.13,-28.63"/>
<polygon fill="green" stroke="green" stroke-width="0.47" points="241.9,-31.65 249.19,-23.96 238.7,-25.43 241.9,-31.65"/>
</g>
<!-- &#45;2&#45;&gt;3 -->
<g id="edge8" class="edge">
<title>&#45;2&#45;&gt;3</title>
<path fill="none" stroke="green" stroke-width="0.37" stroke-dasharray="1,5" d="M50.72,-81.07C54.46,-75.8 59.97,-69.32 66.53,-65.7 152.86,-17.99 192.64,-62.89 285.53,-29.7 286.4,-29.39 287.27,-29.04 288.15,-28.68"/>
<polygon fill="green" stroke="green" stroke-width="0.37" points="289.9,-31.72 297.23,-24.07 286.73,-25.47 289.9,-31.72"/>
</g>
<!-- &#45;3 -->
<g id="node3" class="node">
<title>&#45;3</title>
<polygon fill="lightgray" stroke="black" points="99.53,-99.45 75.53,-99.45 75.53,-81.45 99.53,-81.45 99.53,-99.45"/>
<text text-anchor="middle" x="87.53" y="-88.25" font-family="Times New Roman,serif" font-size="9.00">&#45;3</text>
</g>
<!-- &#45;3&#45;&gt;0 -->
<g id="edge9" class="edge">
<title>&#45;3&#45;&gt;0</title>
<path fill="none" stroke="green" stroke-width="0.13" stroke-dasharray="1,5" d="M94.28,-81.3C98.28,-76.6 103.53,-70.67 108.53,-65.7 120.56,-53.73 134.95,-41.16 146.26,-31.63"/>
<polygon fill="green" stroke="green" stroke-width="0.13" points="148.78,-34.09 154.22,-25 144.3,-28.71 148.78,-34.09"/>
</g>
<!-- &#45;3&#45;&gt;1 -->
<g id="edge10" class="edge">
<title>&#45;3&#45;&gt;1</title>
<path fill="none" stroke="red" stroke-width="0.42" stroke-dasharray="1,5" d="M93.41,-81.15C97.27,-76.17 102.67,-69.99 108.53,-65.7 140.3,-42.41 154.42,-47.57 189.53,-29.7 190.35,-29.28 191.19,-28.84 192.03,-28.4"/>
<polygon fill="red" stroke="red" stroke-width="0.42" points="193.92,-31.35 200.96,-23.43 190.52,-25.23 193.92,-31.35"/>
</g>
<!-- &#45;3&#45;&gt;2 -->
<g id="edge11" class="edge">
<title>&#45;3&#45;&gt;2</title>
<path fill="none" stroke="green" stroke-width="0.51" d="M92.86,-81.3C96.65,-76.13 102.18,-69.67 108.53,-65.7 158.98,-34.11 182.65,-52.76 237.53,-29.7 238.38,-29.34 239.24,-28.96 240.1,-28.55"/>
<polygon fill="green" stroke="green" stroke-width="0.51" points="241.91,-31.56 249.13,-23.8 238.65,-25.37 241.91,-31.56"/>
</g>
<!-- &#45;3&#45;&gt;3 -->
<g id="edge12" class="edge">
<title>&#45;3&#45;&gt;3</title>
<path fill="none" stroke="red" stroke-width="0.59" stroke-dasharray="1,5" d="M92.77,-81.15C96.52,-75.91 102.04,-69.44 108.53,-65.7 178.04,-25.55 210.45,-58.13 285.53,-29.7 286.39,-29.37 287.26,-29.01 288.13,-28.63"/>
<polygon fill="red" stroke="red" stroke-width="0.59" points="289.9,-31.66 297.2,-23.98 286.7,-25.43 289.9,-31.66"/>
</g>
<!-- &#45;4 -->
<g id="node4" class="node">
<title>&#45;4</title>
<polygon fill="lightgray" stroke="black" points="486.53,-169.2 462.53,-169.2 462.53,-151.2 486.53,-151.2 486.53,-169.2"/>
<text text-anchor="middle" x="474.53" y="-158" font-family="Times New Roman,serif" font-size="9.00">&#45;4</text>
</g>
<!-- &#45;4&#45;&gt;0 -->
<g id="edge13" class="edge">
<title>&#45;4&#45;&gt;0</title>
<path fill="none" stroke="green" stroke-width="0.15" stroke-dasharray="1,5" d="M462.11,-158.99C391.42,-157.7 41.83,-149.61 10.53,-115.2 -4.28,-98.92 -2.43,-83.48 10.53,-65.7 40.4,-24.71 104.55,-16.69 140.24,-15.56"/>
<polygon fill="green" stroke="green" stroke-width="0.15" points="140.39,-19.06 150.34,-15.4 140.28,-12.06 140.39,-19.06"/>
</g>
<!-- &#45;4&#45;&gt;1 -->
<g id="edge14" class="edge">
<title>&#45;4&#45;&gt;1</title>
<path fill="none" stroke="red" stroke-width="0.21" stroke-dasharray="1,5" d="M462.48,-158.96C393.92,-157.5 54.85,-148.63 24.53,-115.2 9.75,-98.9 10.73,-82.83 24.53,-65.7 71.6,-7.24 119.52,-56.78 189.53,-29.7 190.39,-29.36 191.26,-29 192.13,-28.62"/>
<polygon fill="red" stroke="red" stroke-width="0.21" points="193.91,-31.64 201.18,-23.94 190.69,-25.42 193.91,-31.64"/>
</g>
<!-- &#45;4&#45;&gt;2 -->
<g id="edge15" class="edge">
<title>&#45;4&#45;&gt;2</title>
<path fill="none" stroke="red" stroke-width="0.37" d="M475.54,-151.11C477.33,-133.06 478.85,-89.22 455.53,-65.7 401.14,-10.86 357.64,-57.34 285.53,-29.7 284.66,-29.37 283.79,-29.01 282.92,-28.62"/>
<polygon fill="red" stroke="red" stroke-width="0.37" points="284.35,-25.43 273.86,-23.96 281.15,-31.65 284.35,-25.43"/>
</g>
<!-- &#45;4&#45;&gt;3 -->
<g id="edge16" class="edge">
<title>&#45;4&#45;&gt;3</title>
<path fill="none" stroke="red" stroke-width="0.8" stroke-dasharray="1,5" d="M486.78,-157.14C506.58,-153.09 545.04,-142.01 561.53,-115.2 573.05,-96.46 575.49,-82.7 561.53,-65.7 532.93,-30.9 392.59,-19.98 334.63,-16.92"/>
<polygon fill="red" stroke="red" stroke-width="0.8" points="334.66,-13.42 324.5,-16.43 334.32,-20.41 334.66,-13.42"/>
</g>
<!-- 9719 -->
<g id="node16" class="node">
<title>9719</title>
<ellipse fill="white" stroke="black" cx="527.53" cy="-90.45" rx="25" ry="25"/>
<text text-anchor="middle" x="527.53" y="-88.25" font-family="Times New Roman,serif" font-size="9.00">9719</text>
</g>
<!-- &#45;4&#45;&gt;9719 -->
<g id="edge45" class="edge">
<title>&#45;4&#45;&gt;9719</title>
<path fill="none" stroke="green" stroke-width="0.26" d="M480.81,-151.16C487.14,-143.07 497.25,-130.14 506.45,-118.38"/>
<polygon fill="green" stroke="green" stroke-width="0.26" points="509.21,-120.53 512.62,-110.5 503.7,-116.22 509.21,-120.53"/>
</g>
<!-- &#45;5 -->
<g id="node5" class="node">
<title>&#45;5</title>
<polygon fill="lightgray" stroke="black" points="141.53,-99.45 117.53,-99.45 117.53,-81.45 141.53,-81.45 141.53,-99.45"/>
<text text-anchor="middle" x="129.53" y="-88.25" font-family="Times New Roman,serif" font-size="9.00">&#45;5</text>
</g>
<!-- &#45;5&#45;&gt;0 -->
<g id="edge17" class="edge">
<title>&#45;5&#45;&gt;0</title>
<path fill="none" stroke="green" stroke-width="0.55" stroke-dasharray="1,5" d="M133.52,-81.29C138.6,-70.89 147.6,-52.5 154.76,-37.86"/>
<polygon fill="green" stroke="green" stroke-width="0.55" points="158.1,-38.99 159.35,-28.47 151.81,-35.91 158.1,-38.99"/>
</g>
<!-- &#45;5&#45;&gt;1 -->
<g id="edge18" class="edge">
<title>&#45;5&#45;&gt;1</title>
<path fill="none" stroke="green" stroke-width="0.22" d="M136.19,-81.21C140.16,-76.48 145.41,-70.54 150.53,-65.7 164.19,-52.77 180.94,-39.62 193.74,-30.08"/>
<polygon fill="green" stroke="green" stroke-width="0.22" points="195.89,-32.84 201.87,-24.1 191.74,-27.2 195.89,-32.84"/>
</g>
<!-- &#45;5&#45;&gt;2 -->
<g id="edge19" class="edge">
<title>&#45;5&#45;&gt;2</title>
<path fill="none" stroke="red" stroke-width="1.13" stroke-dasharray="1,5" d="M135.37,-81.1C139.21,-76.1 144.61,-69.92 150.53,-65.7 184.59,-41.4 199.99,-48.2 237.53,-29.7 238.36,-29.29 239.2,-28.86 240.04,-28.43"/>
<polygon fill="red" stroke="red" stroke-width="1.13" points="241.92,-31.39 248.99,-23.5 238.54,-25.26 241.92,-31.39"/>
</g>
<!-- &#45;5&#45;&gt;3 -->
<g id="edge20" class="edge">
<title>&#45;5&#45;&gt;3</title>
<path fill="none" stroke="green" stroke-width="0.77" stroke-dasharray="1,5" d="M134.85,-81.28C138.63,-76.09 144.16,-69.63 150.53,-65.7 203.34,-33.05 228.14,-53.42 285.53,-29.7 286.38,-29.34 287.24,-28.97 288.11,-28.57"/>
<polygon fill="green" stroke="green" stroke-width="0.77" points="289.91,-31.57 297.14,-23.82 286.66,-25.38 289.91,-31.57"/>
</g>
<!-- &#45;6 -->
<g id="node6" class="node">
<title>&#45;6</title>
<polygon fill="lightgray" stroke="black" points="183.53,-99.45 159.53,-99.45 159.53,-81.45 183.53,-81.45 183.53,-99.45"/>
<text text-anchor="middle" x="171.53" y="-88.25" font-family="Times New Roman,serif" font-size="9.00">&#45;6</text>
</g>
<!-- &#45;6&#45;&gt;0 -->
<g id="edge21" class="edge">
<title>&#45;6&#45;&gt;0</title>
<path fill="none" stroke="green" stroke-width="0.14" stroke-dasharray="1,5" d="M170.86,-81.29C170.05,-71.39 168.66,-54.25 167.49,-39.99"/>
<polygon fill="green" stroke="green" stroke-width="0.14" points="170.97,-39.5 166.66,-29.82 163.99,-40.07 170.97,-39.5"/>
</g>
<!-- &#45;6&#45;&gt;1 -->
<g id="edge22" class="edge">
<title>&#45;6&#45;&gt;1</title>
<path fill="none" stroke="green" stroke-width="0.64" stroke-dasharray="1,5" d="M176.18,-81.29C182.21,-70.73 192.94,-51.93 201.35,-37.18"/>
<polygon fill="green" stroke="green" stroke-width="0.64" points="204.56,-38.62 206.47,-28.2 198.48,-35.15 204.56,-38.62"/>
</g>
<!-- &#45;6&#45;&gt;2 -->
<g id="edge23" class="edge">
<title>&#45;6&#45;&gt;2</title>
<path fill="none" stroke="red" stroke-width="0.39" stroke-dasharray="1,5" d="M178.11,-81.12C182.06,-76.37 187.31,-70.43 192.53,-65.7 207.62,-52.02 226.46,-38.63 240.64,-29.17"/>
<polygon fill="red" stroke="red" stroke-width="0.39" points="242.75,-31.97 249.19,-23.56 238.91,-26.11 242.75,-31.97"/>
</g>
<!-- &#45;6&#45;&gt;3 -->
<g id="edge24" class="edge">
<title>&#45;6&#45;&gt;3</title>
<path fill="none" stroke="red" stroke-width="0.6" d="M177.34,-81.05C181.17,-76.03 186.56,-69.85 192.53,-65.7 228.9,-40.38 245.55,-48.83 285.53,-29.7 286.36,-29.3 287.21,-28.88 288.06,-28.45"/>
<polygon fill="red" stroke="red" stroke-width="0.6" points="289.92,-31.42 297.02,-23.55 286.56,-25.28 289.92,-31.42"/>
</g>
<!-- &#45;7 -->
<g id="node7" class="node">
<title>&#45;7</title>
<polygon fill="lightgray" stroke="black" points="225.53,-99.45 201.53,-99.45 201.53,-81.45 225.53,-81.45 225.53,-99.45"/>
<text text-anchor="middle" x="213.53" y="-88.25" font-family="Times New Roman,serif" font-size="9.00">&#45;7</text>
</g>
<!-- &#45;7&#45;&gt;0 -->
<g id="edge25" class="edge">
<title>&#45;7&#45;&gt;0</title>
<path fill="none" stroke="green" stroke-width="0.43" d="M208.21,-81.29C201.17,-70.5 188.53,-51.13 178.83,-36.25"/>
<polygon fill="green" stroke="green" stroke-width="0.43" points="181.64,-34.15 173.24,-27.68 175.77,-37.97 181.64,-34.15"/>
</g>
<!-- &#45;7&#45;&gt;1 -->
<g id="edge26" class="edge">
<title>&#45;7&#45;&gt;1</title>
<path fill="none" stroke="green" stroke-width="0.39" d="M213.53,-81.29C213.53,-71.39 213.53,-54.25 213.53,-39.99"/>
<polygon fill="green" stroke="green" stroke-width="0.39" points="217.03,-39.82 213.53,-29.82 210.03,-39.82 217.03,-39.82"/>
</g>
<!-- &#45;7&#45;&gt;2 -->
<g id="edge27" class="edge">
<title>&#45;7&#45;&gt;2</title>
<path fill="none" stroke="red" stroke-width="0.58" d="M218.85,-81.29C225.88,-70.5 238.52,-51.13 248.22,-36.25"/>
<polygon fill="red" stroke="red" stroke-width="0.58" points="251.28,-37.97 253.81,-27.68 245.41,-34.15 251.28,-37.97"/>
</g>
<!-- &#45;7&#45;&gt;3 -->
<g id="edge28" class="edge">
<title>&#45;7&#45;&gt;3</title>
<path fill="none" stroke="green" stroke-width="0.56" stroke-dasharray="1,5" d="M220.04,-81.04C223.96,-76.26 229.21,-70.33 234.53,-65.7 243.8,-57.62 269.98,-40.66 288.8,-28.77"/>
<polygon fill="green" stroke="green" stroke-width="0.56" points="290.73,-31.69 297.34,-23.41 287.01,-25.76 290.73,-31.69"/>
</g>
<!-- &#45;8 -->
<g id="node8" class="node">
<title>&#45;8</title>
<polygon fill="lightgray" stroke="black" points="267.53,-99.45 243.53,-99.45 243.53,-81.45 267.53,-81.45 267.53,-99.45"/>
<text text-anchor="middle" x="255.53" y="-88.25" font-family="Times New Roman,serif" font-size="9.00">&#45;8</text>
</g>
<!-- &#45;8&#45;&gt;0 -->
<g id="edge29" class="edge">
<title>&#45;8&#45;&gt;0</title>
<path fill="none" stroke="green" stroke-width="0.41" stroke-dasharray="1,5" d="M248.94,-81.12C245,-76.37 239.75,-70.43 234.53,-65.7 219.43,-52.02 200.59,-38.63 186.42,-29.17"/>
<polygon fill="green" stroke="green" stroke-width="0.41" points="188.14,-26.11 177.86,-23.56 184.3,-31.97 188.14,-26.11"/>
</g>
<!-- &#45;8&#45;&gt;1 -->
<g id="edge30" class="edge">
<title>&#45;8&#45;&gt;1</title>
<path fill="none" stroke="green" stroke-width="0.73" stroke-dasharray="1,5" d="M250.87,-81.29C244.84,-70.73 234.12,-51.93 225.7,-37.18"/>
<polygon fill="green" stroke="green" stroke-width="0.73" points="228.57,-35.15 220.58,-28.2 222.49,-38.62 228.57,-35.15"/>
</g>
<!-- &#45;8&#45;&gt;2 -->
<g id="edge31" class="edge">
<title>&#45;8&#45;&gt;2</title>
<path fill="none" stroke="green" stroke-width="1.99" d="M256.19,-81.29C257,-71.39 258.4,-54.25 259.56,-39.99"/>
<polygon fill="green" stroke="green" stroke-width="1.99" points="263.06,-40.07 260.39,-29.82 256.09,-39.5 263.06,-40.07"/>
</g>
<!-- &#45;8&#45;&gt;3 -->
<g id="edge32" class="edge">
<title>&#45;8&#45;&gt;3</title>
<path fill="none" stroke="green" stroke-width="0.34" d="M261.51,-81.29C269.59,-70.28 284.24,-50.31 295.24,-35.32"/>
<polygon fill="green" stroke="green" stroke-width="0.34" points="298.13,-37.3 301.22,-27.17 292.48,-33.16 298.13,-37.3"/>
</g>
<!-- &#45;9 -->
<g id="node9" class="node">
<title>&#45;9</title>
<polygon fill="lightgray" stroke="black" points="309.53,-99.45 285.53,-99.45 285.53,-81.45 309.53,-81.45 309.53,-99.45"/>
<text text-anchor="middle" x="297.53" y="-88.25" font-family="Times New Roman,serif" font-size="9.00">&#45;9</text>
</g>
<!-- &#45;9&#45;&gt;0 -->
<g id="edge33" class="edge">
<title>&#45;9&#45;&gt;0</title>
<path fill="none" stroke="red" stroke-width="0.38" d="M291.68,-81.1C287.84,-76.1 282.44,-69.92 276.53,-65.7 242.46,-41.4 227.06,-48.2 189.53,-29.7 188.69,-29.29 187.85,-28.86 187.01,-28.43"/>
<polygon fill="red" stroke="red" stroke-width="0.38" points="188.51,-25.26 178.06,-23.5 185.13,-31.39 188.51,-25.26"/>
</g>
<!-- &#45;9&#45;&gt;1 -->
<g id="edge34" class="edge">
<title>&#45;9&#45;&gt;1</title>
<path fill="none" stroke="red" stroke-width="0.13" stroke-dasharray="1,5" d="M290.86,-81.21C286.89,-76.48 281.64,-70.54 276.53,-65.7 262.87,-52.77 246.11,-39.62 233.32,-30.08"/>
<polygon fill="red" stroke="red" stroke-width="0.13" points="235.31,-27.2 225.18,-24.1 231.16,-32.84 235.31,-27.2"/>
</g>
<!-- &#45;9&#45;&gt;2 -->
<g id="edge35" class="edge">
<title>&#45;9&#45;&gt;2</title>
<path fill="none" stroke="green" stroke-width="0.26" stroke-dasharray="1,5" d="M293.54,-81.29C288.45,-70.89 279.45,-52.5 272.29,-37.86"/>
<polygon fill="green" stroke="green" stroke-width="0.26" points="275.24,-35.91 267.7,-28.47 268.95,-38.99 275.24,-35.91"/>
</g>
<!-- &#45;9&#45;&gt;3 -->
<g id="edge36" class="edge">
<title>&#45;9&#45;&gt;3</title>
<path fill="none" stroke="green" stroke-width="2.8" d="M298.86,-81.29C300.48,-71.33 303.3,-54.04 305.63,-39.73"/>
<polygon fill="green" stroke="green" stroke-width="2.8" points="309.14,-39.98 307.29,-29.55 302.23,-38.85 309.14,-39.98"/>
</g>
<!-- &#45;10 -->
<g id="node10" class="node">
<title>&#45;10</title>
<polygon fill="lightgray" stroke="black" points="357.03,-99.45 328.03,-99.45 328.03,-81.45 357.03,-81.45 357.03,-99.45"/>
<text text-anchor="middle" x="342.53" y="-88.25" font-family="Times New Roman,serif" font-size="9.00">&#45;10</text>
</g>
<!-- &#45;10&#45;&gt;0 -->
<g id="edge37" class="edge">
<title>&#45;10&#45;&gt;0</title>
<path fill="none" stroke="green" stroke-width="4.72" d="M336.19,-81.32C331.76,-76.15 325.42,-69.7 318.53,-65.7 267.05,-35.81 244.4,-52.76 189.53,-29.7 188.67,-29.34 187.81,-28.96 186.95,-28.55"/>
<polygon fill="green" stroke="green" stroke-width="4.72" points="188.7,-24.81 177.92,-23.8 184.84,-32.11 188.7,-24.81"/>
</g>
<!-- &#45;10&#45;&gt;1 -->
<g id="edge38" class="edge">
<title>&#45;10&#45;&gt;1</title>
<path fill="none" stroke="red" stroke-width="0.62" stroke-dasharray="1,5" d="M335.59,-81.2C331.1,-76.24 324.92,-70.06 318.53,-65.7 285.99,-43.48 272.63,-47.57 237.53,-29.7 236.7,-29.28 235.86,-28.84 235.02,-28.4"/>
<polygon fill="red" stroke="red" stroke-width="0.62" points="236.53,-25.23 226.09,-23.43 233.13,-31.35 236.53,-25.23"/>
</g>
<!-- &#45;10&#45;&gt;2 -->
<g id="edge39" class="edge">
<title>&#45;10&#45;&gt;2</title>
<path fill="none" stroke="red" stroke-width="0.18" d="M334.65,-81.41C330.02,-76.75 324.02,-70.81 318.53,-65.7 306.1,-54.14 291.71,-41.56 280.5,-31.93"/>
<polygon fill="red" stroke="red" stroke-width="0.18" points="282.51,-29.04 272.63,-25.21 277.96,-34.37 282.51,-29.04"/>
</g>
<!-- &#45;10&#45;&gt;3 -->
<g id="edge40" class="edge">
<title>&#45;10&#45;&gt;3</title>
<path fill="none" stroke="red" stroke-width="0.41" d="M338.87,-81.29C334.23,-70.95 326.06,-52.72 319.51,-38.12"/>
<polygon fill="red" stroke="red" stroke-width="0.41" points="322.59,-36.43 315.3,-28.73 316.2,-39.29 322.59,-36.43"/>
</g>
<!-- &#45;11 -->
<g id="node11" class="node">
<title>&#45;11</title>
<polygon fill="lightgray" stroke="black" points="404.03,-99.45 375.03,-99.45 375.03,-81.45 404.03,-81.45 404.03,-99.45"/>
<text text-anchor="middle" x="389.53" y="-88.25" font-family="Times New Roman,serif" font-size="9.00">&#45;11</text>
</g>
<!-- &#45;11&#45;&gt;0 -->
<g id="edge41" class="edge">
<title>&#45;11&#45;&gt;0</title>
<path fill="none" stroke="green" stroke-width="0.38" stroke-dasharray="1,5" d="M383.62,-81.16C379.44,-75.92 373.37,-69.45 366.53,-65.7 296.12,-27.14 264.6,-58.13 189.53,-29.7 188.66,-29.37 187.79,-29.01 186.92,-28.63"/>
<polygon fill="green" stroke="green" stroke-width="0.38" points="188.35,-25.43 177.85,-23.98 185.15,-31.66 188.35,-25.43"/>
</g>
<!-- &#45;11&#45;&gt;1 -->
<g id="edge42" class="edge">
<title>&#45;11&#45;&gt;1</title>
<path fill="none" stroke="green" stroke-width="4.52" d="M383.52,-81.32C379.31,-76.14 373.23,-69.69 366.53,-65.7 315.37,-35.26 292.4,-52.76 237.53,-29.7 236.67,-29.34 235.81,-28.96 234.95,-28.55"/>
<polygon fill="green" stroke="green" stroke-width="4.52" points="236.62,-24.96 225.92,-23.8 232.92,-31.96 236.62,-24.96"/>
</g>
<!-- &#45;11&#45;&gt;2 -->
<g id="edge43" class="edge">
<title>&#45;11&#45;&gt;2</title>
<path fill="none" stroke="green" stroke-width="0.69" stroke-dasharray="1,5" d="M382.94,-81.18C378.66,-76.22 372.74,-70.04 366.53,-65.7 334.23,-43.14 320.63,-47.57 285.53,-29.7 284.7,-29.28 283.86,-28.84 283.02,-28.4"/>
<polygon fill="green" stroke="green" stroke-width="0.69" points="284.53,-25.23 274.09,-23.43 281.13,-31.35 284.53,-25.23"/>
</g>
<!-- &#45;11&#45;&gt;3 -->
<g id="edge44" class="edge">
<title>&#45;11&#45;&gt;3</title>
<path fill="none" stroke="red" stroke-width="0.15" stroke-dasharray="1,5" d="M382.02,-81.37C377.6,-76.7 371.85,-70.76 366.53,-65.7 354.22,-54.01 339.83,-41.43 328.59,-31.83"/>
<polygon fill="red" stroke="red" stroke-width="0.15" points="330.59,-28.94 320.69,-25.14 326.06,-34.28 330.59,-28.94"/>
</g>
<!-- 9719&#45;&gt;3 -->
<g id="edge46" class="edge">
<title>9719&#45;&gt;3</title>
<path fill="none" stroke="red" stroke-width="0.53" d="M507.45,-75.77C501.53,-72.15 494.93,-68.47 488.53,-65.7 435.69,-42.78 369.49,-27.58 334.27,-20.48"/>
<polygon fill="red" stroke="red" stroke-width="0.53" points="334.86,-17.04 324.38,-18.54 333.51,-23.9 334.86,-17.04"/>
</g>
</g>
</svg>
