<?xml version="1.0" encoding="UTF-8" standalone="no"?>
<!DOCTYPE svg PUBLIC "-//W3C//DTD SVG 1.1//EN"
 "http://www.w3.org/Graphics/SVG/1.1/DTD/svg11.dtd">
<!-- Generated by graphviz version 2.47.1 (20210417.1919)
 -->
<!-- Pages: 1 -->
<svg width="527pt" height="177pt"
 viewBox="0.00 0.00 526.50 177.20" xmlns="http://www.w3.org/2000/svg" xmlns:xlink="http://www.w3.org/1999/xlink">
<g id="graph0" class="graph" transform="scale(1 1) rotate(0) translate(4 173.2)">
<polygon fill="white" stroke="transparent" points="-4,4 -4,-173.2 522.5,-173.2 522.5,4 -4,4"/>
<!-- &#45;1 -->
<g id="node1" class="node">
<title>&#45;1</title>
<polygon fill="lightgray" stroke="black" points="24,-99.45 0,-99.45 0,-81.45 24,-81.45 24,-99.45"/>
<text text-anchor="middle" x="12" y="-88.25" font-family="Times New Roman,serif" font-size="9.00">&#45;1</text>
</g>
<!-- 3 -->
<g id="node15" class="node">
<title>3</title>
<ellipse fill="lightblue" stroke="black" cx="75" cy="-14.85" rx="14.7" ry="14.7"/>
<text text-anchor="middle" x="75" y="-12.65" font-family="Times New Roman,serif" font-size="9.00">3</text>
</g>
<!-- &#45;1&#45;&gt;3 -->
<g id="edge17" class="edge">
<title>&#45;1&#45;&gt;3</title>
<path fill="none" stroke="red" stroke-width="0.24" d="M18.98,-81.29C28.61,-70.05 46.22,-49.47 59.13,-34.39"/>
<polygon fill="red" stroke="red" stroke-width="0.24" points="61.9,-36.53 65.74,-26.66 56.58,-31.98 61.9,-36.53"/>
</g>
<!-- &#45;2 -->
<g id="node2" class="node">
<title>&#45;2</title>
<polygon fill="lightgray" stroke="black" points="150,-99.45 126,-99.45 126,-81.45 150,-81.45 150,-99.45"/>
<text text-anchor="middle" x="138" y="-88.25" font-family="Times New Roman,serif" font-size="9.00">&#45;2</text>
</g>
<!-- 0 -->
<g id="node12" class="node">
<title>0</title>
<ellipse fill="lightblue" stroke="black" cx="240" cy="-14.85" rx="14.7" ry="14.7"/>
<text text-anchor="middle" x="240" y="-12.65" font-family="Times New Roman,serif" font-size="9.00">0</text>
</g>
<!-- &#45;2&#45;&gt;0 -->
<g id="edge1" class="edge">
<title>&#45;2&#45;&gt;0</title>
<path fill="none" stroke="green" stroke-width="0.17" stroke-dasharray="1,5" d="M144.09,-81.42C148.03,-76.54 153.44,-70.37 159,-65.7 177.28,-50.33 200.75,-36.42 217.72,-27.22"/>
<polygon fill="green" stroke="green" stroke-width="0.17" points="219.67,-30.15 226.87,-22.37 216.4,-23.96 219.67,-30.15"/>
</g>
<!-- &#45;3 -->
<g id="node3" class="node">
<title>&#45;3</title>
<polygon fill="lightgray" stroke="black" points="471,-99.45 447,-99.45 447,-81.45 471,-81.45 471,-99.45"/>
<text text-anchor="middle" x="459" y="-88.25" font-family="Times New Roman,serif" font-size="9.00">&#45;3</text>
</g>
<!-- 1 -->
<g id="node13" class="node">
<title>1</title>
<ellipse fill="lightblue" stroke="black" cx="449" cy="-14.85" rx="14.7" ry="14.7"/>
<text text-anchor="middle" x="449" y="-12.65" font-family="Times New Roman,serif" font-size="9.00">1</text>
</g>
<!-- &#45;3&#45;&gt;1 -->
<g id="edge2" class="edge">
<title>&#45;3&#45;&gt;1</title>
<path fill="none" stroke="red" stroke-width="0.54" stroke-dasharray="1,5" d="M457.89,-81.29C456.55,-71.39 454.22,-54.25 452.28,-39.99"/>
<polygon fill="red" stroke="red" stroke-width="0.54" points="455.71,-39.26 450.9,-29.82 448.78,-40.2 455.71,-39.26"/>
</g>
<!-- 2 -->
<g id="node14" class="node">
<title>2</title>
<ellipse fill="lightblue" stroke="black" cx="382" cy="-14.85" rx="14.7" ry="14.7"/>
<text text-anchor="middle" x="382" y="-12.65" font-family="Times New Roman,serif" font-size="9.00">2</text>
</g>
<!-- &#45;3&#45;&gt;2 -->
<g id="edge3" class="edge">
<title>&#45;3&#45;&gt;2</title>
<path fill="none" stroke="green" stroke-width="0.21" stroke-dasharray="1,5" d="M452.23,-81.32C448.22,-76.63 442.97,-70.69 438,-65.7 426.14,-53.8 412,-41.22 400.9,-31.68"/>
<polygon fill="green" stroke="green" stroke-width="0.21" points="402.97,-28.85 393.09,-25.04 398.43,-34.18 402.97,-28.85"/>
</g>
<!-- &#45;4 -->
<g id="node4" class="node">
<title>&#45;4</title>
<polygon fill="lightgray" stroke="black" points="192,-99.45 168,-99.45 168,-81.45 192,-81.45 192,-99.45"/>
<text text-anchor="middle" x="180" y="-88.25" font-family="Times New Roman,serif" font-size="9.00">&#45;4</text>
</g>
<!-- &#45;4&#45;&gt;0 -->
<g id="edge16" class="edge">
<title>&#45;4&#45;&gt;0</title>
<path fill="none" stroke="red" stroke-width="0.47" stroke-dasharray="1,5" d="M186.65,-81.29C195.63,-70.28 211.91,-50.31 224.13,-35.32"/>
<polygon fill="red" stroke="red" stroke-width="0.47" points="227.17,-37.13 230.77,-27.17 221.74,-32.71 227.17,-37.13"/>
</g>
<!-- &#45;5 -->
<g id="node5" class="node">
<title>&#45;5</title>
<polygon fill="lightgray" stroke="black" points="279,-169.2 255,-169.2 255,-151.2 279,-151.2 279,-169.2"/>
<text text-anchor="middle" x="267" y="-158" font-family="Times New Roman,serif" font-size="9.00">&#45;5</text>
</g>
<!-- &#45;5&#45;&gt;0 -->
<g id="edge4" class="edge">
<title>&#45;5&#45;&gt;0</title>
<path fill="none" stroke="red" stroke-width="0.31" d="M259.85,-151.14C252.98,-142.82 243.05,-129.11 239,-115.2 231.72,-90.21 233.37,-60.17 235.95,-39.71"/>
<polygon fill="red" stroke="red" stroke-width="0.31" points="239.43,-40.08 237.39,-29.69 232.5,-39.09 239.43,-40.08"/>
</g>
<!-- 1710 -->
<g id="node16" class="node">
<title>1710</title>
<ellipse fill="white" stroke="black" cx="315" cy="-90.45" rx="25" ry="25"/>
<text text-anchor="middle" x="315" y="-88.25" font-family="Times New Roman,serif" font-size="9.00">1710</text>
</g>
<!-- &#45;5&#45;&gt;1710 -->
<g id="edge19" class="edge">
<title>&#45;5&#45;&gt;1710</title>
<path fill="none" stroke="green" stroke-width="0.18" d="M272.69,-151.16C278.24,-143.34 286.98,-130.99 295.09,-119.55"/>
<polygon fill="green" stroke="green" stroke-width="0.18" points="298.17,-121.25 301.1,-111.07 292.46,-117.21 298.17,-121.25"/>
</g>
<!-- &#45;6 -->
<g id="node6" class="node">
<title>&#45;6</title>
<polygon fill="lightgray" stroke="black" points="272,-99.45 248,-99.45 248,-81.45 272,-81.45 272,-99.45"/>
<text text-anchor="middle" x="260" y="-88.25" font-family="Times New Roman,serif" font-size="9.00">&#45;6</text>
</g>
<!-- &#45;6&#45;&gt;0 -->
<g id="edge15" class="edge">
<title>&#45;6&#45;&gt;0</title>
<path fill="none" stroke="red" stroke-width="0.26" stroke-dasharray="1,5" d="M257.78,-81.29C255.03,-71.17 250.23,-53.49 246.31,-39.06"/>
<polygon fill="red" stroke="red" stroke-width="0.26" points="249.65,-38.01 243.65,-29.27 242.89,-39.84 249.65,-38.01"/>
</g>
<!-- &#45;7 -->
<g id="node7" class="node">
<title>&#45;7</title>
<polygon fill="lightgray" stroke="black" points="66,-99.45 42,-99.45 42,-81.45 66,-81.45 66,-99.45"/>
<text text-anchor="middle" x="54" y="-88.25" font-family="Times New Roman,serif" font-size="9.00">&#45;7</text>
</g>
<!-- &#45;7&#45;&gt;3 -->
<g id="edge5" class="edge">
<title>&#45;7&#45;&gt;3</title>
<path fill="none" stroke="red" stroke-width="0.57" d="M56.33,-81.29C59.21,-71.17 64.26,-53.49 68.38,-39.06"/>
<polygon fill="red" stroke="red" stroke-width="0.57" points="71.79,-39.85 71.17,-29.27 65.06,-37.93 71.79,-39.85"/>
</g>
<!-- &#45;8 -->
<g id="node8" class="node">
<title>&#45;8</title>
<polygon fill="lightgray" stroke="black" points="429,-99.45 405,-99.45 405,-81.45 429,-81.45 429,-99.45"/>
<text text-anchor="middle" x="417" y="-88.25" font-family="Times New Roman,serif" font-size="9.00">&#45;8</text>
</g>
<!-- &#45;8&#45;&gt;0 -->
<g id="edge21" class="edge">
<title>&#45;8&#45;&gt;0</title>
<path fill="none" stroke="green" stroke-width="0.39" d="M411.62,-81.38C407.8,-76.24 402.27,-69.79 396,-65.7 354.49,-38.62 297.19,-25.31 264.84,-19.57"/>
<polygon fill="green" stroke="green" stroke-width="0.39" points="265.33,-16.1 254.89,-17.9 264.17,-23 265.33,-16.1"/>
</g>
<!-- &#45;8&#45;&gt;1 -->
<g id="edge12" class="edge">
<title>&#45;8&#45;&gt;1</title>
<path fill="none" stroke="red" stroke-width="0.32" d="M420.55,-81.29C425.04,-70.95 432.97,-52.72 439.32,-38.12"/>
<polygon fill="red" stroke="red" stroke-width="0.32" points="442.62,-39.3 443.4,-28.73 436.2,-36.51 442.62,-39.3"/>
</g>
<!-- &#45;8&#45;&gt;2 -->
<g id="edge6" class="edge">
<title>&#45;8&#45;&gt;2</title>
<path fill="none" stroke="green" stroke-width="0.31" d="M413.12,-81.29C408.17,-70.89 399.43,-52.5 392.47,-37.86"/>
<polygon fill="green" stroke="green" stroke-width="0.31" points="395.46,-36 388,-28.47 389.14,-39 395.46,-36"/>
</g>
<!-- &#45;9 -->
<g id="node9" class="node">
<title>&#45;9</title>
<polygon fill="lightgray" stroke="black" points="108,-99.45 84,-99.45 84,-81.45 108,-81.45 108,-99.45"/>
<text text-anchor="middle" x="96" y="-88.25" font-family="Times New Roman,serif" font-size="9.00">&#45;9</text>
</g>
<!-- &#45;9&#45;&gt;0 -->
<g id="edge13" class="edge">
<title>&#45;9&#45;&gt;0</title>
<path fill="none" stroke="red" stroke-width="0.23" d="M101.83,-81.08C105.67,-76.08 111.07,-69.9 117,-65.7 147.91,-43.82 189.83,-29.49 215.88,-22.03"/>
<polygon fill="red" stroke="red" stroke-width="0.23" points="216.96,-25.36 225.68,-19.34 215.1,-18.61 216.96,-25.36"/>
</g>
<!-- &#45;9&#45;&gt;2 -->
<g id="edge7" class="edge">
<title>&#45;9&#45;&gt;2</title>
<path fill="none" stroke="green" stroke-width="0.3" stroke-dasharray="1,5" d="M101.23,-81.12C104.97,-75.87 110.49,-69.39 117,-65.7 158.11,-42.36 299.32,-24.82 357.07,-18.45"/>
<polygon fill="green" stroke="green" stroke-width="0.3" points="357.59,-21.92 367.15,-17.36 356.83,-14.96 357.59,-21.92"/>
</g>
<!-- &#45;9&#45;&gt;3 -->
<g id="edge8" class="edge">
<title>&#45;9&#45;&gt;3</title>
<path fill="none" stroke="green" stroke-width="1.47" d="M93.67,-81.29C90.79,-71.17 85.74,-53.49 81.62,-39.06"/>
<polygon fill="green" stroke="green" stroke-width="1.47" points="84.94,-37.93 78.83,-29.27 78.21,-39.85 84.94,-37.93"/>
</g>
<!-- &#45;10 -->
<g id="node10" class="node">
<title>&#45;10</title>
<polygon fill="lightgray" stroke="black" points="386.5,-99.45 357.5,-99.45 357.5,-81.45 386.5,-81.45 386.5,-99.45"/>
<text text-anchor="middle" x="372" y="-88.25" font-family="Times New Roman,serif" font-size="9.00">&#45;10</text>
</g>
<!-- &#45;10&#45;&gt;0 -->
<g id="edge9" class="edge">
<title>&#45;10&#45;&gt;0</title>
<path fill="none" stroke="green" stroke-width="2.3" d="M365.39,-81.21C361.11,-76.25 355.19,-70.07 349,-65.7 322.03,-46.64 286.61,-32.06 263.58,-23.72"/>
<polygon fill="green" stroke="green" stroke-width="2.3" points="264.54,-20.35 253.95,-20.34 262.22,-26.95 264.54,-20.35"/>
</g>
<!-- &#45;10&#45;&gt;1 -->
<g id="edge14" class="edge">
<title>&#45;10&#45;&gt;1</title>
<path fill="none" stroke="green" stroke-width="0.15" d="M380.39,-81.04C384.97,-76.47 390.77,-70.75 396,-65.7 407.48,-54.63 420.52,-42.35 430.8,-32.75"/>
<polygon fill="green" stroke="green" stroke-width="0.15" points="433.44,-35.08 438.37,-25.7 428.66,-29.96 433.44,-35.08"/>
</g>
<!-- &#45;10&#45;&gt;2 -->
<g id="edge10" class="edge">
<title>&#45;10&#45;&gt;2</title>
<path fill="none" stroke="red" stroke-width="0.36" d="M373.11,-81.29C374.45,-71.39 376.78,-54.25 378.72,-39.99"/>
<polygon fill="red" stroke="red" stroke-width="0.36" points="382.22,-40.2 380.1,-29.82 375.29,-39.26 382.22,-40.2"/>
</g>
<!-- &#45;10&#45;&gt;3 -->
<g id="edge18" class="edge">
<title>&#45;10&#45;&gt;3</title>
<path fill="none" stroke="red" stroke-width="0.14" d="M366.12,-81.11C361.95,-75.85 355.88,-69.38 349,-65.7 305.74,-42.59 158.97,-24.8 99.91,-18.41"/>
<polygon fill="red" stroke="red" stroke-width="0.14" points="100.27,-14.93 89.95,-17.35 99.53,-21.89 100.27,-14.93"/>
</g>
<!-- &#45;11 -->
<g id="node11" class="node">
<title>&#45;11</title>
<polygon fill="lightgray" stroke="black" points="518.5,-99.45 489.5,-99.45 489.5,-81.45 518.5,-81.45 518.5,-99.45"/>
<text text-anchor="middle" x="504" y="-88.25" font-family="Times New Roman,serif" font-size="9.00">&#45;11</text>
</g>
<!-- &#45;11&#45;&gt;1 -->
<g id="edge11" class="edge">
<title>&#45;11&#45;&gt;1</title>
<path fill="none" stroke="green" stroke-width="2.71" d="M497.9,-81.29C489.67,-70.28 474.75,-50.31 463.55,-35.32"/>
<polygon fill="green" stroke="green" stroke-width="2.71" points="466.25,-33.08 457.46,-27.17 460.64,-37.27 466.25,-33.08"/>
</g>
<!-- 1710&#45;&gt;0 -->
<g id="edge20" class="edge">
<title>1710&#45;&gt;0</title>
<path fill="none" stroke="red" stroke-width="0.16" d="M297.6,-72.38C285.54,-60.53 269.52,-44.82 257.44,-32.97"/>
<polygon fill="red" stroke="red" stroke-width="0.16" points="259.74,-30.32 250.15,-25.81 254.84,-35.32 259.74,-30.32"/>
</g>
</g>
</svg>
