<?xml version="1.0" encoding="UTF-8" standalone="no"?>
<!DOCTYPE svg PUBLIC "-//W3C//DTD SVG 1.1//EN"
 "http://www.w3.org/Graphics/SVG/1.1/DTD/svg11.dtd">
<!-- Generated by graphviz version 2.47.1 (20210417.1919)
 -->
<!-- Pages: 1 -->
<svg width="559pt" height="458pt"
 viewBox="0.00 0.00 558.75 458.11" xmlns="http://www.w3.org/2000/svg" xmlns:xlink="http://www.w3.org/1999/xlink">
<g id="graph0" class="graph" transform="scale(1 1) rotate(0) translate(4 454.11)">
<polygon fill="white" stroke="transparent" points="-4,4 -4,-454.11 554.75,-454.11 554.75,4 -4,4"/>
<!-- &#45;1 -->
<g id="node1" class="node">
<title>&#45;1</title>
<polygon fill="lightgray" stroke="black" points="264,-266.91 240,-266.91 240,-248.91 264,-248.91 264,-266.91"/>
<text text-anchor="middle" x="252" y="-255.71" font-family="Times New Roman,serif" font-size="9.00">&#45;1</text>
</g>
<!-- 1 -->
<g id="node13" class="node">
<title>1</title>
<ellipse fill="lightblue" stroke="black" cx="266" cy="-90.45" rx="14.7" ry="14.7"/>
<text text-anchor="middle" x="266" y="-88.25" font-family="Times New Roman,serif" font-size="9.00">1</text>
</g>
<!-- &#45;1&#45;&gt;1 -->
<g id="edge11" class="edge">
<title>&#45;1&#45;&gt;1</title>
<path fill="none" stroke="red" stroke-width="0.58" stroke-dasharray="1,5" d="M252.71,-248.47C254.77,-224.14 260.78,-153.14 263.96,-115.51"/>
<polygon fill="red" stroke="red" stroke-width="0.58" points="267.46,-115.67 264.82,-105.41 260.49,-115.08 267.46,-115.67"/>
</g>
<!-- 987 -->
<g id="node22" class="node">
<title>987</title>
<ellipse fill="white" stroke="black" cx="217" cy="-175.94" rx="21.43" ry="21.43"/>
<text text-anchor="middle" x="217" y="-173.74" font-family="Times New Roman,serif" font-size="9.00">987</text>
</g>
<!-- &#45;1&#45;&gt;987 -->
<g id="edge12" class="edge">
<title>&#45;1&#45;&gt;987</title>
<path fill="none" stroke="red" stroke-width="0.11" d="M248.38,-248.65C243.9,-238.41 236.02,-220.41 229.28,-205.01"/>
<polygon fill="red" stroke="red" stroke-width="0.11" points="232.49,-203.6 225.27,-195.85 226.08,-206.41 232.49,-203.6"/>
</g>
<!-- &#45;2 -->
<g id="node2" class="node">
<title>&#45;2</title>
<polygon fill="lightgray" stroke="black" points="357,-434.37 333,-434.37 333,-416.37 357,-416.37 357,-434.37"/>
<text text-anchor="middle" x="345" y="-423.17" font-family="Times New Roman,serif" font-size="9.00">&#45;2</text>
</g>
<!-- &#45;3 -->
<g id="node3" class="node">
<title>&#45;3</title>
<polygon fill="lightgray" stroke="black" points="37,-99.45 13,-99.45 13,-81.45 37,-81.45 37,-99.45"/>
<text text-anchor="middle" x="25" y="-88.25" font-family="Times New Roman,serif" font-size="9.00">&#45;3</text>
</g>
<!-- 2 -->
<g id="node14" class="node">
<title>2</title>
<ellipse fill="lightblue" stroke="black" cx="118" cy="-14.85" rx="14.7" ry="14.7"/>
<text text-anchor="middle" x="118" y="-12.65" font-family="Times New Roman,serif" font-size="9.00">2</text>
</g>
<!-- &#45;3&#45;&gt;2 -->
<g id="edge8" class="edge">
<title>&#45;3&#45;&gt;2</title>
<path fill="none" stroke="green" stroke-width="0.17" stroke-dasharray="1,5" d="M31.55,-81.08C35.48,-76.31 40.73,-70.38 46,-65.7 62,-51.49 82.18,-37.83 97.1,-28.42"/>
<polygon fill="green" stroke="green" stroke-width="0.17" points="98.97,-31.38 105.62,-23.14 95.28,-25.43 98.97,-31.38"/>
</g>
<!-- 3 -->
<g id="node15" class="node">
<title>3</title>
<ellipse fill="lightblue" stroke="black" cx="22" cy="-14.85" rx="14.7" ry="14.7"/>
<text text-anchor="middle" x="22" y="-12.65" font-family="Times New Roman,serif" font-size="9.00">3</text>
</g>
<!-- &#45;3&#45;&gt;3 -->
<g id="edge7" class="edge">
<title>&#45;3&#45;&gt;3</title>
<path fill="none" stroke="green" stroke-width="0.65" d="M24.67,-81.29C24.26,-71.39 23.56,-54.25 22.98,-39.99"/>
<polygon fill="green" stroke="green" stroke-width="0.65" points="26.47,-39.67 22.57,-29.82 19.48,-39.95 26.47,-39.67"/>
</g>
<!-- &#45;4 -->
<g id="node4" class="node">
<title>&#45;4</title>
<polygon fill="lightgray" stroke="black" points="399,-434.37 375,-434.37 375,-416.37 399,-416.37 399,-434.37"/>
<text text-anchor="middle" x="387" y="-423.17" font-family="Times New Roman,serif" font-size="9.00">&#45;4</text>
</g>
<!-- &#45;5 -->
<g id="node5" class="node">
<title>&#45;5</title>
<polygon fill="lightgray" stroke="black" points="441,-434.37 417,-434.37 417,-416.37 441,-416.37 441,-434.37"/>
<text text-anchor="middle" x="429" y="-423.17" font-family="Times New Roman,serif" font-size="9.00">&#45;5</text>
</g>
<!-- &#45;6 -->
<g id="node6" class="node">
<title>&#45;6</title>
<polygon fill="lightgray" stroke="black" points="233,-99.45 209,-99.45 209,-81.45 233,-81.45 233,-99.45"/>
<text text-anchor="middle" x="221" y="-88.25" font-family="Times New Roman,serif" font-size="9.00">&#45;6</text>
</g>
<!-- &#45;6&#45;&gt;2 -->
<g id="edge20" class="edge">
<title>&#45;6&#45;&gt;2</title>
<path fill="none" stroke="green" stroke-width="0.61" stroke-dasharray="1,5" d="M214.91,-81.41C210.98,-76.53 205.57,-70.36 200,-65.7 181.41,-50.15 157.47,-36.18 140.27,-27.01"/>
<polygon fill="green" stroke="green" stroke-width="0.61" points="141.49,-23.7 131,-22.19 138.26,-29.91 141.49,-23.7"/>
</g>
<!-- &#45;7 -->
<g id="node7" class="node">
<title>&#45;7</title>
<polygon fill="lightgray" stroke="black" points="253,-348.87 229,-348.87 229,-330.87 253,-330.87 253,-348.87"/>
<text text-anchor="middle" x="241" y="-337.67" font-family="Times New Roman,serif" font-size="9.00">&#45;7</text>
</g>
<!-- 937 -->
<g id="node18" class="node">
<title>937</title>
<ellipse fill="white" stroke="black" cx="194" cy="-257.91" rx="21.43" ry="21.43"/>
<text text-anchor="middle" x="194" y="-255.71" font-family="Times New Roman,serif" font-size="9.00">937</text>
</g>
<!-- &#45;7&#45;&gt;937 -->
<g id="edge9" class="edge">
<title>&#45;7&#45;&gt;937</title>
<path fill="none" stroke="red" stroke-width="0.27" stroke-dasharray="1,5" d="M236.15,-330.61C229.91,-320.01 218.79,-301.08 209.54,-285.34"/>
<polygon fill="red" stroke="red" stroke-width="0.27" points="212.44,-283.37 204.35,-276.52 206.4,-286.92 212.44,-283.37"/>
</g>
<!-- &#45;8 -->
<g id="node8" class="node">
<title>&#45;8</title>
<polygon fill="lightgray" stroke="black" points="483,-434.37 459,-434.37 459,-416.37 483,-416.37 483,-434.37"/>
<text text-anchor="middle" x="471" y="-423.17" font-family="Times New Roman,serif" font-size="9.00">&#45;8</text>
</g>
<!-- &#45;9 -->
<g id="node9" class="node">
<title>&#45;9</title>
<polygon fill="lightgray" stroke="black" points="127,-266.91 103,-266.91 103,-248.91 127,-248.91 127,-266.91"/>
<text text-anchor="middle" x="115" y="-255.71" font-family="Times New Roman,serif" font-size="9.00">&#45;9</text>
</g>
<!-- &#45;9&#45;&gt;1 -->
<g id="edge5" class="edge">
<title>&#45;9&#45;&gt;1</title>
<path fill="none" stroke="red" stroke-width="0.48" stroke-dasharray="1,5" d="M119.91,-248.86C133.29,-227.05 170.52,-167.37 187,-151.2 207.85,-130.73 219.28,-133.56 242,-115.2 244.31,-113.33 246.64,-111.27 248.9,-109.17"/>
<polygon fill="red" stroke="red" stroke-width="0.48" points="251.44,-111.58 256.15,-102.09 246.55,-106.58 251.44,-111.58"/>
</g>
<!-- &#45;9&#45;&gt;3 -->
<g id="edge1" class="edge">
<title>&#45;9&#45;&gt;3</title>
<path fill="none" stroke="green" stroke-width="1.27" d="M105.01,-248.62C81.8,-228.6 24.59,-174.87 4,-115.2 -4.9,-89.4 3.68,-58.23 11.77,-37.77"/>
<polygon fill="green" stroke="green" stroke-width="1.27" points="15.07,-38.97 15.75,-28.39 8.62,-36.24 15.07,-38.97"/>
</g>
<!-- 1029 -->
<g id="node16" class="node">
<title>1029</title>
<ellipse fill="white" stroke="black" cx="115" cy="-175.94" rx="25" ry="25"/>
<text text-anchor="middle" x="115" y="-173.74" font-family="Times New Roman,serif" font-size="9.00">1029</text>
</g>
<!-- &#45;9&#45;&gt;1029 -->
<g id="edge14" class="edge">
<title>&#45;9&#45;&gt;1029</title>
<path fill="none" stroke="red" stroke-width="0.66" d="M115,-248.65C115,-239.75 115,-224.99 115,-211.16"/>
<polygon fill="red" stroke="red" stroke-width="0.66" points="118.5,-210.89 115,-200.89 111.5,-210.89 118.5,-210.89"/>
</g>
<!-- &#45;10 -->
<g id="node10" class="node">
<title>&#45;10</title>
<polygon fill="lightgray" stroke="black" points="84.5,-99.45 55.5,-99.45 55.5,-81.45 84.5,-81.45 84.5,-99.45"/>
<text text-anchor="middle" x="70" y="-88.25" font-family="Times New Roman,serif" font-size="9.00">&#45;10</text>
</g>
<!-- 0 -->
<g id="node12" class="node">
<title>0</title>
<ellipse fill="lightblue" stroke="black" cx="70" cy="-14.85" rx="14.7" ry="14.7"/>
<text text-anchor="middle" x="70" y="-12.65" font-family="Times New Roman,serif" font-size="9.00">0</text>
</g>
<!-- &#45;10&#45;&gt;0 -->
<g id="edge2" class="edge">
<title>&#45;10&#45;&gt;0</title>
<path fill="none" stroke="green" stroke-width="1.45" d="M70,-81.29C70,-71.39 70,-54.25 70,-39.99"/>
<polygon fill="green" stroke="green" stroke-width="1.45" points="73.5,-39.82 70,-29.82 66.5,-39.82 73.5,-39.82"/>
</g>
<!-- &#45;10&#45;&gt;2 -->
<g id="edge6" class="edge">
<title>&#45;10&#45;&gt;2</title>
<path fill="none" stroke="red" stroke-width="0.54" d="M75.32,-81.29C82.35,-70.5 94.99,-51.13 104.69,-36.25"/>
<polygon fill="red" stroke="red" stroke-width="0.54" points="107.75,-37.97 110.28,-27.68 101.89,-34.15 107.75,-37.97"/>
</g>
<!-- &#45;10&#45;&gt;3 -->
<g id="edge3" class="edge">
<title>&#45;10&#45;&gt;3</title>
<path fill="none" stroke="red" stroke-width="0.1" d="M64.68,-81.29C57.64,-70.5 45.01,-51.13 35.3,-36.25"/>
<polygon fill="red" stroke="red" stroke-width="0.1" points="38.11,-34.15 29.72,-27.68 32.25,-37.97 38.11,-34.15"/>
</g>
<!-- &#45;11 -->
<g id="node11" class="node">
<title>&#45;11</title>
<polygon fill="lightgray" stroke="black" points="314.5,-434.37 285.5,-434.37 285.5,-416.37 314.5,-416.37 314.5,-434.37"/>
<text text-anchor="middle" x="300" y="-423.17" font-family="Times New Roman,serif" font-size="9.00">&#45;11</text>
</g>
<!-- &#45;11&#45;&gt;1 -->
<g id="edge4" class="edge">
<title>&#45;11&#45;&gt;1</title>
<path fill="none" stroke="green" stroke-width="2.44" d="M305.2,-416.21C326.41,-381.83 402.95,-246.1 353,-151.2 339.72,-125.98 310.46,-109.34 289.54,-100.18"/>
<polygon fill="green" stroke="green" stroke-width="2.44" points="290.63,-96.84 280.05,-96.27 287.96,-103.31 290.63,-96.84"/>
</g>
<!-- 1128 -->
<g id="node17" class="node">
<title>1128</title>
<ellipse fill="white" stroke="black" cx="319" cy="-175.94" rx="25" ry="25"/>
<text text-anchor="middle" x="319" y="-173.74" font-family="Times New Roman,serif" font-size="9.00">1128</text>
</g>
<!-- &#45;11&#45;&gt;1128 -->
<g id="edge21" class="edge">
<title>&#45;11&#45;&gt;1128</title>
<path fill="none" stroke="green" stroke-width="0.58" d="M300.63,-416.13C303.07,-384.4 311.94,-268.9 316.4,-210.8"/>
<polygon fill="green" stroke="green" stroke-width="0.58" points="319.9,-210.89 317.18,-200.65 312.92,-210.36 319.9,-210.89"/>
</g>
<!-- &#45;11&#45;&gt;937 -->
<g id="edge10" class="edge">
<title>&#45;11&#45;&gt;937</title>
<path fill="none" stroke="green" stroke-width="0.54" stroke-dasharray="1,5" d="M298.73,-416.28C295.42,-397.19 285.15,-348.43 262,-315.12 251,-299.29 234.37,-285.43 220.32,-275.44"/>
<polygon fill="green" stroke="green" stroke-width="0.54" points="222.2,-272.49 211.97,-269.74 218.25,-278.27 222.2,-272.49"/>
</g>
<!-- 1101 -->
<g id="node20" class="node">
<title>1101</title>
<ellipse fill="white" stroke="black" cx="186" cy="-339.87" rx="25" ry="25"/>
<text text-anchor="middle" x="186" y="-337.67" font-family="Times New Roman,serif" font-size="9.00">1101</text>
</g>
<!-- &#45;11&#45;&gt;1101 -->
<g id="edge17" class="edge">
<title>&#45;11&#45;&gt;1101</title>
<path fill="none" stroke="green" stroke-width="0.68" d="M289.07,-416.36C271.92,-403.8 238.15,-379.07 213.94,-361.33"/>
<polygon fill="green" stroke="green" stroke-width="0.68" points="215.95,-358.47 205.82,-355.38 211.81,-364.12 215.95,-358.47"/>
</g>
<!-- 1029&#45;&gt;1 -->
<g id="edge15" class="edge">
<title>1029&#45;&gt;1</title>
<path fill="none" stroke="red" stroke-width="0.19" stroke-dasharray="1,5" d="M135.3,-161.75C141.22,-158.13 147.77,-154.34 154,-151.2 191.72,-132.15 206.75,-138.5 242,-115.2 244.47,-113.56 246.91,-111.64 249.22,-109.62"/>
<polygon fill="red" stroke="red" stroke-width="0.19" points="251.74,-112.05 256.5,-102.58 246.88,-107.01 251.74,-112.05"/>
</g>
<!-- 1029&#45;&gt;2 -->
<g id="edge16" class="edge">
<title>1029&#45;&gt;2</title>
<path fill="none" stroke="red" stroke-width="0.36" stroke-dasharray="1,5" d="M115.45,-151.13C116.01,-121.17 116.98,-70.03 117.54,-39.94"/>
<polygon fill="red" stroke="red" stroke-width="0.36" points="121.04,-39.96 117.73,-29.89 114.05,-39.82 121.04,-39.96"/>
</g>
<!-- 1131 -->
<g id="node19" class="node">
<title>1131</title>
<ellipse fill="white" stroke="black" cx="166" cy="-90.45" rx="25" ry="25"/>
<text text-anchor="middle" x="166" y="-88.25" font-family="Times New Roman,serif" font-size="9.00">1131</text>
</g>
<!-- 1029&#45;&gt;1131 -->
<g id="edge23" class="edge">
<title>1029&#45;&gt;1131</title>
<path fill="none" stroke="green" stroke-width="0.4" d="M127.61,-154.3C133.84,-144.09 141.48,-131.59 148.29,-120.44"/>
<polygon fill="green" stroke="green" stroke-width="0.4" points="151.31,-122.21 153.54,-111.85 145.34,-118.56 151.31,-122.21"/>
</g>
<!-- 1128&#45;&gt;1 -->
<g id="edge22" class="edge">
<title>1128&#45;&gt;1</title>
<path fill="none" stroke="green" stroke-width="2.51" d="M306.17,-154.73C297.98,-141.84 287.4,-125.17 279.16,-112.18"/>
<polygon fill="green" stroke="green" stroke-width="2.51" points="281.95,-110.04 273.63,-103.47 276.04,-113.79 281.95,-110.04"/>
</g>
<!-- 937&#45;&gt;1029 -->
<g id="edge19" class="edge">
<title>937&#45;&gt;1029</title>
<path fill="none" stroke="green" stroke-width="0.45" stroke-dasharray="1,5" d="M179.51,-242.24C168.34,-230.93 152.63,-215.04 139.52,-201.76"/>
<polygon fill="green" stroke="green" stroke-width="0.45" points="141.66,-198.96 132.15,-194.3 136.69,-203.88 141.66,-198.96"/>
</g>
<!-- 1131&#45;&gt;2 -->
<g id="edge24" class="edge">
<title>1131&#45;&gt;2</title>
<path fill="none" stroke="red" stroke-width="0.23" d="M152.88,-69.34C146.18,-59.07 138.05,-46.6 131.32,-36.28"/>
<polygon fill="red" stroke="red" stroke-width="0.23" points="134.24,-34.34 125.84,-27.88 128.38,-38.17 134.24,-34.34"/>
</g>
<!-- 1101&#45;&gt;937 -->
<g id="edge18" class="edge">
<title>1101&#45;&gt;937</title>
<path fill="none" stroke="green" stroke-width="0.33" stroke-dasharray="1,5" d="M188.4,-314.88C189.21,-306.77 190.13,-297.6 190.98,-289.08"/>
<polygon fill="green" stroke="green" stroke-width="0.33" points="194.47,-289.4 191.98,-279.1 187.5,-288.71 194.47,-289.4"/>
</g>
<!-- 1009 -->
<g id="node21" class="node">
<title>1009</title>
<ellipse fill="white" stroke="black" cx="526" cy="-425.37" rx="25" ry="25"/>
<text text-anchor="middle" x="526" y="-423.17" font-family="Times New Roman,serif" font-size="9.00">1009</text>
</g>
<!-- 987&#45;&gt;1 -->
<g id="edge13" class="edge">
<title>987&#45;&gt;1</title>
<path fill="none" stroke="red" stroke-width="0.27" d="M227.39,-157.24C235.06,-144.17 245.53,-126.33 253.63,-112.53"/>
<polygon fill="red" stroke="red" stroke-width="0.27" points="256.75,-114.12 258.79,-103.72 250.72,-110.58 256.75,-114.12"/>
</g>
</g>
</svg>
