<?xml version="1.0" encoding="UTF-8" standalone="no"?>
<!DOCTYPE svg PUBLIC "-//W3C//DTD SVG 1.1//EN"
 "http://www.w3.org/Graphics/SVG/1.1/DTD/svg11.dtd">
<!-- Generated by graphviz version 2.47.1 (20210417.1919)
 -->
<!-- Pages: 1 -->
<svg width="532pt" height="243pt"
 viewBox="0.00 0.00 532.11 242.89" xmlns="http://www.w3.org/2000/svg" xmlns:xlink="http://www.w3.org/1999/xlink">
<g id="graph0" class="graph" transform="scale(1 1) rotate(0) translate(4 238.89)">
<polygon fill="white" stroke="transparent" points="-4,4 -4,-238.89 528.11,-238.89 528.11,4 -4,4"/>
<!-- &#45;1 -->
<g id="node1" class="node">
<title>&#45;1</title>
<polygon fill="lightgray" stroke="black" points="108,-234.89 84,-234.89 84,-216.89 108,-216.89 108,-234.89"/>
<text text-anchor="middle" x="96" y="-223.69" font-family="Times New Roman,serif" font-size="9.00">&#45;1</text>
</g>
<!-- 0 -->
<g id="node12" class="node">
<title>0</title>
<ellipse fill="lightblue" stroke="black" cx="132" cy="-166.05" rx="14.7" ry="14.7"/>
<text text-anchor="middle" x="132" y="-163.85" font-family="Times New Roman,serif" font-size="9.00">0</text>
</g>
<!-- &#45;1&#45;&gt;0 -->
<g id="edge1" class="edge">
<title>&#45;1&#45;&gt;0</title>
<path fill="none" stroke="green" stroke-width="2.91" d="M101.01,-216.85C105.68,-209.34 112.86,-197.81 119.13,-187.73"/>
<polygon fill="green" stroke="green" stroke-width="2.91" points="122.22,-189.38 124.54,-179.04 116.28,-185.68 122.22,-189.38"/>
</g>
<!-- 1 -->
<g id="node13" class="node">
<title>1</title>
<ellipse fill="lightblue" stroke="black" cx="228" cy="-166.05" rx="14.7" ry="14.7"/>
<text text-anchor="middle" x="228" y="-163.85" font-family="Times New Roman,serif" font-size="9.00">1</text>
</g>
<!-- &#45;1&#45;&gt;1 -->
<g id="edge2" class="edge">
<title>&#45;1&#45;&gt;1</title>
<path fill="none" stroke="red" stroke-width="1.52" d="M108.08,-220.21C132.34,-210.77 186.18,-189.62 204,-180.89 204.83,-180.49 205.67,-180.06 206.52,-179.63"/>
<polygon fill="red" stroke="red" stroke-width="1.52" points="208.39,-182.59 215.47,-174.71 205.02,-176.46 208.39,-182.59"/>
</g>
<!-- 2 -->
<g id="node14" class="node">
<title>2</title>
<ellipse fill="lightblue" stroke="black" cx="180" cy="-166.05" rx="14.7" ry="14.7"/>
<text text-anchor="middle" x="180" y="-163.85" font-family="Times New Roman,serif" font-size="9.00">2</text>
</g>
<!-- &#45;1&#45;&gt;2 -->
<g id="edge3" class="edge">
<title>&#45;1&#45;&gt;2</title>
<path fill="none" stroke="green" stroke-width="0.46" stroke-dasharray="1,5" d="M107.68,-216.85C121.14,-207.58 143.51,-192.17 159.81,-180.95"/>
<polygon fill="green" stroke="green" stroke-width="0.46" points="161.9,-183.76 168.15,-175.21 157.93,-178 161.9,-183.76"/>
</g>
<!-- 3 -->
<g id="node15" class="node">
<title>3</title>
<ellipse fill="lightblue" stroke="black" cx="290" cy="-14.85" rx="14.7" ry="14.7"/>
<text text-anchor="middle" x="290" y="-12.65" font-family="Times New Roman,serif" font-size="9.00">3</text>
</g>
<!-- &#45;1&#45;&gt;3 -->
<g id="edge4" class="edge">
<title>&#45;1&#45;&gt;3</title>
<path fill="none" stroke="green" stroke-width="0.34" stroke-dasharray="1,5" d="M93.45,-216.8C85.95,-191.26 66.77,-111.39 104,-65.7 124.33,-40.74 219.32,-25.13 265.14,-18.92"/>
<polygon fill="green" stroke="green" stroke-width="0.34" points="265.69,-22.38 275.15,-17.61 264.78,-15.44 265.69,-22.38"/>
</g>
<!-- &#45;2 -->
<g id="node2" class="node">
<title>&#45;2</title>
<polygon fill="lightgray" stroke="black" points="192,-234.89 168,-234.89 168,-216.89 192,-216.89 192,-234.89"/>
<text text-anchor="middle" x="180" y="-223.69" font-family="Times New Roman,serif" font-size="9.00">&#45;2</text>
</g>
<!-- &#45;2&#45;&gt;0 -->
<g id="edge5" class="edge">
<title>&#45;2&#45;&gt;0</title>
<path fill="none" stroke="green" stroke-width="0.89" d="M173.33,-216.85C166.74,-208.91 156.43,-196.49 147.75,-186.03"/>
<polygon fill="green" stroke="green" stroke-width="0.89" points="150.33,-183.65 141.25,-178.19 144.94,-188.12 150.33,-183.65"/>
</g>
<!-- &#45;2&#45;&gt;1 -->
<g id="edge6" class="edge">
<title>&#45;2&#45;&gt;1</title>
<path fill="none" stroke="red" stroke-width="2.87" d="M186.67,-216.85C193.26,-208.91 203.57,-196.49 212.25,-186.03"/>
<polygon fill="red" stroke="red" stroke-width="2.87" points="215.06,-188.12 218.75,-178.19 209.67,-183.65 215.06,-188.12"/>
</g>
<!-- &#45;2&#45;&gt;2 -->
<g id="edge7" class="edge">
<title>&#45;2&#45;&gt;2</title>
<path fill="none" stroke="red" stroke-width="1.43" stroke-dasharray="1,5" d="M180,-216.85C180,-210.25 180,-200.53 180,-191.43"/>
<polygon fill="red" stroke="red" stroke-width="1.43" points="183.5,-191.25 180,-181.25 176.5,-191.25 183.5,-191.25"/>
</g>
<!-- &#45;3 -->
<g id="node3" class="node">
<title>&#45;3</title>
<polygon fill="lightgray" stroke="black" points="66,-234.89 42,-234.89 42,-216.89 66,-216.89 66,-234.89"/>
<text text-anchor="middle" x="54" y="-223.69" font-family="Times New Roman,serif" font-size="9.00">&#45;3</text>
</g>
<!-- &#45;3&#45;&gt;0 -->
<g id="edge8" class="edge">
<title>&#45;3&#45;&gt;0</title>
<path fill="none" stroke="green" stroke-width="0.72" d="M64.85,-216.85C77.09,-207.77 97.27,-192.8 112.32,-181.64"/>
<polygon fill="green" stroke="green" stroke-width="0.72" points="114.54,-184.35 120.49,-175.58 110.37,-178.73 114.54,-184.35"/>
</g>
<!-- &#45;3&#45;&gt;1 -->
<g id="edge9" class="edge">
<title>&#45;3&#45;&gt;1</title>
<path fill="none" stroke="red" stroke-width="1.5" d="M66.37,-219.97C69.19,-218.9 72.18,-217.82 75,-216.89 131.54,-198.28 149.12,-203.95 204,-180.89 204.85,-180.54 205.71,-180.15 206.58,-179.75"/>
<polygon fill="red" stroke="red" stroke-width="1.5" points="208.39,-182.75 215.6,-174.99 205.12,-176.56 208.39,-182.75"/>
</g>
<!-- &#45;3&#45;&gt;2 -->
<g id="edge10" class="edge">
<title>&#45;3&#45;&gt;2</title>
<path fill="none" stroke="red" stroke-width="1.36" d="M66.14,-220.19C85.47,-212.58 124.29,-196.82 156,-180.89 156.83,-180.48 157.67,-180.05 158.51,-179.61"/>
<polygon fill="red" stroke="red" stroke-width="1.36" points="160.39,-182.56 167.45,-174.66 157,-176.44 160.39,-182.56"/>
</g>
<!-- &#45;3&#45;&gt;3 -->
<g id="edge11" class="edge">
<title>&#45;3&#45;&gt;3</title>
<path fill="none" stroke="green" stroke-width="1.78" d="M52.58,-216.62C48.6,-190.55 40.2,-109.29 81,-65.7 105.99,-38.99 215.34,-23.95 265.14,-18.37"/>
<polygon fill="green" stroke="green" stroke-width="1.78" points="265.52,-21.85 275.08,-17.3 264.76,-14.89 265.52,-21.85"/>
</g>
<!-- &#45;4 -->
<g id="node4" class="node">
<title>&#45;4</title>
<polygon fill="lightgray" stroke="black" points="488,-234.89 464,-234.89 464,-216.89 488,-216.89 488,-234.89"/>
<text text-anchor="middle" x="476" y="-223.69" font-family="Times New Roman,serif" font-size="9.00">&#45;4</text>
</g>
<!-- &#45;4&#45;&gt;1 -->
<g id="edge12" class="edge">
<title>&#45;4&#45;&gt;1</title>
<path fill="none" stroke="red" stroke-width="2.05" d="M463.7,-222.03C424.92,-212.98 304.7,-184.94 252.55,-172.77"/>
<polygon fill="red" stroke="red" stroke-width="2.05" points="253.04,-169.29 242.51,-170.43 251.45,-176.11 253.04,-169.29"/>
</g>
<!-- &#45;4&#45;&gt;3 -->
<g id="edge13" class="edge">
<title>&#45;4&#45;&gt;3</title>
<path fill="none" stroke="green" stroke-width="0.42" d="M481.98,-216.55C499.54,-190.97 547.39,-112.51 510,-65.7 485.81,-35.42 367.52,-22.16 315.1,-17.71"/>
<polygon fill="green" stroke="green" stroke-width="0.42" points="315.22,-14.2 304.97,-16.89 314.65,-21.18 315.22,-14.2"/>
</g>
<!-- 4051 -->
<g id="node17" class="node">
<title>4051</title>
<ellipse fill="white" stroke="black" cx="476" cy="-90.45" rx="25" ry="25"/>
<text text-anchor="middle" x="476" y="-88.25" font-family="Times New Roman,serif" font-size="9.00">4051</text>
</g>
<!-- &#45;4&#45;&gt;4051 -->
<g id="edge44" class="edge">
<title>&#45;4&#45;&gt;4051</title>
<path fill="none" stroke="green" stroke-width="1.06" d="M476,-216.55C476,-198.73 476,-156.13 476,-125.59"/>
<polygon fill="green" stroke="green" stroke-width="1.06" points="479.5,-125.36 476,-115.36 472.5,-125.36 479.5,-125.36"/>
</g>
<!-- &#45;5 -->
<g id="node5" class="node">
<title>&#45;5</title>
<polygon fill="lightgray" stroke="black" points="24,-234.89 0,-234.89 0,-216.89 24,-216.89 24,-234.89"/>
<text text-anchor="middle" x="12" y="-223.69" font-family="Times New Roman,serif" font-size="9.00">&#45;5</text>
</g>
<!-- &#45;5&#45;&gt;0 -->
<g id="edge14" class="edge">
<title>&#45;5&#45;&gt;0</title>
<path fill="none" stroke="red" stroke-width="2.12" d="M24.39,-218.92C44.48,-209.24 84.44,-189.97 109.61,-177.84"/>
<polygon fill="red" stroke="red" stroke-width="2.12" points="111.28,-180.92 118.77,-173.42 108.24,-174.61 111.28,-180.92"/>
</g>
<!-- &#45;5&#45;&gt;1 -->
<g id="edge15" class="edge">
<title>&#45;5&#45;&gt;1</title>
<path fill="none" stroke="green" stroke-width="0.86" stroke-dasharray="1,5" d="M24.33,-219.83C27.15,-218.77 30.16,-217.73 33,-216.89 107.52,-195 131.46,-208.65 204,-180.89 204.86,-180.56 205.74,-180.2 206.61,-179.82"/>
<polygon fill="green" stroke="green" stroke-width="0.86" points="208.38,-182.85 215.67,-175.16 205.17,-176.62 208.38,-182.85"/>
</g>
<!-- &#45;5&#45;&gt;2 -->
<g id="edge16" class="edge">
<title>&#45;5&#45;&gt;2</title>
<path fill="none" stroke="red" stroke-width="0.44" stroke-dasharray="1,5" d="M24.38,-219.99C27.2,-218.93 30.19,-217.84 33,-216.89 86.99,-198.74 103.63,-203.29 156,-180.89 156.85,-180.53 157.71,-180.14 158.57,-179.74"/>
<polygon fill="red" stroke="red" stroke-width="0.44" points="160.39,-182.73 167.59,-174.96 157.11,-176.55 160.39,-182.73"/>
</g>
<!-- &#45;5&#45;&gt;3 -->
<g id="edge17" class="edge">
<title>&#45;5&#45;&gt;3</title>
<path fill="none" stroke="green" stroke-width="2.15" stroke-dasharray="1,5" d="M11.33,-216.86C9.62,-190.81 8.03,-107.96 52,-65.7 82.4,-36.48 210.25,-22.51 264.97,-17.78"/>
<polygon fill="green" stroke="green" stroke-width="2.15" points="265.51,-21.25 275.19,-16.93 264.93,-14.27 265.51,-21.25"/>
</g>
<!-- 1991 -->
<g id="node16" class="node">
<title>1991</title>
<ellipse fill="white" stroke="black" cx="180" cy="-90.45" rx="25" ry="25"/>
<text text-anchor="middle" x="180" y="-88.25" font-family="Times New Roman,serif" font-size="9.00">1991</text>
</g>
<!-- &#45;5&#45;&gt;1991 -->
<g id="edge40" class="edge">
<title>&#45;5&#45;&gt;1991</title>
<path fill="none" stroke="red" stroke-width="1.72" stroke-dasharray="1,5" d="M22.26,-216.75C47.82,-196.44 115.04,-143.04 152.97,-112.92"/>
<polygon fill="red" stroke="red" stroke-width="1.72" points="155.38,-115.47 161.04,-106.51 151.03,-109.99 155.38,-115.47"/>
</g>
<!-- &#45;6 -->
<g id="node6" class="node">
<title>&#45;6</title>
<polygon fill="lightgray" stroke="black" points="372,-234.89 348,-234.89 348,-216.89 372,-216.89 372,-234.89"/>
<text text-anchor="middle" x="360" y="-223.69" font-family="Times New Roman,serif" font-size="9.00">&#45;6</text>
</g>
<!-- &#45;6&#45;&gt;1 -->
<g id="edge18" class="edge">
<title>&#45;6&#45;&gt;1</title>
<path fill="none" stroke="green" stroke-width="1" stroke-dasharray="1,5" d="M347.82,-219.56C325.76,-209.89 278.9,-189.35 250.76,-177.02"/>
<polygon fill="green" stroke="green" stroke-width="1" points="251.89,-173.69 241.32,-172.88 249.08,-180.1 251.89,-173.69"/>
</g>
<!-- &#45;6&#45;&gt;2 -->
<g id="edge19" class="edge">
<title>&#45;6&#45;&gt;2</title>
<path fill="none" stroke="green" stroke-width="1.32" d="M347.96,-220.3C344.74,-219.14 341.26,-217.92 338,-216.89 279.19,-198.34 260.97,-204.51 204,-180.89 203.14,-180.54 202.28,-180.16 201.42,-179.76"/>
<polygon fill="green" stroke="green" stroke-width="1.32" points="202.87,-176.57 192.39,-175.02 199.61,-182.77 202.87,-176.57"/>
</g>
<!-- &#45;6&#45;&gt;3 -->
<g id="edge20" class="edge">
<title>&#45;6&#45;&gt;3</title>
<path fill="none" stroke="green" stroke-width="0.58" d="M359.33,-216.59C357.15,-192.37 348.92,-120.1 325,-65.7 320.1,-54.55 312.52,-43.34 305.67,-34.38"/>
<polygon fill="green" stroke="green" stroke-width="0.58" points="308.4,-32.2 299.43,-26.56 302.93,-36.56 308.4,-32.2"/>
</g>
<!-- &#45;7 -->
<g id="node7" class="node">
<title>&#45;7</title>
<polygon fill="lightgray" stroke="black" points="150,-234.89 126,-234.89 126,-216.89 150,-216.89 150,-234.89"/>
<text text-anchor="middle" x="138" y="-223.69" font-family="Times New Roman,serif" font-size="9.00">&#45;7</text>
</g>
<!-- &#45;7&#45;&gt;0 -->
<g id="edge21" class="edge">
<title>&#45;7&#45;&gt;0</title>
<path fill="none" stroke="red" stroke-width="0.99" stroke-dasharray="1,5" d="M137.17,-216.85C136.48,-210.25 135.47,-200.53 134.53,-191.43"/>
<polygon fill="red" stroke="red" stroke-width="0.99" points="137.99,-190.84 133.47,-181.25 131.02,-191.56 137.99,-190.84"/>
</g>
<!-- &#45;7&#45;&gt;1 -->
<g id="edge22" class="edge">
<title>&#45;7&#45;&gt;1</title>
<path fill="none" stroke="green" stroke-width="0.11" stroke-dasharray="1,5" d="M150.14,-217.09C164.77,-207.69 189.58,-191.74 207.26,-180.38"/>
<polygon fill="green" stroke="green" stroke-width="0.11" points="209.25,-183.26 215.77,-174.91 205.46,-177.37 209.25,-183.26"/>
</g>
<!-- &#45;7&#45;&gt;2 -->
<g id="edge23" class="edge">
<title>&#45;7&#45;&gt;2</title>
<path fill="none" stroke="red" stroke-width="1.31" stroke-dasharray="1,5" d="M143.84,-216.85C149.47,-209.09 158.23,-197.03 165.71,-186.73"/>
<polygon fill="red" stroke="red" stroke-width="1.31" points="168.56,-188.76 171.6,-178.61 162.89,-184.65 168.56,-188.76"/>
</g>
<!-- &#45;7&#45;&gt;3 -->
<g id="edge24" class="edge">
<title>&#45;7&#45;&gt;3</title>
<path fill="none" stroke="red" stroke-width="2.32" stroke-dasharray="1,5" d="M130.07,-216.62C122.72,-208.34 112.31,-194.85 108,-180.89 92.11,-129.38 106.29,-102.17 146,-65.7 179.64,-34.8 233.4,-22.91 264.84,-18.44"/>
<polygon fill="red" stroke="red" stroke-width="2.32" points="265.49,-21.88 274.96,-17.15 264.6,-14.94 265.49,-21.88"/>
</g>
<!-- &#45;8 -->
<g id="node8" class="node">
<title>&#45;8</title>
<polygon fill="lightgray" stroke="black" points="282,-234.89 258,-234.89 258,-216.89 282,-216.89 282,-234.89"/>
<text text-anchor="middle" x="270" y="-223.69" font-family="Times New Roman,serif" font-size="9.00">&#45;8</text>
</g>
<!-- &#45;8&#45;&gt;0 -->
<g id="edge25" class="edge">
<title>&#45;8&#45;&gt;0</title>
<path fill="none" stroke="red" stroke-width="1.59" stroke-dasharray="1,5" d="M257.63,-220.4C232.2,-211.1 174.85,-189.91 156,-180.89 155.16,-180.5 154.32,-180.08 153.47,-179.65"/>
<polygon fill="red" stroke="red" stroke-width="1.59" points="154.96,-176.47 144.51,-174.75 151.61,-182.62 154.96,-176.47"/>
</g>
<!-- &#45;8&#45;&gt;1 -->
<g id="edge26" class="edge">
<title>&#45;8&#45;&gt;1</title>
<path fill="none" stroke="red" stroke-width="0.27" stroke-dasharray="1,5" d="M264.16,-216.85C258.53,-209.09 249.77,-197.03 242.29,-186.73"/>
<polygon fill="red" stroke="red" stroke-width="0.27" points="245.11,-184.65 236.4,-178.61 239.44,-188.76 245.11,-184.65"/>
</g>
<!-- &#45;8&#45;&gt;2 -->
<g id="edge27" class="edge">
<title>&#45;8&#45;&gt;2</title>
<path fill="none" stroke="green" stroke-width="4.74" d="M257.86,-217.09C243.23,-207.69 218.42,-191.74 200.74,-180.38"/>
<polygon fill="green" stroke="green" stroke-width="4.74" points="202.89,-176.83 192.23,-174.91 198.4,-183.8 202.89,-176.83"/>
</g>
<!-- &#45;8&#45;&gt;3 -->
<g id="edge28" class="edge">
<title>&#45;8&#45;&gt;3</title>
<path fill="none" stroke="red" stroke-width="1.26" d="M273.64,-216.66C277.28,-207.96 282.67,-193.76 285,-180.89 293.97,-131.44 293,-72.31 291.5,-39.96"/>
<polygon fill="red" stroke="red" stroke-width="1.26" points="294.98,-39.49 290.96,-29.69 287.99,-39.86 294.98,-39.49"/>
</g>
<!-- &#45;9 -->
<g id="node9" class="node">
<title>&#45;9</title>
<polygon fill="lightgray" stroke="black" points="414,-234.89 390,-234.89 390,-216.89 414,-216.89 414,-234.89"/>
<text text-anchor="middle" x="402" y="-223.69" font-family="Times New Roman,serif" font-size="9.00">&#45;9</text>
</g>
<!-- &#45;9&#45;&gt;1 -->
<g id="edge29" class="edge">
<title>&#45;9&#45;&gt;1</title>
<path fill="none" stroke="green" stroke-width="0.13" d="M389.6,-220.06C386.78,-218.99 383.8,-217.88 381,-216.89 335.52,-200.83 281.8,-183.76 251.63,-174.35"/>
<polygon fill="green" stroke="green" stroke-width="0.13" points="252.59,-170.98 242,-171.35 250.51,-177.67 252.59,-170.98"/>
</g>
<!-- &#45;9&#45;&gt;2 -->
<g id="edge30" class="edge">
<title>&#45;9&#45;&gt;2</title>
<path fill="none" stroke="red" stroke-width="0.67" stroke-dasharray="1,5" d="M389.68,-219.82C386.86,-218.76 383.85,-217.72 381,-216.89 303.9,-194.53 279.07,-209.33 204,-180.89 203.13,-180.57 202.26,-180.21 201.39,-179.83"/>
<polygon fill="red" stroke="red" stroke-width="0.67" points="202.82,-176.63 192.33,-175.17 199.62,-182.86 202.82,-176.63"/>
</g>
<!-- &#45;9&#45;&gt;3 -->
<g id="edge31" class="edge">
<title>&#45;9&#45;&gt;3</title>
<path fill="none" stroke="green" stroke-width="1.53" d="M400.78,-216.6C396.8,-191.79 382.46,-116.73 348,-65.7 338.19,-51.18 323.09,-38.38 310.75,-29.39"/>
<polygon fill="green" stroke="green" stroke-width="1.53" points="312.57,-26.39 302.37,-23.54 308.57,-32.14 312.57,-26.39"/>
</g>
<!-- &#45;10 -->
<g id="node10" class="node">
<title>&#45;10</title>
<polygon fill="lightgray" stroke="black" points="239.5,-234.89 210.5,-234.89 210.5,-216.89 239.5,-216.89 239.5,-234.89"/>
<text text-anchor="middle" x="225" y="-223.69" font-family="Times New Roman,serif" font-size="9.00">&#45;10</text>
</g>
<!-- &#45;10&#45;&gt;0 -->
<g id="edge32" class="edge">
<title>&#45;10&#45;&gt;0</title>
<path fill="none" stroke="green" stroke-width="1.61" d="M212.07,-216.85C196.77,-207.33 171.09,-191.36 152.94,-180.07"/>
<polygon fill="green" stroke="green" stroke-width="1.61" points="154.57,-176.96 144.23,-174.65 150.87,-182.91 154.57,-176.96"/>
</g>
<!-- &#45;10&#45;&gt;1 -->
<g id="edge33" class="edge">
<title>&#45;10&#45;&gt;1</title>
<path fill="none" stroke="red" stroke-width="2.07" d="M225.42,-216.85C225.76,-210.25 226.26,-200.53 226.74,-191.43"/>
<polygon fill="red" stroke="red" stroke-width="2.07" points="230.24,-191.42 227.26,-181.25 223.25,-191.06 230.24,-191.42"/>
</g>
<!-- &#45;10&#45;&gt;2 -->
<g id="edge34" class="edge">
<title>&#45;10&#45;&gt;2</title>
<path fill="none" stroke="red" stroke-width="0.24" d="M218.74,-216.85C212.63,-208.99 203.09,-196.73 195.01,-186.34"/>
<polygon fill="red" stroke="red" stroke-width="0.24" points="197.57,-183.93 188.67,-178.19 192.05,-188.23 197.57,-183.93"/>
</g>
<!-- &#45;10&#45;&gt;3 -->
<g id="edge35" class="edge">
<title>&#45;10&#45;&gt;3</title>
<path fill="none" stroke="green" stroke-width="0.22" d="M231.02,-216.89C237.15,-208.38 246.5,-194.33 252,-180.89 271.61,-132.97 282.22,-72.89 286.93,-40.04"/>
<polygon fill="green" stroke="green" stroke-width="0.22" points="290.42,-40.39 288.31,-30.01 283.48,-39.44 290.42,-40.39"/>
</g>
<!-- &#45;11 -->
<g id="node11" class="node">
<title>&#45;11</title>
<polygon fill="lightgray" stroke="black" points="329.5,-234.89 300.5,-234.89 300.5,-216.89 329.5,-216.89 329.5,-234.89"/>
<text text-anchor="middle" x="315" y="-223.69" font-family="Times New Roman,serif" font-size="9.00">&#45;11</text>
</g>
<!-- &#45;11&#45;&gt;0 -->
<g id="edge36" class="edge">
<title>&#45;11&#45;&gt;0</title>
<path fill="none" stroke="red" stroke-width="1.75" d="M300.32,-219.84C297.25,-218.83 294.03,-217.8 291,-216.89 231.52,-199.07 213.39,-204.62 156,-180.89 155.14,-180.54 154.28,-180.16 153.42,-179.76"/>
<polygon fill="red" stroke="red" stroke-width="1.75" points="154.87,-176.57 144.39,-175.02 151.61,-182.77 154.87,-176.57"/>
</g>
<!-- &#45;11&#45;&gt;1 -->
<g id="edge37" class="edge">
<title>&#45;11&#45;&gt;1</title>
<path fill="none" stroke="green" stroke-width="2.11" d="M302.9,-216.85C288.88,-207.53 265.53,-192 248.62,-180.76"/>
<polygon fill="green" stroke="green" stroke-width="2.11" points="250.26,-177.64 239.99,-175.02 246.38,-183.47 250.26,-177.64"/>
</g>
<!-- &#45;11&#45;&gt;2 -->
<g id="edge38" class="edge">
<title>&#45;11&#45;&gt;2</title>
<path fill="none" stroke="green" stroke-width="0.88" d="M300.34,-219.86C278.82,-212.29 237.59,-197.14 204,-180.89 203.17,-180.49 202.32,-180.07 201.47,-179.64"/>
<polygon fill="green" stroke="green" stroke-width="0.88" points="202.97,-176.47 192.52,-174.73 199.61,-182.6 202.97,-176.47"/>
</g>
<!-- &#45;11&#45;&gt;3 -->
<g id="edge39" class="edge">
<title>&#45;11&#45;&gt;3</title>
<path fill="none" stroke="green" stroke-width="0.1" stroke-dasharray="1,5" d="M315.38,-216.85C316.32,-193.33 317.94,-122.77 307,-65.7 305.24,-56.5 302.17,-46.69 299.11,-38.23"/>
<polygon fill="green" stroke="green" stroke-width="0.1" points="302.32,-36.8 295.49,-28.7 295.77,-39.29 302.32,-36.8"/>
</g>
<!-- 0&#45;&gt;1991 -->
<g id="edge42" class="edge">
<title>0&#45;&gt;1991</title>
<path fill="none" stroke="green" stroke-width="1.35" stroke-dasharray="1,5" d="M139.71,-153.22C145.54,-144.28 153.8,-131.63 161.32,-120.09"/>
<polygon fill="green" stroke="green" stroke-width="1.35" points="164.34,-121.86 166.87,-111.57 158.48,-118.04 164.34,-121.86"/>
</g>
<!-- 1&#45;&gt;1991 -->
<g id="edge43" class="edge">
<title>1&#45;&gt;1991</title>
<path fill="none" stroke="red" stroke-width="0.83" stroke-dasharray="1,5" d="M220.29,-153.22C214.46,-144.28 206.2,-131.63 198.68,-120.09"/>
<polygon fill="red" stroke="red" stroke-width="0.83" points="201.52,-118.04 193.13,-111.57 195.66,-121.86 201.52,-118.04"/>
</g>
<!-- 1991&#45;&gt;3 -->
<g id="edge41" class="edge">
<title>1991&#45;&gt;3</title>
<path fill="none" stroke="green" stroke-width="2.12" stroke-dasharray="1,5" d="M200.18,-75.95C219.88,-62.76 249.71,-42.8 269.52,-29.55"/>
<polygon fill="green" stroke="green" stroke-width="2.12" points="271.73,-32.28 278.1,-23.81 267.84,-26.46 271.73,-32.28"/>
</g>
<!-- 4051&#45;&gt;3 -->
<g id="edge45" class="edge">
<title>4051&#45;&gt;3</title>
<path fill="none" stroke="green" stroke-width="0.65" d="M455.82,-76C449.9,-72.38 443.32,-68.65 437,-65.7 395.25,-46.2 343.69,-30.51 314.05,-22.24"/>
<polygon fill="green" stroke="green" stroke-width="0.65" points="314.75,-18.8 304.18,-19.53 312.9,-25.55 314.75,-18.8"/>
</g>
</g>
</svg>
