<?xml version="1.0" encoding="UTF-8" standalone="no"?>
<!DOCTYPE svg PUBLIC "-//W3C//DTD SVG 1.1//EN"
 "http://www.w3.org/Graphics/SVG/1.1/DTD/svg11.dtd">
<!-- Generated by graphviz version 2.47.1 (20210417.1919)
 -->
<!-- Pages: 1 -->
<svg width="732pt" height="456pt"
 viewBox="0.00 0.00 731.56 456.32" xmlns="http://www.w3.org/2000/svg" xmlns:xlink="http://www.w3.org/1999/xlink">
<g id="graph0" class="graph" transform="scale(1 1) rotate(0) translate(4 452.32)">
<polygon fill="white" stroke="transparent" points="-4,4 -4,-452.32 727.56,-452.32 727.56,4 -4,4"/>
<!-- &#45;1 -->
<g id="node1" class="node">
<title>&#45;1</title>
<polygon fill="lightgray" stroke="black" points="669.05,-448.32 645.05,-448.32 645.05,-430.32 669.05,-430.32 669.05,-448.32"/>
<text text-anchor="middle" x="657.05" y="-437.12" font-family="Times New Roman,serif" font-size="9.00">&#45;1</text>
</g>
<!-- 0 -->
<g id="node12" class="node">
<title>0</title>
<ellipse fill="lightblue" stroke="black" cx="423.05" cy="-275.58" rx="14.7" ry="14.7"/>
<text text-anchor="middle" x="423.05" y="-273.38" font-family="Times New Roman,serif" font-size="9.00">0</text>
</g>
<!-- &#45;1&#45;&gt;0 -->
<g id="edge25" class="edge">
<title>&#45;1&#45;&gt;0</title>
<path fill="none" stroke="green" stroke-width="0.41" d="M652.97,-430.17C642.09,-408.73 612.03,-351.53 595.05,-339.16 542.06,-300.59 509.74,-334.25 452.05,-303.16 447.74,-300.84 443.57,-297.73 439.79,-294.47"/>
<polygon fill="green" stroke="green" stroke-width="0.41" points="441.93,-291.66 432.28,-287.29 437.1,-296.73 441.93,-291.66"/>
</g>
<!-- 1 -->
<g id="node13" class="node">
<title>1</title>
<ellipse fill="lightblue" stroke="black" cx="544.05" cy="-106" rx="14.7" ry="14.7"/>
<text text-anchor="middle" x="544.05" y="-103.8" font-family="Times New Roman,serif" font-size="9.00">1</text>
</g>
<!-- &#45;1&#45;&gt;1 -->
<g id="edge1" class="edge">
<title>&#45;1&#45;&gt;1</title>
<path fill="none" stroke="green" stroke-width="0.26" d="M668.85,-430.12C679.03,-422.27 693,-409.41 699.05,-394.32 738.72,-295.29 731.62,-239.4 664.05,-156.85 640.2,-127.73 596.46,-115.39 568.89,-110.33"/>
<polygon fill="green" stroke="green" stroke-width="0.26" points="569.29,-106.85 558.85,-108.68 568.15,-113.76 569.29,-106.85"/>
</g>
<!-- 3 -->
<g id="node15" class="node">
<title>3</title>
<ellipse fill="lightblue" stroke="black" cx="342.05" cy="-184.43" rx="14.7" ry="14.7"/>
<text text-anchor="middle" x="342.05" y="-182.23" font-family="Times New Roman,serif" font-size="9.00">3</text>
</g>
<!-- &#45;1&#45;&gt;3 -->
<g id="edge30" class="edge">
<title>&#45;1&#45;&gt;3</title>
<path fill="none" stroke="red" stroke-width="0.75" d="M663.16,-430.13C676.06,-411.8 703.14,-366.85 681.05,-339.16 636.13,-282.86 583.38,-342.5 523.05,-303.16 497.46,-286.48 505.87,-267.12 482.05,-248.01 446.53,-219.52 396,-201.17 366.35,-192.13"/>
<polygon fill="red" stroke="red" stroke-width="0.75" points="367.02,-188.67 356.44,-189.21 365.05,-195.39 367.02,-188.67"/>
</g>
<!-- 33491 -->
<g id="node20" class="node">
<title>33491</title>
<ellipse fill="white" stroke="black" cx="558.05" cy="-366.74" rx="27.65" ry="27.65"/>
<text text-anchor="middle" x="558.05" y="-364.54" font-family="Times New Roman,serif" font-size="9.00">33491</text>
</g>
<!-- &#45;1&#45;&gt;33491 -->
<g id="edge39" class="edge">
<title>&#45;1&#45;&gt;33491</title>
<path fill="none" stroke="green" stroke-width="0.17" d="M645.69,-430.22C631.8,-420.32 607.73,-403.16 588.33,-389.33"/>
<polygon fill="green" stroke="green" stroke-width="0.17" points="590.25,-386.4 580.07,-383.44 586.19,-392.1 590.25,-386.4"/>
</g>
<!-- &#45;2 -->
<g id="node2" class="node">
<title>&#45;2</title>
<polygon fill="lightgray" stroke="black" points="144.05,-375.74 120.05,-375.74 120.05,-357.74 144.05,-357.74 144.05,-375.74"/>
<text text-anchor="middle" x="132.05" y="-364.54" font-family="Times New Roman,serif" font-size="9.00">&#45;2</text>
</g>
<!-- &#45;2&#45;&gt;0 -->
<g id="edge2" class="edge">
<title>&#45;2&#45;&gt;0</title>
<path fill="none" stroke="green" stroke-width="1.08" d="M136.48,-357.53C140.14,-351.54 145.89,-343.69 153.05,-339.16 173.94,-325.92 335.51,-293.57 398.25,-281.36"/>
<polygon fill="green" stroke="green" stroke-width="1.08" points="399.28,-284.72 408.43,-279.38 397.95,-277.85 399.28,-284.72"/>
</g>
<!-- &#45;2&#45;&gt;1 -->
<g id="edge27" class="edge">
<title>&#45;2&#45;&gt;1</title>
<path fill="none" stroke="red" stroke-width="0.26" stroke-dasharray="1,5" d="M126.85,-357.63C122.96,-352 117.27,-344.55 111.05,-339.16 86.97,-318.29 64.94,-330.78 49.05,-303.16 36.82,-281.92 36.46,-269.04 49.05,-248.01 93.07,-174.44 137.73,-184 219.05,-156.85 326.69,-120.92 463.14,-110.73 518.75,-107.98"/>
<polygon fill="red" stroke="red" stroke-width="0.26" points="519.22,-111.46 529.05,-107.51 518.9,-104.46 519.22,-111.46"/>
</g>
<!-- 2 -->
<g id="node14" class="node">
<title>2</title>
<ellipse fill="lightblue" stroke="black" cx="261.05" cy="-275.58" rx="14.7" ry="14.7"/>
<text text-anchor="middle" x="261.05" y="-273.38" font-family="Times New Roman,serif" font-size="9.00">2</text>
</g>
<!-- &#45;2&#45;&gt;2 -->
<g id="edge3" class="edge">
<title>&#45;2&#45;&gt;2</title>
<path fill="none" stroke="red" stroke-width="0.12" d="M137.24,-357.63C141.12,-351.99 146.82,-344.55 153.05,-339.16 179.45,-316.3 215.41,-297.43 238.43,-286.58"/>
<polygon fill="red" stroke="red" stroke-width="0.12" points="240.1,-289.66 247.73,-282.3 237.18,-283.3 240.1,-289.66"/>
</g>
<!-- &#45;2&#45;&gt;3 -->
<g id="edge4" class="edge">
<title>&#45;2&#45;&gt;3</title>
<path fill="none" stroke="green" stroke-width="0.17" stroke-dasharray="1,5" d="M134.36,-357.71C140.77,-336.85 160.62,-280.28 196.05,-248.01 231.42,-215.78 285.93,-198.49 317.37,-190.69"/>
<polygon fill="green" stroke="green" stroke-width="0.17" points="318.53,-194.02 327.46,-188.32 316.93,-187.2 318.53,-194.02"/>
</g>
<!-- 33005 -->
<g id="node18" class="node">
<title>33005</title>
<ellipse fill="white" stroke="black" cx="86.05" cy="-275.58" rx="27.65" ry="27.65"/>
<text text-anchor="middle" x="86.05" y="-273.38" font-family="Times New Roman,serif" font-size="9.00">33005</text>
</g>
<!-- &#45;2&#45;&gt;33005 -->
<g id="edge41" class="edge">
<title>&#45;2&#45;&gt;33005</title>
<path fill="none" stroke="red" stroke-width="0.19" stroke-dasharray="1,5" d="M127.8,-357.51C122.21,-346.67 112.04,-326.96 103.14,-309.71"/>
<polygon fill="red" stroke="red" stroke-width="0.19" points="106.05,-307.73 98.36,-300.45 99.83,-310.94 106.05,-307.73"/>
</g>
<!-- &#45;3 -->
<g id="node3" class="node">
<title>&#45;3</title>
<polygon fill="lightgray" stroke="black" points="186.05,-375.74 162.05,-375.74 162.05,-357.74 186.05,-357.74 186.05,-375.74"/>
<text text-anchor="middle" x="174.05" y="-364.54" font-family="Times New Roman,serif" font-size="9.00">&#45;3</text>
</g>
<!-- &#45;3&#45;&gt;0 -->
<g id="edge5" class="edge">
<title>&#45;3&#45;&gt;0</title>
<path fill="none" stroke="green" stroke-width="0.43" d="M186.09,-359.86C197.9,-354.21 216.5,-345.59 233.05,-339.16 291.97,-316.26 363.16,-294.29 399.38,-283.5"/>
<polygon fill="green" stroke="green" stroke-width="0.43" points="400.45,-286.84 409.04,-280.65 398.46,-280.13 400.45,-286.84"/>
</g>
<!-- &#45;3&#45;&gt;1 -->
<g id="edge6" class="edge">
<title>&#45;3&#45;&gt;1</title>
<path fill="none" stroke="green" stroke-width="0.52" d="M173.62,-357.6C172.97,-337.4 173.62,-284.02 196.05,-248.01 231.82,-190.55 256.5,-185.03 318.05,-156.85 386.6,-125.46 476.09,-113.31 518.99,-109.05"/>
<polygon fill="green" stroke="green" stroke-width="0.52" points="519.45,-112.52 529.08,-108.11 518.8,-105.56 519.45,-112.52"/>
</g>
<!-- &#45;3&#45;&gt;2 -->
<g id="edge7" class="edge">
<title>&#45;3&#45;&gt;2</title>
<path fill="none" stroke="red" stroke-width="0.47" d="M182.07,-357.51C196.05,-343.19 225.14,-313.38 243.84,-294.21"/>
<polygon fill="red" stroke="red" stroke-width="0.47" points="246.44,-296.57 250.92,-286.96 241.43,-291.68 246.44,-296.57"/>
</g>
<!-- &#45;3&#45;&gt;3 -->
<g id="edge8" class="edge">
<title>&#45;3&#45;&gt;3</title>
<path fill="none" stroke="red" stroke-width="0.16" d="M176.64,-357.67C183.57,-337.2 204.23,-282.38 237.05,-248.01 260.66,-223.27 296.15,-204.88 319.21,-194.65"/>
<polygon fill="red" stroke="red" stroke-width="0.16" points="320.74,-197.8 328.55,-190.65 317.98,-191.37 320.74,-197.8"/>
</g>
<!-- &#45;4 -->
<g id="node4" class="node">
<title>&#45;4</title>
<polygon fill="lightgray" stroke="black" points="512.05,-375.74 488.05,-375.74 488.05,-357.74 512.05,-357.74 512.05,-375.74"/>
<text text-anchor="middle" x="500.05" y="-364.54" font-family="Times New Roman,serif" font-size="9.00">&#45;4</text>
</g>
<!-- &#45;4&#45;&gt;0 -->
<g id="edge26" class="edge">
<title>&#45;4&#45;&gt;0</title>
<path fill="none" stroke="red" stroke-width="0.39" stroke-dasharray="1,5" d="M492.94,-357.51C480.75,-343.39 455.55,-314.22 438.98,-295.03"/>
<polygon fill="red" stroke="red" stroke-width="0.39" points="441.44,-292.53 432.26,-287.25 436.14,-297.11 441.44,-292.53"/>
</g>
<!-- &#45;5 -->
<g id="node5" class="node">
<title>&#45;5</title>
<polygon fill="lightgray" stroke="black" points="266.05,-375.74 242.05,-375.74 242.05,-357.74 266.05,-357.74 266.05,-375.74"/>
<text text-anchor="middle" x="254.05" y="-364.54" font-family="Times New Roman,serif" font-size="9.00">&#45;5</text>
</g>
<!-- &#45;5&#45;&gt;0 -->
<g id="edge9" class="edge">
<title>&#45;5&#45;&gt;0</title>
<path fill="none" stroke="red" stroke-width="0.25" stroke-dasharray="1,5" d="M259.36,-357.4C263.37,-351.65 269.32,-344.18 276.05,-339.16 314.43,-310.53 367.9,-292.06 398.65,-283.06"/>
<polygon fill="red" stroke="red" stroke-width="0.25" points="399.84,-286.36 408.52,-280.27 397.94,-279.62 399.84,-286.36"/>
</g>
<!-- &#45;5&#45;&gt;2 -->
<g id="edge10" class="edge">
<title>&#45;5&#45;&gt;2</title>
<path fill="none" stroke="green" stroke-width="1.79" stroke-dasharray="1,5" d="M254.69,-357.51C255.7,-344.7 257.68,-319.48 259.16,-300.58"/>
<polygon fill="green" stroke="green" stroke-width="1.79" points="262.65,-300.83 259.95,-290.59 255.67,-300.28 262.65,-300.83"/>
</g>
<!-- &#45;5&#45;&gt;33005 -->
<g id="edge33" class="edge">
<title>&#45;5&#45;&gt;33005</title>
<path fill="none" stroke="green" stroke-width="0.31" d="M241.96,-359.33C216.58,-345.86 156.94,-314.21 119.22,-294.19"/>
<polygon fill="green" stroke="green" stroke-width="0.31" points="120.61,-290.96 110.13,-289.37 117.33,-297.15 120.61,-290.96"/>
</g>
<!-- &#45;6 -->
<g id="node6" class="node">
<title>&#45;6</title>
<polygon fill="lightgray" stroke="black" points="556.05,-284.58 532.05,-284.58 532.05,-266.58 556.05,-266.58 556.05,-284.58"/>
<text text-anchor="middle" x="544.05" y="-273.38" font-family="Times New Roman,serif" font-size="9.00">&#45;6</text>
</g>
<!-- &#45;6&#45;&gt;1 -->
<g id="edge11" class="edge">
<title>&#45;6&#45;&gt;1</title>
<path fill="none" stroke="green" stroke-width="0.28" stroke-dasharray="1,5" d="M544.05,-266.5C544.05,-242.28 544.05,-169.62 544.05,-131.29"/>
<polygon fill="green" stroke="green" stroke-width="0.28" points="547.55,-131.02 544.05,-121.02 540.55,-131.02 547.55,-131.02"/>
</g>
<!-- &#45;6&#45;&gt;3 -->
<g id="edge12" class="edge">
<title>&#45;6&#45;&gt;3</title>
<path fill="none" stroke="red" stroke-width="0.19" stroke-dasharray="1,5" d="M537.76,-266.41C532.92,-260.58 525.77,-252.95 518.05,-248.01 469.02,-216.65 402.25,-198.51 366.7,-190.46"/>
<polygon fill="red" stroke="red" stroke-width="0.19" points="367.24,-187 356.72,-188.28 365.75,-193.84 367.24,-187"/>
</g>
<!-- &#45;7 -->
<g id="node7" class="node">
<title>&#45;7</title>
<polygon fill="lightgray" stroke="black" points="394.05,-375.74 370.05,-375.74 370.05,-357.74 394.05,-357.74 394.05,-375.74"/>
<text text-anchor="middle" x="382.05" y="-364.54" font-family="Times New Roman,serif" font-size="9.00">&#45;7</text>
</g>
<!-- &#45;7&#45;&gt;0 -->
<g id="edge13" class="edge">
<title>&#45;7&#45;&gt;0</title>
<path fill="none" stroke="red" stroke-width="0.34" stroke-dasharray="1,5" d="M385.83,-357.51C391.94,-344.22 404.18,-317.6 412.96,-298.52"/>
<polygon fill="red" stroke="red" stroke-width="0.34" points="416.18,-299.88 417.18,-289.33 409.82,-296.96 416.18,-299.88"/>
</g>
<!-- &#45;7&#45;&gt;3 -->
<g id="edge14" class="edge">
<title>&#45;7&#45;&gt;3</title>
<path fill="none" stroke="red" stroke-width="0.22" stroke-dasharray="1,5" d="M380.23,-357.46C376,-338.23 365.17,-289.08 356.05,-248.01 353.2,-235.19 350,-220.91 347.39,-209.23"/>
<polygon fill="red" stroke="red" stroke-width="0.22" points="350.77,-208.34 345.17,-199.35 343.94,-209.87 350.77,-208.34"/>
</g>
<!-- &#45;8 -->
<g id="node8" class="node">
<title>&#45;8</title>
<polygon fill="lightgray" stroke="black" points="86.05,-448.32 62.05,-448.32 62.05,-430.32 86.05,-430.32 86.05,-448.32"/>
<text text-anchor="middle" x="74.05" y="-437.12" font-family="Times New Roman,serif" font-size="9.00">&#45;8</text>
</g>
<!-- &#45;8&#45;&gt;0 -->
<g id="edge32" class="edge">
<title>&#45;8&#45;&gt;0</title>
<path fill="none" stroke="green" stroke-width="0.1" d="M86.37,-438.53C140.51,-439.21 356.71,-439.04 403.05,-394.32 427.96,-370.27 428.88,-327.5 426.51,-300.66"/>
<polygon fill="green" stroke="green" stroke-width="0.1" points="429.97,-300.13 425.39,-290.57 423.01,-300.89 429.97,-300.13"/>
</g>
<!-- &#45;8&#45;&gt;1 -->
<g id="edge15" class="edge">
<title>&#45;8&#45;&gt;1</title>
<path fill="none" stroke="red" stroke-width="0.38" stroke-dasharray="1,5" d="M61.74,-431.03C50.33,-423.48 34.07,-410.52 27.05,-394.32 -15.76,-295.61 -12.2,-221.17 74.05,-156.85 110,-130.04 427.29,-112.67 519.2,-108.17"/>
<polygon fill="red" stroke="red" stroke-width="0.38" points="519.44,-111.66 529.26,-107.68 519.1,-104.67 519.44,-111.66"/>
</g>
<!-- &#45;8&#45;&gt;2 -->
<g id="edge16" class="edge">
<title>&#45;8&#45;&gt;2</title>
<path fill="none" stroke="green" stroke-width="4.19" d="M86.08,-436.76C109.55,-433.18 162,-422.39 195.05,-394.32 210.93,-380.82 236.61,-329.23 250.8,-299.01"/>
<polygon fill="green" stroke="green" stroke-width="4.19" points="254.25,-300.28 255.14,-289.66 247.6,-297.19 254.25,-300.28"/>
</g>
<!-- 38976 -->
<g id="node17" class="node">
<title>38976</title>
<ellipse fill="white" stroke="black" cx="74.05" cy="-366.74" rx="27.65" ry="27.65"/>
<text text-anchor="middle" x="74.05" y="-364.54" font-family="Times New Roman,serif" font-size="9.00">38976</text>
</g>
<!-- &#45;8&#45;&gt;38976 -->
<g id="edge44" class="edge">
<title>&#45;8&#45;&gt;38976</title>
<path fill="none" stroke="green" stroke-width="0.26" stroke-dasharray="1,5" d="M74.05,-430.22C74.05,-423.77 74.05,-414.25 74.05,-404.57"/>
<polygon fill="green" stroke="green" stroke-width="0.26" points="77.55,-404.55 74.05,-394.55 70.55,-404.55 77.55,-404.55"/>
</g>
<!-- &#45;8&#45;&gt;33005 -->
<g id="edge38" class="edge">
<title>&#45;8&#45;&gt;33005</title>
<path fill="none" stroke="green" stroke-width="0.21" stroke-dasharray="1,5" d="M63.96,-430.12C54.95,-422.08 42.38,-408.94 37.05,-394.32 28.65,-371.29 29.05,-362.33 37.05,-339.16 41.67,-325.75 50.48,-313.02 59.37,-302.59"/>
<polygon fill="green" stroke="green" stroke-width="0.21" points="62.04,-304.86 66.12,-295.08 56.83,-300.18 62.04,-304.86"/>
</g>
<!-- &#45;9 -->
<g id="node9" class="node">
<title>&#45;9</title>
<polygon fill="lightgray" stroke="black" points="472.05,-448.32 448.05,-448.32 448.05,-430.32 472.05,-430.32 472.05,-448.32"/>
<text text-anchor="middle" x="460.05" y="-437.12" font-family="Times New Roman,serif" font-size="9.00">&#45;9</text>
</g>
<!-- &#45;9&#45;&gt;0 -->
<g id="edge17" class="edge">
<title>&#45;9&#45;&gt;0</title>
<path fill="none" stroke="red" stroke-width="0.21" stroke-dasharray="1,5" d="M458.16,-430.07C452.72,-406.29 436.84,-336.88 428.43,-300.1"/>
<polygon fill="red" stroke="red" stroke-width="0.21" points="431.81,-299.2 426.17,-290.24 424.99,-300.76 431.81,-299.2"/>
</g>
<!-- &#45;9&#45;&gt;3 -->
<g id="edge18" class="edge">
<title>&#45;9&#45;&gt;3</title>
<path fill="none" stroke="green" stroke-width="1.96" d="M447.85,-436.84C426.31,-433.53 381.86,-423.37 361.05,-394.32 320.85,-338.2 329.76,-250.66 337.1,-209"/>
<polygon fill="green" stroke="green" stroke-width="1.96" points="340.57,-209.46 338.99,-198.98 333.69,-208.16 340.57,-209.46"/>
</g>
<!-- &#45;9&#45;&gt;33491 -->
<g id="edge35" class="edge">
<title>&#45;9&#45;&gt;33491</title>
<path fill="none" stroke="red" stroke-width="0.33" d="M471.29,-430.22C484.95,-420.38 508.56,-403.38 527.7,-389.6"/>
<polygon fill="red" stroke="red" stroke-width="0.33" points="529.78,-392.4 535.85,-383.72 525.69,-386.72 529.78,-392.4"/>
</g>
<!-- &#45;10 -->
<g id="node10" class="node">
<title>&#45;10</title>
<polygon fill="lightgray" stroke="black" points="313.55,-375.74 284.55,-375.74 284.55,-357.74 313.55,-357.74 313.55,-375.74"/>
<text text-anchor="middle" x="299.05" y="-364.54" font-family="Times New Roman,serif" font-size="9.00">&#45;10</text>
</g>
<!-- &#45;10&#45;&gt;0 -->
<g id="edge19" class="edge">
<title>&#45;10&#45;&gt;0</title>
<path fill="none" stroke="green" stroke-width="4.5" d="M310.49,-357.51C331.51,-342.4 376.53,-310.03 402.82,-291.13"/>
<polygon fill="green" stroke="green" stroke-width="4.5" points="405.45,-294.08 411.27,-285.05 400.85,-287.7 405.45,-294.08"/>
</g>
<!-- &#45;10&#45;&gt;2 -->
<g id="edge20" class="edge">
<title>&#45;10&#45;&gt;2</title>
<path fill="none" stroke="red" stroke-width="0.28" d="M295.54,-357.51C289.93,-344.36 278.76,-318.14 270.64,-299.1"/>
<polygon fill="red" stroke="red" stroke-width="0.28" points="273.75,-297.47 266.61,-289.64 267.31,-300.22 273.75,-297.47"/>
</g>
<!-- &#45;10&#45;&gt;3 -->
<g id="edge24" class="edge">
<title>&#45;10&#45;&gt;3</title>
<path fill="none" stroke="red" stroke-width="2.03" stroke-dasharray="1,5" d="M301,-357.52C307.23,-331.4 326.74,-249.61 336.45,-208.91"/>
<polygon fill="red" stroke="red" stroke-width="2.03" points="339.88,-209.59 338.8,-199.05 333.07,-207.97 339.88,-209.59"/>
</g>
<!-- &#45;11 -->
<g id="node11" class="node">
<title>&#45;11</title>
<polygon fill="lightgray" stroke="black" points="671.55,-375.74 642.55,-375.74 642.55,-357.74 671.55,-357.74 671.55,-375.74"/>
<text text-anchor="middle" x="657.05" y="-364.54" font-family="Times New Roman,serif" font-size="9.00">&#45;11</text>
</g>
<!-- &#45;11&#45;&gt;0 -->
<g id="edge21" class="edge">
<title>&#45;11&#45;&gt;0</title>
<path fill="none" stroke="red" stroke-width="0.29" stroke-dasharray="1,5" d="M650.28,-357.5C644.89,-351.48 636.81,-343.63 628.05,-339.16 556.93,-302.87 523.16,-339.45 452.05,-303.16 447.68,-300.94 443.49,-297.87 439.72,-294.62"/>
<polygon fill="red" stroke="red" stroke-width="0.29" points="441.85,-291.82 432.21,-287.43 437.01,-296.87 441.85,-291.82"/>
</g>
<!-- &#45;11&#45;&gt;1 -->
<g id="edge22" class="edge">
<title>&#45;11&#45;&gt;1</title>
<path fill="none" stroke="green" stroke-width="4.05" d="M659.11,-357.46C666.18,-327.02 686.39,-219.82 638.05,-156.85 620.55,-134.06 589.61,-120.56 568.02,-113.48"/>
<polygon fill="green" stroke="green" stroke-width="4.05" points="568.88,-110.03 558.28,-110.5 566.81,-116.81 568.88,-110.03"/>
</g>
<!-- &#45;11&#45;&gt;2 -->
<g id="edge28" class="edge">
<title>&#45;11&#45;&gt;2</title>
<path fill="none" stroke="green" stroke-width="0.37" stroke-dasharray="1,5" d="M642.11,-358.21C629.77,-352.27 611.64,-344.17 595.05,-339.16 510.26,-313.55 486.09,-319.54 399.05,-303.16 359.25,-295.67 313.05,-286.72 285.48,-281.36"/>
<polygon fill="green" stroke="green" stroke-width="0.37" points="286.03,-277.9 275.54,-279.42 284.69,-284.77 286.03,-277.9"/>
</g>
<!-- &#45;11&#45;&gt;3 -->
<g id="edge23" class="edge">
<title>&#45;11&#45;&gt;3</title>
<path fill="none" stroke="green" stroke-width="0.23" stroke-dasharray="1,5" d="M649.92,-357.64C644.27,-351.7 635.88,-343.89 627.05,-339.16 571.53,-309.48 542.61,-337.81 490.05,-303.16 464.09,-286.06 470.35,-268.57 447.05,-248.01 421.54,-225.5 386.81,-206.65 364.41,-195.69"/>
<polygon fill="green" stroke="green" stroke-width="0.23" points="365.88,-192.52 355.34,-191.36 362.86,-198.83 365.88,-192.52"/>
</g>
<!-- 38381 -->
<g id="node19" class="node">
<title>38381</title>
<ellipse fill="white" stroke="black" cx="602.05" cy="-275.58" rx="27.65" ry="27.65"/>
<text text-anchor="middle" x="602.05" y="-273.38" font-family="Times New Roman,serif" font-size="9.00">38381</text>
</g>
<!-- &#45;11&#45;&gt;38381 -->
<g id="edge42" class="edge">
<title>&#45;11&#45;&gt;38381</title>
<path fill="none" stroke="green" stroke-width="0.35" d="M651.97,-357.51C645.13,-346.43 632.57,-326.06 621.75,-308.53"/>
<polygon fill="green" stroke="green" stroke-width="0.35" points="624.53,-306.36 616.3,-299.69 618.57,-310.04 624.53,-306.36"/>
</g>
<!-- 28831 -->
<g id="node21" class="node">
<title>28831</title>
<ellipse fill="white" stroke="black" cx="601.05" cy="-184.43" rx="27.65" ry="27.65"/>
<text text-anchor="middle" x="601.05" y="-182.23" font-family="Times New Roman,serif" font-size="9.00">28831</text>
</g>
<!-- &#45;11&#45;&gt;28831 -->
<g id="edge31" class="edge">
<title>&#45;11&#45;&gt;28831</title>
<path fill="none" stroke="red" stroke-width="0.22" stroke-dasharray="1,5" d="M656.89,-357.47C656.27,-337.87 653.32,-287.26 639.05,-248.01 634.99,-236.85 628.83,-225.5 622.65,-215.59"/>
<polygon fill="red" stroke="red" stroke-width="0.22" points="625.41,-213.41 617.03,-206.94 619.54,-217.23 625.41,-213.41"/>
</g>
<!-- 0&#45;&gt;28831 -->
<g id="edge29" class="edge">
<title>0&#45;&gt;28831</title>
<path fill="none" stroke="red" stroke-width="0.18" d="M436.13,-268.03C463.56,-254.29 527.8,-222.11 567.52,-202.22"/>
<polygon fill="red" stroke="red" stroke-width="0.18" points="569.2,-205.3 576.57,-197.69 566.06,-199.04 569.2,-205.3"/>
</g>
<!-- 37023 -->
<g id="node16" class="node">
<title>37023</title>
<ellipse fill="white" stroke="black" cx="544.05" cy="-27.58" rx="27.65" ry="27.65"/>
<text text-anchor="middle" x="544.05" y="-25.38" font-family="Times New Roman,serif" font-size="9.00">37023</text>
</g>
<!-- 1&#45;&gt;37023 -->
<g id="edge40" class="edge">
<title>1&#45;&gt;37023</title>
<path fill="none" stroke="green" stroke-width="0.32" d="M544.05,-90.99C544.05,-83.72 544.05,-74.48 544.05,-65.34"/>
<polygon fill="green" stroke="green" stroke-width="0.32" points="547.55,-65.19 544.05,-55.19 540.55,-65.19 547.55,-65.19"/>
</g>
<!-- 38976&#45;&gt;33005 -->
<g id="edge45" class="edge">
<title>38976&#45;&gt;33005</title>
<path fill="none" stroke="red" stroke-width="1.44" d="M77.65,-338.99C78.75,-330.81 79.98,-321.66 81.15,-312.95"/>
<polygon fill="red" stroke="red" stroke-width="1.44" points="84.62,-313.38 82.49,-303.01 77.69,-312.45 84.62,-313.38"/>
</g>
<!-- 33005&#45;&gt;3 -->
<g id="edge34" class="edge">
<title>33005&#45;&gt;3</title>
<path fill="none" stroke="red" stroke-width="1.03" stroke-dasharray="1,5" d="M108.5,-258.76C114.65,-254.88 121.44,-250.99 128.05,-248.01 193.64,-218.37 276.85,-198.77 317.48,-190.27"/>
<polygon fill="red" stroke="red" stroke-width="1.03" points="318.44,-193.64 327.53,-188.21 317.04,-186.78 318.44,-193.64"/>
</g>
<!-- 38381&#45;&gt;28831 -->
<g id="edge43" class="edge">
<title>38381&#45;&gt;28831</title>
<path fill="none" stroke="green" stroke-width="1.16" d="M601.75,-247.84C601.66,-239.81 601.56,-230.87 601.46,-222.31"/>
<polygon fill="green" stroke="green" stroke-width="1.16" points="604.96,-222.12 601.35,-212.16 597.96,-222.2 604.96,-222.12"/>
</g>
<!-- 33491&#45;&gt;0 -->
<g id="edge36" class="edge">
<title>33491&#45;&gt;0</title>
<path fill="none" stroke="green" stroke-width="0.98" d="M536.48,-349.47C531.5,-345.94 526.16,-342.31 521.05,-339.16 491.59,-321.03 480.37,-323.02 452.05,-303.16 448.1,-300.4 444.13,-297.14 440.44,-293.87"/>
<polygon fill="green" stroke="green" stroke-width="0.98" points="442.65,-291.14 432.96,-286.88 437.88,-296.26 442.65,-291.14"/>
</g>
<!-- 28831&#45;&gt;1 -->
<g id="edge37" class="edge">
<title>28831&#45;&gt;1</title>
<path fill="none" stroke="green" stroke-width="1" stroke-dasharray="1,5" d="M584.86,-161.73C576.64,-150.7 566.71,-137.39 558.71,-126.66"/>
<polygon fill="green" stroke="green" stroke-width="1" points="561.3,-124.29 552.52,-118.36 555.69,-128.47 561.3,-124.29"/>
</g>
</g>
</svg>
