<?xml version="1.0" encoding="UTF-8" standalone="no"?>
<!DOCTYPE svg PUBLIC "-//W3C//DTD SVG 1.1//EN"
 "http://www.w3.org/Graphics/SVG/1.1/DTD/svg11.dtd">
<!-- Generated by graphviz version 2.47.1 (20210417.1919)
 -->
<!-- Pages: 1 -->
<svg width="463pt" height="92pt"
 viewBox="0.00 0.00 463.00 91.70" xmlns="http://www.w3.org/2000/svg" xmlns:xlink="http://www.w3.org/1999/xlink">
<g id="graph0" class="graph" transform="scale(1 1) rotate(0) translate(4 87.7)">
<polygon fill="white" stroke="transparent" points="-4,4 -4,-87.7 459,-87.7 459,4 -4,4"/>
<!-- &#45;1 -->
<g id="node1" class="node">
<title>&#45;1</title>
<polygon fill="lightgray" stroke="black" points="245,-83.7 221,-83.7 221,-65.7 245,-65.7 245,-83.7"/>
<text text-anchor="middle" x="233" y="-72.5" font-family="Times New Roman,serif" font-size="9.00">&#45;1</text>
</g>
<!-- 0 -->
<g id="node12" class="node">
<title>0</title>
<ellipse fill="lightblue" stroke="black" cx="157" cy="-14.85" rx="14.7" ry="14.7"/>
<text text-anchor="middle" x="157" y="-12.65" font-family="Times New Roman,serif" font-size="9.00">0</text>
</g>
<!-- &#45;1&#45;&gt;0 -->
<g id="edge1" class="edge">
<title>&#45;1&#45;&gt;0</title>
<path fill="none" stroke="green" stroke-width="0.13" d="M222.43,-65.65C210.57,-56.62 191.06,-41.78 176.43,-30.64"/>
<polygon fill="green" stroke="green" stroke-width="0.13" points="178.55,-27.85 168.47,-24.58 174.31,-33.42 178.55,-27.85"/>
</g>
<!-- 1 -->
<g id="node13" class="node">
<title>1</title>
<ellipse fill="lightblue" stroke="black" cx="301" cy="-14.85" rx="14.7" ry="14.7"/>
<text text-anchor="middle" x="301" y="-12.65" font-family="Times New Roman,serif" font-size="9.00">1</text>
</g>
<!-- &#45;1&#45;&gt;1 -->
<g id="edge2" class="edge">
<title>&#45;1&#45;&gt;1</title>
<path fill="none" stroke="red" stroke-width="0.45" stroke-dasharray="1,5" d="M242.46,-65.65C252.63,-57 269.1,-42.99 281.97,-32.03"/>
<polygon fill="red" stroke="red" stroke-width="0.45" points="284.47,-34.51 289.82,-25.36 279.93,-29.18 284.47,-34.51"/>
</g>
<!-- 2 -->
<g id="node14" class="node">
<title>2</title>
<ellipse fill="lightblue" stroke="black" cx="205" cy="-14.85" rx="14.7" ry="14.7"/>
<text text-anchor="middle" x="205" y="-12.65" font-family="Times New Roman,serif" font-size="9.00">2</text>
</g>
<!-- &#45;1&#45;&gt;2 -->
<g id="edge3" class="edge">
<title>&#45;1&#45;&gt;2</title>
<path fill="none" stroke="green" stroke-width="0.17" d="M229.11,-65.65C225.64,-58.48 220.39,-47.64 215.68,-37.91"/>
<polygon fill="green" stroke="green" stroke-width="0.17" points="218.73,-36.19 211.23,-28.71 212.43,-39.24 218.73,-36.19"/>
</g>
<!-- 3 -->
<g id="node15" class="node">
<title>3</title>
<ellipse fill="lightblue" stroke="black" cx="253" cy="-14.85" rx="14.7" ry="14.7"/>
<text text-anchor="middle" x="253" y="-12.65" font-family="Times New Roman,serif" font-size="9.00">3</text>
</g>
<!-- &#45;1&#45;&gt;3 -->
<g id="edge4" class="edge">
<title>&#45;1&#45;&gt;3</title>
<path fill="none" stroke="green" stroke-width="0.49" d="M235.78,-65.65C238.18,-58.72 241.76,-48.37 245.03,-38.89"/>
<polygon fill="green" stroke="green" stroke-width="0.49" points="248.44,-39.75 248.4,-29.16 241.82,-37.46 248.44,-39.75"/>
</g>
<!-- &#45;2 -->
<g id="node2" class="node">
<title>&#45;2</title>
<polygon fill="lightgray" stroke="black" points="24,-83.7 0,-83.7 0,-65.7 24,-65.7 24,-83.7"/>
<text text-anchor="middle" x="12" y="-72.5" font-family="Times New Roman,serif" font-size="9.00">&#45;2</text>
</g>
<!-- &#45;2&#45;&gt;0 -->
<g id="edge5" class="edge">
<title>&#45;2&#45;&gt;0</title>
<path fill="none" stroke="green" stroke-width="0.27" d="M24.36,-68.77C48.61,-59.09 102.73,-37.5 133.82,-25.1"/>
<polygon fill="green" stroke="green" stroke-width="0.27" points="135.42,-28.23 143.41,-21.27 132.83,-21.73 135.42,-28.23"/>
</g>
<!-- &#45;2&#45;&gt;2 -->
<g id="edge6" class="edge">
<title>&#45;2&#45;&gt;2</title>
<path fill="none" stroke="red" stroke-width="0.21" stroke-dasharray="1,5" d="M24.35,-68.7C27.17,-67.64 30.17,-66.58 33,-65.7 97.65,-45.61 118.16,-54.87 181,-29.7 181.86,-29.35 182.73,-28.98 183.59,-28.59"/>
<polygon fill="red" stroke="red" stroke-width="0.21" points="185.38,-31.6 192.64,-23.88 182.15,-25.4 185.38,-31.6"/>
</g>
<!-- &#45;3 -->
<g id="node3" class="node">
<title>&#45;3</title>
<polygon fill="lightgray" stroke="black" points="287,-83.7 263,-83.7 263,-65.7 287,-65.7 287,-83.7"/>
<text text-anchor="middle" x="275" y="-72.5" font-family="Times New Roman,serif" font-size="9.00">&#45;3</text>
</g>
<!-- &#45;3&#45;&gt;0 -->
<g id="edge7" class="edge">
<title>&#45;3&#45;&gt;0</title>
<path fill="none" stroke="green" stroke-width="0.47" d="M262.97,-68.46C244.94,-60.53 209.92,-44.78 181,-29.7 180.18,-29.27 179.35,-28.83 178.51,-28.38"/>
<polygon fill="green" stroke="green" stroke-width="0.47" points="180.03,-25.22 169.59,-23.39 176.61,-31.32 180.03,-25.22"/>
</g>
<!-- &#45;3&#45;&gt;1 -->
<g id="edge8" class="edge">
<title>&#45;3&#45;&gt;1</title>
<path fill="none" stroke="red" stroke-width="0.19" d="M278.62,-65.65C281.84,-58.48 286.71,-47.64 291.09,-37.91"/>
<polygon fill="red" stroke="red" stroke-width="0.19" points="294.31,-39.27 295.22,-28.71 287.93,-36.4 294.31,-39.27"/>
</g>
<!-- &#45;3&#45;&gt;2 -->
<g id="edge9" class="edge">
<title>&#45;3&#45;&gt;2</title>
<path fill="none" stroke="green" stroke-width="0.33" d="M265.27,-65.65C254.67,-56.89 237.44,-42.66 224.12,-31.65"/>
<polygon fill="green" stroke="green" stroke-width="0.33" points="225.97,-28.64 216.03,-24.97 221.51,-34.04 225.97,-28.64"/>
</g>
<!-- &#45;3&#45;&gt;3 -->
<g id="edge10" class="edge">
<title>&#45;3&#45;&gt;3</title>
<path fill="none" stroke="green" stroke-width="0.54" d="M271.94,-65.65C269.28,-58.65 265.28,-48.15 261.65,-38.59"/>
<polygon fill="green" stroke="green" stroke-width="0.54" points="264.89,-37.26 258.06,-29.16 258.34,-39.75 264.89,-37.26"/>
</g>
<!-- &#45;4 -->
<g id="node4" class="node">
<title>&#45;4</title>
<polygon fill="lightgray" stroke="black" points="66,-83.7 42,-83.7 42,-65.7 66,-65.7 66,-83.7"/>
<text text-anchor="middle" x="54" y="-72.5" font-family="Times New Roman,serif" font-size="9.00">&#45;4</text>
</g>
<!-- &#45;4&#45;&gt;0 -->
<g id="edge11" class="edge">
<title>&#45;4&#45;&gt;0</title>
<path fill="none" stroke="green" stroke-width="0.35" d="M66.22,-66.84C83.32,-57.23 114.64,-39.64 135.64,-27.85"/>
<polygon fill="green" stroke="green" stroke-width="0.35" points="137.47,-30.83 144.47,-22.88 134.04,-24.73 137.47,-30.83"/>
</g>
<!-- &#45;4&#45;&gt;3 -->
<g id="edge12" class="edge">
<title>&#45;4&#45;&gt;3</title>
<path fill="none" stroke="green" stroke-width="0.38" d="M66.34,-68.68C69.16,-67.62 72.16,-66.57 75,-65.7 142.22,-45.14 163.63,-55.54 229,-29.7 229.86,-29.36 230.73,-28.99 231.6,-28.6"/>
<polygon fill="green" stroke="green" stroke-width="0.38" points="233.38,-31.62 240.64,-23.9 230.16,-25.41 233.38,-31.62"/>
</g>
<!-- &#45;5 -->
<g id="node5" class="node">
<title>&#45;5</title>
<polygon fill="lightgray" stroke="black" points="329,-83.7 305,-83.7 305,-65.7 329,-65.7 329,-83.7"/>
<text text-anchor="middle" x="317" y="-72.5" font-family="Times New Roman,serif" font-size="9.00">&#45;5</text>
</g>
<!-- &#45;5&#45;&gt;0 -->
<g id="edge13" class="edge">
<title>&#45;5&#45;&gt;0</title>
<path fill="none" stroke="red" stroke-width="0.74" stroke-dasharray="1,5" d="M304.61,-68.84C301.79,-67.77 298.8,-66.67 296,-65.7 245.4,-48.16 230.05,-51.21 181,-29.7 180.15,-29.33 179.3,-28.93 178.44,-28.52"/>
<polygon fill="red" stroke="red" stroke-width="0.74" points="179.9,-25.34 169.43,-23.72 176.61,-31.51 179.9,-25.34"/>
</g>
<!-- &#45;5&#45;&gt;1 -->
<g id="edge14" class="edge">
<title>&#45;5&#45;&gt;1</title>
<path fill="none" stroke="red" stroke-width="0.19" d="M314.78,-65.65C312.88,-58.82 310.07,-48.64 307.48,-39.27"/>
<polygon fill="red" stroke="red" stroke-width="0.19" points="310.84,-38.31 304.8,-29.6 304.1,-40.18 310.84,-38.31"/>
</g>
<!-- &#45;5&#45;&gt;2 -->
<g id="edge15" class="edge">
<title>&#45;5&#45;&gt;2</title>
<path fill="none" stroke="red" stroke-width="0.39" stroke-dasharray="1,5" d="M304.93,-67.94C287.86,-59.75 255.78,-44.1 229,-29.7 228.18,-29.26 227.36,-28.81 226.52,-28.35"/>
<polygon fill="red" stroke="red" stroke-width="0.39" points="228.05,-25.2 217.63,-23.32 224.61,-31.29 228.05,-25.2"/>
</g>
<!-- &#45;5&#45;&gt;3 -->
<g id="edge16" class="edge">
<title>&#45;5&#45;&gt;3</title>
<path fill="none" stroke="green" stroke-width="0.43" stroke-dasharray="1,5" d="M308.1,-65.65C298.61,-57.08 283.32,-43.26 271.25,-32.35"/>
<polygon fill="green" stroke="green" stroke-width="0.43" points="273.29,-29.47 263.52,-25.36 268.6,-34.66 273.29,-29.47"/>
</g>
<!-- &#45;6 -->
<g id="node6" class="node">
<title>&#45;6</title>
<polygon fill="lightgray" stroke="black" points="455,-83.7 431,-83.7 431,-65.7 455,-65.7 455,-83.7"/>
<text text-anchor="middle" x="443" y="-72.5" font-family="Times New Roman,serif" font-size="9.00">&#45;6</text>
</g>
<!-- &#45;6&#45;&gt;1 -->
<g id="edge17" class="edge">
<title>&#45;6&#45;&gt;1</title>
<path fill="none" stroke="red" stroke-width="0.26" stroke-dasharray="1,5" d="M430.89,-68.77C407.27,-59.14 354.69,-37.72 324.16,-25.28"/>
<polygon fill="red" stroke="red" stroke-width="0.26" points="325.31,-21.97 314.73,-21.44 322.67,-28.46 325.31,-21.97"/>
</g>
<!-- &#45;6&#45;&gt;3 -->
<g id="edge18" class="edge">
<title>&#45;6&#45;&gt;3</title>
<path fill="none" stroke="red" stroke-width="0.22" d="M430.65,-68.71C427.83,-67.65 424.83,-66.59 422,-65.7 358.64,-45.84 338.58,-54.54 277,-29.7 276.14,-29.35 275.28,-28.98 274.41,-28.59"/>
<polygon fill="red" stroke="red" stroke-width="0.22" points="275.85,-25.39 265.37,-23.87 272.62,-31.6 275.85,-25.39"/>
</g>
<!-- &#45;7 -->
<g id="node7" class="node">
<title>&#45;7</title>
<polygon fill="lightgray" stroke="black" points="108,-83.7 84,-83.7 84,-65.7 108,-65.7 108,-83.7"/>
<text text-anchor="middle" x="96" y="-72.5" font-family="Times New Roman,serif" font-size="9.00">&#45;7</text>
</g>
<!-- &#45;7&#45;&gt;0 -->
<g id="edge19" class="edge">
<title>&#45;7&#45;&gt;0</title>
<path fill="none" stroke="red" stroke-width="0.45" stroke-dasharray="1,5" d="M104.48,-65.65C113.42,-57.18 127.76,-43.58 139.19,-32.73"/>
<polygon fill="red" stroke="red" stroke-width="0.45" points="141.7,-35.18 146.55,-25.76 136.88,-30.1 141.7,-35.18"/>
</g>
<!-- &#45;7&#45;&gt;1 -->
<g id="edge20" class="edge">
<title>&#45;7&#45;&gt;1</title>
<path fill="none" stroke="green" stroke-width="0.23" stroke-dasharray="1,5" d="M108.34,-68.66C111.16,-67.61 114.16,-66.55 117,-65.7 186.79,-44.67 209.11,-56.22 277,-29.7 277.86,-29.36 278.73,-29 279.6,-28.61"/>
<polygon fill="green" stroke="green" stroke-width="0.23" points="281.38,-31.63 288.65,-23.92 278.16,-25.41 281.38,-31.63"/>
</g>
<!-- &#45;7&#45;&gt;2 -->
<g id="edge21" class="edge">
<title>&#45;7&#45;&gt;2</title>
<path fill="none" stroke="green" stroke-width="0.18" d="M108.2,-67.61C124.79,-59.27 155.34,-43.73 181,-29.7 181.81,-29.25 182.64,-28.8 183.47,-28.34"/>
<polygon fill="green" stroke="green" stroke-width="0.18" points="185.39,-31.27 192.36,-23.29 181.93,-25.18 185.39,-31.27"/>
</g>
<!-- &#45;7&#45;&gt;3 -->
<g id="edge22" class="edge">
<title>&#45;7&#45;&gt;3</title>
<path fill="none" stroke="green" stroke-width="0.56" d="M108.4,-68.85C111.21,-67.78 114.2,-66.68 117,-65.7 166.34,-48.39 181.2,-50.88 229,-29.7 229.85,-29.32 230.7,-28.93 231.56,-28.51"/>
<polygon fill="green" stroke="green" stroke-width="0.56" points="233.39,-31.5 240.56,-23.7 230.09,-25.33 233.39,-31.5"/>
</g>
<!-- &#45;8 -->
<g id="node8" class="node">
<title>&#45;8</title>
<polygon fill="lightgray" stroke="black" points="413,-83.7 389,-83.7 389,-65.7 413,-65.7 413,-83.7"/>
<text text-anchor="middle" x="401" y="-72.5" font-family="Times New Roman,serif" font-size="9.00">&#45;8</text>
</g>
<!-- &#45;8&#45;&gt;1 -->
<g id="edge23" class="edge">
<title>&#45;8&#45;&gt;1</title>
<path fill="none" stroke="red" stroke-width="0.21" stroke-dasharray="1,5" d="M388.74,-66.61C372.26,-57.07 342.71,-39.98 322.49,-28.28"/>
<polygon fill="red" stroke="red" stroke-width="0.21" points="324.09,-25.16 313.68,-23.18 320.58,-31.22 324.09,-25.16"/>
</g>
<!-- &#45;8&#45;&gt;2 -->
<g id="edge24" class="edge">
<title>&#45;8&#45;&gt;2</title>
<path fill="none" stroke="green" stroke-width="1.21" d="M388.66,-68.69C385.84,-67.63 382.83,-66.57 380,-65.7 314.07,-45.38 293.1,-55.21 229,-29.7 228.14,-29.36 227.27,-28.99 226.41,-28.6"/>
<polygon fill="green" stroke="green" stroke-width="1.21" points="227.85,-25.4 217.36,-23.89 224.62,-31.61 227.85,-25.4"/>
</g>
<!-- &#45;8&#45;&gt;3 -->
<g id="edge36" class="edge">
<title>&#45;8&#45;&gt;3</title>
<path fill="none" stroke="green" stroke-width="0.18" d="M388.58,-68.9C385.77,-67.83 382.79,-66.72 380,-65.7 334.45,-49.07 321.08,-49.91 277,-29.7 276.16,-29.31 275.31,-28.91 274.45,-28.49"/>
<polygon fill="green" stroke="green" stroke-width="0.18" points="275.93,-25.31 265.47,-23.64 272.61,-31.47 275.93,-25.31"/>
</g>
<!-- &#45;9 -->
<g id="node9" class="node">
<title>&#45;9</title>
<polygon fill="lightgray" stroke="black" points="371,-83.7 347,-83.7 347,-65.7 371,-65.7 371,-83.7"/>
<text text-anchor="middle" x="359" y="-72.5" font-family="Times New Roman,serif" font-size="9.00">&#45;9</text>
</g>
<!-- &#45;9&#45;&gt;0 -->
<g id="edge25" class="edge">
<title>&#45;9&#45;&gt;0</title>
<path fill="none" stroke="red" stroke-width="0.16" d="M346.66,-68.67C343.84,-67.61 340.84,-66.56 338,-65.7 269.5,-44.91 247.63,-55.88 181,-29.7 180.14,-29.36 179.27,-28.99 178.4,-28.61"/>
<polygon fill="red" stroke="red" stroke-width="0.16" points="179.84,-25.41 169.35,-23.91 176.62,-31.62 179.84,-25.41"/>
</g>
<!-- &#45;9&#45;&gt;1 -->
<g id="edge26" class="edge">
<title>&#45;9&#45;&gt;1</title>
<path fill="none" stroke="green" stroke-width="0.28" d="M350.94,-65.65C342.62,-57.36 329.39,-44.16 318.63,-33.44"/>
<polygon fill="green" stroke="green" stroke-width="0.28" points="320.9,-30.75 311.34,-26.17 315.95,-35.71 320.9,-30.75"/>
</g>
<!-- &#45;9&#45;&gt;3 -->
<g id="edge27" class="edge">
<title>&#45;9&#45;&gt;3</title>
<path fill="none" stroke="green" stroke-width="0.9" d="M346.99,-67.4C330.95,-58.96 301.7,-43.45 277,-29.7 276.19,-29.25 275.37,-28.79 274.54,-28.32"/>
<polygon fill="green" stroke="green" stroke-width="0.9" points="276.08,-25.17 265.66,-23.25 272.61,-31.25 276.08,-25.17"/>
</g>
<!-- &#45;10 -->
<g id="node10" class="node">
<title>&#45;10</title>
<polygon fill="lightgray" stroke="black" points="155.5,-83.7 126.5,-83.7 126.5,-65.7 155.5,-65.7 155.5,-83.7"/>
<text text-anchor="middle" x="141" y="-72.5" font-family="Times New Roman,serif" font-size="9.00">&#45;10</text>
</g>
<!-- &#45;10&#45;&gt;0 -->
<g id="edge28" class="edge">
<title>&#45;10&#45;&gt;0</title>
<path fill="none" stroke="green" stroke-width="1.3" d="M143.22,-65.65C145.12,-58.82 147.93,-48.64 150.52,-39.27"/>
<polygon fill="green" stroke="green" stroke-width="1.3" points="153.9,-40.18 153.2,-29.6 147.16,-38.31 153.9,-40.18"/>
</g>
<!-- &#45;10&#45;&gt;1 -->
<g id="edge29" class="edge">
<title>&#45;10&#45;&gt;1</title>
<path fill="none" stroke="green" stroke-width="0.1" stroke-dasharray="1,5" d="M155.71,-68.77C158.78,-67.75 161.99,-66.68 165,-65.7 214.69,-49.43 229.2,-50.88 277,-29.7 277.85,-29.32 278.7,-28.93 279.56,-28.51"/>
<polygon fill="green" stroke="green" stroke-width="0.1" points="281.39,-31.5 288.56,-23.7 278.09,-25.33 281.39,-31.5"/>
</g>
<!-- &#45;10&#45;&gt;2 -->
<g id="edge30" class="edge">
<title>&#45;10&#45;&gt;2</title>
<path fill="none" stroke="green" stroke-width="0.3" d="M149.9,-65.65C159.39,-57.08 174.68,-43.26 186.75,-32.35"/>
<polygon fill="green" stroke="green" stroke-width="0.3" points="189.4,-34.66 194.48,-25.36 184.71,-29.47 189.4,-34.66"/>
</g>
<!-- &#45;10&#45;&gt;3 -->
<g id="edge31" class="edge">
<title>&#45;10&#45;&gt;3</title>
<path fill="none" stroke="green" stroke-width="0.25" stroke-dasharray="1,5" d="M155.77,-66.65C173.37,-58.17 203.58,-43.37 229,-29.7 229.82,-29.26 230.64,-28.81 231.48,-28.35"/>
<polygon fill="green" stroke="green" stroke-width="0.25" points="233.39,-31.29 240.37,-23.32 229.95,-25.2 233.39,-31.29"/>
</g>
<!-- &#45;11 -->
<g id="node11" class="node">
<title>&#45;11</title>
<polygon fill="lightgray" stroke="black" points="202.5,-83.7 173.5,-83.7 173.5,-65.7 202.5,-65.7 202.5,-83.7"/>
<text text-anchor="middle" x="188" y="-72.5" font-family="Times New Roman,serif" font-size="9.00">&#45;11</text>
</g>
<!-- &#45;11&#45;&gt;0 -->
<g id="edge32" class="edge">
<title>&#45;11&#45;&gt;0</title>
<path fill="none" stroke="red" stroke-width="1.03" d="M183.69,-65.65C179.76,-58.31 173.76,-47.13 168.45,-37.22"/>
<polygon fill="red" stroke="red" stroke-width="1.03" points="171.47,-35.44 163.66,-28.28 165.3,-38.74 171.47,-35.44"/>
</g>
<!-- &#45;11&#45;&gt;1 -->
<g id="edge33" class="edge">
<title>&#45;11&#45;&gt;1</title>
<path fill="none" stroke="green" stroke-width="2.08" d="M202.64,-66.82C220.39,-58.39 251.16,-43.52 277,-29.7 277.82,-29.26 278.65,-28.81 279.48,-28.35"/>
<polygon fill="green" stroke="green" stroke-width="2.08" points="281.39,-31.3 288.38,-23.33 277.95,-25.2 281.39,-31.3"/>
</g>
<!-- &#45;11&#45;&gt;2 -->
<g id="edge34" class="edge">
<title>&#45;11&#45;&gt;2</title>
<path fill="none" stroke="red" stroke-width="0.53" d="M190.36,-65.65C192.37,-58.82 195.36,-48.64 198.12,-39.27"/>
<polygon fill="red" stroke="red" stroke-width="0.53" points="201.5,-40.19 200.96,-29.6 194.78,-38.21 201.5,-40.19"/>
</g>
<!-- &#45;11&#45;&gt;3 -->
<g id="edge35" class="edge">
<title>&#45;11&#45;&gt;3</title>
<path fill="none" stroke="red" stroke-width="0.4" d="M197.04,-65.65C206.77,-57 222.5,-42.99 234.81,-32.03"/>
<polygon fill="red" stroke="red" stroke-width="0.4" points="237.17,-34.62 242.31,-25.36 232.52,-29.4 237.17,-34.62"/>
</g>
</g>
</svg>
