<?xml version="1.0" encoding="UTF-8" standalone="no"?>
<!DOCTYPE svg PUBLIC "-//W3C//DTD SVG 1.1//EN"
 "http://www.w3.org/Graphics/SVG/1.1/DTD/svg11.dtd">
<!-- Generated by graphviz version 2.47.1 (20210417.1919)
 -->
<!-- Pages: 1 -->
<svg width="464pt" height="92pt"
 viewBox="0.00 0.00 464.00 91.70" xmlns="http://www.w3.org/2000/svg" xmlns:xlink="http://www.w3.org/1999/xlink">
<g id="graph0" class="graph" transform="scale(1 1) rotate(0) translate(4 87.7)">
<polygon fill="white" stroke="transparent" points="-4,4 -4,-87.7 460,-87.7 460,4 -4,4"/>
<!-- &#45;1 -->
<g id="node1" class="node">
<title>&#45;1</title>
<polygon fill="lightgray" stroke="black" points="282,-83.7 258,-83.7 258,-65.7 282,-65.7 282,-83.7"/>
<text text-anchor="middle" x="270" y="-72.5" font-family="Times New Roman,serif" font-size="9.00">&#45;1</text>
</g>
<!-- 0 -->
<g id="node12" class="node">
<title>0</title>
<ellipse fill="lightblue" stroke="black" cx="231" cy="-14.85" rx="14.7" ry="14.7"/>
<text text-anchor="middle" x="231" y="-12.65" font-family="Times New Roman,serif" font-size="9.00">0</text>
</g>
<!-- &#45;1&#45;&gt;0 -->
<g id="edge1" class="edge">
<title>&#45;1&#45;&gt;0</title>
<path fill="none" stroke="red" stroke-width="1.02" stroke-dasharray="1,5" d="M264.58,-65.65C259.46,-58.07 251.58,-46.37 244.74,-36.22"/>
<polygon fill="red" stroke="red" stroke-width="1.02" points="247.58,-34.18 239.09,-27.84 241.77,-38.09 247.58,-34.18"/>
</g>
<!-- 1 -->
<g id="node13" class="node">
<title>1</title>
<ellipse fill="lightblue" stroke="black" cx="135" cy="-14.85" rx="14.7" ry="14.7"/>
<text text-anchor="middle" x="135" y="-12.65" font-family="Times New Roman,serif" font-size="9.00">1</text>
</g>
<!-- &#45;1&#45;&gt;1 -->
<g id="edge2" class="edge">
<title>&#45;1&#45;&gt;1</title>
<path fill="none" stroke="red" stroke-width="4.9" d="M257.96,-69.18C233.2,-59.85 177.38,-38.59 159,-29.7 158.17,-29.3 157.32,-28.87 156.47,-28.44"/>
<polygon fill="red" stroke="red" stroke-width="4.9" points="158.35,-24.58 147.52,-23.53 154.23,-32.1 158.35,-24.58"/>
</g>
<!-- 2 -->
<g id="node14" class="node">
<title>2</title>
<ellipse fill="lightblue" stroke="black" cx="279" cy="-14.85" rx="14.7" ry="14.7"/>
<text text-anchor="middle" x="279" y="-12.65" font-family="Times New Roman,serif" font-size="9.00">2</text>
</g>
<!-- &#45;1&#45;&gt;2 -->
<g id="edge3" class="edge">
<title>&#45;1&#45;&gt;2</title>
<path fill="none" stroke="green" stroke-width="1.02" d="M271.25,-65.65C272.3,-58.89 273.86,-48.86 275.31,-39.57"/>
<polygon fill="green" stroke="green" stroke-width="1.02" points="278.78,-40.02 276.86,-29.6 271.86,-38.95 278.78,-40.02"/>
</g>
<!-- 3 -->
<g id="node15" class="node">
<title>3</title>
<ellipse fill="lightblue" stroke="black" cx="183" cy="-14.85" rx="14.7" ry="14.7"/>
<text text-anchor="middle" x="183" y="-12.65" font-family="Times New Roman,serif" font-size="9.00">3</text>
</g>
<!-- &#45;1&#45;&gt;3 -->
<g id="edge4" class="edge">
<title>&#45;1&#45;&gt;3</title>
<path fill="none" stroke="green" stroke-width="0.82" d="M257.9,-65.65C243.88,-56.33 220.53,-40.8 203.62,-29.56"/>
<polygon fill="green" stroke="green" stroke-width="0.82" points="205.26,-26.45 194.99,-23.82 201.38,-32.28 205.26,-26.45"/>
</g>
<!-- &#45;2 -->
<g id="node2" class="node">
<title>&#45;2</title>
<polygon fill="lightgray" stroke="black" points="324,-83.7 300,-83.7 300,-65.7 324,-65.7 324,-83.7"/>
<text text-anchor="middle" x="312" y="-72.5" font-family="Times New Roman,serif" font-size="9.00">&#45;2</text>
</g>
<!-- &#45;2&#45;&gt;0 -->
<g id="edge5" class="edge">
<title>&#45;2&#45;&gt;0</title>
<path fill="none" stroke="red" stroke-width="0.54" stroke-dasharray="1,5" d="M300.74,-65.65C287.95,-56.52 266.82,-41.43 251.17,-30.26"/>
<polygon fill="red" stroke="red" stroke-width="0.54" points="252.86,-27.16 242.69,-24.2 248.8,-32.86 252.86,-27.16"/>
</g>
<!-- &#45;2&#45;&gt;1 -->
<g id="edge6" class="edge">
<title>&#45;2&#45;&gt;1</title>
<path fill="none" stroke="red" stroke-width="0.22" stroke-dasharray="1,5" d="M299.63,-68.76C296.82,-67.7 293.82,-66.62 291,-65.7 233.18,-46.85 215.13,-53.09 159,-29.7 158.15,-29.34 157.28,-28.96 156.42,-28.56"/>
<polygon fill="red" stroke="red" stroke-width="0.22" points="157.87,-25.37 147.39,-23.81 154.61,-31.57 157.87,-25.37"/>
</g>
<!-- &#45;2&#45;&gt;2 -->
<g id="edge7" class="edge">
<title>&#45;2&#45;&gt;2</title>
<path fill="none" stroke="red" stroke-width="1.3" stroke-dasharray="1,5" d="M307.41,-65.65C303.22,-58.31 296.85,-47.13 291.19,-37.22"/>
<polygon fill="red" stroke="red" stroke-width="1.3" points="294.08,-35.23 286.09,-28.28 288,-38.7 294.08,-35.23"/>
</g>
<!-- &#45;2&#45;&gt;3 -->
<g id="edge8" class="edge">
<title>&#45;2&#45;&gt;3</title>
<path fill="none" stroke="red" stroke-width="2.15" stroke-dasharray="1,5" d="M299.9,-68.85C276.15,-59.31 224.27,-38.26 207,-29.7 206.17,-29.29 205.33,-28.86 204.48,-28.42"/>
<polygon fill="red" stroke="red" stroke-width="2.15" points="205.99,-25.25 195.54,-23.49 202.61,-31.38 205.99,-25.25"/>
</g>
<!-- &#45;3 -->
<g id="node3" class="node">
<title>&#45;3</title>
<polygon fill="lightgray" stroke="black" points="66,-83.7 42,-83.7 42,-65.7 66,-65.7 66,-83.7"/>
<text text-anchor="middle" x="54" y="-72.5" font-family="Times New Roman,serif" font-size="9.00">&#45;3</text>
</g>
<!-- &#45;3&#45;&gt;0 -->
<g id="edge9" class="edge">
<title>&#45;3&#45;&gt;0</title>
<path fill="none" stroke="green" stroke-width="0.97" d="M66.37,-68.76C69.18,-67.7 72.18,-66.62 75,-65.7 132.82,-46.85 150.87,-53.09 207,-29.7 207.85,-29.34 208.72,-28.96 209.58,-28.56"/>
<polygon fill="green" stroke="green" stroke-width="0.97" points="211.39,-31.57 218.61,-23.81 208.13,-25.37 211.39,-31.57"/>
</g>
<!-- &#45;3&#45;&gt;1 -->
<g id="edge10" class="edge">
<title>&#45;3&#45;&gt;1</title>
<path fill="none" stroke="red" stroke-width="0.76" stroke-dasharray="1,5" d="M65.26,-65.65C78.05,-56.52 99.18,-41.43 114.83,-30.26"/>
<polygon fill="red" stroke="red" stroke-width="0.76" points="117.2,-32.86 123.31,-24.2 113.14,-27.16 117.2,-32.86"/>
</g>
<!-- &#45;3&#45;&gt;3 -->
<g id="edge11" class="edge">
<title>&#45;3&#45;&gt;3</title>
<path fill="none" stroke="green" stroke-width="3.49" stroke-dasharray="1,5" d="M66.1,-68.85C89.85,-59.31 141.73,-38.26 159,-29.7 159.83,-29.29 160.67,-28.86 161.52,-28.42"/>
<polygon fill="green" stroke="green" stroke-width="3.49" points="163.39,-31.38 170.46,-23.49 160.01,-25.25 163.39,-31.38"/>
</g>
<!-- &#45;4 -->
<g id="node4" class="node">
<title>&#45;4</title>
<polygon fill="lightgray" stroke="black" points="24,-83.7 0,-83.7 0,-65.7 24,-65.7 24,-83.7"/>
<text text-anchor="middle" x="12" y="-72.5" font-family="Times New Roman,serif" font-size="9.00">&#45;4</text>
</g>
<!-- &#45;4&#45;&gt;1 -->
<g id="edge12" class="edge">
<title>&#45;4&#45;&gt;1</title>
<path fill="none" stroke="red" stroke-width="1.76" d="M24.24,-67.94C44.83,-58.26 86.65,-38.59 112.6,-26.38"/>
<polygon fill="red" stroke="red" stroke-width="1.76" points="114.13,-29.53 121.69,-22.11 111.16,-23.2 114.13,-29.53"/>
</g>
<!-- &#45;4&#45;&gt;3 -->
<g id="edge13" class="edge">
<title>&#45;4&#45;&gt;3</title>
<path fill="none" stroke="red" stroke-width="1.08" stroke-dasharray="1,5" d="M24.37,-68.78C27.19,-67.72 30.19,-66.63 33,-65.7 88.26,-47.31 105.38,-52.42 159,-29.7 159.85,-29.34 160.71,-28.95 161.57,-28.55"/>
<polygon fill="red" stroke="red" stroke-width="1.08" points="163.39,-31.55 170.59,-23.78 160.12,-25.36 163.39,-31.55"/>
</g>
<!-- &#45;5 -->
<g id="node5" class="node">
<title>&#45;5</title>
<polygon fill="lightgray" stroke="black" points="150,-83.7 126,-83.7 126,-65.7 150,-65.7 150,-83.7"/>
<text text-anchor="middle" x="138" y="-72.5" font-family="Times New Roman,serif" font-size="9.00">&#45;5</text>
</g>
<!-- &#45;5&#45;&gt;0 -->
<g id="edge14" class="edge">
<title>&#45;5&#45;&gt;0</title>
<path fill="none" stroke="red" stroke-width="5.53" d="M150.16,-66.14C165.41,-56.65 191.78,-40.24 210.25,-28.76"/>
<polygon fill="red" stroke="red" stroke-width="5.53" points="212.9,-32.8 218.84,-23.41 207.79,-24.59 212.9,-32.8"/>
</g>
<!-- &#45;5&#45;&gt;1 -->
<g id="edge15" class="edge">
<title>&#45;5&#45;&gt;1</title>
<path fill="none" stroke="green" stroke-width="2.43" d="M137.58,-65.65C137.24,-59.05 136.74,-49.33 136.26,-40.23"/>
<polygon fill="green" stroke="green" stroke-width="2.43" points="139.75,-39.86 135.74,-30.06 132.76,-40.22 139.75,-39.86"/>
</g>
<!-- &#45;5&#45;&gt;2 -->
<g id="edge16" class="edge">
<title>&#45;5&#45;&gt;2</title>
<path fill="none" stroke="red" stroke-width="0.83" d="M150.43,-68.95C153.25,-67.88 156.23,-66.75 159,-65.7 201.62,-49.59 213.79,-49.15 255,-29.7 255.84,-29.3 256.68,-28.89 257.54,-28.46"/>
<polygon fill="red" stroke="red" stroke-width="0.83" points="259.39,-31.43 266.5,-23.58 256.05,-25.29 259.39,-31.43"/>
</g>
<!-- &#45;5&#45;&gt;3 -->
<g id="edge17" class="edge">
<title>&#45;5&#45;&gt;3</title>
<path fill="none" stroke="red" stroke-width="2.75" d="M144.26,-65.65C150.37,-57.8 159.91,-45.53 167.99,-35.14"/>
<polygon fill="red" stroke="red" stroke-width="2.75" points="170.95,-37.04 174.33,-26.99 165.43,-32.74 170.95,-37.04"/>
</g>
<!-- &#45;6 -->
<g id="node6" class="node">
<title>&#45;6</title>
<polygon fill="lightgray" stroke="black" points="192,-83.7 168,-83.7 168,-65.7 192,-65.7 192,-83.7"/>
<text text-anchor="middle" x="180" y="-72.5" font-family="Times New Roman,serif" font-size="9.00">&#45;6</text>
</g>
<!-- &#45;6&#45;&gt;0 -->
<g id="edge34" class="edge">
<title>&#45;6&#45;&gt;0</title>
<path fill="none" stroke="red" stroke-width="0.27" stroke-dasharray="1,5" d="M187.09,-65.65C194.25,-57.54 205.54,-44.73 214.88,-34.13"/>
<polygon fill="red" stroke="red" stroke-width="0.27" points="217.55,-36.39 221.54,-26.58 212.3,-31.76 217.55,-36.39"/>
</g>
<!-- &#45;6&#45;&gt;1 -->
<g id="edge18" class="edge">
<title>&#45;6&#45;&gt;1</title>
<path fill="none" stroke="red" stroke-width="0.47" d="M173.74,-65.65C167.63,-57.8 158.09,-45.53 150.01,-35.14"/>
<polygon fill="red" stroke="red" stroke-width="0.47" points="152.57,-32.74 143.67,-26.99 147.05,-37.04 152.57,-32.74"/>
</g>
<!-- &#45;6&#45;&gt;2 -->
<g id="edge19" class="edge">
<title>&#45;6&#45;&gt;2</title>
<path fill="none" stroke="green" stroke-width="1.36" stroke-dasharray="1,5" d="M192.14,-66.61C208.45,-57.07 237.71,-39.98 257.72,-28.28"/>
<polygon fill="green" stroke="green" stroke-width="1.36" points="259.58,-31.25 266.45,-23.18 256.05,-25.21 259.58,-31.25"/>
</g>
<!-- &#45;6&#45;&gt;3 -->
<g id="edge20" class="edge">
<title>&#45;6&#45;&gt;3</title>
<path fill="none" stroke="red" stroke-width="4.94" d="M180.42,-65.65C180.76,-59.05 181.26,-49.33 181.74,-40.23"/>
<polygon fill="red" stroke="red" stroke-width="4.94" points="186.06,-40.27 182.26,-30.06 177.43,-39.82 186.06,-40.27"/>
</g>
<!-- &#45;7 -->
<g id="node7" class="node">
<title>&#45;7</title>
<polygon fill="lightgray" stroke="black" points="456,-83.7 432,-83.7 432,-65.7 456,-65.7 456,-83.7"/>
<text text-anchor="middle" x="444" y="-72.5" font-family="Times New Roman,serif" font-size="9.00">&#45;7</text>
</g>
<!-- &#45;7&#45;&gt;2 -->
<g id="edge21" class="edge">
<title>&#45;7&#45;&gt;2</title>
<path fill="none" stroke="red" stroke-width="5.48" d="M431.59,-68.9C428.77,-67.83 425.79,-66.71 423,-65.7 380.7,-50.33 331.04,-33.37 302.47,-23.73"/>
<polygon fill="red" stroke="red" stroke-width="5.48" points="303.96,-19.17 292.95,-20.52 300.9,-28.26 303.96,-19.17"/>
</g>
<!-- &#45;8 -->
<g id="node8" class="node">
<title>&#45;8</title>
<polygon fill="lightgray" stroke="black" points="108,-83.7 84,-83.7 84,-65.7 108,-65.7 108,-83.7"/>
<text text-anchor="middle" x="96" y="-72.5" font-family="Times New Roman,serif" font-size="9.00">&#45;8</text>
</g>
<!-- &#45;8&#45;&gt;1 -->
<g id="edge22" class="edge">
<title>&#45;8&#45;&gt;1</title>
<path fill="none" stroke="red" stroke-width="0.97" d="M101.42,-65.65C106.54,-58.07 114.42,-46.37 121.26,-36.22"/>
<polygon fill="red" stroke="red" stroke-width="0.97" points="124.23,-38.09 126.91,-27.84 118.42,-34.18 124.23,-38.09"/>
</g>
<!-- &#45;8&#45;&gt;2 -->
<g id="edge23" class="edge">
<title>&#45;8&#45;&gt;2</title>
<path fill="none" stroke="green" stroke-width="4.72" d="M108.36,-68.73C111.18,-67.67 114.18,-66.6 117,-65.7 177.37,-46.39 196.36,-53.75 255,-29.7 255.86,-29.35 256.72,-28.97 257.58,-28.57"/>
<polygon fill="green" stroke="green" stroke-width="4.72" points="259.68,-32.14 266.62,-23.84 255.85,-24.83 259.68,-32.14"/>
</g>
<!-- &#45;8&#45;&gt;3 -->
<g id="edge24" class="edge">
<title>&#45;8&#45;&gt;3</title>
<path fill="none" stroke="red" stroke-width="6.08" stroke-dasharray="1,5" d="M108.1,-65.65C122.12,-56.33 145.47,-40.8 162.38,-29.56"/>
<polygon fill="red" stroke="red" stroke-width="6.08" points="165.62,-33.79 171.01,-23.82 159.73,-24.93 165.62,-33.79"/>
</g>
<!-- &#45;9 -->
<g id="node9" class="node">
<title>&#45;9</title>
<polygon fill="lightgray" stroke="black" points="366,-83.7 342,-83.7 342,-65.7 366,-65.7 366,-83.7"/>
<text text-anchor="middle" x="354" y="-72.5" font-family="Times New Roman,serif" font-size="9.00">&#45;9</text>
</g>
<!-- &#45;9&#45;&gt;0 -->
<g id="edge25" class="edge">
<title>&#45;9&#45;&gt;0</title>
<path fill="none" stroke="red" stroke-width="1.56" d="M341.92,-68.81C323.08,-61.09 285.68,-45.31 255,-29.7 254.17,-29.28 253.34,-28.84 252.5,-28.4"/>
<polygon fill="red" stroke="red" stroke-width="1.56" points="254.01,-25.23 243.57,-23.43 250.61,-31.35 254.01,-25.23"/>
</g>
<!-- &#45;9&#45;&gt;2 -->
<g id="edge26" class="edge">
<title>&#45;9&#45;&gt;2</title>
<path fill="none" stroke="red" stroke-width="3.46" d="M343.57,-65.65C331.97,-56.71 312.97,-42.05 298.58,-30.95"/>
<polygon fill="red" stroke="red" stroke-width="3.46" points="300.38,-27.92 290.32,-24.58 296.1,-33.46 300.38,-27.92"/>
</g>
<!-- &#45;9&#45;&gt;3 -->
<g id="edge27" class="edge">
<title>&#45;9&#45;&gt;3</title>
<path fill="none" stroke="green" stroke-width="4.45" d="M341.63,-68.78C338.81,-67.72 335.81,-66.63 333,-65.7 277.74,-47.31 260.62,-52.42 207,-29.7 206.15,-29.34 205.29,-28.95 204.43,-28.55"/>
<polygon fill="green" stroke="green" stroke-width="4.45" points="206.07,-25.01 195.41,-23.78 202.43,-31.9 206.07,-25.01"/>
</g>
<!-- &#45;10 -->
<g id="node10" class="node">
<title>&#45;10</title>
<polygon fill="lightgray" stroke="black" points="413.5,-83.7 384.5,-83.7 384.5,-65.7 413.5,-65.7 413.5,-83.7"/>
<text text-anchor="middle" x="399" y="-72.5" font-family="Times New Roman,serif" font-size="9.00">&#45;10</text>
</g>
<!-- &#45;10&#45;&gt;0 -->
<g id="edge28" class="edge">
<title>&#45;10&#45;&gt;0</title>
<path fill="none" stroke="green" stroke-width="3.66" d="M384.3,-68.72C381.23,-67.7 378.01,-66.65 375,-65.7 321.92,-48.89 306.12,-51.76 255,-29.7 254.15,-29.33 253.29,-28.94 252.43,-28.53"/>
<polygon fill="green" stroke="green" stroke-width="3.66" points="253.89,-25.35 243.42,-23.75 250.61,-31.53 253.89,-25.35"/>
</g>
<!-- &#45;10&#45;&gt;2 -->
<g id="edge29" class="edge">
<title>&#45;10&#45;&gt;2</title>
<path fill="none" stroke="green" stroke-width="0.38" d="M384.29,-66.61C363.49,-56.58 325.35,-38.2 301.14,-26.52"/>
<polygon fill="green" stroke="green" stroke-width="0.38" points="302.53,-23.31 292,-22.12 299.49,-29.61 302.53,-23.31"/>
</g>
<!-- &#45;11 -->
<g id="node11" class="node">
<title>&#45;11</title>
<polygon fill="lightgray" stroke="black" points="239.5,-83.7 210.5,-83.7 210.5,-65.7 239.5,-65.7 239.5,-83.7"/>
<text text-anchor="middle" x="225" y="-72.5" font-family="Times New Roman,serif" font-size="9.00">&#45;11</text>
</g>
<!-- &#45;11&#45;&gt;0 -->
<g id="edge33" class="edge">
<title>&#45;11&#45;&gt;0</title>
<path fill="none" stroke="red" stroke-width="0.56" stroke-dasharray="1,5" d="M225.83,-65.65C226.52,-59.05 227.53,-49.33 228.47,-40.23"/>
<polygon fill="red" stroke="red" stroke-width="0.56" points="231.98,-40.36 229.53,-30.06 225.01,-39.64 231.98,-40.36"/>
</g>
<!-- &#45;11&#45;&gt;1 -->
<g id="edge30" class="edge">
<title>&#45;11&#45;&gt;1</title>
<path fill="none" stroke="green" stroke-width="6.01" d="M212.49,-65.65C197.76,-56.19 173.1,-40.34 155.56,-29.06"/>
<polygon fill="green" stroke="green" stroke-width="6.01" points="158.38,-24.62 147.12,-23.64 152.69,-33.47 158.38,-24.62"/>
</g>
<!-- &#45;11&#45;&gt;2 -->
<g id="edge31" class="edge">
<title>&#45;11&#45;&gt;2</title>
<path fill="none" stroke="red" stroke-width="0.19" stroke-dasharray="1,5" d="M232.51,-65.65C240.18,-57.44 252.33,-44.42 262.29,-33.75"/>
<polygon fill="red" stroke="red" stroke-width="0.19" points="265.1,-35.86 269.37,-26.17 259.99,-31.09 265.1,-35.86"/>
</g>
<!-- &#45;11&#45;&gt;3 -->
<g id="edge32" class="edge">
<title>&#45;11&#45;&gt;3</title>
<path fill="none" stroke="green" stroke-width="0.4" stroke-dasharray="1,5" d="M219.16,-65.65C213.53,-57.89 204.77,-45.84 197.29,-35.53"/>
<polygon fill="green" stroke="green" stroke-width="0.4" points="200.11,-33.45 191.4,-27.42 194.44,-37.57 200.11,-33.45"/>
</g>
</g>
</svg>
