<?xml version="1.0" encoding="UTF-8" standalone="no"?>
<!DOCTYPE svg PUBLIC "-//W3C//DTD SVG 1.1//EN"
 "http://www.w3.org/Graphics/SVG/1.1/DTD/svg11.dtd">
<!-- Generated by graphviz version 2.47.1 (20210417.1919)
 -->
<!-- Pages: 1 -->
<svg width="1077pt" height="428pt"
 viewBox="0.00 0.00 1076.58 427.77" xmlns="http://www.w3.org/2000/svg" xmlns:xlink="http://www.w3.org/1999/xlink">
<g id="graph0" class="graph" transform="scale(1 1) rotate(0) translate(4 423.77)">
<polygon fill="white" stroke="transparent" points="-4,4 -4,-423.77 1072.58,-423.77 1072.58,4 -4,4"/>
<!-- &#45;1 -->
<g id="node1" class="node">
<title>&#45;1</title>
<polygon fill="lightgray" stroke="black" points="151,-401.19 127,-401.19 127,-383.19 151,-383.19 151,-401.19"/>
<text text-anchor="middle" x="139" y="-389.99" font-family="Times New Roman,serif" font-size="9.00">&#45;1</text>
</g>
<!-- 2 -->
<g id="node14" class="node">
<title>2</title>
<ellipse fill="lightblue" stroke="black" cx="54" cy="-301.04" rx="14.7" ry="14.7"/>
<text text-anchor="middle" x="54" y="-298.84" font-family="Times New Roman,serif" font-size="9.00">2</text>
</g>
<!-- &#45;1&#45;&gt;2 -->
<g id="edge1" class="edge">
<title>&#45;1&#45;&gt;2</title>
<path fill="none" stroke="green" stroke-width="0.5" d="M131.16,-382.97C117.5,-368.65 89.08,-338.84 70.81,-319.67"/>
<polygon fill="green" stroke="green" stroke-width="0.5" points="73.33,-317.24 63.9,-312.42 68.26,-322.07 73.33,-317.24"/>
</g>
<!-- 3 -->
<g id="node15" class="node">
<title>3</title>
<ellipse fill="lightblue" stroke="black" cx="260" cy="-301.04" rx="14.7" ry="14.7"/>
<text text-anchor="middle" x="260" y="-298.84" font-family="Times New Roman,serif" font-size="9.00">3</text>
</g>
<!-- &#45;1&#45;&gt;3 -->
<g id="edge2" class="edge">
<title>&#45;1&#45;&gt;3</title>
<path fill="none" stroke="green" stroke-width="0.5" d="M150.17,-382.97C170.68,-367.85 214.61,-335.48 240.27,-316.58"/>
<polygon fill="green" stroke="green" stroke-width="0.5" points="242.53,-319.26 248.51,-310.51 238.38,-313.62 242.53,-319.26"/>
</g>
<!-- 39705 -->
<g id="node20" class="node">
<title>39705</title>
<ellipse fill="white" stroke="black" cx="181" cy="-301.04" rx="27.65" ry="27.65"/>
<text text-anchor="middle" x="181" y="-298.84" font-family="Times New Roman,serif" font-size="9.00">39705</text>
</g>
<!-- &#45;1&#45;&gt;39705 -->
<g id="edge15" class="edge">
<title>&#45;1&#45;&gt;39705</title>
<path fill="none" stroke="green" stroke-width="0.5" d="M142.88,-382.97C147.95,-372.2 157.14,-352.68 165.23,-335.51"/>
<polygon fill="green" stroke="green" stroke-width="0.5" points="168.48,-336.82 169.58,-326.28 162.15,-333.84 168.48,-336.82"/>
</g>
<!-- 42956 -->
<g id="node26" class="node">
<title>42956</title>
<ellipse fill="white" stroke="black" cx="135" cy="-118.73" rx="27.65" ry="27.65"/>
<text text-anchor="middle" x="135" y="-116.53" font-family="Times New Roman,serif" font-size="9.00">42956</text>
</g>
<!-- &#45;1&#45;&gt;42956 -->
<g id="edge18" class="edge">
<title>&#45;1&#45;&gt;42956</title>
<path fill="none" stroke="green" stroke-width="0.5" d="M136.53,-382.81C128.53,-354.5 104.48,-259.9 116,-182.31 117.36,-173.17 119.77,-163.52 122.43,-154.6"/>
<polygon fill="green" stroke="green" stroke-width="0.5" points="125.82,-155.51 125.5,-144.92 119.14,-153.39 125.82,-155.51"/>
</g>
<!-- &#45;2 -->
<g id="node2" class="node">
<title>&#45;2</title>
<polygon fill="lightgray" stroke="black" points="447,-310.04 423,-310.04 423,-292.04 447,-292.04 447,-310.04"/>
<text text-anchor="middle" x="435" y="-298.84" font-family="Times New Roman,serif" font-size="9.00">&#45;2</text>
</g>
<!-- 1 -->
<g id="node13" class="node">
<title>1</title>
<ellipse fill="lightblue" stroke="black" cx="480" cy="-209.89" rx="14.7" ry="14.7"/>
<text text-anchor="middle" x="480" y="-207.69" font-family="Times New Roman,serif" font-size="9.00">1</text>
</g>
<!-- &#45;2&#45;&gt;1 -->
<g id="edge12" class="edge">
<title>&#45;2&#45;&gt;1</title>
<path fill="none" stroke="green" stroke-width="0.5" stroke-dasharray="1,5" d="M439.15,-291.81C445.86,-278.52 459.3,-251.9 468.93,-232.82"/>
<polygon fill="green" stroke="green" stroke-width="0.5" points="472.18,-234.14 473.56,-223.64 465.93,-230.99 472.18,-234.14"/>
</g>
<!-- &#45;3 -->
<g id="node3" class="node">
<title>&#45;3</title>
<polygon fill="lightgray" stroke="black" points="675,-401.19 651,-401.19 651,-383.19 675,-383.19 675,-401.19"/>
<text text-anchor="middle" x="663" y="-389.99" font-family="Times New Roman,serif" font-size="9.00">&#45;3</text>
</g>
<!-- &#45;4 -->
<g id="node4" class="node">
<title>&#45;4</title>
<polygon fill="lightgray" stroke="black" points="633,-401.19 609,-401.19 609,-383.19 633,-383.19 633,-401.19"/>
<text text-anchor="middle" x="621" y="-389.99" font-family="Times New Roman,serif" font-size="9.00">&#45;4</text>
</g>
<!-- 0 -->
<g id="node12" class="node">
<title>0</title>
<ellipse fill="lightblue" stroke="black" cx="621" cy="-209.89" rx="14.7" ry="14.7"/>
<text text-anchor="middle" x="621" y="-207.69" font-family="Times New Roman,serif" font-size="9.00">0</text>
</g>
<!-- &#45;4&#45;&gt;0 -->
<g id="edge3" class="edge">
<title>&#45;4&#45;&gt;0</title>
<path fill="none" stroke="green" stroke-width="0.5" stroke-dasharray="1,5" d="M614.14,-382.96C605.15,-371.59 589.86,-350.04 584,-328.62 577.53,-304.97 577.53,-297.11 584,-273.46 588.3,-257.75 597.67,-241.97 605.91,-230.19"/>
<polygon fill="green" stroke="green" stroke-width="0.5" points="608.8,-232.16 611.88,-222.02 603.15,-228.03 608.8,-232.16"/>
</g>
<!-- 41385 -->
<g id="node22" class="node">
<title>41385</title>
<ellipse fill="white" stroke="black" cx="621" cy="-301.04" rx="27.65" ry="27.65"/>
<text text-anchor="middle" x="621" y="-298.84" font-family="Times New Roman,serif" font-size="9.00">41385</text>
</g>
<!-- &#45;4&#45;&gt;41385 -->
<g id="edge16" class="edge">
<title>&#45;4&#45;&gt;41385</title>
<path fill="none" stroke="green" stroke-width="0.5" stroke-dasharray="1,5" d="M621,-382.97C621,-372.99 621,-355.51 621,-339.34"/>
<polygon fill="green" stroke="green" stroke-width="0.5" points="624.5,-339 621,-329 617.5,-339 624.5,-339"/>
</g>
<!-- 47189 -->
<g id="node27" class="node">
<title>47189</title>
<ellipse fill="white" stroke="black" cx="694" cy="-301.04" rx="27.65" ry="27.65"/>
<text text-anchor="middle" x="694" y="-298.84" font-family="Times New Roman,serif" font-size="9.00">47189</text>
</g>
<!-- &#45;4&#45;&gt;47189 -->
<g id="edge29" class="edge">
<title>&#45;4&#45;&gt;47189</title>
<path fill="none" stroke="green" stroke-width="0.5" d="M627.57,-382.77C631.68,-377.53 637.11,-370.65 642,-364.62 651.07,-353.42 661.17,-341.22 670.03,-330.58"/>
<polygon fill="green" stroke="green" stroke-width="0.5" points="672.81,-332.71 676.54,-322.79 667.44,-328.22 672.81,-332.71"/>
</g>
<!-- &#45;5 -->
<g id="node5" class="node">
<title>&#45;5</title>
<polygon fill="lightgray" stroke="black" points="333,-401.19 309,-401.19 309,-383.19 333,-383.19 333,-401.19"/>
<text text-anchor="middle" x="321" y="-389.99" font-family="Times New Roman,serif" font-size="9.00">&#45;5</text>
</g>
<!-- &#45;5&#45;&gt;3 -->
<g id="edge4" class="edge">
<title>&#45;5&#45;&gt;3</title>
<path fill="none" stroke="green" stroke-width="0.5" d="M315.37,-382.97C306,-369.27 286.94,-341.42 273.82,-322.24"/>
<polygon fill="green" stroke="green" stroke-width="0.5" points="276.64,-320.16 268.1,-313.88 270.86,-324.11 276.64,-320.16"/>
</g>
<!-- 36531 -->
<g id="node23" class="node">
<title>36531</title>
<ellipse fill="white" stroke="black" cx="377" cy="-301.04" rx="27.65" ry="27.65"/>
<text text-anchor="middle" x="377" y="-298.84" font-family="Times New Roman,serif" font-size="9.00">36531</text>
</g>
<!-- &#45;5&#45;&gt;36531 -->
<g id="edge13" class="edge">
<title>&#45;5&#45;&gt;36531</title>
<path fill="none" stroke="green" stroke-width="0.5" stroke-dasharray="1,5" d="M326.17,-382.97C333.18,-371.81 346.09,-351.24 357.15,-333.64"/>
<polygon fill="green" stroke="green" stroke-width="0.5" points="360.37,-335.1 362.72,-324.77 354.44,-331.37 360.37,-335.1"/>
</g>
<!-- 40410 -->
<g id="node28" class="node">
<title>40410</title>
<ellipse fill="white" stroke="black" cx="227" cy="-27.58" rx="27.65" ry="27.65"/>
<text text-anchor="middle" x="227" y="-25.38" font-family="Times New Roman,serif" font-size="9.00">40410</text>
</g>
<!-- &#45;5&#45;&gt;40410 -->
<g id="edge14" class="edge">
<title>&#45;5&#45;&gt;40410</title>
<path fill="none" stroke="green" stroke-width="0.5" d="M321.14,-383.08C321.44,-354.88 320.91,-258.66 302,-182.31 291.45,-139.7 283.66,-130.4 264,-91.15 258.81,-80.79 252.57,-69.8 246.72,-59.98"/>
<polygon fill="green" stroke="green" stroke-width="0.5" points="249.66,-58.07 241.49,-51.33 243.67,-61.7 249.66,-58.07"/>
</g>
<!-- &#45;6 -->
<g id="node6" class="node">
<title>&#45;6</title>
<polygon fill="lightgray" stroke="black" points="24,-401.19 0,-401.19 0,-383.19 24,-383.19 24,-401.19"/>
<text text-anchor="middle" x="12" y="-389.99" font-family="Times New Roman,serif" font-size="9.00">&#45;6</text>
</g>
<!-- &#45;6&#45;&gt;2 -->
<g id="edge5" class="edge">
<title>&#45;6&#45;&gt;2</title>
<path fill="none" stroke="green" stroke-width="0.5" d="M15.88,-382.97C22.14,-369.68 34.68,-343.06 43.67,-323.97"/>
<polygon fill="green" stroke="green" stroke-width="0.5" points="46.9,-325.33 47.99,-314.79 40.57,-322.34 46.9,-325.33"/>
</g>
<!-- &#45;6&#45;&gt;42956 -->
<g id="edge24" class="edge">
<title>&#45;6&#45;&gt;42956</title>
<path fill="none" stroke="green" stroke-width="0.5" d="M12.02,-383.17C12.31,-363.66 14.61,-312.51 30,-273.46 49.07,-225.09 85.64,-176.8 110.18,-147.6"/>
<polygon fill="green" stroke="green" stroke-width="0.5" points="112.93,-149.76 116.76,-139.88 107.61,-145.22 112.93,-149.76"/>
</g>
<!-- &#45;7 -->
<g id="node7" class="node">
<title>&#45;7</title>
<polygon fill="lightgray" stroke="black" points="537,-310.04 513,-310.04 513,-292.04 537,-292.04 537,-310.04"/>
<text text-anchor="middle" x="525" y="-298.84" font-family="Times New Roman,serif" font-size="9.00">&#45;7</text>
</g>
<!-- &#45;7&#45;&gt;0 -->
<g id="edge6" class="edge">
<title>&#45;7&#45;&gt;0</title>
<path fill="none" stroke="green" stroke-width="0.5" d="M532.6,-291.99C537.71,-286.65 544.65,-279.53 551,-273.46 567.94,-257.27 587.93,-239.52 602.21,-227.08"/>
<polygon fill="green" stroke="green" stroke-width="0.5" points="604.62,-229.62 609.88,-220.42 600.04,-224.33 604.62,-229.62"/>
</g>
<!-- &#45;7&#45;&gt;1 -->
<g id="edge7" class="edge">
<title>&#45;7&#45;&gt;1</title>
<path fill="none" stroke="green" stroke-width="0.5" d="M520.85,-291.81C514.14,-278.52 500.7,-251.9 491.07,-232.82"/>
<polygon fill="green" stroke="green" stroke-width="0.5" points="494.07,-230.99 486.44,-223.64 487.82,-234.14 494.07,-230.99"/>
</g>
<!-- &#45;8 -->
<g id="node8" class="node">
<title>&#45;8</title>
<polygon fill="lightgray" stroke="black" points="66,-401.19 42,-401.19 42,-383.19 66,-383.19 66,-401.19"/>
<text text-anchor="middle" x="54" y="-389.99" font-family="Times New Roman,serif" font-size="9.00">&#45;8</text>
</g>
<!-- &#45;8&#45;&gt;2 -->
<g id="edge8" class="edge">
<title>&#45;8&#45;&gt;2</title>
<path fill="none" stroke="green" stroke-width="0.5" d="M54,-382.97C54,-370.21 54,-345.17 54,-326.3"/>
<polygon fill="green" stroke="green" stroke-width="0.5" points="57.5,-326.04 54,-316.04 50.5,-326.04 57.5,-326.04"/>
</g>
<!-- &#45;9 -->
<g id="node9" class="node">
<title>&#45;9</title>
<polygon fill="lightgray" stroke="black" points="272,-401.19 248,-401.19 248,-383.19 272,-383.19 272,-401.19"/>
<text text-anchor="middle" x="260" y="-389.99" font-family="Times New Roman,serif" font-size="9.00">&#45;9</text>
</g>
<!-- &#45;9&#45;&gt;3 -->
<g id="edge9" class="edge">
<title>&#45;9&#45;&gt;3</title>
<path fill="none" stroke="green" stroke-width="0.5" d="M260,-382.97C260,-370.21 260,-345.17 260,-326.3"/>
<polygon fill="green" stroke="green" stroke-width="0.5" points="263.5,-326.04 260,-316.04 256.5,-326.04 263.5,-326.04"/>
</g>
<!-- &#45;10 -->
<g id="node10" class="node">
<title>&#45;10</title>
<polygon fill="lightgray" stroke="black" points="768.5,-310.04 739.5,-310.04 739.5,-292.04 768.5,-292.04 768.5,-310.04"/>
<text text-anchor="middle" x="754" y="-298.84" font-family="Times New Roman,serif" font-size="9.00">&#45;10</text>
</g>
<!-- &#45;10&#45;&gt;0 -->
<g id="edge10" class="edge">
<title>&#45;10&#45;&gt;0</title>
<path fill="none" stroke="green" stroke-width="0.5" d="M748.18,-291.95C743.86,-286.32 737.6,-278.88 731,-273.46 703.51,-250.9 666.8,-231.85 643.53,-220.89"/>
<polygon fill="green" stroke="green" stroke-width="0.5" points="644.99,-217.71 634.44,-216.71 642.06,-224.07 644.99,-217.71"/>
</g>
<!-- &#45;11 -->
<g id="node11" class="node">
<title>&#45;11</title>
<polygon fill="lightgray" stroke="black" points="494.5,-310.04 465.5,-310.04 465.5,-292.04 494.5,-292.04 494.5,-310.04"/>
<text text-anchor="middle" x="480" y="-298.84" font-family="Times New Roman,serif" font-size="9.00">&#45;11</text>
</g>
<!-- &#45;11&#45;&gt;1 -->
<g id="edge11" class="edge">
<title>&#45;11&#45;&gt;1</title>
<path fill="none" stroke="green" stroke-width="0.5" d="M480,-291.81C480,-279.06 480,-254.01 480,-235.14"/>
<polygon fill="green" stroke="green" stroke-width="0.5" points="483.5,-234.89 480,-224.89 476.5,-234.89 483.5,-234.89"/>
</g>
<!-- 45327 -->
<g id="node16" class="node">
<title>45327</title>
<ellipse fill="white" stroke="black" cx="721" cy="-392.19" rx="27.65" ry="27.65"/>
<text text-anchor="middle" x="721" y="-389.99" font-family="Times New Roman,serif" font-size="9.00">45327</text>
</g>
<!-- 44562 -->
<g id="node17" class="node">
<title>44562</title>
<ellipse fill="white" stroke="black" cx="227" cy="-118.73" rx="27.65" ry="27.65"/>
<text text-anchor="middle" x="227" y="-116.53" font-family="Times New Roman,serif" font-size="9.00">44562</text>
</g>
<!-- 38421 -->
<g id="node18" class="node">
<title>38421</title>
<ellipse fill="white" stroke="black" cx="794" cy="-392.19" rx="27.65" ry="27.65"/>
<text text-anchor="middle" x="794" y="-389.99" font-family="Times New Roman,serif" font-size="9.00">38421</text>
</g>
<!-- 44825 -->
<g id="node19" class="node">
<title>44825</title>
<ellipse fill="white" stroke="black" cx="867" cy="-392.19" rx="27.65" ry="27.65"/>
<text text-anchor="middle" x="867" y="-389.99" font-family="Times New Roman,serif" font-size="9.00">44825</text>
</g>
<!-- 39705&#45;&gt;44562 -->
<g id="edge23" class="edge">
<title>39705&#45;&gt;44562</title>
<path fill="none" stroke="green" stroke-width="0.5" stroke-dasharray="1,5" d="M187.59,-274.21C195.55,-243.01 208.98,-190.37 217.92,-155.34"/>
<polygon fill="green" stroke="green" stroke-width="0.5" points="221.34,-156.07 220.42,-145.52 214.56,-154.34 221.34,-156.07"/>
</g>
<!-- 45731 -->
<g id="node21" class="node">
<title>45731</title>
<ellipse fill="white" stroke="black" cx="265" cy="-209.89" rx="27.65" ry="27.65"/>
<text text-anchor="middle" x="265" y="-207.69" font-family="Times New Roman,serif" font-size="9.00">45731</text>
</g>
<!-- 39705&#45;&gt;45731 -->
<g id="edge26" class="edge">
<title>39705&#45;&gt;45731</title>
<path fill="none" stroke="green" stroke-width="0.5" d="M199.64,-280.25C211.28,-267.9 226.42,-251.83 239.2,-238.27"/>
<polygon fill="green" stroke="green" stroke-width="0.5" points="242.1,-240.3 246.41,-230.62 237,-235.49 242.1,-240.3"/>
</g>
<!-- 44095 -->
<g id="node25" class="node">
<title>44095</title>
<ellipse fill="white" stroke="black" cx="153" cy="-209.89" rx="27.65" ry="27.65"/>
<text text-anchor="middle" x="153" y="-207.69" font-family="Times New Roman,serif" font-size="9.00">44095</text>
</g>
<!-- 39705&#45;&gt;44095 -->
<g id="edge22" class="edge">
<title>39705&#45;&gt;44095</title>
<path fill="none" stroke="green" stroke-width="0.5" d="M172.9,-274.25C170.12,-265.4 166.96,-255.33 163.99,-245.87"/>
<polygon fill="green" stroke="green" stroke-width="0.5" points="167.32,-244.8 160.98,-236.31 160.64,-246.9 167.32,-244.8"/>
</g>
<!-- 45731&#45;&gt;44562 -->
<g id="edge27" class="edge">
<title>45731&#45;&gt;44562</title>
<path fill="none" stroke="green" stroke-width="0.5" d="M254.41,-184.05C250.42,-174.68 245.8,-163.85 241.51,-153.78"/>
<polygon fill="green" stroke="green" stroke-width="0.5" points="244.67,-152.26 237.53,-144.43 238.23,-155 244.67,-152.26"/>
</g>
<!-- 41385&#45;&gt;0 -->
<g id="edge17" class="edge">
<title>41385&#45;&gt;0</title>
<path fill="none" stroke="green" stroke-width="0.5" stroke-dasharray="1,5" d="M621,-273.29C621,-261.12 621,-246.82 621,-234.98"/>
<polygon fill="green" stroke="green" stroke-width="0.5" points="624.5,-234.94 621,-224.94 617.5,-234.94 624.5,-234.94"/>
</g>
<!-- 39222 -->
<g id="node24" class="node">
<title>39222</title>
<ellipse fill="white" stroke="black" cx="940" cy="-392.19" rx="27.65" ry="27.65"/>
<text text-anchor="middle" x="940" y="-389.99" font-family="Times New Roman,serif" font-size="9.00">39222</text>
</g>
<!-- 44095&#45;&gt;42956 -->
<g id="edge25" class="edge">
<title>44095&#45;&gt;42956</title>
<path fill="none" stroke="green" stroke-width="0.5" d="M147.7,-182.62C145.99,-174.18 144.08,-164.69 142.26,-155.69"/>
<polygon fill="green" stroke="green" stroke-width="0.5" points="145.68,-154.92 140.27,-145.81 138.81,-156.31 145.68,-154.92"/>
</g>
<!-- 42956&#45;&gt;40410 -->
<g id="edge21" class="edge">
<title>42956&#45;&gt;40410</title>
<path fill="none" stroke="green" stroke-width="0.5" d="M154.51,-98.82C167.81,-85.94 185.58,-68.72 200.2,-54.55"/>
<polygon fill="green" stroke="green" stroke-width="0.5" points="202.77,-56.93 207.52,-47.46 197.9,-51.9 202.77,-56.93"/>
</g>
<!-- 47189&#45;&gt;0 -->
<g id="edge30" class="edge">
<title>47189&#45;&gt;0</title>
<path fill="none" stroke="green" stroke-width="0.5" d="M676.7,-278.91C664.43,-263.93 648.13,-244.01 636.33,-229.61"/>
<polygon fill="green" stroke="green" stroke-width="0.5" points="639.01,-227.36 629.97,-221.84 633.59,-231.79 639.01,-227.36"/>
</g>
<!-- 43360 -->
<g id="node29" class="node">
<title>43360</title>
<ellipse fill="white" stroke="black" cx="1013" cy="-392.19" rx="27.65" ry="27.65"/>
<text text-anchor="middle" x="1013" y="-389.99" font-family="Times New Roman,serif" font-size="9.00">43360</text>
</g>
<!-- 28264 -->
<g id="node30" class="node">
<title>28264</title>
<ellipse fill="white" stroke="black" cx="1013" cy="-209.89" rx="27.65" ry="27.65"/>
<text text-anchor="middle" x="1013" y="-207.69" font-family="Times New Roman,serif" font-size="9.00">28264</text>
</g>
<!-- 43360&#45;&gt;28264 -->
<g id="edge19" class="edge">
<title>43360&#45;&gt;28264</title>
<path fill="none" stroke="green" stroke-width="0.5" stroke-dasharray="1,5" d="M1008.35,-364.79C1006.61,-353.67 1004.85,-340.55 1004,-328.62 1002.25,-304.17 1002.25,-297.91 1004,-273.46 1004.61,-264.98 1005.67,-255.9 1006.86,-247.36"/>
<polygon fill="green" stroke="green" stroke-width="0.5" points="1010.35,-247.69 1008.35,-237.29 1003.42,-246.67 1010.35,-247.69"/>
</g>
<!-- 43759 -->
<g id="node31" class="node">
<title>43759</title>
<ellipse fill="white" stroke="black" cx="1041" cy="-301.04" rx="27.65" ry="27.65"/>
<text text-anchor="middle" x="1041" y="-298.84" font-family="Times New Roman,serif" font-size="9.00">43759</text>
</g>
<!-- 43360&#45;&gt;43759 -->
<g id="edge28" class="edge">
<title>43360&#45;&gt;43759</title>
<path fill="none" stroke="green" stroke-width="0.5" d="M1021.1,-365.41C1023.88,-356.55 1027.04,-346.49 1030.01,-337.03"/>
<polygon fill="green" stroke="green" stroke-width="0.5" points="1033.36,-338.05 1033.02,-327.46 1026.68,-335.95 1033.36,-338.05"/>
</g>
<!-- 43759&#45;&gt;28264 -->
<g id="edge20" class="edge">
<title>43759&#45;&gt;28264</title>
<path fill="none" stroke="green" stroke-width="0.5" stroke-dasharray="1,5" d="M1032.9,-274.25C1030.12,-265.4 1026.96,-255.33 1023.99,-245.87"/>
<polygon fill="green" stroke="green" stroke-width="0.5" points="1027.32,-244.8 1020.98,-236.31 1020.64,-246.9 1027.32,-244.8"/>
</g>
</g>
</svg>
