<?xml version="1.0" encoding="UTF-8" standalone="no"?>
<!DOCTYPE svg PUBLIC "-//W3C//DTD SVG 1.1//EN"
 "http://www.w3.org/Graphics/SVG/1.1/DTD/svg11.dtd">
<!-- Generated by graphviz version 2.47.1 (20210417.1919)
 -->
<!-- Pages: 1 -->
<svg width="674pt" height="293pt"
 viewBox="0.00 0.00 673.96 292.78" xmlns="http://www.w3.org/2000/svg" xmlns:xlink="http://www.w3.org/1999/xlink">
<g id="graph0" class="graph" transform="scale(1 1) rotate(0) translate(4 288.78)">
<polygon fill="white" stroke="transparent" points="-4,4 -4,-288.78 669.96,-288.78 669.96,4 -4,4"/>
<!-- &#45;1 -->
<g id="node1" class="node">
<title>&#45;1</title>
<polygon fill="lightgray" stroke="black" points="144.75,-272.56 120.75,-272.56 120.75,-254.56 144.75,-254.56 144.75,-272.56"/>
<text text-anchor="middle" x="132.75" y="-261.36" font-family="Times New Roman,serif" font-size="9.00">&#45;1</text>
</g>
<!-- &#45;2 -->
<g id="node2" class="node">
<title>&#45;2</title>
<polygon fill="lightgray" stroke="black" points="100.75,-194.14 76.75,-194.14 76.75,-176.14 100.75,-176.14 100.75,-194.14"/>
<text text-anchor="middle" x="88.75" y="-182.94" font-family="Times New Roman,serif" font-size="9.00">&#45;2</text>
</g>
<!-- 0 -->
<g id="node12" class="node">
<title>0</title>
<ellipse fill="lightblue" stroke="black" cx="120.75" cy="-103.18" rx="14.7" ry="14.7"/>
<text text-anchor="middle" x="120.75" y="-100.98" font-family="Times New Roman,serif" font-size="9.00">0</text>
</g>
<!-- &#45;2&#45;&gt;0 -->
<g id="edge1" class="edge">
<title>&#45;2&#45;&gt;0</title>
<path fill="none" stroke="red" stroke-width="0.19" stroke-dasharray="1,5" d="M92.05,-175.88C96.65,-164.38 105.17,-143.11 111.73,-126.71"/>
<polygon fill="red" stroke="red" stroke-width="0.19" points="115.05,-127.84 115.51,-117.26 108.55,-125.24 115.05,-127.84"/>
</g>
<!-- &#45;3 -->
<g id="node3" class="node">
<title>&#45;3</title>
<polygon fill="lightgray" stroke="black" points="488.75,-272.56 464.75,-272.56 464.75,-254.56 488.75,-254.56 488.75,-272.56"/>
<text text-anchor="middle" x="476.75" y="-261.36" font-family="Times New Roman,serif" font-size="9.00">&#45;3</text>
</g>
<!-- 2 -->
<g id="node14" class="node">
<title>2</title>
<ellipse fill="lightblue" stroke="black" cx="503.75" cy="-185.14" rx="14.7" ry="14.7"/>
<text text-anchor="middle" x="503.75" y="-182.94" font-family="Times New Roman,serif" font-size="9.00">2</text>
</g>
<!-- &#45;3&#45;&gt;2 -->
<g id="edge2" class="edge">
<title>&#45;3&#45;&gt;2</title>
<path fill="none" stroke="red" stroke-width="0.13" stroke-dasharray="1,5" d="M479.64,-254.38C483.42,-243.68 490.2,-224.5 495.61,-209.19"/>
<polygon fill="red" stroke="red" stroke-width="0.13" points="499.05,-209.95 499.08,-199.36 492.45,-207.62 499.05,-209.95"/>
</g>
<!-- 3 -->
<g id="node15" class="node">
<title>3</title>
<ellipse fill="lightblue" stroke="black" cx="551.75" cy="-185.14" rx="14.7" ry="14.7"/>
<text text-anchor="middle" x="551.75" y="-182.94" font-family="Times New Roman,serif" font-size="9.00">3</text>
</g>
<!-- &#45;3&#45;&gt;3 -->
<g id="edge22" class="edge">
<title>&#45;3&#45;&gt;3</title>
<path fill="none" stroke="green" stroke-width="0.6" d="M484.78,-254.38C496.6,-242.34 518.97,-219.54 534.59,-203.62"/>
<polygon fill="green" stroke="green" stroke-width="0.6" points="537.14,-206.02 541.64,-196.43 532.14,-201.12 537.14,-206.02"/>
</g>
<!-- 775 -->
<g id="node19" class="node">
<title>775</title>
<ellipse fill="white" stroke="black" cx="177.75" cy="-185.14" rx="21.43" ry="21.43"/>
<text text-anchor="middle" x="177.75" y="-182.94" font-family="Times New Roman,serif" font-size="9.00">775</text>
</g>
<!-- &#45;3&#45;&gt;775 -->
<g id="edge8" class="edge">
<title>&#45;3&#45;&gt;775</title>
<path fill="none" stroke="red" stroke-width="0.48" stroke-dasharray="1,5" d="M464.73,-261.71C426,-258.6 301.59,-245.97 207.75,-206.35 206.16,-205.68 204.56,-204.92 202.98,-204.1"/>
<polygon fill="red" stroke="red" stroke-width="0.48" points="204.61,-200.99 194.23,-198.89 201.04,-207.01 204.61,-200.99"/>
</g>
<!-- 854 -->
<g id="node23" class="node">
<title>854</title>
<ellipse fill="white" stroke="black" cx="449.75" cy="-185.14" rx="21.43" ry="21.43"/>
<text text-anchor="middle" x="449.75" y="-182.94" font-family="Times New Roman,serif" font-size="9.00">854</text>
</g>
<!-- &#45;3&#45;&gt;854 -->
<g id="edge9" class="edge">
<title>&#45;3&#45;&gt;854</title>
<path fill="none" stroke="red" stroke-width="0.44" d="M473.86,-254.38C470.55,-245.03 464.95,-229.18 459.98,-215.11"/>
<polygon fill="red" stroke="red" stroke-width="0.44" points="463.15,-213.56 456.52,-205.29 456.55,-215.89 463.15,-213.56"/>
</g>
<!-- &#45;4 -->
<g id="node4" class="node">
<title>&#45;4</title>
<polygon fill="lightgray" stroke="black" points="372.75,-194.14 348.75,-194.14 348.75,-176.14 372.75,-176.14 372.75,-194.14"/>
<text text-anchor="middle" x="360.75" y="-182.94" font-family="Times New Roman,serif" font-size="9.00">&#45;4</text>
</g>
<!-- 1 -->
<g id="node13" class="node">
<title>1</title>
<ellipse fill="lightblue" stroke="black" cx="274.75" cy="-103.18" rx="14.7" ry="14.7"/>
<text text-anchor="middle" x="274.75" y="-100.98" font-family="Times New Roman,serif" font-size="9.00">1</text>
</g>
<!-- &#45;4&#45;&gt;1 -->
<g id="edge26" class="edge">
<title>&#45;4&#45;&gt;1</title>
<path fill="none" stroke="red" stroke-width="0.23" d="M352.21,-175.83C348.41,-172.16 343.88,-167.81 339.75,-163.92 324.03,-149.14 305.94,-132.55 292.85,-120.61"/>
<polygon fill="red" stroke="red" stroke-width="0.23" points="295.15,-117.97 285.4,-113.83 290.44,-123.15 295.15,-117.97"/>
</g>
<!-- 1409 -->
<g id="node20" class="node">
<title>1409</title>
<ellipse fill="white" stroke="black" cx="370.75" cy="-103.18" rx="25" ry="25"/>
<text text-anchor="middle" x="370.75" y="-100.98" font-family="Times New Roman,serif" font-size="9.00">1409</text>
</g>
<!-- &#45;4&#45;&gt;1409 -->
<g id="edge25" class="edge">
<title>&#45;4&#45;&gt;1409</title>
<path fill="none" stroke="green" stroke-width="0.2" d="M361.78,-175.88C362.9,-166.91 364.77,-152.01 366.51,-138.1"/>
<polygon fill="green" stroke="green" stroke-width="0.2" points="370.03,-138.13 367.8,-127.77 363.08,-137.26 370.03,-138.13"/>
</g>
<!-- &#45;5 -->
<g id="node5" class="node">
<title>&#45;5</title>
<polygon fill="lightgray" stroke="black" points="605.75,-272.56 581.75,-272.56 581.75,-254.56 605.75,-254.56 605.75,-272.56"/>
<text text-anchor="middle" x="593.75" y="-261.36" font-family="Times New Roman,serif" font-size="9.00">&#45;5</text>
</g>
<!-- &#45;6 -->
<g id="node6" class="node">
<title>&#45;6</title>
<polygon fill="lightgray" stroke="black" points="330.75,-194.14 306.75,-194.14 306.75,-176.14 330.75,-176.14 330.75,-194.14"/>
<text text-anchor="middle" x="318.75" y="-182.94" font-family="Times New Roman,serif" font-size="9.00">&#45;6</text>
</g>
<!-- &#45;6&#45;&gt;1 -->
<g id="edge5" class="edge">
<title>&#45;6&#45;&gt;1</title>
<path fill="none" stroke="green" stroke-width="0.28" d="M314.21,-175.88C307.71,-164.07 295.54,-141.96 286.43,-125.4"/>
<polygon fill="green" stroke="green" stroke-width="0.28" points="289.37,-123.48 281.48,-116.41 283.24,-126.86 289.37,-123.48"/>
</g>
<!-- 610 -->
<g id="node16" class="node">
<title>610</title>
<ellipse fill="white" stroke="black" cx="274.75" cy="-21.21" rx="21.43" ry="21.43"/>
<text text-anchor="middle" x="274.75" y="-19.01" font-family="Times New Roman,serif" font-size="9.00">610</text>
</g>
<!-- &#45;6&#45;&gt;610 -->
<g id="edge24" class="edge">
<title>&#45;6&#45;&gt;610</title>
<path fill="none" stroke="green" stroke-width="0.11" d="M317.82,-176.04C315.65,-158.14 309.56,-113.99 298.75,-78.43 295.85,-68.88 291.84,-58.77 287.93,-49.79"/>
<polygon fill="green" stroke="green" stroke-width="0.11" points="291.08,-48.26 283.78,-40.57 284.7,-51.13 291.08,-48.26"/>
</g>
<!-- &#45;7 -->
<g id="node7" class="node">
<title>&#45;7</title>
<polygon fill="lightgray" stroke="black" points="240.75,-194.14 216.75,-194.14 216.75,-176.14 240.75,-176.14 240.75,-194.14"/>
<text text-anchor="middle" x="228.75" y="-182.94" font-family="Times New Roman,serif" font-size="9.00">&#45;7</text>
</g>
<!-- &#45;7&#45;&gt;1 -->
<g id="edge14" class="edge">
<title>&#45;7&#45;&gt;1</title>
<path fill="none" stroke="green" stroke-width="0.17" d="M233.5,-175.88C240.29,-164.07 253.01,-141.96 262.54,-125.4"/>
<polygon fill="green" stroke="green" stroke-width="0.17" points="265.76,-126.82 267.71,-116.41 259.69,-123.33 265.76,-126.82"/>
</g>
<!-- &#45;7&#45;&gt;610 -->
<g id="edge7" class="edge">
<title>&#45;7&#45;&gt;610</title>
<path fill="none" stroke="green" stroke-width="0.11" stroke-dasharray="1,5" d="M229.87,-176.04C232.48,-158.15 239.57,-114.02 250.75,-78.43 253.74,-68.91 257.77,-58.8 261.67,-49.82"/>
<polygon fill="green" stroke="green" stroke-width="0.11" points="264.91,-51.16 265.8,-40.6 258.52,-48.3 264.91,-51.16"/>
</g>
<!-- 1222 -->
<g id="node18" class="node">
<title>1222</title>
<ellipse fill="white" stroke="black" cx="178.75" cy="-103.18" rx="25" ry="25"/>
<text text-anchor="middle" x="178.75" y="-100.98" font-family="Times New Roman,serif" font-size="9.00">1222</text>
</g>
<!-- &#45;7&#45;&gt;1222 -->
<g id="edge12" class="edge">
<title>&#45;7&#45;&gt;1222</title>
<path fill="none" stroke="red" stroke-width="0.71" d="M223.59,-175.88C217.33,-165.87 206.44,-148.47 196.97,-133.31"/>
<polygon fill="red" stroke="red" stroke-width="0.71" points="199.86,-131.34 191.59,-124.72 193.93,-135.05 199.86,-131.34"/>
</g>
<!-- &#45;8 -->
<g id="node8" class="node">
<title>&#45;8</title>
<polygon fill="lightgray" stroke="black" points="58.75,-194.14 34.75,-194.14 34.75,-176.14 58.75,-176.14 58.75,-194.14"/>
<text text-anchor="middle" x="46.75" y="-182.94" font-family="Times New Roman,serif" font-size="9.00">&#45;8</text>
</g>
<!-- &#45;8&#45;&gt;0 -->
<g id="edge6" class="edge">
<title>&#45;8&#45;&gt;0</title>
<path fill="none" stroke="red" stroke-width="0.16" d="M54.39,-175.88C66,-163.33 88.39,-139.14 103.93,-122.35"/>
<polygon fill="red" stroke="red" stroke-width="0.16" points="106.71,-124.5 110.94,-114.78 101.57,-119.74 106.71,-124.5"/>
</g>
<!-- &#45;8&#45;&gt;610 -->
<g id="edge17" class="edge">
<title>&#45;8&#45;&gt;610</title>
<path fill="none" stroke="red" stroke-width="0.17" stroke-dasharray="1,5" d="M48.3,-175.9C52.45,-156.12 65.7,-105.52 96.75,-78.43 138.71,-41.81 204.54,-29.02 243.29,-24.57"/>
<polygon fill="red" stroke="red" stroke-width="0.17" points="243.87,-28.03 253.46,-23.53 243.15,-21.07 243.87,-28.03"/>
</g>
<!-- 1092 -->
<g id="node17" class="node">
<title>1092</title>
<ellipse fill="white" stroke="black" cx="24.75" cy="-103.18" rx="25" ry="25"/>
<text text-anchor="middle" x="24.75" y="-100.98" font-family="Times New Roman,serif" font-size="9.00">1092</text>
</g>
<!-- &#45;8&#45;&gt;1092 -->
<g id="edge20" class="edge">
<title>&#45;8&#45;&gt;1092</title>
<path fill="none" stroke="green" stroke-width="0.17" d="M44.48,-175.88C41.97,-166.76 37.77,-151.5 33.89,-137.39"/>
<polygon fill="green" stroke="green" stroke-width="0.17" points="37.17,-136.14 31.15,-127.43 30.42,-138 37.17,-136.14"/>
</g>
<!-- &#45;9 -->
<g id="node9" class="node">
<title>&#45;9</title>
<polygon fill="lightgray" stroke="black" points="563.75,-272.56 539.75,-272.56 539.75,-254.56 563.75,-254.56 563.75,-272.56"/>
<text text-anchor="middle" x="551.75" y="-261.36" font-family="Times New Roman,serif" font-size="9.00">&#45;9</text>
</g>
<!-- &#45;9&#45;&gt;3 -->
<g id="edge3" class="edge">
<title>&#45;9&#45;&gt;3</title>
<path fill="none" stroke="green" stroke-width="1.1" d="M551.75,-254.38C551.75,-243.97 551.75,-225.53 551.75,-210.43"/>
<polygon fill="green" stroke="green" stroke-width="1.1" points="555.25,-210.2 551.75,-200.2 548.25,-210.2 555.25,-210.2"/>
</g>
<!-- &#45;10 -->
<g id="node10" class="node">
<title>&#45;10</title>
<polygon fill="lightgray" stroke="black" points="192.25,-272.56 163.25,-272.56 163.25,-254.56 192.25,-254.56 192.25,-272.56"/>
<text text-anchor="middle" x="177.75" y="-261.36" font-family="Times New Roman,serif" font-size="9.00">&#45;10</text>
</g>
<!-- &#45;10&#45;&gt;0 -->
<g id="edge10" class="edge">
<title>&#45;10&#45;&gt;0</title>
<path fill="none" stroke="green" stroke-width="1.44" d="M172.65,-254.47C166.12,-243.8 154.79,-224.27 147.75,-206.35 137.52,-180.32 129.9,-149.06 125.41,-128.03"/>
<polygon fill="green" stroke="green" stroke-width="1.44" points="128.8,-127.13 123.35,-118.05 121.94,-128.55 128.8,-127.13"/>
</g>
<!-- &#45;10&#45;&gt;775 -->
<g id="edge11" class="edge">
<title>&#45;10&#45;&gt;775</title>
<path fill="none" stroke="red" stroke-width="0.28" d="M177.75,-254.38C177.75,-245.36 177.75,-230.31 177.75,-216.63"/>
<polygon fill="red" stroke="red" stroke-width="0.28" points="181.25,-216.56 177.75,-206.56 174.25,-216.56 181.25,-216.56"/>
</g>
<!-- 1237 -->
<g id="node22" class="node">
<title>1237</title>
<ellipse fill="white" stroke="black" cx="469.75" cy="-103.18" rx="25" ry="25"/>
<text text-anchor="middle" x="469.75" y="-100.98" font-family="Times New Roman,serif" font-size="9.00">1237</text>
</g>
<!-- &#45;10&#45;&gt;1237 -->
<g id="edge27" class="edge">
<title>&#45;10&#45;&gt;1237</title>
<path fill="none" stroke="green" stroke-width="0.4" d="M192.26,-261.46C227.38,-258.21 318.74,-246.24 381.75,-206.35 385.93,-203.7 422.98,-159.97 447.66,-130.59"/>
<polygon fill="green" stroke="green" stroke-width="0.4" points="450.51,-132.64 454.25,-122.73 445.14,-128.14 450.51,-132.64"/>
</g>
<!-- &#45;11 -->
<g id="node11" class="node">
<title>&#45;11</title>
<polygon fill="lightgray" stroke="black" points="288.25,-194.14 259.25,-194.14 259.25,-176.14 288.25,-176.14 288.25,-194.14"/>
<text text-anchor="middle" x="273.75" y="-182.94" font-family="Times New Roman,serif" font-size="9.00">&#45;11</text>
</g>
<!-- &#45;11&#45;&gt;1 -->
<g id="edge4" class="edge">
<title>&#45;11&#45;&gt;1</title>
<path fill="none" stroke="green" stroke-width="2.7" d="M273.85,-175.88C273.99,-164.79 274.24,-144.62 274.44,-128.49"/>
<polygon fill="green" stroke="green" stroke-width="2.7" points="277.95,-128.17 274.57,-118.13 270.95,-128.08 277.95,-128.17"/>
</g>
<!-- 2&#45;&gt;1237 -->
<g id="edge21" class="edge">
<title>2&#45;&gt;1237</title>
<path fill="none" stroke="red" stroke-width="0.35" d="M498.29,-171.29C494.19,-161.65 488.39,-148.03 483.1,-135.57"/>
<polygon fill="red" stroke="red" stroke-width="0.35" points="486.31,-134.19 479.18,-126.36 479.87,-136.93 486.31,-134.19"/>
</g>
<!-- 3&#45;&gt;1237 -->
<g id="edge18" class="edge">
<title>3&#45;&gt;1237</title>
<path fill="none" stroke="green" stroke-width="0.42" stroke-dasharray="1,5" d="M541.36,-174.01C529.66,-162.6 510.23,-143.65 494.55,-128.36"/>
<polygon fill="green" stroke="green" stroke-width="0.42" points="496.81,-125.68 487.21,-121.2 491.93,-130.69 496.81,-125.68"/>
</g>
<!-- 1222&#45;&gt;610 -->
<g id="edge13" class="edge">
<title>1222&#45;&gt;610</title>
<path fill="none" stroke="green" stroke-width="0.38" d="M197.72,-86.38C212.88,-73.74 234.25,-55.95 250.63,-42.3"/>
<polygon fill="green" stroke="green" stroke-width="0.38" points="253.25,-44.68 258.69,-35.59 248.77,-39.3 253.25,-44.68"/>
</g>
<!-- 775&#45;&gt;0 -->
<g id="edge19" class="edge">
<title>775&#45;&gt;0</title>
<path fill="none" stroke="green" stroke-width="0.37" d="M165.66,-167.18C156.74,-154.66 144.56,-137.58 135.14,-124.36"/>
<polygon fill="green" stroke="green" stroke-width="0.37" points="137.78,-122.04 129.13,-115.93 132.08,-126.11 137.78,-122.04"/>
</g>
<!-- 775&#45;&gt;1 -->
<g id="edge16" class="edge">
<title>775&#45;&gt;1</title>
<path fill="none" stroke="green" stroke-width="0.76" d="M193.77,-170.93C210.69,-156.98 237.38,-134.98 255.46,-120.08"/>
<polygon fill="green" stroke="green" stroke-width="0.76" points="258.06,-122.47 263.55,-113.4 253.61,-117.06 258.06,-122.47"/>
</g>
<!-- 1409&#45;&gt;610 -->
<g id="edge23" class="edge">
<title>1409&#45;&gt;610</title>
<path fill="none" stroke="red" stroke-width="0.21" d="M351.78,-86.38C336.61,-73.74 315.25,-55.95 298.86,-42.3"/>
<polygon fill="red" stroke="red" stroke-width="0.21" points="300.73,-39.3 290.81,-35.59 296.25,-44.68 300.73,-39.3"/>
</g>
<!-- 915 -->
<g id="node21" class="node">
<title>915</title>
<ellipse fill="white" stroke="black" cx="644.75" cy="-263.56" rx="21.43" ry="21.43"/>
<text text-anchor="middle" x="644.75" y="-261.36" font-family="Times New Roman,serif" font-size="9.00">915</text>
</g>
<!-- 1237&#45;&gt;610 -->
<g id="edge15" class="edge">
<title>1237&#45;&gt;610</title>
<path fill="none" stroke="red" stroke-width="0.64" d="M447,-92.85C411.42,-78.26 342.64,-50.05 303.62,-34.05"/>
<polygon fill="red" stroke="red" stroke-width="0.64" points="304.73,-30.72 294.15,-30.17 302.07,-37.2 304.73,-30.72"/>
</g>
</g>
</svg>
