<?xml version="1.0" encoding="UTF-8" standalone="no"?>
<!DOCTYPE svg PUBLIC "-//W3C//DTD SVG 1.1//EN"
 "http://www.w3.org/Graphics/SVG/1.1/DTD/svg11.dtd">
<!-- Generated by graphviz version 2.47.1 (20210417.1919)
 -->
<!-- Pages: 1 -->
<svg width="464pt" height="92pt"
 viewBox="0.00 0.00 464.00 91.70" xmlns="http://www.w3.org/2000/svg" xmlns:xlink="http://www.w3.org/1999/xlink">
<g id="graph0" class="graph" transform="scale(1 1) rotate(0) translate(4 87.7)">
<polygon fill="white" stroke="transparent" points="-4,4 -4,-87.7 460,-87.7 460,4 -4,4"/>
<!-- &#45;1 -->
<g id="node1" class="node">
<title>&#45;1</title>
<polygon fill="lightgray" stroke="black" points="24,-83.7 0,-83.7 0,-65.7 24,-65.7 24,-83.7"/>
<text text-anchor="middle" x="12" y="-72.5" font-family="Times New Roman,serif" font-size="9.00">&#45;1</text>
</g>
<!-- 0 -->
<g id="node12" class="node">
<title>0</title>
<ellipse fill="lightblue" stroke="black" cx="138" cy="-14.85" rx="14.7" ry="14.7"/>
<text text-anchor="middle" x="138" y="-12.65" font-family="Times New Roman,serif" font-size="9.00">0</text>
</g>
<!-- &#45;1&#45;&gt;0 -->
<g id="edge1" class="edge">
<title>&#45;1&#45;&gt;0</title>
<path fill="none" stroke="red" stroke-width="3.08" d="M24.08,-68.15C45.05,-58.52 88.52,-38.57 115.28,-26.28"/>
<polygon fill="red" stroke="red" stroke-width="3.08" points="117.01,-29.34 124.64,-21.99 114.09,-22.98 117.01,-29.34"/>
</g>
<!-- 1 -->
<g id="node13" class="node">
<title>1</title>
<ellipse fill="lightblue" stroke="black" cx="186" cy="-14.85" rx="14.7" ry="14.7"/>
<text text-anchor="middle" x="186" y="-12.65" font-family="Times New Roman,serif" font-size="9.00">1</text>
</g>
<!-- &#45;1&#45;&gt;1 -->
<g id="edge2" class="edge">
<title>&#45;1&#45;&gt;1</title>
<path fill="none" stroke="red" stroke-width="0.92" d="M24.37,-68.77C27.19,-67.71 30.18,-66.63 33,-65.7 89.54,-47.08 107.12,-52.76 162,-29.7 162.85,-29.34 163.71,-28.96 164.58,-28.55"/>
<polygon fill="red" stroke="red" stroke-width="0.92" points="166.39,-31.56 173.6,-23.8 163.12,-25.37 166.39,-31.56"/>
</g>
<!-- &#45;2 -->
<g id="node2" class="node">
<title>&#45;2</title>
<polygon fill="lightgray" stroke="black" points="66,-83.7 42,-83.7 42,-65.7 66,-65.7 66,-83.7"/>
<text text-anchor="middle" x="54" y="-72.5" font-family="Times New Roman,serif" font-size="9.00">&#45;2</text>
</g>
<!-- &#45;2&#45;&gt;0 -->
<g id="edge3" class="edge">
<title>&#45;2&#45;&gt;0</title>
<path fill="none" stroke="red" stroke-width="0.28" d="M65.68,-65.65C79.14,-56.38 101.51,-40.98 117.81,-29.75"/>
<polygon fill="red" stroke="red" stroke-width="0.28" points="119.9,-32.57 126.15,-24.01 115.93,-26.8 119.9,-32.57"/>
</g>
<!-- &#45;2&#45;&gt;1 -->
<g id="edge4" class="edge">
<title>&#45;2&#45;&gt;1</title>
<path fill="none" stroke="red" stroke-width="3.03" d="M66.08,-69.02C90.34,-59.58 144.18,-38.42 162,-29.7 162.83,-29.29 163.67,-28.87 164.52,-28.43"/>
<polygon fill="red" stroke="red" stroke-width="3.03" points="166.39,-31.39 173.47,-23.51 163.02,-25.26 166.39,-31.39"/>
</g>
<!-- 2 -->
<g id="node14" class="node">
<title>2</title>
<ellipse fill="lightblue" stroke="black" cx="252" cy="-14.85" rx="14.7" ry="14.7"/>
<text text-anchor="middle" x="252" y="-12.65" font-family="Times New Roman,serif" font-size="9.00">2</text>
</g>
<!-- &#45;2&#45;&gt;2 -->
<g id="edge5" class="edge">
<title>&#45;2&#45;&gt;2</title>
<path fill="none" stroke="red" stroke-width="1.71" d="M66.04,-69.11C69.26,-67.94 72.74,-66.73 76,-65.7 134.81,-47.14 150.92,-47.36 210,-29.7 216.03,-27.9 222.51,-25.83 228.53,-23.85"/>
<polygon fill="red" stroke="red" stroke-width="1.71" points="229.69,-27.15 238.06,-20.66 227.47,-20.51 229.69,-27.15"/>
</g>
<!-- &#45;3 -->
<g id="node3" class="node">
<title>&#45;3</title>
<polygon fill="lightgray" stroke="black" points="456,-83.7 432,-83.7 432,-65.7 456,-65.7 456,-83.7"/>
<text text-anchor="middle" x="444" y="-72.5" font-family="Times New Roman,serif" font-size="9.00">&#45;3</text>
</g>
<!-- &#45;3&#45;&gt;2 -->
<g id="edge6" class="edge">
<title>&#45;3&#45;&gt;2</title>
<path fill="none" stroke="green" stroke-width="1.19" d="M431.65,-68.7C428.83,-67.64 425.83,-66.58 423,-65.7 358.78,-45.69 338.42,-54.76 276,-29.7 275.14,-29.35 274.27,-28.98 273.41,-28.59"/>
<polygon fill="green" stroke="green" stroke-width="1.19" points="274.85,-25.4 264.37,-23.88 271.62,-31.6 274.85,-25.4"/>
</g>
<!-- 3 -->
<g id="node15" class="node">
<title>3</title>
<ellipse fill="lightblue" stroke="black" cx="300" cy="-14.85" rx="14.7" ry="14.7"/>
<text text-anchor="middle" x="300" y="-12.65" font-family="Times New Roman,serif" font-size="9.00">3</text>
</g>
<!-- &#45;3&#45;&gt;3 -->
<g id="edge7" class="edge">
<title>&#45;3&#45;&gt;3</title>
<path fill="none" stroke="red" stroke-width="0.78" d="M431.72,-68.77C407.65,-59.09 353.9,-37.5 323.02,-25.1"/>
<polygon fill="red" stroke="red" stroke-width="0.78" points="324.08,-21.75 313.49,-21.27 321.47,-28.25 324.08,-21.75"/>
</g>
<!-- &#45;4 -->
<g id="node4" class="node">
<title>&#45;4</title>
<polygon fill="lightgray" stroke="black" points="156,-83.7 132,-83.7 132,-65.7 156,-65.7 156,-83.7"/>
<text text-anchor="middle" x="144" y="-72.5" font-family="Times New Roman,serif" font-size="9.00">&#45;4</text>
</g>
<!-- &#45;4&#45;&gt;0 -->
<g id="edge8" class="edge">
<title>&#45;4&#45;&gt;0</title>
<path fill="none" stroke="green" stroke-width="1.71" d="M143.17,-65.65C142.48,-59.05 141.47,-49.33 140.53,-40.23"/>
<polygon fill="green" stroke="green" stroke-width="1.71" points="143.99,-39.64 139.47,-30.06 137.02,-40.36 143.99,-39.64"/>
</g>
<!-- &#45;4&#45;&gt;1 -->
<g id="edge9" class="edge">
<title>&#45;4&#45;&gt;1</title>
<path fill="none" stroke="red" stroke-width="4.3" d="M149.84,-65.65C155.47,-57.89 164.23,-45.84 171.71,-35.53"/>
<polygon fill="red" stroke="red" stroke-width="4.3" points="174.77,-37.72 177.6,-27.42 168.68,-33.3 174.77,-37.72"/>
</g>
<!-- &#45;4&#45;&gt;2 -->
<g id="edge10" class="edge">
<title>&#45;4&#45;&gt;2</title>
<path fill="none" stroke="red" stroke-width="2.64" stroke-dasharray="1,5" d="M156.39,-67.06C174.34,-57.45 207.87,-39.49 230.06,-27.6"/>
<polygon fill="red" stroke="red" stroke-width="2.64" points="231.92,-30.57 239.09,-22.77 228.62,-24.4 231.92,-30.57"/>
</g>
<!-- &#45;4&#45;&gt;3 -->
<g id="edge11" class="edge">
<title>&#45;4&#45;&gt;3</title>
<path fill="none" stroke="red" stroke-width="1.34" stroke-dasharray="1,5" d="M156.4,-68.86C159.22,-67.79 162.2,-66.68 165,-65.7 213.91,-48.46 228.61,-50.78 276,-29.7 276.85,-29.32 277.7,-28.92 278.56,-28.51"/>
<polygon fill="red" stroke="red" stroke-width="1.34" points="280.39,-31.5 287.56,-23.69 277.09,-25.33 280.39,-31.5"/>
</g>
<!-- &#45;5 -->
<g id="node5" class="node">
<title>&#45;5</title>
<polygon fill="lightgray" stroke="black" points="288,-83.7 264,-83.7 264,-65.7 288,-65.7 288,-83.7"/>
<text text-anchor="middle" x="276" y="-72.5" font-family="Times New Roman,serif" font-size="9.00">&#45;5</text>
</g>
<!-- &#45;5&#45;&gt;0 -->
<g id="edge12" class="edge">
<title>&#45;5&#45;&gt;0</title>
<path fill="none" stroke="red" stroke-width="2.37" d="M263.99,-69.12C235.69,-58.33 166.86,-32.02 162,-29.7 161.16,-29.3 160.32,-28.88 159.47,-28.45"/>
<polygon fill="red" stroke="red" stroke-width="2.37" points="160.96,-25.28 150.51,-23.56 157.61,-31.42 160.96,-25.28"/>
</g>
<!-- &#45;5&#45;&gt;2 -->
<g id="edge13" class="edge">
<title>&#45;5&#45;&gt;2</title>
<path fill="none" stroke="red" stroke-width="0.86" stroke-dasharray="1,5" d="M272.66,-65.65C269.72,-58.56 265.28,-47.87 261.28,-38.21"/>
<polygon fill="red" stroke="red" stroke-width="0.86" points="264.4,-36.61 257.34,-28.71 257.94,-39.29 264.4,-36.61"/>
</g>
<!-- &#45;5&#45;&gt;3 -->
<g id="edge14" class="edge">
<title>&#45;5&#45;&gt;3</title>
<path fill="none" stroke="red" stroke-width="0.49" stroke-dasharray="1,5" d="M279.34,-65.65C282.28,-58.56 286.72,-47.87 290.72,-38.21"/>
<polygon fill="red" stroke="red" stroke-width="0.49" points="294.06,-39.29 294.66,-28.71 287.6,-36.61 294.06,-39.29"/>
</g>
<!-- &#45;6 -->
<g id="node6" class="node">
<title>&#45;6</title>
<polygon fill="lightgray" stroke="black" points="372,-83.7 348,-83.7 348,-65.7 372,-65.7 372,-83.7"/>
<text text-anchor="middle" x="360" y="-72.5" font-family="Times New Roman,serif" font-size="9.00">&#45;6</text>
</g>
<!-- &#45;6&#45;&gt;1 -->
<g id="edge15" class="edge">
<title>&#45;6&#45;&gt;1</title>
<path fill="none" stroke="red" stroke-width="1.1" stroke-dasharray="1,5" d="M347.6,-68.86C344.78,-67.79 341.8,-66.68 339,-65.7 290.09,-48.46 277.29,-45.82 228,-29.7 222.02,-27.74 215.56,-25.62 209.54,-23.63"/>
<polygon fill="red" stroke="red" stroke-width="1.1" points="210.59,-20.29 199.99,-20.48 208.39,-26.94 210.59,-20.29"/>
</g>
<!-- &#45;6&#45;&gt;2 -->
<g id="edge16" class="edge">
<title>&#45;6&#45;&gt;2</title>
<path fill="none" stroke="green" stroke-width="3.21" stroke-dasharray="1,5" d="M347.96,-67.59C331.57,-59.22 301.39,-43.66 276,-29.7 275.19,-29.25 274.36,-28.79 273.53,-28.33"/>
<polygon fill="green" stroke="green" stroke-width="3.21" points="275.07,-25.18 264.65,-23.28 271.61,-31.26 275.07,-25.18"/>
</g>
<!-- &#45;6&#45;&gt;3 -->
<g id="edge17" class="edge">
<title>&#45;6&#45;&gt;3</title>
<path fill="none" stroke="green" stroke-width="2.82" d="M351.66,-65.65C342.87,-57.18 328.76,-43.58 317.51,-32.73"/>
<polygon fill="green" stroke="green" stroke-width="2.82" points="319.91,-30.18 310.28,-25.76 315.05,-35.22 319.91,-30.18"/>
</g>
<!-- &#45;7 -->
<g id="node7" class="node">
<title>&#45;7</title>
<polygon fill="lightgray" stroke="black" points="414,-83.7 390,-83.7 390,-65.7 414,-65.7 414,-83.7"/>
<text text-anchor="middle" x="402" y="-72.5" font-family="Times New Roman,serif" font-size="9.00">&#45;7</text>
</g>
<!-- &#45;7&#45;&gt;2 -->
<g id="edge18" class="edge">
<title>&#45;7&#45;&gt;2</title>
<path fill="none" stroke="red" stroke-width="5.15" d="M389.59,-68.89C386.77,-67.82 383.79,-66.71 381,-65.7 334.61,-48.91 320.91,-50.12 276,-29.7 275.16,-29.32 274.31,-28.91 273.45,-28.49"/>
<polygon fill="red" stroke="red" stroke-width="5.15" points="275.4,-24.43 264.46,-23.65 271.13,-32.36 275.4,-24.43"/>
</g>
<!-- &#45;7&#45;&gt;3 -->
<g id="edge19" class="edge">
<title>&#45;7&#45;&gt;3</title>
<path fill="none" stroke="green" stroke-width="1.12" stroke-dasharray="1,5" d="M389.9,-66.84C373.06,-57.28 342.29,-39.83 321.49,-28.04"/>
<polygon fill="green" stroke="green" stroke-width="1.12" points="323.15,-24.96 312.72,-23.07 319.7,-31.04 323.15,-24.96"/>
</g>
<!-- &#45;8 -->
<g id="node8" class="node">
<title>&#45;8</title>
<polygon fill="lightgray" stroke="black" points="330,-83.7 306,-83.7 306,-65.7 330,-65.7 330,-83.7"/>
<text text-anchor="middle" x="318" y="-72.5" font-family="Times New Roman,serif" font-size="9.00">&#45;8</text>
</g>
<!-- &#45;8&#45;&gt;1 -->
<g id="edge20" class="edge">
<title>&#45;8&#45;&gt;1</title>
<path fill="none" stroke="red" stroke-width="0.47" stroke-dasharray="1,5" d="M305.82,-68.36C283.76,-58.69 236.9,-38.16 208.76,-25.82"/>
<polygon fill="red" stroke="red" stroke-width="0.47" points="209.89,-22.5 199.32,-21.69 207.08,-28.91 209.89,-22.5"/>
</g>
<!-- &#45;8&#45;&gt;2 -->
<g id="edge21" class="edge">
<title>&#45;8&#45;&gt;2</title>
<path fill="none" stroke="green" stroke-width="3.9" d="M308.82,-65.65C298.94,-57 282.97,-42.99 270.47,-32.03"/>
<polygon fill="green" stroke="green" stroke-width="3.9" points="272.68,-29.32 262.85,-25.36 268.07,-34.58 272.68,-29.32"/>
</g>
<!-- &#45;8&#45;&gt;3 -->
<g id="edge22" class="edge">
<title>&#45;8&#45;&gt;3</title>
<path fill="none" stroke="red" stroke-width="1.36" stroke-dasharray="1,5" d="M315.5,-65.65C313.34,-58.72 310.12,-48.37 307.17,-38.89"/>
<polygon fill="red" stroke="red" stroke-width="1.36" points="310.45,-37.67 304.14,-29.16 303.77,-39.75 310.45,-37.67"/>
</g>
<!-- &#45;9 -->
<g id="node9" class="node">
<title>&#45;9</title>
<polygon fill="lightgray" stroke="black" points="198,-83.7 174,-83.7 174,-65.7 198,-65.7 198,-83.7"/>
<text text-anchor="middle" x="186" y="-72.5" font-family="Times New Roman,serif" font-size="9.00">&#45;9</text>
</g>
<!-- &#45;9&#45;&gt;0 -->
<g id="edge23" class="edge">
<title>&#45;9&#45;&gt;0</title>
<path fill="none" stroke="red" stroke-width="0.63" stroke-dasharray="1,5" d="M179.33,-65.65C172.74,-57.72 162.43,-45.29 153.75,-34.83"/>
<polygon fill="red" stroke="red" stroke-width="0.63" points="156.33,-32.46 147.25,-26.99 150.94,-36.93 156.33,-32.46"/>
</g>
<!-- &#45;9&#45;&gt;1 -->
<g id="edge24" class="edge">
<title>&#45;9&#45;&gt;1</title>
<path fill="none" stroke="red" stroke-width="0.28" d="M186,-65.65C186,-59.05 186,-49.33 186,-40.23"/>
<polygon fill="red" stroke="red" stroke-width="0.28" points="189.5,-40.06 186,-30.06 182.5,-40.06 189.5,-40.06"/>
</g>
<!-- &#45;9&#45;&gt;2 -->
<g id="edge25" class="edge">
<title>&#45;9&#45;&gt;2</title>
<path fill="none" stroke="red" stroke-width="2.84" d="M195.18,-65.65C205.06,-57 221.03,-42.99 233.53,-32.03"/>
<polygon fill="red" stroke="red" stroke-width="2.84" points="235.93,-34.58 241.15,-25.36 231.32,-29.32 235.93,-34.58"/>
</g>
<!-- &#45;9&#45;&gt;3 -->
<g id="edge26" class="edge">
<title>&#45;9&#45;&gt;3</title>
<path fill="none" stroke="green" stroke-width="3.19" d="M198.07,-68.12C215.47,-60.01 248.52,-44.32 276,-29.7 276.82,-29.26 277.65,-28.82 278.48,-28.36"/>
<polygon fill="green" stroke="green" stroke-width="3.19" points="280.39,-31.3 287.39,-23.34 276.96,-25.2 280.39,-31.3"/>
</g>
<!-- &#45;10 -->
<g id="node10" class="node">
<title>&#45;10</title>
<polygon fill="lightgray" stroke="black" points="245.5,-83.7 216.5,-83.7 216.5,-65.7 245.5,-65.7 245.5,-83.7"/>
<text text-anchor="middle" x="231" y="-72.5" font-family="Times New Roman,serif" font-size="9.00">&#45;10</text>
</g>
<!-- &#45;10&#45;&gt;0 -->
<g id="edge27" class="edge">
<title>&#45;10&#45;&gt;0</title>
<path fill="none" stroke="green" stroke-width="5.35" d="M218.07,-65.65C202.77,-56.14 177.09,-40.16 158.94,-28.87"/>
<polygon fill="green" stroke="green" stroke-width="5.35" points="161.19,-24.77 150.23,-23.46 156.25,-32.71 161.19,-24.77"/>
</g>
<!-- &#45;10&#45;&gt;1 -->
<g id="edge28" class="edge">
<title>&#45;10&#45;&gt;1</title>
<path fill="none" stroke="red" stroke-width="2.08" stroke-dasharray="1,5" d="M224.74,-65.65C218.63,-57.8 209.09,-45.53 201.01,-35.14"/>
<polygon fill="red" stroke="red" stroke-width="2.08" points="203.57,-32.74 194.67,-26.99 198.05,-37.04 203.57,-32.74"/>
</g>
<!-- &#45;10&#45;&gt;2 -->
<g id="edge29" class="edge">
<title>&#45;10&#45;&gt;2</title>
<path fill="none" stroke="green" stroke-width="2.76" d="M233.92,-65.65C236.46,-58.65 240.28,-48.15 243.75,-38.59"/>
<polygon fill="green" stroke="green" stroke-width="2.76" points="247.05,-39.75 247.17,-29.16 240.47,-37.36 247.05,-39.75"/>
</g>
<!-- &#45;10&#45;&gt;3 -->
<g id="edge30" class="edge">
<title>&#45;10&#45;&gt;3</title>
<path fill="none" stroke="red" stroke-width="1.25" d="M240.59,-65.65C251.04,-56.89 268.02,-42.66 281.15,-31.65"/>
<polygon fill="red" stroke="red" stroke-width="1.25" points="283.71,-34.07 289.12,-24.97 279.21,-28.71 283.71,-34.07"/>
</g>
<!-- &#45;11 -->
<g id="node11" class="node">
<title>&#45;11</title>
<polygon fill="lightgray" stroke="black" points="113.5,-83.7 84.5,-83.7 84.5,-65.7 113.5,-65.7 113.5,-83.7"/>
<text text-anchor="middle" x="99" y="-72.5" font-family="Times New Roman,serif" font-size="9.00">&#45;11</text>
</g>
<!-- &#45;11&#45;&gt;0 -->
<g id="edge31" class="edge">
<title>&#45;11&#45;&gt;0</title>
<path fill="none" stroke="red" stroke-width="0.96" stroke-dasharray="1,5" d="M104.42,-65.65C109.54,-58.07 117.42,-46.37 124.26,-36.22"/>
<polygon fill="red" stroke="red" stroke-width="0.96" points="127.23,-38.09 129.91,-27.84 121.42,-34.18 127.23,-38.09"/>
</g>
<!-- &#45;11&#45;&gt;1 -->
<g id="edge32" class="edge">
<title>&#45;11&#45;&gt;1</title>
<path fill="none" stroke="green" stroke-width="3.64" d="M111.1,-65.65C125.12,-56.33 148.47,-40.8 165.38,-29.56"/>
<polygon fill="green" stroke="green" stroke-width="3.64" points="167.62,-32.28 174.01,-23.82 163.74,-26.45 167.62,-32.28"/>
</g>
<!-- &#45;11&#45;&gt;3 -->
<g id="edge33" class="edge">
<title>&#45;11&#45;&gt;3</title>
<path fill="none" stroke="red" stroke-width="4.72" stroke-dasharray="1,5" d="M113.66,-68.58C116.73,-67.57 119.96,-66.56 123,-65.7 190.21,-46.63 211.05,-55.43 276,-29.7 276.86,-29.36 277.73,-28.99 278.6,-28.6"/>
<polygon fill="red" stroke="red" stroke-width="4.72" points="280.67,-32.17 287.64,-23.9 276.87,-24.85 280.67,-32.17"/>
</g>
</g>
</svg>
