<?xml version="1.0" encoding="UTF-8" standalone="no"?>
<!DOCTYPE svg PUBLIC "-//W3C//DTD SVG 1.1//EN"
 "http://www.w3.org/Graphics/SVG/1.1/DTD/svg11.dtd">
<!-- Generated by graphviz version 2.47.1 (20210417.1919)
 -->
<!-- Pages: 1 -->
<svg width="673pt" height="274pt"
 viewBox="0.00 0.00 673.00 274.01" xmlns="http://www.w3.org/2000/svg" xmlns:xlink="http://www.w3.org/1999/xlink">
<g id="graph0" class="graph" transform="scale(1 1) rotate(0) translate(4 270.01)">
<polygon fill="white" stroke="transparent" points="-4,4 -4,-270.01 669,-270.01 669,4 -4,4"/>
<!-- &#45;1 -->
<g id="node1" class="node">
<title>&#45;1</title>
<polygon fill="lightgray" stroke="black" points="24,-266.01 0,-266.01 0,-248.01 24,-248.01 24,-266.01"/>
<text text-anchor="middle" x="12" y="-254.81" font-family="Times New Roman,serif" font-size="9.00">&#45;1</text>
</g>
<!-- &#45;2 -->
<g id="node2" class="node">
<title>&#45;2</title>
<polygon fill="lightgray" stroke="black" points="665,-102.28 641,-102.28 641,-84.28 665,-84.28 665,-102.28"/>
<text text-anchor="middle" x="653" y="-91.08" font-family="Times New Roman,serif" font-size="9.00">&#45;2</text>
</g>
<!-- 2 -->
<g id="node14" class="node">
<title>2</title>
<ellipse fill="lightblue" stroke="black" cx="311" cy="-14.85" rx="14.7" ry="14.7"/>
<text text-anchor="middle" x="311" y="-12.65" font-family="Times New Roman,serif" font-size="9.00">2</text>
</g>
<!-- &#45;2&#45;&gt;2 -->
<g id="edge1" class="edge">
<title>&#45;2&#45;&gt;2</title>
<path fill="none" stroke="green" stroke-width="0.19" d="M647.17,-83.91C642.45,-77.84 635.26,-69.96 627,-65.7 576.03,-39.39 401.6,-23.09 336.11,-17.77"/>
<polygon fill="green" stroke="green" stroke-width="0.19" points="336.13,-14.26 325.88,-16.95 335.58,-21.23 336.13,-14.26"/>
</g>
<!-- &#45;3 -->
<g id="node3" class="node">
<title>&#45;3</title>
<polygon fill="lightgray" stroke="black" points="323,-266.01 299,-266.01 299,-248.01 323,-248.01 323,-266.01"/>
<text text-anchor="middle" x="311" y="-254.81" font-family="Times New Roman,serif" font-size="9.00">&#45;3</text>
</g>
<!-- 0 -->
<g id="node12" class="node">
<title>0</title>
<ellipse fill="lightblue" stroke="black" cx="249" cy="-184.43" rx="14.7" ry="14.7"/>
<text text-anchor="middle" x="249" y="-182.23" font-family="Times New Roman,serif" font-size="9.00">0</text>
</g>
<!-- &#45;3&#45;&gt;0 -->
<g id="edge2" class="edge">
<title>&#45;3&#45;&gt;0</title>
<path fill="none" stroke="green" stroke-width="0.28" stroke-dasharray="1,5" d="M303.89,-247.91C294.53,-237.26 277.8,-218.21 265.26,-203.94"/>
<polygon fill="green" stroke="green" stroke-width="0.28" points="267.68,-201.39 258.45,-196.19 262.42,-206.01 267.68,-201.39"/>
</g>
<!-- 1 -->
<g id="node13" class="node">
<title>1</title>
<ellipse fill="lightblue" stroke="black" cx="459" cy="-184.43" rx="14.7" ry="14.7"/>
<text text-anchor="middle" x="459" y="-182.23" font-family="Times New Roman,serif" font-size="9.00">1</text>
</g>
<!-- &#45;3&#45;&gt;1 -->
<g id="edge3" class="edge">
<title>&#45;3&#45;&gt;1</title>
<path fill="none" stroke="green" stroke-width="0.31" stroke-dasharray="1,5" d="M323.11,-250.23C347.9,-238.41 404.77,-211.29 436.52,-196.15"/>
<polygon fill="green" stroke="green" stroke-width="0.31" points="438.36,-199.15 445.88,-191.69 435.34,-192.83 438.36,-199.15"/>
</g>
<!-- &#45;3&#45;&gt;2 -->
<g id="edge4" class="edge">
<title>&#45;3&#45;&gt;2</title>
<path fill="none" stroke="red" stroke-width="0.2" stroke-dasharray="1,5" d="M311,-247.74C311,-214.86 311,-92.6 311,-40.08"/>
<polygon fill="red" stroke="red" stroke-width="0.2" points="314.5,-39.99 311,-29.99 307.5,-39.99 314.5,-39.99"/>
</g>
<!-- 3 -->
<g id="node15" class="node">
<title>3</title>
<ellipse fill="lightblue" stroke="black" cx="373" cy="-184.43" rx="14.7" ry="14.7"/>
<text text-anchor="middle" x="373" y="-182.23" font-family="Times New Roman,serif" font-size="9.00">3</text>
</g>
<!-- &#45;3&#45;&gt;3 -->
<g id="edge5" class="edge">
<title>&#45;3&#45;&gt;3</title>
<path fill="none" stroke="green" stroke-width="0.42" stroke-dasharray="1,5" d="M318.11,-247.91C327.47,-237.26 344.2,-218.21 356.74,-203.94"/>
<polygon fill="green" stroke="green" stroke-width="0.42" points="359.58,-206.01 363.55,-196.19 354.32,-201.39 359.58,-206.01"/>
</g>
<!-- &#45;4 -->
<g id="node4" class="node">
<title>&#45;4</title>
<polygon fill="lightgray" stroke="black" points="161,-266.01 137,-266.01 137,-248.01 161,-248.01 161,-266.01"/>
<text text-anchor="middle" x="149" y="-254.81" font-family="Times New Roman,serif" font-size="9.00">&#45;4</text>
</g>
<!-- &#45;4&#45;&gt;1 -->
<g id="edge6" class="edge">
<title>&#45;4&#45;&gt;1</title>
<path fill="none" stroke="green" stroke-width="0.76" d="M161.1,-254.85C197.44,-251.18 308.59,-238.42 397,-212.01 410.54,-207.96 425.09,-201.83 436.69,-196.47"/>
<polygon fill="green" stroke="green" stroke-width="0.76" points="438.49,-199.49 446.02,-192.03 435.49,-193.16 438.49,-199.49"/>
</g>
<!-- &#45;4&#45;&gt;2 -->
<g id="edge7" class="edge">
<title>&#45;4&#45;&gt;2</title>
<path fill="none" stroke="red" stroke-width="0.29" stroke-dasharray="1,5" d="M143.3,-247.72C124.36,-219.09 67.27,-123.01 112,-65.7 133.39,-38.29 237.9,-23.69 286.3,-18.31"/>
<polygon fill="red" stroke="red" stroke-width="0.29" points="286.69,-21.79 296.26,-17.24 285.95,-14.83 286.69,-21.79"/>
</g>
<!-- 26805 -->
<g id="node16" class="node">
<title>26805</title>
<ellipse fill="white" stroke="black" cx="386" cy="-93.28" rx="27.65" ry="27.65"/>
<text text-anchor="middle" x="386" y="-91.08" font-family="Times New Roman,serif" font-size="9.00">26805</text>
</g>
<!-- &#45;4&#45;&gt;26805 -->
<g id="edge32" class="edge">
<title>&#45;4&#45;&gt;26805</title>
<path fill="none" stroke="red" stroke-width="0.26" d="M153.19,-247.87C163.17,-229.22 190.13,-183.02 225,-156.85 262.66,-128.59 314.68,-111.46 349.29,-102.43"/>
<polygon fill="red" stroke="red" stroke-width="0.26" points="350.15,-105.83 358.99,-100 348.44,-99.04 350.15,-105.83"/>
</g>
<!-- 23678 -->
<g id="node18" class="node">
<title>23678</title>
<ellipse fill="white" stroke="black" cx="149" cy="-93.28" rx="27.65" ry="27.65"/>
<text text-anchor="middle" x="149" y="-91.08" font-family="Times New Roman,serif" font-size="9.00">23678</text>
</g>
<!-- &#45;4&#45;&gt;23678 -->
<g id="edge29" class="edge">
<title>&#45;4&#45;&gt;23678</title>
<path fill="none" stroke="red" stroke-width="0.19" stroke-dasharray="1,5" d="M149,-247.76C149,-226.64 149,-169.55 149,-131.26"/>
<polygon fill="red" stroke="red" stroke-width="0.19" points="152.5,-131.01 149,-121.01 145.5,-131.01 152.5,-131.01"/>
</g>
<!-- &#45;5 -->
<g id="node5" class="node">
<title>&#45;5</title>
<polygon fill="lightgray" stroke="black" points="456,-266.01 432,-266.01 432,-248.01 456,-248.01 456,-266.01"/>
<text text-anchor="middle" x="444" y="-254.81" font-family="Times New Roman,serif" font-size="9.00">&#45;5</text>
</g>
<!-- &#45;5&#45;&gt;1 -->
<g id="edge8" class="edge">
<title>&#45;5&#45;&gt;1</title>
<path fill="none" stroke="green" stroke-width="0.42" d="M445.72,-247.91C447.71,-238.54 451.08,-222.68 453.93,-209.28"/>
<polygon fill="green" stroke="green" stroke-width="0.42" points="457.41,-209.75 456.07,-199.24 450.56,-208.29 457.41,-209.75"/>
</g>
<!-- &#45;5&#45;&gt;3 -->
<g id="edge9" class="edge">
<title>&#45;5&#45;&gt;3</title>
<path fill="none" stroke="green" stroke-width="0.16" d="M435.86,-247.91C424.91,-237.04 405.18,-217.42 390.73,-203.05"/>
<polygon fill="green" stroke="green" stroke-width="0.16" points="392.9,-200.27 383.34,-195.71 387.96,-205.24 392.9,-200.27"/>
</g>
<!-- 20090 -->
<g id="node17" class="node">
<title>20090</title>
<ellipse fill="white" stroke="black" cx="519" cy="-184.43" rx="27.65" ry="27.65"/>
<text text-anchor="middle" x="519" y="-182.23" font-family="Times New Roman,serif" font-size="9.00">20090</text>
</g>
<!-- &#45;5&#45;&gt;20090 -->
<g id="edge31" class="edge">
<title>&#45;5&#45;&gt;20090</title>
<path fill="none" stroke="red" stroke-width="0.65" d="M452.6,-247.91C462.15,-238.93 478.03,-223.98 491.87,-210.96"/>
<polygon fill="red" stroke="red" stroke-width="0.65" points="494.41,-213.38 499.29,-203.98 489.61,-208.28 494.41,-213.38"/>
</g>
<!-- &#45;6 -->
<g id="node6" class="node">
<title>&#45;6</title>
<polygon fill="lightgray" stroke="black" points="546,-266.01 522,-266.01 522,-248.01 546,-248.01 546,-266.01"/>
<text text-anchor="middle" x="534" y="-254.81" font-family="Times New Roman,serif" font-size="9.00">&#45;6</text>
</g>
<!-- &#45;6&#45;&gt;1 -->
<g id="edge10" class="edge">
<title>&#45;6&#45;&gt;1</title>
<path fill="none" stroke="green" stroke-width="0.18" d="M523.22,-247.7C512.4,-239.17 495.45,-225.31 482,-212.01 479.57,-209.6 477.1,-206.98 474.73,-204.35"/>
<polygon fill="green" stroke="green" stroke-width="0.18" points="477.23,-201.89 468.03,-196.64 471.95,-206.48 477.23,-201.89"/>
</g>
<!-- &#45;6&#45;&gt;2 -->
<g id="edge11" class="edge">
<title>&#45;6&#45;&gt;2</title>
<path fill="none" stroke="red" stroke-width="0.19" d="M544.88,-247.99C554.61,-240.08 568.19,-227.03 574,-212.01 582.84,-189.14 581.56,-180.17 574,-156.85 558.58,-109.27 549.39,-93.77 508,-65.7 454.22,-29.22 375.85,-19.43 336.12,-16.81"/>
<polygon fill="red" stroke="red" stroke-width="0.19" points="336.16,-13.3 325.98,-16.24 335.77,-20.29 336.16,-13.3"/>
</g>
<!-- &#45;6&#45;&gt;20090 -->
<g id="edge28" class="edge">
<title>&#45;6&#45;&gt;20090</title>
<path fill="none" stroke="green" stroke-width="0.25" d="M532.28,-247.91C530.87,-241.29 528.77,-231.41 526.66,-221.46"/>
<polygon fill="green" stroke="green" stroke-width="0.25" points="530.07,-220.66 524.56,-211.6 523.22,-222.11 530.07,-220.66"/>
</g>
<!-- &#45;7 -->
<g id="node7" class="node">
<title>&#45;7</title>
<polygon fill="lightgray" stroke="black" points="413,-266.01 389,-266.01 389,-248.01 413,-248.01 413,-266.01"/>
<text text-anchor="middle" x="401" y="-254.81" font-family="Times New Roman,serif" font-size="9.00">&#45;7</text>
</g>
<!-- &#45;7&#45;&gt;0 -->
<g id="edge12" class="edge">
<title>&#45;7&#45;&gt;0</title>
<path fill="none" stroke="red" stroke-width="0.26" d="M388.82,-250.35C363.28,-238.49 303.82,-210.88 271.27,-195.77"/>
<polygon fill="red" stroke="red" stroke-width="0.26" points="272.64,-192.55 262.1,-191.51 269.7,-198.9 272.64,-192.55"/>
</g>
<!-- &#45;7&#45;&gt;2 -->
<g id="edge13" class="edge">
<title>&#45;7&#45;&gt;2</title>
<path fill="none" stroke="green" stroke-width="0.29" d="M403.37,-247.6C412.36,-214.88 442.93,-96.38 423,-65.7 403.84,-36.21 362.76,-24.02 336.03,-19.08"/>
<polygon fill="green" stroke="green" stroke-width="0.29" points="336.33,-15.59 325.9,-17.43 335.2,-22.49 336.33,-15.59"/>
</g>
<!-- &#45;7&#45;&gt;3 -->
<g id="edge14" class="edge">
<title>&#45;7&#45;&gt;3</title>
<path fill="none" stroke="green" stroke-width="0.59" d="M397.79,-247.91C393.93,-238.18 387.29,-221.45 381.85,-207.75"/>
<polygon fill="green" stroke="green" stroke-width="0.59" points="385.11,-206.45 378.17,-198.45 378.6,-209.04 385.11,-206.45"/>
</g>
<!-- &#45;7&#45;&gt;20090 -->
<g id="edge27" class="edge">
<title>&#45;7&#45;&gt;20090</title>
<path fill="none" stroke="red" stroke-width="0.72" stroke-dasharray="1,5" d="M413.26,-250.12C429.56,-242.14 459.11,-227.13 483,-212.01 485.13,-210.66 487.29,-209.23 489.45,-207.76"/>
<polygon fill="red" stroke="red" stroke-width="0.72" points="491.5,-210.59 497.65,-201.97 487.46,-204.88 491.5,-210.59"/>
</g>
<!-- &#45;8 -->
<g id="node8" class="node">
<title>&#45;8</title>
<polygon fill="lightgray" stroke="black" points="66,-266.01 42,-266.01 42,-248.01 66,-248.01 66,-266.01"/>
<text text-anchor="middle" x="54" y="-254.81" font-family="Times New Roman,serif" font-size="9.00">&#45;8</text>
</g>
<!-- &#45;8&#45;&gt;0 -->
<g id="edge15" class="edge">
<title>&#45;8&#45;&gt;0</title>
<path fill="none" stroke="red" stroke-width="0.69" d="M66.2,-251.59C98.02,-240.07 183.98,-208.96 225.68,-193.87"/>
<polygon fill="red" stroke="red" stroke-width="0.69" points="227.05,-197.1 235.27,-190.4 224.67,-190.51 227.05,-197.1"/>
</g>
<!-- &#45;8&#45;&gt;2 -->
<g id="edge16" class="edge">
<title>&#45;8&#45;&gt;2</title>
<path fill="none" stroke="green" stroke-width="2.21" d="M52.83,-247.75C49.16,-218.4 41,-118.08 92,-65.7 118.86,-38.12 234.57,-23.43 286.09,-18.15"/>
<polygon fill="green" stroke="green" stroke-width="2.21" points="286.45,-21.63 296.06,-17.17 285.76,-14.67 286.45,-21.63"/>
</g>
<!-- &#45;8&#45;&gt;23678 -->
<g id="edge33" class="edge">
<title>&#45;8&#45;&gt;23678</title>
<path fill="none" stroke="green" stroke-width="0.4" stroke-dasharray="1,5" d="M58.84,-247.76C71.83,-225.66 107.96,-164.14 130.35,-126.03"/>
<polygon fill="green" stroke="green" stroke-width="0.4" points="133.4,-127.75 135.44,-117.35 127.36,-124.2 133.4,-127.75"/>
</g>
<!-- &#45;9 -->
<g id="node9" class="node">
<title>&#45;9</title>
<polygon fill="lightgray" stroke="black" points="369,-266.01 345,-266.01 345,-248.01 369,-248.01 369,-266.01"/>
<text text-anchor="middle" x="357" y="-254.81" font-family="Times New Roman,serif" font-size="9.00">&#45;9</text>
</g>
<!-- &#45;9&#45;&gt;0 -->
<g id="edge17" class="edge">
<title>&#45;9&#45;&gt;0</title>
<path fill="none" stroke="green" stroke-width="0.22" d="M344.61,-247.91C326.3,-235.95 291.8,-213.4 269.63,-198.91"/>
<polygon fill="green" stroke="green" stroke-width="0.22" points="271.53,-195.97 261.24,-193.43 267.7,-201.83 271.53,-195.97"/>
</g>
<!-- &#45;9&#45;&gt;1 -->
<g id="edge18" class="edge">
<title>&#45;9&#45;&gt;1</title>
<path fill="none" stroke="red" stroke-width="0.25" d="M368.7,-247.91C385.75,-236.11 417.66,-214.03 438.62,-199.53"/>
<polygon fill="red" stroke="red" stroke-width="0.25" points="440.89,-202.22 447.12,-193.65 436.91,-196.46 440.89,-202.22"/>
</g>
<!-- &#45;9&#45;&gt;2 -->
<g id="edge19" class="edge">
<title>&#45;9&#45;&gt;2</title>
<path fill="none" stroke="red" stroke-width="0.5" stroke-dasharray="1,5" d="M355.42,-247.74C349.1,-214.78 325.59,-92.03 315.57,-39.71"/>
<polygon fill="red" stroke="red" stroke-width="0.5" points="318.97,-38.84 313.65,-29.68 312.09,-40.16 318.97,-38.84"/>
</g>
<!-- &#45;9&#45;&gt;3 -->
<g id="edge20" class="edge">
<title>&#45;9&#45;&gt;3</title>
<path fill="none" stroke="green" stroke-width="2.38" d="M358.84,-247.91C360.97,-238.48 364.6,-222.48 367.65,-209.04"/>
<polygon fill="green" stroke="green" stroke-width="2.38" points="371.13,-209.5 369.93,-198.97 364.31,-207.95 371.13,-209.5"/>
</g>
<!-- &#45;10 -->
<g id="node10" class="node">
<title>&#45;10</title>
<polygon fill="lightgray" stroke="black" points="263.5,-266.01 234.5,-266.01 234.5,-248.01 263.5,-248.01 263.5,-266.01"/>
<text text-anchor="middle" x="249" y="-254.81" font-family="Times New Roman,serif" font-size="9.00">&#45;10</text>
</g>
<!-- &#45;10&#45;&gt;0 -->
<g id="edge21" class="edge">
<title>&#45;10&#45;&gt;0</title>
<path fill="none" stroke="green" stroke-width="3.83" d="M249,-247.91C249,-238.6 249,-222.87 249,-209.53"/>
<polygon fill="green" stroke="green" stroke-width="3.83" points="252.5,-209.5 249,-199.5 245.5,-209.5 252.5,-209.5"/>
</g>
<!-- &#45;10&#45;&gt;2 -->
<g id="edge22" class="edge">
<title>&#45;10&#45;&gt;2</title>
<path fill="none" stroke="green" stroke-width="0.59" stroke-dasharray="1,5" d="M242.86,-247.78C236.95,-239.31 228.44,-225.5 225,-212.01 218.94,-188.25 218.37,-180.45 225,-156.85 238.65,-108.24 274.22,-59.79 295.09,-34.28"/>
<polygon fill="green" stroke="green" stroke-width="0.59" points="297.82,-36.46 301.55,-26.54 292.45,-31.97 297.82,-36.46"/>
</g>
<!-- &#45;10&#45;&gt;3 -->
<g id="edge23" class="edge">
<title>&#45;10&#45;&gt;3</title>
<path fill="none" stroke="green" stroke-width="0.18" d="M263.22,-247.91C284.89,-235.58 326.29,-212.02 351.59,-197.61"/>
<polygon fill="green" stroke="green" stroke-width="0.18" points="353.47,-200.57 360.43,-192.59 350.01,-194.49 353.47,-200.57"/>
</g>
<!-- &#45;11 -->
<g id="node11" class="node">
<title>&#45;11</title>
<polygon fill="lightgray" stroke="black" points="503.5,-266.01 474.5,-266.01 474.5,-248.01 503.5,-248.01 503.5,-266.01"/>
<text text-anchor="middle" x="489" y="-254.81" font-family="Times New Roman,serif" font-size="9.00">&#45;11</text>
</g>
<!-- &#45;11&#45;&gt;1 -->
<g id="edge24" class="edge">
<title>&#45;11&#45;&gt;1</title>
<path fill="none" stroke="green" stroke-width="3.97" d="M485.56,-247.91C481.42,-238.18 474.31,-221.45 468.49,-207.75"/>
<polygon fill="green" stroke="green" stroke-width="3.97" points="471.67,-206.28 464.53,-198.45 465.23,-209.02 471.67,-206.28"/>
</g>
<!-- &#45;11&#45;&gt;2 -->
<g id="edge25" class="edge">
<title>&#45;11&#45;&gt;2</title>
<path fill="none" stroke="green" stroke-width="0.97" d="M503.66,-251.17C519.81,-244.95 544.96,-232.46 556,-212.01 567.64,-190.43 566.71,-178.9 556,-156.85 513.25,-68.9 388.61,-32.43 335.46,-20.6"/>
<polygon fill="green" stroke="green" stroke-width="0.97" points="336.06,-17.14 325.55,-18.49 334.6,-23.99 336.06,-17.14"/>
</g>
<!-- &#45;11&#45;&gt;3 -->
<g id="edge26" class="edge">
<title>&#45;11&#45;&gt;3</title>
<path fill="none" stroke="red" stroke-width="0.61" d="M475.69,-247.91C455.73,-235.76 417.84,-212.71 394.09,-198.26"/>
<polygon fill="red" stroke="red" stroke-width="0.61" points="395.81,-195.21 385.45,-193 392.17,-201.19 395.81,-195.21"/>
</g>
<!-- &#45;11&#45;&gt;20090 -->
<g id="edge36" class="edge">
<title>&#45;11&#45;&gt;20090</title>
<path fill="none" stroke="green" stroke-width="0.32" d="M492.44,-247.91C495.46,-240.8 500.08,-229.94 504.62,-219.27"/>
<polygon fill="green" stroke="green" stroke-width="0.32" points="507.85,-220.6 508.54,-210.03 501.41,-217.86 507.85,-220.6"/>
</g>
<!-- 3&#45;&gt;23678 -->
<g id="edge34" class="edge">
<title>3&#45;&gt;23678</title>
<path fill="none" stroke="red" stroke-width="0.52" d="M359.32,-177.99C324.95,-164.31 234.1,-128.15 183.78,-108.12"/>
<polygon fill="red" stroke="red" stroke-width="0.52" points="184.87,-104.78 174.28,-104.34 182.28,-111.29 184.87,-104.78"/>
</g>
<!-- 20090&#45;&gt;26805 -->
<g id="edge35" class="edge">
<title>20090&#45;&gt;26805</title>
<path fill="none" stroke="red" stroke-width="0.23" d="M497.46,-167.18C492.73,-163.72 487.73,-160.12 483,-156.85 461.5,-142.01 436.75,-126.05 417.63,-113.97"/>
<polygon fill="red" stroke="red" stroke-width="0.23" points="419.33,-110.91 409,-108.54 415.6,-116.83 419.33,-110.91"/>
</g>
<!-- 23678&#45;&gt;2 -->
<g id="edge30" class="edge">
<title>23678&#45;&gt;2</title>
<path fill="none" stroke="red" stroke-width="0.63" stroke-dasharray="1,5" d="M171.82,-77.25C178.23,-73.28 185.29,-69.15 192,-65.7 224.24,-49.11 263.29,-33.57 287.64,-24.38"/>
<polygon fill="red" stroke="red" stroke-width="0.63" points="288.97,-27.62 297.12,-20.85 286.53,-21.06 288.97,-27.62"/>
</g>
</g>
</svg>
