<?xml version="1.0" encoding="UTF-8" standalone="no"?>
<!DOCTYPE svg PUBLIC "-//W3C//DTD SVG 1.1//EN"
 "http://www.w3.org/Graphics/SVG/1.1/DTD/svg11.dtd">
<!-- Generated by graphviz version 2.47.1 (20210417.1919)
 -->
<!-- Pages: 1 -->
<svg width="392pt" height="177pt"
 viewBox="0.00 0.00 392.00 177.20" xmlns="http://www.w3.org/2000/svg" xmlns:xlink="http://www.w3.org/1999/xlink">
<g id="graph0" class="graph" transform="scale(1 1) rotate(0) translate(4 173.2)">
<polygon fill="white" stroke="transparent" points="-4,4 -4,-173.2 388,-173.2 388,4 -4,4"/>
<!-- &#45;1 -->
<g id="node1" class="node">
<title>&#45;1</title>
<polygon fill="lightgray" stroke="black" points="24,-169.2 0,-169.2 0,-151.2 24,-151.2 24,-169.2"/>
<text text-anchor="middle" x="12" y="-158" font-family="Times New Roman,serif" font-size="9.00">&#45;1</text>
</g>
<!-- &#45;2 -->
<g id="node2" class="node">
<title>&#45;2</title>
<polygon fill="lightgray" stroke="black" points="300,-99.45 276,-99.45 276,-81.45 300,-81.45 300,-99.45"/>
<text text-anchor="middle" x="288" y="-88.25" font-family="Times New Roman,serif" font-size="9.00">&#45;2</text>
</g>
<!-- 1 -->
<g id="node13" class="node">
<title>1</title>
<ellipse fill="lightblue" stroke="black" cx="208" cy="-14.85" rx="14.7" ry="14.7"/>
<text text-anchor="middle" x="208" y="-12.65" font-family="Times New Roman,serif" font-size="9.00">1</text>
</g>
<!-- &#45;2&#45;&gt;1 -->
<g id="edge6" class="edge">
<title>&#45;2&#45;&gt;1</title>
<path fill="none" stroke="green" stroke-width="0.26" stroke-dasharray="1,5" d="M279.13,-81.29C266.34,-69.52 242.42,-47.51 225.87,-32.29"/>
<polygon fill="green" stroke="green" stroke-width="0.26" points="228.15,-29.63 218.42,-25.44 223.41,-34.78 228.15,-29.63"/>
</g>
<!-- 3 -->
<g id="node15" class="node">
<title>3</title>
<ellipse fill="lightblue" stroke="black" cx="330" cy="-14.85" rx="14.7" ry="14.7"/>
<text text-anchor="middle" x="330" y="-12.65" font-family="Times New Roman,serif" font-size="9.00">3</text>
</g>
<!-- &#45;2&#45;&gt;3 -->
<g id="edge11" class="edge">
<title>&#45;2&#45;&gt;3</title>
<path fill="none" stroke="green" stroke-width="0.25" d="M292.66,-81.29C298.68,-70.73 309.41,-51.93 317.83,-37.18"/>
<polygon fill="green" stroke="green" stroke-width="0.25" points="321.03,-38.62 322.95,-28.2 314.95,-35.15 321.03,-38.62"/>
</g>
<!-- &#45;3 -->
<g id="node3" class="node">
<title>&#45;3</title>
<polygon fill="lightgray" stroke="black" points="285,-169.2 261,-169.2 261,-151.2 285,-151.2 285,-169.2"/>
<text text-anchor="middle" x="273" y="-158" font-family="Times New Roman,serif" font-size="9.00">&#45;3</text>
</g>
<!-- &#45;4 -->
<g id="node4" class="node">
<title>&#45;4</title>
<polygon fill="lightgray" stroke="black" points="327,-169.2 303,-169.2 303,-151.2 327,-151.2 327,-169.2"/>
<text text-anchor="middle" x="315" y="-158" font-family="Times New Roman,serif" font-size="9.00">&#45;4</text>
</g>
<!-- &#45;5 -->
<g id="node5" class="node">
<title>&#45;5</title>
<polygon fill="lightgray" stroke="black" points="175,-169.2 151,-169.2 151,-151.2 175,-151.2 175,-169.2"/>
<text text-anchor="middle" x="163" y="-158" font-family="Times New Roman,serif" font-size="9.00">&#45;5</text>
</g>
<!-- 2 -->
<g id="node14" class="node">
<title>2</title>
<ellipse fill="lightblue" stroke="black" cx="163" cy="-90.45" rx="14.7" ry="14.7"/>
<text text-anchor="middle" x="163" y="-88.25" font-family="Times New Roman,serif" font-size="9.00">2</text>
</g>
<!-- &#45;5&#45;&gt;2 -->
<g id="edge12" class="edge">
<title>&#45;5&#45;&gt;2</title>
<path fill="none" stroke="green" stroke-width="0.6" d="M163,-151.16C163,-142.43 163,-128.06 163,-115.61"/>
<polygon fill="green" stroke="green" stroke-width="0.6" points="166.5,-115.35 163,-105.35 159.5,-115.35 166.5,-115.35"/>
</g>
<!-- &#45;6 -->
<g id="node6" class="node">
<title>&#45;6</title>
<polygon fill="lightgray" stroke="black" points="130,-169.2 106,-169.2 106,-151.2 130,-151.2 130,-169.2"/>
<text text-anchor="middle" x="118" y="-158" font-family="Times New Roman,serif" font-size="9.00">&#45;6</text>
</g>
<!-- 0 -->
<g id="node12" class="node">
<title>0</title>
<ellipse fill="lightblue" stroke="black" cx="115" cy="-90.45" rx="14.7" ry="14.7"/>
<text text-anchor="middle" x="115" y="-88.25" font-family="Times New Roman,serif" font-size="9.00">0</text>
</g>
<!-- &#45;6&#45;&gt;0 -->
<g id="edge7" class="edge">
<title>&#45;6&#45;&gt;0</title>
<path fill="none" stroke="red" stroke-width="0.2" d="M117.64,-151.16C117.26,-142.43 116.62,-128.06 116.07,-115.61"/>
<polygon fill="red" stroke="red" stroke-width="0.2" points="119.55,-115.19 115.62,-105.35 112.56,-115.5 119.55,-115.19"/>
</g>
<!-- &#45;6&#45;&gt;2 -->
<g id="edge1" class="edge">
<title>&#45;6&#45;&gt;2</title>
<path fill="none" stroke="green" stroke-width="0.42" d="M123.34,-151.16C129.69,-141.59 140.55,-125.25 149.3,-112.08"/>
<polygon fill="green" stroke="green" stroke-width="0.42" points="152.32,-113.86 154.94,-103.59 146.49,-109.98 152.32,-113.86"/>
</g>
<!-- &#45;7 -->
<g id="node7" class="node">
<title>&#45;7</title>
<polygon fill="lightgray" stroke="black" points="384,-99.45 360,-99.45 360,-81.45 384,-81.45 384,-99.45"/>
<text text-anchor="middle" x="372" y="-88.25" font-family="Times New Roman,serif" font-size="9.00">&#45;7</text>
</g>
<!-- &#45;7&#45;&gt;3 -->
<g id="edge10" class="edge">
<title>&#45;7&#45;&gt;3</title>
<path fill="none" stroke="red" stroke-width="0.18" stroke-dasharray="1,5" d="M367.34,-81.29C361.32,-70.73 350.59,-51.93 342.17,-37.18"/>
<polygon fill="red" stroke="red" stroke-width="0.18" points="345.05,-35.15 337.05,-28.2 338.97,-38.62 345.05,-35.15"/>
</g>
<!-- &#45;8 -->
<g id="node8" class="node">
<title>&#45;8</title>
<polygon fill="lightgray" stroke="black" points="220,-99.45 196,-99.45 196,-81.45 220,-81.45 220,-99.45"/>
<text text-anchor="middle" x="208" y="-88.25" font-family="Times New Roman,serif" font-size="9.00">&#45;8</text>
</g>
<!-- &#45;8&#45;&gt;1 -->
<g id="edge9" class="edge">
<title>&#45;8&#45;&gt;1</title>
<path fill="none" stroke="red" stroke-width="0.21" d="M208,-81.29C208,-71.39 208,-54.25 208,-39.99"/>
<polygon fill="red" stroke="red" stroke-width="0.21" points="211.5,-39.82 208,-29.82 204.5,-39.82 211.5,-39.82"/>
</g>
<!-- &#45;9 -->
<g id="node9" class="node">
<title>&#45;9</title>
<polygon fill="lightgray" stroke="black" points="342,-99.45 318,-99.45 318,-81.45 342,-81.45 342,-99.45"/>
<text text-anchor="middle" x="330" y="-88.25" font-family="Times New Roman,serif" font-size="9.00">&#45;9</text>
</g>
<!-- &#45;9&#45;&gt;3 -->
<g id="edge2" class="edge">
<title>&#45;9&#45;&gt;3</title>
<path fill="none" stroke="green" stroke-width="0.96" d="M330,-81.29C330,-71.39 330,-54.25 330,-39.99"/>
<polygon fill="green" stroke="green" stroke-width="0.96" points="333.5,-39.82 330,-29.82 326.5,-39.82 333.5,-39.82"/>
</g>
<!-- &#45;10 -->
<g id="node10" class="node">
<title>&#45;10</title>
<polygon fill="lightgray" stroke="black" points="71.5,-169.2 42.5,-169.2 42.5,-151.2 71.5,-151.2 71.5,-169.2"/>
<text text-anchor="middle" x="57" y="-158" font-family="Times New Roman,serif" font-size="9.00">&#45;10</text>
</g>
<!-- &#45;10&#45;&gt;0 -->
<g id="edge3" class="edge">
<title>&#45;10&#45;&gt;0</title>
<path fill="none" stroke="green" stroke-width="2.49" d="M63.88,-151.16C72.53,-141.06 87.64,-123.41 99.19,-109.91"/>
<polygon fill="green" stroke="green" stroke-width="2.49" points="102,-112.02 105.84,-102.15 96.68,-107.47 102,-112.02"/>
</g>
<!-- &#45;10&#45;&gt;1 -->
<g id="edge4" class="edge">
<title>&#45;10&#45;&gt;1</title>
<path fill="none" stroke="red" stroke-width="0.63" stroke-dasharray="1,5" d="M48.03,-151.13C39.72,-143.01 27.93,-129.63 23,-115.2 15.89,-94.38 9.62,-83.16 23,-65.7 42.48,-40.28 137.33,-24.89 183.14,-18.83"/>
<polygon fill="red" stroke="red" stroke-width="0.63" points="183.67,-22.29 193.15,-17.55 182.78,-15.35 183.67,-22.29"/>
</g>
<!-- 1776 -->
<g id="node16" class="node">
<title>1776</title>
<ellipse fill="white" stroke="black" cx="57" cy="-90.45" rx="25" ry="25"/>
<text text-anchor="middle" x="57" y="-88.25" font-family="Times New Roman,serif" font-size="9.00">1776</text>
</g>
<!-- &#45;10&#45;&gt;1776 -->
<g id="edge13" class="edge">
<title>&#45;10&#45;&gt;1776</title>
<path fill="none" stroke="green" stroke-width="0.41" d="M57,-151.16C57,-144.72 57,-135.23 57,-125.69"/>
<polygon fill="green" stroke="green" stroke-width="0.41" points="60.5,-125.47 57,-115.47 53.5,-125.47 60.5,-125.47"/>
</g>
<!-- &#45;11 -->
<g id="node11" class="node">
<title>&#45;11</title>
<polygon fill="lightgray" stroke="black" points="242.5,-169.2 213.5,-169.2 213.5,-151.2 242.5,-151.2 242.5,-169.2"/>
<text text-anchor="middle" x="228" y="-158" font-family="Times New Roman,serif" font-size="9.00">&#45;11</text>
</g>
<!-- &#45;11&#45;&gt;1 -->
<g id="edge5" class="edge">
<title>&#45;11&#45;&gt;1</title>
<path fill="none" stroke="green" stroke-width="2.44" d="M229.21,-151.09C231.41,-134.73 235.27,-96.73 229,-65.7 227.05,-56.04 223.17,-45.92 219.27,-37.35"/>
<polygon fill="green" stroke="green" stroke-width="2.44" points="222.3,-35.58 214.8,-28.11 216,-38.63 222.3,-35.58"/>
</g>
<!-- &#45;11&#45;&gt;2 -->
<g id="edge8" class="edge">
<title>&#45;11&#45;&gt;2</title>
<path fill="none" stroke="green" stroke-width="0.31" stroke-dasharray="1,5" d="M220.29,-151.16C210.39,-140.84 192.95,-122.66 179.9,-109.06"/>
<polygon fill="green" stroke="green" stroke-width="0.31" points="182.27,-106.47 172.82,-101.68 177.22,-111.32 182.27,-106.47"/>
</g>
<!-- 1776&#45;&gt;1 -->
<g id="edge14" class="edge">
<title>1776&#45;&gt;1</title>
<path fill="none" stroke="red" stroke-width="0.46" d="M76.33,-74.92C81.01,-71.69 86.09,-68.42 91,-65.7 122.12,-48.45 160.42,-33.16 184.53,-24.2"/>
<polygon fill="red" stroke="red" stroke-width="0.46" points="186.05,-27.38 194.24,-20.66 183.64,-20.8 186.05,-27.38"/>
</g>
</g>
</svg>
