<?xml version="1.0" encoding="UTF-8" standalone="no"?>
<!DOCTYPE svg PUBLIC "-//W3C//DTD SVG 1.1//EN"
 "http://www.w3.org/Graphics/SVG/1.1/DTD/svg11.dtd">
<!-- Generated by graphviz version 2.47.1 (20210417.1919)
 -->
<!-- Pages: 1 -->
<svg width="631pt" height="465pt"
 viewBox="0.00 0.00 630.94 464.80" xmlns="http://www.w3.org/2000/svg" xmlns:xlink="http://www.w3.org/1999/xlink">
<g id="graph0" class="graph" transform="scale(1 1) rotate(0) translate(4 460.8)">
<polygon fill="white" stroke="transparent" points="-4,4 -4,-460.8 626.94,-460.8 626.94,4 -4,4"/>
<!-- &#45;1 -->
<g id="node1" class="node">
<title>&#45;1</title>
<polygon fill="lightgray" stroke="black" points="538.94,-213.23 514.94,-213.23 514.94,-195.23 538.94,-195.23 538.94,-213.23"/>
<text text-anchor="middle" x="526.94" y="-202.03" font-family="Times New Roman,serif" font-size="9.00">&#45;1</text>
</g>
<!-- 1 -->
<g id="node13" class="node">
<title>1</title>
<ellipse fill="lightblue" stroke="black" cx="364.94" cy="-113.07" rx="14.7" ry="14.7"/>
<text text-anchor="middle" x="364.94" y="-110.87" font-family="Times New Roman,serif" font-size="9.00">1</text>
</g>
<!-- &#45;1&#45;&gt;1 -->
<g id="edge20" class="edge">
<title>&#45;1&#45;&gt;1</title>
<path fill="none" stroke="red" stroke-width="0.38" d="M521.91,-194.91C518.11,-189.17 512.44,-181.7 505.94,-176.65 469.75,-148.58 419,-130.09 389.28,-120.9"/>
<polygon fill="red" stroke="red" stroke-width="0.38" points="389.93,-117.45 379.35,-117.94 387.93,-124.15 389.93,-117.45"/>
</g>
<!-- 3 -->
<g id="node15" class="node">
<title>3</title>
<ellipse fill="lightblue" stroke="black" cx="212.94" cy="-113.07" rx="14.7" ry="14.7"/>
<text text-anchor="middle" x="212.94" y="-110.87" font-family="Times New Roman,serif" font-size="9.00">3</text>
</g>
<!-- &#45;1&#45;&gt;3 -->
<g id="edge1" class="edge">
<title>&#45;1&#45;&gt;3</title>
<path fill="none" stroke="red" stroke-width="0.19" stroke-dasharray="1,5" d="M522.58,-194.9C518.95,-188.84 513.22,-180.97 505.94,-176.65 423.33,-127.72 386.1,-163.85 292.94,-140.65 273.48,-135.81 251.94,-128.54 236.11,-122.82"/>
<polygon fill="red" stroke="red" stroke-width="0.19" points="237.21,-119.5 226.62,-119.34 234.8,-126.07 237.21,-119.5"/>
</g>
<!-- 10796 -->
<g id="node19" class="node">
<title>10796</title>
<ellipse fill="white" stroke="black" cx="549.94" cy="-113.07" rx="27.65" ry="27.65"/>
<text text-anchor="middle" x="549.94" y="-110.87" font-family="Times New Roman,serif" font-size="9.00">10796</text>
</g>
<!-- &#45;1&#45;&gt;10796 -->
<g id="edge31" class="edge">
<title>&#45;1&#45;&gt;10796</title>
<path fill="none" stroke="red" stroke-width="0.37" stroke-dasharray="1,5" d="M529.06,-195C531.71,-184.72 536.42,-166.46 540.7,-149.88"/>
<polygon fill="red" stroke="red" stroke-width="0.37" points="544.17,-150.42 543.28,-139.86 537.4,-148.67 544.17,-150.42"/>
</g>
<!-- &#45;2 -->
<g id="node2" class="node">
<title>&#45;2</title>
<polygon fill="lightgray" stroke="black" points="622.94,-213.23 598.94,-213.23 598.94,-195.23 622.94,-195.23 622.94,-213.23"/>
<text text-anchor="middle" x="610.94" y="-202.03" font-family="Times New Roman,serif" font-size="9.00">&#45;2</text>
</g>
<!-- 9830 -->
<g id="node17" class="node">
<title>9830</title>
<ellipse fill="white" stroke="black" cx="549.94" cy="-24.75" rx="25" ry="25"/>
<text text-anchor="middle" x="549.94" y="-22.55" font-family="Times New Roman,serif" font-size="9.00">9830</text>
</g>
<!-- &#45;2&#45;&gt;9830 -->
<g id="edge28" class="edge">
<title>&#45;2&#45;&gt;9830</title>
<path fill="none" stroke="red" stroke-width="0.25" stroke-dasharray="1,5" d="M610.26,-194.95C608.44,-175.32 602.48,-124.66 586.94,-85.5 582.56,-74.47 576.17,-63.2 569.93,-53.46"/>
<polygon fill="red" stroke="red" stroke-width="0.25" points="572.75,-51.39 564.3,-45 566.92,-55.27 572.75,-51.39"/>
</g>
<!-- &#45;2&#45;&gt;10796 -->
<g id="edge29" class="edge">
<title>&#45;2&#45;&gt;10796</title>
<path fill="none" stroke="green" stroke-width="0.28" d="M605.31,-195C597.55,-183.67 583.15,-162.63 570.99,-144.84"/>
<polygon fill="green" stroke="green" stroke-width="0.28" points="573.77,-142.7 565.23,-136.43 567.99,-146.66 573.77,-142.7"/>
</g>
<!-- &#45;3 -->
<g id="node3" class="node">
<title>&#45;3</title>
<polygon fill="lightgray" stroke="black" points="580.94,-213.23 556.94,-213.23 556.94,-195.23 580.94,-195.23 580.94,-213.23"/>
<text text-anchor="middle" x="568.94" y="-202.03" font-family="Times New Roman,serif" font-size="9.00">&#45;3</text>
</g>
<!-- 0 -->
<g id="node12" class="node">
<title>0</title>
<ellipse fill="lightblue" stroke="black" cx="483.94" cy="-113.07" rx="14.7" ry="14.7"/>
<text text-anchor="middle" x="483.94" y="-110.87" font-family="Times New Roman,serif" font-size="9.00">0</text>
</g>
<!-- &#45;3&#45;&gt;0 -->
<g id="edge2" class="edge">
<title>&#45;3&#45;&gt;0</title>
<path fill="none" stroke="red" stroke-width="0.46" d="M562.94,-195.1C558.88,-189.73 553.28,-182.6 547.94,-176.65 533.3,-160.39 515.41,-143.09 502.27,-130.81"/>
<polygon fill="red" stroke="red" stroke-width="0.46" points="504.48,-128.09 494.77,-123.87 499.73,-133.23 504.48,-128.09"/>
</g>
<!-- &#45;4 -->
<g id="node4" class="node">
<title>&#45;4</title>
<polygon fill="lightgray" stroke="black" points="327.94,-456.8 303.94,-456.8 303.94,-438.8 327.94,-438.8 327.94,-456.8"/>
<text text-anchor="middle" x="315.94" y="-445.6" font-family="Times New Roman,serif" font-size="9.00">&#45;4</text>
</g>
<!-- 2 -->
<g id="node14" class="node">
<title>2</title>
<ellipse fill="lightblue" stroke="black" cx="316.94" cy="-113.07" rx="14.7" ry="14.7"/>
<text text-anchor="middle" x="316.94" y="-110.87" font-family="Times New Roman,serif" font-size="9.00">2</text>
</g>
<!-- &#45;4&#45;&gt;2 -->
<g id="edge15" class="edge">
<title>&#45;4&#45;&gt;2</title>
<path fill="none" stroke="red" stroke-width="0.1" stroke-dasharray="1,5" d="M318.54,-438.76C328.83,-405.89 365.01,-278.7 343.94,-176.65 340.98,-162.35 334.6,-147.29 328.78,-135.53"/>
<polygon fill="red" stroke="red" stroke-width="0.1" points="331.82,-133.79 324.11,-126.52 325.6,-137.01 331.82,-133.79"/>
</g>
<!-- 7729 -->
<g id="node20" class="node">
<title>7729</title>
<ellipse fill="white" stroke="black" cx="289.94" cy="-378.05" rx="25" ry="25"/>
<text text-anchor="middle" x="289.94" y="-375.85" font-family="Times New Roman,serif" font-size="9.00">7729</text>
</g>
<!-- &#45;4&#45;&gt;7729 -->
<g id="edge17" class="edge">
<title>&#45;4&#45;&gt;7729</title>
<path fill="none" stroke="green" stroke-width="1.39" d="M312.85,-438.76C310.15,-431.73 306.05,-421.05 302.06,-410.65"/>
<polygon fill="green" stroke="green" stroke-width="1.39" points="305.32,-409.37 298.47,-401.29 298.78,-411.88 305.32,-409.37"/>
</g>
<!-- &#45;5 -->
<g id="node5" class="node">
<title>&#45;5</title>
<polygon fill="lightgray" stroke="black" points="164.94,-301.55 140.94,-301.55 140.94,-283.55 164.94,-283.55 164.94,-301.55"/>
<text text-anchor="middle" x="152.94" y="-290.35" font-family="Times New Roman,serif" font-size="9.00">&#45;5</text>
</g>
<!-- &#45;5&#45;&gt;1 -->
<g id="edge3" class="edge">
<title>&#45;5&#45;&gt;1</title>
<path fill="none" stroke="red" stroke-width="0.43" stroke-dasharray="1,5" d="M165.03,-291.76C199.01,-291.64 295.94,-286.3 343.94,-231.81 366.63,-206.04 368.77,-164.43 367.44,-138.2"/>
<polygon fill="red" stroke="red" stroke-width="0.43" points="370.91,-137.72 366.7,-127.99 363.93,-138.22 370.91,-137.72"/>
</g>
<!-- &#45;5&#45;&gt;3 -->
<g id="edge4" class="edge">
<title>&#45;5&#45;&gt;3</title>
<path fill="none" stroke="red" stroke-width="0.21" stroke-dasharray="1,5" d="M153.97,-283.54C156.61,-264.5 164.38,-215.32 178.94,-176.65 184.44,-162.04 192.78,-146.62 199.83,-134.75"/>
<polygon fill="red" stroke="red" stroke-width="0.21" points="202.9,-136.42 205.12,-126.06 196.92,-132.78 202.9,-136.42"/>
</g>
<!-- 10121 -->
<g id="node18" class="node">
<title>10121</title>
<ellipse fill="white" stroke="black" cx="98.94" cy="-204.23" rx="27.65" ry="27.65"/>
<text text-anchor="middle" x="98.94" y="-202.03" font-family="Times New Roman,serif" font-size="9.00">10121</text>
</g>
<!-- &#45;5&#45;&gt;10121 -->
<g id="edge25" class="edge">
<title>&#45;5&#45;&gt;10121</title>
<path fill="none" stroke="green" stroke-width="0.75" d="M147.76,-283.28C141.12,-272.67 129.23,-253.65 118.84,-237.05"/>
<polygon fill="green" stroke="green" stroke-width="0.75" points="121.54,-234.77 113.27,-228.14 115.61,-238.48 121.54,-234.77"/>
</g>
<!-- &#45;6 -->
<g id="node6" class="node">
<title>&#45;6</title>
<polygon fill="lightgray" stroke="black" points="369.94,-456.8 345.94,-456.8 345.94,-438.8 369.94,-438.8 369.94,-456.8"/>
<text text-anchor="middle" x="357.94" y="-445.6" font-family="Times New Roman,serif" font-size="9.00">&#45;6</text>
</g>
<!-- &#45;7 -->
<g id="node7" class="node">
<title>&#45;7</title>
<polygon fill="lightgray" stroke="black" points="244.94,-213.23 220.94,-213.23 220.94,-195.23 244.94,-195.23 244.94,-213.23"/>
<text text-anchor="middle" x="232.94" y="-202.03" font-family="Times New Roman,serif" font-size="9.00">&#45;7</text>
</g>
<!-- &#45;7&#45;&gt;1 -->
<g id="edge5" class="edge">
<title>&#45;7&#45;&gt;1</title>
<path fill="none" stroke="green" stroke-width="0.35" d="M237.92,-194.86C241.7,-189.1 247.37,-181.62 253.94,-176.65 287.32,-151.42 306.74,-164.77 340.94,-140.65 344.07,-138.44 347.08,-135.76 349.85,-132.95"/>
<polygon fill="green" stroke="green" stroke-width="0.35" points="352.47,-135.28 356.54,-125.5 347.26,-130.6 352.47,-135.28"/>
</g>
<!-- &#45;7&#45;&gt;3 -->
<g id="edge6" class="edge">
<title>&#45;7&#45;&gt;3</title>
<path fill="none" stroke="green" stroke-width="0.34" stroke-dasharray="1,5" d="M231.09,-195C228.2,-182.11 222.49,-156.68 218.25,-137.75"/>
<polygon fill="green" stroke="green" stroke-width="0.34" points="221.61,-136.75 216.01,-127.76 214.78,-138.28 221.61,-136.75"/>
</g>
<!-- &#45;8 -->
<g id="node8" class="node">
<title>&#45;8</title>
<polygon fill="lightgray" stroke="black" points="286.94,-213.23 262.94,-213.23 262.94,-195.23 286.94,-195.23 286.94,-213.23"/>
<text text-anchor="middle" x="274.94" y="-202.03" font-family="Times New Roman,serif" font-size="9.00">&#45;8</text>
</g>
<!-- &#45;8&#45;&gt;1 -->
<g id="edge7" class="edge">
<title>&#45;8&#45;&gt;1</title>
<path fill="none" stroke="green" stroke-width="0.38" stroke-dasharray="1,5" d="M280.74,-194.92C284.72,-189.47 290.3,-182.32 295.94,-176.65 313.99,-158.49 322.29,-158.21 340.94,-140.65 343.6,-138.15 346.3,-135.39 348.89,-132.63"/>
<polygon fill="green" stroke="green" stroke-width="0.38" points="351.63,-134.82 355.74,-125.05 346.44,-130.12 351.63,-134.82"/>
</g>
<!-- &#45;8&#45;&gt;2 -->
<g id="edge8" class="edge">
<title>&#45;8&#45;&gt;2</title>
<path fill="none" stroke="green" stroke-width="1.25" d="M278.81,-195C285.07,-181.71 297.61,-155.09 306.6,-136.01"/>
<polygon fill="green" stroke="green" stroke-width="1.25" points="309.83,-137.36 310.93,-126.82 303.5,-134.38 309.83,-137.36"/>
</g>
<!-- &#45;8&#45;&gt;3 -->
<g id="edge9" class="edge">
<title>&#45;8&#45;&gt;3</title>
<path fill="none" stroke="red" stroke-width="0.22" stroke-dasharray="1,5" d="M269.21,-195C259.64,-181.23 240.11,-153.15 226.77,-133.97"/>
<polygon fill="red" stroke="red" stroke-width="0.22" points="229.54,-131.83 220.96,-125.62 223.8,-135.82 229.54,-131.83"/>
</g>
<!-- &#45;9 -->
<g id="node9" class="node">
<title>&#45;9</title>
<polygon fill="lightgray" stroke="black" points="52.94,-213.23 28.94,-213.23 28.94,-195.23 52.94,-195.23 52.94,-213.23"/>
<text text-anchor="middle" x="40.94" y="-202.03" font-family="Times New Roman,serif" font-size="9.00">&#45;9</text>
</g>
<!-- &#45;9&#45;&gt;3 -->
<g id="edge10" class="edge">
<title>&#45;9&#45;&gt;3</title>
<path fill="none" stroke="green" stroke-width="2.02" d="M45.92,-194.86C49.7,-189.1 55.37,-181.62 61.94,-176.65 101.39,-146.82 157.11,-128.6 188.67,-120.01"/>
<polygon fill="green" stroke="green" stroke-width="2.02" points="189.6,-123.39 198.38,-117.47 187.82,-116.62 189.6,-123.39"/>
</g>
<!-- &#45;10 -->
<g id="node10" class="node">
<title>&#45;10</title>
<polygon fill="lightgray" stroke="black" points="496.44,-213.23 467.44,-213.23 467.44,-195.23 496.44,-195.23 496.44,-213.23"/>
<text text-anchor="middle" x="481.94" y="-202.03" font-family="Times New Roman,serif" font-size="9.00">&#45;10</text>
</g>
<!-- &#45;10&#45;&gt;0 -->
<g id="edge11" class="edge">
<title>&#45;10&#45;&gt;0</title>
<path fill="none" stroke="green" stroke-width="2.57" d="M482.12,-195C482.41,-182.24 482.97,-157.2 483.39,-138.33"/>
<polygon fill="green" stroke="green" stroke-width="2.57" points="486.9,-138.15 483.62,-128.08 479.9,-138 486.9,-138.15"/>
</g>
<!-- &#45;10&#45;&gt;1 -->
<g id="edge12" class="edge">
<title>&#45;10&#45;&gt;1</title>
<path fill="none" stroke="red" stroke-width="0.11" d="M473.55,-195.03C467.89,-189.63 460.16,-182.49 452.94,-176.65 430.72,-158.68 403.76,-139.93 385.58,-127.69"/>
<polygon fill="red" stroke="red" stroke-width="0.11" points="387.21,-124.57 376.95,-121.93 383.32,-130.39 387.21,-124.57"/>
</g>
<!-- &#45;10&#45;&gt;3 -->
<g id="edge16" class="edge">
<title>&#45;10&#45;&gt;3</title>
<path fill="none" stroke="green" stroke-width="0.43" stroke-dasharray="1,5" d="M467.23,-198.37C435.43,-187.85 357.89,-162.2 292.94,-140.65 273.91,-134.34 252.33,-127.17 236.39,-121.87"/>
<polygon fill="green" stroke="green" stroke-width="0.43" points="237.4,-118.52 226.81,-118.69 235.19,-125.16 237.4,-118.52"/>
</g>
<!-- &#45;11 -->
<g id="node11" class="node">
<title>&#45;11</title>
<polygon fill="lightgray" stroke="black" points="334.44,-213.23 305.44,-213.23 305.44,-195.23 334.44,-195.23 334.44,-213.23"/>
<text text-anchor="middle" x="319.94" y="-202.03" font-family="Times New Roman,serif" font-size="9.00">&#45;11</text>
</g>
<!-- &#45;11&#45;&gt;1 -->
<g id="edge13" class="edge">
<title>&#45;11&#45;&gt;1</title>
<path fill="none" stroke="green" stroke-width="3.77" d="M324.09,-195C330.8,-181.71 344.23,-155.09 353.87,-136.01"/>
<polygon fill="green" stroke="green" stroke-width="3.77" points="357.12,-137.33 358.5,-126.82 350.87,-134.17 357.12,-137.33"/>
</g>
<!-- &#45;11&#45;&gt;2 -->
<g id="edge14" class="edge">
<title>&#45;11&#45;&gt;2</title>
<path fill="none" stroke="red" stroke-width="0.43" d="M319.66,-195C319.23,-182.24 318.39,-157.2 317.75,-138.33"/>
<polygon fill="red" stroke="red" stroke-width="0.43" points="321.24,-137.96 317.41,-128.08 314.24,-138.19 321.24,-137.96"/>
</g>
<!-- &#45;11&#45;&gt;3 -->
<g id="edge21" class="edge">
<title>&#45;11&#45;&gt;3</title>
<path fill="none" stroke="red" stroke-width="0.18" d="M313.17,-194.95C308.56,-189.5 302.17,-182.36 295.94,-176.65 275.87,-158.29 250.66,-139.86 233.32,-127.8"/>
<polygon fill="red" stroke="red" stroke-width="0.18" points="235.26,-124.89 225.04,-122.11 231.3,-130.66 235.26,-124.89"/>
</g>
<!-- 9637 -->
<g id="node16" class="node">
<title>9637</title>
<ellipse fill="white" stroke="black" cx="49.94" cy="-292.55" rx="25" ry="25"/>
<text text-anchor="middle" x="49.94" y="-290.35" font-family="Times New Roman,serif" font-size="9.00">9637</text>
</g>
<!-- 9637&#45;&gt;3 -->
<g id="edge23" class="edge">
<title>9637&#45;&gt;3</title>
<path fill="none" stroke="green" stroke-width="0.23" stroke-dasharray="1,5" d="M35.63,-271.82C19.79,-247.34 -0.92,-205.33 19.94,-176.65 59,-122.92 145.24,-114.4 187.96,-113.63"/>
<polygon fill="green" stroke="green" stroke-width="0.23" points="188.08,-117.13 198.06,-113.58 188.05,-110.13 188.08,-117.13"/>
</g>
<!-- 9637&#45;&gt;9830 -->
<g id="edge24" class="edge">
<title>9637&#45;&gt;9830</title>
<path fill="none" stroke="green" stroke-width="0.24" stroke-dasharray="1,5" d="M33.26,-274.06C23.83,-262.92 12.94,-247.64 7.94,-231.81 0.54,-208.43 -4.92,-197.52 7.94,-176.65 55.18,-99.97 103.3,-113.43 188.94,-85.5 304.79,-47.71 449.71,-33.01 515.09,-28.01"/>
<polygon fill="green" stroke="green" stroke-width="0.24" points="515.53,-31.48 525.25,-27.26 515.02,-24.5 515.53,-31.48"/>
</g>
<!-- 9637&#45;&gt;10121 -->
<g id="edge27" class="edge">
<title>9637&#45;&gt;10121</title>
<path fill="none" stroke="red" stroke-width="0.16" d="M61.8,-270.66C67.42,-260.76 74.26,-248.7 80.53,-237.65"/>
<polygon fill="red" stroke="red" stroke-width="0.16" points="83.74,-239.1 85.63,-228.67 77.65,-235.64 83.74,-239.1"/>
</g>
<!-- 10121&#45;&gt;3 -->
<g id="edge26" class="edge">
<title>10121&#45;&gt;3</title>
<path fill="none" stroke="red" stroke-width="0.12" d="M120.38,-186.46C141.48,-169.95 173.42,-144.98 193.72,-129.1"/>
<polygon fill="red" stroke="red" stroke-width="0.12" points="195.92,-131.82 201.65,-122.9 191.61,-126.31 195.92,-131.82"/>
</g>
<!-- 10796&#45;&gt;9830 -->
<g id="edge30" class="edge">
<title>10796&#45;&gt;9830</title>
<path fill="none" stroke="green" stroke-width="0.15" d="M549.94,-85.23C549.94,-77.14 549.94,-68.15 549.94,-59.66"/>
<polygon fill="green" stroke="green" stroke-width="0.15" points="553.44,-59.65 549.94,-49.65 546.44,-59.65 553.44,-59.65"/>
</g>
<!-- 7729&#45;&gt;1 -->
<g id="edge19" class="edge">
<title>7729&#45;&gt;1</title>
<path fill="none" stroke="green" stroke-width="0.26" d="M304.43,-357.68C323.39,-330.99 355.65,-280.66 367.94,-231.81 375.94,-200 372.73,-161.82 369.22,-137.75"/>
<polygon fill="green" stroke="green" stroke-width="0.26" points="372.66,-137.08 367.63,-127.75 365.75,-138.18 372.66,-137.08"/>
</g>
<!-- 7729&#45;&gt;3 -->
<g id="edge18" class="edge">
<title>7729&#45;&gt;3</title>
<path fill="none" stroke="green" stroke-width="0.29" stroke-dasharray="1,5" d="M275.44,-357.68C256.48,-330.99 224.22,-280.66 211.94,-231.81 203.94,-200 206.36,-161.83 209.28,-137.75"/>
<polygon fill="green" stroke="green" stroke-width="0.29" points="212.76,-138.13 210.62,-127.76 205.82,-137.2 212.76,-138.13"/>
</g>
<!-- 7729&#45;&gt;9637 -->
<g id="edge22" class="edge">
<title>7729&#45;&gt;9637</title>
<path fill="none" stroke="red" stroke-width="0.2" d="M266.49,-368.89C223.45,-353.92 131.78,-322.03 82.65,-304.94"/>
<polygon fill="red" stroke="red" stroke-width="0.2" points="83.72,-301.6 73.13,-301.62 81.42,-308.21 83.72,-301.6"/>
</g>
</g>
</svg>
