<?xml version="1.0" encoding="UTF-8" standalone="no"?>
<!DOCTYPE svg PUBLIC "-//W3C//DTD SVG 1.1//EN"
 "http://www.w3.org/Graphics/SVG/1.1/DTD/svg11.dtd">
<!-- Generated by graphviz version 2.47.1 (20210417.1919)
 -->
<!-- Pages: 1 -->
<svg width="464pt" height="92pt"
 viewBox="0.00 0.00 464.00 91.70" xmlns="http://www.w3.org/2000/svg" xmlns:xlink="http://www.w3.org/1999/xlink">
<g id="graph0" class="graph" transform="scale(1 1) rotate(0) translate(4 87.7)">
<polygon fill="white" stroke="transparent" points="-4,4 -4,-87.7 460,-87.7 460,4 -4,4"/>
<!-- &#45;1 -->
<g id="node1" class="node">
<title>&#45;1</title>
<polygon fill="lightgray" stroke="black" points="156,-83.7 132,-83.7 132,-65.7 156,-65.7 156,-83.7"/>
<text text-anchor="middle" x="144" y="-72.5" font-family="Times New Roman,serif" font-size="9.00">&#45;1</text>
</g>
<!-- 0 -->
<g id="node12" class="node">
<title>0</title>
<ellipse fill="lightblue" stroke="black" cx="234" cy="-14.85" rx="14.7" ry="14.7"/>
<text text-anchor="middle" x="234" y="-12.65" font-family="Times New Roman,serif" font-size="9.00">0</text>
</g>
<!-- &#45;1&#45;&gt;0 -->
<g id="edge1" class="edge">
<title>&#45;1&#45;&gt;0</title>
<path fill="none" stroke="green" stroke-width="0.42" stroke-dasharray="1,5" d="M156.14,-65.9C170.77,-56.49 195.58,-40.55 213.26,-29.18"/>
<polygon fill="green" stroke="green" stroke-width="0.42" points="215.25,-32.06 221.77,-23.71 211.46,-26.18 215.25,-32.06"/>
</g>
<!-- 1 -->
<g id="node13" class="node">
<title>1</title>
<ellipse fill="lightblue" stroke="black" cx="138" cy="-14.85" rx="14.7" ry="14.7"/>
<text text-anchor="middle" x="138" y="-12.65" font-family="Times New Roman,serif" font-size="9.00">1</text>
</g>
<!-- &#45;1&#45;&gt;1 -->
<g id="edge2" class="edge">
<title>&#45;1&#45;&gt;1</title>
<path fill="none" stroke="green" stroke-width="0.36" stroke-dasharray="1,5" d="M143.17,-65.65C142.48,-59.05 141.47,-49.33 140.53,-40.23"/>
<polygon fill="green" stroke="green" stroke-width="0.36" points="143.99,-39.64 139.47,-30.06 137.02,-40.36 143.99,-39.64"/>
</g>
<!-- 2 -->
<g id="node14" class="node">
<title>2</title>
<ellipse fill="lightblue" stroke="black" cx="186" cy="-14.85" rx="14.7" ry="14.7"/>
<text text-anchor="middle" x="186" y="-12.65" font-family="Times New Roman,serif" font-size="9.00">2</text>
</g>
<!-- &#45;1&#45;&gt;2 -->
<g id="edge3" class="edge">
<title>&#45;1&#45;&gt;2</title>
<path fill="none" stroke="green" stroke-width="0.81" d="M149.84,-65.65C155.47,-57.89 164.23,-45.84 171.71,-35.53"/>
<polygon fill="green" stroke="green" stroke-width="0.81" points="174.56,-37.57 177.6,-27.42 168.89,-33.45 174.56,-37.57"/>
</g>
<!-- 3 -->
<g id="node15" class="node">
<title>3</title>
<ellipse fill="lightblue" stroke="black" cx="282" cy="-14.85" rx="14.7" ry="14.7"/>
<text text-anchor="middle" x="282" y="-12.65" font-family="Times New Roman,serif" font-size="9.00">3</text>
</g>
<!-- &#45;1&#45;&gt;3 -->
<g id="edge4" class="edge">
<title>&#45;1&#45;&gt;3</title>
<path fill="none" stroke="red" stroke-width="0.29" d="M156.01,-69.12C184.31,-58.33 253.14,-32.02 258,-29.7 258.84,-29.3 259.68,-28.88 260.53,-28.45"/>
<polygon fill="red" stroke="red" stroke-width="0.29" points="262.39,-31.42 269.49,-23.56 259.04,-25.28 262.39,-31.42"/>
</g>
<!-- &#45;2 -->
<g id="node2" class="node">
<title>&#45;2</title>
<polygon fill="lightgray" stroke="black" points="324,-83.7 300,-83.7 300,-65.7 324,-65.7 324,-83.7"/>
<text text-anchor="middle" x="312" y="-72.5" font-family="Times New Roman,serif" font-size="9.00">&#45;2</text>
</g>
<!-- &#45;2&#45;&gt;0 -->
<g id="edge5" class="edge">
<title>&#45;2&#45;&gt;0</title>
<path fill="none" stroke="green" stroke-width="0.14" stroke-dasharray="1,5" d="M301.15,-65.65C288.91,-56.57 268.73,-41.61 253.68,-30.45"/>
<polygon fill="green" stroke="green" stroke-width="0.14" points="255.63,-27.53 245.51,-24.39 251.46,-33.16 255.63,-27.53"/>
</g>
<!-- &#45;2&#45;&gt;1 -->
<g id="edge6" class="edge">
<title>&#45;2&#45;&gt;1</title>
<path fill="none" stroke="red" stroke-width="0.45" d="M299.63,-68.77C296.81,-67.71 293.82,-66.63 291,-65.7 234.46,-47.08 216.88,-52.76 162,-29.7 161.15,-29.34 160.29,-28.96 159.42,-28.55"/>
<polygon fill="red" stroke="red" stroke-width="0.45" points="160.88,-25.37 150.4,-23.8 157.61,-31.56 160.88,-25.37"/>
</g>
<!-- &#45;2&#45;&gt;3 -->
<g id="edge7" class="edge">
<title>&#45;2&#45;&gt;3</title>
<path fill="none" stroke="red" stroke-width="1.02" stroke-dasharray="1,5" d="M307.83,-65.65C304.02,-58.31 298.22,-47.13 293.08,-37.22"/>
<polygon fill="red" stroke="red" stroke-width="1.02" points="296.16,-35.54 288.44,-28.28 289.94,-38.77 296.16,-35.54"/>
</g>
<!-- &#45;3 -->
<g id="node3" class="node">
<title>&#45;3</title>
<polygon fill="lightgray" stroke="black" points="456,-83.7 432,-83.7 432,-65.7 456,-65.7 456,-83.7"/>
<text text-anchor="middle" x="444" y="-72.5" font-family="Times New Roman,serif" font-size="9.00">&#45;3</text>
</g>
<!-- &#45;3&#45;&gt;0 -->
<g id="edge8" class="edge">
<title>&#45;3&#45;&gt;0</title>
<path fill="none" stroke="red" stroke-width="0.25" stroke-dasharray="1,5" d="M431.67,-68.65C428.85,-67.59 425.84,-66.54 423,-65.7 351.06,-44.28 328,-56.78 258,-29.7 257.14,-29.36 256.27,-29 255.4,-28.62"/>
<polygon fill="red" stroke="red" stroke-width="0.25" points="256.83,-25.42 246.34,-23.94 253.62,-31.64 256.83,-25.42"/>
</g>
<!-- &#45;3&#45;&gt;3 -->
<g id="edge9" class="edge">
<title>&#45;3&#45;&gt;3</title>
<path fill="none" stroke="green" stroke-width="0.44" stroke-dasharray="1,5" d="M431.58,-68.91C428.76,-67.84 425.78,-66.72 423,-65.7 381.94,-50.62 333.85,-33.8 305.77,-24.06"/>
<polygon fill="green" stroke="green" stroke-width="0.44" points="306.64,-20.66 296.05,-20.69 304.35,-27.27 306.64,-20.66"/>
</g>
<!-- &#45;4 -->
<g id="node4" class="node">
<title>&#45;4</title>
<polygon fill="lightgray" stroke="black" points="24,-83.7 0,-83.7 0,-65.7 24,-65.7 24,-83.7"/>
<text text-anchor="middle" x="12" y="-72.5" font-family="Times New Roman,serif" font-size="9.00">&#45;4</text>
</g>
<!-- &#45;4&#45;&gt;0 -->
<g id="edge10" class="edge">
<title>&#45;4&#45;&gt;0</title>
<path fill="none" stroke="green" stroke-width="0.33" stroke-dasharray="1,5" d="M24.32,-68.62C27.14,-67.57 30.15,-66.52 33,-65.7 110.1,-43.33 134.93,-58.13 210,-29.7 210.87,-29.37 211.74,-29.01 212.61,-28.63"/>
<polygon fill="green" stroke="green" stroke-width="0.33" points="214.38,-31.66 221.67,-23.98 211.18,-25.43 214.38,-31.66"/>
</g>
<!-- &#45;4&#45;&gt;1 -->
<g id="edge11" class="edge">
<title>&#45;4&#45;&gt;1</title>
<path fill="none" stroke="red" stroke-width="2.4" d="M24.08,-68.15C45.05,-58.52 88.52,-38.57 115.28,-26.28"/>
<polygon fill="red" stroke="red" stroke-width="2.4" points="117.01,-29.34 124.64,-21.99 114.09,-22.98 117.01,-29.34"/>
</g>
<!-- &#45;4&#45;&gt;2 -->
<g id="edge12" class="edge">
<title>&#45;4&#45;&gt;2</title>
<path fill="none" stroke="red" stroke-width="0.21" d="M24.37,-68.77C27.19,-67.71 30.18,-66.63 33,-65.7 89.54,-47.08 107.12,-52.76 162,-29.7 162.85,-29.34 163.71,-28.96 164.58,-28.55"/>
<polygon fill="red" stroke="red" stroke-width="0.21" points="166.39,-31.56 173.6,-23.8 163.12,-25.37 166.39,-31.56"/>
</g>
<!-- &#45;5 -->
<g id="node5" class="node">
<title>&#45;5</title>
<polygon fill="lightgray" stroke="black" points="198,-83.7 174,-83.7 174,-65.7 198,-65.7 198,-83.7"/>
<text text-anchor="middle" x="186" y="-72.5" font-family="Times New Roman,serif" font-size="9.00">&#45;5</text>
</g>
<!-- &#45;5&#45;&gt;0 -->
<g id="edge13" class="edge">
<title>&#45;5&#45;&gt;0</title>
<path fill="none" stroke="green" stroke-width="0.49" stroke-dasharray="1,5" d="M192.67,-65.65C199.26,-57.72 209.57,-45.29 218.25,-34.83"/>
<polygon fill="green" stroke="green" stroke-width="0.49" points="221.06,-36.93 224.75,-26.99 215.67,-32.46 221.06,-36.93"/>
</g>
<!-- &#45;5&#45;&gt;1 -->
<g id="edge14" class="edge">
<title>&#45;5&#45;&gt;1</title>
<path fill="none" stroke="green" stroke-width="0.3" stroke-dasharray="1,5" d="M179.33,-65.65C172.74,-57.72 162.43,-45.29 153.75,-34.83"/>
<polygon fill="green" stroke="green" stroke-width="0.3" points="156.33,-32.46 147.25,-26.99 150.94,-36.93 156.33,-32.46"/>
</g>
<!-- &#45;5&#45;&gt;2 -->
<g id="edge15" class="edge">
<title>&#45;5&#45;&gt;2</title>
<path fill="none" stroke="red" stroke-width="0.75" d="M186,-65.65C186,-59.05 186,-49.33 186,-40.23"/>
<polygon fill="red" stroke="red" stroke-width="0.75" points="189.5,-40.06 186,-30.06 182.5,-40.06 189.5,-40.06"/>
</g>
<!-- &#45;5&#45;&gt;3 -->
<g id="edge16" class="edge">
<title>&#45;5&#45;&gt;3</title>
<path fill="none" stroke="red" stroke-width="0.11" d="M198.16,-66.37C213.94,-56.86 241.73,-40.11 260.97,-28.52"/>
<polygon fill="red" stroke="red" stroke-width="0.11" points="262.88,-31.46 269.64,-23.3 259.27,-25.46 262.88,-31.46"/>
</g>
<!-- &#45;6 -->
<g id="node6" class="node">
<title>&#45;6</title>
<polygon fill="lightgray" stroke="black" points="240,-83.7 216,-83.7 216,-65.7 240,-65.7 240,-83.7"/>
<text text-anchor="middle" x="228" y="-72.5" font-family="Times New Roman,serif" font-size="9.00">&#45;6</text>
</g>
<!-- &#45;6&#45;&gt;0 -->
<g id="edge17" class="edge">
<title>&#45;6&#45;&gt;0</title>
<path fill="none" stroke="red" stroke-width="0.52" d="M228.83,-65.65C229.52,-59.05 230.53,-49.33 231.47,-40.23"/>
<polygon fill="red" stroke="red" stroke-width="0.52" points="234.98,-40.36 232.53,-30.06 228.01,-39.64 234.98,-40.36"/>
</g>
<!-- &#45;6&#45;&gt;1 -->
<g id="edge18" class="edge">
<title>&#45;6&#45;&gt;1</title>
<path fill="none" stroke="green" stroke-width="0.16" stroke-dasharray="1,5" d="M215.86,-65.9C201.23,-56.49 176.42,-40.55 158.74,-29.18"/>
<polygon fill="green" stroke="green" stroke-width="0.16" points="160.54,-26.18 150.23,-23.71 156.75,-32.06 160.54,-26.18"/>
</g>
<!-- &#45;6&#45;&gt;2 -->
<g id="edge19" class="edge">
<title>&#45;6&#45;&gt;2</title>
<path fill="none" stroke="green" stroke-width="0.27" d="M222.16,-65.65C216.53,-57.89 207.77,-45.84 200.29,-35.53"/>
<polygon fill="green" stroke="green" stroke-width="0.27" points="203.11,-33.45 194.4,-27.42 197.44,-37.57 203.11,-33.45"/>
</g>
<!-- &#45;6&#45;&gt;3 -->
<g id="edge20" class="edge">
<title>&#45;6&#45;&gt;3</title>
<path fill="none" stroke="green" stroke-width="1.19" d="M235.51,-65.65C243.18,-57.44 255.33,-44.42 265.29,-33.75"/>
<polygon fill="green" stroke="green" stroke-width="1.19" points="268.1,-35.86 272.37,-26.17 262.99,-31.09 268.1,-35.86"/>
</g>
<!-- &#45;7 -->
<g id="node7" class="node">
<title>&#45;7</title>
<polygon fill="lightgray" stroke="black" points="414,-83.7 390,-83.7 390,-65.7 414,-65.7 414,-83.7"/>
<text text-anchor="middle" x="402" y="-72.5" font-family="Times New Roman,serif" font-size="9.00">&#45;7</text>
</g>
<!-- &#45;7&#45;&gt;0 -->
<g id="edge21" class="edge">
<title>&#45;7&#45;&gt;0</title>
<path fill="none" stroke="green" stroke-width="0.31" stroke-dasharray="1,5" d="M389.62,-68.8C386.8,-67.73 383.81,-66.64 381,-65.7 327.01,-47.55 310.37,-52.09 258,-29.7 257.15,-29.33 256.29,-28.95 255.43,-28.54"/>
<polygon fill="green" stroke="green" stroke-width="0.31" points="256.89,-25.35 246.41,-23.76 253.61,-31.54 256.89,-25.35"/>
</g>
<!-- &#45;7&#45;&gt;2 -->
<g id="edge22" class="edge">
<title>&#45;7&#45;&gt;2</title>
<path fill="none" stroke="green" stroke-width="0.4" stroke-dasharray="1,5" d="M389.67,-68.63C386.85,-67.58 383.84,-66.53 381,-65.7 306.48,-43.81 282.54,-57.45 210,-29.7 209.14,-29.37 208.26,-29.01 207.39,-28.63"/>
<polygon fill="green" stroke="green" stroke-width="0.4" points="208.83,-25.43 198.33,-23.96 205.62,-31.65 208.83,-25.43"/>
</g>
<!-- &#45;7&#45;&gt;3 -->
<g id="edge23" class="edge">
<title>&#45;7&#45;&gt;3</title>
<path fill="none" stroke="red" stroke-width="0.34" d="M389.61,-67.73C369.52,-58.04 329.56,-38.78 304.39,-26.64"/>
<polygon fill="red" stroke="red" stroke-width="0.34" points="305.76,-23.42 295.23,-22.23 302.72,-29.72 305.76,-23.42"/>
</g>
<!-- &#45;8 -->
<g id="node8" class="node">
<title>&#45;8</title>
<polygon fill="lightgray" stroke="black" points="66,-83.7 42,-83.7 42,-65.7 66,-65.7 66,-83.7"/>
<text text-anchor="middle" x="54" y="-72.5" font-family="Times New Roman,serif" font-size="9.00">&#45;8</text>
</g>
<!-- &#45;8&#45;&gt;0 -->
<g id="edge24" class="edge">
<title>&#45;8&#45;&gt;0</title>
<path fill="none" stroke="green" stroke-width="0.51" stroke-dasharray="1,5" d="M66.04,-69.11C69.26,-67.94 72.74,-66.73 76,-65.7 134.81,-47.14 153.03,-53.31 210,-29.7 210.86,-29.34 211.72,-28.96 212.58,-28.57"/>
<polygon fill="green" stroke="green" stroke-width="0.51" points="214.39,-31.57 221.61,-23.82 211.13,-25.37 214.39,-31.57"/>
</g>
<!-- &#45;8&#45;&gt;1 -->
<g id="edge25" class="edge">
<title>&#45;8&#45;&gt;1</title>
<path fill="none" stroke="red" stroke-width="0.41" d="M65.68,-65.65C79.14,-56.38 101.51,-40.98 117.81,-29.75"/>
<polygon fill="red" stroke="red" stroke-width="0.41" points="119.9,-32.57 126.15,-24.01 115.93,-26.8 119.9,-32.57"/>
</g>
<!-- &#45;8&#45;&gt;2 -->
<g id="edge26" class="edge">
<title>&#45;8&#45;&gt;2</title>
<path fill="none" stroke="green" stroke-width="2.2" d="M66.08,-69.02C90.34,-59.58 144.18,-38.42 162,-29.7 162.83,-29.29 163.67,-28.87 164.52,-28.43"/>
<polygon fill="green" stroke="green" stroke-width="2.2" points="166.39,-31.39 173.47,-23.51 163.02,-25.26 166.39,-31.39"/>
</g>
<!-- &#45;9 -->
<g id="node9" class="node">
<title>&#45;9</title>
<polygon fill="lightgray" stroke="black" points="282,-83.7 258,-83.7 258,-65.7 282,-65.7 282,-83.7"/>
<text text-anchor="middle" x="270" y="-72.5" font-family="Times New Roman,serif" font-size="9.00">&#45;9</text>
</g>
<!-- &#45;9&#45;&gt;0 -->
<g id="edge27" class="edge">
<title>&#45;9&#45;&gt;0</title>
<path fill="none" stroke="green" stroke-width="0.36" stroke-dasharray="1,5" d="M264.99,-65.65C260.32,-58.14 253.14,-46.61 246.87,-36.53"/>
<polygon fill="green" stroke="green" stroke-width="0.36" points="249.72,-34.49 241.46,-27.84 243.78,-38.18 249.72,-34.49"/>
</g>
<!-- &#45;9&#45;&gt;1 -->
<g id="edge28" class="edge">
<title>&#45;9&#45;&gt;1</title>
<path fill="none" stroke="red" stroke-width="0.3" d="M257.92,-69.02C233.66,-59.58 179.82,-38.42 162,-29.7 161.17,-29.29 160.33,-28.87 159.48,-28.43"/>
<polygon fill="red" stroke="red" stroke-width="0.3" points="160.98,-25.26 150.53,-23.51 157.61,-31.39 160.98,-25.26"/>
</g>
<!-- &#45;9&#45;&gt;2 -->
<g id="edge29" class="edge">
<title>&#45;9&#45;&gt;2</title>
<path fill="none" stroke="red" stroke-width="0.24" d="M258.32,-65.65C244.86,-56.38 222.49,-40.98 206.19,-29.75"/>
<polygon fill="red" stroke="red" stroke-width="0.24" points="208.07,-26.8 197.85,-24.01 204.1,-32.57 208.07,-26.8"/>
</g>
<!-- &#45;9&#45;&gt;3 -->
<g id="edge30" class="edge">
<title>&#45;9&#45;&gt;3</title>
<path fill="none" stroke="green" stroke-width="2.12" d="M271.67,-65.65C273.07,-58.89 275.15,-48.86 277.08,-39.57"/>
<polygon fill="green" stroke="green" stroke-width="2.12" points="280.54,-40.11 279.15,-29.6 273.69,-38.69 280.54,-40.11"/>
</g>
<!-- &#45;10 -->
<g id="node10" class="node">
<title>&#45;10</title>
<polygon fill="lightgray" stroke="black" points="371.5,-83.7 342.5,-83.7 342.5,-65.7 371.5,-65.7 371.5,-83.7"/>
<text text-anchor="middle" x="357" y="-72.5" font-family="Times New Roman,serif" font-size="9.00">&#45;10</text>
</g>
<!-- &#45;10&#45;&gt;0 -->
<g id="edge31" class="edge">
<title>&#45;10&#45;&gt;0</title>
<path fill="none" stroke="green" stroke-width="3.38" d="M342.35,-67.76C322.83,-59.71 287.33,-44.63 258,-29.7 257.17,-29.28 256.34,-28.84 255.5,-28.4"/>
<polygon fill="green" stroke="green" stroke-width="3.38" points="257.01,-25.23 246.57,-23.43 253.61,-31.35 257.01,-25.23"/>
</g>
<!-- &#45;10&#45;&gt;2 -->
<g id="edge32" class="edge">
<title>&#45;10&#45;&gt;2</title>
<path fill="none" stroke="green" stroke-width="0.13" stroke-dasharray="1,5" d="M342.3,-68.7C339.24,-67.69 336.02,-66.64 333,-65.7 278.64,-48.69 262.37,-52.09 210,-29.7 209.15,-29.33 208.29,-28.95 207.43,-28.54"/>
<polygon fill="green" stroke="green" stroke-width="0.13" points="208.89,-25.35 198.41,-23.76 205.61,-31.54 208.89,-25.35"/>
</g>
<!-- &#45;10&#45;&gt;3 -->
<g id="edge33" class="edge">
<title>&#45;10&#45;&gt;3</title>
<path fill="none" stroke="green" stroke-width="0.17" d="M346.57,-65.65C334.97,-56.71 315.97,-42.05 301.58,-30.95"/>
<polygon fill="green" stroke="green" stroke-width="0.17" points="303.38,-27.92 293.32,-24.58 299.1,-33.46 303.38,-27.92"/>
</g>
<!-- &#45;11 -->
<g id="node11" class="node">
<title>&#45;11</title>
<polygon fill="lightgray" stroke="black" points="113.5,-83.7 84.5,-83.7 84.5,-65.7 113.5,-65.7 113.5,-83.7"/>
<text text-anchor="middle" x="99" y="-72.5" font-family="Times New Roman,serif" font-size="9.00">&#45;11</text>
</g>
<!-- &#45;11&#45;&gt;0 -->
<g id="edge34" class="edge">
<title>&#45;11&#45;&gt;0</title>
<path fill="none" stroke="green" stroke-width="0.43" d="M113.66,-68.66C135.18,-61.1 176.41,-45.94 210,-29.7 210.83,-29.3 211.68,-28.87 212.53,-28.44"/>
<polygon fill="green" stroke="green" stroke-width="0.43" points="214.39,-31.41 221.48,-23.53 211.03,-25.27 214.39,-31.41"/>
</g>
<!-- &#45;11&#45;&gt;1 -->
<g id="edge35" class="edge">
<title>&#45;11&#45;&gt;1</title>
<path fill="none" stroke="green" stroke-width="2.87" d="M104.42,-65.65C109.54,-58.07 117.42,-46.37 124.26,-36.22"/>
<polygon fill="green" stroke="green" stroke-width="2.87" points="127.23,-38.09 129.91,-27.84 121.42,-34.18 127.23,-38.09"/>
</g>
<!-- &#45;11&#45;&gt;2 -->
<g id="edge36" class="edge">
<title>&#45;11&#45;&gt;2</title>
<path fill="none" stroke="green" stroke-width="0.6" stroke-dasharray="1,5" d="M111.1,-65.65C125.12,-56.33 148.47,-40.8 165.38,-29.56"/>
<polygon fill="green" stroke="green" stroke-width="0.6" points="167.62,-32.28 174.01,-23.82 163.74,-26.45 167.62,-32.28"/>
</g>
<!-- &#45;11&#45;&gt;3 -->
<g id="edge37" class="edge">
<title>&#45;11&#45;&gt;3</title>
<path fill="none" stroke="red" stroke-width="0.4" d="M113.68,-68.65C116.75,-67.64 119.97,-66.61 123,-65.7 182.48,-47.87 200.61,-53.42 258,-29.7 258.86,-29.34 259.72,-28.97 260.58,-28.57"/>
<polygon fill="red" stroke="red" stroke-width="0.4" points="262.39,-31.57 269.61,-23.82 259.13,-25.38 262.39,-31.57"/>
</g>
</g>
</svg>
