<?xml version="1.0" encoding="UTF-8" standalone="no"?>
<!DOCTYPE svg PUBLIC "-//W3C//DTD SVG 1.1//EN"
 "http://www.w3.org/Graphics/SVG/1.1/DTD/svg11.dtd">
<!-- Generated by graphviz version 2.47.1 (20210417.1919)
 -->
<!-- Pages: 1 -->
<svg width="546pt" height="788pt"
 viewBox="0.00 0.00 546.50 788.41" xmlns="http://www.w3.org/2000/svg" xmlns:xlink="http://www.w3.org/1999/xlink">
<g id="graph0" class="graph" transform="scale(1 1) rotate(0) translate(4 784.41)">
<polygon fill="white" stroke="transparent" points="-4,4 -4,-784.41 542.5,-784.41 542.5,4 -4,4"/>
<!-- &#45;1 -->
<g id="node1" class="node">
<title>&#45;1</title>
<polygon fill="lightgray" stroke="black" points="85.75,-780.41 61.75,-780.41 61.75,-762.41 85.75,-762.41 85.75,-780.41"/>
<text text-anchor="middle" x="73.75" y="-769.21" font-family="Times New Roman,serif" font-size="9.00">&#45;1</text>
</g>
<!-- &#45;2 -->
<g id="node2" class="node">
<title>&#45;2</title>
<polygon fill="lightgray" stroke="black" points="127.75,-780.41 103.75,-780.41 103.75,-762.41 127.75,-762.41 127.75,-780.41"/>
<text text-anchor="middle" x="115.75" y="-769.21" font-family="Times New Roman,serif" font-size="9.00">&#45;2</text>
</g>
<!-- 914 -->
<g id="node19" class="node">
<title>914</title>
<ellipse fill="white" stroke="black" cx="183.75" cy="-363.2" rx="21.43" ry="21.43"/>
<text text-anchor="middle" x="183.75" y="-361" font-family="Times New Roman,serif" font-size="9.00">914</text>
</g>
<!-- &#45;2&#45;&gt;914 -->
<g id="edge7" class="edge">
<title>&#45;2&#45;&gt;914</title>
<path fill="none" stroke="green" stroke-width="0.91" d="M115.75,-762.1C115.75,-739.08 115.75,-672.5 115.75,-617.16 115.75,-617.16 115.75,-617.16 115.75,-529.66 115.75,-476.8 145.81,-421.1 165.95,-389.69"/>
<polygon fill="green" stroke="green" stroke-width="0.91" points="169.02,-391.4 171.59,-381.13 163.17,-387.55 169.02,-391.4"/>
</g>
<!-- 1303 -->
<g id="node20" class="node">
<title>1303</title>
<ellipse fill="white" stroke="black" cx="168.75" cy="-701.66" rx="25" ry="25"/>
<text text-anchor="middle" x="168.75" y="-699.46" font-family="Times New Roman,serif" font-size="9.00">1303</text>
</g>
<!-- &#45;2&#45;&gt;1303 -->
<g id="edge15" class="edge">
<title>&#45;2&#45;&gt;1303</title>
<path fill="none" stroke="green" stroke-width="0.11" stroke-dasharray="1,5" d="M122.04,-762.37C128.36,-754.28 138.48,-741.35 147.68,-729.59"/>
<polygon fill="green" stroke="green" stroke-width="0.11" points="150.44,-731.75 153.84,-721.71 144.92,-727.43 150.44,-731.75"/>
</g>
<!-- 1335 -->
<g id="node25" class="node">
<title>1335</title>
<ellipse fill="white" stroke="black" cx="62.75" cy="-445.17" rx="25" ry="25"/>
<text text-anchor="middle" x="62.75" y="-442.97" font-family="Times New Roman,serif" font-size="9.00">1335</text>
</g>
<!-- &#45;2&#45;&gt;1335 -->
<g id="edge19" class="edge">
<title>&#45;2&#45;&gt;1335</title>
<path fill="none" stroke="red" stroke-width="0.34" d="M112.63,-762.09C109.47,-753.33 104.62,-739.07 101.75,-726.41 81.86,-638.79 70.49,-533.32 65.61,-480.23"/>
<polygon fill="red" stroke="red" stroke-width="0.34" points="69.07,-479.68 64.69,-470.03 62.1,-480.3 69.07,-479.68"/>
</g>
<!-- &#45;3 -->
<g id="node3" class="node">
<title>&#45;3</title>
<polygon fill="lightgray" stroke="black" points="35.75,-710.66 11.75,-710.66 11.75,-692.66 35.75,-692.66 35.75,-710.66"/>
<text text-anchor="middle" x="23.75" y="-699.46" font-family="Times New Roman,serif" font-size="9.00">&#45;3</text>
</g>
<!-- 1293 -->
<g id="node17" class="node">
<title>1293</title>
<ellipse fill="white" stroke="black" cx="28.75" cy="-281.24" rx="25" ry="25"/>
<text text-anchor="middle" x="28.75" y="-279.04" font-family="Times New Roman,serif" font-size="9.00">1293</text>
</g>
<!-- &#45;3&#45;&gt;1293 -->
<g id="edge33" class="edge">
<title>&#45;3&#45;&gt;1293</title>
<path fill="none" stroke="green" stroke-width="0.12" stroke-dasharray="1,5" d="M22.6,-692.59C19.26,-668.31 9.75,-593.78 9.75,-531.66 9.75,-531.66 9.75,-531.66 9.75,-444.17 9.75,-399.47 16.98,-348.3 22.52,-315.66"/>
<polygon fill="green" stroke="green" stroke-width="0.12" points="25.98,-316.19 24.25,-305.74 19.08,-314.99 25.98,-316.19"/>
</g>
<!-- 1313 -->
<g id="node22" class="node">
<title>1313</title>
<ellipse fill="white" stroke="black" cx="168.75" cy="-616.16" rx="25" ry="25"/>
<text text-anchor="middle" x="168.75" y="-613.96" font-family="Times New Roman,serif" font-size="9.00">1313</text>
</g>
<!-- &#45;3&#45;&gt;1313 -->
<g id="edge36" class="edge">
<title>&#45;3&#45;&gt;1313</title>
<path fill="none" stroke="red" stroke-width="0.35" d="M36.11,-693.54C58.68,-680.54 107.13,-652.65 138.8,-634.41"/>
<polygon fill="red" stroke="red" stroke-width="0.35" points="140.73,-637.33 147.65,-629.31 137.24,-631.27 140.73,-637.33"/>
</g>
<!-- &#45;4 -->
<g id="node4" class="node">
<title>&#45;4</title>
<polygon fill="lightgray" stroke="black" points="244.75,-780.41 220.75,-780.41 220.75,-762.41 244.75,-762.41 244.75,-780.41"/>
<text text-anchor="middle" x="232.75" y="-769.21" font-family="Times New Roman,serif" font-size="9.00">&#45;4</text>
</g>
<!-- 486 -->
<g id="node30" class="node">
<title>486</title>
<ellipse fill="white" stroke="black" cx="232.75" cy="-701.66" rx="21.43" ry="21.43"/>
<text text-anchor="middle" x="232.75" y="-699.46" font-family="Times New Roman,serif" font-size="9.00">486</text>
</g>
<!-- &#45;4&#45;&gt;486 -->
<g id="edge11" class="edge">
<title>&#45;4&#45;&gt;486</title>
<path fill="none" stroke="red" stroke-width="0.18" d="M232.75,-762.37C232.75,-755.09 232.75,-743.9 232.75,-733.16"/>
<polygon fill="red" stroke="red" stroke-width="0.18" points="236.25,-733.14 232.75,-723.14 229.25,-733.14 236.25,-733.14"/>
</g>
<!-- &#45;5 -->
<g id="node5" class="node">
<title>&#45;5</title>
<polygon fill="lightgray" stroke="black" points="286.75,-780.41 262.75,-780.41 262.75,-762.41 286.75,-762.41 286.75,-780.41"/>
<text text-anchor="middle" x="274.75" y="-769.21" font-family="Times New Roman,serif" font-size="9.00">&#45;5</text>
</g>
<!-- 1 -->
<g id="node13" class="node">
<title>1</title>
<ellipse fill="lightblue" stroke="black" cx="303.75" cy="-701.66" rx="14.7" ry="14.7"/>
<text text-anchor="middle" x="303.75" y="-699.46" font-family="Times New Roman,serif" font-size="9.00">1</text>
</g>
<!-- &#45;5&#45;&gt;1 -->
<g id="edge37" class="edge">
<title>&#45;5&#45;&gt;1</title>
<path fill="none" stroke="red" stroke-width="0.13" d="M278.19,-762.37C282.13,-753.15 288.77,-737.65 294.29,-724.75"/>
<polygon fill="red" stroke="red" stroke-width="0.13" points="297.52,-726.11 298.23,-715.54 291.08,-723.36 297.52,-726.11"/>
</g>
<!-- &#45;6 -->
<g id="node6" class="node">
<title>&#45;6</title>
<polygon fill="lightgray" stroke="black" points="180.75,-780.41 156.75,-780.41 156.75,-762.41 180.75,-762.41 180.75,-780.41"/>
<text text-anchor="middle" x="168.75" y="-769.21" font-family="Times New Roman,serif" font-size="9.00">&#45;6</text>
</g>
<!-- &#45;6&#45;&gt;1303 -->
<g id="edge18" class="edge">
<title>&#45;6&#45;&gt;1303</title>
<path fill="none" stroke="red" stroke-width="0.17" d="M168.75,-762.37C168.75,-755.93 168.75,-746.44 168.75,-736.9"/>
<polygon fill="red" stroke="red" stroke-width="0.17" points="172.25,-736.68 168.75,-726.68 165.25,-736.68 172.25,-736.68"/>
</g>
<!-- &#45;7 -->
<g id="node7" class="node">
<title>&#45;7</title>
<polygon fill="lightgray" stroke="black" points="309.75,-539.66 285.75,-539.66 285.75,-521.66 309.75,-521.66 309.75,-539.66"/>
<text text-anchor="middle" x="297.75" y="-528.46" font-family="Times New Roman,serif" font-size="9.00">&#45;7</text>
</g>
<!-- 0 -->
<g id="node12" class="node">
<title>0</title>
<ellipse fill="lightblue" stroke="black" cx="369.75" cy="-445.17" rx="14.7" ry="14.7"/>
<text text-anchor="middle" x="369.75" y="-442.97" font-family="Times New Roman,serif" font-size="9.00">0</text>
</g>
<!-- &#45;7&#45;&gt;0 -->
<g id="edge9" class="edge">
<title>&#45;7&#45;&gt;0</title>
<path fill="none" stroke="green" stroke-width="0.26" d="M304.65,-521.66C315.84,-508.68 338.24,-482.7 353.61,-464.88"/>
<polygon fill="green" stroke="green" stroke-width="0.26" points="356.63,-466.74 360.51,-456.88 351.33,-462.17 356.63,-466.74"/>
</g>
<!-- 1417 -->
<g id="node16" class="node">
<title>1417</title>
<ellipse fill="white" stroke="black" cx="197.75" cy="-195.74" rx="25" ry="25"/>
<text text-anchor="middle" x="197.75" y="-193.54" font-family="Times New Roman,serif" font-size="9.00">1417</text>
</g>
<!-- &#45;7&#45;&gt;1417 -->
<g id="edge25" class="edge">
<title>&#45;7&#45;&gt;1417</title>
<path fill="none" stroke="red" stroke-width="0.4" d="M298.81,-521.45C302.9,-486.85 315.01,-350.36 265.75,-256.49 260.76,-246.99 241.72,-230.61 225.06,-217.4"/>
<polygon fill="red" stroke="red" stroke-width="0.4" points="227.17,-214.61 217.14,-211.21 222.87,-220.13 227.17,-214.61"/>
</g>
<!-- 1662 -->
<g id="node34" class="node">
<title>1662</title>
<ellipse fill="white" stroke="black" cx="244.75" cy="-445.17" rx="25" ry="25"/>
<text text-anchor="middle" x="244.75" y="-442.97" font-family="Times New Roman,serif" font-size="9.00">1662</text>
</g>
<!-- &#45;7&#45;&gt;1662 -->
<g id="edge42" class="edge">
<title>&#45;7&#45;&gt;1662</title>
<path fill="none" stroke="green" stroke-width="0.33" d="M292.67,-521.66C285.93,-511.05 273.69,-491.76 263.27,-475.34"/>
<polygon fill="green" stroke="green" stroke-width="0.33" points="266.02,-473.15 257.71,-466.58 260.11,-476.9 266.02,-473.15"/>
</g>
<!-- &#45;8 -->
<g id="node8" class="node">
<title>&#45;8</title>
<polygon fill="lightgray" stroke="black" points="376.75,-780.41 352.75,-780.41 352.75,-762.41 376.75,-762.41 376.75,-780.41"/>
<text text-anchor="middle" x="364.75" y="-769.21" font-family="Times New Roman,serif" font-size="9.00">&#45;8</text>
</g>
<!-- &#45;9 -->
<g id="node9" class="node">
<title>&#45;9</title>
<polygon fill="lightgray" stroke="black" points="467.75,-372.2 443.75,-372.2 443.75,-354.2 467.75,-354.2 467.75,-372.2"/>
<text text-anchor="middle" x="455.75" y="-361" font-family="Times New Roman,serif" font-size="9.00">&#45;9</text>
</g>
<!-- 3 -->
<g id="node15" class="node">
<title>3</title>
<ellipse fill="lightblue" stroke="black" cx="455.75" cy="-281.24" rx="14.7" ry="14.7"/>
<text text-anchor="middle" x="455.75" y="-279.04" font-family="Times New Roman,serif" font-size="9.00">3</text>
</g>
<!-- &#45;9&#45;&gt;3 -->
<g id="edge1" class="edge">
<title>&#45;9&#45;&gt;3</title>
<path fill="none" stroke="green" stroke-width="2.42" d="M455.75,-353.95C455.75,-342.86 455.75,-322.69 455.75,-306.55"/>
<polygon fill="green" stroke="green" stroke-width="2.42" points="459.25,-306.19 455.75,-296.19 452.25,-306.19 459.25,-306.19"/>
</g>
<!-- 1184 -->
<g id="node21" class="node">
<title>1184</title>
<ellipse fill="white" stroke="black" cx="513.75" cy="-281.24" rx="25" ry="25"/>
<text text-anchor="middle" x="513.75" y="-279.04" font-family="Times New Roman,serif" font-size="9.00">1184</text>
</g>
<!-- &#45;9&#45;&gt;1184 -->
<g id="edge24" class="edge">
<title>&#45;9&#45;&gt;1184</title>
<path fill="none" stroke="red" stroke-width="0.46" d="M461.74,-353.95C469.21,-343.64 482.37,-325.5 493.59,-310.04"/>
<polygon fill="red" stroke="red" stroke-width="0.46" points="496.53,-311.94 499.57,-301.79 490.86,-307.83 496.53,-311.94"/>
</g>
<!-- 753 -->
<g id="node32" class="node">
<title>753</title>
<ellipse fill="white" stroke="black" cx="401.75" cy="-281.24" rx="21.43" ry="21.43"/>
<text text-anchor="middle" x="401.75" y="-279.04" font-family="Times New Roman,serif" font-size="9.00">753</text>
</g>
<!-- &#45;9&#45;&gt;753 -->
<g id="edge14" class="edge">
<title>&#45;9&#45;&gt;753</title>
<path fill="none" stroke="green" stroke-width="0.13" d="M450.17,-353.95C442.85,-343.11 429.67,-323.58 418.9,-307.64"/>
<polygon fill="green" stroke="green" stroke-width="0.13" points="421.72,-305.56 413.22,-299.23 415.92,-309.47 421.72,-305.56"/>
</g>
<!-- &#45;10 -->
<g id="node10" class="node">
<title>&#45;10</title>
<polygon fill="lightgray" stroke="black" points="384.25,-539.66 355.25,-539.66 355.25,-521.66 384.25,-521.66 384.25,-539.66"/>
<text text-anchor="middle" x="369.75" y="-528.46" font-family="Times New Roman,serif" font-size="9.00">&#45;10</text>
</g>
<!-- &#45;10&#45;&gt;0 -->
<g id="edge2" class="edge">
<title>&#45;10&#45;&gt;0</title>
<path fill="none" stroke="green" stroke-width="2.03" d="M369.75,-521.66C369.75,-509.89 369.75,-487.46 369.75,-470.09"/>
<polygon fill="green" stroke="green" stroke-width="2.03" points="373.25,-470.07 369.75,-460.07 366.25,-470.07 373.25,-470.07"/>
</g>
<!-- &#45;11 -->
<g id="node11" class="node">
<title>&#45;11</title>
<polygon fill="lightgray" stroke="black" points="334.25,-780.41 305.25,-780.41 305.25,-762.41 334.25,-762.41 334.25,-780.41"/>
<text text-anchor="middle" x="319.75" y="-769.21" font-family="Times New Roman,serif" font-size="9.00">&#45;11</text>
</g>
<!-- &#45;11&#45;&gt;1 -->
<g id="edge3" class="edge">
<title>&#45;11&#45;&gt;1</title>
<path fill="none" stroke="green" stroke-width="2.3" d="M317.85,-762.37C315.76,-753.5 312.28,-738.8 309.31,-726.21"/>
<polygon fill="green" stroke="green" stroke-width="2.3" points="312.68,-725.23 306.97,-716.3 305.86,-726.84 312.68,-725.23"/>
</g>
<!-- 0&#45;&gt;753 -->
<g id="edge4" class="edge">
<title>0&#45;&gt;753</title>
<path fill="none" stroke="red" stroke-width="0.14" stroke-dasharray="1,5" d="M372.48,-430.36C377.61,-404.37 388.83,-347.62 395.79,-312.4"/>
<polygon fill="red" stroke="red" stroke-width="0.14" points="399.3,-312.71 397.8,-302.22 392.43,-311.35 399.3,-312.71"/>
</g>
<!-- 2 -->
<g id="node14" class="node">
<title>2</title>
<ellipse fill="lightblue" stroke="black" cx="241.75" cy="-281.24" rx="14.7" ry="14.7"/>
<text text-anchor="middle" x="241.75" y="-279.04" font-family="Times New Roman,serif" font-size="9.00">2</text>
</g>
<!-- 818 -->
<g id="node23" class="node">
<title>818</title>
<ellipse fill="white" stroke="black" cx="261.75" cy="-195.74" rx="21.43" ry="21.43"/>
<text text-anchor="middle" x="261.75" y="-193.54" font-family="Times New Roman,serif" font-size="9.00">818</text>
</g>
<!-- 2&#45;&gt;818 -->
<g id="edge8" class="edge">
<title>2&#45;&gt;818</title>
<path fill="none" stroke="green" stroke-width="0.86" d="M245.05,-266.45C247.65,-255.6 251.37,-240.09 254.63,-226.44"/>
<polygon fill="green" stroke="green" stroke-width="0.86" points="258.09,-227.03 257.02,-216.49 251.29,-225.4 258.09,-227.03"/>
</g>
<!-- 910 -->
<g id="node18" class="node">
<title>910</title>
<ellipse fill="white" stroke="black" cx="137.75" cy="-110.25" rx="21.43" ry="21.43"/>
<text text-anchor="middle" x="137.75" y="-108.05" font-family="Times New Roman,serif" font-size="9.00">910</text>
</g>
<!-- 1417&#45;&gt;910 -->
<g id="edge28" class="edge">
<title>1417&#45;&gt;910</title>
<path fill="none" stroke="red" stroke-width="0.47" d="M183.53,-174.96C175.2,-163.36 164.59,-148.6 155.68,-136.21"/>
<polygon fill="red" stroke="red" stroke-width="0.47" points="158.52,-134.15 149.84,-128.07 152.83,-138.24 158.52,-134.15"/>
</g>
<!-- 1293&#45;&gt;910 -->
<g id="edge29" class="edge">
<title>1293&#45;&gt;910</title>
<path fill="none" stroke="green" stroke-width="0.98" d="M41.26,-259.53C54.7,-237.43 76.82,-201.47 96.75,-170.99 104.23,-159.56 112.74,-147.08 120.06,-136.49"/>
<polygon fill="green" stroke="green" stroke-width="0.98" points="123.05,-138.32 125.88,-128.11 117.3,-134.32 123.05,-138.32"/>
</g>
<!-- 1586 -->
<g id="node24" class="node">
<title>1586</title>
<ellipse fill="white" stroke="black" cx="24.75" cy="-195.74" rx="25" ry="25"/>
<text text-anchor="middle" x="24.75" y="-193.54" font-family="Times New Roman,serif" font-size="9.00">1586</text>
</g>
<!-- 1293&#45;&gt;1586 -->
<g id="edge31" class="edge">
<title>1293&#45;&gt;1586</title>
<path fill="none" stroke="red" stroke-width="0.54" d="M27.59,-256.09C27.21,-248.15 26.78,-239.16 26.37,-230.63"/>
<polygon fill="red" stroke="red" stroke-width="0.54" points="29.86,-230.37 25.89,-220.55 22.87,-230.71 29.86,-230.37"/>
</g>
<!-- 1277 -->
<g id="node33" class="node">
<title>1277</title>
<ellipse fill="white" stroke="black" cx="130.75" cy="-195.74" rx="25" ry="25"/>
<text text-anchor="middle" x="130.75" y="-193.54" font-family="Times New Roman,serif" font-size="9.00">1277</text>
</g>
<!-- 1293&#45;&gt;1277 -->
<g id="edge13" class="edge">
<title>1293&#45;&gt;1277</title>
<path fill="none" stroke="green" stroke-width="0.18" d="M47.46,-264.93C63.32,-251.94 86.26,-233.17 104.05,-218.6"/>
<polygon fill="green" stroke="green" stroke-width="0.18" points="106.29,-221.29 111.81,-212.24 101.86,-215.87 106.29,-221.29"/>
</g>
<!-- 914&#45;&gt;2 -->
<g id="edge5" class="edge">
<title>914&#45;&gt;2</title>
<path fill="none" stroke="red" stroke-width="0.27" d="M195.77,-345.63C205.02,-332.88 217.84,-315.21 227.59,-301.76"/>
<polygon fill="red" stroke="red" stroke-width="0.27" points="230.45,-303.78 233.49,-293.63 224.78,-299.67 230.45,-303.78"/>
</g>
<!-- 1365 -->
<g id="node28" class="node">
<title>1365</title>
<ellipse fill="white" stroke="black" cx="183.75" cy="-281.24" rx="25" ry="25"/>
<text text-anchor="middle" x="183.75" y="-279.04" font-family="Times New Roman,serif" font-size="9.00">1365</text>
</g>
<!-- 914&#45;&gt;1365 -->
<g id="edge21" class="edge">
<title>914&#45;&gt;1365</title>
<path fill="none" stroke="green" stroke-width="0.2" d="M183.75,-341.61C183.75,-333.91 183.75,-324.95 183.75,-316.36"/>
<polygon fill="green" stroke="green" stroke-width="0.2" points="187.25,-316.17 183.75,-306.17 180.25,-316.17 187.25,-316.17"/>
</g>
<!-- 914&#45;&gt;753 -->
<g id="edge6" class="edge">
<title>914&#45;&gt;753</title>
<path fill="none" stroke="green" stroke-width="0.18" stroke-dasharray="1,5" d="M204.76,-358.62C240.58,-351.93 315.09,-335.49 371.75,-305.99 373.81,-304.92 375.86,-303.7 377.88,-302.39"/>
<polygon fill="green" stroke="green" stroke-width="0.18" points="380.29,-304.96 386.33,-296.26 376.18,-299.29 380.29,-304.96"/>
</g>
<!-- 914&#45;&gt;1277 -->
<g id="edge12" class="edge">
<title>914&#45;&gt;1277</title>
<path fill="none" stroke="red" stroke-width="0.12" d="M171.26,-345.34C163.9,-334.59 155.03,-320.09 149.75,-305.99 140.7,-281.82 135.92,-253 133.42,-231.04"/>
<polygon fill="red" stroke="red" stroke-width="0.12" points="136.87,-230.44 132.36,-220.85 129.91,-231.16 136.87,-230.44"/>
</g>
<!-- 1303&#45;&gt;1313 -->
<g id="edge16" class="edge">
<title>1303&#45;&gt;1313</title>
<path fill="none" stroke="red" stroke-width="0.6" d="M168.75,-676.51C168.75,-668.56 168.75,-659.58 168.75,-651.05"/>
<polygon fill="red" stroke="red" stroke-width="0.6" points="172.25,-650.97 168.75,-640.97 165.25,-650.97 172.25,-650.97"/>
</g>
<!-- 1313&#45;&gt;914 -->
<g id="edge17" class="edge">
<title>1313&#45;&gt;914</title>
<path fill="none" stroke="red" stroke-width="0.38" d="M169.34,-591.28C169.96,-569.14 171.07,-535.28 172.75,-505.91 174.94,-467.47 178.55,-423.23 181.03,-394.55"/>
<polygon fill="red" stroke="red" stroke-width="0.38" points="184.54,-394.63 181.92,-384.37 177.56,-394.02 184.54,-394.63"/>
</g>
<!-- 1496 -->
<g id="node29" class="node">
<title>1496</title>
<ellipse fill="white" stroke="black" cx="206.75" cy="-530.66" rx="25" ry="25"/>
<text text-anchor="middle" x="206.75" y="-528.46" font-family="Times New Roman,serif" font-size="9.00">1496</text>
</g>
<!-- 1313&#45;&gt;1496 -->
<g id="edge26" class="edge">
<title>1313&#45;&gt;1496</title>
<path fill="none" stroke="red" stroke-width="0.35" d="M178.73,-593.22C182.97,-583.92 187.98,-572.91 192.58,-562.8"/>
<polygon fill="red" stroke="red" stroke-width="0.35" points="195.87,-564.01 196.83,-553.45 189.5,-561.11 195.87,-564.01"/>
</g>
<!-- 818&#45;&gt;910 -->
<g id="edge10" class="edge">
<title>818&#45;&gt;910</title>
<path fill="none" stroke="green" stroke-width="0.94" d="M245.79,-181.61C241.32,-178.07 236.41,-174.3 231.75,-170.99 209.67,-155.3 183.61,-138.89 164.53,-127.25"/>
<polygon fill="green" stroke="green" stroke-width="0.94" points="166.15,-124.14 155.78,-121.94 162.52,-130.12 166.15,-124.14"/>
</g>
<!-- 1619 -->
<g id="node27" class="node">
<title>1619</title>
<ellipse fill="white" stroke="black" cx="370.75" cy="-110.25" rx="25" ry="25"/>
<text text-anchor="middle" x="370.75" y="-108.05" font-family="Times New Roman,serif" font-size="9.00">1619</text>
</g>
<!-- 818&#45;&gt;1619 -->
<g id="edge38" class="edge">
<title>818&#45;&gt;1619</title>
<path fill="none" stroke="green" stroke-width="0.76" d="M278.3,-182.06C295.58,-168.83 322.95,-147.86 343.43,-132.17"/>
<polygon fill="green" stroke="green" stroke-width="0.76" points="345.65,-134.88 351.46,-126.02 341.39,-129.32 345.65,-134.88"/>
</g>
<!-- 1586&#45;&gt;910 -->
<g id="edge32" class="edge">
<title>1586&#45;&gt;910</title>
<path fill="none" stroke="green" stroke-width="1.46" d="M44.17,-180.39C63.17,-166.36 92.17,-144.93 112.85,-129.65"/>
<polygon fill="green" stroke="green" stroke-width="1.46" points="115.18,-132.27 121.15,-123.51 111.02,-126.64 115.18,-132.27"/>
</g>
<!-- 1335&#45;&gt;914 -->
<g id="edge20" class="edge">
<title>1335&#45;&gt;914</title>
<path fill="none" stroke="green" stroke-width="0.84" d="M83,-430.78C103.55,-417.2 135.44,-396.13 157.82,-381.34"/>
<polygon fill="green" stroke="green" stroke-width="0.84" points="159.77,-384.24 166.19,-375.81 155.91,-378.4 159.77,-384.24"/>
</g>
<!-- 1335&#45;&gt;1277 -->
<g id="edge39" class="edge">
<title>1335&#45;&gt;1277</title>
<path fill="none" stroke="green" stroke-width="0.22" d="M69.15,-420.89C81.3,-376.66 107.77,-280.37 121.72,-229.59"/>
<polygon fill="green" stroke="green" stroke-width="0.22" points="125.14,-230.35 124.42,-219.78 118.39,-228.49 125.14,-230.35"/>
</g>
<!-- 1084 -->
<g id="node26" class="node">
<title>1084</title>
<ellipse fill="white" stroke="black" cx="343.75" cy="-24.75" rx="25" ry="25"/>
<text text-anchor="middle" x="343.75" y="-22.55" font-family="Times New Roman,serif" font-size="9.00">1084</text>
</g>
<!-- 1619&#45;&gt;1084 -->
<g id="edge35" class="edge">
<title>1619&#45;&gt;1084</title>
<path fill="none" stroke="green" stroke-width="0.67" d="M363.37,-86.43C360.54,-77.69 357.26,-67.54 354.2,-58.07"/>
<polygon fill="green" stroke="green" stroke-width="0.67" points="357.52,-56.98 351.12,-48.54 350.86,-59.13 357.52,-56.98"/>
</g>
<!-- 1365&#45;&gt;1417 -->
<g id="edge30" class="edge">
<title>1365&#45;&gt;1417</title>
<path fill="none" stroke="red" stroke-width="0.24" d="M187.72,-256.54C189.09,-248.36 190.66,-239.04 192.13,-230.23"/>
<polygon fill="red" stroke="red" stroke-width="0.24" points="195.61,-230.66 193.81,-220.22 188.71,-229.5 195.61,-230.66"/>
</g>
<!-- 1365&#45;&gt;1277 -->
<g id="edge22" class="edge">
<title>1365&#45;&gt;1277</title>
<path fill="none" stroke="red" stroke-width="0.21" d="M170.92,-260.03C164.39,-249.75 156.34,-237.06 149.17,-225.76"/>
<polygon fill="red" stroke="red" stroke-width="0.21" points="151.96,-223.63 143.64,-217.06 146.05,-227.38 151.96,-223.63"/>
</g>
<!-- 1496&#45;&gt;914 -->
<g id="edge27" class="edge">
<title>1496&#45;&gt;914</title>
<path fill="none" stroke="red" stroke-width="0.45" stroke-dasharray="1,5" d="M203.45,-505.96C199.38,-476.65 192.44,-426.74 187.98,-394.63"/>
<polygon fill="red" stroke="red" stroke-width="0.45" points="191.41,-393.91 186.57,-384.48 184.48,-394.87 191.41,-393.91"/>
</g>
<!-- 1496&#45;&gt;1662 -->
<g id="edge40" class="edge">
<title>1496&#45;&gt;1662</title>
<path fill="none" stroke="green" stroke-width="0.34" d="M216.73,-507.72C220.97,-498.42 225.98,-487.42 230.58,-477.3"/>
<polygon fill="green" stroke="green" stroke-width="0.34" points="233.87,-478.51 234.83,-467.96 227.5,-475.61 233.87,-478.51"/>
</g>
<!-- 1385 -->
<g id="node31" class="node">
<title>1385</title>
<ellipse fill="white" stroke="black" cx="337.75" cy="-281.24" rx="25" ry="25"/>
<text text-anchor="middle" x="337.75" y="-279.04" font-family="Times New Roman,serif" font-size="9.00">1385</text>
</g>
<!-- 1385&#45;&gt;1084 -->
<g id="edge23" class="edge">
<title>1385&#45;&gt;1084</title>
<path fill="none" stroke="red" stroke-width="0.49" d="M336.65,-256.23C335.18,-219.44 333.16,-146.93 336.75,-85.5 337.24,-77.05 338.12,-67.96 339.1,-59.48"/>
<polygon fill="red" stroke="red" stroke-width="0.49" points="342.58,-59.88 340.32,-49.53 335.63,-59.03 342.58,-59.88"/>
</g>
<!-- 1385&#45;&gt;1619 -->
<g id="edge34" class="edge">
<title>1385&#45;&gt;1619</title>
<path fill="none" stroke="red" stroke-width="0.27" d="M342.34,-256.74C348.01,-227.69 357.71,-178.04 364.17,-144.94"/>
<polygon fill="red" stroke="red" stroke-width="0.27" points="367.66,-145.3 366.15,-134.82 360.79,-143.96 367.66,-145.3"/>
</g>
<!-- 1385&#45;&gt;1277 -->
<g id="edge43" class="edge">
<title>1385&#45;&gt;1277</title>
<path fill="none" stroke="green" stroke-width="0.29" d="M314.35,-272.41C268.5,-257.03 170.68,-224.08 163.75,-220.49 161.96,-219.57 160.16,-218.56 158.38,-217.49"/>
<polygon fill="green" stroke="green" stroke-width="0.29" points="159.97,-214.34 149.68,-211.8 156.14,-220.2 159.97,-214.34"/>
</g>
<!-- 753&#45;&gt;1619 -->
<g id="edge44" class="edge">
<title>753&#45;&gt;1619</title>
<path fill="none" stroke="red" stroke-width="0.32" d="M398.07,-260.19C392.85,-231.75 383.23,-179.31 376.91,-144.86"/>
<polygon fill="red" stroke="red" stroke-width="0.32" points="380.31,-143.99 375.07,-134.79 373.43,-145.26 380.31,-143.99"/>
</g>
<!-- 1662&#45;&gt;914 -->
<g id="edge41" class="edge">
<title>1662&#45;&gt;914</title>
<path fill="none" stroke="red" stroke-width="0.3" d="M229.98,-424.81C221.7,-413.95 211.28,-400.29 202.43,-388.69"/>
<polygon fill="red" stroke="red" stroke-width="0.3" points="205.17,-386.51 196.32,-380.68 199.6,-390.75 205.17,-386.51"/>
</g>
</g>
</svg>
