<?xml version="1.0" encoding="UTF-8" standalone="no"?>
<!DOCTYPE svg PUBLIC "-//W3C//DTD SVG 1.1//EN"
 "http://www.w3.org/Graphics/SVG/1.1/DTD/svg11.dtd">
<!-- Generated by graphviz version 2.47.1 (20210417.1919)
 -->
<!-- Pages: 1 -->
<svg width="679pt" height="327pt"
 viewBox="0.00 0.00 679.37 326.98" xmlns="http://www.w3.org/2000/svg" xmlns:xlink="http://www.w3.org/1999/xlink">
<g id="graph0" class="graph" transform="scale(1 1) rotate(0) translate(4 322.98)">
<polygon fill="white" stroke="transparent" points="-4,4 -4,-322.98 675.37,-322.98 675.37,4 -4,4"/>
<!-- &#45;1 -->
<g id="node1" class="node">
<title>&#45;1</title>
<polygon fill="lightgray" stroke="black" points="93.37,-252.76 69.37,-252.76 69.37,-234.76 93.37,-234.76 93.37,-252.76"/>
<text text-anchor="middle" x="81.37" y="-241.56" font-family="Times New Roman,serif" font-size="9.00">&#45;1</text>
</g>
<!-- 1 -->
<g id="node13" class="node">
<title>1</title>
<ellipse fill="lightblue" stroke="black" cx="139.37" cy="-165.34" rx="14.7" ry="14.7"/>
<text text-anchor="middle" x="139.37" y="-163.14" font-family="Times New Roman,serif" font-size="9.00">1</text>
</g>
<!-- &#45;1&#45;&gt;1 -->
<g id="edge1" class="edge">
<title>&#45;1&#45;&gt;1</title>
<path fill="none" stroke="red" stroke-width="0.95" d="M87.58,-234.59C96.35,-223.02 112.66,-201.53 124.64,-185.75"/>
<polygon fill="red" stroke="red" stroke-width="0.95" points="127.52,-187.75 130.77,-177.67 121.94,-183.52 127.52,-187.75"/>
</g>
<!-- &#45;2 -->
<g id="node2" class="node">
<title>&#45;2</title>
<polygon fill="lightgray" stroke="black" points="595.37,-318.98 571.37,-318.98 571.37,-300.98 595.37,-300.98 595.37,-318.98"/>
<text text-anchor="middle" x="583.37" y="-307.78" font-family="Times New Roman,serif" font-size="9.00">&#45;2</text>
</g>
<!-- 3 -->
<g id="node15" class="node">
<title>3</title>
<ellipse fill="lightblue" stroke="black" cx="499.37" cy="-165.34" rx="14.7" ry="14.7"/>
<text text-anchor="middle" x="499.37" y="-163.14" font-family="Times New Roman,serif" font-size="9.00">3</text>
</g>
<!-- &#45;2&#45;&gt;3 -->
<g id="edge2" class="edge">
<title>&#45;2&#45;&gt;3</title>
<path fill="none" stroke="green" stroke-width="0.11" stroke-dasharray="1,5" d="M579.04,-300.78C570.82,-285.31 552.26,-250.84 535.37,-222.55 528.2,-210.55 519.79,-197.37 512.91,-186.79"/>
<polygon fill="green" stroke="green" stroke-width="0.11" points="515.72,-184.71 507.32,-178.26 509.87,-188.55 515.72,-184.71"/>
</g>
<!-- 806 -->
<g id="node17" class="node">
<title>806</title>
<ellipse fill="white" stroke="black" cx="608.37" cy="-243.76" rx="21.43" ry="21.43"/>
<text text-anchor="middle" x="608.37" y="-241.56" font-family="Times New Roman,serif" font-size="9.00">806</text>
</g>
<!-- &#45;2&#45;&gt;806 -->
<g id="edge32" class="edge">
<title>&#45;2&#45;&gt;806</title>
<path fill="none" stroke="red" stroke-width="0.11" d="M586.54,-300.85C589.26,-293.84 593.37,-283.29 597.29,-273.23"/>
<polygon fill="red" stroke="red" stroke-width="0.11" points="600.57,-274.45 600.94,-263.86 594.05,-271.91 600.57,-274.45"/>
</g>
<!-- &#45;3 -->
<g id="node3" class="node">
<title>&#45;3</title>
<polygon fill="lightgray" stroke="black" points="365.37,-252.76 341.37,-252.76 341.37,-234.76 365.37,-234.76 365.37,-252.76"/>
<text text-anchor="middle" x="353.37" y="-241.56" font-family="Times New Roman,serif" font-size="9.00">&#45;3</text>
</g>
<!-- 0 -->
<g id="node12" class="node">
<title>0</title>
<ellipse fill="lightblue" stroke="black" cx="329.37" cy="-165.34" rx="14.7" ry="14.7"/>
<text text-anchor="middle" x="329.37" y="-163.14" font-family="Times New Roman,serif" font-size="9.00">0</text>
</g>
<!-- &#45;3&#45;&gt;0 -->
<g id="edge3" class="edge">
<title>&#45;3&#45;&gt;0</title>
<path fill="none" stroke="red" stroke-width="0.17" d="M350.8,-234.59C347.46,-223.95 341.49,-204.92 336.69,-189.66"/>
<polygon fill="red" stroke="red" stroke-width="0.17" points="339.94,-188.33 333.61,-179.84 333.27,-190.43 339.94,-188.33"/>
</g>
<!-- &#45;3&#45;&gt;1 -->
<g id="edge4" class="edge">
<title>&#45;3&#45;&gt;1</title>
<path fill="none" stroke="red" stroke-width="0.38" d="M346.73,-234.66C342.92,-230.49 337.82,-225.65 332.37,-222.55 279.89,-192.69 259.2,-203.91 201.37,-186.55 188.59,-182.71 174.43,-178.12 162.87,-174.29"/>
<polygon fill="red" stroke="red" stroke-width="0.38" points="163.7,-170.87 153.1,-171.02 161.47,-177.51 163.7,-170.87"/>
</g>
<!-- &#45;3&#45;&gt;3 -->
<g id="edge5" class="edge">
<title>&#45;3&#45;&gt;3</title>
<path fill="none" stroke="green" stroke-width="0.43" stroke-dasharray="1,5" d="M365.57,-236.38C390.18,-223.5 446.1,-194.23 477.29,-177.9"/>
<polygon fill="green" stroke="green" stroke-width="0.43" points="479.24,-180.82 486.48,-173.09 476,-174.62 479.24,-180.82"/>
</g>
<!-- &#45;4 -->
<g id="node4" class="node">
<title>&#45;4</title>
<polygon fill="lightgray" stroke="black" points="51.37,-252.76 27.37,-252.76 27.37,-234.76 51.37,-234.76 51.37,-252.76"/>
<text text-anchor="middle" x="39.37" y="-241.56" font-family="Times New Roman,serif" font-size="9.00">&#45;4</text>
</g>
<!-- &#45;4&#45;&gt;1 -->
<g id="edge6" class="edge">
<title>&#45;4&#45;&gt;1</title>
<path fill="none" stroke="red" stroke-width="0.39" d="M47.29,-234.6C51.12,-230.8 55.85,-226.3 60.37,-222.55 79.22,-206.92 102.15,-190.91 118.44,-179.99"/>
<polygon fill="red" stroke="red" stroke-width="0.39" points="120.79,-182.63 127.19,-174.19 116.92,-176.8 120.79,-182.63"/>
</g>
<!-- 2 -->
<g id="node14" class="node">
<title>2</title>
<ellipse fill="lightblue" stroke="black" cx="231.37" cy="-14.85" rx="14.7" ry="14.7"/>
<text text-anchor="middle" x="231.37" y="-12.65" font-family="Times New Roman,serif" font-size="9.00">2</text>
</g>
<!-- &#45;4&#45;&gt;2 -->
<g id="edge7" class="edge">
<title>&#45;4&#45;&gt;2</title>
<path fill="none" stroke="green" stroke-width="0.23" stroke-dasharray="1,5" d="M45.27,-234.67C57.78,-217.6 88.07,-176.81 115.37,-144.12 149.26,-103.54 191.41,-58.1 214.43,-33.68"/>
<polygon fill="green" stroke="green" stroke-width="0.23" points="217.13,-35.91 221.46,-26.24 212.04,-31.1 217.13,-35.91"/>
</g>
<!-- &#45;5 -->
<g id="node5" class="node">
<title>&#45;5</title>
<polygon fill="lightgray" stroke="black" points="215.37,-252.76 191.37,-252.76 191.37,-234.76 215.37,-234.76 215.37,-252.76"/>
<text text-anchor="middle" x="203.37" y="-241.56" font-family="Times New Roman,serif" font-size="9.00">&#45;5</text>
</g>
<!-- &#45;5&#45;&gt;0 -->
<g id="edge8" class="edge">
<title>&#45;5&#45;&gt;0</title>
<path fill="none" stroke="red" stroke-width="0.67" stroke-dasharray="1,5" d="M211.52,-234.37C215.49,-230.52 220.47,-226.04 225.37,-222.55 251.75,-203.75 285.13,-186.76 306.85,-176.5"/>
<polygon fill="red" stroke="red" stroke-width="0.67" points="308.35,-179.67 315.95,-172.28 305.4,-173.32 308.35,-179.67"/>
</g>
<!-- &#45;5&#45;&gt;1 -->
<g id="edge9" class="edge">
<title>&#45;5&#45;&gt;1</title>
<path fill="none" stroke="red" stroke-width="0.29" stroke-dasharray="1,5" d="M196.52,-234.59C186.73,-222.89 168.44,-201.05 155.18,-185.22"/>
<polygon fill="red" stroke="red" stroke-width="0.29" points="157.52,-182.57 148.42,-177.15 152.16,-187.06 157.52,-182.57"/>
</g>
<!-- &#45;5&#45;&gt;2 -->
<g id="edge10" class="edge">
<title>&#45;5&#45;&gt;2</title>
<path fill="none" stroke="green" stroke-width="0.41" stroke-dasharray="1,5" d="M203,-234.76C202.51,-223.86 201.68,-203.74 201.37,-186.55 201.03,-167.7 199.21,-162.86 201.37,-144.12 205.68,-106.75 216.84,-64.44 224.26,-38.97"/>
<polygon fill="green" stroke="green" stroke-width="0.41" points="227.69,-39.73 227.19,-29.15 220.98,-37.74 227.69,-39.73"/>
</g>
<!-- 544 -->
<g id="node16" class="node">
<title>544</title>
<ellipse fill="white" stroke="black" cx="231.37" cy="-165.34" rx="21.43" ry="21.43"/>
<text text-anchor="middle" x="231.37" y="-163.14" font-family="Times New Roman,serif" font-size="9.00">544</text>
</g>
<!-- &#45;5&#45;&gt;544 -->
<g id="edge34" class="edge">
<title>&#45;5&#45;&gt;544</title>
<path fill="none" stroke="red" stroke-width="0.18" d="M206.37,-234.59C209.83,-225.14 215.71,-209.07 220.91,-194.9"/>
<polygon fill="red" stroke="red" stroke-width="0.18" points="224.2,-196.09 224.35,-185.49 217.63,-193.68 224.2,-196.09"/>
</g>
<!-- &#45;6 -->
<g id="node6" class="node">
<title>&#45;6</title>
<polygon fill="lightgray" stroke="black" points="314.37,-318.98 290.37,-318.98 290.37,-300.98 314.37,-300.98 314.37,-318.98"/>
<text text-anchor="middle" x="302.37" y="-307.78" font-family="Times New Roman,serif" font-size="9.00">&#45;6</text>
</g>
<!-- &#45;6&#45;&gt;0 -->
<g id="edge11" class="edge">
<title>&#45;6&#45;&gt;0</title>
<path fill="none" stroke="green" stroke-width="0.38" stroke-dasharray="1,5" d="M314.51,-305.64C331.45,-300.25 361.54,-287.85 374.37,-264.98 383.59,-248.53 380.61,-240.34 374.37,-222.55 369.03,-207.32 357.63,-193.16 347.64,-182.86"/>
<polygon fill="green" stroke="green" stroke-width="0.38" points="350,-180.27 340.4,-175.78 345.11,-185.27 350,-180.27"/>
</g>
<!-- &#45;6&#45;&gt;1 -->
<g id="edge12" class="edge">
<title>&#45;6&#45;&gt;1</title>
<path fill="none" stroke="red" stroke-width="0.11" d="M289.88,-307.51C255.18,-303.15 158.99,-289.08 140.37,-264.98 123.9,-243.67 127.29,-211.31 132.35,-189.53"/>
<polygon fill="red" stroke="red" stroke-width="0.11" points="135.76,-190.34 134.89,-179.78 128.99,-188.57 135.76,-190.34"/>
</g>
<!-- &#45;6&#45;&gt;2 -->
<g id="edge13" class="edge">
<title>&#45;6&#45;&gt;2</title>
<path fill="none" stroke="red" stroke-width="0.15" d="M290.25,-309.08C240.67,-309.23 54.33,-306.94 18.37,-264.98 -60.69,-172.73 140.27,-61.07 209.17,-26.54"/>
<polygon fill="red" stroke="red" stroke-width="0.15" points="210.91,-29.58 218.33,-22.02 207.81,-23.31 210.91,-29.58"/>
</g>
<!-- &#45;6&#45;&gt;3 -->
<g id="edge14" class="edge">
<title>&#45;6&#45;&gt;3</title>
<path fill="none" stroke="red" stroke-width="0.22" d="M314.55,-308.23C354.21,-305.5 478.48,-294.7 502.37,-264.98 519.34,-243.86 514.2,-211.2 507.79,-189.31"/>
<polygon fill="red" stroke="red" stroke-width="0.22" points="511.04,-187.97 504.64,-179.53 504.38,-190.12 511.04,-187.97"/>
</g>
<!-- 796 -->
<g id="node19" class="node">
<title>796</title>
<ellipse fill="white" stroke="black" cx="302.37" cy="-243.76" rx="21.43" ry="21.43"/>
<text text-anchor="middle" x="302.37" y="-241.56" font-family="Times New Roman,serif" font-size="9.00">796</text>
</g>
<!-- &#45;6&#45;&gt;796 -->
<g id="edge30" class="edge">
<title>&#45;6&#45;&gt;796</title>
<path fill="none" stroke="red" stroke-width="0.14" d="M302.37,-300.85C302.37,-294.3 302.37,-284.67 302.37,-275.23"/>
<polygon fill="red" stroke="red" stroke-width="0.14" points="305.87,-275.22 302.37,-265.22 298.87,-275.22 305.87,-275.22"/>
</g>
<!-- &#45;7 -->
<g id="node7" class="node">
<title>&#45;7</title>
<polygon fill="lightgray" stroke="black" points="173.37,-252.76 149.37,-252.76 149.37,-234.76 173.37,-234.76 173.37,-252.76"/>
<text text-anchor="middle" x="161.37" y="-241.56" font-family="Times New Roman,serif" font-size="9.00">&#45;7</text>
</g>
<!-- &#45;7&#45;&gt;0 -->
<g id="edge15" class="edge">
<title>&#45;7&#45;&gt;0</title>
<path fill="none" stroke="green" stroke-width="0.28" d="M168.51,-234.47C172.31,-230.45 177.24,-225.81 182.37,-222.55 203.47,-209.15 269.48,-186.2 305.44,-174.19"/>
<polygon fill="green" stroke="green" stroke-width="0.28" points="306.75,-177.44 315.14,-170.97 304.55,-170.8 306.75,-177.44"/>
</g>
<!-- &#45;7&#45;&gt;1 -->
<g id="edge16" class="edge">
<title>&#45;7&#45;&gt;1</title>
<path fill="none" stroke="green" stroke-width="0.76" stroke-dasharray="1,5" d="M159.02,-234.59C155.95,-223.95 150.48,-204.92 146.08,-189.66"/>
<polygon fill="green" stroke="green" stroke-width="0.76" points="149.39,-188.48 143.26,-179.84 142.66,-190.41 149.39,-188.48"/>
</g>
<!-- &#45;8 -->
<g id="node8" class="node">
<title>&#45;8</title>
<polygon fill="lightgray" stroke="black" points="671.37,-252.76 647.37,-252.76 647.37,-234.76 671.37,-234.76 671.37,-252.76"/>
<text text-anchor="middle" x="659.37" y="-241.56" font-family="Times New Roman,serif" font-size="9.00">&#45;8</text>
</g>
<!-- &#45;8&#45;&gt;2 -->
<g id="edge17" class="edge">
<title>&#45;8&#45;&gt;2</title>
<path fill="none" stroke="green" stroke-width="0.44" stroke-dasharray="1,5" d="M651.48,-234.56C647.66,-230.75 642.93,-226.25 638.37,-222.55 527.97,-132.84 489.91,-122.23 359.37,-65.7 323.4,-50.12 280.86,-34 255.01,-24.45"/>
<polygon fill="green" stroke="green" stroke-width="0.44" points="255.93,-21.06 245.34,-20.9 253.52,-27.63 255.93,-21.06"/>
</g>
<!-- &#45;8&#45;&gt;3 -->
<g id="edge18" class="edge">
<title>&#45;8&#45;&gt;3</title>
<path fill="none" stroke="red" stroke-width="0.26" d="M652.2,-234.51C648.4,-230.5 643.46,-225.86 638.37,-222.55 601.22,-198.46 552.06,-181.56 523.26,-172.94"/>
<polygon fill="red" stroke="red" stroke-width="0.26" points="524.21,-169.57 513.63,-170.14 522.26,-176.29 524.21,-169.57"/>
</g>
<!-- &#45;9 -->
<g id="node9" class="node">
<title>&#45;9</title>
<polygon fill="lightgray" stroke="black" points="445.37,-252.76 421.37,-252.76 421.37,-234.76 445.37,-234.76 445.37,-252.76"/>
<text text-anchor="middle" x="433.37" y="-241.56" font-family="Times New Roman,serif" font-size="9.00">&#45;9</text>
</g>
<!-- &#45;9&#45;&gt;0 -->
<g id="edge19" class="edge">
<title>&#45;9&#45;&gt;0</title>
<path fill="none" stroke="red" stroke-width="0.16" stroke-dasharray="1,5" d="M422.81,-234.42C418.11,-230.74 412.5,-226.39 407.37,-222.55 387.93,-208 365.4,-191.84 349.57,-180.59"/>
<polygon fill="red" stroke="red" stroke-width="0.16" points="351.28,-177.51 341.1,-174.59 347.23,-183.22 351.28,-177.51"/>
</g>
<!-- &#45;9&#45;&gt;3 -->
<g id="edge20" class="edge">
<title>&#45;9&#45;&gt;3</title>
<path fill="none" stroke="green" stroke-width="0.86" d="M440.43,-234.59C450.63,-222.78 469.74,-200.64 483.44,-184.78"/>
<polygon fill="green" stroke="green" stroke-width="0.86" points="486.15,-187 490.04,-177.15 480.85,-182.43 486.15,-187"/>
</g>
<!-- &#45;10 -->
<g id="node10" class="node">
<title>&#45;10</title>
<polygon fill="lightgray" stroke="black" points="492.87,-252.76 463.87,-252.76 463.87,-234.76 492.87,-234.76 492.87,-252.76"/>
<text text-anchor="middle" x="478.37" y="-241.56" font-family="Times New Roman,serif" font-size="9.00">&#45;10</text>
</g>
<!-- &#45;10&#45;&gt;0 -->
<g id="edge21" class="edge">
<title>&#45;10&#45;&gt;0</title>
<path fill="none" stroke="green" stroke-width="1.74" d="M469.93,-234.66C465.52,-230.69 459.9,-226.03 454.37,-222.55 421.09,-201.62 378.69,-184.29 352.82,-174.63"/>
<polygon fill="green" stroke="green" stroke-width="1.74" points="353.72,-171.24 343.13,-171.09 351.32,-177.81 353.72,-171.24"/>
</g>
<!-- &#45;10&#45;&gt;3 -->
<g id="edge22" class="edge">
<title>&#45;10&#45;&gt;3</title>
<path fill="none" stroke="red" stroke-width="0.14" stroke-dasharray="1,5" d="M480.62,-234.59C483.54,-223.95 488.77,-204.92 492.96,-189.66"/>
<polygon fill="red" stroke="red" stroke-width="0.14" points="496.39,-190.41 495.66,-179.84 489.64,-188.55 496.39,-190.41"/>
</g>
<!-- &#45;11 -->
<g id="node11" class="node">
<title>&#45;11</title>
<polygon fill="lightgray" stroke="black" points="262.87,-252.76 233.87,-252.76 233.87,-234.76 262.87,-234.76 262.87,-252.76"/>
<text text-anchor="middle" x="248.37" y="-241.56" font-family="Times New Roman,serif" font-size="9.00">&#45;11</text>
</g>
<!-- &#45;11&#45;&gt;0 -->
<g id="edge23" class="edge">
<title>&#45;11&#45;&gt;0</title>
<path fill="none" stroke="green" stroke-width="0.28" d="M257.04,-234.59C269.95,-222.41 294.5,-199.24 311.4,-183.3"/>
<polygon fill="green" stroke="green" stroke-width="0.28" points="314.12,-185.54 318.99,-176.13 309.31,-180.45 314.12,-185.54"/>
</g>
<!-- &#45;11&#45;&gt;1 -->
<g id="edge24" class="edge">
<title>&#45;11&#45;&gt;1</title>
<path fill="none" stroke="green" stroke-width="1.57" d="M239.23,-234.64C234.83,-230.84 229.43,-226.34 224.37,-222.55 203.33,-206.82 178.1,-190.42 160.62,-179.43"/>
<polygon fill="green" stroke="green" stroke-width="1.57" points="162.12,-176.24 151.78,-173.91 158.41,-182.18 162.12,-176.24"/>
</g>
<!-- &#45;11&#45;&gt;2 -->
<g id="edge26" class="edge">
<title>&#45;11&#45;&gt;2</title>
<path fill="none" stroke="red" stroke-width="0.53" d="M250.91,-234.49C254.1,-223.61 259.39,-203.87 261.37,-186.55 267.47,-133.14 250.44,-71.14 239.6,-38.55"/>
<polygon fill="red" stroke="red" stroke-width="0.53" points="242.89,-37.37 236.33,-29.05 236.27,-39.64 242.89,-37.37"/>
</g>
<!-- &#45;11&#45;&gt;3 -->
<g id="edge25" class="edge">
<title>&#45;11&#45;&gt;3</title>
<path fill="none" stroke="red" stroke-width="0.18" d="M256.13,-234.63C260.53,-230.46 266.35,-225.62 272.37,-222.55 340.42,-187.87 431.04,-173.8 474.31,-168.78"/>
<polygon fill="red" stroke="red" stroke-width="0.18" points="474.93,-172.24 484.49,-167.67 474.17,-165.28 474.93,-172.24"/>
</g>
<!-- &#45;11&#45;&gt;544 -->
<g id="edge29" class="edge">
<title>&#45;11&#45;&gt;544</title>
<path fill="none" stroke="red" stroke-width="0.12" d="M246.55,-234.59C244.52,-225.44 241.1,-210.1 238.03,-196.27"/>
<polygon fill="red" stroke="red" stroke-width="0.12" points="241.36,-195.13 235.77,-186.13 234.53,-196.65 241.36,-195.13"/>
</g>
<!-- 327 -->
<g id="node18" class="node">
<title>327</title>
<ellipse fill="white" stroke="black" cx="329.37" cy="-86.91" rx="21.43" ry="21.43"/>
<text text-anchor="middle" x="329.37" y="-84.71" font-family="Times New Roman,serif" font-size="9.00">327</text>
</g>
<!-- 0&#45;&gt;327 -->
<g id="edge28" class="edge">
<title>0&#45;&gt;327</title>
<path fill="none" stroke="green" stroke-width="0.35" d="M329.37,-150.32C329.37,-141.37 329.37,-129.42 329.37,-118.37"/>
<polygon fill="green" stroke="green" stroke-width="0.35" points="332.87,-118.18 329.37,-108.18 325.87,-118.18 332.87,-118.18"/>
</g>
<!-- 806&#45;&gt;3 -->
<g id="edge33" class="edge">
<title>806&#45;&gt;3</title>
<path fill="none" stroke="red" stroke-width="0.44" d="M591.34,-230.82C571.94,-217.22 540.25,-195 519.61,-180.53"/>
<polygon fill="red" stroke="red" stroke-width="0.44" points="521.44,-177.54 511.24,-174.66 517.42,-183.27 521.44,-177.54"/>
</g>
<!-- 327&#45;&gt;2 -->
<g id="edge27" class="edge">
<title>327&#45;&gt;2</title>
<path fill="none" stroke="green" stroke-width="0.23" stroke-dasharray="1,5" d="M312.3,-73.71C295.39,-61.62 269.51,-43.12 251.58,-30.3"/>
<polygon fill="green" stroke="green" stroke-width="0.23" points="253.2,-27.15 243.03,-24.18 249.13,-32.85 253.2,-27.15"/>
</g>
<!-- 796&#45;&gt;0 -->
<g id="edge31" class="edge">
<title>796&#45;&gt;0</title>
<path fill="none" stroke="red" stroke-width="0.35" d="M309.18,-223.48C312.83,-213.16 317.35,-200.37 321.18,-189.51"/>
<polygon fill="red" stroke="red" stroke-width="0.35" points="324.57,-190.43 324.6,-179.84 317.97,-188.1 324.57,-190.43"/>
</g>
</g>
</svg>
