<?xml version="1.0" encoding="UTF-8" standalone="no"?>
<!DOCTYPE svg PUBLIC "-//W3C//DTD SVG 1.1//EN"
 "http://www.w3.org/Graphics/SVG/1.1/DTD/svg11.dtd">
<!-- Generated by graphviz version 2.47.1 (20210417.1919)
 -->
<!-- Pages: 1 -->
<svg width="750pt" height="807pt"
 viewBox="0.00 0.00 750.50 807.18" xmlns="http://www.w3.org/2000/svg" xmlns:xlink="http://www.w3.org/1999/xlink">
<g id="graph0" class="graph" transform="scale(1 1) rotate(0) translate(4 803.18)">
<polygon fill="white" stroke="transparent" points="-4,4 -4,-803.18 746.5,-803.18 746.5,4 -4,4"/>
<!-- &#45;1 -->
<g id="node1" class="node">
<title>&#45;1</title>
<polygon fill="lightgray" stroke="black" points="500.75,-783.43 476.75,-783.43 476.75,-765.43 500.75,-765.43 500.75,-783.43"/>
<text text-anchor="middle" x="488.75" y="-772.23" font-family="Times New Roman,serif" font-size="9.00">&#45;1</text>
</g>
<!-- &#45;2 -->
<g id="node2" class="node">
<title>&#45;2</title>
<polygon fill="lightgray" stroke="black" points="287.75,-612.43 263.75,-612.43 263.75,-594.43 287.75,-594.43 287.75,-612.43"/>
<text text-anchor="middle" x="275.75" y="-601.23" font-family="Times New Roman,serif" font-size="9.00">&#45;2</text>
</g>
<!-- 1 -->
<g id="node13" class="node">
<title>1</title>
<ellipse fill="lightblue" stroke="black" cx="134.75" cy="-14.85" rx="14.7" ry="14.7"/>
<text text-anchor="middle" x="134.75" y="-12.65" font-family="Times New Roman,serif" font-size="9.00">1</text>
</g>
<!-- &#45;2&#45;&gt;1 -->
<g id="edge6" class="edge">
<title>&#45;2&#45;&gt;1</title>
<path fill="none" stroke="green" stroke-width="0.36" stroke-dasharray="1,5" d="M288.07,-599.91C313.13,-594.16 370.37,-577.79 402.75,-542.68 437.91,-504.56 443.75,-485.3 443.75,-433.44 443.75,-433.44 443.75,-433.44 443.75,-174.94 443.75,-122.43 439.47,-98.85 398.75,-65.7 362.14,-35.89 218.32,-22.05 159.76,-17.57"/>
<polygon fill="green" stroke="green" stroke-width="0.36" points="159.78,-14.06 149.55,-16.81 159.27,-21.04 159.78,-14.06"/>
</g>
<!-- 1941 -->
<g id="node20" class="node">
<title>1941</title>
<ellipse fill="white" stroke="black" cx="368.75" cy="-517.93" rx="25" ry="25"/>
<text text-anchor="middle" x="368.75" y="-515.73" font-family="Times New Roman,serif" font-size="9.00">1941</text>
</g>
<!-- &#45;2&#45;&gt;1941 -->
<g id="edge12" class="edge">
<title>&#45;2&#45;&gt;1941</title>
<path fill="none" stroke="red" stroke-width="0.13" d="M284.67,-594.43C298.01,-582.44 323.69,-559.39 343.18,-541.89"/>
<polygon fill="red" stroke="red" stroke-width="0.13" points="345.73,-544.3 350.83,-535.02 341.05,-539.1 345.73,-544.3"/>
</g>
<!-- 2348 -->
<g id="node24" class="node">
<title>2348</title>
<ellipse fill="white" stroke="black" cx="206.75" cy="-261.44" rx="25" ry="25"/>
<text text-anchor="middle" x="206.75" y="-259.24" font-family="Times New Roman,serif" font-size="9.00">2348</text>
</g>
<!-- &#45;2&#45;&gt;2348 -->
<g id="edge33" class="edge">
<title>&#45;2&#45;&gt;2348</title>
<path fill="none" stroke="red" stroke-width="0.52" d="M263.6,-596.8C246.33,-588.04 215.37,-569.32 202.75,-542.68 163.9,-460.68 183.77,-349.44 197.43,-295.07"/>
<polygon fill="red" stroke="red" stroke-width="0.52" points="200.84,-295.85 199.98,-285.29 194.07,-294.09 200.84,-295.85"/>
</g>
<!-- 2106 -->
<g id="node26" class="node">
<title>2106</title>
<ellipse fill="white" stroke="black" cx="236.75" cy="-517.93" rx="25" ry="25"/>
<text text-anchor="middle" x="236.75" y="-515.73" font-family="Times New Roman,serif" font-size="9.00">2106</text>
</g>
<!-- &#45;2&#45;&gt;2106 -->
<g id="edge19" class="edge">
<title>&#45;2&#45;&gt;2106</title>
<path fill="none" stroke="red" stroke-width="0.29" d="M272.01,-594.43C267.23,-584.19 258.67,-565.87 251.18,-549.84"/>
<polygon fill="red" stroke="red" stroke-width="0.29" points="254.34,-548.33 246.94,-540.75 248,-551.29 254.34,-548.33"/>
</g>
<!-- &#45;3 -->
<g id="node3" class="node">
<title>&#45;3</title>
<polygon fill="lightgray" stroke="black" points="590.75,-783.43 566.75,-783.43 566.75,-765.43 590.75,-765.43 590.75,-783.43"/>
<text text-anchor="middle" x="578.75" y="-772.23" font-family="Times New Roman,serif" font-size="9.00">&#45;3</text>
</g>
<!-- &#45;4 -->
<g id="node4" class="node">
<title>&#45;4</title>
<polygon fill="lightgray" stroke="black" points="138.75,-612.43 114.75,-612.43 114.75,-594.43 138.75,-594.43 138.75,-612.43"/>
<text text-anchor="middle" x="126.75" y="-601.23" font-family="Times New Roman,serif" font-size="9.00">&#45;4</text>
</g>
<!-- &#45;4&#45;&gt;2106 -->
<g id="edge11" class="edge">
<title>&#45;4&#45;&gt;2106</title>
<path fill="none" stroke="green" stroke-width="0.11" d="M137.3,-594.43C153.68,-581.99 185.76,-557.64 209.07,-539.94"/>
<polygon fill="green" stroke="green" stroke-width="0.11" points="211.37,-542.59 217.22,-533.76 207.14,-537.02 211.37,-542.59"/>
</g>
<!-- 2263 -->
<g id="node29" class="node">
<title>2263</title>
<ellipse fill="white" stroke="black" cx="122.75" cy="-432.44" rx="25" ry="25"/>
<text text-anchor="middle" x="122.75" y="-430.24" font-family="Times New Roman,serif" font-size="9.00">2263</text>
</g>
<!-- &#45;4&#45;&gt;2263 -->
<g id="edge23" class="edge">
<title>&#45;4&#45;&gt;2263</title>
<path fill="none" stroke="green" stroke-width="0.17" d="M126.56,-594.28C126.02,-571.77 124.51,-507.73 123.56,-467.58"/>
<polygon fill="green" stroke="green" stroke-width="0.17" points="127.05,-467.35 123.32,-457.44 120.05,-467.52 127.05,-467.35"/>
</g>
<!-- 2137 -->
<g id="node30" class="node">
<title>2137</title>
<ellipse fill="white" stroke="black" cx="122.75" cy="-346.94" rx="25" ry="25"/>
<text text-anchor="middle" x="122.75" y="-344.74" font-family="Times New Roman,serif" font-size="9.00">2137</text>
</g>
<!-- &#45;4&#45;&gt;2137 -->
<g id="edge14" class="edge">
<title>&#45;4&#45;&gt;2137</title>
<path fill="none" stroke="red" stroke-width="0.32" stroke-dasharray="1,5" d="M122.49,-594.18C109.12,-567.16 69.89,-478.95 88.75,-407.69 91.66,-396.67 97.13,-385.56 102.85,-375.96"/>
<polygon fill="red" stroke="red" stroke-width="0.32" points="105.96,-377.59 108.33,-367.27 100.03,-373.86 105.96,-377.59"/>
</g>
<!-- 2142 -->
<g id="node31" class="node">
<title>2142</title>
<ellipse fill="white" stroke="black" cx="236.75" cy="-432.44" rx="25" ry="25"/>
<text text-anchor="middle" x="236.75" y="-430.24" font-family="Times New Roman,serif" font-size="9.00">2142</text>
</g>
<!-- &#45;4&#45;&gt;2142 -->
<g id="edge16" class="edge">
<title>&#45;4&#45;&gt;2142</title>
<path fill="none" stroke="green" stroke-width="0.56" d="M132.05,-594.28C147.42,-570.68 192.46,-501.47 218.19,-461.95"/>
<polygon fill="green" stroke="green" stroke-width="0.56" points="221.15,-463.82 223.67,-453.53 215.28,-460 221.15,-463.82"/>
</g>
<!-- &#45;5 -->
<g id="node5" class="node">
<title>&#45;5</title>
<polygon fill="lightgray" stroke="black" points="632.75,-783.43 608.75,-783.43 608.75,-765.43 632.75,-765.43 632.75,-783.43"/>
<text text-anchor="middle" x="620.75" y="-772.23" font-family="Times New Roman,serif" font-size="9.00">&#45;5</text>
</g>
<!-- &#45;6 -->
<g id="node6" class="node">
<title>&#45;6</title>
<polygon fill="lightgray" stroke="black" points="413.75,-270.44 389.75,-270.44 389.75,-252.44 413.75,-252.44 413.75,-270.44"/>
<text text-anchor="middle" x="401.75" y="-259.24" font-family="Times New Roman,serif" font-size="9.00">&#45;6</text>
</g>
<!-- 2316 -->
<g id="node18" class="node">
<title>2316</title>
<ellipse fill="white" stroke="black" cx="390.75" cy="-175.94" rx="25" ry="25"/>
<text text-anchor="middle" x="390.75" y="-173.74" font-family="Times New Roman,serif" font-size="9.00">2316</text>
</g>
<!-- &#45;6&#45;&gt;2316 -->
<g id="edge41" class="edge">
<title>&#45;6&#45;&gt;2316</title>
<path fill="none" stroke="red" stroke-width="0.24" d="M400.69,-252.44C399.43,-242.82 397.22,-226.06 395.21,-210.78"/>
<polygon fill="red" stroke="red" stroke-width="0.24" points="398.63,-210 393.86,-200.54 391.69,-210.91 398.63,-210"/>
</g>
<!-- &#45;7 -->
<g id="node7" class="node">
<title>&#45;7</title>
<polygon fill="lightgray" stroke="black" points="674.75,-783.43 650.75,-783.43 650.75,-765.43 674.75,-765.43 674.75,-783.43"/>
<text text-anchor="middle" x="662.75" y="-772.23" font-family="Times New Roman,serif" font-size="9.00">&#45;7</text>
</g>
<!-- &#45;8 -->
<g id="node8" class="node">
<title>&#45;8</title>
<polygon fill="lightgray" stroke="black" points="408.75,-355.94 384.75,-355.94 384.75,-337.94 408.75,-337.94 408.75,-355.94"/>
<text text-anchor="middle" x="396.75" y="-344.74" font-family="Times New Roman,serif" font-size="9.00">&#45;8</text>
</g>
<!-- 2 -->
<g id="node14" class="node">
<title>2</title>
<ellipse fill="lightblue" stroke="black" cx="356.75" cy="-261.44" rx="14.7" ry="14.7"/>
<text text-anchor="middle" x="356.75" y="-259.24" font-family="Times New Roman,serif" font-size="9.00">2</text>
</g>
<!-- &#45;8&#45;&gt;2 -->
<g id="edge1" class="edge">
<title>&#45;8&#45;&gt;2</title>
<path fill="none" stroke="green" stroke-width="1.8" d="M392.91,-337.93C387.04,-325.67 375.61,-301.82 367.17,-284.19"/>
<polygon fill="green" stroke="green" stroke-width="1.8" points="370.31,-282.66 362.84,-275.15 364,-285.68 370.31,-282.66"/>
</g>
<!-- &#45;9 -->
<g id="node9" class="node">
<title>&#45;9</title>
<polygon fill="lightgray" stroke="black" points="303.75,-526.93 279.75,-526.93 279.75,-508.93 303.75,-508.93 303.75,-526.93"/>
<text text-anchor="middle" x="291.75" y="-515.73" font-family="Times New Roman,serif" font-size="9.00">&#45;9</text>
</g>
<!-- &#45;9&#45;&gt;2 -->
<g id="edge5" class="edge">
<title>&#45;9&#45;&gt;2</title>
<path fill="none" stroke="red" stroke-width="0.18" stroke-dasharray="1,5" d="M291.61,-508.86C291.57,-490.2 293.15,-442.98 308.75,-407.69 317.06,-388.9 329.27,-390.4 337.75,-371.69 350.17,-344.26 354.5,-309.57 356,-286.73"/>
<polygon fill="red" stroke="red" stroke-width="0.18" points="359.5,-286.72 356.53,-276.55 352.51,-286.35 359.5,-286.72"/>
</g>
<!-- 3 -->
<g id="node15" class="node">
<title>3</title>
<ellipse fill="lightblue" stroke="black" cx="332.75" cy="-432.44" rx="14.7" ry="14.7"/>
<text text-anchor="middle" x="332.75" y="-430.24" font-family="Times New Roman,serif" font-size="9.00">3</text>
</g>
<!-- &#45;9&#45;&gt;3 -->
<g id="edge2" class="edge">
<title>&#45;9&#45;&gt;3</title>
<path fill="none" stroke="green" stroke-width="2.38" d="M295.68,-508.93C301.7,-496.67 313.42,-472.81 322.07,-455.18"/>
<polygon fill="green" stroke="green" stroke-width="2.38" points="325.24,-456.66 326.51,-446.14 318.96,-453.58 325.24,-456.66"/>
</g>
<!-- &#45;9&#45;&gt;2142 -->
<g id="edge22" class="edge">
<title>&#45;9&#45;&gt;2142</title>
<path fill="none" stroke="green" stroke-width="0.48" d="M286.48,-508.93C279.44,-498.25 266.62,-478.78 255.75,-462.29"/>
<polygon fill="green" stroke="green" stroke-width="0.48" points="258.39,-459.93 249.97,-453.51 252.55,-463.78 258.39,-459.93"/>
</g>
<!-- &#45;10 -->
<g id="node10" class="node">
<title>&#45;10</title>
<polygon fill="lightgray" stroke="black" points="401.25,-612.43 372.25,-612.43 372.25,-594.43 401.25,-594.43 401.25,-612.43"/>
<text text-anchor="middle" x="386.75" y="-601.23" font-family="Times New Roman,serif" font-size="9.00">&#45;10</text>
</g>
<!-- &#45;10&#45;&gt;2 -->
<g id="edge3" class="edge">
<title>&#45;10&#45;&gt;2</title>
<path fill="none" stroke="red" stroke-width="0.45" stroke-dasharray="1,5" d="M401.49,-595.14C418.67,-585.71 446.19,-567.51 457.75,-542.68 467.03,-522.74 460.27,-515.04 457.75,-493.19 448.8,-415.65 456.15,-390.14 417.75,-322.19 406.46,-302.22 397.13,-302.26 380.75,-286.19 378.63,-284.11 376.41,-281.93 374.21,-279.76"/>
<polygon fill="red" stroke="red" stroke-width="0.45" points="376.58,-277.17 367.01,-272.63 371.66,-282.15 376.58,-277.17"/>
</g>
<!-- &#45;10&#45;&gt;2106 -->
<g id="edge21" class="edge">
<title>&#45;10&#45;&gt;2106</title>
<path fill="none" stroke="red" stroke-width="0.74" d="M372.12,-595.68C349.79,-585.19 306.05,-563.98 270.75,-542.68 268.79,-541.51 266.8,-540.25 264.81,-538.97"/>
<polygon fill="red" stroke="red" stroke-width="0.74" points="266.48,-535.87 256.23,-533.21 262.58,-541.68 266.48,-535.87"/>
</g>
<!-- &#45;11 -->
<g id="node11" class="node">
<title>&#45;11</title>
<polygon fill="lightgray" stroke="black" points="548.25,-783.43 519.25,-783.43 519.25,-765.43 548.25,-765.43 548.25,-783.43"/>
<text text-anchor="middle" x="533.75" y="-772.23" font-family="Times New Roman,serif" font-size="9.00">&#45;11</text>
</g>
<!-- 0 -->
<g id="node12" class="node">
<title>0</title>
<ellipse fill="lightblue" stroke="black" cx="533.75" cy="-688.93" rx="14.7" ry="14.7"/>
<text text-anchor="middle" x="533.75" y="-686.73" font-family="Times New Roman,serif" font-size="9.00">0</text>
</g>
<!-- &#45;11&#45;&gt;0 -->
<g id="edge4" class="edge">
<title>&#45;11&#45;&gt;0</title>
<path fill="none" stroke="red" stroke-width="0.44" d="M533.75,-765.42C533.75,-753.66 533.75,-731.22 533.75,-713.85"/>
<polygon fill="red" stroke="red" stroke-width="0.44" points="537.25,-713.83 533.75,-703.83 530.25,-713.83 537.25,-713.83"/>
</g>
<!-- 2004 -->
<g id="node28" class="node">
<title>2004</title>
<ellipse fill="white" stroke="black" cx="534.75" cy="-517.93" rx="25" ry="25"/>
<text text-anchor="middle" x="534.75" y="-515.73" font-family="Times New Roman,serif" font-size="9.00">2004</text>
</g>
<!-- 0&#45;&gt;2004 -->
<g id="edge10" class="edge">
<title>0&#45;&gt;2004</title>
<path fill="none" stroke="red" stroke-width="0.4" stroke-dasharray="1,5" d="M531.68,-674.21C529.97,-662.12 527.67,-644.03 526.75,-628.18 525.47,-606.22 525.29,-600.63 526.75,-578.68 527.32,-570.15 528.34,-560.97 529.47,-552.43"/>
<polygon fill="red" stroke="red" stroke-width="0.4" points="532.95,-552.8 530.87,-542.42 526.02,-551.83 532.95,-552.8"/>
</g>
<!-- 2417 -->
<g id="node33" class="node">
<title>2417</title>
<ellipse fill="white" stroke="black" cx="560.75" cy="-603.43" rx="25" ry="25"/>
<text text-anchor="middle" x="560.75" y="-601.23" font-family="Times New Roman,serif" font-size="9.00">2417</text>
</g>
<!-- 0&#45;&gt;2417 -->
<g id="edge37" class="edge">
<title>0&#45;&gt;2417</title>
<path fill="none" stroke="green" stroke-width="0.2" d="M538.09,-674.51C541.37,-664.38 546.01,-650.02 550.24,-636.93"/>
<polygon fill="green" stroke="green" stroke-width="0.2" points="553.62,-637.86 553.37,-627.27 546.96,-635.7 553.62,-637.86"/>
</g>
<!-- 2&#45;&gt;2316 -->
<g id="edge31" class="edge">
<title>2&#45;&gt;2316</title>
<path fill="none" stroke="green" stroke-width="0.77" d="M362.06,-247.4C366.27,-237.06 372.33,-222.18 377.8,-208.75"/>
<polygon fill="green" stroke="green" stroke-width="0.77" points="381.11,-209.9 381.64,-199.32 374.62,-207.26 381.11,-209.9"/>
</g>
<!-- 1660 -->
<g id="node35" class="node">
<title>1660</title>
<ellipse fill="white" stroke="black" cx="364.75" cy="-90.45" rx="25" ry="25"/>
<text text-anchor="middle" x="364.75" y="-88.25" font-family="Times New Roman,serif" font-size="9.00">1660</text>
</g>
<!-- 2&#45;&gt;1660 -->
<g id="edge7" class="edge">
<title>2&#45;&gt;1660</title>
<path fill="none" stroke="green" stroke-width="0.48" stroke-dasharray="1,5" d="M356.15,-246.28C355.4,-225.43 354.48,-185.26 356.75,-151.2 357.32,-142.66 358.34,-133.48 359.47,-124.94"/>
<polygon fill="green" stroke="green" stroke-width="0.48" points="362.95,-125.32 360.87,-114.93 356.02,-124.35 362.95,-125.32"/>
</g>
<!-- 2304 -->
<g id="node16" class="node">
<title>2304</title>
<ellipse fill="white" stroke="black" cx="62.75" cy="-175.94" rx="25" ry="25"/>
<text text-anchor="middle" x="62.75" y="-173.74" font-family="Times New Roman,serif" font-size="9.00">2304</text>
</g>
<!-- 2304&#45;&gt;1 -->
<g id="edge30" class="edge">
<title>2304&#45;&gt;1</title>
<path fill="none" stroke="red" stroke-width="0.19" stroke-dasharray="1,5" d="M69.26,-151.68C75.99,-129.1 87.51,-94.16 101.75,-65.7 106.97,-55.26 113.98,-44.36 120.19,-35.44"/>
<polygon fill="red" stroke="red" stroke-width="0.19" points="123.07,-37.42 126.04,-27.25 117.38,-33.35 123.07,-37.42"/>
</g>
<!-- 2458 -->
<g id="node22" class="node">
<title>2458</title>
<ellipse fill="white" stroke="black" cx="24.75" cy="-90.45" rx="25" ry="25"/>
<text text-anchor="middle" x="24.75" y="-88.25" font-family="Times New Roman,serif" font-size="9.00">2458</text>
</g>
<!-- 2304&#45;&gt;2458 -->
<g id="edge42" class="edge">
<title>2304&#45;&gt;2458</title>
<path fill="none" stroke="red" stroke-width="0.12" d="M52.76,-153.01C48.53,-143.71 43.52,-132.7 38.92,-122.58"/>
<polygon fill="red" stroke="red" stroke-width="0.12" points="41.99,-120.89 34.67,-113.24 35.62,-123.79 41.99,-120.89"/>
</g>
<!-- 2432 -->
<g id="node17" class="node">
<title>2432</title>
<ellipse fill="white" stroke="black" cx="273.75" cy="-261.44" rx="25" ry="25"/>
<text text-anchor="middle" x="273.75" y="-259.24" font-family="Times New Roman,serif" font-size="9.00">2432</text>
</g>
<!-- 2316&#45;&gt;1660 -->
<g id="edge32" class="edge">
<title>2316&#45;&gt;1660</title>
<path fill="none" stroke="red" stroke-width="0.2" d="M383.64,-152.13C380.95,-143.48 377.83,-133.45 374.91,-124.07"/>
<polygon fill="red" stroke="red" stroke-width="0.2" points="378.16,-122.74 371.84,-114.24 371.48,-124.82 378.16,-122.74"/>
</g>
<!-- 2193 -->
<g id="node19" class="node">
<title>2193</title>
<ellipse fill="white" stroke="black" cx="236.75" cy="-346.94" rx="25" ry="25"/>
<text text-anchor="middle" x="236.75" y="-344.74" font-family="Times New Roman,serif" font-size="9.00">2193</text>
</g>
<!-- 2193&#45;&gt;2432 -->
<g id="edge40" class="edge">
<title>2193&#45;&gt;2432</title>
<path fill="none" stroke="green" stroke-width="0.26" d="M246.47,-324C250.59,-314.7 255.47,-303.69 259.95,-293.58"/>
<polygon fill="green" stroke="green" stroke-width="0.26" points="263.24,-294.79 264.09,-284.23 256.84,-291.96 263.24,-294.79"/>
</g>
<!-- 2193&#45;&gt;2348 -->
<g id="edge39" class="edge">
<title>2193&#45;&gt;2348</title>
<path fill="none" stroke="red" stroke-width="0.61" d="M228.55,-323.12C225.38,-314.31 221.7,-304.06 218.28,-294.53"/>
<polygon fill="red" stroke="red" stroke-width="0.61" points="221.51,-293.17 214.83,-284.94 214.92,-295.54 221.51,-293.17"/>
</g>
<!-- 1941&#45;&gt;3 -->
<g id="edge18" class="edge">
<title>1941&#45;&gt;3</title>
<path fill="none" stroke="red" stroke-width="0.47" d="M359.29,-495C354.08,-482.92 347.63,-467.96 342.39,-455.81"/>
<polygon fill="red" stroke="red" stroke-width="0.47" points="345.51,-454.19 338.33,-446.39 339.08,-456.96 345.51,-454.19"/>
</g>
<!-- 2069 -->
<g id="node21" class="node">
<title>2069</title>
<ellipse fill="white" stroke="black" cx="390.75" cy="-432.44" rx="25" ry="25"/>
<text text-anchor="middle" x="390.75" y="-430.24" font-family="Times New Roman,serif" font-size="9.00">2069</text>
</g>
<!-- 1941&#45;&gt;2069 -->
<g id="edge13" class="edge">
<title>1941&#45;&gt;2069</title>
<path fill="none" stroke="red" stroke-width="0.27" d="M374.88,-493.68C377.09,-485.26 379.64,-475.59 382.04,-466.5"/>
<polygon fill="red" stroke="red" stroke-width="0.27" points="385.49,-467.13 384.65,-456.57 378.72,-465.35 385.49,-467.13"/>
</g>
<!-- 1989 -->
<g id="node27" class="node">
<title>1989</title>
<ellipse fill="white" stroke="black" cx="534.75" cy="-432.44" rx="25" ry="25"/>
<text text-anchor="middle" x="534.75" y="-430.24" font-family="Times New Roman,serif" font-size="9.00">1989</text>
</g>
<!-- 1941&#45;&gt;1989 -->
<g id="edge8" class="edge">
<title>1941&#45;&gt;1989</title>
<path fill="none" stroke="red" stroke-width="0.19" d="M390.45,-506.02C419.41,-491.45 470.85,-465.58 503.85,-448.98"/>
<polygon fill="red" stroke="red" stroke-width="0.19" points="505.68,-451.98 513.04,-444.36 502.54,-445.72 505.68,-451.98"/>
</g>
<!-- 2069&#45;&gt;2193 -->
<g id="edge20" class="edge">
<title>2069&#45;&gt;2193</title>
<path fill="none" stroke="green" stroke-width="0.3" d="M371.44,-416.87C366.76,-413.64 361.67,-410.39 356.75,-407.69 320.05,-387.59 306.31,-392.05 269.75,-371.69 267.99,-370.71 266.22,-369.65 264.45,-368.55"/>
<polygon fill="green" stroke="green" stroke-width="0.3" points="266.06,-365.42 255.8,-362.78 262.17,-371.24 266.06,-365.42"/>
</g>
<!-- 2458&#45;&gt;1 -->
<g id="edge43" class="edge">
<title>2458&#45;&gt;1</title>
<path fill="none" stroke="green" stroke-width="0.16" d="M44.92,-75.95C64.63,-62.76 94.46,-42.8 114.27,-29.55"/>
<polygon fill="green" stroke="green" stroke-width="0.16" points="116.48,-32.28 122.85,-23.81 112.59,-26.46 116.48,-32.28"/>
</g>
<!-- 1707 -->
<g id="node23" class="node">
<title>1707</title>
<ellipse fill="white" stroke="black" cx="717.75" cy="-688.93" rx="25" ry="25"/>
<text text-anchor="middle" x="717.75" y="-686.73" font-family="Times New Roman,serif" font-size="9.00">1707</text>
</g>
<!-- 2348&#45;&gt;1 -->
<g id="edge34" class="edge">
<title>2348&#45;&gt;1</title>
<path fill="none" stroke="green" stroke-width="0.25" d="M204.94,-236.51C201.45,-198.89 191.87,-124.19 167.75,-65.7 163.3,-54.9 156.38,-43.97 150.03,-35.1"/>
<polygon fill="green" stroke="green" stroke-width="0.25" points="152.77,-32.92 143.98,-27.01 147.17,-37.11 152.77,-32.92"/>
</g>
<!-- 2355 -->
<g id="node25" class="node">
<title>2355</title>
<ellipse fill="white" stroke="black" cx="303.75" cy="-346.94" rx="25" ry="25"/>
<text text-anchor="middle" x="303.75" y="-344.74" font-family="Times New Roman,serif" font-size="9.00">2355</text>
</g>
<!-- 2355&#45;&gt;2 -->
<g id="edge35" class="edge">
<title>2355&#45;&gt;2</title>
<path fill="none" stroke="red" stroke-width="0.18" d="M316.58,-325.73C324.76,-312.83 335.34,-296.16 343.59,-283.17"/>
<polygon fill="red" stroke="red" stroke-width="0.18" points="346.71,-284.78 349.12,-274.47 340.8,-281.03 346.71,-284.78"/>
</g>
<!-- 2106&#45;&gt;2142 -->
<g id="edge25" class="edge">
<title>2106&#45;&gt;2142</title>
<path fill="none" stroke="red" stroke-width="0.38" d="M236.75,-492.78C236.75,-484.84 236.75,-475.86 236.75,-467.32"/>
<polygon fill="red" stroke="red" stroke-width="0.38" points="240.25,-467.25 236.75,-457.25 233.25,-467.25 240.25,-467.25"/>
</g>
<!-- 2004&#45;&gt;1989 -->
<g id="edge9" class="edge">
<title>2004&#45;&gt;1989</title>
<path fill="none" stroke="green" stroke-width="0.26" d="M534.75,-492.78C534.75,-484.84 534.75,-475.86 534.75,-467.32"/>
<polygon fill="green" stroke="green" stroke-width="0.26" points="538.25,-467.25 534.75,-457.25 531.25,-467.25 538.25,-467.25"/>
</g>
<!-- 2263&#45;&gt;2137 -->
<g id="edge24" class="edge">
<title>2263&#45;&gt;2137</title>
<path fill="none" stroke="red" stroke-width="0.24" d="M122.75,-407.29C122.75,-399.34 122.75,-390.36 122.75,-381.83"/>
<polygon fill="red" stroke="red" stroke-width="0.24" points="126.25,-381.75 122.75,-371.75 119.25,-381.75 126.25,-381.75"/>
</g>
<!-- 2137&#45;&gt;1 -->
<g id="edge15" class="edge">
<title>2137&#45;&gt;1</title>
<path fill="none" stroke="green" stroke-width="0.28" stroke-dasharray="1,5" d="M128.37,-322.82C130.8,-311.8 133.39,-298.39 134.75,-286.19 145.59,-188.78 142.67,-163.63 138.75,-65.7 138.41,-57.25 137.75,-48.02 137.06,-39.83"/>
<polygon fill="green" stroke="green" stroke-width="0.28" points="140.54,-39.45 136.17,-29.8 133.57,-40.07 140.54,-39.45"/>
</g>
<!-- 2298 -->
<g id="node34" class="node">
<title>2298</title>
<ellipse fill="white" stroke="black" cx="100.75" cy="-261.44" rx="25" ry="25"/>
<text text-anchor="middle" x="100.75" y="-259.24" font-family="Times New Roman,serif" font-size="9.00">2298</text>
</g>
<!-- 2137&#45;&gt;2298 -->
<g id="edge27" class="edge">
<title>2137&#45;&gt;2298</title>
<path fill="none" stroke="green" stroke-width="0.1" d="M116.62,-322.68C114.4,-314.27 111.86,-304.6 109.46,-295.5"/>
<polygon fill="green" stroke="green" stroke-width="0.1" points="112.78,-294.35 106.84,-285.58 106.01,-296.14 112.78,-294.35"/>
</g>
<!-- 2142&#45;&gt;2355 -->
<g id="edge36" class="edge">
<title>2142&#45;&gt;2355</title>
<path fill="none" stroke="red" stroke-width="0.41" d="M251.95,-412.49C260.86,-401.39 272.26,-387.18 282.1,-374.92"/>
<polygon fill="red" stroke="red" stroke-width="0.41" points="285.08,-376.8 288.61,-366.81 279.62,-372.42 285.08,-376.8"/>
</g>
<!-- 2142&#45;&gt;2137 -->
<g id="edge17" class="edge">
<title>2142&#45;&gt;2137</title>
<path fill="none" stroke="green" stroke-width="0.15" stroke-dasharray="1,5" d="M217.15,-417.08C198.8,-403.64 171.19,-383.42 150.56,-368.31"/>
<polygon fill="green" stroke="green" stroke-width="0.15" points="152.61,-365.47 142.47,-362.39 148.47,-371.12 152.61,-365.47"/>
</g>
<!-- 2280 -->
<g id="node32" class="node">
<title>2280</title>
<ellipse fill="white" stroke="black" cx="717.75" cy="-774.43" rx="25" ry="25"/>
<text text-anchor="middle" x="717.75" y="-772.23" font-family="Times New Roman,serif" font-size="9.00">2280</text>
</g>
<!-- 2280&#45;&gt;1707 -->
<g id="edge26" class="edge">
<title>2280&#45;&gt;1707</title>
<path fill="none" stroke="red" stroke-width="0.14" d="M717.75,-749.28C717.75,-741.33 717.75,-732.35 717.75,-723.82"/>
<polygon fill="red" stroke="red" stroke-width="0.14" points="721.25,-723.74 717.75,-713.74 714.25,-723.74 721.25,-723.74"/>
</g>
<!-- 2417&#45;&gt;2004 -->
<g id="edge38" class="edge">
<title>2417&#45;&gt;2004</title>
<path fill="none" stroke="red" stroke-width="0.52" d="M553.64,-579.62C550.95,-570.96 547.83,-560.94 544.91,-551.55"/>
<polygon fill="red" stroke="red" stroke-width="0.52" points="548.16,-550.23 541.84,-541.72 541.48,-552.31 548.16,-550.23"/>
</g>
<!-- 2298&#45;&gt;1 -->
<g id="edge28" class="edge">
<title>2298&#45;&gt;1</title>
<path fill="none" stroke="green" stroke-width="0.61" stroke-dasharray="1,5" d="M104.07,-236.54C110.57,-189.8 124.89,-86.77 131.4,-39.91"/>
<polygon fill="green" stroke="green" stroke-width="0.61" points="134.9,-40.16 132.81,-29.78 127.97,-39.2 134.9,-40.16"/>
</g>
<!-- 2298&#45;&gt;2304 -->
<g id="edge29" class="edge">
<title>2298&#45;&gt;2304</title>
<path fill="none" stroke="red" stroke-width="0.74" d="M90.76,-238.5C86.53,-229.2 81.52,-218.2 76.92,-208.08"/>
<polygon fill="red" stroke="red" stroke-width="0.74" points="79.99,-206.39 72.67,-198.74 73.62,-209.29 79.99,-206.39"/>
</g>
</g>
</svg>
