<?xml version="1.0" encoding="UTF-8" standalone="no"?>
<!DOCTYPE svg PUBLIC "-//W3C//DTD SVG 1.1//EN"
 "http://www.w3.org/Graphics/SVG/1.1/DTD/svg11.dtd">
<!-- Generated by graphviz version 2.47.1 (20210417.1919)
 -->
<!-- Pages: 1 -->
<svg width="511pt" height="274pt"
 viewBox="0.00 0.00 511.00 274.01" xmlns="http://www.w3.org/2000/svg" xmlns:xlink="http://www.w3.org/1999/xlink">
<g id="graph0" class="graph" transform="scale(1 1) rotate(0) translate(4 270.01)">
<polygon fill="white" stroke="transparent" points="-4,4 -4,-270.01 507,-270.01 507,4 -4,4"/>
<!-- &#45;1 -->
<g id="node1" class="node">
<title>&#45;1</title>
<polygon fill="lightgray" stroke="black" points="24,-266.01 0,-266.01 0,-248.01 24,-248.01 24,-266.01"/>
<text text-anchor="middle" x="12" y="-254.81" font-family="Times New Roman,serif" font-size="9.00">&#45;1</text>
</g>
<!-- 0 -->
<g id="node12" class="node">
<title>0</title>
<ellipse fill="lightblue" stroke="black" cx="84" cy="-184.43" rx="14.7" ry="14.7"/>
<text text-anchor="middle" x="84" y="-182.23" font-family="Times New Roman,serif" font-size="9.00">0</text>
</g>
<!-- &#45;1&#45;&gt;0 -->
<g id="edge1" class="edge">
<title>&#45;1&#45;&gt;0</title>
<path fill="none" stroke="red" stroke-width="0.33" d="M20.26,-247.91C31.35,-237.04 51.37,-217.42 66.02,-203.05"/>
<polygon fill="red" stroke="red" stroke-width="0.33" points="68.82,-205.21 73.52,-195.71 63.92,-200.21 68.82,-205.21"/>
</g>
<!-- 1 -->
<g id="node13" class="node">
<title>1</title>
<ellipse fill="lightblue" stroke="black" cx="251" cy="-14.85" rx="14.7" ry="14.7"/>
<text text-anchor="middle" x="251" y="-12.65" font-family="Times New Roman,serif" font-size="9.00">1</text>
</g>
<!-- &#45;1&#45;&gt;1 -->
<g id="edge15" class="edge">
<title>&#45;1&#45;&gt;1</title>
<path fill="none" stroke="green" stroke-width="0.34" stroke-dasharray="1,5" d="M11.94,-247.74C12.19,-218.36 17.12,-117.96 71,-65.7 113.58,-24.4 187.22,-16.67 225.79,-15.62"/>
<polygon fill="green" stroke="green" stroke-width="0.34" points="226.17,-19.12 236.12,-15.48 226.08,-12.12 226.17,-19.12"/>
</g>
<!-- &#45;2 -->
<g id="node2" class="node">
<title>&#45;2</title>
<polygon fill="lightgray" stroke="black" points="139,-266.01 115,-266.01 115,-248.01 139,-248.01 139,-266.01"/>
<text text-anchor="middle" x="127" y="-254.81" font-family="Times New Roman,serif" font-size="9.00">&#45;2</text>
</g>
<!-- &#45;2&#45;&gt;0 -->
<g id="edge2" class="edge">
<title>&#45;2&#45;&gt;0</title>
<path fill="none" stroke="green" stroke-width="0.18" stroke-dasharray="1,5" d="M122.07,-247.91C115.94,-237.85 105.25,-220.31 96.75,-206.36"/>
<polygon fill="green" stroke="green" stroke-width="0.18" points="99.5,-204.14 91.31,-197.42 93.52,-207.79 99.5,-204.14"/>
</g>
<!-- &#45;2&#45;&gt;1 -->
<g id="edge16" class="edge">
<title>&#45;2&#45;&gt;1</title>
<path fill="none" stroke="green" stroke-width="0.16" stroke-dasharray="1,5" d="M125.91,-247.79C122.59,-219.42 115.31,-124.06 158,-65.7 174.82,-42.7 205.54,-29.25 227.05,-22.23"/>
<polygon fill="green" stroke="green" stroke-width="0.16" points="228.21,-25.53 236.77,-19.29 226.19,-18.83 228.21,-25.53"/>
</g>
<!-- 3 -->
<g id="node15" class="node">
<title>3</title>
<ellipse fill="lightblue" stroke="black" cx="208" cy="-184.43" rx="14.7" ry="14.7"/>
<text text-anchor="middle" x="208" y="-182.23" font-family="Times New Roman,serif" font-size="9.00">3</text>
</g>
<!-- &#45;2&#45;&gt;3 -->
<g id="edge13" class="edge">
<title>&#45;2&#45;&gt;3</title>
<path fill="none" stroke="green" stroke-width="0.13" d="M137.07,-247.69C147.62,-238.93 164.62,-224.67 179,-212.01 182.61,-208.82 186.44,-205.38 190.08,-202.05"/>
<polygon fill="green" stroke="green" stroke-width="0.13" points="192.63,-204.47 197.62,-195.13 187.89,-199.32 192.63,-204.47"/>
</g>
<!-- 55344 -->
<g id="node18" class="node">
<title>55344</title>
<ellipse fill="white" stroke="black" cx="391" cy="-93.28" rx="27.65" ry="27.65"/>
<text text-anchor="middle" x="391" y="-91.08" font-family="Times New Roman,serif" font-size="9.00">55344</text>
</g>
<!-- &#45;2&#45;&gt;55344 -->
<g id="edge25" class="edge">
<title>&#45;2&#45;&gt;55344</title>
<path fill="none" stroke="green" stroke-width="0.33" d="M129.35,-247.96C135.26,-229.11 152.59,-181.8 184,-156.85 233.8,-117.29 308.35,-102.68 353.07,-97.33"/>
<polygon fill="green" stroke="green" stroke-width="0.33" points="353.67,-100.79 363.23,-96.21 352.9,-93.83 353.67,-100.79"/>
</g>
<!-- &#45;3 -->
<g id="node3" class="node">
<title>&#45;3</title>
<polygon fill="lightgray" stroke="black" points="461,-266.01 437,-266.01 437,-248.01 461,-248.01 461,-266.01"/>
<text text-anchor="middle" x="449" y="-254.81" font-family="Times New Roman,serif" font-size="9.00">&#45;3</text>
</g>
<!-- &#45;3&#45;&gt;1 -->
<g id="edge3" class="edge">
<title>&#45;3&#45;&gt;1</title>
<path fill="none" stroke="red" stroke-width="0.37" stroke-dasharray="1,5" d="M453.66,-247.63C469.04,-218.72 514.78,-121.82 470,-65.7 445.93,-35.54 328.18,-22.22 275.98,-17.72"/>
<polygon fill="red" stroke="red" stroke-width="0.37" points="276.15,-14.23 265.9,-16.9 275.58,-21.2 276.15,-14.23"/>
</g>
<!-- 58061 -->
<g id="node16" class="node">
<title>58061</title>
<ellipse fill="white" stroke="black" cx="393" cy="-184.43" rx="27.65" ry="27.65"/>
<text text-anchor="middle" x="393" y="-182.23" font-family="Times New Roman,serif" font-size="9.00">58061</text>
</g>
<!-- &#45;3&#45;&gt;58061 -->
<g id="edge23" class="edge">
<title>&#45;3&#45;&gt;58061</title>
<path fill="none" stroke="green" stroke-width="0.17" d="M442.58,-247.91C436.13,-239.79 425.82,-226.8 416.27,-214.76"/>
<polygon fill="green" stroke="green" stroke-width="0.17" points="418.79,-212.31 409.84,-206.65 413.31,-216.66 418.79,-212.31"/>
</g>
<!-- &#45;3&#45;&gt;55344 -->
<g id="edge20" class="edge">
<title>&#45;3&#45;&gt;55344</title>
<path fill="none" stroke="green" stroke-width="0.22" stroke-dasharray="1,5" d="M448.44,-247.76C447.06,-230.39 442.59,-189 430,-156.85 425.59,-145.61 419.14,-134.15 412.74,-124.16"/>
<polygon fill="green" stroke="green" stroke-width="0.22" points="415.64,-122.2 407.19,-115.81 409.81,-126.08 415.64,-122.2"/>
</g>
<!-- &#45;4 -->
<g id="node4" class="node">
<title>&#45;4</title>
<polygon fill="lightgray" stroke="black" points="461,-102.28 437,-102.28 437,-84.28 461,-84.28 461,-102.28"/>
<text text-anchor="middle" x="449" y="-91.08" font-family="Times New Roman,serif" font-size="9.00">&#45;4</text>
</g>
<!-- &#45;4&#45;&gt;1 -->
<g id="edge4" class="edge">
<title>&#45;4&#45;&gt;1</title>
<path fill="none" stroke="green" stroke-width="0.15" d="M444.5,-84.16C440.81,-78.22 435.04,-70.4 428,-65.7 380.35,-33.91 312.54,-22.19 276.24,-18.03"/>
<polygon fill="green" stroke="green" stroke-width="0.15" points="276.35,-14.52 266.04,-16.96 275.62,-21.48 276.35,-14.52"/>
</g>
<!-- &#45;5 -->
<g id="node5" class="node">
<title>&#45;5</title>
<polygon fill="lightgray" stroke="black" points="503,-266.01 479,-266.01 479,-248.01 503,-248.01 503,-266.01"/>
<text text-anchor="middle" x="491" y="-254.81" font-family="Times New Roman,serif" font-size="9.00">&#45;5</text>
</g>
<!-- &#45;6 -->
<g id="node6" class="node">
<title>&#45;6</title>
<polygon fill="lightgray" stroke="black" points="223,-266.01 199,-266.01 199,-248.01 223,-248.01 223,-266.01"/>
<text text-anchor="middle" x="211" y="-254.81" font-family="Times New Roman,serif" font-size="9.00">&#45;6</text>
</g>
<!-- &#45;6&#45;&gt;0 -->
<g id="edge17" class="edge">
<title>&#45;6&#45;&gt;0</title>
<path fill="none" stroke="green" stroke-width="0.19" d="M198.82,-249.24C177.37,-237.32 132.57,-212.42 105.71,-197.5"/>
<polygon fill="green" stroke="green" stroke-width="0.19" points="107.14,-194.29 96.7,-192.49 103.74,-200.41 107.14,-194.29"/>
</g>
<!-- 2 -->
<g id="node14" class="node">
<title>2</title>
<ellipse fill="lightblue" stroke="black" cx="294" cy="-184.43" rx="14.7" ry="14.7"/>
<text text-anchor="middle" x="294" y="-182.23" font-family="Times New Roman,serif" font-size="9.00">2</text>
</g>
<!-- &#45;6&#45;&gt;2 -->
<g id="edge5" class="edge">
<title>&#45;6&#45;&gt;2</title>
<path fill="none" stroke="red" stroke-width="0.31" stroke-dasharray="1,5" d="M221.5,-247.75C232.49,-239.04 250.18,-224.82 265,-212.01 268.64,-208.86 272.48,-205.43 276.13,-202.11"/>
<polygon fill="red" stroke="red" stroke-width="0.31" points="278.67,-204.52 283.66,-195.17 273.93,-199.37 278.67,-204.52"/>
</g>
<!-- &#45;7 -->
<g id="node7" class="node">
<title>&#45;7</title>
<polygon fill="lightgray" stroke="black" points="265,-266.01 241,-266.01 241,-248.01 265,-248.01 265,-266.01"/>
<text text-anchor="middle" x="253" y="-254.81" font-family="Times New Roman,serif" font-size="9.00">&#45;7</text>
</g>
<!-- &#45;7&#45;&gt;2 -->
<g id="edge14" class="edge">
<title>&#45;7&#45;&gt;2</title>
<path fill="none" stroke="red" stroke-width="0.23" d="M257.7,-247.91C263.51,-237.91 273.62,-220.51 281.7,-206.61"/>
<polygon fill="red" stroke="red" stroke-width="0.23" points="284.89,-208.08 286.88,-197.68 278.84,-204.57 284.89,-208.08"/>
</g>
<!-- &#45;7&#45;&gt;3 -->
<g id="edge26" class="edge">
<title>&#45;7&#45;&gt;3</title>
<path fill="none" stroke="red" stroke-width="0.13" d="M247.84,-247.91C241.36,-237.75 230.02,-219.97 221.09,-205.96"/>
<polygon fill="red" stroke="red" stroke-width="0.13" points="223.98,-203.98 215.65,-197.42 218.07,-207.74 223.98,-203.98"/>
</g>
<!-- &#45;8 -->
<g id="node8" class="node">
<title>&#45;8</title>
<polygon fill="lightgray" stroke="black" points="307,-266.01 283,-266.01 283,-248.01 307,-248.01 307,-266.01"/>
<text text-anchor="middle" x="295" y="-254.81" font-family="Times New Roman,serif" font-size="9.00">&#45;8</text>
</g>
<!-- &#45;8&#45;&gt;2 -->
<g id="edge6" class="edge">
<title>&#45;8&#45;&gt;2</title>
<path fill="none" stroke="green" stroke-width="2.39" d="M294.89,-247.91C294.75,-238.6 294.53,-222.87 294.34,-209.53"/>
<polygon fill="green" stroke="green" stroke-width="2.39" points="297.84,-209.45 294.2,-199.5 290.84,-209.55 297.84,-209.45"/>
</g>
<!-- &#45;9 -->
<g id="node9" class="node">
<title>&#45;9</title>
<polygon fill="lightgray" stroke="black" points="181,-266.01 157,-266.01 157,-248.01 181,-248.01 181,-266.01"/>
<text text-anchor="middle" x="169" y="-254.81" font-family="Times New Roman,serif" font-size="9.00">&#45;9</text>
</g>
<!-- &#45;9&#45;&gt;1 -->
<g id="edge7" class="edge">
<title>&#45;9&#45;&gt;1</title>
<path fill="none" stroke="red" stroke-width="0.82" d="M181.16,-251.3C195.96,-244.87 220.42,-231.82 232,-212.01 264.04,-157.18 259.61,-78.73 254.75,-39.75"/>
<polygon fill="red" stroke="red" stroke-width="0.82" points="258.19,-39.06 253.36,-29.63 251.25,-40.01 258.19,-39.06"/>
</g>
<!-- &#45;9&#45;&gt;3 -->
<g id="edge8" class="edge">
<title>&#45;9&#45;&gt;3</title>
<path fill="none" stroke="green" stroke-width="1.87" d="M173.47,-247.91C179,-237.91 188.61,-220.51 196.3,-206.61"/>
<polygon fill="green" stroke="green" stroke-width="1.87" points="199.46,-208.12 201.23,-197.68 193.33,-204.74 199.46,-208.12"/>
</g>
<!-- &#45;10 -->
<g id="node10" class="node">
<title>&#45;10</title>
<polygon fill="lightgray" stroke="black" points="88.5,-266.01 59.5,-266.01 59.5,-248.01 88.5,-248.01 88.5,-266.01"/>
<text text-anchor="middle" x="74" y="-254.81" font-family="Times New Roman,serif" font-size="9.00">&#45;10</text>
</g>
<!-- &#45;10&#45;&gt;0 -->
<g id="edge9" class="edge">
<title>&#45;10&#45;&gt;0</title>
<path fill="none" stroke="green" stroke-width="2.81" d="M75.15,-247.91C76.47,-238.54 78.72,-222.68 80.62,-209.28"/>
<polygon fill="green" stroke="green" stroke-width="2.81" points="84.11,-209.63 82.04,-199.24 77.18,-208.65 84.11,-209.63"/>
</g>
<!-- &#45;10&#45;&gt;1 -->
<g id="edge10" class="edge">
<title>&#45;10&#45;&gt;1</title>
<path fill="none" stroke="green" stroke-width="0.39" d="M70.37,-247.81C63.27,-230.54 49.1,-189.32 60,-156.85 76.17,-108.69 88.72,-96.67 129,-65.7 158.81,-42.78 200.63,-28.74 226.75,-21.63"/>
<polygon fill="green" stroke="green" stroke-width="0.39" points="227.78,-24.98 236.58,-19.08 226.02,-18.2 227.78,-24.98"/>
</g>
<!-- &#45;11 -->
<g id="node11" class="node">
<title>&#45;11</title>
<polygon fill="lightgray" stroke="black" points="354.5,-266.01 325.5,-266.01 325.5,-248.01 354.5,-248.01 354.5,-266.01"/>
<text text-anchor="middle" x="340" y="-254.81" font-family="Times New Roman,serif" font-size="9.00">&#45;11</text>
</g>
<!-- &#45;11&#45;&gt;1 -->
<g id="edge11" class="edge">
<title>&#45;11&#45;&gt;1</title>
<path fill="none" stroke="green" stroke-width="3.41" d="M338.83,-247.87C336.23,-230.71 329.29,-189.7 318,-156.85 302.86,-112.79 277.85,-64.33 263.04,-37.24"/>
<polygon fill="green" stroke="green" stroke-width="3.41" points="265.99,-35.34 258.09,-28.28 259.86,-38.72 265.99,-35.34"/>
</g>
<!-- &#45;11&#45;&gt;2 -->
<g id="edge12" class="edge">
<title>&#45;11&#45;&gt;2</title>
<path fill="none" stroke="red" stroke-width="0.27" stroke-dasharray="1,5" d="M334.72,-247.91C328.06,-237.69 316.37,-219.76 307.22,-205.72"/>
<polygon fill="red" stroke="red" stroke-width="0.27" points="310.05,-203.64 301.65,-197.17 304.18,-207.46 310.05,-203.64"/>
</g>
<!-- 53264 -->
<g id="node17" class="node">
<title>53264</title>
<ellipse fill="white" stroke="black" cx="195" cy="-93.28" rx="27.65" ry="27.65"/>
<text text-anchor="middle" x="195" y="-91.08" font-family="Times New Roman,serif" font-size="9.00">53264</text>
</g>
<!-- 0&#45;&gt;53264 -->
<g id="edge19" class="edge">
<title>0&#45;&gt;53264</title>
<path fill="none" stroke="red" stroke-width="0.56" d="M95.46,-174.22C111.94,-160.99 142.87,-136.15 165.9,-117.65"/>
<polygon fill="red" stroke="red" stroke-width="0.56" points="168.38,-120.15 173.98,-111.16 163.99,-114.69 168.38,-120.15"/>
</g>
<!-- 3&#45;&gt;53264 -->
<g id="edge22" class="edge">
<title>3&#45;&gt;53264</title>
<path fill="none" stroke="green" stroke-width="0.27" d="M205.97,-169.5C204.46,-159.12 202.31,-144.44 200.33,-130.8"/>
<polygon fill="green" stroke="green" stroke-width="0.27" points="203.75,-130.05 198.85,-120.66 196.83,-131.06 203.75,-130.05"/>
</g>
<!-- 58061&#45;&gt;55344 -->
<g id="edge24" class="edge">
<title>58061&#45;&gt;55344</title>
<path fill="none" stroke="green" stroke-width="0.49" d="M392.4,-156.68C392.22,-148.66 392.02,-139.71 391.83,-131.16"/>
<polygon fill="green" stroke="green" stroke-width="0.49" points="395.32,-130.92 391.6,-121.01 388.32,-131.08 395.32,-130.92"/>
</g>
<!-- 53264&#45;&gt;1 -->
<g id="edge18" class="edge">
<title>53264&#45;&gt;1</title>
<path fill="none" stroke="red" stroke-width="0.1" d="M210.9,-70.58C218.98,-59.55 228.73,-46.24 236.59,-35.51"/>
<polygon fill="red" stroke="red" stroke-width="0.1" points="239.59,-37.34 242.68,-27.21 233.94,-33.21 239.59,-37.34"/>
</g>
<!-- 55344&#45;&gt;1 -->
<g id="edge21" class="edge">
<title>55344&#45;&gt;1</title>
<path fill="none" stroke="green" stroke-width="0.53" d="M368.13,-77.26C361.99,-73.38 355.3,-69.28 349,-65.7 323.6,-51.24 293.52,-36.24 273.45,-26.53"/>
<polygon fill="green" stroke="green" stroke-width="0.53" points="274.73,-23.26 264.2,-22.08 271.7,-29.57 274.73,-23.26"/>
</g>
</g>
</svg>
