<?xml version="1.0" encoding="UTF-8" standalone="no"?>
<!DOCTYPE svg PUBLIC "-//W3C//DTD SVG 1.1//EN"
 "http://www.w3.org/Graphics/SVG/1.1/DTD/svg11.dtd">
<!-- Generated by graphviz version 2.47.1 (20210417.1919)
 -->
<!-- Pages: 1 -->
<svg width="571pt" height="288pt"
 viewBox="0.00 0.00 570.59 288.15" xmlns="http://www.w3.org/2000/svg" xmlns:xlink="http://www.w3.org/1999/xlink">
<g id="graph0" class="graph" transform="scale(1 1) rotate(0) translate(4 284.15)">
<polygon fill="white" stroke="transparent" points="-4,4 -4,-284.15 566.59,-284.15 566.59,4 -4,4"/>
<!-- &#45;1 -->
<g id="node1" class="node">
<title>&#45;1</title>
<polygon fill="lightgray" stroke="black" points="373.26,-105.81 349.26,-105.81 349.26,-87.81 373.26,-87.81 373.26,-105.81"/>
<text text-anchor="middle" x="361.26" y="-94.61" font-family="Times New Roman,serif" font-size="9.00">&#45;1</text>
</g>
<!-- 2 -->
<g id="node14" class="node">
<title>2</title>
<ellipse fill="lightblue" stroke="black" cx="214.26" cy="-14.85" rx="14.7" ry="14.7"/>
<text text-anchor="middle" x="214.26" y="-12.65" font-family="Times New Roman,serif" font-size="9.00">2</text>
</g>
<!-- &#45;1&#45;&gt;2 -->
<g id="edge21" class="edge">
<title>&#45;1&#45;&gt;2</title>
<path fill="none" stroke="red" stroke-width="0.71" stroke-dasharray="1,5" d="M355.9,-87.71C351.15,-81.05 343.67,-71.76 335.26,-65.7 305.14,-43.98 264.14,-29.67 238.45,-22.16"/>
<polygon fill="red" stroke="red" stroke-width="0.71" points="239.34,-18.78 228.77,-19.45 237.45,-25.52 239.34,-18.78"/>
</g>
<!-- &#45;2 -->
<g id="node2" class="node">
<title>&#45;2</title>
<polygon fill="lightgray" stroke="black" points="42.26,-204.04 18.26,-204.04 18.26,-186.04 42.26,-186.04 42.26,-204.04"/>
<text text-anchor="middle" x="30.26" y="-192.84" font-family="Times New Roman,serif" font-size="9.00">&#45;2</text>
</g>
<!-- 0 -->
<g id="node12" class="node">
<title>0</title>
<ellipse fill="lightblue" stroke="black" cx="150.26" cy="-96.81" rx="14.7" ry="14.7"/>
<text text-anchor="middle" x="150.26" y="-94.61" font-family="Times New Roman,serif" font-size="9.00">0</text>
</g>
<!-- &#45;2&#45;&gt;0 -->
<g id="edge12" class="edge">
<title>&#45;2&#45;&gt;0</title>
<path fill="none" stroke="red" stroke-width="0.93" stroke-dasharray="1,5" d="M42.31,-187.32C61.35,-176.36 99.03,-153.32 126.26,-127.92 129.56,-124.85 132.79,-121.3 135.76,-117.74"/>
<polygon fill="red" stroke="red" stroke-width="0.93" points="138.69,-119.67 142.11,-109.64 133.18,-115.35 138.69,-119.67"/>
</g>
<!-- &#45;2&#45;&gt;2 -->
<g id="edge1" class="edge">
<title>&#45;2&#45;&gt;2</title>
<path fill="none" stroke="green" stroke-width="0.19" stroke-dasharray="1,5" d="M27.27,-185.75C19.84,-163.6 3.12,-102.24 31.26,-65.7 50.57,-40.63 144,-25.11 189.4,-18.93"/>
<polygon fill="green" stroke="green" stroke-width="0.19" points="190.12,-22.36 199.58,-17.59 189.21,-15.42 190.12,-22.36"/>
</g>
<!-- &#45;3 -->
<g id="node3" class="node">
<title>&#45;3</title>
<polygon fill="lightgray" stroke="black" points="420.26,-204.04 396.26,-204.04 396.26,-186.04 420.26,-186.04 420.26,-204.04"/>
<text text-anchor="middle" x="408.26" y="-192.84" font-family="Times New Roman,serif" font-size="9.00">&#45;3</text>
</g>
<!-- 1 -->
<g id="node13" class="node">
<title>1</title>
<ellipse fill="lightblue" stroke="black" cx="444.26" cy="-96.81" rx="14.7" ry="14.7"/>
<text text-anchor="middle" x="444.26" y="-94.61" font-family="Times New Roman,serif" font-size="9.00">1</text>
</g>
<!-- &#45;3&#45;&gt;1 -->
<g id="edge2" class="edge">
<title>&#45;3&#45;&gt;1</title>
<path fill="none" stroke="red" stroke-width="0.25" d="M411.33,-185.83C416.68,-171.54 427.89,-141.59 435.73,-120.61"/>
<polygon fill="red" stroke="red" stroke-width="0.25" points="439.05,-121.74 439.28,-111.14 432.49,-119.28 439.05,-121.74"/>
</g>
<!-- &#45;4 -->
<g id="node4" class="node">
<title>&#45;4</title>
<polygon fill="lightgray" stroke="black" points="290.26,-280.15 266.26,-280.15 266.26,-262.15 290.26,-262.15 290.26,-280.15"/>
<text text-anchor="middle" x="278.26" y="-268.95" font-family="Times New Roman,serif" font-size="9.00">&#45;4</text>
</g>
<!-- &#45;4&#45;&gt;0 -->
<g id="edge20" class="edge">
<title>&#45;4&#45;&gt;0</title>
<path fill="none" stroke="red" stroke-width="0.2" d="M266.14,-269.09C243.21,-266.39 193.63,-257.09 169.26,-226.15 145.77,-196.31 144.98,-150.1 147.18,-122.03"/>
<polygon fill="red" stroke="red" stroke-width="0.2" points="150.68,-122.19 148.17,-111.89 143.72,-121.51 150.68,-122.19"/>
</g>
<!-- &#45;4&#45;&gt;2 -->
<g id="edge15" class="edge">
<title>&#45;4&#45;&gt;2</title>
<path fill="none" stroke="green" stroke-width="0.32" stroke-dasharray="1,5" d="M266.13,-270.14C218.2,-269.82 43.05,-265.91 9.26,-226.15 -2.58,-212.21 -4.2,-85.01 11.26,-65.7 33.46,-37.98 140.35,-23.51 189.47,-18.23"/>
<polygon fill="green" stroke="green" stroke-width="0.32" points="189.98,-21.7 199.57,-17.19 189.26,-14.73 189.98,-21.7"/>
</g>
<!-- 3 -->
<g id="node15" class="node">
<title>3</title>
<ellipse fill="lightblue" stroke="black" cx="278.26" cy="-96.81" rx="14.7" ry="14.7"/>
<text text-anchor="middle" x="278.26" y="-94.61" font-family="Times New Roman,serif" font-size="9.00">3</text>
</g>
<!-- &#45;4&#45;&gt;3 -->
<g id="edge19" class="edge">
<title>&#45;4&#45;&gt;3</title>
<path fill="none" stroke="green" stroke-width="0.44" d="M278.26,-261.84C278.26,-236.76 278.26,-161.19 278.26,-121.99"/>
<polygon fill="green" stroke="green" stroke-width="0.44" points="281.76,-121.97 278.26,-111.97 274.76,-121.97 281.76,-121.97"/>
</g>
<!-- 179979 -->
<g id="node17" class="node">
<title>179979</title>
<ellipse fill="white" stroke="black" cx="508.26" cy="-96.81" rx="31.23" ry="31.23"/>
<text text-anchor="middle" x="508.26" y="-94.61" font-family="Times New Roman,serif" font-size="9.00">179979</text>
</g>
<!-- &#45;4&#45;&gt;179979 -->
<g id="edge22" class="edge">
<title>&#45;4&#45;&gt;179979</title>
<path fill="none" stroke="green" stroke-width="0.51" stroke-dasharray="1,5" d="M290.55,-264.95C293.38,-263.9 296.39,-262.89 299.26,-262.15 354.03,-247.99 514.2,-268.88 551.26,-226.15 574.98,-198.8 554.58,-157.89 534.57,-129.64"/>
<polygon fill="green" stroke="green" stroke-width="0.51" points="537.18,-127.28 528.42,-121.31 531.55,-131.44 537.18,-127.28"/>
</g>
<!-- 195853 -->
<g id="node18" class="node">
<title>195853</title>
<ellipse fill="white" stroke="black" cx="469.26" cy="-195.04" rx="31.23" ry="31.23"/>
<text text-anchor="middle" x="469.26" y="-192.84" font-family="Times New Roman,serif" font-size="9.00">195853</text>
</g>
<!-- &#45;4&#45;&gt;195853 -->
<g id="edge29" class="edge">
<title>&#45;4&#45;&gt;195853</title>
<path fill="none" stroke="green" stroke-width="0.35" d="M290.63,-265.22C293.45,-264.15 296.45,-263.07 299.26,-262.15 356.23,-243.46 375.48,-252.64 429.26,-226.15 431.9,-224.85 434.53,-223.37 437.12,-221.79"/>
<polygon fill="green" stroke="green" stroke-width="0.35" points="439.31,-224.53 445.68,-216.06 435.42,-218.71 439.31,-224.53"/>
</g>
<!-- &#45;5 -->
<g id="node5" class="node">
<title>&#45;5</title>
<polygon fill="lightgray" stroke="black" points="332.26,-280.15 308.26,-280.15 308.26,-262.15 332.26,-262.15 332.26,-280.15"/>
<text text-anchor="middle" x="320.26" y="-268.95" font-family="Times New Roman,serif" font-size="9.00">&#45;5</text>
</g>
<!-- &#45;6 -->
<g id="node6" class="node">
<title>&#45;6</title>
<polygon fill="lightgray" stroke="black" points="542.26,-204.04 518.26,-204.04 518.26,-186.04 542.26,-186.04 542.26,-204.04"/>
<text text-anchor="middle" x="530.26" y="-192.84" font-family="Times New Roman,serif" font-size="9.00">&#45;6</text>
</g>
<!-- &#45;6&#45;&gt;1 -->
<g id="edge3" class="edge">
<title>&#45;6&#45;&gt;1</title>
<path fill="none" stroke="green" stroke-width="0.26" d="M525.4,-185.98C521.42,-179.68 515.47,-170.86 509.26,-163.92 493.1,-145.85 485,-145.47 468.26,-127.92 465.15,-124.66 462.01,-121.02 459.07,-117.44"/>
<polygon fill="green" stroke="green" stroke-width="0.26" points="461.64,-115.04 452.7,-109.36 456.15,-119.38 461.64,-115.04"/>
</g>
<!-- &#45;7 -->
<g id="node7" class="node">
<title>&#45;7</title>
<polygon fill="lightgray" stroke="black" points="122.26,-204.04 98.26,-204.04 98.26,-186.04 122.26,-186.04 122.26,-204.04"/>
<text text-anchor="middle" x="110.26" y="-192.84" font-family="Times New Roman,serif" font-size="9.00">&#45;7</text>
</g>
<!-- &#45;7&#45;&gt;0 -->
<g id="edge14" class="edge">
<title>&#45;7&#45;&gt;0</title>
<path fill="none" stroke="green" stroke-width="0.11" stroke-dasharray="1,5" d="M113.67,-185.83C119.65,-171.46 132.2,-141.26 140.93,-120.27"/>
<polygon fill="green" stroke="green" stroke-width="0.11" points="144.25,-121.39 144.86,-110.81 137.79,-118.7 144.25,-121.39"/>
</g>
<!-- &#45;7&#45;&gt;2 -->
<g id="edge4" class="edge">
<title>&#45;7&#45;&gt;2</title>
<path fill="none" stroke="green" stroke-width="0.18" stroke-dasharray="1,5" d="M98.25,-186.15C82.81,-175.22 56.75,-153.84 46.26,-127.92 35.89,-102.29 29.72,-87.86 46.26,-65.7 63.51,-42.6 147.28,-26.38 189.64,-19.52"/>
<polygon fill="green" stroke="green" stroke-width="0.18" points="190.35,-22.95 199.69,-17.94 189.26,-16.03 190.35,-22.95"/>
</g>
<!-- &#45;7&#45;&gt;3 -->
<g id="edge13" class="edge">
<title>&#45;7&#45;&gt;3</title>
<path fill="none" stroke="green" stroke-width="0.17" d="M122.34,-187.55C134.18,-181.27 152.8,-171.6 169.26,-163.92 206.45,-146.59 221.58,-152.73 254.26,-127.92 258.02,-125.07 261.53,-121.51 264.64,-117.84"/>
<polygon fill="green" stroke="green" stroke-width="0.17" points="267.44,-119.93 270.76,-109.87 261.89,-115.67 267.44,-119.93"/>
</g>
<!-- 187142 -->
<g id="node16" class="node">
<title>187142</title>
<ellipse fill="white" stroke="black" cx="214.26" cy="-96.81" rx="31.23" ry="31.23"/>
<text text-anchor="middle" x="214.26" y="-94.61" font-family="Times New Roman,serif" font-size="9.00">187142</text>
</g>
<!-- &#45;7&#45;&gt;187142 -->
<g id="edge26" class="edge">
<title>&#45;7&#45;&gt;187142</title>
<path fill="none" stroke="green" stroke-width="0.51" d="M119.13,-185.83C133.37,-172.66 161.97,-146.2 184.11,-125.71"/>
<polygon fill="green" stroke="green" stroke-width="0.51" points="186.68,-128.1 191.64,-118.74 181.92,-122.96 186.68,-128.1"/>
</g>
<!-- 194552 -->
<g id="node19" class="node">
<title>194552</title>
<ellipse fill="white" stroke="black" cx="86.26" cy="-96.81" rx="31.23" ry="31.23"/>
<text text-anchor="middle" x="86.26" y="-94.61" font-family="Times New Roman,serif" font-size="9.00">194552</text>
</g>
<!-- &#45;7&#45;&gt;194552 -->
<g id="edge27" class="edge">
<title>&#45;7&#45;&gt;194552</title>
<path fill="none" stroke="green" stroke-width="0.23" d="M108.22,-185.83C105.52,-175.02 100.59,-155.25 96.08,-137.18"/>
<polygon fill="green" stroke="green" stroke-width="0.23" points="99.46,-136.24 93.64,-127.38 92.66,-137.93 99.46,-136.24"/>
</g>
<!-- &#45;8 -->
<g id="node8" class="node">
<title>&#45;8</title>
<polygon fill="lightgray" stroke="black" points="378.26,-204.04 354.26,-204.04 354.26,-186.04 378.26,-186.04 378.26,-204.04"/>
<text text-anchor="middle" x="366.26" y="-192.84" font-family="Times New Roman,serif" font-size="9.00">&#45;8</text>
</g>
<!-- &#45;8&#45;&gt;1 -->
<g id="edge5" class="edge">
<title>&#45;8&#45;&gt;1</title>
<path fill="none" stroke="green" stroke-width="0.23" stroke-dasharray="1,5" d="M371.57,-185.95C375.69,-179.79 381.63,-171.17 387.26,-163.92 400.23,-147.23 415.98,-129.11 427.64,-116.06"/>
<polygon fill="green" stroke="green" stroke-width="0.23" points="430.55,-118.07 434.64,-108.29 425.34,-113.38 430.55,-118.07"/>
</g>
<!-- &#45;8&#45;&gt;2 -->
<g id="edge6" class="edge">
<title>&#45;8&#45;&gt;2</title>
<path fill="none" stroke="green" stroke-width="2.18" d="M370.85,-185.82C382.45,-163.87 410.06,-102.95 382.26,-65.7 365.02,-42.6 281.25,-26.38 238.89,-19.52"/>
<polygon fill="green" stroke="green" stroke-width="2.18" points="239.26,-16.03 228.84,-17.94 238.18,-22.95 239.26,-16.03"/>
</g>
<!-- &#45;8&#45;&gt;3 -->
<g id="edge17" class="edge">
<title>&#45;8&#45;&gt;3</title>
<path fill="none" stroke="green" stroke-width="0.19" d="M361.12,-185.82C357.09,-179.59 351.18,-170.94 345.26,-163.92 330.12,-145.96 310.85,-127.32 296.87,-114.43"/>
<polygon fill="green" stroke="green" stroke-width="0.19" points="299.07,-111.7 289.32,-107.55 294.35,-116.87 299.07,-111.7"/>
</g>
<!-- &#45;9 -->
<g id="node9" class="node">
<title>&#45;9</title>
<polygon fill="lightgray" stroke="black" points="202.26,-204.04 178.26,-204.04 178.26,-186.04 202.26,-186.04 202.26,-204.04"/>
<text text-anchor="middle" x="190.26" y="-192.84" font-family="Times New Roman,serif" font-size="9.00">&#45;9</text>
</g>
<!-- &#45;9&#45;&gt;0 -->
<g id="edge16" class="edge">
<title>&#45;9&#45;&gt;0</title>
<path fill="none" stroke="green" stroke-width="0.53" stroke-dasharray="1,5" d="M186.85,-185.83C180.88,-171.46 168.33,-141.26 159.6,-120.27"/>
<polygon fill="green" stroke="green" stroke-width="0.53" points="162.74,-118.7 155.67,-110.81 156.28,-121.39 162.74,-118.7"/>
</g>
<!-- &#45;9&#45;&gt;3 -->
<g id="edge7" class="edge">
<title>&#45;9&#45;&gt;3</title>
<path fill="none" stroke="green" stroke-width="1.53" stroke-dasharray="1,5" d="M195.4,-185.98C199.59,-179.68 205.84,-170.86 212.26,-163.92 228.96,-145.88 237.19,-145.62 254.26,-127.92 257.4,-124.68 260.55,-121.05 263.49,-117.47"/>
<polygon fill="green" stroke="green" stroke-width="1.53" points="266.41,-119.41 269.86,-109.39 260.92,-115.07 266.41,-119.41"/>
</g>
<!-- &#45;10 -->
<g id="node10" class="node">
<title>&#45;10</title>
<polygon fill="lightgray" stroke="black" points="249.76,-204.04 220.76,-204.04 220.76,-186.04 249.76,-186.04 249.76,-204.04"/>
<text text-anchor="middle" x="235.26" y="-192.84" font-family="Times New Roman,serif" font-size="9.00">&#45;10</text>
</g>
<!-- &#45;10&#45;&gt;0 -->
<g id="edge8" class="edge">
<title>&#45;10&#45;&gt;0</title>
<path fill="none" stroke="green" stroke-width="2.9" d="M229.21,-185.89C224.51,-179.69 217.73,-171.06 211.26,-163.92 195.86,-146.92 189.67,-144.93 174.26,-127.92 171.23,-124.58 168.13,-120.91 165.21,-117.31"/>
<polygon fill="green" stroke="green" stroke-width="2.9" points="167.78,-114.91 158.83,-109.24 162.29,-119.26 167.78,-114.91"/>
</g>
<!-- &#45;10&#45;&gt;1 -->
<g id="edge9" class="edge">
<title>&#45;10&#45;&gt;1</title>
<path fill="none" stroke="red" stroke-width="0.14" d="M249.95,-186.81C262.67,-180.6 281.59,-171.48 298.26,-163.92 335.26,-147.16 345.32,-144.8 382.26,-127.92 395.53,-121.86 410.22,-114.75 421.96,-108.96"/>
<polygon fill="red" stroke="red" stroke-width="0.14" points="423.64,-112.03 431.05,-104.46 420.53,-105.76 423.64,-112.03"/>
</g>
<!-- &#45;10&#45;&gt;3 -->
<g id="edge10" class="edge">
<title>&#45;10&#45;&gt;3</title>
<path fill="none" stroke="green" stroke-width="0.72" d="M238.93,-185.83C245.38,-171.39 258.97,-140.98 268.36,-119.98"/>
<polygon fill="green" stroke="green" stroke-width="0.72" points="271.57,-121.37 272.45,-110.81 265.18,-118.52 271.57,-121.37"/>
</g>
<!-- &#45;11 -->
<g id="node11" class="node">
<title>&#45;11</title>
<polygon fill="lightgray" stroke="black" points="335.76,-204.04 306.76,-204.04 306.76,-186.04 335.76,-186.04 335.76,-204.04"/>
<text text-anchor="middle" x="321.26" y="-192.84" font-family="Times New Roman,serif" font-size="9.00">&#45;11</text>
</g>
<!-- &#45;11&#45;&gt;1 -->
<g id="edge11" class="edge">
<title>&#45;11&#45;&gt;1</title>
<path fill="none" stroke="green" stroke-width="2.81" d="M326.77,-185.79C331.28,-179.39 338.08,-170.53 345.26,-163.92 369.41,-141.73 401.66,-121.64 422.69,-109.58"/>
<polygon fill="green" stroke="green" stroke-width="2.81" points="424.5,-112.58 431.5,-104.63 421.07,-106.48 424.5,-112.58"/>
</g>
<!-- &#45;11&#45;&gt;2 -->
<g id="edge18" class="edge">
<title>&#45;11&#45;&gt;2</title>
<path fill="none" stroke="green" stroke-width="0.4" stroke-dasharray="1,5" d="M322.34,-185.96C324.78,-164.33 328.64,-104.15 302.26,-65.7 287.06,-43.53 258.56,-30.04 238.11,-22.79"/>
<polygon fill="green" stroke="green" stroke-width="0.4" points="239.13,-19.44 228.53,-19.63 236.93,-26.09 239.13,-19.44"/>
</g>
<!-- &#45;11&#45;&gt;187142 -->
<g id="edge24" class="edge">
<title>&#45;11&#45;&gt;187142</title>
<path fill="none" stroke="red" stroke-width="0.2" d="M312.14,-185.83C297.34,-172.52 267.44,-145.63 244.56,-125.06"/>
<polygon fill="red" stroke="red" stroke-width="0.2" points="246.88,-122.44 237.11,-118.35 242.2,-127.64 246.88,-122.44"/>
</g>
<!-- 187142&#45;&gt;2 -->
<g id="edge25" class="edge">
<title>187142&#45;&gt;2</title>
<path fill="none" stroke="green" stroke-width="0.19" d="M214.26,-65.58C214.26,-57.19 214.26,-48.19 214.26,-40.18"/>
<polygon fill="green" stroke="green" stroke-width="0.19" points="217.76,-40.03 214.26,-30.03 210.76,-40.03 217.76,-40.03"/>
</g>
<!-- 179979&#45;&gt;2 -->
<g id="edge23" class="edge">
<title>179979&#45;&gt;2</title>
<path fill="none" stroke="green" stroke-width="0.39" d="M485.27,-75.77C479.96,-71.94 474.14,-68.32 468.26,-65.7 389.61,-30.62 286.38,-20.12 239.44,-17.07"/>
<polygon fill="green" stroke="green" stroke-width="0.39" points="239.47,-13.56 229.28,-16.46 239.06,-20.55 239.47,-13.56"/>
</g>
<!-- 195853&#45;&gt;3 -->
<g id="edge31" class="edge">
<title>195853&#45;&gt;3</title>
<path fill="none" stroke="red" stroke-width="0.14" d="M445.42,-174.51C440.26,-170.74 434.71,-167.01 429.26,-163.92 392.13,-142.91 379.25,-145.25 340.26,-127.92 326.94,-122 312.25,-114.89 300.51,-109.07"/>
<polygon fill="red" stroke="red" stroke-width="0.14" points="301.96,-105.88 291.45,-104.54 298.82,-112.14 301.96,-105.88"/>
</g>
<!-- 195853&#45;&gt;179979 -->
<g id="edge30" class="edge">
<title>195853&#45;&gt;179979</title>
<path fill="none" stroke="green" stroke-width="0.42" d="M480.65,-165.95C484.5,-156.44 488.86,-145.68 492.97,-135.55"/>
<polygon fill="green" stroke="green" stroke-width="0.42" points="496.28,-136.69 496.8,-126.1 489.8,-134.06 496.28,-136.69"/>
</g>
<!-- 194552&#45;&gt;2 -->
<g id="edge28" class="edge">
<title>194552&#45;&gt;2</title>
<path fill="none" stroke="green" stroke-width="0.17" stroke-dasharray="1,5" d="M110.44,-76.82C115.58,-73.01 121.03,-69.13 126.26,-65.7 148.07,-51.4 174.19,-36.92 192.28,-27.27"/>
<polygon fill="green" stroke="green" stroke-width="0.17" points="194.22,-30.21 201.43,-22.45 190.95,-24.02 194.22,-30.21"/>
</g>
</g>
</svg>
