<?xml version="1.0" encoding="UTF-8" standalone="no"?>
<!DOCTYPE svg PUBLIC "-//W3C//DTD SVG 1.1//EN"
 "http://www.w3.org/Graphics/SVG/1.1/DTD/svg11.dtd">
<!-- Generated by graphviz version 2.47.1 (20210417.1919)
 -->
<!-- Pages: 1 -->
<svg width="597pt" height="190pt"
 viewBox="0.00 0.00 596.50 189.92" xmlns="http://www.w3.org/2000/svg" xmlns:xlink="http://www.w3.org/1999/xlink">
<g id="graph0" class="graph" transform="scale(1 1) rotate(0) translate(4 185.92)">
<polygon fill="white" stroke="transparent" points="-4,4 -4,-185.92 592.5,-185.92 592.5,4 -4,4"/>
<!-- &#45;1 -->
<g id="node1" class="node">
<title>&#45;1</title>
<polygon fill="lightgray" stroke="black" points="308.75,-112.18 284.75,-112.18 284.75,-94.18 308.75,-94.18 308.75,-112.18"/>
<text text-anchor="middle" x="296.75" y="-100.98" font-family="Times New Roman,serif" font-size="9.00">&#45;1</text>
</g>
<!-- 0 -->
<g id="node12" class="node">
<title>0</title>
<ellipse fill="lightblue" stroke="black" cx="188.75" cy="-21.21" rx="14.7" ry="14.7"/>
<text text-anchor="middle" x="188.75" y="-19.01" font-family="Times New Roman,serif" font-size="9.00">0</text>
</g>
<!-- &#45;1&#45;&gt;0 -->
<g id="edge1" class="edge">
<title>&#45;1&#45;&gt;0</title>
<path fill="none" stroke="red" stroke-width="0.34" d="M285.6,-93.92C267.43,-80.46 231.18,-53.62 208.55,-36.87"/>
<polygon fill="red" stroke="red" stroke-width="0.34" points="210.45,-33.92 200.33,-30.79 206.29,-39.55 210.45,-33.92"/>
</g>
<!-- 1 -->
<g id="node13" class="node">
<title>1</title>
<ellipse fill="lightblue" stroke="black" cx="276.75" cy="-21.21" rx="14.7" ry="14.7"/>
<text text-anchor="middle" x="276.75" y="-19.01" font-family="Times New Roman,serif" font-size="9.00">1</text>
</g>
<!-- &#45;1&#45;&gt;1 -->
<g id="edge2" class="edge">
<title>&#45;1&#45;&gt;1</title>
<path fill="none" stroke="red" stroke-width="0.23" d="M294.69,-93.92C291.87,-82.66 286.71,-62.03 282.65,-45.78"/>
<polygon fill="red" stroke="red" stroke-width="0.23" points="285.99,-44.73 280.17,-35.87 279.2,-46.42 285.99,-44.73"/>
</g>
<!-- 2 -->
<g id="node14" class="node">
<title>2</title>
<ellipse fill="lightblue" stroke="black" cx="418.75" cy="-21.21" rx="14.7" ry="14.7"/>
<text text-anchor="middle" x="418.75" y="-19.01" font-family="Times New Roman,serif" font-size="9.00">2</text>
</g>
<!-- &#45;1&#45;&gt;2 -->
<g id="edge3" class="edge">
<title>&#45;1&#45;&gt;2</title>
<path fill="none" stroke="green" stroke-width="0.67" d="M302.78,-94.06C306.68,-89.15 312.09,-82.98 317.75,-78.43 331.06,-67.72 371.34,-46.39 396.83,-33.31"/>
<polygon fill="green" stroke="green" stroke-width="0.67" points="398.47,-36.4 405.79,-28.73 395.29,-30.16 398.47,-36.4"/>
</g>
<!-- &#45;2 -->
<g id="node2" class="node">
<title>&#45;2</title>
<polygon fill="lightgray" stroke="black" points="180.75,-112.18 156.75,-112.18 156.75,-94.18 180.75,-94.18 180.75,-112.18"/>
<text text-anchor="middle" x="168.75" y="-100.98" font-family="Times New Roman,serif" font-size="9.00">&#45;2</text>
</g>
<!-- &#45;2&#45;&gt;0 -->
<g id="edge4" class="edge">
<title>&#45;2&#45;&gt;0</title>
<path fill="none" stroke="green" stroke-width="0.83" d="M170.82,-93.92C173.63,-82.66 178.79,-62.03 182.86,-45.78"/>
<polygon fill="green" stroke="green" stroke-width="0.83" points="186.3,-46.42 185.34,-35.87 179.51,-44.73 186.3,-46.42"/>
</g>
<!-- &#45;2&#45;&gt;1 -->
<g id="edge5" class="edge">
<title>&#45;2&#45;&gt;1</title>
<path fill="none" stroke="green" stroke-width="0.29" d="M175.25,-93.75C179.16,-88.96 184.41,-83.02 189.75,-78.43 210.3,-60.75 236.81,-44.41 255.14,-33.95"/>
<polygon fill="green" stroke="green" stroke-width="0.29" points="256.89,-36.98 263.91,-29.04 253.47,-30.87 256.89,-36.98"/>
</g>
<!-- &#45;3 -->
<g id="node3" class="node">
<title>&#45;3</title>
<polygon fill="lightgray" stroke="black" points="30.75,-181.92 6.75,-181.92 6.75,-163.92 30.75,-163.92 30.75,-181.92"/>
<text text-anchor="middle" x="18.75" y="-170.72" font-family="Times New Roman,serif" font-size="9.00">&#45;3</text>
</g>
<!-- &#45;3&#45;&gt;0 -->
<g id="edge6" class="edge">
<title>&#45;3&#45;&gt;0</title>
<path fill="none" stroke="green" stroke-width="0.43" d="M17.97,-163.81C16.73,-146.08 16.33,-103.48 37.75,-78.43 69.9,-40.83 129.7,-28.35 163.6,-24.23"/>
<polygon fill="green" stroke="green" stroke-width="0.43" points="164.05,-27.7 173.63,-23.16 163.31,-20.74 164.05,-27.7"/>
</g>
<!-- 4409 -->
<g id="node17" class="node">
<title>4409</title>
<ellipse fill="white" stroke="black" cx="113.75" cy="-103.18" rx="25" ry="25"/>
<text text-anchor="middle" x="113.75" y="-100.98" font-family="Times New Roman,serif" font-size="9.00">4409</text>
</g>
<!-- &#45;3&#45;&gt;4409 -->
<g id="edge30" class="edge">
<title>&#45;3&#45;&gt;4409</title>
<path fill="none" stroke="green" stroke-width="0.27" d="M30.02,-163.89C43.66,-154.16 67.11,-137.44 85.73,-124.16"/>
<polygon fill="green" stroke="green" stroke-width="0.27" points="87.79,-126.99 93.89,-118.34 83.72,-121.29 87.79,-126.99"/>
</g>
<!-- 379 -->
<g id="node18" class="node">
<title>379</title>
<ellipse fill="white" stroke="black" cx="58.75" cy="-21.21" rx="21.43" ry="21.43"/>
<text text-anchor="middle" x="58.75" y="-19.01" font-family="Times New Roman,serif" font-size="9.00">379</text>
</g>
<!-- &#45;3&#45;&gt;379 -->
<g id="edge29" class="edge">
<title>&#45;3&#45;&gt;379</title>
<path fill="none" stroke="red" stroke-width="0.28" d="M14.83,-163.84C7.33,-147.22 -7.26,-108.27 4.75,-78.43 10.73,-63.58 22.71,-50.45 33.87,-40.62"/>
<polygon fill="red" stroke="red" stroke-width="0.28" points="36.3,-43.15 41.76,-34.07 31.83,-37.77 36.3,-43.15"/>
</g>
<!-- &#45;4 -->
<g id="node4" class="node">
<title>&#45;4</title>
<polygon fill="lightgray" stroke="black" points="548.75,-181.92 524.75,-181.92 524.75,-163.92 548.75,-163.92 548.75,-181.92"/>
<text text-anchor="middle" x="536.75" y="-170.72" font-family="Times New Roman,serif" font-size="9.00">&#45;4</text>
</g>
<!-- &#45;4&#45;&gt;2 -->
<g id="edge7" class="edge">
<title>&#45;4&#45;&gt;2</title>
<path fill="none" stroke="green" stroke-width="0.1" d="M534.25,-163.71C528.71,-146.5 514.11,-105.99 491.75,-78.43 477.18,-60.46 455.77,-44.86 439.91,-34.68"/>
<polygon fill="green" stroke="green" stroke-width="0.1" points="441.64,-31.63 431.3,-29.33 437.95,-37.58 441.64,-31.63"/>
</g>
<!-- 4487 -->
<g id="node16" class="node">
<title>4487</title>
<ellipse fill="white" stroke="black" cx="563.75" cy="-103.18" rx="25" ry="25"/>
<text text-anchor="middle" x="563.75" y="-100.98" font-family="Times New Roman,serif" font-size="9.00">4487</text>
</g>
<!-- &#45;4&#45;&gt;4487 -->
<g id="edge32" class="edge">
<title>&#45;4&#45;&gt;4487</title>
<path fill="none" stroke="green" stroke-width="0.18" d="M539.96,-163.89C542.76,-156.86 547.02,-146.17 551.16,-135.77"/>
<polygon fill="green" stroke="green" stroke-width="0.18" points="554.44,-137 554.89,-126.41 547.94,-134.41 554.44,-137"/>
</g>
<!-- &#45;5 -->
<g id="node5" class="node">
<title>&#45;5</title>
<polygon fill="lightgray" stroke="black" points="196.75,-181.92 172.75,-181.92 172.75,-163.92 196.75,-163.92 196.75,-181.92"/>
<text text-anchor="middle" x="184.75" y="-170.72" font-family="Times New Roman,serif" font-size="9.00">&#45;5</text>
</g>
<!-- &#45;5&#45;&gt;1 -->
<g id="edge8" class="edge">
<title>&#45;5&#45;&gt;1</title>
<path fill="none" stroke="red" stroke-width="0.34" d="M197.04,-164.23C208.69,-156.37 225.97,-143.18 236.75,-127.92 254.64,-102.61 265.68,-68.28 271.52,-45.7"/>
<polygon fill="red" stroke="red" stroke-width="0.34" points="274.93,-46.49 273.9,-35.94 268.13,-44.83 274.93,-46.49"/>
</g>
<!-- &#45;5&#45;&gt;4409 -->
<g id="edge34" class="edge">
<title>&#45;5&#45;&gt;4409</title>
<path fill="none" stroke="red" stroke-width="0.8" d="M176.33,-163.89C167.12,-155.1 151.92,-140.59 138.8,-128.08"/>
<polygon fill="red" stroke="red" stroke-width="0.8" points="141.04,-125.37 131.39,-121 136.2,-130.44 141.04,-125.37"/>
</g>
<!-- &#45;6 -->
<g id="node6" class="node">
<title>&#45;6</title>
<polygon fill="lightgray" stroke="black" points="482.75,-112.18 458.75,-112.18 458.75,-94.18 482.75,-94.18 482.75,-112.18"/>
<text text-anchor="middle" x="470.75" y="-100.98" font-family="Times New Roman,serif" font-size="9.00">&#45;6</text>
</g>
<!-- &#45;6&#45;&gt;2 -->
<g id="edge9" class="edge">
<title>&#45;6&#45;&gt;2</title>
<path fill="none" stroke="green" stroke-width="0.14" d="M465.38,-93.92C457.59,-81.93 442.89,-59.33 432.07,-42.69"/>
<polygon fill="green" stroke="green" stroke-width="0.14" points="434.91,-40.65 426.53,-34.17 429.05,-44.46 434.91,-40.65"/>
</g>
<!-- 3 -->
<g id="node15" class="node">
<title>3</title>
<ellipse fill="lightblue" stroke="black" cx="351.75" cy="-21.21" rx="14.7" ry="14.7"/>
<text text-anchor="middle" x="351.75" y="-19.01" font-family="Times New Roman,serif" font-size="9.00">3</text>
</g>
<!-- &#45;6&#45;&gt;3 -->
<g id="edge10" class="edge">
<title>&#45;6&#45;&gt;3</title>
<path fill="none" stroke="green" stroke-width="0.36" d="M464.71,-94.09C460.79,-89.19 455.38,-83.02 449.75,-78.43 426.1,-59.15 395.01,-42.55 374.25,-32.48"/>
<polygon fill="green" stroke="green" stroke-width="0.36" points="375.51,-29.2 364.97,-28.09 372.51,-35.53 375.51,-29.2"/>
</g>
<!-- &#45;7 -->
<g id="node7" class="node">
<title>&#45;7</title>
<polygon fill="lightgray" stroke="black" points="70.75,-112.18 46.75,-112.18 46.75,-94.18 70.75,-94.18 70.75,-112.18"/>
<text text-anchor="middle" x="58.75" y="-100.98" font-family="Times New Roman,serif" font-size="9.00">&#45;7</text>
</g>
<!-- &#45;7&#45;&gt;0 -->
<g id="edge11" class="edge">
<title>&#45;7&#45;&gt;0</title>
<path fill="none" stroke="green" stroke-width="0.35" stroke-dasharray="1,5" d="M64.73,-94C68.62,-89.06 74.02,-82.89 79.75,-78.43 106.68,-57.46 142.62,-40.71 165.73,-31.12"/>
<polygon fill="green" stroke="green" stroke-width="0.35" points="167.11,-34.34 175.07,-27.34 164.49,-27.85 167.11,-34.34"/>
</g>
<!-- &#45;7&#45;&gt;3 -->
<g id="edge12" class="edge">
<title>&#45;7&#45;&gt;3</title>
<path fill="none" stroke="green" stroke-width="0.35" stroke-dasharray="1,5" d="M63.95,-93.8C67.68,-88.52 73.2,-82.04 79.75,-78.43 166.89,-30.36 204.83,-68.91 300.75,-42.43 310.25,-39.8 320.41,-36 329.14,-32.39"/>
<polygon fill="green" stroke="green" stroke-width="0.35" points="330.79,-35.49 338.6,-28.34 328.03,-29.06 330.79,-35.49"/>
</g>
<!-- &#45;7&#45;&gt;379 -->
<g id="edge26" class="edge">
<title>&#45;7&#45;&gt;379</title>
<path fill="none" stroke="green" stroke-width="0.2" d="M58.75,-93.92C58.75,-84.29 58.75,-67.8 58.75,-53.06"/>
<polygon fill="green" stroke="green" stroke-width="0.2" points="62.25,-52.76 58.75,-42.76 55.25,-52.76 62.25,-52.76"/>
</g>
<!-- &#45;8 -->
<g id="node8" class="node">
<title>&#45;8</title>
<polygon fill="lightgray" stroke="black" points="398.75,-112.18 374.75,-112.18 374.75,-94.18 398.75,-94.18 398.75,-112.18"/>
<text text-anchor="middle" x="386.75" y="-100.98" font-family="Times New Roman,serif" font-size="9.00">&#45;8</text>
</g>
<!-- &#45;8&#45;&gt;0 -->
<g id="edge13" class="edge">
<title>&#45;8&#45;&gt;0</title>
<path fill="none" stroke="green" stroke-width="0.41" d="M381.03,-94.12C377.01,-88.97 371.2,-82.53 364.75,-78.43 363.09,-77.37 260.15,-44.77 212.49,-29.71"/>
<polygon fill="green" stroke="green" stroke-width="0.41" points="213.29,-26.29 202.7,-26.62 211.18,-32.97 213.29,-26.29"/>
</g>
<!-- &#45;8&#45;&gt;2 -->
<g id="edge14" class="edge">
<title>&#45;8&#45;&gt;2</title>
<path fill="none" stroke="green" stroke-width="1.26" d="M390.06,-93.92C394.66,-82.42 403.17,-61.15 409.73,-44.75"/>
<polygon fill="green" stroke="green" stroke-width="1.26" points="413.05,-45.88 413.52,-35.3 406.55,-43.28 413.05,-45.88"/>
</g>
<!-- &#45;8&#45;&gt;3 -->
<g id="edge15" class="edge">
<title>&#45;8&#45;&gt;3</title>
<path fill="none" stroke="red" stroke-width="1.02" d="M383.14,-93.92C378.08,-82.35 368.69,-60.9 361.49,-44.47"/>
<polygon fill="red" stroke="red" stroke-width="1.02" points="364.57,-42.77 357.35,-35.01 358.16,-45.58 364.57,-42.77"/>
</g>
<!-- &#45;9 -->
<g id="node9" class="node">
<title>&#45;9</title>
<polygon fill="lightgray" stroke="black" points="440.75,-112.18 416.75,-112.18 416.75,-94.18 440.75,-94.18 440.75,-112.18"/>
<text text-anchor="middle" x="428.75" y="-100.98" font-family="Times New Roman,serif" font-size="9.00">&#45;9</text>
</g>
<!-- &#45;9&#45;&gt;1 -->
<g id="edge16" class="edge">
<title>&#45;9&#45;&gt;1</title>
<path fill="none" stroke="green" stroke-width="0.11" d="M422.89,-93.85C419.04,-88.86 413.64,-82.68 407.75,-78.43 398.53,-71.76 334.99,-45.68 299.91,-31.5"/>
<polygon fill="green" stroke="green" stroke-width="0.11" points="301.01,-28.17 290.43,-27.68 298.4,-34.67 301.01,-28.17"/>
</g>
<!-- &#45;9&#45;&gt;2 -->
<g id="edge17" class="edge">
<title>&#45;9&#45;&gt;2</title>
<path fill="none" stroke="green" stroke-width="0.34" d="M427.72,-93.92C426.33,-82.83 423.81,-62.66 421.79,-46.53"/>
<polygon fill="green" stroke="green" stroke-width="0.34" points="425.21,-45.65 420.5,-36.17 418.27,-46.52 425.21,-45.65"/>
</g>
<!-- &#45;9&#45;&gt;3 -->
<g id="edge18" class="edge">
<title>&#45;9&#45;&gt;3</title>
<path fill="none" stroke="green" stroke-width="1.31" d="M421.87,-94.15C417.82,-89.5 412.57,-83.56 407.75,-78.43 395.31,-65.17 380.81,-50.64 369.69,-39.68"/>
<polygon fill="green" stroke="green" stroke-width="1.31" points="371.85,-36.9 362.26,-32.39 366.95,-41.89 371.85,-36.9"/>
</g>
<!-- &#45;10 -->
<g id="node10" class="node">
<title>&#45;10</title>
<polygon fill="lightgray" stroke="black" points="228.25,-112.18 199.25,-112.18 199.25,-94.18 228.25,-94.18 228.25,-112.18"/>
<text text-anchor="middle" x="213.75" y="-100.98" font-family="Times New Roman,serif" font-size="9.00">&#45;10</text>
</g>
<!-- &#45;10&#45;&gt;0 -->
<g id="edge19" class="edge">
<title>&#45;10&#45;&gt;0</title>
<path fill="none" stroke="green" stroke-width="1.85" d="M211.17,-93.92C207.63,-82.59 201.13,-61.79 196.03,-45.5"/>
<polygon fill="green" stroke="green" stroke-width="1.85" points="199.26,-44.08 192.93,-35.58 192.58,-46.17 199.26,-44.08"/>
</g>
<!-- &#45;10&#45;&gt;1 -->
<g id="edge20" class="edge">
<title>&#45;10&#45;&gt;1</title>
<path fill="none" stroke="red" stroke-width="0.35" d="M220.26,-93.92C229.95,-81.62 248.45,-58.14 261.64,-41.4"/>
<polygon fill="red" stroke="red" stroke-width="0.35" points="264.54,-43.37 267.98,-33.35 259.04,-39.04 264.54,-43.37"/>
</g>
<!-- &#45;10&#45;&gt;2 -->
<g id="edge21" class="edge">
<title>&#45;10&#45;&gt;2</title>
<path fill="none" stroke="red" stroke-width="0.16" stroke-dasharray="1,5" d="M228.25,-96.53C240.8,-91.66 259.44,-84.49 275.75,-78.43 320.03,-61.98 332.11,-60.49 375.75,-42.43 382.61,-39.59 389.97,-36.24 396.62,-33.1"/>
<polygon fill="red" stroke="red" stroke-width="0.16" points="398.22,-36.21 405.72,-28.73 395.19,-29.91 398.22,-36.21"/>
</g>
<!-- &#45;10&#45;&gt;3 -->
<g id="edge22" class="edge">
<title>&#45;10&#45;&gt;3</title>
<path fill="none" stroke="green" stroke-width="0.1" d="M227.74,-94.07C252,-80.01 301.99,-51.05 330.54,-34.5"/>
<polygon fill="green" stroke="green" stroke-width="0.1" points="332.43,-37.45 339.33,-29.41 328.92,-31.4 332.43,-37.45"/>
</g>
<!-- &#45;10&#45;&gt;379 -->
<g id="edge27" class="edge">
<title>&#45;10&#45;&gt;379</title>
<path fill="none" stroke="green" stroke-width="0.17" stroke-dasharray="1,5" d="M206.83,-93.9C202.35,-88.93 196.17,-82.75 189.75,-78.43 157.76,-56.88 116.17,-40.73 88.52,-31.4"/>
<polygon fill="green" stroke="green" stroke-width="0.17" points="89.6,-28.07 79.01,-28.27 87.41,-34.72 89.6,-28.07"/>
</g>
<!-- &#45;11 -->
<g id="node11" class="node">
<title>&#45;11</title>
<polygon fill="lightgray" stroke="black" points="356.25,-112.18 327.25,-112.18 327.25,-94.18 356.25,-94.18 356.25,-112.18"/>
<text text-anchor="middle" x="341.75" y="-100.98" font-family="Times New Roman,serif" font-size="9.00">&#45;11</text>
</g>
<!-- &#45;11&#45;&gt;0 -->
<g id="edge23" class="edge">
<title>&#45;11&#45;&gt;0</title>
<path fill="none" stroke="green" stroke-width="0.18" d="M334.82,-93.91C330.34,-88.95 324.16,-82.77 317.75,-78.43 284.01,-55.56 239.45,-38.62 212.51,-29.6"/>
<polygon fill="green" stroke="green" stroke-width="0.18" points="213.37,-26.2 202.78,-26.43 211.2,-32.85 213.37,-26.2"/>
</g>
<!-- &#45;11&#45;&gt;1 -->
<g id="edge24" class="edge">
<title>&#45;11&#45;&gt;1</title>
<path fill="none" stroke="green" stroke-width="2.49" d="M335.04,-93.92C325.04,-81.62 305.95,-58.14 292.35,-41.4"/>
<polygon fill="green" stroke="green" stroke-width="2.49" points="294.83,-38.9 285.81,-33.35 289.4,-43.32 294.83,-38.9"/>
</g>
<!-- &#45;11&#45;&gt;2 -->
<g id="edge28" class="edge">
<title>&#45;11&#45;&gt;2</title>
<path fill="none" stroke="red" stroke-width="0.31" d="M349.7,-93.92C361.85,-81.3 385.34,-56.91 401.52,-40.11"/>
<polygon fill="red" stroke="red" stroke-width="0.31" points="404.38,-42.19 408.79,-32.55 399.34,-37.33 404.38,-42.19"/>
</g>
<!-- &#45;11&#45;&gt;3 -->
<g id="edge25" class="edge">
<title>&#45;11&#45;&gt;3</title>
<path fill="none" stroke="green" stroke-width="0.27" d="M342.78,-93.92C344.17,-82.83 346.69,-62.66 348.71,-46.53"/>
<polygon fill="green" stroke="green" stroke-width="0.27" points="352.24,-46.52 350.01,-36.17 345.29,-45.65 352.24,-46.52"/>
</g>
<!-- 4487&#45;&gt;2 -->
<g id="edge33" class="edge">
<title>4487&#45;&gt;2</title>
<path fill="none" stroke="green" stroke-width="0.37" d="M542.84,-89.13C537.02,-85.58 530.68,-81.8 524.75,-78.43 496.02,-62.08 462.18,-44.4 440.6,-33.32"/>
<polygon fill="green" stroke="green" stroke-width="0.37" points="442.11,-30.16 431.61,-28.72 438.92,-36.39 442.11,-30.16"/>
</g>
<!-- 4409&#45;&gt;0 -->
<g id="edge31" class="edge">
<title>4409&#45;&gt;0</title>
<path fill="none" stroke="red" stroke-width="0.11" d="M130.4,-84.43C142.69,-71.32 159.37,-53.54 171.75,-40.34"/>
<polygon fill="red" stroke="red" stroke-width="0.11" points="174.53,-42.49 178.82,-32.8 169.43,-37.7 174.53,-42.49"/>
</g>
</g>
</svg>
