<?xml version="1.0" encoding="UTF-8" standalone="no"?>
<!DOCTYPE svg PUBLIC "-//W3C//DTD SVG 1.1//EN"
 "http://www.w3.org/Graphics/SVG/1.1/DTD/svg11.dtd">
<!-- Generated by graphviz version 2.47.1 (20210417.1919)
 -->
<!-- Pages: 1 -->
<svg width="446pt" height="249pt"
 viewBox="0.00 0.00 446.16 248.55" xmlns="http://www.w3.org/2000/svg" xmlns:xlink="http://www.w3.org/1999/xlink">
<g id="graph0" class="graph" transform="scale(1 1) rotate(0) translate(4 244.55)">
<polygon fill="white" stroke="transparent" points="-4,4 -4,-244.55 442.16,-244.55 442.16,4 -4,4"/>
<!-- &#45;1 -->
<g id="node1" class="node">
<title>&#45;1</title>
<polygon fill="lightgray" stroke="black" points="48.16,-240.55 24.16,-240.55 24.16,-222.55 48.16,-222.55 48.16,-240.55"/>
<text text-anchor="middle" x="36.16" y="-229.35" font-family="Times New Roman,serif" font-size="9.00">&#45;1</text>
</g>
<!-- 0 -->
<g id="node12" class="node">
<title>0</title>
<ellipse fill="lightblue" stroke="black" cx="130.16" cy="-165.34" rx="14.7" ry="14.7"/>
<text text-anchor="middle" x="130.16" y="-163.14" font-family="Times New Roman,serif" font-size="9.00">0</text>
</g>
<!-- &#45;1&#45;&gt;0 -->
<g id="edge17" class="edge">
<title>&#45;1&#45;&gt;0</title>
<path fill="none" stroke="green" stroke-width="0.53" d="M48.38,-223.57C62.62,-215.28 86.68,-200.77 106.16,-186.55 107.81,-185.35 109.49,-184.06 111.16,-182.74"/>
<polygon fill="green" stroke="green" stroke-width="0.53" points="113.69,-185.19 119.18,-176.13 109.24,-179.79 113.69,-185.19"/>
</g>
<!-- 2 -->
<g id="node14" class="node">
<title>2</title>
<ellipse fill="lightblue" stroke="black" cx="135.16" cy="-14.85" rx="14.7" ry="14.7"/>
<text text-anchor="middle" x="135.16" y="-12.65" font-family="Times New Roman,serif" font-size="9.00">2</text>
</g>
<!-- &#45;1&#45;&gt;2 -->
<g id="edge13" class="edge">
<title>&#45;1&#45;&gt;2</title>
<path fill="none" stroke="green" stroke-width="0.18" stroke-dasharray="1,5" d="M31.61,-222.49C17.89,-196.99 -20.06,-116.8 14.16,-65.7 35.57,-33.72 81.61,-22.24 110.32,-18.13"/>
<polygon fill="green" stroke="green" stroke-width="0.18" points="110.89,-21.58 120.39,-16.88 110.03,-14.64 110.89,-21.58"/>
</g>
<!-- 539 -->
<g id="node17" class="node">
<title>539</title>
<ellipse fill="white" stroke="black" cx="76.16" cy="-165.34" rx="21.43" ry="21.43"/>
<text text-anchor="middle" x="76.16" y="-163.14" font-family="Times New Roman,serif" font-size="9.00">539</text>
</g>
<!-- &#45;1&#45;&gt;539 -->
<g id="edge18" class="edge">
<title>&#45;1&#45;&gt;539</title>
<path fill="none" stroke="green" stroke-width="0.36" d="M41.22,-222.42C45.92,-214.88 53.17,-203.24 59.85,-192.51"/>
<polygon fill="green" stroke="green" stroke-width="0.36" points="62.94,-194.17 65.26,-183.83 57,-190.47 62.94,-194.17"/>
</g>
<!-- &#45;2 -->
<g id="node2" class="node">
<title>&#45;2</title>
<polygon fill="lightgray" stroke="black" points="47.16,-95.91 23.16,-95.91 23.16,-77.91 47.16,-77.91 47.16,-95.91"/>
<text text-anchor="middle" x="35.16" y="-84.71" font-family="Times New Roman,serif" font-size="9.00">&#45;2</text>
</g>
<!-- &#45;2&#45;&gt;2 -->
<g id="edge15" class="edge">
<title>&#45;2&#45;&gt;2</title>
<path fill="none" stroke="green" stroke-width="0.14" d="M42.98,-77.64C46.79,-73.81 51.54,-69.32 56.16,-65.7 74.51,-51.32 97.17,-37.37 113.51,-27.9"/>
<polygon fill="green" stroke="green" stroke-width="0.14" points="115.36,-30.87 122.31,-22.87 111.89,-24.79 115.36,-30.87"/>
</g>
<!-- &#45;3 -->
<g id="node3" class="node">
<title>&#45;3</title>
<polygon fill="lightgray" stroke="black" points="270.16,-240.55 246.16,-240.55 246.16,-222.55 270.16,-222.55 270.16,-240.55"/>
<text text-anchor="middle" x="258.16" y="-229.35" font-family="Times New Roman,serif" font-size="9.00">&#45;3</text>
</g>
<!-- 1 -->
<g id="node13" class="node">
<title>1</title>
<ellipse fill="lightblue" stroke="black" cx="216.16" cy="-165.34" rx="14.7" ry="14.7"/>
<text text-anchor="middle" x="216.16" y="-163.14" font-family="Times New Roman,serif" font-size="9.00">1</text>
</g>
<!-- &#45;3&#45;&gt;1 -->
<g id="edge11" class="edge">
<title>&#45;3&#45;&gt;1</title>
<path fill="none" stroke="red" stroke-width="0.18" d="M252.84,-222.42C247,-213.49 237.4,-198.82 229.49,-186.72"/>
<polygon fill="red" stroke="red" stroke-width="0.18" points="232.26,-184.56 223.85,-178.1 226.4,-188.39 232.26,-184.56"/>
</g>
<!-- &#45;3&#45;&gt;2 -->
<g id="edge1" class="edge">
<title>&#45;3&#45;&gt;2</title>
<path fill="none" stroke="red" stroke-width="0.41" d="M257.76,-222.52C256.7,-206.75 252.97,-170.95 240.16,-144.12 218.31,-98.4 176.84,-54.88 153.08,-32.17"/>
<polygon fill="red" stroke="red" stroke-width="0.41" points="155.44,-29.59 145.75,-25.3 150.65,-34.69 155.44,-29.59"/>
</g>
<!-- &#45;4 -->
<g id="node4" class="node">
<title>&#45;4</title>
<polygon fill="lightgray" stroke="black" points="438.16,-240.55 414.16,-240.55 414.16,-222.55 438.16,-222.55 438.16,-240.55"/>
<text text-anchor="middle" x="426.16" y="-229.35" font-family="Times New Roman,serif" font-size="9.00">&#45;4</text>
</g>
<!-- &#45;5 -->
<g id="node5" class="node">
<title>&#45;5</title>
<polygon fill="lightgray" stroke="black" points="138.16,-240.55 114.16,-240.55 114.16,-222.55 138.16,-222.55 138.16,-240.55"/>
<text text-anchor="middle" x="126.16" y="-229.35" font-family="Times New Roman,serif" font-size="9.00">&#45;5</text>
</g>
<!-- &#45;5&#45;&gt;0 -->
<g id="edge2" class="edge">
<title>&#45;5&#45;&gt;0</title>
<path fill="none" stroke="red" stroke-width="0.51" d="M126.66,-222.42C127.16,-214.44 127.94,-201.87 128.64,-190.65"/>
<polygon fill="red" stroke="red" stroke-width="0.51" points="132.15,-190.7 129.27,-180.5 125.16,-190.27 132.15,-190.7"/>
</g>
<!-- &#45;6 -->
<g id="node6" class="node">
<title>&#45;6</title>
<polygon fill="lightgray" stroke="black" points="396.16,-240.55 372.16,-240.55 372.16,-222.55 396.16,-222.55 396.16,-240.55"/>
<text text-anchor="middle" x="384.16" y="-229.35" font-family="Times New Roman,serif" font-size="9.00">&#45;6</text>
</g>
<!-- 3 -->
<g id="node15" class="node">
<title>3</title>
<ellipse fill="lightblue" stroke="black" cx="342.16" cy="-165.34" rx="14.7" ry="14.7"/>
<text text-anchor="middle" x="342.16" y="-163.14" font-family="Times New Roman,serif" font-size="9.00">3</text>
</g>
<!-- &#45;6&#45;&gt;3 -->
<g id="edge16" class="edge">
<title>&#45;6&#45;&gt;3</title>
<path fill="none" stroke="red" stroke-width="0.33" d="M378.84,-222.42C373,-213.49 363.4,-198.82 355.49,-186.72"/>
<polygon fill="red" stroke="red" stroke-width="0.33" points="358.26,-184.56 349.85,-178.1 352.4,-188.39 358.26,-184.56"/>
</g>
<!-- &#45;7 -->
<g id="node7" class="node">
<title>&#45;7</title>
<polygon fill="lightgray" stroke="black" points="354.16,-240.55 330.16,-240.55 330.16,-222.55 354.16,-222.55 354.16,-240.55"/>
<text text-anchor="middle" x="342.16" y="-229.35" font-family="Times New Roman,serif" font-size="9.00">&#45;7</text>
</g>
<!-- &#45;7&#45;&gt;3 -->
<g id="edge3" class="edge">
<title>&#45;7&#45;&gt;3</title>
<path fill="none" stroke="green" stroke-width="0.34" stroke-dasharray="1,5" d="M342.16,-222.42C342.16,-214.44 342.16,-201.87 342.16,-190.65"/>
<polygon fill="green" stroke="green" stroke-width="0.34" points="345.66,-190.5 342.16,-180.5 338.66,-190.5 345.66,-190.5"/>
</g>
<!-- &#45;8 -->
<g id="node8" class="node">
<title>&#45;8</title>
<polygon fill="lightgray" stroke="black" points="312.16,-240.55 288.16,-240.55 288.16,-222.55 312.16,-222.55 312.16,-240.55"/>
<text text-anchor="middle" x="300.16" y="-229.35" font-family="Times New Roman,serif" font-size="9.00">&#45;8</text>
</g>
<!-- &#45;8&#45;&gt;2 -->
<g id="edge4" class="edge">
<title>&#45;8&#45;&gt;2</title>
<path fill="none" stroke="green" stroke-width="1.63" d="M297.85,-222.34C290.23,-196.4 263.55,-115.05 216.16,-65.7 199.52,-48.38 175.64,-34.65 158.12,-26.02"/>
<polygon fill="green" stroke="green" stroke-width="1.63" points="159.18,-22.65 148.64,-21.54 156.19,-28.97 159.18,-22.65"/>
</g>
<!-- &#45;8&#45;&gt;3 -->
<g id="edge5" class="edge">
<title>&#45;8&#45;&gt;3</title>
<path fill="none" stroke="green" stroke-width="0.16" d="M305.48,-222.42C311.32,-213.49 320.91,-198.82 328.83,-186.72"/>
<polygon fill="green" stroke="green" stroke-width="0.16" points="331.92,-188.39 334.46,-178.1 326.06,-184.56 331.92,-188.39"/>
</g>
<!-- &#45;9 -->
<g id="node9" class="node">
<title>&#45;9</title>
<polygon fill="lightgray" stroke="black" points="228.16,-240.55 204.16,-240.55 204.16,-222.55 228.16,-222.55 228.16,-240.55"/>
<text text-anchor="middle" x="216.16" y="-229.35" font-family="Times New Roman,serif" font-size="9.00">&#45;9</text>
</g>
<!-- &#45;9&#45;&gt;0 -->
<g id="edge6" class="edge">
<title>&#45;9&#45;&gt;0</title>
<path fill="none" stroke="red" stroke-width="0.47" d="M205.27,-222.42C191.41,-212.07 167.22,-194.01 150.04,-181.18"/>
<polygon fill="red" stroke="red" stroke-width="0.47" points="151.89,-178.2 141.78,-175.02 147.7,-183.81 151.89,-178.2"/>
</g>
<!-- &#45;9&#45;&gt;1 -->
<g id="edge7" class="edge">
<title>&#45;9&#45;&gt;1</title>
<path fill="none" stroke="green" stroke-width="0.13" d="M216.16,-222.42C216.16,-214.44 216.16,-201.87 216.16,-190.65"/>
<polygon fill="green" stroke="green" stroke-width="0.13" points="219.66,-190.5 216.16,-180.5 212.66,-190.5 219.66,-190.5"/>
</g>
<!-- &#45;9&#45;&gt;3 -->
<g id="edge8" class="edge">
<title>&#45;9&#45;&gt;3</title>
<path fill="none" stroke="green" stroke-width="0.99" d="M228.24,-224.39C249.41,-213.6 293.51,-191.13 320.2,-177.53"/>
<polygon fill="green" stroke="green" stroke-width="0.99" points="321.85,-180.61 329.18,-172.95 318.68,-174.38 321.85,-180.61"/>
</g>
<!-- &#45;10 -->
<g id="node10" class="node">
<title>&#45;10</title>
<polygon fill="lightgray" stroke="black" points="95.66,-240.55 66.66,-240.55 66.66,-222.55 95.66,-222.55 95.66,-240.55"/>
<text text-anchor="middle" x="81.16" y="-229.35" font-family="Times New Roman,serif" font-size="9.00">&#45;10</text>
</g>
<!-- &#45;10&#45;&gt;0 -->
<g id="edge9" class="edge">
<title>&#45;10&#45;&gt;0</title>
<path fill="none" stroke="green" stroke-width="1.25" d="M87.36,-222.42C94.33,-213.29 105.87,-198.17 115.21,-185.92"/>
<polygon fill="green" stroke="green" stroke-width="1.25" points="118.25,-187.72 121.53,-177.64 112.68,-183.47 118.25,-187.72"/>
</g>
<!-- &#45;10&#45;&gt;1 -->
<g id="edge12" class="edge">
<title>&#45;10&#45;&gt;1</title>
<path fill="none" stroke="red" stroke-width="0.52" d="M95.86,-223.56C119.48,-212.32 166.01,-190.19 193.77,-176.99"/>
<polygon fill="red" stroke="red" stroke-width="0.52" points="195.55,-180.02 203.07,-172.56 192.54,-173.7 195.55,-180.02"/>
</g>
<!-- &#45;10&#45;&gt;539 -->
<g id="edge20" class="edge">
<title>&#45;10&#45;&gt;539</title>
<path fill="none" stroke="red" stroke-width="0.14" d="M80.52,-222.42C80.01,-215.83 79.25,-206.1 78.51,-196.59"/>
<polygon fill="red" stroke="red" stroke-width="0.14" points="81.99,-196.22 77.73,-186.52 75.02,-196.76 81.99,-196.22"/>
</g>
<!-- &#45;11 -->
<g id="node11" class="node">
<title>&#45;11</title>
<polygon fill="lightgray" stroke="black" points="185.66,-240.55 156.66,-240.55 156.66,-222.55 185.66,-222.55 185.66,-240.55"/>
<text text-anchor="middle" x="171.16" y="-229.35" font-family="Times New Roman,serif" font-size="9.00">&#45;11</text>
</g>
<!-- &#45;11&#45;&gt;0 -->
<g id="edge10" class="edge">
<title>&#45;11&#45;&gt;0</title>
<path fill="none" stroke="green" stroke-width="0.27" stroke-dasharray="1,5" d="M165.96,-222.42C160.33,-213.6 151.12,-199.17 143.45,-187.15"/>
<polygon fill="green" stroke="green" stroke-width="0.27" points="146.3,-185.12 137.97,-178.57 140.4,-188.88 146.3,-185.12"/>
</g>
<!-- &#45;11&#45;&gt;2 -->
<g id="edge14" class="edge">
<title>&#45;11&#45;&gt;2</title>
<path fill="none" stroke="green" stroke-width="0.6" d="M169.79,-222.4C164.76,-192.41 147.17,-87.51 139.17,-39.8"/>
<polygon fill="green" stroke="green" stroke-width="0.6" points="142.59,-39.04 137.49,-29.76 135.69,-40.2 142.59,-39.04"/>
</g>
<!-- 546 -->
<g id="node16" class="node">
<title>546</title>
<ellipse fill="white" stroke="black" cx="86.16" cy="-86.91" rx="21.43" ry="21.43"/>
<text text-anchor="middle" x="86.16" y="-84.71" font-family="Times New Roman,serif" font-size="9.00">546</text>
</g>
<!-- 546&#45;&gt;2 -->
<g id="edge22" class="edge">
<title>546&#45;&gt;2</title>
<path fill="none" stroke="red" stroke-width="0.29" d="M98.02,-68.95C104.94,-59.05 113.72,-46.5 121,-36.09"/>
<polygon fill="red" stroke="red" stroke-width="0.29" points="124.07,-37.81 126.93,-27.61 118.33,-33.8 124.07,-37.81"/>
</g>
<!-- 539&#45;&gt;2 -->
<g id="edge19" class="edge">
<title>539&#45;&gt;2</title>
<path fill="none" stroke="green" stroke-width="0.11" stroke-dasharray="1,5" d="M90,-148.71C98.77,-137.99 109.65,-123.06 116.16,-108.12 125.76,-86.09 130.6,-58.94 132.98,-39.81"/>
<polygon fill="green" stroke="green" stroke-width="0.11" points="136.46,-40.16 134.09,-29.84 129.5,-39.39 136.46,-40.16"/>
</g>
<!-- 539&#45;&gt;546 -->
<g id="edge21" class="edge">
<title>539&#45;&gt;546</title>
<path fill="none" stroke="green" stroke-width="0.13" d="M78.78,-144.26C79.83,-136.25 81.06,-126.85 82.21,-118.06"/>
<polygon fill="green" stroke="green" stroke-width="0.13" points="85.69,-118.49 83.51,-108.12 78.74,-117.58 85.69,-118.49"/>
</g>
</g>
</svg>
