<?xml version="1.0" encoding="UTF-8" standalone="no"?>
<!DOCTYPE svg PUBLIC "-//W3C//DTD SVG 1.1//EN"
 "http://www.w3.org/Graphics/SVG/1.1/DTD/svg11.dtd">
<!-- Generated by graphviz version 2.47.1 (20210417.1919)
 -->
<!-- Pages: 1 -->
<svg width="523pt" height="177pt"
 viewBox="0.00 0.00 522.75 177.20" xmlns="http://www.w3.org/2000/svg" xmlns:xlink="http://www.w3.org/1999/xlink">
<g id="graph0" class="graph" transform="scale(1 1) rotate(0) translate(4 173.2)">
<polygon fill="white" stroke="transparent" points="-4,4 -4,-173.2 518.75,-173.2 518.75,4 -4,4"/>
<!-- &#45;1 -->
<g id="node1" class="node">
<title>&#45;1</title>
<polygon fill="lightgray" stroke="black" points="24,-99.45 0,-99.45 0,-81.45 24,-81.45 24,-99.45"/>
<text text-anchor="middle" x="12" y="-88.25" font-family="Times New Roman,serif" font-size="9.00">&#45;1</text>
</g>
<!-- 0 -->
<g id="node12" class="node">
<title>0</title>
<ellipse fill="lightblue" stroke="black" cx="201" cy="-14.85" rx="14.7" ry="14.7"/>
<text text-anchor="middle" x="201" y="-12.65" font-family="Times New Roman,serif" font-size="9.00">0</text>
</g>
<!-- &#45;1&#45;&gt;0 -->
<g id="edge20" class="edge">
<title>&#45;1&#45;&gt;0</title>
<path fill="none" stroke="green" stroke-width="0.56" stroke-dasharray="1,5" d="M17.36,-81.34C21.16,-76.17 26.69,-69.72 33,-65.7 78.37,-36.77 141.24,-24.02 175.77,-18.9"/>
<polygon fill="green" stroke="green" stroke-width="0.56" points="176.5,-22.33 185.93,-17.5 175.54,-15.4 176.5,-22.33"/>
</g>
<!-- &#45;2 -->
<g id="node2" class="node">
<title>&#45;2</title>
<polygon fill="lightgray" stroke="black" points="66,-99.45 42,-99.45 42,-81.45 66,-81.45 66,-99.45"/>
<text text-anchor="middle" x="54" y="-88.25" font-family="Times New Roman,serif" font-size="9.00">&#45;2</text>
</g>
<!-- &#45;2&#45;&gt;0 -->
<g id="edge1" class="edge">
<title>&#45;2&#45;&gt;0</title>
<path fill="none" stroke="green" stroke-width="0.11" stroke-dasharray="1,5" d="M61.6,-81.17C66.49,-76.2 73.19,-70.02 80,-65.7 111.22,-45.89 151.65,-31.12 176.96,-22.99"/>
<polygon fill="green" stroke="green" stroke-width="0.11" points="178.31,-26.23 186.81,-19.91 176.22,-19.55 178.31,-26.23"/>
</g>
<!-- &#45;3 -->
<g id="node3" class="node">
<title>&#45;3</title>
<polygon fill="lightgray" stroke="black" points="409,-99.45 385,-99.45 385,-81.45 409,-81.45 409,-99.45"/>
<text text-anchor="middle" x="397" y="-88.25" font-family="Times New Roman,serif" font-size="9.00">&#45;3</text>
</g>
<!-- &#45;3&#45;&gt;0 -->
<g id="edge22" class="edge">
<title>&#45;3&#45;&gt;0</title>
<path fill="none" stroke="red" stroke-width="0.2" d="M391.66,-81.3C387.87,-76.13 382.34,-69.67 376,-65.7 325.55,-34.11 304.17,-46.28 247,-29.7 239.79,-27.61 231.96,-25.27 224.84,-23.13"/>
<polygon fill="red" stroke="red" stroke-width="0.2" points="225.66,-19.72 215.07,-20.17 223.63,-26.42 225.66,-19.72"/>
</g>
<!-- 1 -->
<g id="node13" class="node">
<title>1</title>
<ellipse fill="lightblue" stroke="black" cx="271" cy="-14.85" rx="14.7" ry="14.7"/>
<text text-anchor="middle" x="271" y="-12.65" font-family="Times New Roman,serif" font-size="9.00">1</text>
</g>
<!-- &#45;3&#45;&gt;1 -->
<g id="edge19" class="edge">
<title>&#45;3&#45;&gt;1</title>
<path fill="none" stroke="green" stroke-width="0.14" d="M391.08,-81.2C387.21,-76.24 381.81,-70.07 376,-65.7 350.66,-46.64 316.88,-32.2 294.56,-23.88"/>
<polygon fill="green" stroke="green" stroke-width="0.14" points="295.49,-20.5 284.89,-20.4 293.11,-27.09 295.49,-20.5"/>
</g>
<!-- 2 -->
<g id="node14" class="node">
<title>2</title>
<ellipse fill="lightblue" stroke="black" cx="334" cy="-14.85" rx="14.7" ry="14.7"/>
<text text-anchor="middle" x="334" y="-12.65" font-family="Times New Roman,serif" font-size="9.00">2</text>
</g>
<!-- &#45;3&#45;&gt;2 -->
<g id="edge2" class="edge">
<title>&#45;3&#45;&gt;2</title>
<path fill="none" stroke="red" stroke-width="0.26" d="M390.02,-81.29C380.39,-70.05 362.78,-49.47 349.87,-34.39"/>
<polygon fill="red" stroke="red" stroke-width="0.26" points="352.42,-31.98 343.26,-26.66 347.1,-36.53 352.42,-31.98"/>
</g>
<!-- 3 -->
<g id="node15" class="node">
<title>3</title>
<ellipse fill="lightblue" stroke="black" cx="397" cy="-14.85" rx="14.7" ry="14.7"/>
<text text-anchor="middle" x="397" y="-12.65" font-family="Times New Roman,serif" font-size="9.00">3</text>
</g>
<!-- &#45;3&#45;&gt;3 -->
<g id="edge3" class="edge">
<title>&#45;3&#45;&gt;3</title>
<path fill="none" stroke="red" stroke-width="0.13" stroke-dasharray="1,5" d="M397,-81.29C397,-71.39 397,-54.25 397,-39.99"/>
<polygon fill="red" stroke="red" stroke-width="0.13" points="400.5,-39.82 397,-29.82 393.5,-39.82 400.5,-39.82"/>
</g>
<!-- &#45;4 -->
<g id="node4" class="node">
<title>&#45;4</title>
<polygon fill="lightgray" stroke="black" points="146,-99.45 122,-99.45 122,-81.45 146,-81.45 146,-99.45"/>
<text text-anchor="middle" x="134" y="-88.25" font-family="Times New Roman,serif" font-size="9.00">&#45;4</text>
</g>
<!-- &#45;4&#45;&gt;0 -->
<g id="edge4" class="edge">
<title>&#45;4&#45;&gt;0</title>
<path fill="none" stroke="green" stroke-width="0.23" stroke-dasharray="1,5" d="M141.34,-81.06C145.36,-76.49 150.43,-70.76 155,-65.7 164.52,-55.15 175.29,-43.48 184.01,-34.08"/>
<polygon fill="green" stroke="green" stroke-width="0.23" points="186.82,-36.19 191.06,-26.49 181.69,-31.43 186.82,-36.19"/>
</g>
<!-- &#45;4&#45;&gt;1 -->
<g id="edge5" class="edge">
<title>&#45;4&#45;&gt;1</title>
<path fill="none" stroke="red" stroke-width="0.36" d="M139.87,-81.13C143.71,-76.14 149.11,-69.96 155,-65.7 183.75,-44.9 222.52,-30.47 247.15,-22.68"/>
<polygon fill="red" stroke="red" stroke-width="0.36" points="248.22,-26.01 256.76,-19.74 246.18,-19.31 248.22,-26.01"/>
</g>
<!-- &#45;5 -->
<g id="node5" class="node">
<title>&#45;5</title>
<polygon fill="lightgray" stroke="black" points="491,-169.2 467,-169.2 467,-151.2 491,-151.2 491,-169.2"/>
<text text-anchor="middle" x="479" y="-158" font-family="Times New Roman,serif" font-size="9.00">&#45;5</text>
</g>
<!-- &#45;6 -->
<g id="node6" class="node">
<title>&#45;6</title>
<polygon fill="lightgray" stroke="black" points="325,-99.45 301,-99.45 301,-81.45 325,-81.45 325,-99.45"/>
<text text-anchor="middle" x="313" y="-88.25" font-family="Times New Roman,serif" font-size="9.00">&#45;6</text>
</g>
<!-- &#45;6&#45;&gt;0 -->
<g id="edge21" class="edge">
<title>&#45;6&#45;&gt;0</title>
<path fill="none" stroke="green" stroke-width="0.12" d="M306.99,-81.32C303.08,-76.4 297.68,-70.23 292,-65.7 270.78,-48.75 243.01,-34.48 223.75,-25.61"/>
<polygon fill="green" stroke="green" stroke-width="0.12" points="225.09,-22.38 214.53,-21.48 222.22,-28.76 225.09,-22.38"/>
</g>
<!-- &#45;6&#45;&gt;1 -->
<g id="edge18" class="edge">
<title>&#45;6&#45;&gt;1</title>
<path fill="none" stroke="green" stroke-width="0.49" stroke-dasharray="1,5" d="M308.34,-81.29C302.32,-70.73 291.59,-51.93 283.17,-37.18"/>
<polygon fill="green" stroke="green" stroke-width="0.49" points="286.05,-35.15 278.05,-28.2 279.97,-38.62 286.05,-35.15"/>
</g>
<!-- &#45;6&#45;&gt;3 -->
<g id="edge6" class="edge">
<title>&#45;6&#45;&gt;3</title>
<path fill="none" stroke="green" stroke-width="0.48" d="M319.66,-81.21C323.63,-76.48 328.88,-70.54 334,-65.7 347.66,-52.77 364.41,-39.62 377.21,-30.08"/>
<polygon fill="green" stroke="green" stroke-width="0.48" points="379.36,-32.84 385.35,-24.1 375.22,-27.2 379.36,-32.84"/>
</g>
<!-- &#45;7 -->
<g id="node7" class="node">
<title>&#45;7</title>
<polygon fill="lightgray" stroke="black" points="449,-169.2 425,-169.2 425,-151.2 449,-151.2 449,-169.2"/>
<text text-anchor="middle" x="437" y="-158" font-family="Times New Roman,serif" font-size="9.00">&#45;7</text>
</g>
<!-- &#45;7&#45;&gt;0 -->
<g id="edge7" class="edge">
<title>&#45;7&#45;&gt;0</title>
<path fill="none" stroke="red" stroke-width="0.28" stroke-dasharray="1,5" d="M424.68,-159.56C370.55,-160.86 154.73,-162.98 113,-115.2 98.53,-98.63 101.92,-84.7 113,-65.7 126.61,-42.34 155.69,-29.05 176.7,-22.16"/>
<polygon fill="red" stroke="red" stroke-width="0.28" points="177.98,-25.43 186.55,-19.2 175.96,-18.73 177.98,-25.43"/>
</g>
<!-- &#45;7&#45;&gt;3 -->
<g id="edge8" class="edge">
<title>&#45;7&#45;&gt;3</title>
<path fill="none" stroke="green" stroke-width="0.17" stroke-dasharray="1,5" d="M435.9,-151.06C433.57,-134.65 427.53,-96.56 418,-65.7 415.13,-56.41 411.15,-46.49 407.42,-37.96"/>
<polygon fill="green" stroke="green" stroke-width="0.17" points="410.55,-36.38 403.25,-28.71 404.17,-39.26 410.55,-36.38"/>
</g>
<!-- 1789 -->
<g id="node16" class="node">
<title>1789</title>
<ellipse fill="white" stroke="black" cx="490" cy="-90.45" rx="25" ry="25"/>
<text text-anchor="middle" x="490" y="-88.25" font-family="Times New Roman,serif" font-size="9.00">1789</text>
</g>
<!-- &#45;7&#45;&gt;1789 -->
<g id="edge23" class="edge">
<title>&#45;7&#45;&gt;1789</title>
<path fill="none" stroke="green" stroke-width="0.18" d="M443.29,-151.16C449.62,-143.07 459.73,-130.14 468.93,-118.38"/>
<polygon fill="green" stroke="green" stroke-width="0.18" points="471.69,-120.53 475.09,-110.5 466.17,-116.22 471.69,-120.53"/>
</g>
<!-- &#45;8 -->
<g id="node8" class="node">
<title>&#45;8</title>
<polygon fill="lightgray" stroke="black" points="283,-99.45 259,-99.45 259,-81.45 283,-81.45 283,-99.45"/>
<text text-anchor="middle" x="271" y="-88.25" font-family="Times New Roman,serif" font-size="9.00">&#45;8</text>
</g>
<!-- &#45;8&#45;&gt;0 -->
<g id="edge9" class="edge">
<title>&#45;8&#45;&gt;0</title>
<path fill="none" stroke="red" stroke-width="0.26" stroke-dasharray="1,5" d="M264.1,-81.44C260.05,-76.79 254.8,-70.85 250,-65.7 239.78,-54.74 228.03,-42.76 218.59,-33.29"/>
<polygon fill="red" stroke="red" stroke-width="0.26" points="220.84,-30.6 211.3,-26.01 215.9,-35.55 220.84,-30.6"/>
</g>
<!-- &#45;8&#45;&gt;1 -->
<g id="edge10" class="edge">
<title>&#45;8&#45;&gt;1</title>
<path fill="none" stroke="green" stroke-width="0.4" stroke-dasharray="1,5" d="M271,-81.29C271,-71.39 271,-54.25 271,-39.99"/>
<polygon fill="green" stroke="green" stroke-width="0.4" points="274.5,-39.82 271,-29.82 267.5,-39.82 274.5,-39.82"/>
</g>
<!-- &#45;8&#45;&gt;2 -->
<g id="edge11" class="edge">
<title>&#45;8&#45;&gt;2</title>
<path fill="none" stroke="green" stroke-width="1.43" d="M277.98,-81.29C287.61,-70.05 305.22,-49.47 318.13,-34.39"/>
<polygon fill="green" stroke="green" stroke-width="1.43" points="320.9,-36.53 324.74,-26.66 315.58,-31.98 320.9,-36.53"/>
</g>
<!-- &#45;9 -->
<g id="node9" class="node">
<title>&#45;9</title>
<polygon fill="lightgray" stroke="black" points="367,-99.45 343,-99.45 343,-81.45 367,-81.45 367,-99.45"/>
<text text-anchor="middle" x="355" y="-88.25" font-family="Times New Roman,serif" font-size="9.00">&#45;9</text>
</g>
<!-- &#45;9&#45;&gt;0 -->
<g id="edge12" class="edge">
<title>&#45;9&#45;&gt;0</title>
<path fill="none" stroke="green" stroke-width="0.35" d="M349.2,-81.03C345.38,-76 339.99,-69.82 334,-65.7 315.85,-53.21 258.25,-33.87 225.11,-23.33"/>
<polygon fill="green" stroke="green" stroke-width="0.35" points="225.88,-19.9 215.29,-20.24 223.78,-26.58 225.88,-19.9"/>
</g>
<!-- &#45;9&#45;&gt;1 -->
<g id="edge25" class="edge">
<title>&#45;9&#45;&gt;1</title>
<path fill="none" stroke="red" stroke-width="0.2" stroke-dasharray="1,5" d="M348.34,-81.21C344.37,-76.48 339.12,-70.54 334,-65.7 320.34,-52.77 303.59,-39.62 290.79,-30.08"/>
<polygon fill="red" stroke="red" stroke-width="0.2" points="292.78,-27.2 282.65,-24.1 288.64,-32.84 292.78,-27.2"/>
</g>
<!-- &#45;9&#45;&gt;3 -->
<g id="edge13" class="edge">
<title>&#45;9&#45;&gt;3</title>
<path fill="none" stroke="green" stroke-width="1.44" d="M359.66,-81.29C365.68,-70.73 376.41,-51.93 384.83,-37.18"/>
<polygon fill="green" stroke="green" stroke-width="1.44" points="388.03,-38.62 389.95,-28.2 381.95,-35.15 388.03,-38.62"/>
</g>
<!-- &#45;10 -->
<g id="node10" class="node">
<title>&#45;10</title>
<polygon fill="lightgray" stroke="black" points="193.5,-99.45 164.5,-99.45 164.5,-81.45 193.5,-81.45 193.5,-99.45"/>
<text text-anchor="middle" x="179" y="-88.25" font-family="Times New Roman,serif" font-size="9.00">&#45;10</text>
</g>
<!-- &#45;10&#45;&gt;0 -->
<g id="edge14" class="edge">
<title>&#45;10&#45;&gt;0</title>
<path fill="none" stroke="red" stroke-width="0.34" stroke-dasharray="1,5" d="M181.44,-81.29C184.46,-71.17 189.75,-53.49 194.06,-39.06"/>
<polygon fill="red" stroke="red" stroke-width="0.34" points="197.48,-39.86 196.99,-29.27 190.77,-37.85 197.48,-39.86"/>
</g>
<!-- &#45;10&#45;&gt;1 -->
<g id="edge15" class="edge">
<title>&#45;10&#45;&gt;1</title>
<path fill="none" stroke="green" stroke-width="0.22" stroke-dasharray="1,5" d="M186.72,-81.23C191.29,-76.51 197.29,-70.57 203,-65.7 218.35,-52.6 236.88,-39.16 250.71,-29.54"/>
<polygon fill="green" stroke="green" stroke-width="0.22" points="252.79,-32.36 259.05,-23.81 248.83,-26.59 252.79,-32.36"/>
</g>
<!-- &#45;11 -->
<g id="node11" class="node">
<title>&#45;11</title>
<polygon fill="lightgray" stroke="black" points="240.5,-99.45 211.5,-99.45 211.5,-81.45 240.5,-81.45 240.5,-99.45"/>
<text text-anchor="middle" x="226" y="-88.25" font-family="Times New Roman,serif" font-size="9.00">&#45;11</text>
</g>
<!-- &#45;11&#45;&gt;0 -->
<g id="edge16" class="edge">
<title>&#45;11&#45;&gt;0</title>
<path fill="none" stroke="red" stroke-width="0.15" d="M223.23,-81.29C219.79,-71.17 213.79,-53.49 208.88,-39.06"/>
<polygon fill="red" stroke="red" stroke-width="0.15" points="212.09,-37.62 205.56,-29.27 205.46,-39.87 212.09,-37.62"/>
</g>
<!-- &#45;11&#45;&gt;1 -->
<g id="edge17" class="edge">
<title>&#45;11&#45;&gt;1</title>
<path fill="none" stroke="green" stroke-width="0.7" d="M230.99,-81.29C237.54,-70.57 249.29,-51.35 258.37,-36.51"/>
<polygon fill="green" stroke="green" stroke-width="0.7" points="261.38,-38.3 263.61,-27.94 255.4,-34.65 261.38,-38.3"/>
</g>
<!-- 1789&#45;&gt;3 -->
<g id="edge24" class="edge">
<title>1789&#45;&gt;3</title>
<path fill="none" stroke="red" stroke-width="0.11" d="M470.73,-74.2C454.84,-61.62 432.4,-43.86 416.45,-31.25"/>
<polygon fill="red" stroke="red" stroke-width="0.11" points="418.36,-28.29 408.35,-24.83 414.02,-33.78 418.36,-28.29"/>
</g>
</g>
</svg>
