<?xml version="1.0" encoding="UTF-8" standalone="no"?>
<!DOCTYPE svg PUBLIC "-//W3C//DTD SVG 1.1//EN"
 "http://www.w3.org/Graphics/SVG/1.1/DTD/svg11.dtd">
<!-- Generated by graphviz version 2.47.1 (20210417.1919)
 -->
<!-- Pages: 1 -->
<svg width="656pt" height="696pt"
 viewBox="0.00 0.00 656.35 695.84" xmlns="http://www.w3.org/2000/svg" xmlns:xlink="http://www.w3.org/1999/xlink">
<g id="graph0" class="graph" transform="scale(1 1) rotate(0) translate(4 691.84)">
<polygon fill="white" stroke="transparent" points="-4,4 -4,-691.84 652.35,-691.84 652.35,4 -4,4"/>
<!-- &#45;1 -->
<g id="node1" class="node">
<title>&#45;1</title>
<polygon fill="lightgray" stroke="black" points="468.85,-687.84 444.85,-687.84 444.85,-669.84 468.85,-669.84 468.85,-687.84"/>
<text text-anchor="middle" x="456.85" y="-676.64" font-family="Times New Roman,serif" font-size="9.00">&#45;1</text>
</g>
<!-- &#45;2 -->
<g id="node2" class="node">
<title>&#45;2</title>
<polygon fill="lightgray" stroke="black" points="569.85,-454.17 545.85,-454.17 545.85,-436.17 569.85,-436.17 569.85,-454.17"/>
<text text-anchor="middle" x="557.85" y="-442.97" font-family="Times New Roman,serif" font-size="9.00">&#45;2</text>
</g>
<!-- 803 -->
<g id="node16" class="node">
<title>803</title>
<ellipse fill="white" stroke="black" cx="509.85" cy="-359.67" rx="21.43" ry="21.43"/>
<text text-anchor="middle" x="509.85" y="-357.47" font-family="Times New Roman,serif" font-size="9.00">803</text>
</g>
<!-- &#45;2&#45;&gt;803 -->
<g id="edge14" class="edge">
<title>&#45;2&#45;&gt;803</title>
<path fill="none" stroke="red" stroke-width="0.48" d="M553.25,-436.16C546.83,-425 534.9,-404.24 525.16,-387.3"/>
<polygon fill="red" stroke="red" stroke-width="0.48" points="528.05,-385.3 520.03,-378.38 521.98,-388.79 528.05,-385.3"/>
</g>
<!-- 930 -->
<g id="node17" class="node">
<title>930</title>
<ellipse fill="white" stroke="black" cx="526.85" cy="-106.71" rx="21.43" ry="21.43"/>
<text text-anchor="middle" x="526.85" y="-104.51" font-family="Times New Roman,serif" font-size="9.00">930</text>
</g>
<!-- &#45;2&#45;&gt;930 -->
<g id="edge15" class="edge">
<title>&#45;2&#45;&gt;930</title>
<path fill="none" stroke="green" stroke-width="0.16" d="M557.08,-435.85C553.29,-394.66 536.42,-211.62 529.66,-138.26"/>
<polygon fill="green" stroke="green" stroke-width="0.16" points="533.15,-137.9 528.74,-128.27 526.18,-138.55 533.15,-137.9"/>
</g>
<!-- &#45;3 -->
<g id="node3" class="node">
<title>&#45;3</title>
<polygon fill="lightgray" stroke="black" points="111.85,-368.67 87.85,-368.67 87.85,-350.67 111.85,-350.67 111.85,-368.67"/>
<text text-anchor="middle" x="99.85" y="-357.47" font-family="Times New Roman,serif" font-size="9.00">&#45;3</text>
</g>
<!-- 0 -->
<g id="node12" class="node">
<title>0</title>
<ellipse fill="lightblue" stroke="black" cx="59.85" cy="-274.17" rx="14.7" ry="14.7"/>
<text text-anchor="middle" x="59.85" y="-271.97" font-family="Times New Roman,serif" font-size="9.00">0</text>
</g>
<!-- &#45;3&#45;&gt;0 -->
<g id="edge1" class="edge">
<title>&#45;3&#45;&gt;0</title>
<path fill="none" stroke="red" stroke-width="0.17" stroke-dasharray="1,5" d="M96.01,-350.66C90.14,-338.4 78.71,-314.54 70.27,-296.92"/>
<polygon fill="red" stroke="red" stroke-width="0.17" points="73.41,-295.38 65.94,-287.88 67.1,-298.41 73.41,-295.38"/>
</g>
<!-- &#45;4 -->
<g id="node4" class="node">
<title>&#45;4</title>
<polygon fill="lightgray" stroke="black" points="419.85,-454.17 395.85,-454.17 395.85,-436.17 419.85,-436.17 419.85,-454.17"/>
<text text-anchor="middle" x="407.85" y="-442.97" font-family="Times New Roman,serif" font-size="9.00">&#45;4</text>
</g>
<!-- 1 -->
<g id="node13" class="node">
<title>1</title>
<ellipse fill="lightblue" stroke="black" cx="349.85" cy="-359.67" rx="14.7" ry="14.7"/>
<text text-anchor="middle" x="349.85" y="-357.47" font-family="Times New Roman,serif" font-size="9.00">1</text>
</g>
<!-- &#45;4&#45;&gt;1 -->
<g id="edge2" class="edge">
<title>&#45;4&#45;&gt;1</title>
<path fill="none" stroke="red" stroke-width="0.25" d="M402.29,-436.16C393.5,-423.51 376.13,-398.5 363.79,-380.74"/>
<polygon fill="red" stroke="red" stroke-width="0.25" points="366.45,-378.44 357.87,-372.22 360.7,-382.43 366.45,-378.44"/>
</g>
<!-- 1193 -->
<g id="node21" class="node">
<title>1193</title>
<ellipse fill="white" stroke="black" cx="407.85" cy="-359.67" rx="25" ry="25"/>
<text text-anchor="middle" x="407.85" y="-357.47" font-family="Times New Roman,serif" font-size="9.00">1193</text>
</g>
<!-- &#45;4&#45;&gt;1193 -->
<g id="edge17" class="edge">
<title>&#45;4&#45;&gt;1193</title>
<path fill="none" stroke="green" stroke-width="0.13" d="M407.85,-436.16C407.85,-426.61 407.85,-410.02 407.85,-394.82"/>
<polygon fill="green" stroke="green" stroke-width="0.13" points="411.35,-394.62 407.85,-384.62 404.35,-394.62 411.35,-394.62"/>
</g>
<!-- 596 -->
<g id="node26" class="node">
<title>596</title>
<ellipse fill="white" stroke="black" cx="413.85" cy="-274.17" rx="21.43" ry="21.43"/>
<text text-anchor="middle" x="413.85" y="-271.97" font-family="Times New Roman,serif" font-size="9.00">596</text>
</g>
<!-- &#45;4&#45;&gt;596 -->
<g id="edge9" class="edge">
<title>&#45;4&#45;&gt;596</title>
<path fill="none" stroke="green" stroke-width="0.51" stroke-dasharray="1,5" d="M414.44,-435.88C422.74,-424.88 436.54,-404.49 441.85,-384.42 447.48,-363.15 446.63,-356.39 441.85,-334.92 439.32,-323.56 434.39,-311.82 429.37,-301.77"/>
<polygon fill="green" stroke="green" stroke-width="0.51" points="432.36,-299.94 424.59,-292.74 426.17,-303.21 432.36,-299.94"/>
</g>
<!-- &#45;5 -->
<g id="node5" class="node">
<title>&#45;5</title>
<polygon fill="lightgray" stroke="black" points="558.85,-687.84 534.85,-687.84 534.85,-669.84 558.85,-669.84 558.85,-687.84"/>
<text text-anchor="middle" x="546.85" y="-676.64" font-family="Times New Roman,serif" font-size="9.00">&#45;5</text>
</g>
<!-- &#45;6 -->
<g id="node6" class="node">
<title>&#45;6</title>
<polygon fill="lightgray" stroke="black" points="600.85,-687.84 576.85,-687.84 576.85,-669.84 600.85,-669.84 600.85,-687.84"/>
<text text-anchor="middle" x="588.85" y="-676.64" font-family="Times New Roman,serif" font-size="9.00">&#45;6</text>
</g>
<!-- &#45;7 -->
<g id="node7" class="node">
<title>&#45;7</title>
<polygon fill="lightgray" stroke="black" points="265.85,-454.17 241.85,-454.17 241.85,-436.17 265.85,-436.17 265.85,-454.17"/>
<text text-anchor="middle" x="253.85" y="-442.97" font-family="Times New Roman,serif" font-size="9.00">&#45;7</text>
</g>
<!-- 2 -->
<g id="node14" class="node">
<title>2</title>
<ellipse fill="lightblue" stroke="black" cx="200.85" cy="-188.67" rx="14.7" ry="14.7"/>
<text text-anchor="middle" x="200.85" y="-186.47" font-family="Times New Roman,serif" font-size="9.00">2</text>
</g>
<!-- &#45;7&#45;&gt;2 -->
<g id="edge21" class="edge">
<title>&#45;7&#45;&gt;2</title>
<path fill="none" stroke="red" stroke-width="0.39" stroke-dasharray="1,5" d="M247.55,-435.79C239.58,-424.7 226.13,-404.21 219.85,-384.42 201.13,-325.44 199.43,-251.79 200.01,-214.21"/>
<polygon fill="red" stroke="red" stroke-width="0.39" points="203.52,-213.84 200.24,-203.76 196.52,-213.68 203.52,-213.84"/>
</g>
<!-- 1296 -->
<g id="node25" class="node">
<title>1296</title>
<ellipse fill="white" stroke="black" cx="253.85" cy="-359.67" rx="25" ry="25"/>
<text text-anchor="middle" x="253.85" y="-357.47" font-family="Times New Roman,serif" font-size="9.00">1296</text>
</g>
<!-- &#45;7&#45;&gt;1296 -->
<g id="edge28" class="edge">
<title>&#45;7&#45;&gt;1296</title>
<path fill="none" stroke="red" stroke-width="0.18" d="M253.85,-436.16C253.85,-426.61 253.85,-410.02 253.85,-394.82"/>
<polygon fill="red" stroke="red" stroke-width="0.18" points="257.35,-394.62 253.85,-384.62 250.35,-394.62 257.35,-394.62"/>
</g>
<!-- &#45;7&#45;&gt;596 -->
<g id="edge7" class="edge">
<title>&#45;7&#45;&gt;596</title>
<path fill="none" stroke="green" stroke-width="0.29" stroke-dasharray="1,5" d="M258.74,-435.86C272.1,-413.35 309.26,-351.74 325.85,-334.92 343.82,-316.7 368.12,-300.7 386.64,-289.85"/>
<polygon fill="green" stroke="green" stroke-width="0.29" points="388.52,-292.81 395.47,-284.81 385.05,-286.73 388.52,-292.81"/>
</g>
<!-- &#45;8 -->
<g id="node8" class="node">
<title>&#45;8</title>
<polygon fill="lightgray" stroke="black" points="163.85,-368.67 139.85,-368.67 139.85,-350.67 163.85,-350.67 163.85,-368.67"/>
<text text-anchor="middle" x="151.85" y="-357.47" font-family="Times New Roman,serif" font-size="9.00">&#45;8</text>
</g>
<!-- &#45;8&#45;&gt;0 -->
<g id="edge3" class="edge">
<title>&#45;8&#45;&gt;0</title>
<path fill="none" stroke="green" stroke-width="0.3" stroke-dasharray="1,5" d="M142,-350.34C128.63,-338.95 104.08,-317.78 83.85,-298.92 81.68,-296.89 79.43,-294.74 77.21,-292.59"/>
<polygon fill="green" stroke="green" stroke-width="0.3" points="79.57,-290 70,-285.48 74.66,-294.99 79.57,-290"/>
</g>
<!-- &#45;8&#45;&gt;2 -->
<g id="edge4" class="edge">
<title>&#45;8&#45;&gt;2</title>
<path fill="none" stroke="green" stroke-width="3.14" d="M154.21,-350.52C161.38,-325.81 183.04,-251.1 194.14,-212.82"/>
<polygon fill="green" stroke="green" stroke-width="3.14" points="197.54,-213.64 196.97,-203.06 190.82,-211.69 197.54,-213.64"/>
</g>
<!-- &#45;9 -->
<g id="node9" class="node">
<title>&#45;9</title>
<polygon fill="lightgray" stroke="black" points="26.85,-283.17 2.85,-283.17 2.85,-265.17 26.85,-265.17 26.85,-283.17"/>
<text text-anchor="middle" x="14.85" y="-271.97" font-family="Times New Roman,serif" font-size="9.00">&#45;9</text>
</g>
<!-- 3 -->
<g id="node15" class="node">
<title>3</title>
<ellipse fill="lightblue" stroke="black" cx="14.85" cy="-188.67" rx="14.7" ry="14.7"/>
<text text-anchor="middle" x="14.85" y="-186.47" font-family="Times New Roman,serif" font-size="9.00">3</text>
</g>
<!-- &#45;9&#45;&gt;3 -->
<g id="edge5" class="edge">
<title>&#45;9&#45;&gt;3</title>
<path fill="none" stroke="green" stroke-width="1.84" d="M14.85,-265.16C14.85,-253.4 14.85,-230.96 14.85,-213.59"/>
<polygon fill="green" stroke="green" stroke-width="1.84" points="18.35,-213.57 14.85,-203.57 11.35,-213.57 18.35,-213.57"/>
</g>
<!-- 757 -->
<g id="node27" class="node">
<title>757</title>
<ellipse fill="white" stroke="black" cx="91.85" cy="-188.67" rx="21.43" ry="21.43"/>
<text text-anchor="middle" x="91.85" y="-186.47" font-family="Times New Roman,serif" font-size="9.00">757</text>
</g>
<!-- &#45;9&#45;&gt;757 -->
<g id="edge13" class="edge">
<title>&#45;9&#45;&gt;757</title>
<path fill="none" stroke="red" stroke-width="0.22" d="M22.18,-264.76C26.18,-260.2 31.25,-254.47 35.85,-249.42 47.09,-237.07 59.81,-223.47 70.28,-212.37"/>
<polygon fill="red" stroke="red" stroke-width="0.22" points="73.13,-214.46 77.46,-204.79 68.04,-209.65 73.13,-214.46"/>
</g>
<!-- &#45;10 -->
<g id="node10" class="node">
<title>&#45;10</title>
<polygon fill="lightgray" stroke="black" points="516.35,-687.84 487.35,-687.84 487.35,-669.84 516.35,-669.84 516.35,-687.84"/>
<text text-anchor="middle" x="501.85" y="-676.64" font-family="Times New Roman,serif" font-size="9.00">&#45;10</text>
</g>
<!-- &#45;10&#45;&gt;0 -->
<g id="edge6" class="edge">
<title>&#45;10&#45;&gt;0</title>
<path fill="none" stroke="green" stroke-width="1.21" d="M487.13,-672.92C484.06,-671.9 480.85,-670.83 477.85,-669.84 292.15,-608.19 59.85,-727.33 59.85,-531.66 59.85,-531.66 59.85,-531.66 59.85,-444.17 59.85,-392.72 59.85,-332.48 59.85,-299.61"/>
<polygon fill="green" stroke="green" stroke-width="1.21" points="63.35,-299.19 59.85,-289.19 56.35,-299.19 63.35,-299.19"/>
</g>
<!-- 1198 -->
<g id="node24" class="node">
<title>1198</title>
<ellipse fill="white" stroke="black" cx="553.85" cy="-24.75" rx="25" ry="25"/>
<text text-anchor="middle" x="553.85" y="-22.55" font-family="Times New Roman,serif" font-size="9.00">1198</text>
</g>
<!-- &#45;10&#45;&gt;1198 -->
<g id="edge25" class="edge">
<title>&#45;10&#45;&gt;1198</title>
<path fill="none" stroke="green" stroke-width="0.15" d="M514.81,-669.72C544.49,-650.01 614.85,-596.46 614.85,-531.66 614.85,-531.66 614.85,-531.66 614.85,-187.67 614.85,-138.59 590.01,-86.21 572.03,-54.73"/>
<polygon fill="green" stroke="green" stroke-width="0.15" points="575.01,-52.9 566.94,-46.04 568.97,-56.44 575.01,-52.9"/>
</g>
<!-- 761 -->
<g id="node29" class="node">
<title>761</title>
<ellipse fill="white" stroke="black" cx="501.85" cy="-612.62" rx="21.43" ry="21.43"/>
<text text-anchor="middle" x="501.85" y="-610.42" font-family="Times New Roman,serif" font-size="9.00">761</text>
</g>
<!-- &#45;10&#45;&gt;761 -->
<g id="edge16" class="edge">
<title>&#45;10&#45;&gt;761</title>
<path fill="none" stroke="red" stroke-width="0.42" d="M501.85,-669.71C501.85,-663.16 501.85,-653.53 501.85,-644.09"/>
<polygon fill="red" stroke="red" stroke-width="0.42" points="505.35,-644.08 501.85,-634.08 498.35,-644.08 505.35,-644.08"/>
</g>
<!-- &#45;11 -->
<g id="node11" class="node">
<title>&#45;11</title>
<polygon fill="lightgray" stroke="black" points="648.35,-687.84 619.35,-687.84 619.35,-669.84 648.35,-669.84 648.35,-687.84"/>
<text text-anchor="middle" x="633.85" y="-676.64" font-family="Times New Roman,serif" font-size="9.00">&#45;11</text>
</g>
<!-- 0&#45;&gt;757 -->
<g id="edge24" class="edge">
<title>0&#45;&gt;757</title>
<path fill="none" stroke="green" stroke-width="0.49" d="M64.85,-260.12C69.13,-248.94 75.46,-232.44 80.91,-218.22"/>
<polygon fill="green" stroke="green" stroke-width="0.49" points="84.2,-219.42 84.51,-208.83 77.66,-216.91 84.2,-219.42"/>
</g>
<!-- 803&#45;&gt;596 -->
<g id="edge10" class="edge">
<title>803&#45;&gt;596</title>
<path fill="none" stroke="green" stroke-width="0.37" stroke-dasharray="1,5" d="M494,-344.88C478.48,-331.38 454.67,-310.67 437.03,-295.33"/>
<polygon fill="green" stroke="green" stroke-width="0.37" points="439.25,-292.62 429.41,-288.7 434.66,-297.9 439.25,-292.62"/>
</g>
<!-- 930&#45;&gt;1198 -->
<g id="edge26" class="edge">
<title>930&#45;&gt;1198</title>
<path fill="none" stroke="red" stroke-width="0.7" stroke-dasharray="1,5" d="M533.39,-86.35C536.26,-77.85 539.71,-67.62 542.95,-58.02"/>
<polygon fill="red" stroke="red" stroke-width="0.7" points="546.34,-58.92 546.22,-48.33 539.71,-56.68 546.34,-58.92"/>
</g>
<!-- 1216 -->
<g id="node18" class="node">
<title>1216</title>
<ellipse fill="white" stroke="black" cx="501.85" cy="-530.66" rx="25" ry="25"/>
<text text-anchor="middle" x="501.85" y="-528.46" font-family="Times New Roman,serif" font-size="9.00">1216</text>
</g>
<!-- 1222 -->
<g id="node19" class="node">
<title>1222</title>
<ellipse fill="white" stroke="black" cx="501.85" cy="-445.17" rx="25" ry="25"/>
<text text-anchor="middle" x="501.85" y="-442.97" font-family="Times New Roman,serif" font-size="9.00">1222</text>
</g>
<!-- 1216&#45;&gt;1222 -->
<g id="edge22" class="edge">
<title>1216&#45;&gt;1222</title>
<path fill="none" stroke="green" stroke-width="0.21" d="M501.85,-505.51C501.85,-497.57 501.85,-488.58 501.85,-480.05"/>
<polygon fill="green" stroke="green" stroke-width="0.21" points="505.35,-479.97 501.85,-469.97 498.35,-479.97 505.35,-479.97"/>
</g>
<!-- 1222&#45;&gt;803 -->
<g id="edge23" class="edge">
<title>1222&#45;&gt;803</title>
<path fill="none" stroke="red" stroke-width="0.35" d="M504.12,-420.46C505,-411.33 506.01,-400.76 506.94,-391.08"/>
<polygon fill="red" stroke="red" stroke-width="0.35" points="510.43,-391.32 507.9,-381.03 503.46,-390.65 510.43,-391.32"/>
</g>
<!-- 584 -->
<g id="node20" class="node">
<title>584</title>
<ellipse fill="white" stroke="black" cx="565.85" cy="-530.66" rx="21.43" ry="21.43"/>
<text text-anchor="middle" x="565.85" y="-528.46" font-family="Times New Roman,serif" font-size="9.00">584</text>
</g>
<!-- 1193&#45;&gt;596 -->
<g id="edge18" class="edge">
<title>1193&#45;&gt;596</title>
<path fill="none" stroke="red" stroke-width="0.13" d="M409.55,-334.96C410.21,-325.83 410.97,-315.27 411.66,-305.58"/>
<polygon fill="red" stroke="red" stroke-width="0.13" points="415.16,-305.76 412.39,-295.53 408.18,-305.26 415.16,-305.76"/>
</g>
<!-- 1347 -->
<g id="node22" class="node">
<title>1347</title>
<ellipse fill="white" stroke="black" cx="494.85" cy="-188.67" rx="25" ry="25"/>
<text text-anchor="middle" x="494.85" y="-186.47" font-family="Times New Roman,serif" font-size="9.00">1347</text>
</g>
<!-- 1347&#45;&gt;930 -->
<g id="edge32" class="edge">
<title>1347&#45;&gt;930</title>
<path fill="none" stroke="green" stroke-width="0.52" d="M503.76,-165.4C507.39,-156.34 511.62,-145.77 515.46,-136.17"/>
<polygon fill="green" stroke="green" stroke-width="0.52" points="518.82,-137.2 519.28,-126.62 512.32,-134.6 518.82,-137.2"/>
</g>
<!-- 910 -->
<g id="node23" class="node">
<title>910</title>
<ellipse fill="white" stroke="black" cx="113.85" cy="-274.17" rx="21.43" ry="21.43"/>
<text text-anchor="middle" x="113.85" y="-271.97" font-family="Times New Roman,serif" font-size="9.00">910</text>
</g>
<!-- 910&#45;&gt;757 -->
<g id="edge11" class="edge">
<title>910&#45;&gt;757</title>
<path fill="none" stroke="red" stroke-width="0.26" d="M108.64,-253.38C105.95,-243.19 102.62,-230.56 99.64,-219.24"/>
<polygon fill="red" stroke="red" stroke-width="0.26" points="102.96,-218.1 97.03,-209.32 96.19,-219.88 102.96,-218.1"/>
</g>
<!-- 1296&#45;&gt;596 -->
<g id="edge29" class="edge">
<title>1296&#45;&gt;596</title>
<path fill="none" stroke="green" stroke-width="0.55" d="M274.7,-345.5C280.51,-341.96 286.88,-338.2 292.85,-334.92 324.02,-317.78 360.78,-299.95 385.54,-288.28"/>
<polygon fill="green" stroke="green" stroke-width="0.55" points="387.15,-291.39 394.72,-283.97 384.18,-285.05 387.15,-291.39"/>
</g>
<!-- 1302 -->
<g id="node28" class="node">
<title>1302</title>
<ellipse fill="white" stroke="black" cx="253.85" cy="-274.17" rx="25" ry="25"/>
<text text-anchor="middle" x="253.85" y="-271.97" font-family="Times New Roman,serif" font-size="9.00">1302</text>
</g>
<!-- 1296&#45;&gt;1302 -->
<g id="edge33" class="edge">
<title>1296&#45;&gt;1302</title>
<path fill="none" stroke="green" stroke-width="0.31" d="M253.85,-334.52C253.85,-326.57 253.85,-317.59 253.85,-309.06"/>
<polygon fill="green" stroke="green" stroke-width="0.31" points="257.35,-308.98 253.85,-298.98 250.35,-308.98 257.35,-308.98"/>
</g>
<!-- 596&#45;&gt;2 -->
<g id="edge27" class="edge">
<title>596&#45;&gt;2</title>
<path fill="none" stroke="green" stroke-width="0.33" d="M394.19,-265.46C354.71,-249.99 265.95,-215.19 223.85,-198.69"/>
<polygon fill="green" stroke="green" stroke-width="0.33" points="225.02,-195.39 214.44,-195 222.47,-201.91 225.02,-195.39"/>
</g>
<!-- 596&#45;&gt;930 -->
<g id="edge12" class="edge">
<title>596&#45;&gt;930</title>
<path fill="none" stroke="green" stroke-width="0.81" stroke-dasharray="1,5" d="M419.27,-253.62C426.28,-230.62 440.13,-192 460.85,-163.92 471.92,-148.92 487.73,-135.28 501.1,-125.19"/>
<polygon fill="green" stroke="green" stroke-width="0.81" points="503.44,-127.81 509.46,-119.09 499.32,-122.16 503.44,-127.81"/>
</g>
<!-- 596&#45;&gt;1347 -->
<g id="edge31" class="edge">
<title>596&#45;&gt;1347</title>
<path fill="none" stroke="green" stroke-width="0.24" d="M428.33,-258.24C440.08,-246.13 456.89,-228.8 470.68,-214.59"/>
<polygon fill="green" stroke="green" stroke-width="0.24" points="473.52,-216.68 477.97,-207.07 468.5,-211.81 473.52,-216.68"/>
</g>
<!-- 1302&#45;&gt;757 -->
<g id="edge30" class="edge">
<title>1302&#45;&gt;757</title>
<path fill="none" stroke="green" stroke-width="0.49" d="M232,-261.91C202.89,-246.9 151.35,-220.34 119.54,-203.95"/>
<polygon fill="green" stroke="green" stroke-width="0.49" points="120.84,-200.68 110.35,-199.21 117.63,-206.9 120.84,-200.68"/>
</g>
<!-- 761&#45;&gt;803 -->
<g id="edge19" class="edge">
<title>761&#45;&gt;803</title>
<path fill="none" stroke="green" stroke-width="0.34" d="M488.84,-595.52C481.08,-584.84 471.96,-570.13 467.85,-555.41 451.73,-497.62 449.76,-477.62 467.85,-420.42 472.13,-406.87 480.71,-393.74 489.01,-383.25"/>
<polygon fill="green" stroke="green" stroke-width="0.34" points="491.8,-385.37 495.51,-375.45 486.42,-380.89 491.8,-385.37"/>
</g>
<!-- 761&#45;&gt;1216 -->
<g id="edge20" class="edge">
<title>761&#45;&gt;1216</title>
<path fill="none" stroke="red" stroke-width="0.18" d="M501.85,-591.03C501.85,-583.33 501.85,-574.37 501.85,-565.78"/>
<polygon fill="red" stroke="red" stroke-width="0.18" points="505.35,-565.59 501.85,-555.59 498.35,-565.59 505.35,-565.59"/>
</g>
<!-- 761&#45;&gt;584 -->
<g id="edge8" class="edge">
<title>761&#45;&gt;584</title>
<path fill="none" stroke="red" stroke-width="0.38" stroke-dasharray="1,5" d="M514.8,-595.44C523.91,-584.06 536.25,-568.64 546.52,-555.81"/>
<polygon fill="red" stroke="red" stroke-width="0.38" points="549.4,-557.81 552.92,-547.82 543.94,-553.44 549.4,-557.81"/>
</g>
</g>
</svg>
