<?xml version="1.0" encoding="UTF-8" standalone="no"?>
<!DOCTYPE svg PUBLIC "-//W3C//DTD SVG 1.1//EN"
 "http://www.w3.org/Graphics/SVG/1.1/DTD/svg11.dtd">
<!-- Generated by graphviz version 2.47.1 (20210417.1919)
 -->
<!-- Pages: 1 -->
<svg width="623pt" height="365pt"
 viewBox="0.00 0.00 622.58 365.16" xmlns="http://www.w3.org/2000/svg" xmlns:xlink="http://www.w3.org/1999/xlink">
<g id="graph0" class="graph" transform="scale(1 1) rotate(0) translate(4 361.16)">
<polygon fill="white" stroke="transparent" points="-4,4 -4,-361.16 618.58,-361.16 618.58,4 -4,4"/>
<!-- &#45;1 -->
<g id="node1" class="node">
<title>&#45;1</title>
<polygon fill="lightgray" stroke="black" points="362.58,-357.16 338.58,-357.16 338.58,-339.16 362.58,-339.16 362.58,-357.16"/>
<text text-anchor="middle" x="350.58" y="-345.96" font-family="Times New Roman,serif" font-size="9.00">&#45;1</text>
</g>
<!-- 1 -->
<g id="node13" class="node">
<title>1</title>
<ellipse fill="lightblue" stroke="black" cx="288.58" cy="-275.58" rx="14.7" ry="14.7"/>
<text text-anchor="middle" x="288.58" y="-273.38" font-family="Times New Roman,serif" font-size="9.00">1</text>
</g>
<!-- &#45;1&#45;&gt;1 -->
<g id="edge1" class="edge">
<title>&#45;1&#45;&gt;1</title>
<path fill="none" stroke="green" stroke-width="0.81" stroke-dasharray="1,5" d="M343.46,-339.07C334.11,-328.41 317.38,-309.37 304.84,-295.09"/>
<polygon fill="green" stroke="green" stroke-width="0.81" points="307.26,-292.54 298.03,-287.34 302,-297.16 307.26,-292.54"/>
</g>
<!-- 3 -->
<g id="node15" class="node">
<title>3</title>
<ellipse fill="lightblue" stroke="black" cx="458.58" cy="-184.43" rx="14.7" ry="14.7"/>
<text text-anchor="middle" x="458.58" y="-182.23" font-family="Times New Roman,serif" font-size="9.00">3</text>
</g>
<!-- &#45;1&#45;&gt;3 -->
<g id="edge14" class="edge">
<title>&#45;1&#45;&gt;3</title>
<path fill="none" stroke="green" stroke-width="0.45" d="M361.54,-339.01C372.02,-330.81 387.77,-317.38 398.58,-303.16 421.42,-273.12 439.68,-233.08 449.82,-208.29"/>
<polygon fill="green" stroke="green" stroke-width="0.45" points="453.2,-209.26 453.65,-198.67 446.7,-206.66 453.2,-209.26"/>
</g>
<!-- &#45;2 -->
<g id="node2" class="node">
<title>&#45;2</title>
<polygon fill="lightgray" stroke="black" points="237.58,-193.43 213.58,-193.43 213.58,-175.43 237.58,-175.43 237.58,-193.43"/>
<text text-anchor="middle" x="225.58" y="-182.23" font-family="Times New Roman,serif" font-size="9.00">&#45;2</text>
</g>
<!-- 0 -->
<g id="node12" class="node">
<title>0</title>
<ellipse fill="lightblue" stroke="black" cx="169.58" cy="-14.85" rx="14.7" ry="14.7"/>
<text text-anchor="middle" x="169.58" y="-12.65" font-family="Times New Roman,serif" font-size="9.00">0</text>
</g>
<!-- &#45;2&#45;&gt;0 -->
<g id="edge27" class="edge">
<title>&#45;2&#45;&gt;0</title>
<path fill="none" stroke="red" stroke-width="0.35" d="M229.2,-175.17C237.41,-155.15 255.29,-102.94 236.58,-65.7 227.36,-47.35 207.84,-34.05 192.23,-25.82"/>
<polygon fill="red" stroke="red" stroke-width="0.35" points="193.67,-22.63 183.15,-21.36 190.58,-28.91 193.67,-22.63"/>
</g>
<!-- 2 -->
<g id="node14" class="node">
<title>2</title>
<ellipse fill="lightblue" stroke="black" cx="212.58" cy="-93.28" rx="14.7" ry="14.7"/>
<text text-anchor="middle" x="212.58" y="-91.08" font-family="Times New Roman,serif" font-size="9.00">2</text>
</g>
<!-- &#45;2&#45;&gt;2 -->
<g id="edge2" class="edge">
<title>&#45;2&#45;&gt;2</title>
<path fill="none" stroke="red" stroke-width="0.67" d="M224.38,-175.2C222.51,-162.39 218.83,-137.17 216.08,-118.27"/>
<polygon fill="red" stroke="red" stroke-width="0.67" points="219.53,-117.67 214.62,-108.28 212.6,-118.68 219.53,-117.67"/>
</g>
<!-- 27836 -->
<g id="node20" class="node">
<title>27836</title>
<ellipse fill="white" stroke="black" cx="395.58" cy="-93.28" rx="27.65" ry="27.65"/>
<text text-anchor="middle" x="395.58" y="-91.08" font-family="Times New Roman,serif" font-size="9.00">27836</text>
</g>
<!-- &#45;2&#45;&gt;27836 -->
<g id="edge26" class="edge">
<title>&#45;2&#45;&gt;27836</title>
<path fill="none" stroke="green" stroke-width="0.3" d="M230.57,-175.07C234.36,-169.32 240.02,-161.83 246.58,-156.85 280.74,-130.89 327.27,-113.61 359.19,-103.91"/>
<polygon fill="green" stroke="green" stroke-width="0.3" points="360.4,-107.2 369.01,-101.03 358.43,-100.49 360.4,-107.2"/>
</g>
<!-- &#45;3 -->
<g id="node3" class="node">
<title>&#45;3</title>
<polygon fill="lightgray" stroke="black" points="195.58,-193.43 171.58,-193.43 171.58,-175.43 195.58,-175.43 195.58,-193.43"/>
<text text-anchor="middle" x="183.58" y="-182.23" font-family="Times New Roman,serif" font-size="9.00">&#45;3</text>
</g>
<!-- &#45;3&#45;&gt;2 -->
<g id="edge3" class="edge">
<title>&#45;3&#45;&gt;2</title>
<path fill="none" stroke="green" stroke-width="0.14" d="M186.25,-175.2C190.49,-162.18 198.89,-136.36 205.07,-117.37"/>
<polygon fill="green" stroke="green" stroke-width="0.14" points="208.46,-118.24 208.23,-107.65 201.81,-116.07 208.46,-118.24"/>
</g>
<!-- &#45;4 -->
<g id="node4" class="node">
<title>&#45;4</title>
<polygon fill="lightgray" stroke="black" points="614.58,-357.16 590.58,-357.16 590.58,-339.16 614.58,-339.16 614.58,-357.16"/>
<text text-anchor="middle" x="602.58" y="-345.96" font-family="Times New Roman,serif" font-size="9.00">&#45;4</text>
</g>
<!-- &#45;5 -->
<g id="node5" class="node">
<title>&#45;5</title>
<polygon fill="lightgray" stroke="black" points="572.58,-357.16 548.58,-357.16 548.58,-339.16 572.58,-339.16 572.58,-357.16"/>
<text text-anchor="middle" x="560.58" y="-345.96" font-family="Times New Roman,serif" font-size="9.00">&#45;5</text>
</g>
<!-- 32999 -->
<g id="node17" class="node">
<title>32999</title>
<ellipse fill="white" stroke="black" cx="511.58" cy="-275.58" rx="27.65" ry="27.65"/>
<text text-anchor="middle" x="511.58" y="-273.38" font-family="Times New Roman,serif" font-size="9.00">32999</text>
</g>
<!-- &#45;5&#45;&gt;32999 -->
<g id="edge25" class="edge">
<title>&#45;5&#45;&gt;32999</title>
<path fill="none" stroke="green" stroke-width="0.12" d="M554.96,-339.07C549.49,-331.2 540.86,-318.76 532.72,-307.04"/>
<polygon fill="green" stroke="green" stroke-width="0.12" points="535.52,-304.93 526.94,-298.71 529.77,-308.92 535.52,-304.93"/>
</g>
<!-- &#45;5&#45;&gt;27836 -->
<g id="edge28" class="edge">
<title>&#45;5&#45;&gt;27836</title>
<path fill="none" stroke="green" stroke-width="0.4" d="M568.51,-338.89C575.85,-330.61 586.27,-317.12 590.58,-303.16 597.8,-279.74 600.9,-270.24 590.58,-248.01 558.29,-178.51 476.83,-131.41 430.04,-109.1"/>
<polygon fill="green" stroke="green" stroke-width="0.4" points="431.44,-105.89 420.9,-104.85 428.49,-112.24 431.44,-105.89"/>
</g>
<!-- &#45;6 -->
<g id="node6" class="node">
<title>&#45;6</title>
<polygon fill="lightgray" stroke="black" points="389.58,-284.58 365.58,-284.58 365.58,-266.58 389.58,-266.58 389.58,-284.58"/>
<text text-anchor="middle" x="377.58" y="-273.38" font-family="Times New Roman,serif" font-size="9.00">&#45;6</text>
</g>
<!-- &#45;6&#45;&gt;3 -->
<g id="edge4" class="edge">
<title>&#45;6&#45;&gt;3</title>
<path fill="none" stroke="green" stroke-width="0.1" stroke-dasharray="1,5" d="M385.05,-266.36C397.94,-252.17 424.62,-222.8 442.05,-203.62"/>
<polygon fill="green" stroke="green" stroke-width="0.1" points="444.75,-205.85 448.89,-196.1 439.57,-201.14 444.75,-205.85"/>
</g>
<!-- &#45;6&#45;&gt;27836 -->
<g id="edge15" class="edge">
<title>&#45;6&#45;&gt;27836</title>
<path fill="none" stroke="green" stroke-width="0.24" stroke-dasharray="1,5" d="M379.87,-266.57C383.15,-254.75 389.04,-231.88 391.58,-212.01 395.01,-185.09 395.96,-154.45 396.08,-131.18"/>
<polygon fill="green" stroke="green" stroke-width="0.24" points="399.58,-131.04 396.08,-121.04 392.58,-131.04 399.58,-131.04"/>
</g>
<!-- &#45;7 -->
<g id="node7" class="node">
<title>&#45;7</title>
<polygon fill="lightgray" stroke="black" points="581.58,-284.58 557.58,-284.58 557.58,-266.58 581.58,-266.58 581.58,-284.58"/>
<text text-anchor="middle" x="569.58" y="-273.38" font-family="Times New Roman,serif" font-size="9.00">&#45;7</text>
</g>
<!-- &#45;7&#45;&gt;3 -->
<g id="edge5" class="edge">
<title>&#45;7&#45;&gt;3</title>
<path fill="none" stroke="green" stroke-width="0.82" stroke-dasharray="1,5" d="M563.9,-266.15C559.97,-260.65 554.4,-253.49 548.58,-248.01 527.23,-227.93 499,-209.36 479.89,-197.76"/>
<polygon fill="green" stroke="green" stroke-width="0.82" points="481.45,-194.61 471.07,-192.5 477.86,-200.62 481.45,-194.61"/>
</g>
<!-- &#45;8 -->
<g id="node8" class="node">
<title>&#45;8</title>
<polygon fill="lightgray" stroke="black" points="153.58,-193.43 129.58,-193.43 129.58,-175.43 153.58,-175.43 153.58,-193.43"/>
<text text-anchor="middle" x="141.58" y="-182.23" font-family="Times New Roman,serif" font-size="9.00">&#45;8</text>
</g>
<!-- &#45;8&#45;&gt;0 -->
<g id="edge24" class="edge">
<title>&#45;8&#45;&gt;0</title>
<path fill="none" stroke="red" stroke-width="0.14" d="M142.93,-175.35C146.98,-151.07 159.17,-78.11 165.57,-39.85"/>
<polygon fill="red" stroke="red" stroke-width="0.14" points="169.08,-40.06 167.28,-29.62 162.18,-38.9 169.08,-40.06"/>
</g>
<!-- &#45;8&#45;&gt;2 -->
<g id="edge6" class="edge">
<title>&#45;8&#45;&gt;2</title>
<path fill="none" stroke="green" stroke-width="1.31" d="M148.19,-175.04C152.32,-169.81 157.75,-162.93 162.58,-156.85 174.25,-142.17 187.5,-125.59 197.43,-113.18"/>
<polygon fill="green" stroke="green" stroke-width="1.31" points="200.19,-115.33 203.71,-105.34 194.72,-110.96 200.19,-115.33"/>
</g>
<!-- &#45;9 -->
<g id="node9" class="node">
<title>&#45;9</title>
<polygon fill="lightgray" stroke="black" points="347.58,-284.58 323.58,-284.58 323.58,-266.58 347.58,-266.58 347.58,-284.58"/>
<text text-anchor="middle" x="335.58" y="-273.38" font-family="Times New Roman,serif" font-size="9.00">&#45;9</text>
</g>
<!-- &#45;9&#45;&gt;0 -->
<g id="edge10" class="edge">
<title>&#45;9&#45;&gt;0</title>
<path fill="none" stroke="green" stroke-width="0.14" stroke-dasharray="1,5" d="M335.89,-266.54C336.38,-246.99 335.96,-195.75 320.58,-156.85 302.18,-110.34 291.61,-99.32 254.58,-65.7 235.88,-48.72 210.47,-34.74 192.32,-25.95"/>
<polygon fill="green" stroke="green" stroke-width="0.14" points="193.6,-22.69 183.06,-21.62 190.63,-29.03 193.6,-22.69"/>
</g>
<!-- &#45;9&#45;&gt;3 -->
<g id="edge7" class="edge">
<title>&#45;9&#45;&gt;3</title>
<path fill="none" stroke="green" stroke-width="0.44" d="M340.81,-266.53C344.72,-260.91 350.42,-253.47 356.58,-248.01 381.23,-226.11 414.51,-207.32 436.26,-196.19"/>
<polygon fill="green" stroke="green" stroke-width="0.44" points="437.98,-199.24 445.36,-191.63 434.85,-192.98 437.98,-199.24"/>
</g>
<!-- 32398 -->
<g id="node18" class="node">
<title>32398</title>
<ellipse fill="white" stroke="black" cx="83.58" cy="-184.43" rx="27.65" ry="27.65"/>
<text text-anchor="middle" x="83.58" y="-182.23" font-family="Times New Roman,serif" font-size="9.00">32398</text>
</g>
<!-- &#45;9&#45;&gt;32398 -->
<g id="edge16" class="edge">
<title>&#45;9&#45;&gt;32398</title>
<path fill="none" stroke="green" stroke-width="0.3" d="M330.6,-266.29C326.52,-260.25 320.2,-252.38 312.58,-248.01 237.29,-204.76 200.4,-246.15 120.58,-212.01 118.07,-210.94 115.57,-209.67 113.12,-208.29"/>
<polygon fill="green" stroke="green" stroke-width="0.3" points="114.86,-205.24 104.53,-202.87 111.12,-211.16 114.86,-205.24"/>
</g>
<!-- 33331 -->
<g id="node19" class="node">
<title>33331</title>
<ellipse fill="white" stroke="black" cx="283.58" cy="-184.43" rx="27.65" ry="27.65"/>
<text text-anchor="middle" x="283.58" y="-182.23" font-family="Times New Roman,serif" font-size="9.00">33331</text>
</g>
<!-- &#45;9&#45;&gt;33331 -->
<g id="edge21" class="edge">
<title>&#45;9&#45;&gt;33331</title>
<path fill="none" stroke="green" stroke-width="0.57" d="M330.78,-266.36C324.31,-255.27 312.43,-234.9 302.21,-217.38"/>
<polygon fill="green" stroke="green" stroke-width="0.57" points="305.11,-215.41 297.05,-208.53 299.07,-218.94 305.11,-215.41"/>
</g>
<!-- &#45;9&#45;&gt;27836 -->
<g id="edge12" class="edge">
<title>&#45;9&#45;&gt;27836</title>
<path fill="none" stroke="green" stroke-width="1.09" d="M338.31,-266.37C346.24,-242.53 369.61,-172.3 383.93,-129.28"/>
<polygon fill="green" stroke="green" stroke-width="1.09" points="387.26,-130.35 387.1,-119.76 380.62,-128.14 387.26,-130.35"/>
</g>
<!-- &#45;10 -->
<g id="node10" class="node">
<title>&#45;10</title>
<polygon fill="lightgray" stroke="black" points="141.08,-102.28 112.08,-102.28 112.08,-84.28 141.08,-84.28 141.08,-102.28"/>
<text text-anchor="middle" x="126.58" y="-91.08" font-family="Times New Roman,serif" font-size="9.00">&#45;10</text>
</g>
<!-- &#45;10&#45;&gt;0 -->
<g id="edge8" class="edge">
<title>&#45;10&#45;&gt;0</title>
<path fill="none" stroke="green" stroke-width="2.64" d="M131.18,-84.1C137.42,-73 148.8,-52.77 157.56,-37.21"/>
<polygon fill="green" stroke="green" stroke-width="2.64" points="160.75,-38.68 162.6,-28.25 154.65,-35.24 160.75,-38.68"/>
</g>
<!-- &#45;11 -->
<g id="node11" class="node">
<title>&#45;11</title>
<polygon fill="lightgray" stroke="black" points="470.08,-357.16 441.08,-357.16 441.08,-339.16 470.08,-339.16 470.08,-357.16"/>
<text text-anchor="middle" x="455.58" y="-345.96" font-family="Times New Roman,serif" font-size="9.00">&#45;11</text>
</g>
<!-- &#45;11&#45;&gt;1 -->
<g id="edge9" class="edge">
<title>&#45;11&#45;&gt;1</title>
<path fill="none" stroke="green" stroke-width="2.79" d="M441,-345.04C414.28,-340.64 356.35,-328.74 314.58,-303.16 310.96,-300.95 307.5,-298.13 304.33,-295.15"/>
<polygon fill="green" stroke="green" stroke-width="2.79" points="306.64,-292.5 297.2,-287.69 301.59,-297.34 306.64,-292.5"/>
</g>
<!-- &#45;11&#45;&gt;3 -->
<g id="edge11" class="edge">
<title>&#45;11&#45;&gt;3</title>
<path fill="none" stroke="red" stroke-width="0.26" stroke-dasharray="1,5" d="M455.73,-338.92C456.17,-315.35 457.44,-247 458.12,-209.97"/>
<polygon fill="red" stroke="red" stroke-width="0.26" points="461.63,-209.63 458.31,-199.57 454.63,-209.5 461.63,-209.63"/>
</g>
<!-- &#45;11&#45;&gt;32999 -->
<g id="edge19" class="edge">
<title>&#45;11&#45;&gt;32999</title>
<path fill="none" stroke="green" stroke-width="0.3" d="M462,-339.07C468.44,-330.95 478.75,-317.95 488.31,-305.91"/>
<polygon fill="green" stroke="green" stroke-width="0.3" points="491.27,-307.81 494.74,-297.8 485.78,-303.46 491.27,-307.81"/>
</g>
<!-- 1&#45;&gt;32398 -->
<g id="edge18" class="edge">
<title>1&#45;&gt;32398</title>
<path fill="none" stroke="green" stroke-width="0.22" d="M274.09,-270.61C244.29,-262.14 174.41,-240.7 120.58,-212.01 118.26,-210.77 115.91,-209.41 113.6,-207.97"/>
<polygon fill="green" stroke="green" stroke-width="0.22" points="115.13,-204.79 104.86,-202.18 111.26,-210.62 115.13,-204.79"/>
</g>
<!-- 1&#45;&gt;33331 -->
<g id="edge23" class="edge">
<title>1&#45;&gt;33331</title>
<path fill="none" stroke="green" stroke-width="0.55" d="M287.8,-260.65C287.22,-250.35 286.4,-235.81 285.64,-222.26"/>
<polygon fill="green" stroke="green" stroke-width="0.55" points="289.13,-221.97 285.08,-212.18 282.14,-222.36 289.13,-221.97"/>
</g>
<!-- 35939 -->
<g id="node16" class="node">
<title>35939</title>
<ellipse fill="white" stroke="black" cx="27.58" cy="-93.28" rx="27.65" ry="27.65"/>
<text text-anchor="middle" x="27.58" y="-91.08" font-family="Times New Roman,serif" font-size="9.00">35939</text>
</g>
<!-- 35939&#45;&gt;0 -->
<g id="edge30" class="edge">
<title>35939&#45;&gt;0</title>
<path fill="none" stroke="red" stroke-width="0.33" d="M50.43,-77.23C56.57,-73.34 63.26,-69.26 69.58,-65.7 95.72,-50.96 126.78,-35.83 147.27,-26.17"/>
<polygon fill="red" stroke="red" stroke-width="0.33" points="148.84,-29.3 156.41,-21.89 145.87,-22.96 148.84,-29.3"/>
</g>
<!-- 32999&#45;&gt;3 -->
<g id="edge20" class="edge">
<title>32999&#45;&gt;3</title>
<path fill="none" stroke="green" stroke-width="0.38" d="M497.65,-251.16C489.41,-237.29 479.05,-219.87 471.07,-206.45"/>
<polygon fill="green" stroke="green" stroke-width="0.38" points="473.87,-204.3 465.75,-197.49 467.85,-207.88 473.87,-204.3"/>
</g>
<!-- 32398&#45;&gt;0 -->
<g id="edge17" class="edge">
<title>32398&#45;&gt;0</title>
<path fill="none" stroke="red" stroke-width="0.1" stroke-dasharray="1,5" d="M82.65,-156.71C82.98,-131.49 86.67,-93.51 103.58,-65.7 113.92,-48.69 132.41,-35.48 147.2,-26.95"/>
<polygon fill="red" stroke="red" stroke-width="0.1" points="149.14,-29.87 156.26,-22.02 145.8,-23.73 149.14,-29.87"/>
</g>
<!-- 32398&#45;&gt;35939 -->
<g id="edge29" class="edge">
<title>32398&#45;&gt;35939</title>
<path fill="none" stroke="green" stroke-width="0.37" d="M69.16,-160.47C62.56,-149.97 54.63,-137.35 47.48,-125.96"/>
<polygon fill="green" stroke="green" stroke-width="0.37" points="50.23,-123.76 41.95,-117.16 44.3,-127.49 50.23,-123.76"/>
</g>
<!-- 33331&#45;&gt;27836 -->
<g id="edge22" class="edge">
<title>33331&#45;&gt;27836</title>
<path fill="none" stroke="green" stroke-width="0.13" d="M304.91,-166.45C322.35,-152.57 347.18,-132.8 366.45,-117.46"/>
<polygon fill="green" stroke="green" stroke-width="0.13" points="368.68,-120.16 374.33,-111.19 364.32,-114.68 368.68,-120.16"/>
</g>
<!-- 27836&#45;&gt;0 -->
<g id="edge13" class="edge">
<title>27836&#45;&gt;0</title>
<path fill="none" stroke="red" stroke-width="0.12" stroke-dasharray="1,5" d="M373.16,-76.36C367.01,-72.48 360.21,-68.62 353.58,-65.7 299.22,-41.79 230.66,-26.91 194.52,-20.14"/>
<polygon fill="red" stroke="red" stroke-width="0.12" points="194.86,-16.65 184.39,-18.3 193.61,-23.53 194.86,-16.65"/>
</g>
</g>
</svg>
