<?xml version="1.0" encoding="UTF-8" standalone="no"?>
<!DOCTYPE svg PUBLIC "-//W3C//DTD SVG 1.1//EN"
 "http://www.w3.org/Graphics/SVG/1.1/DTD/svg11.dtd">
<!-- Generated by graphviz version 2.47.1 (20210417.1919)
 -->
<!-- Pages: 1 -->
<svg width="481pt" height="104pt"
 viewBox="0.00 0.00 480.85 104.43" xmlns="http://www.w3.org/2000/svg" xmlns:xlink="http://www.w3.org/1999/xlink">
<g id="graph0" class="graph" transform="scale(1 1) rotate(0) translate(4 100.43)">
<polygon fill="white" stroke="transparent" points="-4,4 -4,-100.43 476.85,-100.43 476.85,4 -4,4"/>
<!-- &#45;1 -->
<g id="node1" class="node">
<title>&#45;1</title>
<polygon fill="lightgray" stroke="black" points="24,-96.43 0,-96.43 0,-78.43 24,-78.43 24,-96.43"/>
<text text-anchor="middle" x="12" y="-85.23" font-family="Times New Roman,serif" font-size="9.00">&#45;1</text>
</g>
<!-- &#45;2 -->
<g id="node2" class="node">
<title>&#45;2</title>
<polygon fill="lightgray" stroke="black" points="66,-96.43 42,-96.43 42,-78.43 66,-78.43 66,-96.43"/>
<text text-anchor="middle" x="54" y="-85.23" font-family="Times New Roman,serif" font-size="9.00">&#45;2</text>
</g>
<!-- &#45;3 -->
<g id="node3" class="node">
<title>&#45;3</title>
<polygon fill="lightgray" stroke="black" points="108,-96.43 84,-96.43 84,-78.43 108,-78.43 108,-96.43"/>
<text text-anchor="middle" x="96" y="-85.23" font-family="Times New Roman,serif" font-size="9.00">&#45;3</text>
</g>
<!-- &#45;4 -->
<g id="node4" class="node">
<title>&#45;4</title>
<polygon fill="lightgray" stroke="black" points="150,-96.43 126,-96.43 126,-78.43 150,-78.43 150,-96.43"/>
<text text-anchor="middle" x="138" y="-85.23" font-family="Times New Roman,serif" font-size="9.00">&#45;4</text>
</g>
<!-- 0 -->
<g id="node12" class="node">
<title>0</title>
<ellipse fill="lightblue" stroke="black" cx="138" cy="-21.21" rx="14.7" ry="14.7"/>
<text text-anchor="middle" x="138" y="-19.01" font-family="Times New Roman,serif" font-size="9.00">0</text>
</g>
<!-- &#45;4&#45;&gt;0 -->
<g id="edge3" class="edge">
<title>&#45;4&#45;&gt;0</title>
<path fill="none" stroke="green" stroke-width="0.3" stroke-dasharray="1,5" d="M138,-78.29C138,-70.31 138,-57.75 138,-46.53"/>
<polygon fill="green" stroke="green" stroke-width="0.3" points="141.5,-46.38 138,-36.38 134.5,-46.38 141.5,-46.38"/>
</g>
<!-- &#45;5 -->
<g id="node5" class="node">
<title>&#45;5</title>
<polygon fill="lightgray" stroke="black" points="192,-96.43 168,-96.43 168,-78.43 192,-78.43 192,-96.43"/>
<text text-anchor="middle" x="180" y="-85.23" font-family="Times New Roman,serif" font-size="9.00">&#45;5</text>
</g>
<!-- &#45;6 -->
<g id="node6" class="node">
<title>&#45;6</title>
<polygon fill="lightgray" stroke="black" points="234,-96.43 210,-96.43 210,-78.43 234,-78.43 234,-96.43"/>
<text text-anchor="middle" x="222" y="-85.23" font-family="Times New Roman,serif" font-size="9.00">&#45;6</text>
</g>
<!-- &#45;7 -->
<g id="node7" class="node">
<title>&#45;7</title>
<polygon fill="lightgray" stroke="black" points="276,-96.43 252,-96.43 252,-78.43 276,-78.43 276,-96.43"/>
<text text-anchor="middle" x="264" y="-85.23" font-family="Times New Roman,serif" font-size="9.00">&#45;7</text>
</g>
<!-- 545 -->
<g id="node16" class="node">
<title>545</title>
<ellipse fill="white" stroke="black" cx="264" cy="-21.21" rx="21.43" ry="21.43"/>
<text text-anchor="middle" x="264" y="-19.01" font-family="Times New Roman,serif" font-size="9.00">545</text>
</g>
<!-- &#45;7&#45;&gt;545 -->
<g id="edge5" class="edge">
<title>&#45;7&#45;&gt;545</title>
<path fill="none" stroke="green" stroke-width="0.3" d="M264,-78.29C264,-71.75 264,-62.12 264,-52.68"/>
<polygon fill="green" stroke="green" stroke-width="0.3" points="267.5,-52.67 264,-42.67 260.5,-52.67 267.5,-52.67"/>
</g>
<!-- &#45;8 -->
<g id="node8" class="node">
<title>&#45;8</title>
<polygon fill="lightgray" stroke="black" points="330,-96.43 306,-96.43 306,-78.43 330,-78.43 330,-96.43"/>
<text text-anchor="middle" x="318" y="-85.23" font-family="Times New Roman,serif" font-size="9.00">&#45;8</text>
</g>
<!-- 2 -->
<g id="node14" class="node">
<title>2</title>
<ellipse fill="lightblue" stroke="black" cx="318" cy="-21.21" rx="14.7" ry="14.7"/>
<text text-anchor="middle" x="318" y="-19.01" font-family="Times New Roman,serif" font-size="9.00">2</text>
</g>
<!-- &#45;8&#45;&gt;2 -->
<g id="edge4" class="edge">
<title>&#45;8&#45;&gt;2</title>
<path fill="none" stroke="green" stroke-width="0.3" d="M318,-78.29C318,-70.31 318,-57.75 318,-46.53"/>
<polygon fill="green" stroke="green" stroke-width="0.3" points="321.5,-46.38 318,-36.38 314.5,-46.38 321.5,-46.38"/>
</g>
<!-- &#45;9 -->
<g id="node9" class="node">
<title>&#45;9</title>
<polygon fill="lightgray" stroke="black" points="378,-96.43 354,-96.43 354,-78.43 378,-78.43 378,-96.43"/>
<text text-anchor="middle" x="366" y="-85.23" font-family="Times New Roman,serif" font-size="9.00">&#45;9</text>
</g>
<!-- 3 -->
<g id="node15" class="node">
<title>3</title>
<ellipse fill="lightblue" stroke="black" cx="366" cy="-21.21" rx="14.7" ry="14.7"/>
<text text-anchor="middle" x="366" y="-19.01" font-family="Times New Roman,serif" font-size="9.00">3</text>
</g>
<!-- &#45;9&#45;&gt;3 -->
<g id="edge2" class="edge">
<title>&#45;9&#45;&gt;3</title>
<path fill="none" stroke="green" stroke-width="0.3" d="M366,-78.29C366,-70.31 366,-57.75 366,-46.53"/>
<polygon fill="green" stroke="green" stroke-width="0.3" points="369.5,-46.38 366,-36.38 362.5,-46.38 369.5,-46.38"/>
</g>
<!-- &#45;10 -->
<g id="node10" class="node">
<title>&#45;10</title>
<polygon fill="lightgray" stroke="black" points="425.5,-96.43 396.5,-96.43 396.5,-78.43 425.5,-78.43 425.5,-96.43"/>
<text text-anchor="middle" x="411" y="-85.23" font-family="Times New Roman,serif" font-size="9.00">&#45;10</text>
</g>
<!-- &#45;11 -->
<g id="node11" class="node">
<title>&#45;11</title>
<polygon fill="lightgray" stroke="black" points="472.5,-96.43 443.5,-96.43 443.5,-78.43 472.5,-78.43 472.5,-96.43"/>
<text text-anchor="middle" x="458" y="-85.23" font-family="Times New Roman,serif" font-size="9.00">&#45;11</text>
</g>
<!-- 1 -->
<g id="node13" class="node">
<title>1</title>
<ellipse fill="lightblue" stroke="black" cx="458" cy="-21.21" rx="14.7" ry="14.7"/>
<text text-anchor="middle" x="458" y="-19.01" font-family="Times New Roman,serif" font-size="9.00">1</text>
</g>
<!-- &#45;11&#45;&gt;1 -->
<g id="edge1" class="edge">
<title>&#45;11&#45;&gt;1</title>
<path fill="none" stroke="green" stroke-width="0.3" d="M458,-78.29C458,-70.31 458,-57.75 458,-46.53"/>
<polygon fill="green" stroke="green" stroke-width="0.3" points="461.5,-46.38 458,-36.38 454.5,-46.38 461.5,-46.38"/>
</g>
</g>
</svg>
