<?xml version="1.0" encoding="UTF-8" standalone="no"?>
<!DOCTYPE svg PUBLIC "-//W3C//DTD SVG 1.1//EN"
 "http://www.w3.org/Graphics/SVG/1.1/DTD/svg11.dtd">
<!-- Generated by graphviz version 2.47.1 (20210417.1919)
 -->
<!-- Pages: 1 -->
<svg width="593pt" height="170pt"
 viewBox="0.00 0.00 592.65 170.12" xmlns="http://www.w3.org/2000/svg" xmlns:xlink="http://www.w3.org/1999/xlink">
<g id="graph0" class="graph" transform="scale(1 1) rotate(0) translate(4 166.12)">
<polygon fill="white" stroke="transparent" points="-4,4 -4,-166.12 588.65,-166.12 588.65,4 -4,4"/>
<!-- &#45;1 -->
<g id="node1" class="node">
<title>&#45;1</title>
<polygon fill="lightgray" stroke="black" points="444.76,-95.91 420.76,-95.91 420.76,-77.91 444.76,-77.91 444.76,-95.91"/>
<text text-anchor="middle" x="432.76" y="-84.71" font-family="Times New Roman,serif" font-size="9.00">&#45;1</text>
</g>
<!-- 0 -->
<g id="node12" class="node">
<title>0</title>
<ellipse fill="lightblue" stroke="black" cx="202.76" cy="-14.85" rx="14.7" ry="14.7"/>
<text text-anchor="middle" x="202.76" y="-12.65" font-family="Times New Roman,serif" font-size="9.00">0</text>
</g>
<!-- &#45;1&#45;&gt;0 -->
<g id="edge1" class="edge">
<title>&#45;1&#45;&gt;0</title>
<path fill="none" stroke="green" stroke-width="0.5" d="M426.16,-77.73C422.36,-73.54 417.27,-68.71 411.76,-65.7 395.52,-56.82 278.94,-31.77 227.28,-20.94"/>
<polygon fill="green" stroke="green" stroke-width="0.5" points="227.81,-17.47 217.31,-18.85 226.38,-24.33 227.81,-17.47"/>
</g>
<!-- 1 -->
<g id="node13" class="node">
<title>1</title>
<ellipse fill="lightblue" stroke="black" cx="297.76" cy="-14.85" rx="14.7" ry="14.7"/>
<text text-anchor="middle" x="297.76" y="-12.65" font-family="Times New Roman,serif" font-size="9.00">1</text>
</g>
<!-- &#45;1&#45;&gt;1 -->
<g id="edge2" class="edge">
<title>&#45;1&#45;&gt;1</title>
<path fill="none" stroke="green" stroke-width="0.46" d="M425.6,-77.65C421.79,-73.64 416.86,-68.99 411.76,-65.7 375.57,-42.33 360.52,-48.51 321.76,-29.7 320.93,-29.29 320.08,-28.87 319.23,-28.44"/>
<polygon fill="green" stroke="green" stroke-width="0.46" points="320.73,-25.27 310.28,-23.53 317.36,-31.4 320.73,-25.27"/>
</g>
<!-- 2 -->
<g id="node14" class="node">
<title>2</title>
<ellipse fill="lightblue" stroke="black" cx="345.76" cy="-14.85" rx="14.7" ry="14.7"/>
<text text-anchor="middle" x="345.76" y="-12.65" font-family="Times New Roman,serif" font-size="9.00">2</text>
</g>
<!-- &#45;1&#45;&gt;2 -->
<g id="edge3" class="edge">
<title>&#45;1&#45;&gt;2</title>
<path fill="none" stroke="red" stroke-width="0.18" d="M424.79,-77.81C420.95,-74.02 416.22,-69.51 411.76,-65.7 397.03,-53.12 379.5,-39.96 366.21,-30.32"/>
<polygon fill="red" stroke="red" stroke-width="0.18" points="367.94,-27.25 357.77,-24.26 363.85,-32.94 367.94,-27.25"/>
</g>
<!-- 3 -->
<g id="node15" class="node">
<title>3</title>
<ellipse fill="lightblue" stroke="black" cx="432.76" cy="-14.85" rx="14.7" ry="14.7"/>
<text text-anchor="middle" x="432.76" y="-12.65" font-family="Times New Roman,serif" font-size="9.00">3</text>
</g>
<!-- &#45;1&#45;&gt;3 -->
<g id="edge4" class="edge">
<title>&#45;1&#45;&gt;3</title>
<path fill="none" stroke="red" stroke-width="0.6" d="M432.76,-77.87C432.76,-68.72 432.76,-53.33 432.76,-40.16"/>
<polygon fill="red" stroke="red" stroke-width="0.6" points="436.26,-39.82 432.76,-29.82 429.26,-39.82 436.26,-39.82"/>
</g>
<!-- &#45;2 -->
<g id="node2" class="node">
<title>&#45;2</title>
<polygon fill="lightgray" stroke="black" points="41.76,-95.91 17.76,-95.91 17.76,-77.91 41.76,-77.91 41.76,-95.91"/>
<text text-anchor="middle" x="29.76" y="-84.71" font-family="Times New Roman,serif" font-size="9.00">&#45;2</text>
</g>
<!-- &#45;2&#45;&gt;0 -->
<g id="edge5" class="edge">
<title>&#45;2&#45;&gt;0</title>
<path fill="none" stroke="green" stroke-width="0.32" d="M38.86,-77.61C43.63,-73.6 49.72,-68.95 55.76,-65.7 96.33,-43.85 148.29,-28.95 178.32,-21.46"/>
<polygon fill="green" stroke="green" stroke-width="0.32" points="179.44,-24.79 188.33,-19.04 177.79,-17.99 179.44,-24.79"/>
</g>
<!-- &#45;3 -->
<g id="node3" class="node">
<title>&#45;3</title>
<polygon fill="lightgray" stroke="black" points="265.76,-95.91 241.76,-95.91 241.76,-77.91 265.76,-77.91 265.76,-95.91"/>
<text text-anchor="middle" x="253.76" y="-84.71" font-family="Times New Roman,serif" font-size="9.00">&#45;3</text>
</g>
<!-- &#45;3&#45;&gt;0 -->
<g id="edge6" class="edge">
<title>&#45;3&#45;&gt;0</title>
<path fill="none" stroke="red" stroke-width="0.34" stroke-dasharray="1,5" d="M247.91,-77.87C240.46,-67.64 227.32,-49.59 217.13,-35.59"/>
<polygon fill="red" stroke="red" stroke-width="0.34" points="219.96,-33.53 211.25,-27.51 214.3,-37.65 219.96,-33.53"/>
</g>
<!-- &#45;3&#45;&gt;1 -->
<g id="edge7" class="edge">
<title>&#45;3&#45;&gt;1</title>
<path fill="none" stroke="red" stroke-width="0.25" stroke-dasharray="1,5" d="M258.81,-77.87C265.14,-67.79 276.23,-50.14 284.96,-36.23"/>
<polygon fill="red" stroke="red" stroke-width="0.25" points="287.93,-38.09 290.28,-27.76 282,-34.36 287.93,-38.09"/>
</g>
<!-- &#45;3&#45;&gt;2 -->
<g id="edge8" class="edge">
<title>&#45;3&#45;&gt;2</title>
<path fill="none" stroke="green" stroke-width="0.28" d="M262.11,-77.79C266.13,-73.99 271.08,-69.49 275.76,-65.7 291.73,-52.75 310.8,-39.3 324.99,-29.64"/>
<polygon fill="green" stroke="green" stroke-width="0.28" points="327.2,-32.37 333.53,-23.88 323.29,-26.56 327.2,-32.37"/>
</g>
<!-- &#45;3&#45;&gt;3 -->
<g id="edge9" class="edge">
<title>&#45;3&#45;&gt;3</title>
<path fill="none" stroke="red" stroke-width="0.47" d="M260.84,-77.9C264.86,-73.77 270.19,-68.92 275.76,-65.7 298.71,-52.39 370.88,-32.19 408.85,-22.07"/>
<polygon fill="red" stroke="red" stroke-width="0.47" points="409.81,-25.44 418.59,-19.5 408.02,-18.67 409.81,-25.44"/>
</g>
<!-- &#45;4 -->
<g id="node4" class="node">
<title>&#45;4</title>
<polygon fill="lightgray" stroke="black" points="121.76,-95.91 97.76,-95.91 97.76,-77.91 121.76,-77.91 121.76,-95.91"/>
<text text-anchor="middle" x="109.76" y="-84.71" font-family="Times New Roman,serif" font-size="9.00">&#45;4</text>
</g>
<!-- &#45;4&#45;&gt;0 -->
<g id="edge10" class="edge">
<title>&#45;4&#45;&gt;0</title>
<path fill="none" stroke="green" stroke-width="0.26" stroke-dasharray="1,5" d="M117.66,-77.72C121.48,-73.92 126.22,-69.42 130.76,-65.7 147.32,-52.14 167.44,-38.42 182.2,-28.81"/>
<polygon fill="green" stroke="green" stroke-width="0.26" points="184.09,-31.76 190.61,-23.4 180.31,-25.87 184.09,-31.76"/>
</g>
<!-- &#45;4&#45;&gt;1 -->
<g id="edge31" class="edge">
<title>&#45;4&#45;&gt;1</title>
<path fill="none" stroke="red" stroke-width="0.13" d="M116.43,-77.85C120.24,-73.7 125.34,-68.86 130.76,-65.7 155.29,-51.39 233.64,-31.26 273.69,-21.54"/>
<polygon fill="red" stroke="red" stroke-width="0.13" points="274.54,-24.94 283.45,-19.2 272.91,-18.13 274.54,-24.94"/>
</g>
<!-- &#45;4&#45;&gt;2 -->
<g id="edge36" class="edge">
<title>&#45;4&#45;&gt;2</title>
<path fill="none" stroke="red" stroke-width="0.22" d="M116.3,-77.63C120.08,-73.41 125.18,-68.58 130.76,-65.7 207.53,-26.09 240.76,-59.71 321.76,-29.7 322.63,-29.38 323.5,-29.03 324.37,-28.65"/>
<polygon fill="red" stroke="red" stroke-width="0.22" points="326.13,-31.68 333.45,-24.01 322.95,-25.45 326.13,-31.68"/>
</g>
<!-- &#45;5 -->
<g id="node5" class="node">
<title>&#45;5</title>
<polygon fill="lightgray" stroke="black" points="163.76,-95.91 139.76,-95.91 139.76,-77.91 163.76,-77.91 163.76,-95.91"/>
<text text-anchor="middle" x="151.76" y="-84.71" font-family="Times New Roman,serif" font-size="9.00">&#45;5</text>
</g>
<!-- &#45;5&#45;&gt;0 -->
<g id="edge11" class="edge">
<title>&#45;5&#45;&gt;0</title>
<path fill="none" stroke="red" stroke-width="0.88" d="M157.61,-77.87C165.06,-67.64 178.2,-49.59 188.39,-35.59"/>
<polygon fill="red" stroke="red" stroke-width="0.88" points="191.22,-37.65 194.27,-27.51 185.56,-33.53 191.22,-37.65"/>
</g>
<!-- &#45;5&#45;&gt;1 -->
<g id="edge12" class="edge">
<title>&#45;5&#45;&gt;1</title>
<path fill="none" stroke="green" stroke-width="0.24" stroke-dasharray="1,5" d="M158.92,-77.65C162.72,-73.64 167.66,-68.99 172.76,-65.7 205.03,-44.88 247.38,-30.25 273.58,-22.44"/>
<polygon fill="green" stroke="green" stroke-width="0.24" points="274.78,-25.74 283.41,-19.6 272.83,-19.01 274.78,-25.74"/>
</g>
<!-- &#45;5&#45;&gt;2 -->
<g id="edge13" class="edge">
<title>&#45;5&#45;&gt;2</title>
<path fill="none" stroke="red" stroke-width="0.15" d="M158.36,-77.74C162.16,-73.55 167.26,-68.72 172.76,-65.7 232.49,-32.94 258.5,-54.98 321.76,-29.7 322.62,-29.35 323.49,-28.98 324.35,-28.59"/>
<polygon fill="red" stroke="red" stroke-width="0.15" points="326.14,-31.61 333.4,-23.88 322.91,-25.4 326.14,-31.61"/>
</g>
<!-- &#45;6 -->
<g id="node6" class="node">
<title>&#45;6</title>
<polygon fill="lightgray" stroke="black" points="402.76,-95.91 378.76,-95.91 378.76,-77.91 402.76,-77.91 402.76,-95.91"/>
<text text-anchor="middle" x="390.76" y="-84.71" font-family="Times New Roman,serif" font-size="9.00">&#45;6</text>
</g>
<!-- &#45;6&#45;&gt;1 -->
<g id="edge14" class="edge">
<title>&#45;6&#45;&gt;1</title>
<path fill="none" stroke="green" stroke-width="0.39" d="M382.86,-77.72C379.04,-73.92 374.3,-69.42 369.76,-65.7 353.2,-52.14 333.08,-38.42 318.32,-28.81"/>
<polygon fill="green" stroke="green" stroke-width="0.39" points="320.21,-25.87 309.9,-23.4 316.42,-31.76 320.21,-25.87"/>
</g>
<!-- &#45;6&#45;&gt;2 -->
<g id="edge35" class="edge">
<title>&#45;6&#45;&gt;2</title>
<path fill="none" stroke="red" stroke-width="0.17" d="M385.6,-77.87C379.12,-67.79 367.78,-50.14 358.85,-36.23"/>
<polygon fill="red" stroke="red" stroke-width="0.17" points="361.76,-34.28 353.41,-27.76 355.87,-38.06 361.76,-34.28"/>
</g>
<!-- &#45;7 -->
<g id="node7" class="node">
<title>&#45;7</title>
<polygon fill="lightgray" stroke="black" points="214.76,-162.12 190.76,-162.12 190.76,-144.12 214.76,-144.12 214.76,-162.12"/>
<text text-anchor="middle" x="202.76" y="-150.92" font-family="Times New Roman,serif" font-size="9.00">&#45;7</text>
</g>
<!-- &#45;7&#45;&gt;0 -->
<g id="edge15" class="edge">
<title>&#45;7&#45;&gt;0</title>
<path fill="none" stroke="red" stroke-width="0.12" d="M190.67,-151.29C151.89,-148.35 31.82,-137 8.76,-108.12 -3.01,-93.39 -2.8,-80.6 8.76,-65.7 29.47,-38.99 130.56,-24.1 178.04,-18.48"/>
<polygon fill="red" stroke="red" stroke-width="0.12" points="178.55,-21.95 188.09,-17.34 177.76,-14.99 178.55,-21.95"/>
</g>
<!-- &#45;7&#45;&gt;1 -->
<g id="edge16" class="edge">
<title>&#45;7&#45;&gt;1</title>
<path fill="none" stroke="red" stroke-width="0.24" stroke-dasharray="1,5" d="M190.41,-151.63C166.06,-149.91 112.16,-142.24 88.76,-108.12 78.09,-92.58 77.07,-80.5 88.76,-65.7 94.54,-58.37 219.11,-32.02 273.13,-20.88"/>
<polygon fill="red" stroke="red" stroke-width="0.24" points="274.14,-24.24 283.23,-18.8 272.73,-17.39 274.14,-24.24"/>
</g>
<!-- &#45;7&#45;&gt;2 -->
<g id="edge17" class="edge">
<title>&#45;7&#45;&gt;2</title>
<path fill="none" stroke="green" stroke-width="0.41" d="M215.02,-151.96C261.06,-151.05 422.6,-145.22 453.76,-108.12 465.89,-93.69 463.92,-81.58 453.76,-65.7 435.55,-37.24 396.5,-24.79 370.68,-19.52"/>
<polygon fill="green" stroke="green" stroke-width="0.41" points="371,-16.02 360.53,-17.67 369.74,-22.91 371,-16.02"/>
</g>
<!-- &#45;7&#45;&gt;3 -->
<g id="edge18" class="edge">
<title>&#45;7&#45;&gt;3</title>
<path fill="none" stroke="green" stroke-width="0.11" d="M215.09,-151.62C276.91,-148.99 551.17,-135.78 575.76,-108.12 588.29,-94.03 586.68,-81.07 575.76,-65.7 548.95,-27.96 491.36,-18.55 458.02,-16.36"/>
<polygon fill="green" stroke="green" stroke-width="0.11" points="457.88,-12.85 447.72,-15.86 457.54,-19.84 457.88,-12.85"/>
</g>
<!-- 856 -->
<g id="node16" class="node">
<title>856</title>
<ellipse fill="white" stroke="black" cx="202.76" cy="-86.91" rx="21.43" ry="21.43"/>
<text text-anchor="middle" x="202.76" y="-84.71" font-family="Times New Roman,serif" font-size="9.00">856</text>
</g>
<!-- &#45;7&#45;&gt;856 -->
<g id="edge32" class="edge">
<title>&#45;7&#45;&gt;856</title>
<path fill="none" stroke="red" stroke-width="0.25" d="M202.76,-143.99C202.76,-137.45 202.76,-127.82 202.76,-118.38"/>
<polygon fill="red" stroke="red" stroke-width="0.25" points="206.26,-118.37 202.76,-108.37 199.26,-118.37 206.26,-118.37"/>
</g>
<!-- &#45;8 -->
<g id="node8" class="node">
<title>&#45;8</title>
<polygon fill="lightgray" stroke="black" points="524.76,-95.91 500.76,-95.91 500.76,-77.91 524.76,-77.91 524.76,-95.91"/>
<text text-anchor="middle" x="512.76" y="-84.71" font-family="Times New Roman,serif" font-size="9.00">&#45;8</text>
</g>
<!-- &#45;8&#45;&gt;1 -->
<g id="edge19" class="edge">
<title>&#45;8&#45;&gt;1</title>
<path fill="none" stroke="green" stroke-width="0.2" d="M500.63,-81.5C488.75,-77.25 470.11,-70.72 453.76,-65.7 395.63,-47.84 377.89,-53.09 321.76,-29.7 320.9,-29.34 320.04,-28.96 319.18,-28.56"/>
<polygon fill="green" stroke="green" stroke-width="0.2" points="320.63,-25.37 310.15,-23.81 317.37,-31.57 320.63,-25.37"/>
</g>
<!-- &#45;8&#45;&gt;2 -->
<g id="edge20" class="edge">
<title>&#45;8&#45;&gt;2</title>
<path fill="none" stroke="green" stroke-width="0.88" d="M503.64,-77.65C498.87,-73.64 492.78,-68.99 486.76,-65.7 448.18,-44.6 398.93,-29.6 370.02,-21.86"/>
<polygon fill="green" stroke="green" stroke-width="0.88" points="370.56,-18.39 360,-19.26 368.79,-25.16 370.56,-18.39"/>
</g>
<!-- &#45;8&#45;&gt;3 -->
<g id="edge21" class="edge">
<title>&#45;8&#45;&gt;3</title>
<path fill="none" stroke="red" stroke-width="0.3" d="M503.58,-77.87C490.93,-66.79 467.84,-46.57 451.47,-32.23"/>
<polygon fill="red" stroke="red" stroke-width="0.3" points="453.44,-29.31 443.61,-25.35 448.83,-34.57 453.44,-29.31"/>
</g>
<!-- &#45;9 -->
<g id="node9" class="node">
<title>&#45;9</title>
<polygon fill="lightgray" stroke="black" points="566.76,-95.91 542.76,-95.91 542.76,-77.91 566.76,-77.91 566.76,-95.91"/>
<text text-anchor="middle" x="554.76" y="-84.71" font-family="Times New Roman,serif" font-size="9.00">&#45;9</text>
</g>
<!-- &#45;9&#45;&gt;3 -->
<g id="edge22" class="edge">
<title>&#45;9&#45;&gt;3</title>
<path fill="none" stroke="green" stroke-width="0.49" d="M547.48,-77.81C543.65,-73.85 538.73,-69.19 533.76,-65.7 509.01,-48.31 477.29,-33.74 456.06,-24.92"/>
<polygon fill="green" stroke="green" stroke-width="0.49" points="457.15,-21.58 446.56,-21.07 454.52,-28.07 457.15,-21.58"/>
</g>
<!-- &#45;10 -->
<g id="node10" class="node">
<title>&#45;10</title>
<polygon fill="lightgray" stroke="black" points="313.26,-95.91 284.26,-95.91 284.26,-77.91 313.26,-77.91 313.26,-95.91"/>
<text text-anchor="middle" x="298.76" y="-84.71" font-family="Times New Roman,serif" font-size="9.00">&#45;10</text>
</g>
<!-- &#45;10&#45;&gt;0 -->
<g id="edge23" class="edge">
<title>&#45;10&#45;&gt;0</title>
<path fill="none" stroke="green" stroke-width="1.03" d="M289.58,-77.83C285.18,-74.05 279.78,-69.54 274.76,-65.7 258.02,-52.9 238.29,-39.34 223.73,-29.6"/>
<polygon fill="green" stroke="green" stroke-width="1.03" points="225.25,-26.41 214.98,-23.8 221.38,-32.25 225.25,-26.41"/>
</g>
<!-- &#45;10&#45;&gt;1 -->
<g id="edge24" class="edge">
<title>&#45;10&#45;&gt;1</title>
<path fill="none" stroke="red" stroke-width="0.3" d="M298.64,-77.87C298.51,-68.72 298.29,-53.33 298.11,-40.16"/>
<polygon fill="red" stroke="red" stroke-width="0.3" points="301.6,-39.77 297.96,-29.82 294.6,-39.87 301.6,-39.77"/>
</g>
<!-- &#45;10&#45;&gt;2 -->
<g id="edge25" class="edge">
<title>&#45;10&#45;&gt;2</title>
<path fill="none" stroke="red" stroke-width="0.17" d="M304.15,-77.87C310.95,-67.73 322.9,-49.93 332.25,-35.99"/>
<polygon fill="red" stroke="red" stroke-width="0.17" points="335.27,-37.76 337.94,-27.51 329.46,-33.86 335.27,-37.76"/>
</g>
<!-- &#45;10&#45;&gt;3 -->
<g id="edge26" class="edge">
<title>&#45;10&#45;&gt;3</title>
<path fill="none" stroke="red" stroke-width="0.13" stroke-dasharray="1,5" d="M307.2,-77.81C311.61,-73.85 317.23,-69.19 322.76,-65.7 350.9,-47.95 386.42,-33.05 409.36,-24.29"/>
<polygon fill="red" stroke="red" stroke-width="0.13" points="410.8,-27.48 418.94,-20.7 408.35,-20.93 410.8,-27.48"/>
</g>
<!-- &#45;11 -->
<g id="node11" class="node">
<title>&#45;11</title>
<polygon fill="lightgray" stroke="black" points="360.26,-95.91 331.26,-95.91 331.26,-77.91 360.26,-77.91 360.26,-95.91"/>
<text text-anchor="middle" x="345.76" y="-84.71" font-family="Times New Roman,serif" font-size="9.00">&#45;11</text>
</g>
<!-- &#45;11&#45;&gt;0 -->
<g id="edge27" class="edge">
<title>&#45;11&#45;&gt;0</title>
<path fill="none" stroke="green" stroke-width="0.22" d="M337.77,-77.72C333.56,-73.72 328.17,-69.07 322.76,-65.7 291.6,-46.28 251.56,-31.4 226.52,-23.14"/>
<polygon fill="green" stroke="green" stroke-width="0.22" points="227.37,-19.74 216.78,-20.01 225.23,-26.4 227.37,-19.74"/>
</g>
<!-- &#45;11&#45;&gt;1 -->
<g id="edge28" class="edge">
<title>&#45;11&#45;&gt;1</title>
<path fill="none" stroke="green" stroke-width="1.52" d="M340.25,-77.87C333.3,-67.73 321.11,-49.93 311.56,-35.99"/>
<polygon fill="green" stroke="green" stroke-width="1.52" points="314.29,-33.78 305.75,-27.51 308.51,-37.73 314.29,-33.78"/>
</g>
<!-- &#45;11&#45;&gt;2 -->
<g id="edge29" class="edge">
<title>&#45;11&#45;&gt;2</title>
<path fill="none" stroke="red" stroke-width="0.66" d="M345.76,-77.87C345.76,-68.72 345.76,-53.33 345.76,-40.16"/>
<polygon fill="red" stroke="red" stroke-width="0.66" points="349.26,-39.82 345.76,-29.82 342.26,-39.82 349.26,-39.82"/>
</g>
<!-- &#45;11&#45;&gt;3 -->
<g id="edge30" class="edge">
<title>&#45;11&#45;&gt;3</title>
<path fill="none" stroke="green" stroke-width="0.16" d="M355.51,-77.58C359.85,-73.91 365.03,-69.56 369.76,-65.7 384.33,-53.8 401.04,-40.6 413.58,-30.78"/>
<polygon fill="green" stroke="green" stroke-width="0.16" points="415.8,-33.49 421.52,-24.57 411.49,-27.97 415.8,-33.49"/>
</g>
<!-- 856&#45;&gt;0 -->
<g id="edge34" class="edge">
<title>856&#45;&gt;0</title>
<path fill="none" stroke="red" stroke-width="0.17" d="M202.76,-65.65C202.76,-57.67 202.76,-48.43 202.76,-40.1"/>
<polygon fill="red" stroke="red" stroke-width="0.17" points="206.26,-39.85 202.76,-29.85 199.26,-39.85 206.26,-39.85"/>
</g>
<!-- 856&#45;&gt;2 -->
<g id="edge33" class="edge">
<title>856&#45;&gt;2</title>
<path fill="none" stroke="green" stroke-width="0.24" stroke-dasharray="1,5" d="M219.51,-73.73C223.73,-70.92 228.32,-68.06 232.76,-65.7 270.43,-45.67 283.41,-48.41 321.76,-29.7 322.59,-29.29 323.43,-28.87 324.28,-28.43"/>
<polygon fill="green" stroke="green" stroke-width="0.24" points="326.15,-31.4 333.23,-23.52 322.78,-25.26 326.15,-31.4"/>
</g>
</g>
</svg>
