<?xml version="1.0" encoding="UTF-8" standalone="no"?>
<!DOCTYPE svg PUBLIC "-//W3C//DTD SVG 1.1//EN"
 "http://www.w3.org/Graphics/SVG/1.1/DTD/svg11.dtd">
<!-- Generated by graphviz version 2.47.1 (20210417.1919)
 -->
<!-- Pages: 1 -->
<svg width="483pt" height="197pt"
 viewBox="0.00 0.00 482.85 196.99" xmlns="http://www.w3.org/2000/svg" xmlns:xlink="http://www.w3.org/1999/xlink">
<g id="graph0" class="graph" transform="scale(1 1) rotate(0) translate(4 192.99)">
<polygon fill="white" stroke="transparent" points="-4,4 -4,-192.99 478.85,-192.99 478.85,4 -4,4"/>
<!-- &#45;1 -->
<g id="node1" class="node">
<title>&#45;1</title>
<polygon fill="lightgray" stroke="black" points="26.85,-188.99 2.85,-188.99 2.85,-170.99 26.85,-170.99 26.85,-188.99"/>
<text text-anchor="middle" x="14.85" y="-177.79" font-family="Times New Roman,serif" font-size="9.00">&#45;1</text>
</g>
<!-- 2 -->
<g id="node14" class="node">
<title>2</title>
<ellipse fill="lightblue" stroke="black" cx="14.85" cy="-110.25" rx="14.7" ry="14.7"/>
<text text-anchor="middle" x="14.85" y="-108.05" font-family="Times New Roman,serif" font-size="9.00">2</text>
</g>
<!-- &#45;1&#45;&gt;2 -->
<g id="edge5" class="edge">
<title>&#45;1&#45;&gt;2</title>
<path fill="none" stroke="red" stroke-width="0.28" d="M14.85,-170.96C14.85,-162.23 14.85,-147.86 14.85,-135.41"/>
<polygon fill="red" stroke="red" stroke-width="0.28" points="18.35,-135.15 14.85,-125.15 11.35,-135.15 18.35,-135.15"/>
</g>
<!-- &#45;2 -->
<g id="node2" class="node">
<title>&#45;2</title>
<polygon fill="lightgray" stroke="black" points="91.85,-188.99 67.85,-188.99 67.85,-170.99 91.85,-170.99 91.85,-188.99"/>
<text text-anchor="middle" x="79.85" y="-177.79" font-family="Times New Roman,serif" font-size="9.00">&#45;2</text>
</g>
<!-- &#45;3 -->
<g id="node3" class="node">
<title>&#45;3</title>
<polygon fill="lightgray" stroke="black" points="306.85,-188.99 282.85,-188.99 282.85,-170.99 306.85,-170.99 306.85,-188.99"/>
<text text-anchor="middle" x="294.85" y="-177.79" font-family="Times New Roman,serif" font-size="9.00">&#45;3</text>
</g>
<!-- 1 -->
<g id="node13" class="node">
<title>1</title>
<ellipse fill="lightblue" stroke="black" cx="190.85" cy="-110.25" rx="14.7" ry="14.7"/>
<text text-anchor="middle" x="190.85" y="-108.05" font-family="Times New Roman,serif" font-size="9.00">1</text>
</g>
<!-- &#45;3&#45;&gt;1 -->
<g id="edge1" class="edge">
<title>&#45;3&#45;&gt;1</title>
<path fill="none" stroke="green" stroke-width="0.44" stroke-dasharray="1,5" d="M282.84,-173.68C266.63,-166.23 237.2,-151.69 214.85,-134.99 212.47,-133.22 210.1,-131.22 207.81,-129.15"/>
<polygon fill="green" stroke="green" stroke-width="0.44" points="210.16,-126.55 200.55,-122.08 205.28,-131.56 210.16,-126.55"/>
</g>
<!-- 3718 -->
<g id="node16" class="node">
<title>3718</title>
<ellipse fill="white" stroke="black" cx="354.85" cy="-110.25" rx="25" ry="25"/>
<text text-anchor="middle" x="354.85" y="-108.05" font-family="Times New Roman,serif" font-size="9.00">3718</text>
</g>
<!-- &#45;3&#45;&gt;3718 -->
<g id="edge13" class="edge">
<title>&#45;3&#45;&gt;3718</title>
<path fill="none" stroke="green" stroke-width="0.3" d="M301.97,-170.96C309.35,-162.62 321.29,-149.14 331.96,-137.09"/>
<polygon fill="green" stroke="green" stroke-width="0.3" points="334.71,-139.26 338.72,-129.46 329.47,-134.62 334.71,-139.26"/>
</g>
<!-- 3597 -->
<g id="node17" class="node">
<title>3597</title>
<ellipse fill="white" stroke="black" cx="327.85" cy="-24.75" rx="25" ry="25"/>
<text text-anchor="middle" x="327.85" y="-22.55" font-family="Times New Roman,serif" font-size="9.00">3597</text>
</g>
<!-- &#45;3&#45;&gt;3597 -->
<g id="edge10" class="edge">
<title>&#45;3&#45;&gt;3597</title>
<path fill="none" stroke="red" stroke-width="0.23" stroke-dasharray="1,5" d="M296.62,-170.76C301.07,-150.1 312.89,-95.2 320.65,-59.19"/>
<polygon fill="red" stroke="red" stroke-width="0.23" points="324.13,-59.65 322.81,-49.13 317.29,-58.17 324.13,-59.65"/>
</g>
<!-- 3322 -->
<g id="node18" class="node">
<title>3322</title>
<ellipse fill="white" stroke="black" cx="248.85" cy="-110.25" rx="25" ry="25"/>
<text text-anchor="middle" x="248.85" y="-108.05" font-family="Times New Roman,serif" font-size="9.00">3322</text>
</g>
<!-- &#45;3&#45;&gt;3322 -->
<g id="edge11" class="edge">
<title>&#45;3&#45;&gt;3322</title>
<path fill="none" stroke="green" stroke-width="0.13" d="M289.39,-170.96C284.12,-163.19 275.82,-150.97 268.1,-139.6"/>
<polygon fill="green" stroke="green" stroke-width="0.13" points="270.88,-137.46 262.37,-131.16 265.09,-141.4 270.88,-137.46"/>
</g>
<!-- &#45;4 -->
<g id="node4" class="node">
<title>&#45;4</title>
<polygon fill="lightgray" stroke="black" points="348.85,-188.99 324.85,-188.99 324.85,-170.99 348.85,-170.99 348.85,-188.99"/>
<text text-anchor="middle" x="336.85" y="-177.79" font-family="Times New Roman,serif" font-size="9.00">&#45;4</text>
</g>
<!-- &#45;5 -->
<g id="node5" class="node">
<title>&#45;5</title>
<polygon fill="lightgray" stroke="black" points="390.85,-188.99 366.85,-188.99 366.85,-170.99 390.85,-170.99 390.85,-188.99"/>
<text text-anchor="middle" x="378.85" y="-177.79" font-family="Times New Roman,serif" font-size="9.00">&#45;5</text>
</g>
<!-- &#45;6 -->
<g id="node6" class="node">
<title>&#45;6</title>
<polygon fill="lightgray" stroke="black" points="432.85,-188.99 408.85,-188.99 408.85,-170.99 432.85,-170.99 432.85,-188.99"/>
<text text-anchor="middle" x="420.85" y="-177.79" font-family="Times New Roman,serif" font-size="9.00">&#45;6</text>
</g>
<!-- &#45;7 -->
<g id="node7" class="node">
<title>&#45;7</title>
<polygon fill="lightgray" stroke="black" points="474.85,-188.99 450.85,-188.99 450.85,-170.99 474.85,-170.99 474.85,-188.99"/>
<text text-anchor="middle" x="462.85" y="-177.79" font-family="Times New Roman,serif" font-size="9.00">&#45;7</text>
</g>
<!-- &#45;8 -->
<g id="node8" class="node">
<title>&#45;8</title>
<polygon fill="lightgray" stroke="black" points="255.85,-188.99 231.85,-188.99 231.85,-170.99 255.85,-170.99 255.85,-188.99"/>
<text text-anchor="middle" x="243.85" y="-177.79" font-family="Times New Roman,serif" font-size="9.00">&#45;8</text>
</g>
<!-- &#45;8&#45;&gt;1 -->
<g id="edge9" class="edge">
<title>&#45;8&#45;&gt;1</title>
<path fill="none" stroke="red" stroke-width="0.17" d="M237.56,-170.96C229.82,-161.07 216.43,-143.94 205.96,-130.56"/>
<polygon fill="red" stroke="red" stroke-width="0.17" points="208.51,-128.14 199.59,-122.42 202.99,-132.45 208.51,-128.14"/>
</g>
<!-- &#45;8&#45;&gt;3322 -->
<g id="edge7" class="edge">
<title>&#45;8&#45;&gt;3322</title>
<path fill="none" stroke="red" stroke-width="0.2" d="M244.44,-170.96C244.93,-164.4 245.64,-154.67 246.36,-144.95"/>
<polygon fill="red" stroke="red" stroke-width="0.2" points="249.85,-145.2 247.1,-134.97 242.87,-144.68 249.85,-145.2"/>
</g>
<!-- &#45;9 -->
<g id="node9" class="node">
<title>&#45;9</title>
<polygon fill="lightgray" stroke="black" points="71.85,-119.25 47.85,-119.25 47.85,-101.25 71.85,-101.25 71.85,-119.25"/>
<text text-anchor="middle" x="59.85" y="-108.05" font-family="Times New Roman,serif" font-size="9.00">&#45;9</text>
</g>
<!-- 3 -->
<g id="node15" class="node">
<title>3</title>
<ellipse fill="lightblue" stroke="black" cx="147.85" cy="-24.75" rx="14.7" ry="14.7"/>
<text text-anchor="middle" x="147.85" y="-22.55" font-family="Times New Roman,serif" font-size="9.00">3</text>
</g>
<!-- &#45;9&#45;&gt;3 -->
<g id="edge4" class="edge">
<title>&#45;9&#45;&gt;3</title>
<path fill="none" stroke="green" stroke-width="0.64" d="M66.62,-101.12C70.63,-96.43 75.88,-90.49 80.85,-85.5 96.33,-69.95 115.05,-53.43 128.76,-41.72"/>
<polygon fill="green" stroke="green" stroke-width="0.64" points="131.21,-44.23 136.58,-35.09 126.68,-38.89 131.21,-44.23"/>
</g>
<!-- &#45;10 -->
<g id="node10" class="node">
<title>&#45;10</title>
<polygon fill="lightgray" stroke="black" points="160.35,-188.99 131.35,-188.99 131.35,-170.99 160.35,-170.99 160.35,-188.99"/>
<text text-anchor="middle" x="145.85" y="-177.79" font-family="Times New Roman,serif" font-size="9.00">&#45;10</text>
</g>
<!-- 0 -->
<g id="node12" class="node">
<title>0</title>
<ellipse fill="lightblue" stroke="black" cx="104.85" cy="-110.25" rx="14.7" ry="14.7"/>
<text text-anchor="middle" x="104.85" y="-108.05" font-family="Times New Roman,serif" font-size="9.00">0</text>
</g>
<!-- &#45;10&#45;&gt;0 -->
<g id="edge2" class="edge">
<title>&#45;10&#45;&gt;0</title>
<path fill="none" stroke="green" stroke-width="2.19" d="M140.98,-170.96C135.25,-161.48 125.49,-145.36 117.57,-132.26"/>
<polygon fill="green" stroke="green" stroke-width="2.19" points="120.37,-130.13 112.2,-123.39 114.38,-133.76 120.37,-130.13"/>
</g>
<!-- &#45;10&#45;&gt;1 -->
<g id="edge6" class="edge">
<title>&#45;10&#45;&gt;1</title>
<path fill="none" stroke="red" stroke-width="0.5" d="M151.19,-170.96C157.54,-161.39 168.4,-145.05 177.15,-131.88"/>
<polygon fill="red" stroke="red" stroke-width="0.5" points="180.17,-133.65 182.78,-123.39 174.34,-129.78 180.17,-133.65"/>
</g>
<!-- &#45;10&#45;&gt;3 -->
<g id="edge12" class="edge">
<title>&#45;10&#45;&gt;3</title>
<path fill="none" stroke="green" stroke-width="0.71" d="M145.96,-170.76C146.25,-148.32 147.07,-85.45 147.53,-50.31"/>
<polygon fill="green" stroke="green" stroke-width="0.71" points="151.03,-50 147.66,-39.96 144.03,-49.91 151.03,-50"/>
</g>
<!-- &#45;11 -->
<g id="node11" class="node">
<title>&#45;11</title>
<polygon fill="lightgray" stroke="black" points="207.35,-188.99 178.35,-188.99 178.35,-170.99 207.35,-170.99 207.35,-188.99"/>
<text text-anchor="middle" x="192.85" y="-177.79" font-family="Times New Roman,serif" font-size="9.00">&#45;11</text>
</g>
<!-- &#45;11&#45;&gt;1 -->
<g id="edge3" class="edge">
<title>&#45;11&#45;&gt;1</title>
<path fill="none" stroke="green" stroke-width="3.29" d="M192.61,-170.96C192.35,-162.23 191.93,-147.86 191.56,-135.41"/>
<polygon fill="green" stroke="green" stroke-width="3.29" points="195.05,-135.04 191.26,-125.15 188.06,-135.25 195.05,-135.04"/>
</g>
<!-- 3718&#45;&gt;3597 -->
<g id="edge14" class="edge">
<title>3718&#45;&gt;3597</title>
<path fill="none" stroke="red" stroke-width="0.22" d="M347.47,-86.43C344.64,-77.69 341.36,-67.54 338.3,-58.07"/>
<polygon fill="red" stroke="red" stroke-width="0.22" points="341.63,-56.98 335.22,-48.54 334.96,-59.13 341.63,-56.98"/>
</g>
<!-- 3322&#45;&gt;3 -->
<g id="edge8" class="edge">
<title>3322&#45;&gt;3</title>
<path fill="none" stroke="green" stroke-width="0.39" d="M229.85,-93.54C211.88,-78.68 185.04,-56.5 167.01,-41.59"/>
<polygon fill="green" stroke="green" stroke-width="0.39" points="168.89,-38.6 158.95,-34.92 164.43,-43.99 168.89,-38.6"/>
</g>
</g>
</svg>
