<?xml version="1.0" encoding="UTF-8" standalone="no"?>
<!DOCTYPE svg PUBLIC "-//W3C//DTD SVG 1.1//EN"
 "http://www.w3.org/Graphics/SVG/1.1/DTD/svg11.dtd">
<!-- Generated by graphviz version 2.47.1 (20210417.1919)
 -->
<!-- Pages: 1 -->
<svg width="718pt" height="482pt"
 viewBox="0.00 0.00 718.15 481.77" xmlns="http://www.w3.org/2000/svg" xmlns:xlink="http://www.w3.org/1999/xlink">
<g id="graph0" class="graph" transform="scale(1 1) rotate(0) translate(4 477.77)">
<polygon fill="white" stroke="transparent" points="-4,4 -4,-477.77 714.15,-477.77 714.15,4 -4,4"/>
<!-- &#45;1 -->
<g id="node1" class="node">
<title>&#45;1</title>
<polygon fill="lightgray" stroke="black" points="355.58,-473.77 331.58,-473.77 331.58,-455.77 355.58,-455.77 355.58,-473.77"/>
<text text-anchor="middle" x="343.58" y="-462.57" font-family="Times New Roman,serif" font-size="9.00">&#45;1</text>
</g>
<!-- &#45;2 -->
<g id="node2" class="node">
<title>&#45;2</title>
<polygon fill="lightgray" stroke="black" points="363.58,-127.73 339.58,-127.73 339.58,-109.73 363.58,-109.73 363.58,-127.73"/>
<text text-anchor="middle" x="351.58" y="-116.53" font-family="Times New Roman,serif" font-size="9.00">&#45;2</text>
</g>
<!-- 67367 -->
<g id="node18" class="node">
<title>67367</title>
<ellipse fill="white" stroke="black" cx="169.58" cy="-27.58" rx="27.65" ry="27.65"/>
<text text-anchor="middle" x="169.58" y="-25.38" font-family="Times New Roman,serif" font-size="9.00">67367</text>
</g>
<!-- &#45;2&#45;&gt;67367 -->
<g id="edge9" class="edge">
<title>&#45;2&#45;&gt;67367</title>
<path fill="none" stroke="red" stroke-width="0.55" stroke-dasharray="1,5" d="M346.63,-109.32C342.86,-103.54 337.2,-96.05 330.58,-91.15 292.87,-63.29 241.18,-46.12 206.64,-36.98"/>
<polygon fill="red" stroke="red" stroke-width="0.55" points="207.07,-33.47 196.51,-34.39 205.34,-40.26 207.07,-33.47"/>
</g>
<!-- &#45;3 -->
<g id="node3" class="node">
<title>&#45;3</title>
<polygon fill="lightgray" stroke="black" points="266.58,-401.19 242.58,-401.19 242.58,-383.19 266.58,-383.19 266.58,-401.19"/>
<text text-anchor="middle" x="254.58" y="-389.99" font-family="Times New Roman,serif" font-size="9.00">&#45;3</text>
</g>
<!-- 2 -->
<g id="node14" class="node">
<title>2</title>
<ellipse fill="lightblue" stroke="black" cx="212.58" cy="-301.04" rx="14.7" ry="14.7"/>
<text text-anchor="middle" x="212.58" y="-298.84" font-family="Times New Roman,serif" font-size="9.00">2</text>
</g>
<!-- &#45;3&#45;&gt;2 -->
<g id="edge25" class="edge">
<title>&#45;3&#45;&gt;2</title>
<path fill="none" stroke="red" stroke-width="0.6" stroke-dasharray="1,5" d="M250.7,-382.97C244.44,-369.68 231.9,-343.06 222.91,-323.97"/>
<polygon fill="red" stroke="red" stroke-width="0.6" points="226.01,-322.34 218.58,-314.79 219.68,-325.33 226.01,-322.34"/>
</g>
<!-- 3 -->
<g id="node15" class="node">
<title>3</title>
<ellipse fill="lightblue" stroke="black" cx="385.58" cy="-301.04" rx="14.7" ry="14.7"/>
<text text-anchor="middle" x="385.58" y="-298.84" font-family="Times New Roman,serif" font-size="9.00">3</text>
</g>
<!-- &#45;3&#45;&gt;3 -->
<g id="edge7" class="edge">
<title>&#45;3&#45;&gt;3</title>
<path fill="none" stroke="red" stroke-width="0.31" d="M259.61,-382.89C263.41,-377.15 269.09,-369.68 275.58,-364.62 306.32,-340.64 322.83,-349.79 355.58,-328.62 359.88,-325.84 364.19,-322.46 368.14,-319.05"/>
<polygon fill="red" stroke="red" stroke-width="0.31" points="370.62,-321.54 375.65,-312.22 365.9,-316.36 370.62,-321.54"/>
</g>
<!-- 80715 -->
<g id="node21" class="node">
<title>80715</title>
<ellipse fill="white" stroke="black" cx="318.58" cy="-301.04" rx="27.65" ry="27.65"/>
<text text-anchor="middle" x="318.58" y="-298.84" font-family="Times New Roman,serif" font-size="9.00">80715</text>
</g>
<!-- &#45;3&#45;&gt;80715 -->
<g id="edge13" class="edge">
<title>&#45;3&#45;&gt;80715</title>
<path fill="none" stroke="red" stroke-width="0.38" d="M260.48,-382.97C268.67,-371.56 283.92,-350.32 296.74,-332.46"/>
<polygon fill="red" stroke="red" stroke-width="0.38" points="299.81,-334.19 302.8,-324.02 294.12,-330.1 299.81,-334.19"/>
</g>
<!-- 69311 -->
<g id="node28" class="node">
<title>69311</title>
<ellipse fill="white" stroke="black" cx="293.58" cy="-118.73" rx="27.65" ry="27.65"/>
<text text-anchor="middle" x="293.58" y="-116.53" font-family="Times New Roman,serif" font-size="9.00">69311</text>
</g>
<!-- &#45;3&#45;&gt;69311 -->
<g id="edge8" class="edge">
<title>&#45;3&#45;&gt;69311</title>
<path fill="none" stroke="green" stroke-width="0.4" stroke-dasharray="1,5" d="M255.74,-383.07C260.57,-349.48 279.15,-220.18 288.35,-156.13"/>
<polygon fill="green" stroke="green" stroke-width="0.4" points="291.84,-156.46 289.79,-146.06 284.91,-155.46 291.84,-156.46"/>
</g>
<!-- &#45;4 -->
<g id="node4" class="node">
<title>&#45;4</title>
<polygon fill="lightgray" stroke="black" points="224.58,-401.19 200.58,-401.19 200.58,-383.19 224.58,-383.19 224.58,-401.19"/>
<text text-anchor="middle" x="212.58" y="-389.99" font-family="Times New Roman,serif" font-size="9.00">&#45;4</text>
</g>
<!-- &#45;4&#45;&gt;2 -->
<g id="edge23" class="edge">
<title>&#45;4&#45;&gt;2</title>
<path fill="none" stroke="red" stroke-width="0.21" stroke-dasharray="1,5" d="M212.58,-382.97C212.58,-370.21 212.58,-345.17 212.58,-326.3"/>
<polygon fill="red" stroke="red" stroke-width="0.21" points="216.08,-326.04 212.58,-316.04 209.08,-326.04 216.08,-326.04"/>
</g>
<!-- &#45;5 -->
<g id="node5" class="node">
<title>&#45;5</title>
<polygon fill="lightgray" stroke="black" points="439.58,-473.77 415.58,-473.77 415.58,-455.77 439.58,-455.77 439.58,-473.77"/>
<text text-anchor="middle" x="427.58" y="-462.57" font-family="Times New Roman,serif" font-size="9.00">&#45;5</text>
</g>
<!-- &#45;6 -->
<g id="node6" class="node">
<title>&#45;6</title>
<polygon fill="lightgray" stroke="black" points="345.58,-218.89 321.58,-218.89 321.58,-200.89 345.58,-200.89 345.58,-218.89"/>
<text text-anchor="middle" x="333.58" y="-207.69" font-family="Times New Roman,serif" font-size="9.00">&#45;6</text>
</g>
<!-- &#45;6&#45;&gt;69311 -->
<g id="edge18" class="edge">
<title>&#45;6&#45;&gt;69311</title>
<path fill="none" stroke="green" stroke-width="0.6" stroke-dasharray="1,5" d="M329.89,-200.66C325.09,-189.96 316.42,-170.64 308.75,-153.55"/>
<polygon fill="green" stroke="green" stroke-width="0.6" points="311.91,-152.05 304.63,-144.36 305.53,-154.92 311.91,-152.05"/>
</g>
<!-- &#45;7 -->
<g id="node7" class="node">
<title>&#45;7</title>
<polygon fill="lightgray" stroke="black" points="548.58,-401.19 524.58,-401.19 524.58,-383.19 548.58,-383.19 548.58,-401.19"/>
<text text-anchor="middle" x="536.58" y="-389.99" font-family="Times New Roman,serif" font-size="9.00">&#45;7</text>
</g>
<!-- 1 -->
<g id="node13" class="node">
<title>1</title>
<ellipse fill="lightblue" stroke="black" cx="476.58" cy="-301.04" rx="14.7" ry="14.7"/>
<text text-anchor="middle" x="476.58" y="-298.84" font-family="Times New Roman,serif" font-size="9.00">1</text>
</g>
<!-- &#45;7&#45;&gt;1 -->
<g id="edge15" class="edge">
<title>&#45;7&#45;&gt;1</title>
<path fill="none" stroke="red" stroke-width="0.42" stroke-dasharray="1,5" d="M531.04,-382.97C521.82,-369.27 503.08,-341.42 490.17,-322.24"/>
<polygon fill="red" stroke="red" stroke-width="0.42" points="493.03,-320.22 484.54,-313.88 487.22,-324.13 493.03,-320.22"/>
</g>
<!-- &#45;7&#45;&gt;2 -->
<g id="edge1" class="edge">
<title>&#45;7&#45;&gt;2</title>
<path fill="none" stroke="red" stroke-width="0.27" d="M530.16,-382.84C525.01,-376.76 517.23,-368.89 508.58,-364.62 416.97,-319.42 380.23,-355.12 281.58,-328.62 265.67,-324.34 248.38,-317.68 235.08,-312.09"/>
<polygon fill="red" stroke="red" stroke-width="0.27" points="236.35,-308.83 225.78,-308.09 233.59,-315.26 236.35,-308.83"/>
</g>
<!-- 76591 -->
<g id="node22" class="node">
<title>76591</title>
<ellipse fill="white" stroke="black" cx="536.58" cy="-301.04" rx="27.65" ry="27.65"/>
<text text-anchor="middle" x="536.58" y="-298.84" font-family="Times New Roman,serif" font-size="9.00">76591</text>
</g>
<!-- &#45;7&#45;&gt;76591 -->
<g id="edge11" class="edge">
<title>&#45;7&#45;&gt;76591</title>
<path fill="none" stroke="red" stroke-width="0.51" d="M536.58,-382.97C536.58,-372.99 536.58,-355.51 536.58,-339.34"/>
<polygon fill="red" stroke="red" stroke-width="0.51" points="540.08,-339 536.58,-329 533.08,-339 540.08,-339"/>
</g>
<!-- 91509 -->
<g id="node24" class="node">
<title>91509</title>
<ellipse fill="white" stroke="black" cx="609.58" cy="-301.04" rx="27.65" ry="27.65"/>
<text text-anchor="middle" x="609.58" y="-298.84" font-family="Times New Roman,serif" font-size="9.00">91509</text>
</g>
<!-- &#45;7&#45;&gt;91509 -->
<g id="edge22" class="edge">
<title>&#45;7&#45;&gt;91509</title>
<path fill="none" stroke="red" stroke-width="0.43" d="M543.31,-382.97C552.93,-371.23 571.06,-349.09 585.92,-330.93"/>
<polygon fill="red" stroke="red" stroke-width="0.43" points="588.86,-332.87 592.48,-322.91 583.44,-328.43 588.86,-332.87"/>
</g>
<!-- 87388 -->
<g id="node26" class="node">
<title>87388</title>
<ellipse fill="white" stroke="black" cx="682.58" cy="-301.04" rx="27.65" ry="27.65"/>
<text text-anchor="middle" x="682.58" y="-298.84" font-family="Times New Roman,serif" font-size="9.00">87388</text>
</g>
<!-- &#45;7&#45;&gt;87388 -->
<g id="edge19" class="edge">
<title>&#45;7&#45;&gt;87388</title>
<path fill="none" stroke="green" stroke-width="0.19" stroke-dasharray="1,5" d="M548.74,-384.89C569.32,-374.08 612.13,-351.02 646.58,-328.62 648.69,-327.25 650.84,-325.8 652.99,-324.31"/>
<polygon fill="green" stroke="green" stroke-width="0.19" points="655.05,-327.14 661.17,-318.49 650.99,-321.43 655.05,-327.14"/>
</g>
<!-- &#45;8 -->
<g id="node8" class="node">
<title>&#45;8</title>
<polygon fill="lightgray" stroke="black" points="138.58,-401.19 114.58,-401.19 114.58,-383.19 138.58,-383.19 138.58,-401.19"/>
<text text-anchor="middle" x="126.58" y="-389.99" font-family="Times New Roman,serif" font-size="9.00">&#45;8</text>
</g>
<!-- 0 -->
<g id="node12" class="node">
<title>0</title>
<ellipse fill="lightblue" stroke="black" cx="83.58" cy="-209.89" rx="14.7" ry="14.7"/>
<text text-anchor="middle" x="83.58" y="-207.69" font-family="Times New Roman,serif" font-size="9.00">0</text>
</g>
<!-- &#45;8&#45;&gt;0 -->
<g id="edge2" class="edge">
<title>&#45;8&#45;&gt;0</title>
<path fill="none" stroke="red" stroke-width="0.79" d="M122.75,-382.88C117.46,-371.06 107.96,-348.62 102.58,-328.62 93.98,-296.72 88.72,-258.85 85.98,-234.84"/>
<polygon fill="red" stroke="red" stroke-width="0.79" points="89.45,-234.42 84.89,-224.86 82.49,-235.18 89.45,-234.42"/>
</g>
<!-- &#45;8&#45;&gt;2 -->
<g id="edge3" class="edge">
<title>&#45;8&#45;&gt;2</title>
<path fill="none" stroke="red" stroke-width="0.19" stroke-dasharray="1,5" d="M134.51,-382.97C148.33,-368.65 177.08,-338.84 195.57,-319.67"/>
<polygon fill="red" stroke="red" stroke-width="0.19" points="198.14,-322.05 202.56,-312.42 193.1,-317.19 198.14,-322.05"/>
</g>
<!-- &#45;8&#45;&gt;67367 -->
<g id="edge28" class="edge">
<title>&#45;8&#45;&gt;67367</title>
<path fill="none" stroke="red" stroke-width="0.25" stroke-dasharray="1,5" d="M130.49,-382.92C135.85,-371.15 145.29,-348.77 149.58,-328.62 169.35,-235.55 171.11,-122.92 170.48,-65.76"/>
<polygon fill="red" stroke="red" stroke-width="0.25" points="173.97,-65.37 170.33,-55.42 166.97,-65.47 173.97,-65.37"/>
</g>
<!-- 95177 -->
<g id="node19" class="node">
<title>95177</title>
<ellipse fill="white" stroke="black" cx="27.58" cy="-301.04" rx="27.65" ry="27.65"/>
<text text-anchor="middle" x="27.58" y="-298.84" font-family="Times New Roman,serif" font-size="9.00">95177</text>
</g>
<!-- &#45;8&#45;&gt;95177 -->
<g id="edge26" class="edge">
<title>&#45;8&#45;&gt;95177</title>
<path fill="none" stroke="green" stroke-width="0.11" d="M117.44,-382.97C103.43,-370.35 76.09,-345.72 55.22,-326.93"/>
<polygon fill="green" stroke="green" stroke-width="0.11" points="57.35,-324.15 47.58,-320.06 52.67,-329.35 57.35,-324.15"/>
</g>
<!-- &#45;9 -->
<g id="node9" class="node">
<title>&#45;9</title>
<polygon fill="lightgray" stroke="black" points="397.58,-473.77 373.58,-473.77 373.58,-455.77 397.58,-455.77 397.58,-473.77"/>
<text text-anchor="middle" x="385.58" y="-462.57" font-family="Times New Roman,serif" font-size="9.00">&#45;9</text>
</g>
<!-- &#45;9&#45;&gt;3 -->
<g id="edge4" class="edge">
<title>&#45;9&#45;&gt;3</title>
<path fill="none" stroke="green" stroke-width="2.98" d="M395.66,-455.57C404.67,-447.54 417.24,-434.4 422.58,-419.77 430.97,-396.74 429.04,-388.26 422.58,-364.62 418.28,-348.9 408.91,-333.12 400.67,-321.34"/>
<polygon fill="green" stroke="green" stroke-width="2.98" points="403.43,-319.18 394.7,-313.18 397.78,-323.32 403.43,-319.18"/>
</g>
<!-- 77392 -->
<g id="node23" class="node">
<title>77392</title>
<ellipse fill="white" stroke="black" cx="312.58" cy="-392.19" rx="27.65" ry="27.65"/>
<text text-anchor="middle" x="312.58" y="-389.99" font-family="Times New Roman,serif" font-size="9.00">77392</text>
</g>
<!-- &#45;9&#45;&gt;77392 -->
<g id="edge29" class="edge">
<title>&#45;9&#45;&gt;77392</title>
<path fill="none" stroke="red" stroke-width="0.12" d="M377.2,-455.68C367.98,-446.75 352.66,-431.95 339.26,-418.99"/>
<polygon fill="red" stroke="red" stroke-width="0.12" points="341.68,-416.47 332.06,-412.03 336.82,-421.5 341.68,-416.47"/>
</g>
<!-- 82135 -->
<g id="node25" class="node">
<title>82135</title>
<ellipse fill="white" stroke="black" cx="385.58" cy="-392.19" rx="27.65" ry="27.65"/>
<text text-anchor="middle" x="385.58" y="-389.99" font-family="Times New Roman,serif" font-size="9.00">82135</text>
</g>
<!-- &#45;9&#45;&gt;82135 -->
<g id="edge16" class="edge">
<title>&#45;9&#45;&gt;82135</title>
<path fill="none" stroke="red" stroke-width="0.12" d="M385.58,-455.68C385.58,-449.23 385.58,-439.7 385.58,-430.02"/>
<polygon fill="red" stroke="red" stroke-width="0.12" points="389.08,-430 385.58,-420 382.08,-430 389.08,-430"/>
</g>
<!-- &#45;10 -->
<g id="node10" class="node">
<title>&#45;10</title>
<polygon fill="lightgray" stroke="black" points="141.08,-310.04 112.08,-310.04 112.08,-292.04 141.08,-292.04 141.08,-310.04"/>
<text text-anchor="middle" x="126.58" y="-298.84" font-family="Times New Roman,serif" font-size="9.00">&#45;10</text>
</g>
<!-- &#45;10&#45;&gt;0 -->
<g id="edge5" class="edge">
<title>&#45;10&#45;&gt;0</title>
<path fill="none" stroke="green" stroke-width="3.01" d="M122.61,-291.81C116.2,-278.52 103.36,-251.9 94.15,-232.82"/>
<polygon fill="green" stroke="green" stroke-width="3.01" points="97.22,-231.12 89.73,-223.64 90.92,-234.16 97.22,-231.12"/>
</g>
<!-- &#45;11 -->
<g id="node11" class="node">
<title>&#45;11</title>
<polygon fill="lightgray" stroke="black" points="499.08,-401.19 470.08,-401.19 470.08,-383.19 499.08,-383.19 499.08,-401.19"/>
<text text-anchor="middle" x="484.58" y="-389.99" font-family="Times New Roman,serif" font-size="9.00">&#45;11</text>
</g>
<!-- &#45;11&#45;&gt;1 -->
<g id="edge6" class="edge">
<title>&#45;11&#45;&gt;1</title>
<path fill="none" stroke="green" stroke-width="3.34" d="M483.84,-382.97C482.69,-370.15 480.43,-344.93 478.73,-326.04"/>
<polygon fill="green" stroke="green" stroke-width="3.34" points="482.21,-325.69 477.83,-316.04 475.24,-326.32 482.21,-325.69"/>
</g>
<!-- 0&#45;&gt;67367 -->
<g id="edge12" class="edge">
<title>0&#45;&gt;67367</title>
<path fill="none" stroke="green" stroke-width="0.45" stroke-dasharray="1,5" d="M78.53,-195.57C70.74,-172.7 58.49,-125.13 76.58,-91.15 88.79,-68.21 113.57,-52.18 134.48,-42.09"/>
<polygon fill="green" stroke="green" stroke-width="0.45" points="136.11,-45.19 143.76,-37.86 133.21,-38.82 136.11,-45.19"/>
</g>
<!-- 98154 -->
<g id="node20" class="node">
<title>98154</title>
<ellipse fill="white" stroke="black" cx="113.58" cy="-118.73" rx="27.65" ry="27.65"/>
<text text-anchor="middle" x="113.58" y="-116.53" font-family="Times New Roman,serif" font-size="9.00">98154</text>
</g>
<!-- 0&#45;&gt;98154 -->
<g id="edge32" class="edge">
<title>0&#45;&gt;98154</title>
<path fill="none" stroke="green" stroke-width="0.29" d="M88.13,-195.35C91.76,-184.58 96.99,-169.02 101.77,-154.81"/>
<polygon fill="green" stroke="green" stroke-width="0.29" points="105.11,-155.86 104.99,-145.26 98.48,-153.63 105.11,-155.86"/>
</g>
<!-- 1&#45;&gt;67367 -->
<g id="edge10" class="edge">
<title>1&#45;&gt;67367</title>
<path fill="none" stroke="green" stroke-width="0.38" stroke-dasharray="1,5" d="M484.14,-287.98C496.98,-265.84 519.93,-217.75 501.58,-182.31 444.58,-72.23 281.55,-40.65 207.27,-31.85"/>
<polygon fill="green" stroke="green" stroke-width="0.38" points="207.3,-28.33 196.98,-30.71 206.53,-35.29 207.3,-28.33"/>
</g>
<!-- 89406 -->
<g id="node27" class="node">
<title>89406</title>
<ellipse fill="white" stroke="black" cx="464.58" cy="-209.89" rx="27.65" ry="27.65"/>
<text text-anchor="middle" x="464.58" y="-207.69" font-family="Times New Roman,serif" font-size="9.00">89406</text>
</g>
<!-- 1&#45;&gt;89406 -->
<g id="edge20" class="edge">
<title>1&#45;&gt;89406</title>
<path fill="none" stroke="red" stroke-width="0.6" stroke-dasharray="1,5" d="M474.7,-286.11C473.3,-275.73 471.33,-261.05 469.49,-247.41"/>
<polygon fill="red" stroke="red" stroke-width="0.6" points="472.93,-246.72 468.13,-237.27 465.99,-247.65 472.93,-246.72"/>
</g>
<!-- 93985 -->
<g id="node16" class="node">
<title>93985</title>
<ellipse fill="white" stroke="black" cx="609.58" cy="-209.89" rx="27.65" ry="27.65"/>
<text text-anchor="middle" x="609.58" y="-207.69" font-family="Times New Roman,serif" font-size="9.00">93985</text>
</g>
<!-- 97668 -->
<g id="node17" class="node">
<title>97668</title>
<ellipse fill="white" stroke="black" cx="391.58" cy="-209.89" rx="27.65" ry="27.65"/>
<text text-anchor="middle" x="391.58" y="-207.69" font-family="Times New Roman,serif" font-size="9.00">97668</text>
</g>
<!-- 97668&#45;&gt;69311 -->
<g id="edge31" class="edge">
<title>97668&#45;&gt;69311</title>
<path fill="none" stroke="green" stroke-width="0.21" d="M371.27,-190.41C356.72,-177.18 336.96,-159.2 321.01,-144.69"/>
<polygon fill="green" stroke="green" stroke-width="0.21" points="323.27,-142.02 313.52,-137.88 318.56,-147.19 323.27,-142.02"/>
</g>
<!-- 95177&#45;&gt;0 -->
<g id="edge27" class="edge">
<title>95177&#45;&gt;0</title>
<path fill="none" stroke="green" stroke-width="0.34" stroke-dasharray="1,5" d="M42,-277.08C50.85,-263 62.08,-245.11 70.64,-231.48"/>
<polygon fill="green" stroke="green" stroke-width="0.34" points="73.72,-233.16 76.08,-222.83 67.79,-229.44 73.72,-233.16"/>
</g>
<!-- 98154&#45;&gt;67367 -->
<g id="edge33" class="edge">
<title>98154&#45;&gt;67367</title>
<path fill="none" stroke="green" stroke-width="0.7" d="M128,-94.77C134.6,-84.27 142.52,-71.65 149.67,-60.26"/>
<polygon fill="green" stroke="green" stroke-width="0.7" points="152.85,-61.79 155.2,-51.46 146.92,-58.07 152.85,-61.79"/>
</g>
<!-- 80715&#45;&gt;97668 -->
<g id="edge30" class="edge">
<title>80715&#45;&gt;97668</title>
<path fill="none" stroke="red" stroke-width="0.31" d="M335.88,-278.91C345.42,-267.25 357.42,-252.6 367.83,-239.89"/>
<polygon fill="red" stroke="red" stroke-width="0.31" points="370.77,-241.82 374.4,-231.86 365.36,-237.38 370.77,-241.82"/>
</g>
<!-- 80715&#45;&gt;89406 -->
<g id="edge21" class="edge">
<title>80715&#45;&gt;89406</title>
<path fill="none" stroke="green" stroke-width="0.31" d="M341.63,-285.44C348.04,-281.47 355.04,-277.23 361.58,-273.46 390.86,-256.57 400.02,-255.55 428.58,-237.46 430.7,-236.12 432.87,-234.69 435.02,-233.22"/>
<polygon fill="green" stroke="green" stroke-width="0.31" points="437.08,-236.05 443.23,-227.42 433.04,-230.33 437.08,-236.05"/>
</g>
<!-- 80715&#45;&gt;69311 -->
<g id="edge14" class="edge">
<title>80715&#45;&gt;69311</title>
<path fill="none" stroke="red" stroke-width="0.31" d="M314.89,-273.43C310.59,-242.45 303.47,-191.09 298.66,-156.36"/>
<polygon fill="red" stroke="red" stroke-width="0.31" points="302.08,-155.58 297.24,-146.15 295.15,-156.54 302.08,-155.58"/>
</g>
<!-- 91509&#45;&gt;93985 -->
<g id="edge24" class="edge">
<title>91509&#45;&gt;93985</title>
<path fill="none" stroke="green" stroke-width="0.36" d="M609.58,-273.29C609.58,-265.27 609.58,-256.32 609.58,-247.77"/>
<polygon fill="green" stroke="green" stroke-width="0.36" points="613.08,-247.62 609.58,-237.62 606.08,-247.62 613.08,-247.62"/>
</g>
<!-- 82135&#45;&gt;3 -->
<g id="edge17" class="edge">
<title>82135&#45;&gt;3</title>
<path fill="none" stroke="green" stroke-width="0.55" d="M385.58,-364.45C385.58,-352.27 385.58,-337.97 385.58,-326.14"/>
<polygon fill="green" stroke="green" stroke-width="0.55" points="389.08,-326.09 385.58,-316.09 382.08,-326.09 389.08,-326.09"/>
</g>
</g>
</svg>
