<?xml version="1.0" encoding="UTF-8" standalone="no"?>
<!DOCTYPE svg PUBLIC "-//W3C//DTD SVG 1.1//EN"
 "http://www.w3.org/Graphics/SVG/1.1/DTD/svg11.dtd">
<!-- Generated by graphviz version 2.47.1 (20210417.1919)
 -->
<!-- Pages: 1 -->
<svg width="613pt" height="368pt"
 viewBox="0.00 0.00 613.25 367.99" xmlns="http://www.w3.org/2000/svg" xmlns:xlink="http://www.w3.org/1999/xlink">
<g id="graph0" class="graph" transform="scale(1 1) rotate(0) translate(4 363.99)">
<polygon fill="white" stroke="transparent" points="-4,4 -4,-363.99 609.25,-363.99 609.25,4 -4,4"/>
<!-- &#45;1 -->
<g id="node1" class="node">
<title>&#45;1</title>
<polygon fill="lightgray" stroke="black" points="347.5,-359.99 323.5,-359.99 323.5,-341.99 347.5,-341.99 347.5,-359.99"/>
<text text-anchor="middle" x="335.5" y="-348.79" font-family="Times New Roman,serif" font-size="9.00">&#45;1</text>
</g>
<!-- 1164 -->
<g id="node18" class="node">
<title>1164</title>
<ellipse fill="white" stroke="black" cx="335.5" cy="-281.24" rx="25" ry="25"/>
<text text-anchor="middle" x="335.5" y="-279.04" font-family="Times New Roman,serif" font-size="9.00">1164</text>
</g>
<!-- &#45;1&#45;&gt;1164 -->
<g id="edge6" class="edge">
<title>&#45;1&#45;&gt;1164</title>
<path fill="none" stroke="green" stroke-width="0.66" d="M335.5,-341.95C335.5,-335.52 335.5,-326.02 335.5,-316.48"/>
<polygon fill="green" stroke="green" stroke-width="0.66" points="339,-316.26 335.5,-306.26 332,-316.26 339,-316.26"/>
</g>
<!-- &#45;2 -->
<g id="node2" class="node">
<title>&#45;2</title>
<polygon fill="lightgray" stroke="black" points="389.5,-359.99 365.5,-359.99 365.5,-341.99 389.5,-341.99 389.5,-359.99"/>
<text text-anchor="middle" x="377.5" y="-348.79" font-family="Times New Roman,serif" font-size="9.00">&#45;2</text>
</g>
<!-- &#45;3 -->
<g id="node3" class="node">
<title>&#45;3</title>
<polygon fill="lightgray" stroke="black" points="431.5,-359.99 407.5,-359.99 407.5,-341.99 431.5,-341.99 431.5,-359.99"/>
<text text-anchor="middle" x="419.5" y="-348.79" font-family="Times New Roman,serif" font-size="9.00">&#45;3</text>
</g>
<!-- &#45;4 -->
<g id="node4" class="node">
<title>&#45;4</title>
<polygon fill="lightgray" stroke="black" points="473.5,-359.99 449.5,-359.99 449.5,-341.99 473.5,-341.99 473.5,-359.99"/>
<text text-anchor="middle" x="461.5" y="-348.79" font-family="Times New Roman,serif" font-size="9.00">&#45;4</text>
</g>
<!-- &#45;5 -->
<g id="node5" class="node">
<title>&#45;5</title>
<polygon fill="lightgray" stroke="black" points="525.5,-290.24 501.5,-290.24 501.5,-272.24 525.5,-272.24 525.5,-290.24"/>
<text text-anchor="middle" x="513.5" y="-279.04" font-family="Times New Roman,serif" font-size="9.00">&#45;5</text>
</g>
<!-- 1609 -->
<g id="node17" class="node">
<title>1609</title>
<ellipse fill="white" stroke="black" cx="513.5" cy="-195.74" rx="25" ry="25"/>
<text text-anchor="middle" x="513.5" y="-193.54" font-family="Times New Roman,serif" font-size="9.00">1609</text>
</g>
<!-- &#45;5&#45;&gt;1609 -->
<g id="edge23" class="edge">
<title>&#45;5&#45;&gt;1609</title>
<path fill="none" stroke="red" stroke-width="0.4" d="M513.5,-272.24C513.5,-262.68 513.5,-246.09 513.5,-230.9"/>
<polygon fill="red" stroke="red" stroke-width="0.4" points="517,-230.7 513.5,-220.7 510,-230.7 517,-230.7"/>
</g>
<!-- 1295 -->
<g id="node20" class="node">
<title>1295</title>
<ellipse fill="white" stroke="black" cx="407.5" cy="-110.25" rx="25" ry="25"/>
<text text-anchor="middle" x="407.5" y="-108.05" font-family="Times New Roman,serif" font-size="9.00">1295</text>
</g>
<!-- &#45;5&#45;&gt;1295 -->
<g id="edge9" class="edge">
<title>&#45;5&#45;&gt;1295</title>
<path fill="none" stroke="green" stroke-width="0.16" d="M508.39,-272.09C493.65,-248.6 450.58,-179.93 425.74,-140.32"/>
<polygon fill="green" stroke="green" stroke-width="0.16" points="428.56,-138.24 420.29,-131.63 422.63,-141.96 428.56,-138.24"/>
</g>
<!-- 1275 -->
<g id="node24" class="node">
<title>1275</title>
<ellipse fill="white" stroke="black" cx="580.5" cy="-195.74" rx="25" ry="25"/>
<text text-anchor="middle" x="580.5" y="-193.54" font-family="Times New Roman,serif" font-size="9.00">1275</text>
</g>
<!-- &#45;5&#45;&gt;1275 -->
<g id="edge27" class="edge">
<title>&#45;5&#45;&gt;1275</title>
<path fill="none" stroke="red" stroke-width="0.39" d="M519.92,-272.24C528.88,-261.08 545.53,-240.33 559.11,-223.4"/>
<polygon fill="red" stroke="red" stroke-width="0.39" points="561.96,-225.44 565.49,-215.45 556.5,-221.06 561.96,-225.44"/>
</g>
<!-- &#45;6 -->
<g id="node6" class="node">
<title>&#45;6</title>
<polygon fill="lightgray" stroke="black" points="592.5,-290.24 568.5,-290.24 568.5,-272.24 592.5,-272.24 592.5,-290.24"/>
<text text-anchor="middle" x="580.5" y="-279.04" font-family="Times New Roman,serif" font-size="9.00">&#45;6</text>
</g>
<!-- &#45;6&#45;&gt;1275 -->
<g id="edge10" class="edge">
<title>&#45;6&#45;&gt;1275</title>
<path fill="none" stroke="green" stroke-width="0.3" d="M580.5,-272.24C580.5,-262.68 580.5,-246.09 580.5,-230.9"/>
<polygon fill="green" stroke="green" stroke-width="0.3" points="584,-230.7 580.5,-220.7 577,-230.7 584,-230.7"/>
</g>
<!-- &#45;7 -->
<g id="node7" class="node">
<title>&#45;7</title>
<polygon fill="lightgray" stroke="black" points="515.5,-359.99 491.5,-359.99 491.5,-341.99 515.5,-341.99 515.5,-359.99"/>
<text text-anchor="middle" x="503.5" y="-348.79" font-family="Times New Roman,serif" font-size="9.00">&#45;7</text>
</g>
<!-- &#45;8 -->
<g id="node8" class="node">
<title>&#45;8</title>
<polygon fill="lightgray" stroke="black" points="222.5,-290.24 198.5,-290.24 198.5,-272.24 222.5,-272.24 222.5,-290.24"/>
<text text-anchor="middle" x="210.5" y="-279.04" font-family="Times New Roman,serif" font-size="9.00">&#45;8</text>
</g>
<!-- 0 -->
<g id="node12" class="node">
<title>0</title>
<ellipse fill="lightblue" stroke="black" cx="167.5" cy="-195.74" rx="14.7" ry="14.7"/>
<text text-anchor="middle" x="167.5" y="-193.54" font-family="Times New Roman,serif" font-size="9.00">0</text>
</g>
<!-- &#45;8&#45;&gt;0 -->
<g id="edge16" class="edge">
<title>&#45;8&#45;&gt;0</title>
<path fill="none" stroke="red" stroke-width="0.43" d="M206.38,-272.24C200.03,-259.91 187.64,-235.85 178.55,-218.19"/>
<polygon fill="red" stroke="red" stroke-width="0.43" points="181.58,-216.45 173.89,-209.16 175.36,-219.65 181.58,-216.45"/>
</g>
<!-- 2 -->
<g id="node14" class="node">
<title>2</title>
<ellipse fill="lightblue" stroke="black" cx="210.5" cy="-24.75" rx="14.7" ry="14.7"/>
<text text-anchor="middle" x="210.5" y="-22.55" font-family="Times New Roman,serif" font-size="9.00">2</text>
</g>
<!-- &#45;8&#45;&gt;2 -->
<g id="edge4" class="edge">
<title>&#45;8&#45;&gt;2</title>
<path fill="none" stroke="green" stroke-width="2.68" d="M210.5,-272.06C210.5,-237.84 210.5,-105.33 210.5,-50.12"/>
<polygon fill="green" stroke="green" stroke-width="2.68" points="214,-49.86 210.5,-39.86 207,-49.86 214,-49.86"/>
</g>
<!-- 1583 -->
<g id="node21" class="node">
<title>1583</title>
<ellipse fill="white" stroke="black" cx="263.5" cy="-195.74" rx="25" ry="25"/>
<text text-anchor="middle" x="263.5" y="-193.54" font-family="Times New Roman,serif" font-size="9.00">1583</text>
</g>
<!-- &#45;8&#45;&gt;1583 -->
<g id="edge19" class="edge">
<title>&#45;8&#45;&gt;1583</title>
<path fill="none" stroke="green" stroke-width="0.73" d="M215.58,-272.24C222.31,-261.63 234.56,-242.34 244.98,-225.92"/>
<polygon fill="green" stroke="green" stroke-width="0.73" points="248.14,-227.48 250.54,-217.16 242.23,-223.73 248.14,-227.48"/>
</g>
<!-- &#45;9 -->
<g id="node9" class="node">
<title>&#45;9</title>
<polygon fill="lightgray" stroke="black" points="474.5,-119.25 450.5,-119.25 450.5,-101.25 474.5,-101.25 474.5,-119.25"/>
<text text-anchor="middle" x="462.5" y="-108.05" font-family="Times New Roman,serif" font-size="9.00">&#45;9</text>
</g>
<!-- &#45;9&#45;&gt;2 -->
<g id="edge1" class="edge">
<title>&#45;9&#45;&gt;2</title>
<path fill="none" stroke="red" stroke-width="0.43" stroke-dasharray="1,5" d="M457.19,-101.06C453.41,-95.87 447.88,-89.41 441.5,-85.5 374.59,-44.48 280.21,-31.45 235.65,-27.45"/>
<polygon fill="red" stroke="red" stroke-width="0.43" points="235.7,-23.94 225.45,-26.61 235.13,-30.92 235.7,-23.94"/>
</g>
<!-- 3 -->
<g id="node15" class="node">
<title>3</title>
<ellipse fill="lightblue" stroke="black" cx="510.5" cy="-24.75" rx="14.7" ry="14.7"/>
<text text-anchor="middle" x="510.5" y="-22.55" font-family="Times New Roman,serif" font-size="9.00">3</text>
</g>
<!-- &#45;9&#45;&gt;3 -->
<g id="edge2" class="edge">
<title>&#45;9&#45;&gt;3</title>
<path fill="none" stroke="green" stroke-width="3.04" d="M467.1,-101.24C474.23,-88.84 488.17,-64.58 498.34,-46.9"/>
<polygon fill="green" stroke="green" stroke-width="3.04" points="501.58,-48.29 503.53,-37.87 495.51,-44.8 501.58,-48.29"/>
</g>
<!-- 1107 -->
<g id="node23" class="node">
<title>1107</title>
<ellipse fill="white" stroke="black" cx="434.5" cy="-24.75" rx="25" ry="25"/>
<text text-anchor="middle" x="434.5" y="-22.55" font-family="Times New Roman,serif" font-size="9.00">1107</text>
</g>
<!-- &#45;9&#45;&gt;1107 -->
<g id="edge5" class="edge">
<title>&#45;9&#45;&gt;1107</title>
<path fill="none" stroke="red" stroke-width="0.32" d="M459.82,-101.24C456.51,-91.4 450.71,-74.08 445.49,-58.51"/>
<polygon fill="red" stroke="red" stroke-width="0.32" points="448.67,-56.99 442.17,-48.63 442.03,-59.22 448.67,-56.99"/>
</g>
<!-- &#45;10 -->
<g id="node10" class="node">
<title>&#45;10</title>
<polygon fill="lightgray" stroke="black" points="139,-290.24 110,-290.24 110,-272.24 139,-272.24 139,-290.24"/>
<text text-anchor="middle" x="124.5" y="-279.04" font-family="Times New Roman,serif" font-size="9.00">&#45;10</text>
</g>
<!-- &#45;10&#45;&gt;0 -->
<g id="edge3" class="edge">
<title>&#45;10&#45;&gt;0</title>
<path fill="none" stroke="green" stroke-width="0.91" d="M128.62,-272.24C134.97,-259.91 147.36,-235.85 156.45,-218.19"/>
<polygon fill="green" stroke="green" stroke-width="0.91" points="159.64,-219.65 161.11,-209.16 153.42,-216.45 159.64,-219.65"/>
</g>
<!-- &#45;10&#45;&gt;2 -->
<g id="edge12" class="edge">
<title>&#45;10&#45;&gt;2</title>
<path fill="none" stroke="green" stroke-width="0.42" stroke-dasharray="1,5" d="M125.18,-272.12C126.89,-253.75 132.04,-207.75 143.5,-170.99 157.84,-124.99 183.53,-74.61 198.59,-46.93"/>
<polygon fill="green" stroke="green" stroke-width="0.42" points="201.68,-48.58 203.44,-38.13 195.54,-45.2 201.68,-48.58"/>
</g>
<!-- 1518 -->
<g id="node19" class="node">
<title>1518</title>
<ellipse fill="white" stroke="black" cx="71.5" cy="-195.74" rx="25" ry="25"/>
<text text-anchor="middle" x="71.5" y="-193.54" font-family="Times New Roman,serif" font-size="9.00">1518</text>
</g>
<!-- &#45;10&#45;&gt;1518 -->
<g id="edge15" class="edge">
<title>&#45;10&#45;&gt;1518</title>
<path fill="none" stroke="green" stroke-width="0.75" stroke-dasharray="1,5" d="M119.42,-272.24C112.69,-261.63 100.44,-242.34 90.02,-225.92"/>
<polygon fill="green" stroke="green" stroke-width="0.75" points="92.77,-223.73 84.46,-217.16 86.86,-227.48 92.77,-223.73"/>
</g>
<!-- &#45;11 -->
<g id="node11" class="node">
<title>&#45;11</title>
<polygon fill="lightgray" stroke="black" points="29,-204.74 0,-204.74 0,-186.74 29,-186.74 29,-204.74"/>
<text text-anchor="middle" x="14.5" y="-193.54" font-family="Times New Roman,serif" font-size="9.00">&#45;11</text>
</g>
<!-- 1074 -->
<g id="node22" class="node">
<title>1074</title>
<ellipse fill="white" stroke="black" cx="43.5" cy="-110.25" rx="25" ry="25"/>
<text text-anchor="middle" x="43.5" y="-108.05" font-family="Times New Roman,serif" font-size="9.00">1074</text>
</g>
<!-- &#45;11&#45;&gt;1074 -->
<g id="edge14" class="edge">
<title>&#45;11&#45;&gt;1074</title>
<path fill="none" stroke="red" stroke-width="0.46" d="M17.28,-186.74C20.76,-176.73 26.91,-159 32.39,-143.24"/>
<polygon fill="red" stroke="red" stroke-width="0.46" points="35.7,-144.36 35.68,-133.77 29.09,-142.06 35.7,-144.36"/>
</g>
<!-- 1 -->
<g id="node13" class="node">
<title>1</title>
<ellipse fill="lightblue" stroke="black" cx="289.5" cy="-110.25" rx="14.7" ry="14.7"/>
<text text-anchor="middle" x="289.5" y="-108.05" font-family="Times New Roman,serif" font-size="9.00">1</text>
</g>
<!-- 1640 -->
<g id="node16" class="node">
<title>1640</title>
<ellipse fill="white" stroke="black" cx="407.5" cy="-195.74" rx="25" ry="25"/>
<text text-anchor="middle" x="407.5" y="-193.54" font-family="Times New Roman,serif" font-size="9.00">1640</text>
</g>
<!-- 1640&#45;&gt;1295 -->
<g id="edge26" class="edge">
<title>1640&#45;&gt;1295</title>
<path fill="none" stroke="red" stroke-width="0.58" d="M407.5,-170.59C407.5,-162.65 407.5,-153.66 407.5,-145.13"/>
<polygon fill="red" stroke="red" stroke-width="0.58" points="411,-145.05 407.5,-135.05 404,-145.05 411,-145.05"/>
</g>
<!-- 1609&#45;&gt;1295 -->
<g id="edge24" class="edge">
<title>1609&#45;&gt;1295</title>
<path fill="none" stroke="green" stroke-width="0.29" d="M494.55,-179.82C477.85,-166.66 453.32,-147.34 434.55,-132.56"/>
<polygon fill="green" stroke="green" stroke-width="0.29" points="436.67,-129.76 426.64,-126.33 432.33,-135.26 436.67,-129.76"/>
</g>
<!-- 1164&#45;&gt;1 -->
<g id="edge7" class="edge">
<title>1164&#45;&gt;1</title>
<path fill="none" stroke="red" stroke-width="0.88" stroke-dasharray="1,5" d="M329.2,-257.1C320.45,-224.94 304.69,-167.04 295.89,-134.71"/>
<polygon fill="red" stroke="red" stroke-width="0.88" points="299.19,-133.53 293.19,-124.8 292.44,-135.37 299.19,-133.53"/>
</g>
<!-- 1164&#45;&gt;1640 -->
<g id="edge25" class="edge">
<title>1164&#45;&gt;1640</title>
<path fill="none" stroke="red" stroke-width="0.18" d="M351.48,-261.71C361.33,-250.28 374.13,-235.45 385,-222.84"/>
<polygon fill="red" stroke="red" stroke-width="0.18" points="387.93,-224.79 391.81,-214.94 382.63,-220.22 387.93,-224.79"/>
</g>
<!-- 1164&#45;&gt;1295 -->
<g id="edge21" class="edge">
<title>1164&#45;&gt;1295</title>
<path fill="none" stroke="red" stroke-width="0.19" stroke-dasharray="1,5" d="M342.18,-257.17C348.99,-234.73 360.39,-199.89 373.5,-170.99 378.17,-160.7 384.04,-149.84 389.58,-140.25"/>
<polygon fill="red" stroke="red" stroke-width="0.19" points="392.68,-141.89 394.75,-131.5 386.65,-138.33 392.68,-141.89"/>
</g>
<!-- 1164&#45;&gt;1583 -->
<g id="edge17" class="edge">
<title>1164&#45;&gt;1583</title>
<path fill="none" stroke="red" stroke-width="0.24" d="M319.52,-261.71C309.67,-250.28 296.87,-235.45 286,-222.84"/>
<polygon fill="red" stroke="red" stroke-width="0.24" points="288.37,-220.22 279.19,-214.94 283.07,-224.79 288.37,-220.22"/>
</g>
<!-- 1295&#45;&gt;2 -->
<g id="edge22" class="edge">
<title>1295&#45;&gt;2</title>
<path fill="none" stroke="green" stroke-width="0.25" d="M384.9,-99.67C347.05,-83.62 271.25,-51.5 233.28,-35.4"/>
<polygon fill="green" stroke="green" stroke-width="0.25" points="234.63,-32.18 224.06,-31.5 231.9,-38.62 234.63,-32.18"/>
</g>
<!-- 1295&#45;&gt;1107 -->
<g id="edge13" class="edge">
<title>1295&#45;&gt;1107</title>
<path fill="none" stroke="red" stroke-width="0.18" d="M414.88,-86.43C417.71,-77.69 420.99,-67.54 424.05,-58.07"/>
<polygon fill="red" stroke="red" stroke-width="0.18" points="427.38,-59.13 427.13,-48.54 420.72,-56.98 427.38,-59.13"/>
</g>
<!-- 1583&#45;&gt;1 -->
<g id="edge18" class="edge">
<title>1583&#45;&gt;1</title>
<path fill="none" stroke="red" stroke-width="0.14" d="M270.6,-171.93C274.2,-160.39 278.55,-146.41 282.17,-134.78"/>
<polygon fill="red" stroke="red" stroke-width="0.14" points="285.62,-135.48 285.25,-124.89 278.94,-133.4 285.62,-135.48"/>
</g>
<!-- 1074&#45;&gt;2 -->
<g id="edge11" class="edge">
<title>1074&#45;&gt;2</title>
<path fill="none" stroke="green" stroke-width="0.23" d="M65.33,-98.33C97.22,-82.39 156.22,-52.89 188.31,-36.84"/>
<polygon fill="green" stroke="green" stroke-width="0.23" points="189.97,-39.93 197.35,-32.32 186.84,-33.67 189.97,-39.93"/>
</g>
<!-- 1596 -->
<g id="node25" class="node">
<title>1596</title>
<ellipse fill="white" stroke="black" cx="43.5" cy="-24.75" rx="25" ry="25"/>
<text text-anchor="middle" x="43.5" y="-22.55" font-family="Times New Roman,serif" font-size="9.00">1596</text>
</g>
<!-- 1074&#45;&gt;1596 -->
<g id="edge20" class="edge">
<title>1074&#45;&gt;1596</title>
<path fill="none" stroke="red" stroke-width="0.14" d="M43.5,-85.1C43.5,-77.15 43.5,-68.17 43.5,-59.64"/>
<polygon fill="red" stroke="red" stroke-width="0.14" points="47,-59.56 43.5,-49.56 40,-59.56 47,-59.56"/>
</g>
<!-- 1275&#45;&gt;3 -->
<g id="edge8" class="edge">
<title>1275&#45;&gt;3</title>
<path fill="none" stroke="green" stroke-width="0.19" d="M571.35,-172.65C557.97,-140.36 533.22,-80.59 519.77,-48.13"/>
<polygon fill="green" stroke="green" stroke-width="0.19" points="522.89,-46.52 515.83,-38.62 516.43,-49.2 522.89,-46.52"/>
</g>
</g>
</svg>
