<?xml version="1.0" encoding="UTF-8" standalone="no"?>
<!DOCTYPE svg PUBLIC "-//W3C//DTD SVG 1.1//EN"
 "http://www.w3.org/Graphics/SVG/1.1/DTD/svg11.dtd">
<!-- Generated by graphviz version 2.47.1 (20210417.1919)
 -->
<!-- Pages: 1 -->
<svg width="751pt" height="294pt"
 viewBox="0.00 0.00 751.50 294.19" xmlns="http://www.w3.org/2000/svg" xmlns:xlink="http://www.w3.org/1999/xlink">
<g id="graph0" class="graph" transform="scale(1 1) rotate(0) translate(4 290.19)">
<polygon fill="white" stroke="transparent" points="-4,4 -4,-290.19 747.5,-290.19 747.5,4 -4,4"/>
<!-- &#45;1 -->
<g id="node1" class="node">
<title>&#45;1</title>
<polygon fill="lightgray" stroke="black" points="36.75,-270.44 12.75,-270.44 12.75,-252.44 36.75,-252.44 36.75,-270.44"/>
<text text-anchor="middle" x="24.75" y="-259.24" font-family="Times New Roman,serif" font-size="9.00">&#45;1</text>
</g>
<!-- 2333 -->
<g id="node20" class="node">
<title>2333</title>
<ellipse fill="white" stroke="black" cx="24.75" cy="-175.94" rx="25" ry="25"/>
<text text-anchor="middle" x="24.75" y="-173.74" font-family="Times New Roman,serif" font-size="9.00">2333</text>
</g>
<!-- &#45;1&#45;&gt;2333 -->
<g id="edge11" class="edge">
<title>&#45;1&#45;&gt;2333</title>
<path fill="none" stroke="green" stroke-width="0.3" d="M24.75,-252.44C24.75,-242.88 24.75,-226.3 24.75,-211.1"/>
<polygon fill="green" stroke="green" stroke-width="0.3" points="28.25,-210.9 24.75,-200.9 21.25,-210.9 28.25,-210.9"/>
</g>
<!-- &#45;2 -->
<g id="node2" class="node">
<title>&#45;2</title>
<polygon fill="lightgray" stroke="black" points="261.75,-270.44 237.75,-270.44 237.75,-252.44 261.75,-252.44 261.75,-270.44"/>
<text text-anchor="middle" x="249.75" y="-259.24" font-family="Times New Roman,serif" font-size="9.00">&#45;2</text>
</g>
<!-- &#45;3 -->
<g id="node3" class="node">
<title>&#45;3</title>
<polygon fill="lightgray" stroke="black" points="303.75,-270.44 279.75,-270.44 279.75,-252.44 303.75,-252.44 303.75,-270.44"/>
<text text-anchor="middle" x="291.75" y="-259.24" font-family="Times New Roman,serif" font-size="9.00">&#45;3</text>
</g>
<!-- &#45;4 -->
<g id="node4" class="node">
<title>&#45;4</title>
<polygon fill="lightgray" stroke="black" points="345.75,-270.44 321.75,-270.44 321.75,-252.44 345.75,-252.44 345.75,-270.44"/>
<text text-anchor="middle" x="333.75" y="-259.24" font-family="Times New Roman,serif" font-size="9.00">&#45;4</text>
</g>
<!-- &#45;5 -->
<g id="node5" class="node">
<title>&#45;5</title>
<polygon fill="lightgray" stroke="black" points="387.75,-270.44 363.75,-270.44 363.75,-252.44 387.75,-252.44 387.75,-270.44"/>
<text text-anchor="middle" x="375.75" y="-259.24" font-family="Times New Roman,serif" font-size="9.00">&#45;5</text>
</g>
<!-- 1727 -->
<g id="node21" class="node">
<title>1727</title>
<ellipse fill="white" stroke="black" cx="417.75" cy="-175.94" rx="25" ry="25"/>
<text text-anchor="middle" x="417.75" y="-173.74" font-family="Times New Roman,serif" font-size="9.00">1727</text>
</g>
<!-- &#45;5&#45;&gt;1727 -->
<g id="edge12" class="edge">
<title>&#45;5&#45;&gt;1727</title>
<path fill="none" stroke="green" stroke-width="0.3" d="M379.78,-252.44C384.96,-242.13 394.26,-223.64 402.36,-207.53"/>
<polygon fill="green" stroke="green" stroke-width="0.3" points="405.59,-208.91 406.95,-198.4 399.33,-205.77 405.59,-208.91"/>
</g>
<!-- &#45;6 -->
<g id="node6" class="node">
<title>&#45;6</title>
<polygon fill="lightgray" stroke="black" points="513.75,-270.44 489.75,-270.44 489.75,-252.44 513.75,-252.44 513.75,-270.44"/>
<text text-anchor="middle" x="501.75" y="-259.24" font-family="Times New Roman,serif" font-size="9.00">&#45;6</text>
</g>
<!-- &#45;7 -->
<g id="node7" class="node">
<title>&#45;7</title>
<polygon fill="lightgray" stroke="black" points="429.75,-270.44 405.75,-270.44 405.75,-252.44 429.75,-252.44 429.75,-270.44"/>
<text text-anchor="middle" x="417.75" y="-259.24" font-family="Times New Roman,serif" font-size="9.00">&#45;7</text>
</g>
<!-- &#45;7&#45;&gt;1727 -->
<g id="edge4" class="edge">
<title>&#45;7&#45;&gt;1727</title>
<path fill="none" stroke="green" stroke-width="0.3" d="M417.75,-252.44C417.75,-242.88 417.75,-226.3 417.75,-211.1"/>
<polygon fill="green" stroke="green" stroke-width="0.3" points="421.25,-210.9 417.75,-200.9 414.25,-210.9 421.25,-210.9"/>
</g>
<!-- &#45;8 -->
<g id="node8" class="node">
<title>&#45;8</title>
<polygon fill="lightgray" stroke="black" points="471.75,-270.44 447.75,-270.44 447.75,-252.44 471.75,-252.44 471.75,-270.44"/>
<text text-anchor="middle" x="459.75" y="-259.24" font-family="Times New Roman,serif" font-size="9.00">&#45;8</text>
</g>
<!-- &#45;8&#45;&gt;1727 -->
<g id="edge2" class="edge">
<title>&#45;8&#45;&gt;1727</title>
<path fill="none" stroke="green" stroke-width="0.3" stroke-dasharray="1,5" d="M455.72,-252.44C450.54,-242.13 441.23,-223.64 433.13,-207.53"/>
<polygon fill="green" stroke="green" stroke-width="0.3" points="436.16,-205.77 428.54,-198.4 429.91,-208.91 436.16,-205.77"/>
</g>
<!-- &#45;9 -->
<g id="node9" class="node">
<title>&#45;9</title>
<polygon fill="lightgray" stroke="black" points="110.75,-270.44 86.75,-270.44 86.75,-252.44 110.75,-252.44 110.75,-270.44"/>
<text text-anchor="middle" x="98.75" y="-259.24" font-family="Times New Roman,serif" font-size="9.00">&#45;9</text>
</g>
<!-- 0 -->
<g id="node12" class="node">
<title>0</title>
<ellipse fill="lightblue" stroke="black" cx="151.75" cy="-14.85" rx="14.7" ry="14.7"/>
<text text-anchor="middle" x="151.75" y="-12.65" font-family="Times New Roman,serif" font-size="9.00">0</text>
</g>
<!-- &#45;9&#45;&gt;0 -->
<g id="edge7" class="edge">
<title>&#45;9&#45;&gt;0</title>
<path fill="none" stroke="green" stroke-width="0.3" d="M98.39,-252.33C97.9,-240.84 97.06,-219.17 96.75,-200.69 96.38,-178.7 92.53,-172.79 96.75,-151.2 105.03,-108.82 126.62,-62.94 140.16,-36.97"/>
<polygon fill="green" stroke="green" stroke-width="0.3" points="143.3,-38.51 144.91,-28.04 137.12,-35.22 143.3,-38.51"/>
</g>
<!-- 1 -->
<g id="node13" class="node">
<title>1</title>
<ellipse fill="lightblue" stroke="black" cx="120.75" cy="-175.94" rx="14.7" ry="14.7"/>
<text text-anchor="middle" x="120.75" y="-173.74" font-family="Times New Roman,serif" font-size="9.00">1</text>
</g>
<!-- &#45;9&#45;&gt;1 -->
<g id="edge3" class="edge">
<title>&#45;9&#45;&gt;1</title>
<path fill="none" stroke="green" stroke-width="0.3" d="M100.86,-252.44C103.98,-240.61 109.94,-217.98 114.52,-200.57"/>
<polygon fill="green" stroke="green" stroke-width="0.3" points="118,-201.11 117.17,-190.54 111.23,-199.32 118,-201.11"/>
</g>
<!-- 2509 -->
<g id="node18" class="node">
<title>2509</title>
<ellipse fill="white" stroke="black" cx="178.75" cy="-175.94" rx="25" ry="25"/>
<text text-anchor="middle" x="178.75" y="-173.74" font-family="Times New Roman,serif" font-size="9.00">2509</text>
</g>
<!-- &#45;9&#45;&gt;2509 -->
<g id="edge10" class="edge">
<title>&#45;9&#45;&gt;2509</title>
<path fill="none" stroke="green" stroke-width="0.3" d="M106.42,-252.44C117.48,-240.9 138.37,-219.08 154.87,-201.86"/>
<polygon fill="green" stroke="green" stroke-width="0.3" points="157.7,-203.97 162.1,-194.33 152.65,-199.13 157.7,-203.97"/>
</g>
<!-- &#45;9&#45;&gt;2333 -->
<g id="edge5" class="edge">
<title>&#45;9&#45;&gt;2333</title>
<path fill="none" stroke="green" stroke-width="0.3" d="M91.65,-252.44C81.55,-241.04 62.57,-219.62 47.4,-202.5"/>
<polygon fill="green" stroke="green" stroke-width="0.3" points="49.99,-200.15 40.74,-194.99 44.75,-204.79 49.99,-200.15"/>
</g>
<!-- &#45;10 -->
<g id="node10" class="node">
<title>&#45;10</title>
<polygon fill="lightgray" stroke="black" points="561.25,-270.44 532.25,-270.44 532.25,-252.44 561.25,-252.44 561.25,-270.44"/>
<text text-anchor="middle" x="546.75" y="-259.24" font-family="Times New Roman,serif" font-size="9.00">&#45;10</text>
</g>
<!-- &#45;11 -->
<g id="node11" class="node">
<title>&#45;11</title>
<polygon fill="lightgray" stroke="black" points="219.25,-270.44 190.25,-270.44 190.25,-252.44 219.25,-252.44 219.25,-270.44"/>
<text text-anchor="middle" x="204.75" y="-259.24" font-family="Times New Roman,serif" font-size="9.00">&#45;11</text>
</g>
<!-- &#45;11&#45;&gt;0 -->
<g id="edge1" class="edge">
<title>&#45;11&#45;&gt;0</title>
<path fill="none" stroke="green" stroke-width="0.3" stroke-dasharray="1,5" d="M207.7,-252.11C217.09,-224.11 243.92,-131.43 212.75,-65.7 204.75,-48.83 187.94,-35.78 173.99,-27.27"/>
<polygon fill="green" stroke="green" stroke-width="0.3" points="175.35,-24.02 164.93,-22.11 171.89,-30.1 175.35,-24.02"/>
</g>
<!-- &#45;11&#45;&gt;2509 -->
<g id="edge8" class="edge">
<title>&#45;11&#45;&gt;2509</title>
<path fill="none" stroke="green" stroke-width="0.3" d="M202.26,-252.44C199.19,-242.59 193.8,-225.27 188.95,-209.7"/>
<polygon fill="green" stroke="green" stroke-width="0.3" points="192.19,-208.33 185.87,-199.82 185.5,-210.41 192.19,-208.33"/>
</g>
<!-- 2 -->
<g id="node14" class="node">
<title>2</title>
<ellipse fill="lightblue" stroke="black" cx="24.75" cy="-90.45" rx="14.7" ry="14.7"/>
<text text-anchor="middle" x="24.75" y="-88.25" font-family="Times New Roman,serif" font-size="9.00">2</text>
</g>
<!-- 3 -->
<g id="node15" class="node">
<title>3</title>
<ellipse fill="lightblue" stroke="black" cx="593.75" cy="-261.44" rx="14.7" ry="14.7"/>
<text text-anchor="middle" x="593.75" y="-259.24" font-family="Times New Roman,serif" font-size="9.00">3</text>
</g>
<!-- 2688 -->
<g id="node16" class="node">
<title>2688</title>
<ellipse fill="white" stroke="black" cx="178.75" cy="-90.45" rx="25" ry="25"/>
<text text-anchor="middle" x="178.75" y="-88.25" font-family="Times New Roman,serif" font-size="9.00">2688</text>
</g>
<!-- 2688&#45;&gt;0 -->
<g id="edge14" class="edge">
<title>2688&#45;&gt;0</title>
<path fill="none" stroke="green" stroke-width="0.3" d="M170.5,-66.97C167.21,-58 163.43,-47.68 160.12,-38.68"/>
<polygon fill="green" stroke="green" stroke-width="0.3" points="163.38,-37.4 156.65,-29.21 156.81,-39.81 163.38,-37.4"/>
</g>
<!-- 1066 -->
<g id="node17" class="node">
<title>1066</title>
<ellipse fill="white" stroke="black" cx="651.75" cy="-261.44" rx="25" ry="25"/>
<text text-anchor="middle" x="651.75" y="-259.24" font-family="Times New Roman,serif" font-size="9.00">1066</text>
</g>
<!-- 2509&#45;&gt;0 -->
<g id="edge9" class="edge">
<title>2509&#45;&gt;0</title>
<path fill="none" stroke="green" stroke-width="0.3" stroke-dasharray="1,5" d="M164.33,-155.62C156.89,-144.43 148.6,-129.73 144.75,-115.2 138.04,-89.83 141.74,-59.64 145.87,-39.24"/>
<polygon fill="green" stroke="green" stroke-width="0.3" points="149.33,-39.81 148.08,-29.29 142.5,-38.29 149.33,-39.81"/>
</g>
<!-- 2509&#45;&gt;2688 -->
<g id="edge13" class="edge">
<title>2509&#45;&gt;2688</title>
<path fill="none" stroke="green" stroke-width="0.3" d="M178.75,-150.79C178.75,-142.85 178.75,-133.87 178.75,-125.33"/>
<polygon fill="green" stroke="green" stroke-width="0.3" points="182.25,-125.26 178.75,-115.26 175.25,-125.26 182.25,-125.26"/>
</g>
<!-- 1300 -->
<g id="node19" class="node">
<title>1300</title>
<ellipse fill="white" stroke="black" cx="718.75" cy="-261.44" rx="25" ry="25"/>
<text text-anchor="middle" x="718.75" y="-259.24" font-family="Times New Roman,serif" font-size="9.00">1300</text>
</g>
<!-- 2333&#45;&gt;2 -->
<g id="edge6" class="edge">
<title>2333&#45;&gt;2</title>
<path fill="none" stroke="green" stroke-width="0.3" d="M24.75,-150.79C24.75,-139.81 24.75,-126.84 24.75,-115.83"/>
<polygon fill="green" stroke="green" stroke-width="0.3" points="28.25,-115.62 24.75,-105.62 21.25,-115.62 28.25,-115.62"/>
</g>
</g>
</svg>
