<?xml version="1.0" encoding="UTF-8" standalone="no"?>
<!DOCTYPE svg PUBLIC "-//W3C//DTD SVG 1.1//EN"
 "http://www.w3.org/Graphics/SVG/1.1/DTD/svg11.dtd">
<!-- Generated by graphviz version 2.47.1 (20210417.1919)
 -->
<!-- Pages: 1 -->
<svg width="691pt" height="236pt"
 viewBox="0.00 0.00 690.62 235.82" xmlns="http://www.w3.org/2000/svg" xmlns:xlink="http://www.w3.org/1999/xlink">
<g id="graph0" class="graph" transform="scale(1 1) rotate(0) translate(4 231.82)">
<polygon fill="white" stroke="transparent" points="-4,4 -4,-231.82 686.62,-231.82 686.62,4 -4,4"/>
<!-- &#45;1 -->
<g id="node1" class="node">
<title>&#45;1</title>
<polygon fill="lightgray" stroke="black" points="237.97,-227.82 213.97,-227.82 213.97,-209.82 237.97,-209.82 237.97,-227.82"/>
<text text-anchor="middle" x="225.97" y="-216.62" font-family="Times New Roman,serif" font-size="9.00">&#45;1</text>
</g>
<!-- 0 -->
<g id="node12" class="node">
<title>0</title>
<ellipse fill="lightblue" stroke="black" cx="354.97" cy="-158.97" rx="14.7" ry="14.7"/>
<text text-anchor="middle" x="354.97" y="-156.77" font-family="Times New Roman,serif" font-size="9.00">0</text>
</g>
<!-- &#45;1&#45;&gt;0 -->
<g id="edge1" class="edge">
<title>&#45;1&#45;&gt;0</title>
<path fill="none" stroke="green" stroke-width="0.21" d="M238.16,-213.29C257.96,-205.81 298.21,-190.06 330.97,-173.82 331.8,-173.41 332.64,-172.98 333.49,-172.55"/>
<polygon fill="green" stroke="green" stroke-width="0.21" points="335.36,-175.51 342.43,-167.61 331.98,-169.38 335.36,-175.51"/>
</g>
<!-- 1 -->
<g id="node13" class="node">
<title>1</title>
<ellipse fill="lightblue" stroke="black" cx="473.97" cy="-14.85" rx="14.7" ry="14.7"/>
<text text-anchor="middle" x="473.97" y="-12.65" font-family="Times New Roman,serif" font-size="9.00">1</text>
</g>
<!-- &#45;1&#45;&gt;1 -->
<g id="edge2" class="edge">
<title>&#45;1&#45;&gt;1</title>
<path fill="none" stroke="green" stroke-width="0.47" stroke-dasharray="1,5" d="M226.36,-209.8C228.03,-184.54 236.73,-105.96 280.97,-65.7 328.45,-22.49 408.45,-15.73 448.92,-15.28"/>
<polygon fill="green" stroke="green" stroke-width="0.47" points="448.99,-18.78 459,-15.29 449,-11.78 448.99,-18.78"/>
</g>
<!-- 2 -->
<g id="node14" class="node">
<title>2</title>
<ellipse fill="lightblue" stroke="black" cx="306.97" cy="-158.97" rx="14.7" ry="14.7"/>
<text text-anchor="middle" x="306.97" y="-156.77" font-family="Times New Roman,serif" font-size="9.00">2</text>
</g>
<!-- &#45;1&#45;&gt;2 -->
<g id="edge35" class="edge">
<title>&#45;1&#45;&gt;2</title>
<path fill="none" stroke="green" stroke-width="0.44" d="M237.23,-209.78C250.02,-200.64 271.15,-185.56 286.8,-174.38"/>
<polygon fill="green" stroke="green" stroke-width="0.44" points="289.18,-176.98 295.28,-168.32 285.11,-171.29 289.18,-176.98"/>
</g>
<!-- 3 -->
<g id="node15" class="node">
<title>3</title>
<ellipse fill="lightblue" stroke="black" cx="149.97" cy="-14.85" rx="14.7" ry="14.7"/>
<text text-anchor="middle" x="149.97" y="-12.65" font-family="Times New Roman,serif" font-size="9.00">3</text>
</g>
<!-- &#45;1&#45;&gt;3 -->
<g id="edge3" class="edge">
<title>&#45;1&#45;&gt;3</title>
<path fill="none" stroke="red" stroke-width="0.86" d="M213.92,-213.73C191.5,-205.84 144.86,-188.06 135.97,-173.82 109.66,-131.67 127.4,-70.44 140.16,-37.98"/>
<polygon fill="red" stroke="red" stroke-width="0.86" points="143.49,-39.09 144.07,-28.51 137.02,-36.42 143.49,-39.09"/>
</g>
<!-- &#45;2 -->
<g id="node2" class="node">
<title>&#45;2</title>
<polygon fill="lightgray" stroke="black" points="32.97,-227.82 8.97,-227.82 8.97,-209.82 32.97,-209.82 32.97,-227.82"/>
<text text-anchor="middle" x="20.97" y="-216.62" font-family="Times New Roman,serif" font-size="9.00">&#45;2</text>
</g>
<!-- &#45;2&#45;&gt;2 -->
<g id="edge4" class="edge">
<title>&#45;2&#45;&gt;2</title>
<path fill="none" stroke="green" stroke-width="0.2" d="M33.26,-215.34C76.74,-206.54 223.84,-176.79 282.51,-164.92"/>
<polygon fill="green" stroke="green" stroke-width="0.2" points="283.29,-168.34 292.39,-162.92 281.9,-161.47 283.29,-168.34"/>
</g>
<!-- &#45;2&#45;&gt;3 -->
<g id="edge5" class="edge">
<title>&#45;2&#45;&gt;3</title>
<path fill="none" stroke="green" stroke-width="0.12" stroke-dasharray="1,5" d="M17.61,-209.62C8.18,-185.14 -15.85,-111.48 15.97,-65.7 40.55,-30.33 93.38,-20 124.87,-17.02"/>
<polygon fill="green" stroke="green" stroke-width="0.12" points="125.33,-20.5 135.03,-16.25 124.8,-13.52 125.33,-20.5"/>
</g>
<!-- &#45;3 -->
<g id="node3" class="node">
<title>&#45;3</title>
<polygon fill="lightgray" stroke="black" points="323.97,-227.82 299.97,-227.82 299.97,-209.82 323.97,-209.82 323.97,-227.82"/>
<text text-anchor="middle" x="311.97" y="-216.62" font-family="Times New Roman,serif" font-size="9.00">&#45;3</text>
</g>
<!-- &#45;3&#45;&gt;0 -->
<g id="edge37" class="edge">
<title>&#45;3&#45;&gt;0</title>
<path fill="none" stroke="green" stroke-width="0.35" d="M317.95,-209.78C323.72,-202.02 332.68,-189.96 340.34,-179.66"/>
<polygon fill="green" stroke="green" stroke-width="0.35" points="343.22,-181.66 346.37,-171.54 337.6,-177.48 343.22,-181.66"/>
</g>
<!-- &#45;3&#45;&gt;2 -->
<g id="edge36" class="edge">
<title>&#45;3&#45;&gt;2</title>
<path fill="none" stroke="green" stroke-width="0.22" d="M311.28,-209.78C310.7,-203.17 309.86,-193.46 309.08,-184.36"/>
<polygon fill="green" stroke="green" stroke-width="0.22" points="312.55,-183.84 308.2,-174.18 305.57,-184.45 312.55,-183.84"/>
</g>
<!-- &#45;4 -->
<g id="node4" class="node">
<title>&#45;4</title>
<polygon fill="lightgray" stroke="black" points="129.97,-227.82 105.97,-227.82 105.97,-209.82 129.97,-209.82 129.97,-227.82"/>
<text text-anchor="middle" x="117.97" y="-216.62" font-family="Times New Roman,serif" font-size="9.00">&#45;4</text>
</g>
<!-- &#45;4&#45;&gt;1 -->
<g id="edge6" class="edge">
<title>&#45;4&#45;&gt;1</title>
<path fill="none" stroke="red" stroke-width="0.13" stroke-dasharray="1,5" d="M122.32,-209.61C136.44,-183.79 183.78,-103.73 246.97,-65.7 312.3,-26.38 404.88,-17.94 448.88,-16.22"/>
<polygon fill="red" stroke="red" stroke-width="0.13" points="449.08,-19.72 458.97,-15.92 448.87,-12.72 449.08,-19.72"/>
</g>
<!-- &#45;4&#45;&gt;2 -->
<g id="edge7" class="edge">
<title>&#45;4&#45;&gt;2</title>
<path fill="none" stroke="red" stroke-width="0.16" stroke-dasharray="1,5" d="M130.08,-214.12C160.88,-204.69 242.65,-179.66 283.32,-167.21"/>
<polygon fill="red" stroke="red" stroke-width="0.16" points="284.41,-170.54 292.94,-164.27 282.36,-163.85 284.41,-170.54"/>
</g>
<!-- &#45;4&#45;&gt;3 -->
<g id="edge8" class="edge">
<title>&#45;4&#45;&gt;3</title>
<path fill="none" stroke="red" stroke-width="0.23" d="M105.86,-214.99C87.86,-210.06 54.61,-198.04 39.97,-173.82 15.1,-132.69 11.79,-106.01 37.97,-65.7 57.13,-36.21 98.21,-24.02 124.94,-19.08"/>
<polygon fill="red" stroke="red" stroke-width="0.23" points="125.77,-22.49 135.07,-17.43 124.64,-15.59 125.77,-22.49"/>
</g>
<!-- 846 -->
<g id="node16" class="node">
<title>846</title>
<ellipse fill="white" stroke="black" cx="310.97" cy="-86.91" rx="21.43" ry="21.43"/>
<text text-anchor="middle" x="310.97" y="-84.71" font-family="Times New Roman,serif" font-size="9.00">846</text>
</g>
<!-- &#45;4&#45;&gt;846 -->
<g id="edge32" class="edge">
<title>&#45;4&#45;&gt;846</title>
<path fill="none" stroke="green" stroke-width="0.17" d="M130.04,-209.7C160.94,-188.9 243.38,-133.41 285.48,-105.07"/>
<polygon fill="green" stroke="green" stroke-width="0.17" points="287.47,-107.95 293.81,-99.46 283.56,-102.14 287.47,-107.95"/>
</g>
<!-- &#45;5 -->
<g id="node5" class="node">
<title>&#45;5</title>
<polygon fill="lightgray" stroke="black" points="366.97,-227.82 342.97,-227.82 342.97,-209.82 366.97,-209.82 366.97,-227.82"/>
<text text-anchor="middle" x="354.97" y="-216.62" font-family="Times New Roman,serif" font-size="9.00">&#45;5</text>
</g>
<!-- &#45;5&#45;&gt;0 -->
<g id="edge9" class="edge">
<title>&#45;5&#45;&gt;0</title>
<path fill="none" stroke="red" stroke-width="0.63" d="M354.97,-209.78C354.97,-203.17 354.97,-193.46 354.97,-184.36"/>
<polygon fill="red" stroke="red" stroke-width="0.63" points="358.47,-184.18 354.97,-174.18 351.47,-184.18 358.47,-184.18"/>
</g>
<!-- &#45;5&#45;&gt;1 -->
<g id="edge10" class="edge">
<title>&#45;5&#45;&gt;1</title>
<path fill="none" stroke="green" stroke-width="0.6" d="M359.78,-209.66C377,-180.43 435.88,-80.5 461.68,-36.7"/>
<polygon fill="green" stroke="green" stroke-width="0.6" points="464.74,-38.41 466.8,-28.02 458.71,-34.86 464.74,-38.41"/>
</g>
<!-- &#45;5&#45;&gt;2 -->
<g id="edge11" class="edge">
<title>&#45;5&#45;&gt;2</title>
<path fill="none" stroke="red" stroke-width="0.48" stroke-dasharray="1,5" d="M348.3,-209.78C341.71,-201.84 331.4,-189.41 322.72,-178.96"/>
<polygon fill="red" stroke="red" stroke-width="0.48" points="325.3,-176.58 316.22,-171.12 319.91,-181.05 325.3,-176.58"/>
</g>
<!-- &#45;6 -->
<g id="node6" class="node">
<title>&#45;6</title>
<polygon fill="lightgray" stroke="black" points="409.97,-227.82 385.97,-227.82 385.97,-209.82 409.97,-209.82 409.97,-227.82"/>
<text text-anchor="middle" x="397.97" y="-216.62" font-family="Times New Roman,serif" font-size="9.00">&#45;6</text>
</g>
<!-- &#45;6&#45;&gt;0 -->
<g id="edge12" class="edge">
<title>&#45;6&#45;&gt;0</title>
<path fill="none" stroke="red" stroke-width="0.66" d="M391.99,-209.78C386.22,-202.02 377.26,-189.96 369.6,-179.66"/>
<polygon fill="red" stroke="red" stroke-width="0.66" points="372.34,-177.48 363.57,-171.54 366.73,-181.66 372.34,-177.48"/>
</g>
<!-- &#45;6&#45;&gt;1 -->
<g id="edge13" class="edge">
<title>&#45;6&#45;&gt;1</title>
<path fill="none" stroke="red" stroke-width="0.2" d="M409.98,-216.03C430.23,-212.29 470.66,-201.56 487.97,-173.82 514.28,-131.67 496.54,-70.44 483.78,-37.98"/>
<polygon fill="red" stroke="red" stroke-width="0.2" points="486.92,-36.42 479.87,-28.51 480.45,-39.09 486.92,-36.42"/>
</g>
<!-- &#45;6&#45;&gt;2 -->
<g id="edge14" class="edge">
<title>&#45;6&#45;&gt;2</title>
<path fill="none" stroke="red" stroke-width="0.64" d="M385.7,-210.02C370.83,-200.57 345.54,-184.49 327.64,-173.11"/>
<polygon fill="red" stroke="red" stroke-width="0.64" points="329.37,-170.06 319.05,-167.65 325.61,-175.97 329.37,-170.06"/>
</g>
<!-- &#45;6&#45;&gt;3 -->
<g id="edge15" class="edge">
<title>&#45;6&#45;&gt;3</title>
<path fill="none" stroke="red" stroke-width="1.18" d="M398.19,-209.37C398.12,-194.32 395.82,-162.74 378.97,-144.12 347.84,-109.72 322.07,-129.67 280.97,-108.12 238.21,-85.71 193.23,-51.28 168.68,-31.43"/>
<polygon fill="red" stroke="red" stroke-width="1.18" points="170.85,-28.68 160.89,-25.06 166.42,-34.09 170.85,-28.68"/>
</g>
<!-- &#45;7 -->
<g id="node7" class="node">
<title>&#45;7</title>
<polygon fill="lightgray" stroke="black" points="530.97,-227.82 506.97,-227.82 506.97,-209.82 530.97,-209.82 530.97,-227.82"/>
<text text-anchor="middle" x="518.97" y="-216.62" font-family="Times New Roman,serif" font-size="9.00">&#45;7</text>
</g>
<!-- &#45;7&#45;&gt;0 -->
<g id="edge16" class="edge">
<title>&#45;7&#45;&gt;0</title>
<path fill="none" stroke="red" stroke-width="0.37" d="M506.91,-213.57C479.85,-204.02 413.87,-180.75 378.42,-168.25"/>
<polygon fill="red" stroke="red" stroke-width="0.37" points="379.47,-164.91 368.88,-164.88 377.14,-171.51 379.47,-164.91"/>
</g>
<!-- &#45;7&#45;&gt;1 -->
<g id="edge17" class="edge">
<title>&#45;7&#45;&gt;1</title>
<path fill="none" stroke="green" stroke-width="0.38" stroke-dasharray="1,5" d="M525.83,-209.71C532.42,-201.34 541.97,-187.59 545.97,-173.82 559.38,-127.67 569.41,-108.2 546.97,-65.7 536.55,-45.96 514.4,-32.56 497.22,-24.67"/>
<polygon fill="green" stroke="green" stroke-width="0.38" points="498.37,-21.35 487.8,-20.65 495.63,-27.79 498.37,-21.35"/>
</g>
<!-- &#45;7&#45;&gt;3 -->
<g id="edge18" class="edge">
<title>&#45;7&#45;&gt;3</title>
<path fill="none" stroke="green" stroke-width="0.76" stroke-dasharray="1,5" d="M511.93,-209.64C499.62,-195.55 473.12,-166.11 447.97,-144.12 403.58,-105.32 394.22,-91.02 340.97,-65.7 284.77,-38.97 212.21,-25.08 174.76,-19.26"/>
<polygon fill="green" stroke="green" stroke-width="0.76" points="175.16,-15.78 164.75,-17.77 174.13,-22.71 175.16,-15.78"/>
</g>
<!-- &#45;7&#45;&gt;846 -->
<g id="edge30" class="edge">
<title>&#45;7&#45;&gt;846</title>
<path fill="none" stroke="green" stroke-width="0.25" d="M507.98,-209.69C488.87,-195.67 448.09,-166.34 411.97,-144.12 383.51,-126.62 375.11,-124.48 345.97,-108.12 343.3,-106.63 340.53,-105.05 337.76,-103.47"/>
<polygon fill="green" stroke="green" stroke-width="0.25" points="339.5,-100.44 329.09,-98.49 336.01,-106.51 339.5,-100.44"/>
</g>
<!-- &#45;8 -->
<g id="node8" class="node">
<title>&#45;8</title>
<polygon fill="lightgray" stroke="black" points="280.97,-227.82 256.97,-227.82 256.97,-209.82 280.97,-209.82 280.97,-227.82"/>
<text text-anchor="middle" x="268.97" y="-216.62" font-family="Times New Roman,serif" font-size="9.00">&#45;8</text>
</g>
<!-- &#45;8&#45;&gt;0 -->
<g id="edge19" class="edge">
<title>&#45;8&#45;&gt;0</title>
<path fill="none" stroke="red" stroke-width="0.14" d="M280.93,-209.78C294.79,-200.45 317.87,-184.93 334.58,-173.69"/>
<polygon fill="red" stroke="red" stroke-width="0.14" points="336.77,-176.44 343.11,-167.95 332.86,-170.63 336.77,-176.44"/>
</g>
<!-- &#45;8&#45;&gt;1 -->
<g id="edge20" class="edge">
<title>&#45;8&#45;&gt;1</title>
<path fill="none" stroke="red" stroke-width="0.3" d="M268.49,-209.72C268.04,-195.24 268.97,-164.53 282.97,-144.12 300.14,-119.11 315.61,-124.78 340.97,-108.12 381.74,-81.36 428.35,-48.48 454.15,-30.07"/>
<polygon fill="red" stroke="red" stroke-width="0.3" points="456.27,-32.86 462.37,-24.2 452.19,-27.17 456.27,-32.86"/>
</g>
<!-- &#45;8&#45;&gt;2 -->
<g id="edge21" class="edge">
<title>&#45;8&#45;&gt;2</title>
<path fill="none" stroke="green" stroke-width="1.86" d="M274.25,-209.78C279.24,-202.19 286.92,-190.5 293.59,-180.35"/>
<polygon fill="green" stroke="green" stroke-width="1.86" points="296.53,-182.25 299.09,-171.97 290.68,-178.41 296.53,-182.25"/>
</g>
<!-- &#45;8&#45;&gt;3 -->
<g id="edge22" class="edge">
<title>&#45;8&#45;&gt;3</title>
<path fill="none" stroke="red" stroke-width="0.26" d="M262.43,-209.64C248.4,-191.87 214.85,-148.12 191.97,-108.12 178.86,-85.2 166.69,-57.45 158.86,-38.41"/>
<polygon fill="red" stroke="red" stroke-width="0.26" points="162.08,-37.02 155.08,-29.06 155.59,-39.64 162.08,-37.02"/>
</g>
<!-- &#45;9 -->
<g id="node9" class="node">
<title>&#45;9</title>
<polygon fill="lightgray" stroke="black" points="675.97,-227.82 651.97,-227.82 651.97,-209.82 675.97,-209.82 675.97,-227.82"/>
<text text-anchor="middle" x="663.97" y="-216.62" font-family="Times New Roman,serif" font-size="9.00">&#45;9</text>
</g>
<!-- &#45;9&#45;&gt;0 -->
<g id="edge23" class="edge">
<title>&#45;9&#45;&gt;0</title>
<path fill="none" stroke="red" stroke-width="0.36" d="M651.86,-215.56C605.96,-206.96 442.21,-176.31 379.58,-164.58"/>
<polygon fill="red" stroke="red" stroke-width="0.36" points="379.91,-161.08 369.44,-162.68 378.62,-167.96 379.91,-161.08"/>
</g>
<!-- &#45;9&#45;&gt;1 -->
<g id="edge24" class="edge">
<title>&#45;9&#45;&gt;1</title>
<path fill="none" stroke="red" stroke-width="0.47" d="M668.79,-209.59C676.4,-195.42 689.23,-165.87 677.97,-144.12 640.83,-72.42 543.72,-35.92 498.19,-22.3"/>
<polygon fill="red" stroke="red" stroke-width="0.47" points="498.87,-18.85 488.29,-19.46 496.94,-25.58 498.87,-18.85"/>
</g>
<!-- &#45;9&#45;&gt;3 -->
<g id="edge25" class="edge">
<title>&#45;9&#45;&gt;3</title>
<path fill="none" stroke="green" stroke-width="1.57" d="M652.47,-209.82C615.75,-184.62 497.24,-106.22 387.97,-65.7 312.98,-37.89 218.64,-23.94 174.66,-18.57"/>
<polygon fill="green" stroke="green" stroke-width="1.57" points="174.95,-15.08 164.6,-17.38 174.13,-22.03 174.95,-15.08"/>
</g>
<!-- &#45;10 -->
<g id="node10" class="node">
<title>&#45;10</title>
<polygon fill="lightgray" stroke="black" points="183.47,-227.82 154.47,-227.82 154.47,-209.82 183.47,-209.82 183.47,-227.82"/>
<text text-anchor="middle" x="168.97" y="-216.62" font-family="Times New Roman,serif" font-size="9.00">&#45;10</text>
</g>
<!-- &#45;10&#45;&gt;0 -->
<g id="edge26" class="edge">
<title>&#45;10&#45;&gt;0</title>
<path fill="none" stroke="green" stroke-width="1.55" d="M183.67,-214.35C218.22,-206.09 303.73,-185.16 330.97,-173.82 331.83,-173.47 332.69,-173.09 333.55,-172.69"/>
<polygon fill="green" stroke="green" stroke-width="1.55" points="335.36,-175.69 342.58,-167.94 332.1,-169.5 335.36,-175.69"/>
</g>
<!-- &#45;10&#45;&gt;3 -->
<g id="edge27" class="edge">
<title>&#45;10&#45;&gt;3</title>
<path fill="none" stroke="green" stroke-width="0.31" stroke-dasharray="1,5" d="M154.42,-214.11C127.34,-206.87 70.98,-190.15 59.97,-173.82 33.09,-133.99 35.57,-107.1 59.97,-65.7 74.08,-41.76 104.27,-28.51 125.79,-21.8"/>
<polygon fill="green" stroke="green" stroke-width="0.31" points="126.9,-25.12 135.55,-19.01 124.97,-18.39 126.9,-25.12"/>
</g>
<!-- &#45;11 -->
<g id="node11" class="node">
<title>&#45;11</title>
<polygon fill="lightgray" stroke="black" points="473.47,-227.82 444.47,-227.82 444.47,-209.82 473.47,-209.82 473.47,-227.82"/>
<text text-anchor="middle" x="458.97" y="-216.62" font-family="Times New Roman,serif" font-size="9.00">&#45;11</text>
</g>
<!-- &#45;11&#45;&gt;1 -->
<g id="edge28" class="edge">
<title>&#45;11&#45;&gt;1</title>
<path fill="none" stroke="green" stroke-width="0.54" d="M473.63,-212.98C489.78,-206.77 514.93,-194.28 525.97,-173.82 548.79,-131.53 544.83,-109.9 525.97,-65.7 519.63,-50.85 506.47,-38.3 494.97,-29.51"/>
<polygon fill="green" stroke="green" stroke-width="0.54" points="496.81,-26.52 486.64,-23.54 492.73,-32.21 496.81,-26.52"/>
</g>
<!-- &#45;11&#45;&gt;2 -->
<g id="edge29" class="edge">
<title>&#45;11&#45;&gt;2</title>
<path fill="none" stroke="red" stroke-width="0.36" d="M444.42,-213.82C420.29,-206.95 370.75,-191.93 330.97,-173.82 330.13,-173.44 329.28,-173.04 328.42,-172.62"/>
<polygon fill="red" stroke="red" stroke-width="0.36" points="329.9,-169.44 319.43,-167.77 326.58,-175.6 329.9,-169.44"/>
</g>
<!-- 0&#45;&gt;846 -->
<g id="edge34" class="edge">
<title>0&#45;&gt;846</title>
<path fill="none" stroke="red" stroke-width="0.32" d="M347.51,-146.09C341.97,-137.28 334.22,-124.93 327.28,-113.88"/>
<polygon fill="red" stroke="red" stroke-width="0.32" points="330.23,-111.99 321.94,-105.38 324.3,-115.71 330.23,-111.99"/>
</g>
<!-- 846&#45;&gt;1 -->
<g id="edge31" class="edge">
<title>846&#45;&gt;1</title>
<path fill="none" stroke="red" stroke-width="0.25" stroke-dasharray="1,5" d="M330.31,-77.6C360.44,-64.65 418.49,-39.7 450.81,-25.8"/>
<polygon fill="red" stroke="red" stroke-width="0.25" points="452.53,-28.88 460.33,-21.71 449.76,-22.45 452.53,-28.88"/>
</g>
<!-- 846&#45;&gt;3 -->
<g id="edge33" class="edge">
<title>846&#45;&gt;3</title>
<path fill="none" stroke="red" stroke-width="0.46" d="M291.87,-77.6C262.11,-64.65 204.77,-39.7 172.85,-25.8"/>
<polygon fill="red" stroke="red" stroke-width="0.46" points="174.01,-22.49 163.44,-21.71 171.21,-28.91 174.01,-22.49"/>
</g>
</g>
</svg>
