<?xml version="1.0" encoding="UTF-8" standalone="no"?>
<!DOCTYPE svg PUBLIC "-//W3C//DTD SVG 1.1//EN"
 "http://www.w3.org/Graphics/SVG/1.1/DTD/svg11.dtd">
<!-- Generated by graphviz version 2.47.1 (20210417.1919)
 -->
<!-- Pages: 1 -->
<svg width="435pt" height="274pt"
 viewBox="0.00 0.00 435.10 274.01" xmlns="http://www.w3.org/2000/svg" xmlns:xlink="http://www.w3.org/1999/xlink">
<g id="graph0" class="graph" transform="scale(1 1) rotate(0) translate(4 270.01)">
<polygon fill="white" stroke="transparent" points="-4,4 -4,-270.01 431.1,-270.01 431.1,4 -4,4"/>
<!-- &#45;1 -->
<g id="node1" class="node">
<title>&#45;1</title>
<polygon fill="lightgray" stroke="black" points="71.6,-193.43 47.6,-193.43 47.6,-175.43 71.6,-175.43 71.6,-193.43"/>
<text text-anchor="middle" x="59.6" y="-182.23" font-family="Times New Roman,serif" font-size="9.00">&#45;1</text>
</g>
<!-- 1 -->
<g id="node13" class="node">
<title>1</title>
<ellipse fill="lightblue" stroke="black" cx="135.6" cy="-14.85" rx="14.7" ry="14.7"/>
<text text-anchor="middle" x="135.6" y="-12.65" font-family="Times New Roman,serif" font-size="9.00">1</text>
</g>
<!-- &#45;1&#45;&gt;1 -->
<g id="edge7" class="edge">
<title>&#45;1&#45;&gt;1</title>
<path fill="none" stroke="red" stroke-width="0.51" stroke-dasharray="1,5" d="M61.33,-175.37C65.73,-155.79 78.45,-104.48 98.6,-65.7 104.33,-54.68 112.39,-43.49 119.53,-34.5"/>
<polygon fill="red" stroke="red" stroke-width="0.51" points="122.34,-36.6 125.98,-26.65 116.93,-32.15 122.34,-36.6"/>
</g>
<!-- 2 -->
<g id="node14" class="node">
<title>2</title>
<ellipse fill="lightblue" stroke="black" cx="36.6" cy="-93.28" rx="14.7" ry="14.7"/>
<text text-anchor="middle" x="36.6" y="-91.08" font-family="Times New Roman,serif" font-size="9.00">2</text>
</g>
<!-- &#45;1&#45;&gt;2 -->
<g id="edge11" class="edge">
<title>&#45;1&#45;&gt;2</title>
<path fill="none" stroke="red" stroke-width="0.41" stroke-dasharray="1,5" d="M57.48,-175.2C54.14,-162.25 47.53,-136.64 42.64,-117.69"/>
<polygon fill="red" stroke="red" stroke-width="0.41" points="46.02,-116.77 40.13,-107.96 39.24,-118.52 46.02,-116.77"/>
</g>
<!-- 14262 -->
<g id="node18" class="node">
<title>14262</title>
<ellipse fill="white" stroke="black" cx="135.6" cy="-93.28" rx="27.65" ry="27.65"/>
<text text-anchor="middle" x="135.6" y="-91.08" font-family="Times New Roman,serif" font-size="9.00">14262</text>
</g>
<!-- &#45;1&#45;&gt;14262 -->
<g id="edge12" class="edge">
<title>&#45;1&#45;&gt;14262</title>
<path fill="none" stroke="green" stroke-width="0.35" stroke-dasharray="1,5" d="M66.62,-175.2C76.68,-163.39 95.74,-141.04 111.27,-122.82"/>
<polygon fill="green" stroke="green" stroke-width="0.35" points="114.29,-124.67 118.12,-114.79 108.97,-120.13 114.29,-124.67"/>
</g>
<!-- &#45;2 -->
<g id="node2" class="node">
<title>&#45;2</title>
<polygon fill="lightgray" stroke="black" points="225.6,-266.01 201.6,-266.01 201.6,-248.01 225.6,-248.01 225.6,-266.01"/>
<text text-anchor="middle" x="213.6" y="-254.81" font-family="Times New Roman,serif" font-size="9.00">&#45;2</text>
</g>
<!-- 3 -->
<g id="node15" class="node">
<title>3</title>
<ellipse fill="lightblue" stroke="black" cx="318.6" cy="-93.28" rx="14.7" ry="14.7"/>
<text text-anchor="middle" x="318.6" y="-91.08" font-family="Times New Roman,serif" font-size="9.00">3</text>
</g>
<!-- &#45;2&#45;&gt;3 -->
<g id="edge5" class="edge">
<title>&#45;2&#45;&gt;3</title>
<path fill="none" stroke="green" stroke-width="0.45" stroke-dasharray="1,5" d="M225.97,-251.09C250.52,-241.22 303.49,-219.3 308.6,-212.01 327.96,-184.37 326.57,-143.64 323.1,-118.05"/>
<polygon fill="green" stroke="green" stroke-width="0.45" points="326.55,-117.43 321.54,-108.1 319.63,-118.52 326.55,-117.43"/>
</g>
<!-- 13728 -->
<g id="node16" class="node">
<title>13728</title>
<ellipse fill="white" stroke="black" cx="271.6" cy="-184.43" rx="27.65" ry="27.65"/>
<text text-anchor="middle" x="271.6" y="-182.23" font-family="Times New Roman,serif" font-size="9.00">13728</text>
</g>
<!-- &#45;2&#45;&gt;13728 -->
<g id="edge9" class="edge">
<title>&#45;2&#45;&gt;13728</title>
<path fill="none" stroke="red" stroke-width="0.25" d="M220.25,-247.91C227.04,-239.65 237.97,-226.36 248,-214.15"/>
<polygon fill="red" stroke="red" stroke-width="0.25" points="250.77,-216.29 254.41,-206.35 245.36,-211.85 250.77,-216.29"/>
</g>
<!-- 14607 -->
<g id="node17" class="node">
<title>14607</title>
<ellipse fill="white" stroke="black" cx="155.6" cy="-184.43" rx="27.65" ry="27.65"/>
<text text-anchor="middle" x="155.6" y="-182.23" font-family="Times New Roman,serif" font-size="9.00">14607</text>
</g>
<!-- &#45;2&#45;&gt;14607 -->
<g id="edge17" class="edge">
<title>&#45;2&#45;&gt;14607</title>
<path fill="none" stroke="green" stroke-width="0.4" d="M206.95,-247.91C200.16,-239.65 189.24,-226.36 179.2,-214.15"/>
<polygon fill="green" stroke="green" stroke-width="0.4" points="181.84,-211.85 172.79,-206.35 176.44,-216.29 181.84,-211.85"/>
</g>
<!-- &#45;2&#45;&gt;14262 -->
<g id="edge15" class="edge">
<title>&#45;2&#45;&gt;14262</title>
<path fill="none" stroke="red" stroke-width="0.33" stroke-dasharray="1,5" d="M201.29,-254.49C180.06,-251.14 137.1,-240.96 118.6,-212.01 102.6,-186.96 109.96,-152.88 119.47,-127.82"/>
<polygon fill="red" stroke="red" stroke-width="0.33" points="122.79,-128.95 123.33,-118.37 116.31,-126.31 122.79,-128.95"/>
</g>
<!-- &#45;3 -->
<g id="node3" class="node">
<title>&#45;3</title>
<polygon fill="lightgray" stroke="black" points="267.6,-266.01 243.6,-266.01 243.6,-248.01 267.6,-248.01 267.6,-266.01"/>
<text text-anchor="middle" x="255.6" y="-254.81" font-family="Times New Roman,serif" font-size="9.00">&#45;3</text>
</g>
<!-- &#45;4 -->
<g id="node4" class="node">
<title>&#45;4</title>
<polygon fill="lightgray" stroke="black" points="309.6,-266.01 285.6,-266.01 285.6,-248.01 309.6,-248.01 309.6,-266.01"/>
<text text-anchor="middle" x="297.6" y="-254.81" font-family="Times New Roman,serif" font-size="9.00">&#45;4</text>
</g>
<!-- &#45;5 -->
<g id="node5" class="node">
<title>&#45;5</title>
<polygon fill="lightgray" stroke="black" points="379.6,-193.43 355.6,-193.43 355.6,-175.43 379.6,-175.43 379.6,-193.43"/>
<text text-anchor="middle" x="367.6" y="-182.23" font-family="Times New Roman,serif" font-size="9.00">&#45;5</text>
</g>
<!-- 0 -->
<g id="node12" class="node">
<title>0</title>
<ellipse fill="lightblue" stroke="black" cx="375.6" cy="-93.28" rx="14.7" ry="14.7"/>
<text text-anchor="middle" x="375.6" y="-91.08" font-family="Times New Roman,serif" font-size="9.00">0</text>
</g>
<!-- &#45;5&#45;&gt;0 -->
<g id="edge1" class="edge">
<title>&#45;5&#45;&gt;0</title>
<path fill="none" stroke="green" stroke-width="0.4" d="M368.34,-175.2C369.49,-162.39 371.75,-137.17 373.45,-118.27"/>
<polygon fill="green" stroke="green" stroke-width="0.4" points="376.94,-118.55 374.34,-108.28 369.97,-117.93 376.94,-118.55"/>
</g>
<!-- &#45;5&#45;&gt;3 -->
<g id="edge8" class="edge">
<title>&#45;5&#45;&gt;3</title>
<path fill="none" stroke="green" stroke-width="0.39" stroke-dasharray="1,5" d="M363.08,-175.2C355.7,-161.78 340.85,-134.75 330.34,-115.63"/>
<polygon fill="green" stroke="green" stroke-width="0.39" points="333.32,-113.8 325.44,-106.72 327.19,-117.17 333.32,-113.8"/>
</g>
<!-- &#45;6 -->
<g id="node6" class="node">
<title>&#45;6</title>
<polygon fill="lightgray" stroke="black" points="351.6,-266.01 327.6,-266.01 327.6,-248.01 351.6,-248.01 351.6,-266.01"/>
<text text-anchor="middle" x="339.6" y="-254.81" font-family="Times New Roman,serif" font-size="9.00">&#45;6</text>
</g>
<!-- &#45;7 -->
<g id="node7" class="node">
<title>&#45;7</title>
<polygon fill="lightgray" stroke="black" points="225.6,-193.43 201.6,-193.43 201.6,-175.43 225.6,-175.43 225.6,-193.43"/>
<text text-anchor="middle" x="213.6" y="-182.23" font-family="Times New Roman,serif" font-size="9.00">&#45;7</text>
</g>
<!-- &#45;7&#45;&gt;1 -->
<g id="edge14" class="edge">
<title>&#45;7&#45;&gt;1</title>
<path fill="none" stroke="green" stroke-width="0.25" d="M211.7,-175.37C206.89,-155.81 193.16,-104.53 172.6,-65.7 166.79,-54.73 158.72,-43.54 151.6,-34.54"/>
<polygon fill="green" stroke="green" stroke-width="0.25" points="154.2,-32.2 145.16,-26.68 148.79,-36.63 154.2,-32.2"/>
</g>
<!-- &#45;7&#45;&gt;3 -->
<g id="edge16" class="edge">
<title>&#45;7&#45;&gt;3</title>
<path fill="none" stroke="red" stroke-width="0.3" d="M219.34,-175.06C223.3,-169.58 228.87,-162.43 234.6,-156.85 254.37,-137.64 280.18,-119.24 297.94,-107.43"/>
<polygon fill="red" stroke="red" stroke-width="0.3" points="299.97,-110.28 306.42,-101.88 296.14,-104.42 299.97,-110.28"/>
</g>
<!-- &#45;8 -->
<g id="node8" class="node">
<title>&#45;8</title>
<polygon fill="lightgray" stroke="black" points="27.6,-193.43 3.6,-193.43 3.6,-175.43 27.6,-175.43 27.6,-193.43"/>
<text text-anchor="middle" x="15.6" y="-182.23" font-family="Times New Roman,serif" font-size="9.00">&#45;8</text>
</g>
<!-- &#45;8&#45;&gt;1 -->
<g id="edge6" class="edge">
<title>&#45;8&#45;&gt;1</title>
<path fill="none" stroke="red" stroke-width="0.6" d="M12.5,-175.41C5.19,-155.04 -10.82,-100.46 12.6,-65.7 34.41,-33.33 81.19,-21.98 110.37,-17.99"/>
<polygon fill="red" stroke="red" stroke-width="0.6" points="111.07,-21.43 120.6,-16.8 110.26,-14.48 111.07,-21.43"/>
</g>
<!-- &#45;8&#45;&gt;2 -->
<g id="edge2" class="edge">
<title>&#45;8&#45;&gt;2</title>
<path fill="none" stroke="green" stroke-width="3.51" d="M17.54,-175.2C20.58,-162.31 26.57,-136.88 31.02,-117.95"/>
<polygon fill="green" stroke="green" stroke-width="3.51" points="34.49,-118.5 33.38,-107.96 27.68,-116.89 34.49,-118.5"/>
</g>
<!-- &#45;9 -->
<g id="node9" class="node">
<title>&#45;9</title>
<polygon fill="lightgray" stroke="black" points="393.6,-266.01 369.6,-266.01 369.6,-248.01 393.6,-248.01 393.6,-266.01"/>
<text text-anchor="middle" x="381.6" y="-254.81" font-family="Times New Roman,serif" font-size="9.00">&#45;9</text>
</g>
<!-- &#45;10 -->
<g id="node10" class="node">
<title>&#45;10</title>
<polygon fill="lightgray" stroke="black" points="427.1,-193.43 398.1,-193.43 398.1,-175.43 427.1,-175.43 427.1,-193.43"/>
<text text-anchor="middle" x="412.6" y="-182.23" font-family="Times New Roman,serif" font-size="9.00">&#45;10</text>
</g>
<!-- &#45;10&#45;&gt;0 -->
<g id="edge3" class="edge">
<title>&#45;10&#45;&gt;0</title>
<path fill="none" stroke="green" stroke-width="1.89" d="M409.19,-175.2C403.73,-162.05 392.85,-135.83 384.94,-116.79"/>
<polygon fill="green" stroke="green" stroke-width="1.89" points="388.09,-115.23 381.02,-107.33 381.62,-117.91 388.09,-115.23"/>
</g>
<!-- &#45;11 -->
<g id="node11" class="node">
<title>&#45;11</title>
<polygon fill="lightgray" stroke="black" points="249.1,-102.28 220.1,-102.28 220.1,-84.28 249.1,-84.28 249.1,-102.28"/>
<text text-anchor="middle" x="234.6" y="-91.08" font-family="Times New Roman,serif" font-size="9.00">&#45;11</text>
</g>
<!-- &#45;11&#45;&gt;1 -->
<g id="edge4" class="edge">
<title>&#45;11&#45;&gt;1</title>
<path fill="none" stroke="green" stroke-width="4.62" d="M226.22,-84.08C220.55,-78.68 212.82,-71.54 205.6,-65.7 189.62,-52.76 170.56,-39.31 156.36,-29.64"/>
<polygon fill="green" stroke="green" stroke-width="4.62" points="158.37,-26.12 147.82,-23.88 153.85,-32.82 158.37,-26.12"/>
</g>
<!-- 13728&#45;&gt;3 -->
<g id="edge10" class="edge">
<title>13728&#45;&gt;3</title>
<path fill="none" stroke="green" stroke-width="0.3" d="M284.2,-159.54C291.37,-145.92 300.29,-129 307.25,-115.8"/>
<polygon fill="green" stroke="green" stroke-width="0.3" points="310.35,-117.43 311.92,-106.95 304.16,-114.16 310.35,-117.43"/>
</g>
<!-- 14607&#45;&gt;14262 -->
<g id="edge18" class="edge">
<title>14607&#45;&gt;14262</title>
<path fill="none" stroke="red" stroke-width="0.34" d="M149.71,-157.16C147.82,-148.73 145.69,-139.24 143.67,-130.23"/>
<polygon fill="red" stroke="red" stroke-width="0.34" points="147.06,-129.35 141.45,-120.35 140.23,-130.88 147.06,-129.35"/>
</g>
<!-- 14262&#45;&gt;1 -->
<g id="edge13" class="edge">
<title>14262&#45;&gt;1</title>
<path fill="none" stroke="red" stroke-width="0.57" d="M135.6,-65.55C135.6,-57.17 135.6,-47.97 135.6,-39.8"/>
<polygon fill="red" stroke="red" stroke-width="0.57" points="139.1,-39.79 135.6,-29.79 132.1,-39.79 139.1,-39.79"/>
</g>
</g>
</svg>
